<svg transform="scale(1)" id="_01099_Artist" xmlns="http://www.w3.org/2000/svg" viewBox="0 0 500 500" class="show_show__wrapper__graphic__5Waiy "><title>React</title><g id="plant"><path d="M74.26,329.78s-4.13-22.41,4.13-25.03,13.76,10.91,13.76,10.91c0,0-4.23-41.71,10.71-43.03,14.94-1.32,19.07,48.62,19.07,48.62,0,0,1.27-11.25,9.53-11.05,8.26.2,6.67,19.58,6.67,19.58h-63.88Z" fill="#fff" stroke-width="0"></path><path d="M138.14,330.28h-63.88c-.24,0-.45-.17-.49-.41-.17-.93-4.11-22.87,4.47-25.59,6.4-2.02,11.1,4.84,13.19,8.73-.54-7.67-1.38-29.29,5.49-37.59,1.63-1.98,3.62-3.08,5.9-3.28,1.99-.18,3.89.49,5.66,1.98,9,7.58,12.64,34.72,13.64,44.01,1.05-3.41,3.54-8.42,9.12-8.42.08,0,.15,0,.23,0,1.5.04,2.8.65,3.86,1.83,4.35,4.84,3.35,17.75,3.3,18.29-.02.26-.24.46-.5.46ZM74.68,329.28h62.99c.14-2.35.55-13.05-3.08-17.08-.88-.98-1.91-1.47-3.14-1.5-7.68-.21-9.01,10.5-9.03,10.61-.03.25-.24.44-.5.44h0c-.26,0-.47-.2-.49-.46-.03-.38-3.23-37.68-13.59-46.41-1.56-1.31-3.22-1.9-4.93-1.75-2,.18-3.76,1.16-5.21,2.92-7.97,9.64-5.07,39.26-5.04,39.56.03.25-.13.48-.38.54-.25.06-.49-.07-.58-.3-.05-.13-5.43-13.08-13.15-10.62-7.16,2.27-4.36,21.03-3.86,24.05Z" fill="#732a09" stroke-width="0"></path><path d="M102.07,277.43c0,13.52,0,27.04,0,40.56,0,3.82,0,7.63,0,11.45,0,.64,1,.64,1,0,0-13.52,0-27.04,0-40.56v-11.45c0-.64-1-.64-1,0h0Z" fill="#732a09" stroke-width="0"></path><path d="M107.56,289.8c-1.62,2.52-3.25,5.04-4.87,7.56-.35.54.52,1.04.86.5,1.62-2.52,3.25-5.04,4.87-7.56.35-.54-.52-1.04-.86-.5h0Z" fill="#732a09" stroke-width="0"></path><path d="M94.44,301.16c2.7,2.5,5.28,5.12,7.75,7.85.43.48,1.14-.23.71-.71-2.46-2.73-5.05-5.35-7.75-7.85-.47-.44-1.18.27-.71.71h0Z" fill="#732a09" stroke-width="0"></path><path d="M111.23,315.7c-2.98,2.76-5.96,5.51-8.94,8.27-.47.44.23,1.14.71.71,2.98-2.76,5.96-5.51,8.94-8.27.47-.44-.23-1.14-.71-.71h0Z" fill="#732a09" stroke-width="0"></path><path d="M80.05,312.79c1.75,5.59,3.24,11.26,4.47,16.99.14.63,1.1.36.96-.27-1.23-5.73-2.72-11.39-4.47-16.99-.19-.61-1.16-.35-.96.27h0Z" fill="#732a09" stroke-width="0"></path><path d="M83.89,320.13c.71-2.19,1.46-4.36,2.24-6.52.22-.61-.75-.87-.96-.27-.78,2.16-1.53,4.33-2.24,6.52-.2.61.77.88.96.27h0Z" fill="#732a09" stroke-width="0"></path><path d="M130.09,315.71c-1.15,4.28-1.62,8.71-1.39,13.13.03.64,1.03.64,1,0-.22-4.34.23-8.67,1.35-12.87.17-.62-.8-.89-.96-.27h0Z" fill="#732a09" stroke-width="0"></path><path d="M130.18,323.08c.84-1.4,1.91-2.63,3.17-3.66.21-.17.18-.53,0-.71-.21-.21-.5-.17-.71,0-1.32,1.08-2.45,2.4-3.32,3.86-.33.55.53,1.06.86.5h0Z" fill="#732a09" stroke-width="0"></path><path d="M155.98,330.28H56.42c-.28,0-.5-.22-.5-.5s.22-.5.5-.5h99.56c.28,0,.5.22.5.5s-.22.5-.5.5Z" fill="#732a09" stroke-width="0"></path></g><g id="character"><path d="M304.5,308.58c2.96,26.32,3.62,43.44-5.26,55.61l45.15,4.4c3.37.33,5.96,3.11,6.06,6.49.22,7.32-.89,19.78-9.6,28.01-1.09,1.03-2.52,1.6-4.01,1.71-13.88.99-88.79,5.63-104.51-8.68-17.33-15.79-6.81-52.32-6.81-52.32,0,0-39.15,18.43-61.2,32.58-17.01,10.92-35.99,21.82-43.76,26.22-2.55,1.44-5.66,1.42-8.2-.03-5.25-2.98-13.41-9.71-15.64-23.39-.46-2.85.47-5.74,2.56-7.73,8.22-7.83,31.25-29.44,48.26-42.47,21.06-16.12,60.22-42.45,60.22-42.45l96.74,22.05Z" fill="#fff" stroke-width="0"></path><path d="M295.26,406.8c-25.44,0-54.13-2-63.27-10.32-7.2-6.56-10.68-17.79-10.07-32.47.37-8.87,2.14-16.58,2.83-19.3-6.19,2.95-40.33,19.35-60.17,32.08-17.14,11-36.33,22.01-43.79,26.24-2.67,1.52-6,1.51-8.7-.02-4.95-2.81-13.58-9.63-15.88-23.74-.49-3.03.52-6.08,2.71-8.17,8.91-8.48,31.45-29.6,48.3-42.5,20.83-15.95,59.85-42.2,60.24-42.47.12-.08.25-.1.39-.07l96.74,22.05c.21.05.36.22.39.43,2.72,24.21,3.97,42.44-4.86,55.25l44.29,4.31c3.6.35,6.4,3.35,6.51,6.97.21,6.96-.78,19.91-9.76,28.38-1.13,1.07-2.67,1.73-4.31,1.85-6.22.44-23.05,1.51-41.61,1.51ZM225.52,343.29c.12,0,.23.04.32.12.15.13.21.33.16.52-.03.09-2.62,9.22-3.08,20.14-.42,10.02.94,23.65,9.74,31.67,6.45,5.88,24.65,9.32,52.61,9.95,22.57.51,45.14-.94,51.52-1.4,1.42-.1,2.73-.66,3.7-1.58,8.69-8.2,9.65-20.83,9.44-27.63-.09-3.12-2.5-5.7-5.61-6.01l-45.15-4.4c-.18-.02-.33-.13-.41-.29-.07-.16-.05-.35.05-.5,9.12-12.49,7.93-30.65,5.21-54.91l-96.19-21.92c-2.91,1.96-39.93,26.94-60.01,42.31-16.81,12.87-39.32,33.96-48.22,42.43-1.95,1.86-2.85,4.58-2.41,7.29,2.23,13.7,10.6,20.31,15.39,23.03,2.39,1.36,5.34,1.37,7.71.02,7.45-4.22,26.63-15.23,43.74-26.21,21.82-14,60.87-32.42,61.26-32.61.07-.03.14-.05.21-.05Z" fill="#732a09" stroke-width="0"></path><path d="M293.12,185.61c11.28,5.93,27.58,13.58,35.24,36.79s9.63,60.01,1.48,67.17c-8.15,7.16-19.26,8.4-19.26,8.4l-2.47,14.32s-34.82,11.61-63.46,1.48c-28.65-10.12-42.72-26.18-42.72-26.18l12.59-27.41s-29.88,6.17-35.07-15.56c-5.19-21.73,11.61-43.21,17.53-40s24.69,12.1,24.69,12.1c0,0,14.08-20.99,24.69-28.15,10.62-7.16,33.49-7.41,46.75-2.96Z" fill="#f75454" stroke-width="0"></path><path d="M272.9,400.97l-3.7,25.82-48.23-302.32c3.09.45,5.98,1.69,8.38,3.56l43.55,272.93Z" fill="#fff" stroke-width="0"></path><path d="M269.2,427.29c-.25,0-.46-.18-.49-.42l-48.23-302.32c-.02-.16.03-.32.14-.43.11-.11.27-.17.43-.14,3.15.46,6.13,1.72,8.62,3.66.1.08.17.19.19.32l43.55,272.93s0,.1,0,.15l-3.7,25.82c-.04.24-.24.43-.49.43h0ZM221.57,125.08l47.61,298.37,3.22-22.48-43.5-272.66c-2.14-1.63-4.66-2.74-7.32-3.23Z" fill="#732a09" stroke-width="0"></path><path d="M269.2,426.79l-.59,4.16c-.19,1.34-1.96,1.7-2.65.53l-5.23-8.81v-.02s-47.49-297.54-47.49-297.54c.67-.21,1.35-.39,2.05-.51,1.93-.35,3.83-.38,5.67-.12l48.23,302.32Z" fill="#732a09" stroke-width="0"></path><path d="M267.18,432.68c-.67,0-1.29-.35-1.65-.95l-5.23-8.81s-.07-.15-.07-.2l-47.48-297.54c-.04-.25.11-.48.35-.56.73-.23,1.44-.4,2.11-.52,1.94-.36,3.91-.4,5.83-.13.22.03.39.2.42.42l48.23,302.32s0,.1,0,.15l-.59,4.16c-.12.83-.72,1.46-1.53,1.63-.13.03-.26.04-.39.04ZM261.2,422.48l5.19,8.74c.25.42.67.5.98.44.31-.06.67-.3.74-.79l.58-4.08-48.16-301.87c-1.7-.2-3.42-.14-5.14.17-.51.09-1.04.21-1.58.37l47.39,297.02Z" fill="#732a09" stroke-width="0"></path><path d="M260.72,422.64l-10.69-18v-.02s-43.92-275.27-43.92-275.27c1.96-1.93,4.38-3.41,7.13-4.25l47.48,297.54Z" fill="#fff" stroke-width="0"></path><path d="M260.72,423.14c-.17,0-.34-.09-.43-.25l-10.69-18c-.03-.05-.06-.14-.08-.2l-43.91-275.27c-.03-.16.03-.32.14-.44,2.05-2.02,4.59-3.53,7.34-4.37.14-.04.29-.02.41.05.12.08.21.2.23.34l47.48,297.54c.04.24-.1.47-.32.55-.06.02-.11.03-.17.03ZM250.51,404.46l9.31,15.68-46.97-294.38c-2.31.8-4.44,2.09-6.2,3.77l43.86,274.92Z" fill="#732a09" stroke-width="0"></path><path d="M250.03,404.63l-7.34-12.36c-.2-.33-.36-.69-.5-1.05-.18-.44-.3-.91-.38-1.38l-38.69-232.47-2.07-12.45c-.17-.99-.24-1.97-.24-2.94,0-4.84,1.99-9.36,5.32-12.62l43.91,275.27Z" fill="#732a09" stroke-width="0"></path><path d="M250.03,405.12c-.17,0-.34-.09-.43-.25l-7.34-12.36c-.21-.35-.39-.73-.54-1.13-.17-.43-.31-.93-.41-1.46l-40.77-244.92c-.16-.97-.25-1.99-.25-3.02,0-4.85,2-9.58,5.47-12.98.13-.13.33-.18.51-.12.18.06.31.21.34.4l43.91,275.27c.04.24-.1.47-.32.55-.06.02-.11.03-.17.03ZM205.78,130.43c-2.86,3.15-4.49,7.3-4.49,11.56,0,.97.08,1.94.23,2.85l40.77,244.92c.08.46.2.89.36,1.27.13.36.29.69.47.98l6.01,10.11-43.34-271.69Z" fill="#732a09" stroke-width="0"></path><path d="M275.23,384.57c0,.1-.01.2-.03.3l-2.3,16.09-43.55-272.93c3.42,2.66,5.87,6.55,6.61,11.17l1.66,10.3,37.57,233.26c.09.59.11,1.21.04,1.81Z" fill="#732a09" stroke-width="0"></path><path d="M272.9,401.47c-.25,0-.46-.18-.49-.42l-43.55-272.93c-.03-.2.06-.41.24-.51.18-.1.4-.09.56.04,3.65,2.84,6.07,6.92,6.8,11.48l1.66,10.3,37.57,233.26c.1.65.12,1.3.05,1.92,0,.12-.02.24-.04.37l-2.3,16.06c-.04.25-.24.43-.49.43h0ZM230.06,129.28l42.82,268.35,1.83-12.82c.02-.1.03-.16.03-.23,0-.02,0-.04,0-.06.06-.54.05-1.1-.04-1.67l-39.22-243.56c-.62-3.88-2.53-7.38-5.42-10Z" fill="#732a09" stroke-width="0"></path><path d="M237.62,149.5c-15.59-2.89-28.21,3.58-34.52,7.86l-2.07-12.45c-.17-.99-.24-1.97-.24-2.94,0-8.38,5.98-15.82,14.51-17.38,9.76-1.79,19.09,4.8,20.67,14.6l1.66,10.3Z" fill="#f75454" stroke-width="0"></path><path d="M203.1,157.87c-.07,0-.13-.01-.2-.04-.16-.07-.27-.21-.3-.38l-2.07-12.45c-.16-.97-.25-1.99-.25-3.02,0-8.78,6.27-16.29,14.92-17.88,4.85-.89,9.75.19,13.78,3.04,4.03,2.85,6.69,7.1,7.47,11.98l1.66,10.3c.03.16-.03.32-.14.44-.12.12-.28.16-.44.13-15.49-2.86-28.04,3.65-34.15,7.79-.08.06-.18.09-.28.09ZM218.54,124.8c-1.04,0-2.1.09-3.15.29-8.17,1.5-14.1,8.6-14.1,16.89,0,.97.08,1.94.23,2.85l1.95,11.68c6.34-4.16,18.55-10.16,33.55-7.63l-1.54-9.61c-.74-4.61-3.25-8.63-7.06-11.32-2.94-2.08-6.36-3.16-9.88-3.16Z" fill="#732a09" stroke-width="0"></path><path d="M275.23,384.57c0,.1-.01.2-.03.3l-5.49,38.34-1.1,7.73c-.19,1.34-1.96,1.7-2.65.53l-3.97-6.69-19.31-32.53c-.2-.33-.36-.69-.5-1.05,1.7-3.79,2.75-5.69,3.36-6.61.31-.47.99-.46,1.29.01l2.86,4.58c.33.53,1.12.46,1.35-.13l2.42-6.28c.2-.52.87-.66,1.26-.25l4.9,5.16c.41.42,1.1.26,1.28-.29l1.71-5.36c.19-.59.96-.72,1.33-.24l3.21,4.17c.38.48,1.14.35,1.33-.22l1.64-4.92c.18-.54.88-.7,1.27-.28l3.83,4.03Z" fill="#fff" stroke-width="0"></path><path d="M267.18,432.68c-.67,0-1.29-.35-1.65-.95l-23.28-39.21c-.21-.35-.39-.73-.54-1.13-.05-.12-.04-.26.01-.38,1.77-3.95,2.83-5.81,3.4-6.69.24-.36.63-.57,1.06-.57h.01c.43,0,.83.22,1.06.59l2.87,4.59c.08.12.2.13.25.12.05,0,.17-.03.22-.17l2.42-6.28c.15-.4.5-.7.93-.78.42-.09.86.05,1.16.37l4.9,5.16c.1.1.21.08.26.07.05-.01.15-.05.19-.17l1.71-5.36c.14-.45.52-.78.98-.86.47-.08.94.1,1.23.46l3.21,4.17c.09.11.21.1.26.1.05,0,.16-.04.21-.17l1.63-4.91c.14-.42.48-.73.92-.83.44-.1.88.04,1.19.36l3.83,4.03c.09.09.14.22.14.34,0,.14-.01.26-.04.4l-6.59,46.04c-.12.83-.72,1.46-1.53,1.63-.13.03-.26.04-.39.04ZM242.73,391.22c.11.28.24.54.39.78l23.28,39.22c.25.42.67.5.98.44.31-.06.67-.3.74-.79l6.59-46.07s0-.03,0-.05l-3.68-3.87c-.09-.1-.21-.08-.25-.08-.04,0-.15.04-.19.17l-1.64,4.92c-.15.44-.53.76-.99.84-.46.07-.92-.1-1.21-.47l-3.21-4.17c-.09-.11-.21-.1-.26-.09-.06.01-.16.05-.2.18l-1.71,5.37c-.14.43-.48.74-.91.84-.44.1-.89-.03-1.21-.35l-4.9-5.16c-.09-.09-.2-.08-.24-.08-.04,0-.14.04-.19.16l-2.42,6.28c-.18.45-.58.75-1.06.8-.48.04-.93-.18-1.19-.59l-2.87-4.58c-.07-.11-.18-.12-.22-.12h0c-.05,0-.15.02-.23.12-.55.83-1.55,2.6-3.24,6.35Z" fill="#732a09" stroke-width="0"></path><path d="M269.71,423.22l-1.1,7.73c-.19,1.34-1.96,1.7-2.65.53l-3.97-6.69c1.78-1.09,4.49-2.17,7.72-1.57Z" fill="#732a09" stroke-width="0"></path><path d="M267.18,432.68c-.67,0-1.29-.35-1.65-.95l-3.97-6.69c-.14-.23-.06-.54.17-.68,1.79-1.1,4.63-2.27,8.07-1.64.26.05.44.3.4.56l-1.1,7.73c-.12.83-.72,1.46-1.53,1.63-.13.03-.26.04-.39.04ZM262.68,424.97l3.71,6.26c.25.42.67.5.98.44.31-.06.67-.3.74-.79l1.03-7.24c-2.66-.35-4.91.46-6.47,1.33Z" fill="#732a09" stroke-width="0"></path><path d="M260.61,285.45c-.93-2.52-3.43-4.08-6.11-3.93-6.76.4-7.03-1.07-11.2-2.48-4.81-1.63-6.29-2.59-7.59-.59s3.8,5.49,3.8,5.49c0,0-7.62.15-12.28,2.68-4.66,2.53-17.03,13.43-17.03,13.43,0,0,.21,2.7,3.45,1.36,3.24-1.34,11.87-5.96,11.87-5.96,0,0-8.27,10.87-9.15,12.67s2.42,4.14,5,.8c2.58-3.35,10.19-9.43,10.19-9.43,0,0-5.11,9.19-6.32,11.95-1.21,2.76,1.59,5.57,3.92,2.16s6.19-8.29,6.19-8.29l-1.4,12.89s2.68,2.24,4.35-2.89c1.67-5.13,2.92-8.25,2.92-8.25,0,0,6.31,1.21,12.32-3.62,6.01-4.83,7.12-5.84,7.12-5.84,0,0,2.05-3,.92-8.67-.27-1.36-.61-2.51-.97-3.48Z" fill="#fff" stroke-width="0"></path><path d="M235.33,319.18c-.96,0-1.66-.57-1.7-.6-.13-.11-.2-.27-.18-.44l1.21-11.15c-1.32,1.69-3.56,4.62-5.09,6.88-1.31,1.92-2.79,2.05-3.74,1.52-1.14-.63-1.84-2.36-1.05-4.16.84-1.92,3.48-6.8,5.08-9.71-2.43,2.04-6.4,5.49-8.1,7.69-1.61,2.09-3.6,2.23-4.87,1.45-1.04-.64-1.45-1.81-.98-2.77.67-1.38,5.44-7.77,7.84-10.95-2.76,1.45-7.63,3.98-9.92,4.92-1.26.52-2.28.55-3.04.08-.99-.61-1.1-1.81-1.1-1.87-.01-.16.05-.31.17-.41.51-.45,12.47-10.96,17.13-13.49,3.55-1.93,8.66-2.5,11.11-2.67-1.55-1.25-3.94-3.59-2.81-5.33,1.33-2.04,2.86-1.49,6.22-.29.58.21,1.23.44,1.95.68,1.18.4,2.05.8,2.83,1.16,1.98.92,3.42,1.58,8.18,1.3,2.93-.19,5.6,1.53,6.61,4.25h0c.4,1.09.74,2.28.99,3.55,1.16,5.81-.91,8.92-1,9.05-.02.03-.05.06-.08.09-.05.04-1.19,1.07-7.14,5.86-5.31,4.27-10.78,3.97-12.31,3.79-.37.97-1.44,3.8-2.76,7.86-.67,2.07-1.61,3.29-2.79,3.62-.23.07-.45.09-.66.09ZM234.48,317.95c.26.14.73.33,1.24.18.82-.24,1.55-1.27,2.1-2.97,1.65-5.08,2.92-8.25,2.93-8.29.09-.22.33-.35.56-.31.06.01,6.17,1.1,11.91-3.52,5.27-4.24,6.78-5.54,7.05-5.78.24-.39,1.81-3.25.81-8.24-.24-1.22-.56-2.36-.95-3.4h0c-.85-2.3-3.12-3.75-5.61-3.6-5.01.3-6.62-.45-8.66-1.39-.75-.35-1.61-.74-2.73-1.12-.73-.25-1.38-.48-1.97-.69-3.36-1.19-4.18-1.42-5.05-.1-.79,1.21,2.13,3.75,3.66,4.8.18.12.26.35.2.56-.06.21-.25.35-.47.36-.08,0-7.56.18-12.05,2.62-4.23,2.29-15.07,11.73-16.73,13.18.07.25.22.65.59.87.46.28,1.2.23,2.13-.16,3.18-1.31,11.74-5.9,11.83-5.94.21-.11.46-.06.62.12.15.18.16.44.02.63-2.85,3.75-8.42,11.2-9.1,12.59-.28.58.12,1.18.61,1.48.82.51,2.24.5,3.55-1.21,2.59-3.36,9.96-9.26,10.27-9.51.19-.15.45-.15.64,0,.18.15.23.42.11.62-.05.09-5.11,9.2-6.29,11.91-.55,1.27-.11,2.48.62,2.89.73.4,1.64-.05,2.43-1.21,2.31-3.39,6.17-8.27,6.21-8.32.14-.17.37-.24.58-.15.21.08.33.3.31.52l-1.37,12.59Z" fill="#732a09" stroke-width="0"></path><path d="M225.52,295.94c-.11,0-.22-.04-.31-.11-.22-.17-.25-.49-.08-.7l2.92-3.72c.17-.22.49-.25.7-.08.22.17.25.49.08.7l-2.92,3.72c-.1.13-.25.19-.39.19Z" fill="#732a09" stroke-width="0"></path><path d="M231.56,299.98c-.08,0-.17-.02-.25-.07-.24-.14-.32-.44-.18-.68l1.53-2.65c.14-.24.44-.32.68-.18s.32.44.18.68l-1.53,2.65c-.09.16-.26.25-.43.25Z" fill="#732a09" stroke-width="0"></path><path d="M235.36,305.81s-.06,0-.09,0c-.27-.05-.45-.31-.4-.58l.61-3.35c.05-.27.31-.45.58-.4.27.05.45.31.4.58l-.61,3.35c-.04.24-.25.41-.49.41Z" fill="#732a09" stroke-width="0"></path><path d="M239.51,284.44c-.25,0-.47-.19-.5-.45-.03-.28.17-.52.45-.55,7-.7,8.59-1.1,8.61-1.11.27-.07.54.09.61.35.07.27-.09.54-.35.61-.06.02-1.62.42-8.77,1.13-.02,0-.03,0-.05,0Z" fill="#732a09" stroke-width="0"></path><path d="M306.01,215.98c-9.29,10.7-4.35,51.64-4.35,51.64,0,0-40.46,7.88-44.88,8.59s-4.17,4-4.05,10.94c0,0,1.29,17.06,5.29,19.64s49.28-8,49.28-8" fill="#f75454" stroke-width="0"></path><path d="M260.72,307.67c-1.44,0-2.47-.14-2.96-.46-4.16-2.69-5.47-19.32-5.52-20.03l-.02-.85c-.12-6.37-.18-9.87,4.49-10.62,4.11-.66,39.93-7.62,44.41-8.5-.54-4.78-4.38-41.3,4.52-51.56.18-.21.5-.23.71-.05.21.18.23.5.05.71-9.04,10.41-4.28,50.84-4.23,51.25.03.26-.14.5-.4.55-.41.08-40.52,7.89-44.9,8.59-3.81.61-3.76,3.24-3.65,9.61v.82c.37,4.65,1.97,17.22,5.08,19.23,2.8,1.81,30.78-3.83,48.9-8.07.28-.06.54.11.6.37.06.27-.1.54-.37.6-4.09.96-36.23,8.39-46.71,8.39Z" fill="#732a09" stroke-width="0"></path><path d="M196.11,206.11c-2.13,6.86,5.21,20.71,11.01,18.7s4.35-8.17,7.1-9.25,14.91-.69,15.74-2.94-1.54-3.91-7.34-4.26c0,0,7.46-.36,8.88-1.66s-.61-3.58-6.46-3.35c-5.85.23-9.34-.1-9.34-.1,0,0,3.48-1.21,9.1-2.67,5.62-1.46,6.47-2.85,5.85-4.39s-6.39-.62-9.94,0-6.55,1.54-6.55,1.54c0,0,3.85-5.24,9.4-6.55s6.63-3.85,4.24-5.47-14.35,2.19-18.81,7.1l-2.12-12.74s-4.34,5.1-4.57,13.04-3.31,10.29-6.2,13Z" fill="#fff" stroke-width="0"></path><path d="M205.93,225.51c-1.47,0-3.02-.77-4.58-2.27-3.94-3.81-7.3-12.19-5.72-17.28.03-.08.07-.16.14-.22l.53-.49c2.73-2.53,5.3-4.92,5.51-12.16.23-8.02,4.51-13.13,4.69-13.35.13-.15.32-.21.51-.16.19.05.33.21.36.4l1.96,11.78c4.95-4.62,16.19-8.21,18.76-6.47,1.07.72,1.56,1.65,1.38,2.61-.3,1.61-2.35,2.95-5.78,3.76-3.67.87-6.6,3.55-8.07,5.14,1.23-.33,3.05-.77,5.02-1.11,5.82-1.01,9.83-1.35,10.49.31.28.71.28,1.34-.02,1.92-.62,1.22-2.52,2.19-6.18,3.14-2.71.7-4.92,1.35-6.49,1.83,1.58.05,3.82.07,6.57-.04,4.59-.17,6.8,1.15,7.29,2.34.28.67.1,1.35-.47,1.88-.76.7-2.91,1.14-4.94,1.41,1.65.44,2.76,1.1,3.33,1.96.45.69.52,1.5.21,2.35-.58,1.56-4.32,1.98-9.97,2.43-2.6.21-5.06.41-6.05.8-.9.35-1.27,1.48-1.75,2.9-.75,2.26-1.69,5.08-5.37,6.36-.44.15-.89.23-1.35.23ZM196.55,206.38c-1.38,4.77,1.79,12.55,5.5,16.14,1.22,1.18,3.06,2.45,4.9,1.82,3.21-1.11,4.03-3.57,4.75-5.73.51-1.54,1-2.99,2.33-3.51,1.13-.45,3.54-.64,6.34-.86,3.26-.26,8.72-.7,9.12-1.78.2-.55.17-1.03-.11-1.46-.44-.67-1.9-1.83-6.79-2.13-.27-.02-.47-.24-.47-.5,0-.27.21-.48.48-.5,2.81-.13,7.62-.67,8.56-1.53.39-.36.26-.66.22-.76-.28-.67-1.93-1.9-6.33-1.72-5.82.23-9.37-.1-9.4-.11-.23-.02-.42-.21-.45-.44-.03-.23.11-.46.33-.53.04-.01,3.56-1.23,9.14-2.68,3.22-.84,5.08-1.72,5.54-2.62.16-.32.16-.66-.02-1.1-.23-.56-2.04-.97-9.39.31-3.47.6-6.46,1.52-6.49,1.53-.21.07-.43-.01-.55-.19-.12-.18-.12-.41,0-.59.16-.22,4.03-5.4,9.69-6.74,3.46-.82,4.86-2.07,5.03-2.96.13-.7-.45-1.26-.96-1.6-2.12-1.44-13.84,2.26-18.16,7.02-.13.14-.33.2-.51.14-.18-.05-.32-.21-.35-.4l-1.93-11.57c-1.21,1.79-3.6,6.05-3.77,11.8-.22,7.66-3.08,10.31-5.83,12.86l-.43.4Z" fill="#732a09" stroke-width="0"></path><path d="M215.11,209.05c-.27,0-.49-.22-.5-.49,0-.28.21-.51.49-.51l7.51-.19c.26,0,.51.21.51.49s-.21.51-.49.51l-7.51.19h-.01Z" fill="#732a09" stroke-width="0"></path><path d="M205.49,198.02c-.08,0-.16-.02-.23-.06-.25-.13-.34-.43-.21-.67.06-.12,1.54-2.95,3.62-4.84.2-.18.52-.17.71.03s.17.52-.03.71c-1.94,1.77-3.39,4.54-3.41,4.57-.09.17-.26.27-.44.27Z" fill="#732a09" stroke-width="0"></path><line x1="213.83" y1="220.96" x2="212.23" y2="246.2" fill="#f55454" stroke-width="0"></line><path d="M212.23,246.7s-.02,0-.03,0c-.28-.02-.49-.25-.47-.53l1.6-25.24c.02-.28.22-.48.53-.47.28.02.49.25.47.53l-1.6,25.24c-.02.27-.24.47-.5.47Z" fill="#732a09" stroke-width="0"></path><line x1="214.52" y1="260.18" x2="218.87" y2="252.07" fill="#f55454" stroke-width="0"></line><path d="M214.52,260.68c-.08,0-.16-.02-.24-.06-.24-.13-.33-.43-.2-.68l4.35-8.11c.13-.24.43-.34.68-.2.24.13.33.43.2.68l-4.35,8.11c-.09.17-.26.26-.44.26Z" fill="#732a09" stroke-width="0"></path><path d="M225.52,344.29s-.09,0-.13-.02c-.27-.07-.42-.35-.35-.61l3.83-14.15c.07-.27.35-.42.61-.35.27.07.42.35.35.61l-3.83,14.15c-.06.22-.26.37-.48.37Z" fill="#732a09" stroke-width="0"></path><path d="M351.62,370.79c6.98,6.5,2.86,27.48-4.85,31.34,0,0,17.65,16.13,27.06,19.03,9.4,2.9,21.65-9.99,9.74-27.17-9.32-13.44-16.37-20.56-18.99-23.03-.69-.64-1.61-.97-2.55-.91l-10.41.74Z" fill="#f65454" stroke-width="0"></path><path d="M379.31,420.18c-.12,0-.25-.05-.35-.14-.2-.19-.21-.51-.02-.71,1.65-1.72,3.53-5.35,3.1-12.81-.72-12.47-18.18-29.39-23.51-34.28-.2-.19-.22-.5-.03-.71s.5-.22.71-.03c5.4,4.95,23.09,22.1,23.83,34.95.45,7.82-1.58,11.69-3.37,13.56-.1.1-.23.15-.36.15Z" fill="#732a09" stroke-width="0"></path><path d="M358.37,377.93c-.95,0-1.62-.1-1.68-.11-.27-.04-.46-.3-.41-.57.04-.27.3-.46.57-.42.04,0,3.72.57,6.18-1.11.23-.16.54-.1.69.13.16.23.1.54-.13.69-1.68,1.15-3.78,1.39-5.22,1.39Z" fill="#732a09" stroke-width="0"></path><path d="M353.48,413.82s-.04,0-.06,0c-.27-.03-.47-.28-.44-.56.05-.43,1.35-10.73,6.56-17.81.16-.22.48-.27.7-.11.22.16.27.48.11.7-5.06,6.87-6.36,17.23-6.38,17.34-.03.25-.25.44-.5.44Z" fill="#732a09" stroke-width="0"></path><path d="M358.7,418.17s-.04,0-.06,0c-.27-.03-.47-.28-.44-.56.05-.43,1.35-10.73,6.56-17.81.16-.22.48-.27.7-.11.22.16.27.48.11.7-5.06,6.87-6.36,17.23-6.38,17.34-.03.25-.25.44-.5.44Z" fill="#732a09" stroke-width="0"></path><path d="M95.59,392.35c-22.66,1.62-33.19.96-39.79,6.05-6.6,5.09-1.45,17.95,7.76,21.89,9.21,3.95,30.68,7.44,36.92,5.34,6.23-2.1,10.5-20.29,10.5-20.29,0,0-13.42-.72-15.38-12.99Z" fill="#f65454" stroke-width="0"></path><path d="M103.11,421.52h0c-.17,0-17.37-.16-25.47-1.88-8.14-1.72-20.71-8.47-23.17-18.06-.07-.27.09-.54.36-.61.27-.07.54.09.61.36,2.32,9.08,14.74,15.71,22.41,17.33,8,1.69,25.1,1.85,25.27,1.85.28,0,.5.23.5.5,0,.28-.23.5-.5.5Z" fill="#732a09" stroke-width="0"></path><path d="M95.59,421.33s-.04,0-.05,0c-.27-.03-.47-.28-.44-.55,1.07-10.07,11.99-10.57,12.1-10.58.24-.03.51.21.52.48.01.28-.21.51-.48.52-.41.01-10.17.48-11.14,9.68-.03.26-.24.45-.5.45Z" fill="#732a09" stroke-width="0"></path><path d="M84.75,400.68c-.17,0-.34-.09-.43-.25l-7.07-12.03c-.14-.24-.06-.54.18-.68.24-.14.54-.06.68.18l7.07,12.03c.14.24.06.54-.18.68-.08.05-.17.07-.25.07Z" fill="#732a09" stroke-width="0"></path><path d="M79,400.98c-.17,0-.34-.09-.43-.25l-7.08-12.03c-.14-.24-.06-.54.18-.68s.54-.06.68.18l7.08,12.03c.14.24.06.54-.18.68-.08.05-.17.07-.25.07Z" fill="#732a09" stroke-width="0"></path><path d="M262.83,128.77s-5.25,3.39-2.78,10.56c2.47,7.17,35.05,31.73,35.05,31.73l1.07,4.09s8.63-2.17,13.1-7.9c4.47-5.73,3.04-16.24,3.04-16.24l-38.65-24.47-10.84,2.24Z" fill="#732a09" stroke-width="0"></path><path d="M296.17,175.64c-.22,0-.42-.15-.48-.37l-1.03-3.92c-2.62-1.98-32.65-24.79-35.09-31.86-2.57-7.45,2.93-11.11,2.98-11.14.05-.03.11-.06.17-.07l10.84-2.24c.13-.03.26,0,.37.07l38.65,24.47c.12.08.21.21.23.36.06.44,1.4,10.78-3.14,16.62-4.52,5.8-13.01,7.99-13.37,8.08-.04,0-.08.01-.12.01ZM263.03,129.24c-.63.44-4.69,3.6-2.51,9.93,2.4,6.95,34.56,31.25,34.88,31.49.09.07.15.16.18.27l.95,3.59c1.85-.55,8.64-2.82,12.35-7.59,3.93-5.04,3.14-14.09,2.97-15.64l-38.27-24.23-10.54,2.18Z" fill="#732a09" stroke-width="0"></path><path d="M297.71,170.12c-2.91,8.95-4.21,15.75-4.78,19.58-.34,2.3-2.25,4.04-4.57,4.14-2.44.11-5.64-.16-8.75-1.67-2.81-1.36-4.22-4.56-3.31-7.54l2.42-7.97,19-6.54Z" fill="#fff" stroke-width="0"></path><path d="M287.44,194.37c-2.22,0-5.17-.34-8.05-1.74-3.05-1.47-4.55-4.89-3.57-8.14l2.42-7.97c.05-.15.16-.28.32-.33l19-6.54c.18-.06.38-.02.51.12s.18.33.12.51c-2.84,8.75-4.16,15.43-4.76,19.5-.38,2.53-2.5,4.45-5.04,4.56-.29.01-.61.02-.94.02ZM279.12,177.06l-2.34,7.73c-.84,2.77.44,5.69,3.05,6.95,3.12,1.51,6.36,1.71,8.51,1.62,2.07-.09,3.79-1.65,4.1-3.71.59-3.96,1.84-10.37,4.5-18.71l-17.81,6.13Z" fill="#732a09" stroke-width="0"></path><path d="M312.54,163.06c-1.57,8.26-10.09,5.61-10.09,5.61,0,0-16.94,18.82-35.09,11.63-8.83-3.49-12.1-11.45-11.92-20.74.13-7.34,2.41-15.51,5.8-22.99,4.53-.36,9.03-2.43,12.4-4.39,1.68,3.34,4.62,5.58,7.79,6.47,1.4,3.46,3.7,6.77,7.41,8.03,11.14,3.81,13.01,10.45,12.97,12.22-.04,1.77-3.03,5.88-3.03,5.88l3.48,1.03,6.34-9.61c.18.04,5.01,1.26,3.95,6.87Z" fill="#fff" stroke-width="0"></path><path d="M275.85,182.42c-2.82,0-5.74-.49-8.68-1.66-8.21-3.24-12.44-10.58-12.23-21.22.13-6.9,2.2-15.14,5.84-23.18.07-.17.23-.28.42-.29,3.66-.29,7.76-1.75,12.18-4.32.12-.07.26-.09.39-.05.13.04.24.13.3.25,1.53,3.05,4.26,5.31,7.48,6.21.15.04.27.15.33.29,1.67,4.1,4.06,6.71,7.11,7.75,11.06,3.78,13.36,10.46,13.31,12.71-.03,1.52-1.86,4.34-2.72,5.59l2.45.73,6.13-9.3c.12-.18.33-.26.53-.21.22.05,5.47,1.39,4.33,7.45h0c-.47,2.5-1.61,4.3-3.37,5.36-2.71,1.62-6.03.97-7.05.72-1.69,1.77-13.12,13.19-26.75,13.19ZM261.57,137.04c-3.51,7.84-5.51,15.83-5.63,22.52-.14,7.1,1.77,16.39,11.6,20.27,17.62,6.98,34.37-11.31,34.54-11.5.13-.15.33-.2.52-.14.04.01,3.77,1.14,6.55-.54,1.5-.91,2.48-2.48,2.9-4.68h0c.82-4.37-2.21-5.83-3.25-6.19l-6.13,9.3c-.12.18-.35.27-.56.2l-3.48-1.03c-.16-.05-.28-.17-.33-.32-.05-.15-.03-.32.07-.46.81-1.11,2.9-4.28,2.93-5.6,0-.07-.19-7.49-12.63-11.74-3.28-1.12-5.84-3.84-7.62-8.09-3.22-.97-5.96-3.2-7.62-6.19-4.26,2.42-8.25,3.83-11.86,4.17ZM312.54,163.06h0,0Z" fill="#732a09" stroke-width="0"></path><path d="M302.45,168.67s-16.94,18.82-35.09,11.63c-8.83-3.49-12.1-11.45-11.92-20.74,1.32,3.75,7.04,5.83,10.64,4.87,3.61-.95,13.07.67,16.19,3.21,3.1,2.54,13.61-.08,16.51-2.86l3.48,1.03s.8,1.19.2,2.86Z" fill="#732a09" stroke-width="0"></path><path d="M275.85,182.42c-2.82,0-5.74-.49-8.68-1.66-8.21-3.24-12.44-10.58-12.23-21.22,0-.24.18-.45.42-.48.23-.04.47.1.55.33,1.23,3.5,6.64,5.46,10.04,4.56,3.75-.99,13.32.61,16.63,3.31,2.91,2.39,13.13-.23,15.85-2.84.13-.12.32-.17.49-.12l3.48,1.03c.11.03.21.1.27.2.04.06.94,1.42.25,3.31-.02.06-.05.12-.1.16-.14.16-12.28,13.42-26.97,13.42ZM255.95,161.49c.25,6.77,2.62,14.8,11.59,18.34,17.05,6.75,33.3-10.17,34.47-11.43.35-1.06.06-1.87-.09-2.18l-3.01-.89c-3.33,2.86-13.67,5.38-16.96,2.69-2.97-2.43-12.32-4.02-15.74-3.12-3.26.87-7.99-.55-10.25-3.42ZM302.45,168.67h0,0Z" fill="#732a09" stroke-width="0"></path><path d="M280.33,150.82c2.87-1.99,7.18-1.01,8.77,2.12.18.57,1.01,1.51.25,1.91-.22.08-.45-.01-.59-.18-.96-1.18-2.03-2.38-3.48-2.89-1.41-.55-3.08-.42-4.54-.05-.53.15-.86-.62-.4-.91h0Z" fill="#732a09" stroke-width="0"></path><path d="M263.81,142.63c3.79-2.6,9.04,1.13,10.23,4.96.1.26-.03.55-.28.65-.21.08-.44.01-.58-.16-1.13-1.47-2.31-2.88-3.9-3.79-1.39-.79-3.27-1.41-4.81-.9-.52.32-1.09-.31-.65-.76h0Z" fill="#732a09" stroke-width="0"></path><path d="M268.34,162.33c-.37,0-.73-.05-1.07-.14-1.33-.36-2.6-1.51-2.2-3.64.17-.9.62-1.57,1.33-1.98,1.33-.76,3.21-.39,4.07-.16.46-1.13,1.74-4.48,2.63-8.71.06-.27.33-.44.59-.39.27.06.44.32.39.59-1.12,5.3-2.85,9.27-2.87,9.31-.11.24-.38.36-.62.27-.02,0-2.37-.82-3.7-.05-.46.26-.73.69-.85,1.29-.34,1.79.93,2.34,1.48,2.49,1.34.37,3.11-.18,3.66-1.7.09-.26.38-.39.64-.3.26.09.4.38.3.64-.6,1.66-2.25,2.47-3.79,2.47Z" fill="#732a09" stroke-width="0"></path><path d="M283.75,158.44c-.56,1.48-1.84,2.35-2.85,1.97s-1.4-1.88-.84-3.36c.17-.44.41-.83.68-1.15l1.4,1.61-.02-2.47c.27-.06.53-.04.78.06,1.02.38,1.4,1.88.85,3.35Z" fill="#732a09" stroke-width="0"></path><path d="M267.92,150.46c-.43,1.52-1.63,2.5-2.68,2.2s-1.55-1.76-1.12-3.28c.13-.45.34-.87.59-1.2l1.53,1.49-.22-2.46c.27-.08.52-.08.78,0,1.04.3,1.55,1.76,1.12,3.27Z" fill="#732a09" stroke-width="0"></path><path d="M269.76,167.6c2.8,6.49,7.04,1.54,7.04,1.54l-7.04-1.54Z" fill="#fff" stroke-width="0"></path><path d="M262.83,128.77c-3.01-1.04.47-7.83,2.26-9.42s2.86-.87,2.86-.87c0,0,6.86-7.23,12.76-9.71s10.47-5.27,13.21-6.95,9.32-4.46,14.16-1.89c4.83,2.56,9.6,13.21,8.15,23.76-1.45,10.55-1.34,17.9-2.34,20.77,0,0,1.74,1.2.33,3.82-1.41,2.62-1.57,5.26-3.34,4.82s-14.58-11.93-26.53-17.6c-11.95-5.67-21.52-6.73-21.52-6.73Z" fill="#fff" stroke-width="0"></path><path d="M311.26,153.65c-.16,0-.33-.02-.51-.07-.67-.17-2.2-1.32-5.34-3.7-5.35-4.07-13.44-10.21-21.29-13.94-11.73-5.57-21.26-6.67-21.36-6.68-.04,0-.07-.01-.11-.02-.78-.27-1.28-.86-1.45-1.73-.52-2.59,2.06-7.22,3.54-8.54,1.42-1.26,2.51-1.23,3.07-1.08,1.27-1.31,7.3-7.32,12.69-9.58,5.87-2.46,10.42-5.25,13.14-6.92,3.14-1.93,9.77-4.5,14.65-1.91,5.17,2.74,9.86,13.7,8.41,24.27-.68,4.95-1.01,9.19-1.28,12.6-.29,3.64-.5,6.33-.98,7.96.51.54,1.42,1.94.2,4.2-.42.78-.73,1.58-1.01,2.29-.57,1.46-1.11,2.85-2.38,2.85ZM262.95,128.28c.85.1,10.22,1.35,21.62,6.76,7.94,3.77,16.08,9.95,21.46,14.04,2.4,1.82,4.47,3.4,4.97,3.52.72.18,1.03-.42,1.72-2.18.29-.73.61-1.56,1.06-2.39,1.17-2.17-.12-3.13-.18-3.17-.18-.13-.26-.37-.18-.57.51-1.46.73-4.21,1.03-8.02.27-3.42.61-7.68,1.29-12.65,1.37-10.01-3.12-20.72-7.89-23.25-4.49-2.38-10.7.06-13.66,1.88-2.74,1.68-7.33,4.49-13.27,6.98-5.73,2.41-12.52,9.52-12.59,9.59-.17.18-.44.21-.64.07-.02-.01-.81-.45-2.25.83-1.33,1.18-3.66,5.45-3.23,7.6.1.5.34.8.75.96Z" fill="#732a09" stroke-width="0"></path><path d="M313.89,144.96c-.12,0-.25-.05-.34-.14-.14-.14-14.55-13.76-27.78-19.85-13.12-6.03-17.73-6-17.79-6-.24.04-.51-.21-.51-.49s.21-.5.48-.51c.2,0,4.82-.09,18.24,6.09,13.38,6.16,27.9,19.9,28.05,20.04.2.19.21.51.02.71-.1.1-.23.16-.36.16Z" fill="#732a09" stroke-width="0"></path><path d="M274.52,120.04c2.03-1.56,4.15-3.01,6.38-4.27s4.71-1.96,6.94-3.21,4.46-2.62,6.61-4.03c1.98-1.3,3.84-2.76,5.76-4.14,2.1-1.51,4.32-2.9,6.84-3.6.62-.17.36-1.14-.27-.96-4.51,1.25-7.98,4.53-11.75,7.12-2.16,1.48-4.42,2.83-6.67,4.16-1.12.67-2.26,1.3-3.48,1.78s-2.42.93-3.58,1.53c-2.57,1.33-4.99,3-7.29,4.76-.5.39,0,1.26.5.86h0Z" fill="#732a09" stroke-width="0"></path><path d="M307.2,100.07c-3.42,2.4-6.35,5.39-9.19,8.44-1.42,1.52-2.88,3.01-4,4.77-.58.91-1.15,1.73-1.95,2.46-.76.68-1.55,1.31-2.27,2.04-1.65,1.68-2.98,3.63-4.3,5.56-.36.53.5,1.03.86.5,1.17-1.71,2.34-3.44,3.76-4.96,1.33-1.43,3.03-2.5,4.14-4.13.57-.84,1.08-1.71,1.73-2.51s1.4-1.6,2.13-2.38c1.39-1.5,2.79-2.99,4.26-4.43,1.67-1.63,3.43-3.17,5.34-4.51.52-.37.02-1.23-.5-.86h0Z" fill="#732a09" stroke-width="0"></path><path d="M308.43,101.67c2.41,4.16,1.67,9.13,1.2,13.68-.26,2.5-.31,4.97-.19,7.48s.26,4.98.02,7.48c-.28,2.84-.93,5.62-1.58,8.39-.15.63.82.89.96.27.58-2.47,1.15-4.95,1.47-7.47s.3-5.2.16-7.83-.17-5.14.09-7.72.6-4.99.55-7.5-.54-5.07-1.83-7.29c-.32-.56-1.19-.05-.86.5h0Z" fill="#732a09" stroke-width="0"></path><path d="M307.56,100.97c-.76,4.08-2.05,7.99-3.76,11.77-.82,1.81-1.62,3.62-1.97,5.58s-.57,3.96-1.27,5.88c-.79,2.17-1.91,4.2-3.03,6.21-.31.56.55,1.07.86.5.96-1.73,1.91-3.47,2.67-5.29.82-1.94,1.25-3.91,1.56-5.99s.94-3.97,1.8-5.88,1.63-3.69,2.29-5.6c.77-2.26,1.37-4.57,1.81-6.92.12-.63-.85-.9-.96-.27h0Z" fill="#732a09" stroke-width="0"></path><path d="M401.92,437.71c-3.81,0-6.54-.32-6.83-.35h-127.05c-.28,0-.5-.22-.5-.5s.22-.5.5-.5h127.11c.25.03,19.24,2.24,28.52-5.31,2.98-2.42,4.66-5.63,4.99-9.53.84-9.99-7.16-12.38-14.89-14.7-6.62-1.98-13.46-4.03-13.72-11.05-.06-1.68.57-3.2,1.87-4.51,7.95-7.99,39.7-6.99,58.67-6.39,3.68.12,6.85.22,9.05.22.28,0,.5.22.5.5s-.22.5-.5.5c-2.21,0-5.4-.1-9.08-.22-17.57-.55-50.29-1.59-57.93,6.1-1.11,1.12-1.63,2.35-1.58,3.76.23,6.3,6.44,8.16,13.01,10.13,7.74,2.32,16.51,4.95,15.6,15.74-.35,4.18-2.15,7.62-5.35,10.23-6.07,4.94-15.82,5.88-22.37,5.88Z" fill="#732a09" stroke-width="0"></path></g><g id="plant-2"><path d="M353.96,315.2s-3.88-21.02,3.88-23.48,12.91,10.23,12.91,10.23c0,0-3.96-39.13,10.05-40.37,14.01-1.24,17.89,45.61,17.89,45.61,0,0,1.19-10.55,8.94-10.37s6.26,18.37,6.26,18.37h-59.92Z" fill="#fff" stroke-width="0"></path><path d="M413.88,315.7h-59.92c-.24,0-.45-.17-.49-.41-.16-.88-3.86-21.48,4.22-24.04,5.96-1.89,10.35,4.4,12.34,8.08-.51-7.32-1.24-27.39,5.17-35.14,1.54-1.86,3.41-2.9,5.55-3.09,1.88-.17,3.67.46,5.33,1.87,8.4,7.08,11.83,32.3,12.79,41.15,1.02-3.24,3.45-7.94,8.75-7.78,1.42.03,2.64.62,3.64,1.73,4.09,4.55,3.15,16.67,3.11,17.18-.02.26-.24.46-.5.46ZM354.38,314.7h59.03c.13-2.26.5-12.22-2.88-15.97-.82-.91-1.77-1.37-2.92-1.39-7.16-.17-8.42,9.82-8.43,9.92-.03.26-.25.41-.5.44-.26,0-.47-.2-.49-.46-.03-.35-3.03-35.33-12.74-43.51-1.46-1.23-3.01-1.78-4.6-1.63-1.87.17-3.51,1.08-4.87,2.73-7.47,9.03-4.75,36.81-4.72,37.09.03.25-.13.48-.38.54-.25.06-.49-.07-.58-.3-.05-.12-5.08-12.25-12.29-9.94-6.67,2.12-4.09,19.59-3.6,22.5Z" fill="#732a09" stroke-width="0"></path><path d="M380.01,266.1v48.79c0,.64,1,.64,1,0v-48.79c0-.64-1-.64-1,0h0Z" fill="#732a09" stroke-width="0"></path><path d="M385.16,277.68c-1.52,2.36-3.05,4.73-4.57,7.09-.35.54.52,1.04.86.5,1.52-2.36,3.05-4.73,4.57-7.09.35-.54-.52-1.04-.86-.5h0Z" fill="#732a09" stroke-width="0"></path><path d="M372.87,288.38c2.53,2.35,4.96,4.8,7.27,7.37.43.48,1.14-.23.71-.71-2.31-2.56-4.74-5.02-7.27-7.37-.47-.44-1.18.27-.71.71h0Z" fill="#732a09" stroke-width="0"></path><path d="M388.61,301.97c-2.8,2.58-5.59,5.17-8.39,7.75-.47.44.23,1.14.71.71,2.8-2.58,5.59-5.17,8.39-7.75.47-.44-.23-1.14-.71-.71h0Z" fill="#732a09" stroke-width="0"></path><path d="M359.35,299.27c1.64,5.24,3.04,10.56,4.19,15.93.14.63,1.1.36.96-.27-1.15-5.37-2.55-10.69-4.19-15.93-.19-.61-1.16-.35-.96.27h0Z" fill="#732a09" stroke-width="0"></path><path d="M363.02,306.15c.67-2.05,1.37-4.09,2.1-6.12.22-.61-.75-.87-.96-.27-.74,2.03-1.44,4.07-2.1,6.12-.2.61.77.88.96.27h0Z" fill="#732a09" stroke-width="0"></path><path d="M406.3,301.99c-1.08,4.02-1.52,8.18-1.3,12.33.03.64,1.03.64,1,0-.21-4.07.21-8.13,1.27-12.06.17-.62-.8-.89-.96-.27h0Z" fill="#732a09" stroke-width="0"></path><path d="M406.44,308.93c.78-1.31,1.78-2.46,2.97-3.43.21-.17.18-.53,0-.71-.21-.21-.5-.17-.71,0-1.24,1.02-2.3,2.25-3.12,3.63-.14.23-.05.55.18.68s.55.05.68-.18h0Z" fill="#732a09" stroke-width="0"></path><path d="M430.61,315.7h-93.38c-.28,0-.5-.22-.5-.5s.22-.5.5-.5h93.38c.28,0,.5.22.5.5s-.22.5-.5.5Z" fill="#732a09" stroke-width="0"></path></g><g id="shape"><rect x="106.88" y="154.43" width="36.4" height="36.4" fill="#fff" stroke-width="0"></rect><path d="M143.28,191.34h-36.4c-.28,0-.5-.22-.5-.5v-36.4c0-.28.22-.5.5-.5h36.4c.28,0,.5.22.5.5v36.4c0,.28-.22.5-.5.5ZM107.38,190.34h35.4v-35.4h-35.4v35.4Z" fill="#732a09" stroke-width="0"></path><rect x="125.08" y="175.67" width="36.4" height="36.4" fill="#f75454" stroke-width="0"></rect><path d="M161.48,212.57h-36.4c-.28,0-.5-.22-.5-.5v-36.4c0-.28.22-.5.5-.5h36.4c.28,0,.5.22.5.5v36.4c0,.28-.22.5-.5.5ZM125.58,211.57h35.4v-35.4h-35.4v35.4Z" fill="#732a09" stroke-width="0"></path></g><g id="sun"><circle cx="179.72" cy="86.68" r="13.82" fill="#fff" stroke-width="0"></circle><path d="M179.72,101c-7.9,0-14.32-6.42-14.32-14.32s6.42-14.32,14.32-14.32,14.32,6.43,14.32,14.32-6.42,14.32-14.32,14.32ZM179.72,73.36c-7.35,0-13.32,5.98-13.32,13.32s5.98,13.32,13.32,13.32,13.32-5.98,13.32-13.32-5.98-13.32-13.32-13.32Z" fill="#732a09" stroke-width="0"></path><path d="M179.72,122.59c-.28,0-.5-.22-.5-.5v-15.25c0-.28.22-.5.5-.5s.5.22.5.5v15.25c0,.28-.22.5-.5.5Z" fill="#732a09" stroke-width="0"></path><path d="M179.72,67.02c-.28,0-.5-.22-.5-.5v-15.25c0-.28.22-.5.5-.5s.5.22.5.5v15.25c0,.28-.22.5-.5.5Z" fill="#732a09" stroke-width="0"></path><path d="M154.69,112.22c-.13,0-.26-.05-.35-.15-.2-.2-.2-.51,0-.71l10.78-10.78c.2-.2.51-.2.71,0s.2.51,0,.71l-10.78,10.78c-.1.1-.23.15-.35.15Z" fill="#732a09" stroke-width="0"></path><path d="M193.98,72.92c-.13,0-.26-.05-.35-.15-.2-.2-.2-.51,0-.71l10.78-10.78c.2-.2.51-.2.71,0s.2.51,0,.71l-10.78,10.78c-.1.1-.23.15-.35.15Z" fill="#732a09" stroke-width="0"></path><path d="M204.76,112.22c-.13,0-.26-.05-.35-.15l-10.78-10.78c-.2-.2-.2-.51,0-.71s.51-.2.71,0l10.78,10.78c.2.2.2.51,0,.71-.1.1-.23.15-.35.15Z" fill="#732a09" stroke-width="0"></path><path d="M165.47,72.92c-.13,0-.26-.05-.35-.15l-10.78-10.78c-.2-.2-.2-.51,0-.71s.51-.2.71,0l10.78,10.78c.2.2.2.51,0,.71-.1.1-.23.15-.35.15Z" fill="#732a09" stroke-width="0"></path><path d="M159.57,87.18h-15.25c-.28,0-.5-.22-.5-.5s.22-.5.5-.5h15.25c.28,0,.5.22.5.5s-.22.5-.5.5Z" fill="#732a09" stroke-width="0"></path><path d="M215.13,87.18h-15.25c-.28,0-.5-.22-.5-.5s.22-.5.5-.5h15.25c.28,0,.5.22.5.5s-.22.5-.5.5Z" fill="#732a09" stroke-width="0"></path></g><path id="ruler" d="M341.05,157.05v55.64h62.13l-62.13-55.64ZM350,177.37l30.49,27.3h-30.49v-27.3Z" fill="#fff" stroke-width="0"></path><path d="M403.18,213.19h-62.13c-.28,0-.5-.22-.5-.5v-55.64c0-.2.12-.38.3-.46.18-.08.39-.05.54.08l62.13,55.64c.15.14.21.36.13.55s-.26.32-.47.32ZM341.55,212.19h60.32l-60.32-54.02v54.02ZM380.48,205.17h-30.49c-.28,0-.5-.22-.5-.5v-27.3c0-.2.12-.38.3-.46.18-.08.39-.05.54.08l30.49,27.3c.15.14.21.36.13.55s-.26.32-.47.32ZM350.5,204.17h28.68l-28.68-25.68v25.68Z" fill="#732a09" stroke-width="0"></path></svg>