<svg transform="scale(1)" version="1.1" id="_x30_233_x5F_Coding_x5F_9" xmlns="http://www.w3.org/2000/svg" xmlns:xlink="http://www.w3.org/1999/xlink" x="0px" y="0px" viewBox="0 0 500 500" xml:space="preserve" class="show_show__wrapper__graphic__5Waiy "><title>React</title><style type="text/css">
	.st0{fill:#FFFFFF;}
	.st1{fill:#732A09;}
	.st2{fill:none;stroke:#732A09;stroke-linecap:round;stroke-linejoin:round;}
	.st3{fill:#F75454;}
</style><g id="coding-2"><rect class="st0" x="53" y="191.8" width="106.8" height="67.9"></rect><path class="st1" d="M159.8,260.2H53c-0.3,0-0.5-0.2-0.5-0.5v-67.9c0-0.3,0.2-0.5,0.5-0.5h106.8c0.3,0,0.5,0.2,0.5,0.5v67.9
		C160.3,259.9,160.1,260.2,159.8,260.2z M53.5,259.2h105.8v-66.9H53.5L53.5,259.2z"></path><path class="st0" d="M91.4,246.7c-0.1,0-0.3,0-0.3-0.1l-20.2-20.2c-0.2-0.2-0.2-0.5,0-0.7l20.8-20.8c0.2-0.2,0.5-0.2,0.7,0
		c0.2,0.2,0.2,0.5,0,0.7c0,0,0,0,0,0L72,226.1l19.8,19.8c0.2,0.2,0.2,0.5,0,0.7C91.7,246.7,91.6,246.7,91.4,246.7z"></path><path class="st0" d="M121.4,246.7c-0.1,0-0.3,0-0.3-0.1c-0.2-0.2-0.2-0.5,0-0.7c0,0,0,0,0,0l19.8-19.8l-20.5-20.5
		c-0.2-0.2-0.2-0.5,0-0.7c0.2-0.2,0.5-0.2,0.7,0l20.8,20.8c0.2,0.2,0.2,0.5,0,0.7l-20.2,20.2C121.6,246.7,121.5,246.7,121.4,246.7z"></path><path class="st0" d="M110.5,246.7c-0.2,0-0.4-0.2-0.5-0.4l-10-41c-0.1-0.3,0.1-0.5,0.4-0.6c0.3-0.1,0.5,0.1,0.6,0.4c0,0,0,0,0,0
		l10,41c0.1,0.3-0.1,0.5-0.4,0.6L110.5,246.7z"></path><path class="st2" d="M91.4,246.7c-0.1,0-0.3,0-0.3-0.1l-20.2-20.2c-0.2-0.2-0.2-0.5,0-0.7l20.8-20.8c0.2-0.2,0.5-0.2,0.7,0
		c0.2,0.2,0.2,0.5,0,0.7c0,0,0,0,0,0L72,226.1l19.8,19.8c0.2,0.2,0.2,0.5,0,0.7C91.7,246.7,91.6,246.7,91.4,246.7z"></path><path class="st2" d="M121.4,246.7c-0.1,0-0.3,0-0.3-0.1c-0.2-0.2-0.2-0.5,0-0.7c0,0,0,0,0,0l19.8-19.8l-20.5-20.5
		c-0.2-0.2-0.2-0.5,0-0.7c0.2-0.2,0.5-0.2,0.7,0l20.8,20.8c0.2,0.2,0.2,0.5,0,0.7l-20.2,20.2C121.6,246.7,121.5,246.7,121.4,246.7z"></path><path class="st2" d="M110.5,246.7c-0.2,0-0.4-0.2-0.5-0.4l-10-41c-0.1-0.3,0.1-0.5,0.4-0.6c0.3-0.1,0.5,0.1,0.6,0.4c0,0,0,0,0,0
		l10,41c0.1,0.3-0.1,0.5-0.4,0.6L110.5,246.7z"></path></g><g id="coding"><rect class="st0" x="223.3" y="147" width="216.8" height="136.9"></rect><path class="st1" d="M440.1,284.4H223.3c-0.3,0-0.5-0.2-0.5-0.5V147c0-0.3,0.2-0.5,0.5-0.5h216.7c0.3,0,0.5,0.2,0.5,0.5v136.9
		C440.6,284.2,440.4,284.4,440.1,284.4z M223.8,283.4h215.8V147.5H223.8L223.8,283.4z"></path><path class="st1" d="M300.2,172.4h-52.1c-0.3,0-0.5-0.2-0.5-0.5s0.2-0.5,0.5-0.5h52.1c0.3,0,0.5,0.2,0.5,0.5
		S300.5,172.4,300.2,172.4z"></path><path class="st1" d="M337.8,172.4h-27.1c-0.3,0-0.5-0.2-0.5-0.5s0.2-0.5,0.5-0.5h27.1c0.3,0,0.5,0.2,0.5,0.5
		S338.1,172.4,337.8,172.4z"></path><path class="st1" d="M369.1,172.4h-18.9c-0.3,0-0.5-0.2-0.5-0.5s0.2-0.5,0.5-0.5h18.9c0.3,0,0.5,0.2,0.5,0.5
		S369.4,172.4,369.1,172.4z"></path><path class="st1" d="M415.7,172.4h-37.9c-0.3,0-0.5-0.2-0.5-0.5s0.2-0.5,0.5-0.5h37.9c0.3,0,0.5,0.2,0.5,0.5S416,172.4,415.7,172.4
		z"></path><path class="st1" d="M274.8,208.5h-27.1c-0.3,0-0.5-0.2-0.5-0.5s0.2-0.5,0.5-0.5h27.1c0.3,0,0.5,0.2,0.5,0.5
		S275.1,208.5,274.8,208.5L274.8,208.5z"></path><path class="st1" d="M306.1,208.5h-18.9c-0.3,0-0.5-0.2-0.5-0.5s0.2-0.5,0.5-0.5h18.9c0.3,0,0.5,0.2,0.5,0.5
		S306.4,208.5,306.1,208.5z"></path><path class="st3" d="M373.7,208.5h-59c-0.3,0-0.5-0.2-0.5-0.5s0.2-0.5,0.5-0.5h59c0.3,0,0.5,0.2,0.5,0.5S374,208.5,373.7,208.5z"></path><path class="st1" d="M267.7,189.5h-18.9c-0.3,0-0.5-0.2-0.5-0.5s0.2-0.5,0.5-0.5h18.9c0.3,0,0.5,0.2,0.5,0.5S268,189.5,267.7,189.5
		z"></path><path class="st3" d="M335.2,189.5h-59c-0.3,0-0.5-0.2-0.5-0.5c0-0.3,0.2-0.5,0.5-0.5h59c0.3,0,0.5,0.2,0.5,0.5
		S335.5,189.5,335.2,189.5z"></path><path class="st1" d="M359.4,189.5h-18.9c-0.3,0-0.5-0.2-0.5-0.5c0-0.3,0.2-0.5,0.5-0.5h18.9c0.3,0,0.5,0.2,0.5,0.5
		S359.7,189.5,359.4,189.5z"></path><path class="st1" d="M406,189.5h-38c-0.3,0-0.5-0.2-0.5-0.5c0-0.3,0.2-0.5,0.5-0.5h38c0.3,0,0.5,0.2,0.5,0.5
		C406.5,189.3,406.3,189.5,406,189.5z"></path><path class="st3" d="M300.2,223.4h-52.1c-0.3,0-0.5-0.2-0.5-0.5c0-0.3,0.2-0.5,0.5-0.5h52.1c0.3,0,0.5,0.2,0.5,0.5
		C300.7,223.2,300.5,223.4,300.2,223.4z"></path><path class="st1" d="M337.8,223.4h-27.1c-0.3,0-0.5-0.2-0.5-0.5c0-0.3,0.2-0.5,0.5-0.5h27.1c0.3,0,0.5,0.2,0.5,0.5
		S338.1,223.4,337.8,223.4z"></path><path class="st1" d="M369.1,223.4h-18.9c-0.3,0-0.5-0.2-0.5-0.5s0.2-0.5,0.5-0.5h18.9c0.3,0,0.5,0.2,0.5,0.5
		C369.6,223.2,369.4,223.4,369.1,223.4z"></path><path class="st1" d="M415.7,223.4h-37.9c-0.3,0-0.5-0.2-0.5-0.5s0.2-0.5,0.5-0.5h37.9c0.3,0,0.5,0.2,0.5,0.5S416,223.4,415.7,223.4
		z"></path><path class="st1" d="M274.8,259.5h-27.1c-0.3,0-0.5-0.2-0.5-0.5s0.2-0.5,0.5-0.5h27.1c0.3,0,0.5,0.2,0.5,0.5
		C275.3,259.3,275.1,259.5,274.8,259.5z"></path><path class="st1" d="M306.1,259.5h-18.9c-0.3,0-0.5-0.2-0.5-0.5c0-0.3,0.2-0.5,0.5-0.5h18.9c0.3,0,0.5,0.2,0.5,0.5
		S306.4,259.5,306.1,259.5z"></path><path class="st3" d="M373.7,259.5h-59c-0.3,0-0.5-0.2-0.5-0.5c0-0.3,0.2-0.5,0.5-0.5h59c0.3,0,0.5,0.2,0.5,0.5
		S374,259.5,373.7,259.5z"></path><path class="st1" d="M267.7,240.5h-18.9c-0.3,0-0.5-0.2-0.5-0.5s0.2-0.5,0.5-0.5h18.9c0.3,0,0.5,0.2,0.5,0.5S268,240.5,267.7,240.5
		z"></path><path class="st1" d="M335.2,240.5h-59c-0.3,0-0.5-0.2-0.5-0.5s0.2-0.5,0.5-0.5h59c0.3,0,0.5,0.2,0.5,0.5S335.5,240.5,335.2,240.5z"></path><path class="st1" d="M359.4,240.5h-18.9c-0.3,0-0.5-0.2-0.5-0.5s0.2-0.5,0.5-0.5h18.9c0.3,0,0.5,0.2,0.5,0.5
		S359.7,240.5,359.4,240.5z"></path><path class="st1" d="M406,240.5h-38c-0.3,0-0.5-0.2-0.5-0.5s0.2-0.5,0.5-0.5h38c0.3,0,0.5,0.2,0.5,0.5S406.3,240.5,406,240.5z"></path></g><g id="character-2"><path class="st1" d="M472.6,353.9H29.9c-0.3,0-0.5-0.2-0.5-0.5c0-0.3,0.2-0.5,0.5-0.5h442.7c0.3,0,0.5,0.2,0.5,0.5
		S472.9,353.9,472.6,353.9z"></path><path class="st3" d="M205.6,216c38,0,72.3,3.4,87.8,37.7s29.7,99.7,29.7,99.7H221.5c0,0,0.9,5.8-10.6,9.3s-59.3,15.6-72.6,9.8
		s-11.9-34.3-4.3-68.4S158.9,221.1,205.6,216z"></path><path class="st1" d="M210.8,360.1h-0.2c-4.9-1.8-6-14.1-5.2-19.9c0.9-6.4,4-7,7.2-7.1c0.3,0,0.5,0.2,0.5,0.5c0,0.3-0.2,0.5-0.5,0.5
		c0,0,0,0,0,0c-3,0.1-5.5,0.6-6.2,6.3c-0.9,6.5,0.7,17.5,4.6,18.9c0.3,0.1,0.4,0.4,0.3,0.6C211.2,360,211,360.2,210.8,360.1z"></path><path class="st1" d="M218.5,334.7c-0.2,0-0.4-0.1-0.5-0.3c-1.1-2.9-4.2-3.1-10.4-3.4c-1,0-2-0.1-3.1-0.2
		c-8.3-0.5-35.1,1.2-35.3,1.2c-0.1,0-0.3,0-0.4-0.1c-0.1-0.1-0.2-0.3-0.1-0.4c0-0.4,3.9-40,7-54.9c0.1-0.3,0.3-0.4,0.6-0.4
		c0,0,0,0,0,0c0.3,0.1,0.4,0.3,0.4,0.6c0,0,0,0,0,0c-2.9,13.8-6.5,49.2-6.9,54.2c4-0.2,27.2-1.6,34.9-1.1l3.1,0.2
		c6.4,0.3,9.9,0.5,11.2,4.1c0.1,0.3,0,0.5-0.3,0.6c0,0,0,0,0,0C218.6,334.7,218.6,334.7,218.5,334.7z"></path><path class="st1" d="M293.1,348.2c-0.3,0-0.5-0.2-0.5-0.5c0-0.5-1.7-50.7-8.9-83.8c-0.1-0.3,0.1-0.5,0.4-0.6c0,0,0,0,0,0
		c0.3-0.1,0.5,0.1,0.6,0.4c0,0,0,0,0,0c7.2,33.2,8.9,83.5,8.9,84C293.7,347.9,293.4,348.2,293.1,348.2L293.1,348.2z"></path><path class="st0" d="M208.4,209c0.3,6.4,0.1,12.8-0.8,19.1c0,0,12.6,4,20.3-0.7c0,0-2-12.5-1-19.7S208.4,209,208.4,209z"></path><path class="st1" d="M218.3,230.2c-3.7,0-7.3-0.6-10.8-1.6c-0.2-0.1-0.4-0.3-0.4-0.6c0.8-6.3,1.1-12.7,0.8-19
		c0-0.2,0.1-0.4,0.3-0.5c1.5-0.6,14.6-6.2,18.2-3.5c0.8,0.6,1.2,1.7,1,2.7c-0.9,7.1,1,19.5,1,19.6c0,0.2-0.1,0.4-0.2,0.5
		C225.2,229.6,221.7,230.4,218.3,230.2z M208.2,227.8c2.2,0.6,12.6,3.2,19.2-0.6c-0.3-2.1-1.9-12.9-1-19.5c0.2-0.7-0.1-1.4-0.6-1.8
		c-2.7-2-12.8,1.7-16.9,3.4C209.1,215.5,208.9,221.7,208.2,227.8L208.2,227.8z"></path><path class="st0" d="M209.7,137.2c-12-2.4-21.2,5.4-22.2,12.9c0,0-8,5.4-8.5,10.9s-10.9,11.5-0.7,22.9s70.4,0.4,70.4,0.4
		s5.2-13.6,0.5-18.7c0,0-1.4-14.2-10.6-17.1S231.3,131.4,209.7,137.2z"></path><path class="st1" d="M202.1,189.7c-11,0-20.5-1.3-24.1-5.4c-7.5-8.3-4.2-13.9-1.5-18.4c1-1.7,2-3.4,2.1-4.8
		c0.4-5.3,7.2-10.3,8.5-11.2c0.8-4,3.1-7.6,6.5-9.9c4.7-3.3,10.5-4.5,16.1-3.3c14.5-3.9,18.8,1.4,22.5,6c1.9,2.3,3.7,4.5,6.6,5.4
		c8.9,2.8,10.7,15.7,10.9,17.4c4.7,5.4-0.3,18.6-0.5,19.1c-0.1,0.2-0.2,0.3-0.4,0.3C247.2,185.2,222.3,189.7,202.1,189.7z
		 M205.3,137.3c-4,0-7.9,1.2-11.2,3.5c-3.2,2.2-5.4,5.6-6.1,9.4c0,0.1-0.1,0.3-0.2,0.4c-0.1,0.1-7.8,5.3-8.3,10.6
		c-0.1,1.7-1.2,3.4-2.2,5.3c-2.6,4.4-5.6,9.4,1.4,17.2c9.6,10.6,65.2,1.1,69.7,0.3c0.7-1.9,4.6-13.4,0.5-17.9
		c-0.1-0.1-0.1-0.2-0.1-0.3c0-0.1-1.5-14-10.3-16.7c-3.2-1-5.1-3.3-7.1-5.8c-3.7-4.6-7.6-9.4-21.6-5.6c-0.1,0-0.2,0-0.2,0
		C208.2,137.4,206.7,137.3,205.3,137.3z"></path><path class="st0" d="M242.7,181.2c0,0,3-6.1,8.4-3.1c5.4,3,1.6,22.6-9.4,16.6c0,0-2.6,18.7-25.2,21S188,193.4,188,193.4
		s-6.5,3.7-9.6-0.4s-2.2-16.3,8.7-10.6l1,3.2c2.2-3.4,3.5-7.2,3.8-11.2c0,0,3-2.2,5.9-9.2c0,0,6.5,0.9,15.3-9.6
		c0,0,6.8,12.1,26.2,15.3C239.3,170.9,241.4,183.1,242.7,181.2z"></path><path class="st1" d="M213.6,216.4c-18.4,0-24.9-18.6-25.9-22.3c-1.7,0.8-6.9,2.9-9.7-0.9c-2-2.6-2.4-8.2,0-11.1
		c1.4-1.6,4.1-3,9.3-0.2c0.1,0.1,0.2,0.2,0.2,0.3l0.7,2.2c1.7-3.1,2.8-6.5,3.2-10.1c0-0.1,0.1-0.3,0.2-0.4c0,0,2.9-2.2,5.8-9
		c0.1-0.2,0.3-0.3,0.5-0.3c0.1,0,6.4,0.7,14.9-9.4c0.1-0.1,0.3-0.2,0.4-0.2c0.2,0,0.3,0.1,0.4,0.2c0.1,0.1,7,11.9,25.9,15
		c0.2,0,0.4,0.2,0.4,0.4c0.7,4.2,1.8,9,2.5,10c0.9-1.7,2.4-3.1,4.3-3.8c1.6-0.5,3.3-0.2,4.8,0.7c3.5,1.9,3.4,9.6,0.8,14.2
		c-2.3,4.2-6,5.5-10.1,3.6c-0.8,3.4-5.3,18.7-25.5,20.8C215.6,216.3,214.6,216.4,213.6,216.4z M188,192.9c0.1,0,0.1,0,0.2,0
		c0.1,0.1,0.2,0.2,0.3,0.3c0.1,0.2,6.2,24.2,28,22c11.4-1.2,17.6-6.7,20.7-11.1c2-2.8,3.4-6.1,4.1-9.5c0-0.2,0.1-0.3,0.3-0.4
		c0.1-0.1,0.3-0.1,0.5,0c5.2,2.8,8.1-0.6,9.4-2.9c2.5-4.6,2.3-11.4-0.4-12.9c-1.2-0.8-2.6-1-4-0.6c-1.6,0.7-3,1.9-3.8,3.4
		c0,0,0,0,0,0.1c-0.2,0.3-0.5,0.5-0.9,0.4c-1.3-0.3-2.5-5.8-3.3-10.5c-7.4-1.1-14.4-4.2-20.3-8.9c-2.1-1.7-4-3.7-5.6-6
		c-7.6,8.8-13.4,9.3-14.9,9.3c-2.5,5.9-5.1,8.3-5.8,8.9c-0.3,4-1.7,7.9-3.9,11.3c-0.1,0.2-0.3,0.2-0.5,0.2c-0.2,0-0.3-0.2-0.4-0.3
		l-0.9-3c-3.6-1.8-6.3-1.8-7.9,0.1c-2.1,2.4-1.7,7.5,0,9.8c2.8,3.7,8.9,0.3,9,0.3C187.8,192.9,187.9,192.9,188,192.9z M242.7,181.2
		L242.7,181.2z M242.3,180.9L242.3,180.9z"></path><path class="st1" d="M234.5,172.4c-2.1-0.4-4.1-0.5-6.2-0.5c-1,0-2.1,0.1-3.1,0.3c-1,0.1-2,0.4-3.1,0.6l0,0c-0.1,0-0.3-0.1-0.3-0.2
		c0,0,0,0,0,0c0-0.1,0-0.2,0.1-0.3c0.9-0.6,1.9-1.1,3-1.4c1.1-0.3,2.2-0.5,3.3-0.5c1.1,0,2.2,0.1,3.3,0.4c1.1,0.2,2.1,0.6,3.1,1.2
		c0.1,0.1,0.2,0.2,0.1,0.3c0,0,0,0,0,0C234.7,172.4,234.6,172.4,234.5,172.4L234.5,172.4z"></path><path class="st1" d="M199.7,172.6c0.9-0.6,2-1,3.1-1.3c1.1-0.3,2.2-0.5,3.3-0.5c1.1-0.1,2.3,0,3.4,0.3c1.1,0.2,2.1,0.7,3.1,1.2
		c0.1,0.1,0.2,0.2,0.1,0.4c-0.1,0.1-0.2,0.1-0.3,0.1l0,0c-1.1-0.2-2.1-0.4-3.1-0.4c-1-0.1-2.1-0.1-3.1-0.1c-2.1,0.1-4.2,0.4-6.2,0.8
		l0,0c-0.1,0-0.3-0.1-0.3-0.2C199.6,172.8,199.6,172.7,199.7,172.6L199.7,172.6z"></path><path class="st1" d="M223.8,194.6c-2.4,0.1-4.6-1.6-5-4.1c0-0.3,0.2-0.5,0.4-0.6c0.3,0,0.5,0.2,0.6,0.4c0,0,0,0,0,0
		c0.4,1.9,2.1,3.3,4.1,3.2c1.4,0,2.6-1.1,2.6-2.5c0-0.1,0-0.1,0-0.2c0.1-0.7-0.2-1.4-0.7-1.9c-1.4-1.3-4.6-1-4.6-1
		c-0.3,0-0.5-0.1-0.6-0.4c0-0.1-0.4-2.2-0.7-5.5c0-0.3,0.2-0.5,0.5-0.5c0,0,0,0,0,0c0.3,0,0.5,0.2,0.5,0.5c0,0,0,0,0,0
		c0.2,2.4,0.5,4.2,0.6,5c1-0.1,3.5,0,4.9,1.3c0.7,0.7,1.1,1.7,1,2.7c0.1,2-1.4,3.6-3.4,3.7c0,0-0.1,0-0.1,0L223.8,194.6z"></path><path class="st1" d="M220.4,180c-0.3,0-0.5-0.2-0.5-0.5c-0.1-1.4-0.1-2.7-0.1-4c0-0.3,0.2-0.5,0.5-0.5c0.3,0,0.5,0.2,0.5,0.5
		c0,0,0,0,0,0c0,1.3,0,2.6,0.1,4C220.9,179.8,220.6,180,220.4,180C220.4,180.1,220.4,180.1,220.4,180L220.4,180z"></path><path class="st1" d="M229.7,184c-0.4,2,0.4,3.8,1.8,4s2.8-1.1,3.1-3.1c0.1-0.6,0.1-1.1,0-1.7l-2.6,0.8l1.6-2.7
		c-0.2-0.2-0.5-0.4-0.9-0.4C231.5,180.6,230.1,182,229.7,184z"></path><path class="st1" d="M207.4,182.1c-0.4,2,0.4,3.8,1.8,4s2.8-1.1,3.1-3.1c0.1-0.6,0.1-1.1,0-1.7l-2.6,0.8l1.6-2.7
		c-0.2-0.2-0.5-0.4-0.9-0.5C209.2,178.8,207.8,180.2,207.4,182.1z"></path><path class="st1" d="M224.9,180.1L224.9,180.1l-10.1-0.1c-0.3,0-0.5-0.2-0.5-0.5c0,0,0,0,0,0c0-0.3,0.2-0.5,0.5-0.5c0,0,0,0,0,0
		l10.1,0.1c0.3,0,0.5,0.2,0.5,0.5C225.4,179.9,225.2,180.1,224.9,180.1C224.9,180.1,224.9,180.1,224.9,180.1z"></path><path class="st1" d="M203.2,191.1h-0.9c-5-0.2-4.9-6.6-4.9-9.7v-0.4c0-2.6,0-5.1,4.3-5.5c2.9-0.3,8.2-0.3,11.1-0.2l0,0
		c1.1,0,2,0.9,2.1,2c0.2,3,0.1,5.9-0.4,8.8C213.5,189.8,207.5,191.1,203.2,191.1z M209.8,176.1c-2.6,0-6,0-8,0.2
		c-3.4,0.3-3.4,1.8-3.4,4.6v0.4c0,2.8-0.1,8.5,3.9,8.7c4.8,0.2,10.4-1.2,11.2-4.3c0.5-2.8,0.6-5.7,0.4-8.5c-0.1-0.6-0.5-1-1.1-1l0,0
		L209.8,176.1z"></path><path class="st1" d="M227.1,191.4c-0.3,0-0.5-0.2-0.5-0.5s0.2-0.5,0.5-0.5c4-0.1,8.6-0.8,9-1.7s0.4-4.6,0-10.1
		c-0.1-0.9-0.8-1.5-1.7-1.5l-9.8,0.3c-0.6,0-1.1,0.5-1.1,1.1c0,0,0,0,0,0l0.5,9.1c0,0.3-0.2,0.5-0.5,0.5c0,0,0,0,0,0
		c-0.3,0-0.5-0.2-0.5-0.5c0,0,0,0,0,0l-0.5-9.1c-0.1-1.2,0.8-2.1,2-2.2l9.8-0.3c1.4-0.1,2.7,1,2.8,2.5c0.3,4.1,0.6,9.3-0.1,10.6
		C236,191.1,228.6,191.4,227.1,191.4L227.1,191.4z"></path><path class="st1" d="M219.3,200.2L219.3,200.2c-7.1-0.7-9.3-4.2-9.4-4.4c-0.1-0.2-0.1-0.5,0.1-0.7c0.2-0.1,0.5-0.1,0.7,0.2
		c0,0,2.1,3.2,8.6,3.9c0.3,0,0.5,0.3,0.5,0.5c0,0,0,0,0,0C219.7,200.1,219.5,200.2,219.3,200.2z"></path><path class="st0" d="M185.5,185.4c-2.9-2.5-5.6-1.2-6.4,1.8"></path><path class="st1" d="M179.1,187.7L179.1,187.7c-0.4-0.1-0.5-0.3-0.5-0.6c0,0,0,0,0,0c0.3-1.5,1.3-2.8,2.8-3.3
		c1.6-0.4,3.3,0.1,4.4,1.3c0.2,0.2,0.2,0.5,0.1,0.7c-0.2,0.2-0.5,0.2-0.7,0l0,0c-0.9-0.9-2.2-1.4-3.5-1.1c-1.1,0.4-1.9,1.4-2.1,2.6
		C179.5,187.5,179.3,187.7,179.1,187.7z"></path><path class="st0" d="M182.7,191c-2.8-1.6-1.8-6.6-1.8-6.6"></path><path class="st1" d="M182.7,191.5c-0.1,0-0.2,0-0.2-0.1c-3.1-1.7-2.1-6.9-2-7.1c0.1-0.3,0.3-0.4,0.6-0.4c0,0,0,0,0,0
		c0.3,0.1,0.4,0.3,0.4,0.6c0,0,0,0,0,0c0,0-0.9,4.7,1.5,6c0.2,0.1,0.3,0.4,0.2,0.7C183.1,191.4,182.9,191.5,182.7,191.5L182.7,191.5
		z"></path><path class="st0" d="M244.4,184c1.8-4,6.1-3.3,7.3-1.2"></path><path class="st1" d="M244.4,184.5c-0.1,0-0.1,0-0.2,0c-0.2-0.1-0.4-0.4-0.2-0.7c0.7-1.8,2.3-3,4.2-3.2c1.6-0.1,3.1,0.6,3.9,1.9
		c0.1,0.2,0.1,0.5-0.2,0.7s-0.5,0.1-0.7-0.2c-0.7-1-1.8-1.5-3-1.4c-1.5,0.1-2.9,1.1-3.4,2.6C244.8,184.5,244.6,184.6,244.4,184.5z"></path><path class="st0" d="M246.7,191.8c3.2-0.8,4.2-7.2,2.5-10.5"></path><path class="st1" d="M246.7,192.3c-0.2,0-0.4-0.2-0.5-0.4c-0.1-0.3,0.1-0.5,0.4-0.6c1-0.3,1.8-1.1,2.1-2.1c1.1-2.5,1.1-5.2,0.1-7.7
		c-0.1-0.2,0-0.5,0.2-0.7c0,0,0,0,0,0c0.2-0.1,0.5,0,0.7,0.2c1.2,2.7,1.2,5.9,0,8.6c-0.5,1.3-1.5,2.3-2.8,2.6L246.7,192.3z"></path><path class="st0" d="M223.1,338.1c4.2-0.5,14.3-1.9,18-3.3s8.7-0.6,6.4,2.1s-9.2,5.8-9.2,5.8L223.1,338.1z"></path><path class="st1" d="M238.2,343.2h-0.1l-15.2-4.6c-0.3,0-0.5-0.3-0.5-0.5c0-0.3,0.3-0.5,0.5-0.5l0,0c9-1.1,15.4-2.3,17.9-3.2
		s6.4-1,7.4,0.5c0.3,0.4,0.6,1.2-0.4,2.4c-2.3,2.7-9.1,5.8-9.4,5.9C238.4,343.2,238.3,343.2,238.2,343.2z M225.4,338.3l12.8,3.9
		c1.1-0.5,6.9-3.2,8.9-5.5c0.4-0.5,0.6-0.9,0.4-1.2c-0.6-0.9-3.6-1.1-6.2-0.1C238.3,336.4,231.4,337.5,225.4,338.3z"></path><path class="st0" d="M206.4,337.2c10.8-1.9,28.6,1.2,35.4,4.8s15.2,13,14.3,15.4s-7.7-3.6-10.8-6.1s-10-4.9-10-4.9s5.6,5.8,7.5,9.9
		s1.4,7.5-1.4,6.8s-6.2-9.3-10.1-11.9c0,0,3.6,7.2,2.6,12s-3,4.9-4.8,3.2s-1.2-7.9-3-10.9c0,0-0.1,6.3-3,10.1s-4.4,1.6-4-1.8
		s-0.4-8.1-2-9.7s-7.9-0.1-10.6-3.6C205.4,346.2,205.3,341.6,206.4,337.2z"></path><path class="st1" d="M220.6,368.2c-0.2,0-0.4,0-0.6-0.1c-1.1-0.4-1.6-2-1.4-4.3c0.3-3.2-0.4-7.8-1.9-9.3c-0.5-0.5-1.9-0.7-3.3-0.8
		c-2.5-0.3-5.6-0.6-7.4-2.9c0,0-0.1-0.1-0.1-0.1c-1.1-4.5-1.1-9.2,0-13.7c0-0.2,0.2-0.3,0.4-0.4c10.8-1.9,28.7,1.1,35.8,4.8
		c6.4,3.4,15.7,13.1,14.5,16.1c-0.2,0.4-0.5,0.7-0.9,0.8c-1.7,0.5-5.1-2.2-9.1-5.5c-0.6-0.5-1.1-0.9-1.5-1.2c-2.4-1.7-5.1-3-7.9-4
		c1.8,2,4.8,5.6,6.1,8.5c1.3,3,1.5,5.6,0.5,6.9c-0.6,0.7-1.6,0.9-2.4,0.6c-1.6-0.4-3.2-2.8-5-5.6c-1.1-1.7-2.3-3.4-3.6-4.9
		c1,2.5,2.4,6.9,1.6,10.2c-0.6,2.7-1.5,4.1-2.7,4.5c-1.1,0.2-2.2-0.2-2.9-1c-1.1-1-1.4-3.1-1.7-5.4c-0.1-1.2-0.4-2.4-0.6-3.6
		c-0.3,3-1.3,5.8-2.9,8.3C222.4,367.5,221.4,368.2,220.6,368.2z M206.9,350.4c1.5,1.9,4.2,2.1,6.6,2.4c1.7,0.2,3.2,0.3,3.9,1.1
		c1.8,1.8,2.5,6.6,2.2,10.1c-0.2,1.9,0.2,3,0.8,3.2c0.2,0.1,0.9,0.2,2.4-1.8c2.7-3.6,2.9-9.8,2.9-9.8c0-0.2,0.2-0.4,0.4-0.5
		c0.2-0.1,0.4,0,0.6,0.2c0.9,1.5,1.2,3.8,1.5,5.9s0.6,4.1,1.4,4.8c0.5,0.5,1.3,1,1.9,0.8s1.5-1.6,2-3.8c1-4.6-2.5-11.6-2.5-11.7
		c-0.1-0.2-0.1-0.4,0.1-0.6c0.2-0.1,0.4-0.1,0.6,0c2,1.4,3.8,4.1,5.5,6.7c1.6,2.4,3.2,4.9,4.4,5.1c0.5,0.2,1.1,0.1,1.4-0.3
		c0.6-0.8,0.7-2.8-0.6-5.8c-1.8-4-7.3-9.7-7.4-9.8c-0.2-0.2-0.2-0.4-0.1-0.6c0.1-0.2,0.4-0.3,0.6-0.2c0.3,0.1,7,2.5,10.1,5
		c0.4,0.4,1,0.8,1.6,1.2c2.4,2,6.8,5.6,8.2,5.3c0.1,0,0.2-0.1,0.2-0.2c0.8-1.9-7-11.1-14-14.8c-6.8-3.6-24.4-6.5-34.8-4.8
		C205.9,341.8,205.9,346.2,206.9,350.4L206.9,350.4z"></path><path class="st1" d="M235.4,346.9c-0.1,0-0.2,0-0.3-0.1c-1.3-1-2.9-1.6-4.5-1.8c-0.3,0-0.5-0.3-0.5-0.5c0-0.3,0.3-0.5,0.5-0.5
		c1.8,0.2,3.6,0.9,5.1,2c0.2,0.2,0.3,0.5,0.1,0.7C235.7,346.9,235.6,346.9,235.4,346.9z"></path><path class="st1" d="M231.3,351.7c-0.1,0-0.3-0.1-0.4-0.1c-1.4-1.3-2.9-2.5-4.5-3.5c-0.2-0.1-0.3-0.4-0.2-0.7c0,0,0,0,0,0
		c0.1-0.2,0.4-0.3,0.7-0.2c0,0,0,0,0,0c1.7,1,3.3,2.2,4.7,3.6c0.2,0.2,0.2,0.5,0,0.7C231.6,351.7,231.5,351.7,231.3,351.7z"></path><path class="st1" d="M226.1,356.1c-0.2,0-0.5-0.2-0.5-0.4c-0.4-1.6-1.2-3-2.4-4.1c-0.2-0.2-0.2-0.5,0-0.7c0,0,0,0,0,0
		c0.2-0.2,0.5-0.2,0.7,0c0,0,0,0,0,0c1.3,1.2,2.3,2.9,2.7,4.6c0,0.3-0.1,0.5-0.4,0.6L226.1,356.1z"></path></g><g id="laptop"><rect class="st0" x="214.9" y="363.6" width="55" height="10.9"></rect><path class="st1" d="M269.9,375h-55c-0.3,0-0.5-0.2-0.5-0.5v-10.9c0-0.3,0.2-0.5,0.5-0.5h55c0.3,0,0.5,0.2,0.5,0.5v10.9
		C270.3,374.8,270.1,375,269.9,375z M215.4,374h54v-9.9h-54L215.4,374z"></path><rect class="st3" x="269.9" y="363.6" width="106.3" height="10.9"></rect><path class="st1" d="M376.2,375H269.9c-0.3,0-0.5-0.2-0.5-0.5v-10.9c0-0.3,0.2-0.5,0.5-0.5h106.3c0.3,0,0.5,0.2,0.5,0.5v10.9
		C376.7,374.8,376.4,375,376.2,375z M270.4,374h105.3v-9.9H270.4V374z"></path><polygon class="st0" points="269.9,363.6 376.2,363.6 412.8,272.8 306.5,272.8 	"></polygon><path class="st1" d="M376.2,364.1H269.9c-0.2,0-0.3-0.1-0.4-0.2c-0.1-0.1-0.1-0.3,0-0.5l36.7-90.8c0.1-0.2,0.3-0.3,0.5-0.3h106.3
		c0.2,0,0.3,0.1,0.4,0.2c0.1,0.1,0.1,0.3,0,0.5l-36.7,90.8C376.6,364,376.4,364.1,376.2,364.1z M270.6,363.1h105.2l36.3-89.8H306.9
		L270.6,363.1z"></path></g></svg>