<svg transform="scale(1)" version="1.1" id="_x30_007_x5F_brainstorming" xmlns="http://www.w3.org/2000/svg" xmlns:xlink="http://www.w3.org/1999/xlink" x="0px" y="0px" viewBox="0 0 500 500" xml:space="preserve" class="show_show__wrapper__graphic__5Waiy "><title>React</title><style type="text/css">
	.st0{fill:#732A09;}
	.st1{fill:#F75454;}
	.st2{fill:#FFFFFF;}
	.st3{clip-path:url(#SVGID_2_);}
	.st4{clip-path:url(#SVGID_4_);}
</style><g id="lightbulp"><g id="light"><circle class="st0" cx="248.9" cy="416.8" r="8"></circle><path class="st1" d="M284.2,374.8c0,20.2,1.4,42-35.3,42c-36.5,0-35.3-21.9-35.3-42c0-5.3,0-10.2-0.2-14.9
			c11.8,1.4,23.6,2.1,35.5,2c11.9,0,23.7-0.6,35.5-2C284.2,364.6,284.2,369.5,284.2,374.8z"></path><path class="st2" d="M152.9,220.9c0.5-9.2,2.3-18.3,5.1-27c5.6-18.4,17-34.4,32.4-45.9c34.7-25.8,82.1-25.8,116.8,0
			c15.5,11.5,26.8,27.6,32.4,46.1c2.3,6.9,3.8,14,4.6,21.2l0.8,10.2c0.3,33.6-17.1,57.5-31.6,73.6c-4.8,5.3-9.4,9.7-13,13.5
			c-12.8,13.3-15.5,24.4-16.2,37.4c-11.8,1.4-23.6,2.1-35.5,2c-11.9,0-23.7-0.6-35.5-2c-0.7-13-3.4-24.1-16.2-37.4
			c-3.6-3.8-8-8.2-12.8-13.5c-13.8-15.2-30.1-37.4-31.6-68L152.9,220.9z"></path><path class="st0" d="M152.9,221.4L152.9,221.4c-0.3,0-0.5-0.3-0.5-0.5c0,0,0,0,0,0c0.5-9.2,2.3-18.3,5.1-27.1
			c5.6-18.5,17.1-34.6,32.6-46.1c34.8-26,82.6-26,117.4,0c15.6,11.6,27,27.8,32.6,46.4c2.3,6.9,3.8,14.1,4.6,21.3
			c0,0.3-0.2,0.5-0.4,0.6s-0.5-0.2-0.6-0.4l0,0c-0.8-7.2-2.3-14.2-4.6-21.1c-5.5-18.4-16.8-34.5-32.2-45.9
			c-34.5-25.7-81.7-25.7-116.2,0c-15.3,11.4-26.6,27.4-32.2,45.6c-2.8,8.7-4.5,17.7-5.1,26.9C153.4,221.2,153.2,221.4,152.9,221.4z"></path><path class="st0" d="M248.7,352.5c-11.9,0-23.8-0.6-35.6-2c-0.2,0-0.4-0.2-0.4-0.5c-0.7-13.3-3.7-24.2-16.1-37l-3.6-3.9
			c-2.8-2.8-5.9-6.1-9.1-9.7c-12.9-14.2-30.2-36.7-31.7-68.3c0-0.3,0.2-0.5,0.5-0.5c0,0,0,0,0,0c0.3,0,0.5,0.2,0.5,0.5
			c1.5,31.3,18.7,53.6,31.5,67.7c3.3,3.6,6.4,6.8,9.1,9.6c1.3,1.4,2.5,2.6,3.7,3.9c12.5,13,15.6,23.9,16.3,37.3
			c11.6,1.3,23.3,2,35,2c11.7,0.1,23.4-0.6,35-1.9c0.8-13.4,3.8-24.3,16.3-37.3c1.3-1.4,2.8-2.9,4.4-4.5c2.6-2.6,5.6-5.7,8.6-9
			c13.6-15.2,31.8-39.2,31.5-73.3c0-0.3,0.2-0.5,0.5-0.5l0,0c0.3,0,0.5,0.2,0.5,0.5c0.3,34.4-18,58.6-31.7,73.9c-3,3.3-6,6.4-8.6,9
			c-1.6,1.6-3,3.1-4.4,4.5c-12.4,12.9-15.3,23.8-16.1,37.1c0,0.2-0.2,0.4-0.4,0.5C272.5,351.9,260.6,352.6,248.7,352.5z M284.2,350
			L284.2,350z"></path><path class="st1" d="M319.8,200.4c-0.2,0-0.4-0.1-0.5-0.4c-4.2-14.2-13-26.7-24.9-35.4c-10.7-7.8-23.1-12.8-36.3-14.4
			c-0.3,0-0.5-0.3-0.4-0.6s0.3-0.5,0.6-0.4c13.3,1.6,25.9,6.7,36.7,14.6c12.1,8.9,21,21.6,25.3,36c0.1,0.3-0.1,0.5-0.3,0.6
			L319.8,200.4z"></path><path class="st0" d="M248.5,377.4c-10.2,0-20.4-0.8-30.5-2.6c-0.3,0-0.5-0.3-0.4-0.6s0.3-0.5,0.6-0.4c20.2,3.4,40.8,3.4,60.9,0
			c0.3,0,0.5,0.1,0.6,0.4c0.1,0.3-0.1,0.5-0.4,0.6c0,0,0,0,0,0C269.1,376.6,258.8,377.4,248.5,377.4z"></path><path class="st0" d="M248.5,395.5c-10.2,0-20.4-0.8-30.5-2.6c-0.3,0-0.5-0.3-0.4-0.6s0.3-0.5,0.6-0.4c20.2,3.4,40.8,3.4,60.9,0
			c0.3,0,0.5,0.1,0.6,0.4c0.1,0.3-0.1,0.5-0.4,0.6c0,0,0,0,0,0C269.1,394.7,258.8,395.5,248.5,395.5z"></path><path class="st1" d="M247,115.2c-2.9-12.8-3.8-26.1,0-38.8c0.4-1,1.6-1.6,2.6-1.2C254.8,76,254.5,125.8,247,115.2z"></path><path class="st1" d="M311.2,130.1c4.8-12.3,11.6-23.6,21.9-31.9c8.9-2.7-4.1,17.2-5.8,19.5C325.7,119.8,311.2,139.8,311.2,130.1z"></path><path class="st1" d="M183.4,132.3c-9.7-8.9-17.8-19.5-21.9-31.9c0.7-9.2,14.7,10.1,16.1,12.5C179.2,114.9,192.5,135.7,183.4,132.3
			L183.4,132.3z"></path></g><path class="st1" d="M362.5,310c-21.7,0-72.5-17-128.2-43.5c-63.5-30.2-113.3-63-118.5-78.1c-0.6-1.5-0.6-3.1,0-4.6
		c2.6-5.5,16.1-5.1,40,1.2c0.3,0.1,0.4,0.4,0.4,0.6c-0.1,0.3-0.4,0.4-0.6,0.4c-29.1-7.7-37.2-5.2-38.8-1.8c-0.5,1.2-0.5,2.6,0,3.8
		c5.2,14.8,54.8,47.4,118,77.5c54.9,26.1,106.6,43.4,127.9,43.4c2.3,0.1,4.5-0.2,6.7-0.9c1.3-0.4,2.3-1.2,3-2.4
		c2.6-5.6-9.7-18.1-33.8-34.4c-0.2-0.1-0.3-0.4-0.2-0.7c0.1-0.2,0.4-0.3,0.7-0.2c0,0,0.1,0,0.1,0.1c14.5,9.7,38.1,27.3,34.2,35.6
		c-0.8,1.4-2.1,2.4-3.6,2.9C367.3,309.8,364.9,310.1,362.5,310z"></path><path class="st1" d="M244.4,271.1c-0.3,0.1-0.5-0.1-0.6-0.4c-0.1-0.3,0.1-0.5,0.4-0.6l5-2.3l4.9-2.3c62.1-29.4,112.9-62.8,118-77.5
		c0.5-1.2,0.5-2.6,0-3.9c-2-4.2-13.1-4.3-30.3-0.2c-0.3,0.1-0.5-0.1-0.6-0.4c-0.1-0.3,0.1-0.5,0.4-0.6c12.7-3,28.5-5.3,31.5,0.8
		c0.6,1.5,0.6,3.1,0,4.6c-5.3,15.2-55.1,48-118.5,78l-4.9,2.3l-5,2.3C244.5,271,244.5,271.1,244.4,271.1z"></path><path class="st1" d="M126.6,309.8c-5.9,0-9.6-1.2-10.9-3.8c-4.2-8.7,22-27.7,38.1-38.2c0.2-0.2,0.5-0.1,0.7,0.1
		c0.2,0.2,0.1,0.5-0.1,0.7c0,0,0,0,0,0c-38.1,25-39.1,34.2-37.7,37c1,2.2,4.4,3.2,9.6,3.2c17.6,0,56.4-11.7,101.9-31.5
		c0.3-0.1,0.5,0,0.7,0.3s0,0.5-0.3,0.7l0,0C182.3,298.4,144.5,309.8,126.6,309.8z"></path></g><g id="man-character"><circle class="st2" cx="409.6" cy="241.6" r="43.7"></circle><path class="st0" d="M409.6,285.8c-24.4,0-44.2-19.8-44.2-44.2s19.8-44.2,44.2-44.2c24.4,0,44.2,19.8,44.2,44.2
		C453.8,266,434,285.8,409.6,285.8z M409.6,198.4c-23.9,0-43.2,19.3-43.2,43.2s19.3,43.2,43.2,43.2s43.2-19.3,43.2-43.2
		C452.8,217.8,433.4,198.4,409.6,198.4z"></path><g><defs><path id="SVGID_1_" d="M444.3,215v-36.1H375V215c-14.7,19.2-11.1,46.6,8.1,61.3s46.6,11.1,61.3-8.1c5.8-7.6,9-17,9-26.6
				C453.3,232,450.1,222.7,444.3,215z"></path></defs><clipPath id="SVGID_2_"><use xlink:href="#SVGID_1_" style="overflow: visible;"></use></clipPath><g class="st3"><path class="st2" d="M335.2,252.3c-5.1,4.7-8.8,6.1-8.8,6.1c-1.6-1.6-2.8-3.4-3.7-5.4c-0.8,0.2-1.7,0.2-2.5,0.1
				c-1.3,0.7-3,1-3.4,0c-0.7-1.7,1.3-2.3,1.8-2.4c-0.5,0.1-3.5,0.6-3.7-0.8s2.2-1.9,2.8-2c-0.7,0.1-3.4,0.3-3.4-1.1
				c0-1.7,3.9-1.5,3.9-1.5c-5.7-0.4-10.4-2.8-7.7-3.3s13.1,0,13.1,0s-2.5-5.2-1.3-6.2s3,0.3,5.1,4.6
				C329.3,244.5,330.4,247.5,335.2,252.3z"></path><path class="st0" d="M326.4,258.9c-0.1,0-0.2,0-0.3-0.1c-1.5-1.5-2.8-3.3-3.6-5.2c-0.7,0.1-1.4,0.1-2.1,0.1
				c-0.9,0.5-2,0.7-3.1,0.5c-0.4-0.1-0.7-0.4-0.9-0.8c-0.3-0.5-0.3-1.2,0-1.7l0.1-0.2c-0.5,0-1.1-0.2-1.5-0.4
				c-0.3-0.2-0.5-0.6-0.6-0.9c-0.1-0.7,0.2-1.3,0.8-1.7c-0.3-0.1-0.6-0.2-0.9-0.4c-0.3-0.3-0.5-0.7-0.5-1.1c0-0.4,0.2-0.8,0.5-1.1
				c0.2-0.1,0.3-0.3,0.5-0.4c-3-0.6-5.5-1.7-5.6-2.8c0-0.4,0.2-0.8,1.2-1c2.3-0.4,9.9-0.1,12.4,0c-0.8-1.8-2-5.1-0.8-6.1
				c0.4-0.4,1-0.5,1.5-0.4c1.3,0.3,2.8,2,4.3,5.2l0.5,1.1c1.6,4,4.1,7.6,7.2,10.6c0.1,0.1,0.2,0.2,0.1,0.4c0,0.1-0.1,0.3-0.2,0.4
				c-5.1,4.7-8.8,6.1-9,6.2L326.4,258.9z M322.7,252.5c0.2,0,0.4,0.1,0.5,0.3l0.1,0.1c0.8,1.8,1.9,3.4,3.3,4.9
				c2.9-1.4,5.6-3.3,8-5.5c-3-3-5.4-6.6-7-10.6l-0.5-1.1c-1.9-3.9-3.2-4.5-3.6-4.6c-0.2-0.1-0.5,0-0.7,0.2c-0.5,0.4,0.3,3.3,1.4,5.6
				c0.1,0.2,0,0.5-0.2,0.7c-0.1,0-0.2,0.1-0.2,0.1c-0.1,0-10.4-0.4-13,0c-0.1,0-0.2,0-0.3,0.1c0.6,0.6,3.8,1.9,7.9,2.2
				c0.3,0,0.5,0.3,0.5,0.5c0,0.3-0.3,0.5-0.5,0.5c-0.9-0.1-2.6,0.1-3.2,0.6c-0.1,0.1-0.2,0.2-0.2,0.4c0,0.1,0,0.2,0.1,0.3
				c0.8,0.4,1.8,0.5,2.7,0.3c0.3,0,0.5,0.2,0.6,0.4c0,0.3-0.1,0.5-0.4,0.6c0,0,0,0,0,0c-0.9,0.1-2.5,0.6-2.4,1.4
				c0,0.1,0.1,0.2,0.2,0.3c0.6,0.4,2.1,0.3,2.9,0.1c0.3-0.1,0.5,0.1,0.6,0.4c0,0,0,0,0,0c0,0,0,0.1,0,0.1c0,0.2-0.2,0.4-0.4,0.5
				c-0.6,0.1-1.1,0.4-1.5,0.9c-0.1,0.3-0.1,0.6,0,0.9c0.1,0.1,0.2,0.2,0.3,0.3c0.8,0.1,1.7-0.1,2.4-0.5c0.1-0.1,0.2-0.1,0.3-0.1
				C321.1,252.7,321.9,252.7,322.7,252.5L322.7,252.5z"></path><path class="st0" d="M320.3,251c-0.1,0-0.1,0-0.2,0c-0.3-0.1-0.4-0.4-0.3-0.7c0,0,0,0,0,0c0.6-1.3,0.5-1.8,0.4-1.9
				c-0.2-0.3-1-0.3-2.3-0.1c-0.3,0-0.5-0.1-0.6-0.4c0-0.3,0.1-0.5,0.4-0.6c1.3-0.2,2.7-0.3,3.3,0.5c0.5,0.6,0.4,1.5-0.2,2.9
				C320.7,250.9,320.5,251,320.3,251z"></path><path class="st0" d="M320.1,248.3c-0.1,0-0.2,0-0.3-0.1c-0.2-0.2-0.3-0.5-0.1-0.7c0,0,0,0,0,0c0.5-0.7,0.7-1.2,0.5-1.5
				c-0.2-0.4-1.4-0.4-2.1-0.3c-0.3,0-0.5-0.2-0.6-0.4c0-0.3,0.2-0.5,0.4-0.6c0.4-0.1,2.4-0.3,3,0.8c0.4,0.6,0.2,1.5-0.6,2.6
				C320.4,248.2,320.3,248.3,320.1,248.3z"></path><path class="st0" d="M322.2,253.6c-0.6,0-1.1-0.1-1.7-0.2c-0.3-0.1-0.4-0.3-0.4-0.6c0-0.1,0-0.1,0.1-0.2c0.3-0.5,0.4-0.9,0.3-1.1
				s-1.3-0.4-1.9-0.3c-0.3,0-0.5-0.2-0.6-0.4s0.2-0.5,0.4-0.6c0.4,0,2.2-0.2,2.9,0.8c0.3,0.5,0.3,1.1,0,1.5c1.9,0.3,4.5-0.2,7.2-4.7
				c0.1-0.2,0.5-0.3,0.7-0.2c0.2,0.1,0.3,0.5,0.2,0.7l0,0C327.4,251.9,325,253.6,322.2,253.6z"></path><path class="st1" d="M405.7,243.4c0,0,31.4-1.8,47.2,15.9c20.2,22.7,20.2,50.6,3.3,50.8c0,0,7.8,11.6-4.3,17.7
				s-31.2,9.4-51.2,6.6s-21.6-3.8-20-18.5s3.1-32.4,3.1-32.4s-25.1,17.7-40.6,4.5s-19.4-26.7-19.4-26.7s-0.5-3.7,5.6-8.1
				s8.5-3.4,9.4-2.2s8,15.4,22.9,13.7S387.6,243.9,405.7,243.4z"></path><path class="st0" d="M384,280.8L384,280.8c-0.3,0-0.5-0.3-0.5-0.6l2.8-23c0-0.3,0.3-0.5,0.6-0.4c0.3,0,0.5,0.3,0.4,0.6l-2.8,23
				C384.5,280.6,384.3,280.8,384,280.8z"></path><path class="st0" d="M437.6,305.9c-0.3,0-0.5,0-0.7-0.1c-1.5-0.6-2.2-2.9-2.2-4.8c0-0.3,0.2-0.5,0.5-0.5c0.3,0,0.5,0.2,0.5,0.5
				c0,0,0,0,0,0c-0.1,1.5,0.5,3.5,1.5,3.9c0.8,0.3,1.8-0.5,2.5-1.3c2.8-3.1,0.3-11,0.3-11.1c-0.1-0.3,0.1-0.6,0.4-0.6
				c0.1,0,0.3,0,0.4,0.1c3.2,2.3,5,2.4,5.5,1.9s0.1-2.5-2.8-5.4c-5.5-5.7-12.5-18.7-9.2-31.1c0.1-0.3,0.4-0.4,0.6-0.4
				s0.4,0.4,0.4,0.6c-3.2,12,3.6,24.6,9,30.1c2.8,2.9,3.9,5.5,2.9,6.8c-0.9,1.1-3,0.7-5.7-1c0.6,2.5,1.6,8-0.9,10.8
				C439.3,305.5,438.3,305.9,437.6,305.9z"></path><path class="st0" d="M456.2,310.6L456.2,310.6c-14.1-0.3-19.7-5.1-19.9-5.3c-0.2-0.2-0.3-0.5-0.1-0.7c0.2-0.2,0.5-0.3,0.7-0.1
				c0,0,0.1,0.1,0.1,0.1c0.1,0,5.6,4.8,19.3,5.1c0.3,0,0.5,0.2,0.5,0.5c0,0,0,0,0,0C456.7,310.4,456.5,310.6,456.2,310.6z"></path><path class="st0" d="M437.1,294.8c-0.1,0-0.2,0-0.2-0.1c-0.2-0.1-0.3-0.4-0.2-0.7c0,0,0,0,0,0c0.1-0.2,1.4-2.3,2.8-2.6
				c0.5-0.1,1,0,1.4,0.3c0.2,0.1,0.3,0.4,0.2,0.7c-0.1,0.2-0.4,0.3-0.7,0.2c0,0-0.1,0-0.1-0.1c-0.2-0.1-0.4-0.2-0.6-0.1
				c-0.9,0.2-1.9,1.6-2.2,2.1C437.4,294.7,437.3,294.8,437.1,294.8z"></path><path class="st2" d="M389.7,219.5c0,0-6.3-2.7-4.7-13s10.3-11.5,15.5-8.2s12.3,1.1,17.1,3.8s3.6,8.7,3.6,8.7s11.7,0.1,7.4,13.8
				l-9.8,5l-14.5-2.6L389.7,219.5z"></path><path class="st0" d="M418.8,230.1L418.8,230.1l-14.6-2.6c0,0-0.1,0-0.1-0.1l-14.6-7.4c-0.5-0.2-6.6-3.1-5-13.5
				c0.9-5.8,3.9-8.3,6.2-9.4c3.3-1.4,7-1.1,10,0.8c2.6,1.7,5.8,1.9,9,2.1c3,0.2,5.8,0.4,8.1,1.7c4.2,2.4,4.1,7.1,3.9,8.7
				c2.6,0.2,5.1,1.5,6.7,3.5c1.9,2.6,2.1,6.2,0.6,10.9c0,0.1-0.1,0.2-0.2,0.3l-9.8,5C419,230.1,418.9,230.1,418.8,230.1z
				 M404.5,226.5l14.3,2.6l9.5-4.8c1.3-4.3,1.1-7.6-0.5-9.8c-2.2-3.1-6.5-3.1-6.5-3.1c-0.2,0-0.3-0.1-0.4-0.2
				c-0.1-0.1-0.1-0.3-0.1-0.4c0-0.2,1.1-5.7-3.4-8.2c-2.2-1.2-4.9-1.4-7.7-1.6c-3.2-0.2-6.6-0.4-9.4-2.2c-2.7-1.8-6.1-2-9.1-0.8
				c-2.1,1-4.8,3.2-5.7,8.6c-1.5,9.8,4.3,12.4,4.4,12.4l0,0L404.5,226.5z"></path><path class="st2" d="M406.7,239.9v7.4c0,0,4.7,4.9,12.1-0.8v-12.6L406.7,239.9z"></path><path class="st0" d="M411.9,249.7c-2,0-4-0.7-5.5-2.1c-0.1-0.1-0.1-0.2-0.1-0.4v-7.4c0-0.2,0.1-0.4,0.3-0.4l12.1-6
				c0.1-0.1,0.3-0.1,0.5,0c0.1,0.1,0.2,0.2,0.2,0.4v12.6c0,0.2-0.1,0.3-0.2,0.4C417.1,248.6,414.5,249.6,411.9,249.7z M407.2,247.1
				c0.8,0.7,4.9,3.8,11.1-0.8v-11.5l-11.1,5.5V247.1z"></path><path class="st2" d="M390.7,212.5c0,0-6.2,26.2,8.9,27.7s23.2-10.5,23.2-10.5c5.2,1.6,8.6-3.4,5.7-5.1s-5.2,2.3-5.2,2.3
				s-5.9-2.8-5.4-11.6c0,0-6.8,2.9-10.6-2.4c0,0-14.7,3.4-19.4-2.9"></path><path class="st0" d="M402.2,240.8c-0.9,0-1.7,0-2.6-0.1c-3-0.2-5.8-1.8-7.5-4.2c-5.3-7.5-2.3-22-1.9-23.9c-1-0.5-2-1.3-2.7-2.3
				c-0.2-0.2-0.1-0.5,0.1-0.7c0.2-0.2,0.5-0.1,0.7,0.1c0,0,0,0,0,0c4.5,6,18.7,2.8,18.9,2.7c0.2,0,0.4,0,0.5,0.2
				c3.5,4.9,9.9,2.3,10,2.2c0.2-0.1,0.3-0.1,0.5,0c0.1,0.1,0.2,0.3,0.2,0.4c-0.4,7.1,3.5,10.1,4.7,10.9c0.7-1.1,1.8-2,3.1-2.4
				c0.9-0.2,1.8-0.1,2.5,0.4c1.2,0.7,1.6,2.2,1,3.4c-0.9,2-3.5,3.5-6.8,2.7C421.7,232,414.5,240.8,402.2,240.8z M391.1,213
				c-0.5,2.5-3.1,16.1,1.7,22.9c1.6,2.2,4.1,3.6,6.8,3.8c14.6,1.4,22.7-10.2,22.7-10.3c0.1-0.2,0.3-0.3,0.6-0.2
				c3.1,0.9,5.3-0.6,5.9-2c0.4-0.8,0.1-1.7-0.6-2.2c-0.5-0.3-1.2-0.4-1.8-0.3c-1.2,0.5-2.1,1.3-2.7,2.4c-0.1,0.2-0.4,0.3-0.6,0.2
				c-0.2-0.1-5.9-2.9-5.7-11.3c-1.9,0.6-7,1.6-10.3-2.6C405.3,213.8,396.8,215.4,391.1,213z"></path><path class="st0" d="M424.4,228.5c-0.1,0-0.1,0-0.2,0c-0.3-0.1-0.4-0.4-0.3-0.6c0,0,0,0,0,0c0.4-1.1,1.8-2.9,3.9-2.2
				c0.3,0.1,0.4,0.4,0.3,0.6c-0.1,0.3-0.4,0.4-0.6,0.3c0,0,0,0,0,0c-1.7-0.6-2.6,1.5-2.7,1.6C424.8,228.4,424.6,228.5,424.4,228.5z"></path><path class="st0" d="M406.5,219.8c1.7-1.4,4.1-1.7,6.1-0.7c0.2,0.1,0.4,0.3,0.3,0.5c0,0.1,0,0.1-0.1,0.2
				c-0.1,0.2-0.2,0.3-0.4,0.3c-1.4,0.2-2.7,0.2-4.1,0.4l-1.3,0.2h-0.1c-0.3,0-0.5-0.1-0.6-0.4C406.3,220.1,406.4,219.9,406.5,219.8
				L406.5,219.8z"></path><path class="st0" d="M392.3,219.6c2.2-0.9,4.6-0.9,6.8,0c0.3,0.1,0.4,0.4,0.3,0.7c0,0,0,0,0,0c-0.1,0.2-0.2,0.3-0.4,0.3
				c-1.1,0.1-2.1,0.1-3.2,0l-3.2-0.1C392.1,220.6,391.8,219.8,392.3,219.6L392.3,219.6z"></path><path class="st0" d="M399.2,230.1c-1,0-1.8-0.6-2-1.6c-0.2-0.6-0.1-1.2,0.2-1.6c0.5-0.7,1.3-1.1,2.1-1.3c-0.2-1.8-0.5-3.6-1-5.4
				c-0.1-0.3,0.1-0.6,0.4-0.6c0.3-0.1,0.6,0.1,0.6,0.4c0.5,2,0.9,4,1,6c0,0.3-0.2,0.5-0.4,0.5c-0.7,0.1-1.4,0.4-1.9,0.9
				c-0.2,0.2-0.2,0.6-0.1,0.8c0.1,0.5,0.6,0.9,1.1,0.9c0.1,0,0.1,0,0.2,0c0.8-0.2,1.5-0.9,1.5-1.8c0-0.3,0.2-0.5,0.5-0.6
				c0.3,0,0.5,0.2,0.5,0.4c0.1,1.4-0.9,2.6-2.3,2.8C399.5,230.1,399.3,230.1,399.2,230.1z"></path><path class="st0" d="M410.5,223.9c0,1-0.6,1.8-1.2,1.8s-1.2-0.8-1.2-1.8c0-0.3,0.1-0.6,0.1-0.8l1.2,0.6l-0.6-1.5
				c0.1-0.1,0.3-0.1,0.5-0.1C410,222.1,410.5,222.9,410.5,223.9z"></path><path class="st0" d="M396.9,223.9c0,1-0.6,1.8-1.2,1.8s-1.2-0.8-1.2-1.8c0-0.3,0.1-0.6,0.1-0.8l1.2,0.6l-0.6-1.5
				c0.1-0.1,0.3-0.1,0.5-0.1C396.3,222.1,396.9,222.9,396.9,223.9z"></path><path class="st0" d="M404.3,234.4c-1,0-1.9-0.4-2.7-1c-0.2-0.2-0.3-0.5-0.1-0.7c0.2-0.2,0.5-0.3,0.7-0.1c0.7,0.7,1.7,0.9,2.7,0.7
				c0.7-0.3,1.2-1,1.3-1.8c0.1-0.3,0.3-0.4,0.6-0.4c0.3,0.1,0.4,0.3,0.4,0.6c-0.2,1.1-1,2-2,2.4
				C404.9,234.4,404.6,234.4,404.3,234.4z"></path></g></g></g><g id="women-character"><circle class="st2" cx="152.9" cy="365.1" r="43.7"></circle><path class="st0" d="M152.9,409.3c-24.4,0-44.2-19.8-44.2-44.2c0-24.4,19.8-44.2,44.2-44.2s44.2,19.8,44.2,44.2
		C197.1,389.5,177.3,409.3,152.9,409.3z M152.9,321.9c-23.9,0-43.2,19.3-43.2,43.2s19.3,43.2,43.2,43.2s43.2-19.3,43.2-43.2
		C196.1,341.3,176.7,321.9,152.9,321.9z"></path><g><defs><path id="SVGID_3_" d="M187.5,338.5v-36.1h-69.3v36.1c-14.8,19.1-11.2,46.6,7.9,61.4c19.1,14.8,46.6,11.2,61.4-7.9
				C199.6,376.2,199.6,354.2,187.5,338.5z"></path></defs><clipPath id="SVGID_4_"><use xlink:href="#SVGID_3_" style="overflow: visible;"></use></clipPath><g class="st4"><path class="st2" d="M135.8,348.2c0,0-7.8,1.3-11.7-5.2s-0.4-21,14.3-24.7s16.6,10.5,12.6,15S135.8,348.2,135.8,348.2z"></path><path class="st0" d="M134.2,348.8c-2.6,0-7.6-0.7-10.6-5.5c-2-3.4-2.1-8.6-0.1-13.2c1.5-3.5,5.3-9.8,14.7-12.2
				c8.4-2.1,12,1.6,13.5,4c2.5,4.1,1.8,9.4-0.4,11.9c-4,4.5-15.1,14.8-15.2,14.9c-0.1,0.1-0.2,0.1-0.3,0.1
				C135.3,348.8,134.8,348.8,134.2,348.8z M135.8,348.2L135.8,348.2z M142.9,318.2c-1.5,0-2.9,0.2-4.4,0.6c-9,2.3-12.7,8.2-14,11.6
				c-1.8,4.4-1.8,9.3,0,12.4c3.4,5.7,10,5.1,11,5c1.2-1.1,11.3-10.6,15.1-14.8c1.9-2.1,2.5-7,0.3-10.7
				C149.3,319.6,146.5,318.2,142.9,318.2L142.9,318.2z"></path><path class="st2" d="M175,356.8l-38.5-5.4c0,0-6.3,0.8-7.9,4.8s-1.3,4.9-2.2,5.3s-6.7,1.3-8.2,7s-0.6,7.1-0.7,8.3
				s-5.8,5.7-5.5,13.3s5.2,10.2,5.2,10.2l57.1-14.7c10.8,0.3,14.1-6.7,14.2-13s-6.5-7.8-7.2-8.7C180.7,362.8,180,357.8,175,356.8"></path><path class="st0" d="M117.2,400.8c-0.1,0-0.2,0-0.2-0.1c-0.2-0.1-5.2-2.8-5.5-10.6c-0.2-5.7,2.9-9.8,4.5-12
				c0.4-0.4,0.7-0.9,1-1.4c0-0.3,0-0.6-0.1-0.9c-0.1-1.2-0.4-3.1,0.8-7.5c1.4-5.4,6.5-6.8,8.2-7.2l0.3-0.1c0.2-0.1,0.3-0.3,0.6-1.4
				c0.4-1.2,0.8-2.4,1.3-3.6c1.7-4.2,8-5.1,8.3-5.1h0.1l38.5,5.4l0,0c4.4,0.9,5.7,4.7,6.3,6.5c0.1,0.3,0.2,0.6,0.3,0.8
				c0,0,0.6,0.3,1,0.5c2.2,1.1,6.3,3.2,6.2,8.4c0.1,3.7-1.3,7.3-3.9,10c-2.5,2.4-6.1,3.6-10.8,3.5l-57,14.7L117.2,400.8z
				 M136.5,351.9c-0.6,0.1-6.1,1-7.4,4.5c-0.5,1.2-0.9,2.3-1.2,3.5c-0.3,1.1-0.5,1.7-1.2,2l-0.4,0.1c-1.5,0.4-6.2,1.7-7.5,6.5
				c-1.1,4.2-0.9,5.9-0.7,7.1c0.1,0.4,0.1,0.7,0.1,1.1c0,0.5-0.5,1-1.2,1.9c-1.6,2.1-4.5,5.9-4.3,11.3c0.2,6.5,4,9.2,4.8,9.7
				l56.9-14.6c0,0,0.1,0,0.1,0c4.4,0.1,7.8-1,10.1-3.2c2.4-2.5,3.7-5.8,3.6-9.3c0.1-4.6-3.7-6.5-5.7-7.5c-0.5-0.2-1-0.5-1.4-0.9
				c-0.2-0.3-0.3-0.7-0.4-1.1c-0.6-1.8-1.7-5.1-5.6-5.9L136.5,351.9z"></path><path class="st2" d="M136.2,355.6c-2.8-4.1-2.3-13.5,6.6-20.8s22.9-2.9,22.9-2.9c3.7-2.5,10.1-1,12,7.2c1.1,5,0.4,10.2-2.1,14.6
				L136.2,355.6z"></path><path class="st0" d="M136.2,356.1c-0.2,0-0.3-0.1-0.4-0.2c-2.8-4.1-2.6-13.8,6.7-21.5c8.5-7,21.2-3.6,23.1-3.1
				c2-1.2,4.4-1.4,6.5-0.5c3,1.2,5.1,4.1,6.1,8.2c1.2,5.1,0.4,10.5-2.2,15c-0.1,0.1-0.2,0.2-0.4,0.2L136.2,356.1L136.2,356.1z
				 M156.3,331.1c-4.3,0-9.2,0.9-13.2,4.1c-8.7,7.1-9.1,16-6.7,19.9l38.8-1.9c2.3-4.3,3-9.3,1.9-14c-0.9-3.8-2.8-6.4-5.5-7.5
				c-1.9-0.8-4-0.6-5.8,0.5c-0.1,0.1-0.3,0.1-0.4,0.1C162.5,331.5,159.4,331.1,156.3,331.1z"></path><path class="st2" d="M225,367h-0.2c-1-0.1-1.8-0.7-2.2-1.6c1.4-1.5,1.9-5.3,1.1-7.5c0,0,0.9-1.3,2.6,0c0.5,0.6,0.8,1.3,0.8,2
				C227.5,362.6,226.7,367,225,367z"></path><path class="st0" d="M225,367.5h-0.2c-1.2-0.1-2.2-0.8-2.7-1.9c-0.1-0.2,0-0.4,0.1-0.5c1.2-1.3,1.8-4.9,1-7
				c-0.1-0.2,0-0.3,0.1-0.5c0.3-0.4,0.8-0.7,1.3-0.8c0.7-0.1,1.5,0.2,2,0.6c0.6,0.6,1,1.5,1,2.3c0.3,2.2-0.1,5.6-1.3,7
				C226,367.2,225.5,367.5,225,367.5z M223.2,365.5c0.4,0.6,1,1,1.6,1h0.2c0.2,0,0.4-0.1,0.5-0.3c0.9-1,1.4-4,1.1-6.2
				c0-0.6-0.2-1.2-0.6-1.7c-0.3-0.3-0.8-0.5-1.3-0.5c-0.2,0-0.3,0.1-0.5,0.2C224.9,360.6,224.5,363.2,223.2,365.5L223.2,365.5z"></path><path class="st2" d="M230,364.1c-0.2,0.9-0.5,1.8-1,2.6c-0.9,1.8-1.9,2.1-3,1.7c-0.6-0.2-1-0.8-1.1-1.4h0.2
				c1.7,0,2.5-4.4,2.1-7.2C229,359.3,231,360.5,230,364.1z"></path><path class="st0" d="M226.8,369.1c-0.3,0-0.7-0.1-1-0.2c-0.8-0.3-1.3-1-1.4-1.8c0-0.1,0-0.3,0.1-0.4c0.1-0.1,0.2-0.2,0.4-0.2h0.2
				c0.1,0,0.3,0,0.5-0.3c0.9-1,1.4-4,1.1-6.3c0-0.2,0.1-0.5,0.4-0.5c1-0.3,2.1-0.1,2.8,0.6c0.6,0.6,1.2,1.9,0.6,4.3
				c-0.2,1-0.6,1.9-1.1,2.8C228.7,368.4,227.9,369.1,226.8,369.1z M225.6,367.4c0.1,0.2,0.4,0.4,0.6,0.5c0.7,0.2,1.5,0.3,2.4-1.5
				c0.5-0.8,0.8-1.6,1-2.5l0,0c0.4-1.5,0.3-2.7-0.3-3.3c-0.4-0.4-0.9-0.5-1.4-0.5c0.2,2.3-0.2,5.4-1.4,6.6
				C226.2,367.1,225.9,367.3,225.6,367.4L225.6,367.4z"></path><path class="st2" d="M228.4,371.2c-1.9,3.1-4.7,2.5-5,6.1l-10.6-2.4c1-4.7-5.1-11-4.1-13.4s6.7,4.5,6.7,4.5s-0.3-15.3,0.6-18.4
				s4.5,3.9,3.9,9.3c0,0-1.4,8.7,1.4,9.2c0.6,0.1,1.2-0.1,1.5-0.6c0.3,0.9,1.2,1.6,2.2,1.6c0.1,0.6,0.5,1.1,1.1,1.4
				c1.1,0.4,2.1,0.1,3-1.7C229.5,368.3,229.2,369.9,228.4,371.2z"></path><path class="st0" d="M223.4,377.8h-0.1l-10.6-2.4c-0.3-0.1-0.4-0.3-0.4-0.6c0.5-2.4-1-5.4-2.4-8c-1.2-2.3-2.2-4.2-1.7-5.5
				c0.2-0.4,0.5-0.7,1-0.8c1.5-0.2,4.2,2.5,5.7,4.1c0-3.9-0.1-14.6,0.6-17.2c0.3-1.2,1-1.2,1.3-1.1c1.8,0.4,4,6.2,3.5,10.6
				c-0.6,3.4-0.6,8.4,1,8.6c0.4,0.1,0.8-0.1,1-0.4c0.1-0.1,0.3-0.2,0.5-0.2c0.2,0,0.3,0.1,0.4,0.3c0.3,0.7,1,1.2,1.7,1.3
				c0.2,0,0.4,0.2,0.5,0.4c0.1,0.4,0.4,0.8,0.8,1c0.7,0.2,1.5,0.3,2.4-1.5c0.1-0.2,0.3-0.3,0.5-0.3c0.2,0,0.4,0.2,0.4,0.4
				c0.4,1.6,0.1,3.3-0.8,4.8l0,0c-0.7,1.1-1.7,2-2.8,2.7c-1.2,0.8-2,1.3-2.1,3.2c0,0.1-0.1,0.3-0.2,0.4
				C223.6,377.8,223.5,377.8,223.4,377.8z M213.4,374.5l9.6,2.2c0.3-1.5,1.2-2.7,2.5-3.4c1-0.6,1.9-1.4,2.5-2.4
				c0.5-0.8,0.8-1.7,0.8-2.7c-0.8,1-2.3,1.2-3.4,0.4c-0.4-0.3-0.6-0.7-0.8-1.1c-0.8-0.1-1.5-0.6-1.9-1.3c-0.4,0.3-0.9,0.4-1.4,0.3
				c-3.1-0.6-2.1-8.2-1.8-9.8c0.4-3.5-1.1-7.7-2.3-9.1c-0.3-0.3-0.4-0.4-0.5-0.4c-0.1,0.1-0.2,0.3-0.2,0.4c-0.9,3-0.6,18.1-0.6,18.2
				c0,0.2-0.1,0.4-0.3,0.5c-0.2,0.1-0.4,0-0.6-0.1c-1.7-2.1-4.7-5-5.6-4.8c-0.1,0-0.1,0-0.2,0.2c-0.4,0.9,0.6,2.7,1.6,4.6
				C212.1,368.9,213.7,371.9,213.4,374.5L213.4,374.5z M228.4,371.2L228.4,371.2z"></path><path class="st2" d="M222.7,365.4c-0.3,0.5-0.9,0.7-1.5,0.6c-2.7-0.5-1.4-9.2-1.4-9.2s1.4-2.3,3.3,0c0.2,0.3,0.4,0.7,0.6,1.1
				C224.5,360.1,224,363.9,222.7,365.4z"></path><path class="st0" d="M221.5,366.5h-0.4c-3-0.6-2-8.2-1.8-9.8c0-0.1,0-0.1,0.1-0.2c0.4-0.7,1.1-1.1,1.9-1.3c0.9,0,1.7,0.5,2.2,1.2
				c0.3,0.4,0.5,0.8,0.7,1.2c0.9,2.4,0.3,6.4-1.1,8C222.7,366.2,222.1,366.5,221.5,366.5z M220.3,357c-0.5,3.4-0.5,8.2,1,8.5
				c0.4,0.1,0.8-0.1,1-0.4l0,0c1.2-1.4,1.6-5,0.9-7c-0.1-0.4-0.3-0.7-0.6-1c-0.3-0.5-0.8-0.8-1.3-0.8
				C220.9,356.4,220.5,356.6,220.3,357z"></path><path class="st1" d="M209.1,411.8c-18.1,9.1-25.9,3.4-26.2,3.2c0.2,0.3,13.7,24.5,10.3,41.5c-0.4,2.2-1.7,4.2-3.5,5.5
				c-7.7,5.8-33.1,20.4-74,2.2l0.6-14.8c-12.4-9.7-13.1-31.8-2.8-49c12.5-21,32.8-22.2,32.8-22.2l12.9-1.1c0,0,11.1,2.7,25.7,11.3
				c14.1,8.2,23,1.6,25.3-12.6c0.2-1.1,1-1.9,2.1-2c3.1-0.2,9.1-0.3,12.3,2.8c0.4,0.4,0.7,1,0.7,1.6
				C225.5,382.5,225.5,403.5,209.1,411.8z"></path><path class="st2" d="M155.8,435.2c0,0,0.3-7.4,2.5-8.6s1.6,4.1,1.6,4.1l6.5-7.6c0,0,2.6,6.7,0,12.6s-6.2,4.6-7.2,7.5
				S154.4,439.1,155.8,435.2z"></path><path class="st0" d="M158.5,444.4c-0.6-0.1-1-0.4-1.4-0.8c-1.4-1.6-2.8-5.7-1.9-8.5c0-1.1,0.4-7.7,2.8-8.9c0.5-0.3,1-0.3,1.5,0
				c0.8,0.5,0.9,2,0.9,3.1l5.5-6.5c0.1-0.1,0.3-0.2,0.5-0.2c0.2,0,0.3,0.1,0.4,0.3c0.1,0.3,2.6,7,0,13c-0.9,2.4-2.7,4.4-5.1,5.5
				c-1,0.6-1.8,1-2.1,2c-0.2,0.7-0.7,1-1,1L158.5,444.4z M158.9,426.9c-0.1,0-0.2,0.1-0.3,0.1c-1.4,0.8-2.1,5.4-2.2,8.2
				c0,0,0,0.1,0,0.1c-0.9,2.4,0.4,6.1,1.6,7.5c0.4,0.4,0.6,0.5,0.6,0.5s0.1-0.1,0.2-0.4c0.5-1.2,1.4-2.1,2.6-2.6
				c2.1-1,3.8-2.8,4.6-5c2-4.5,0.8-9.5,0.3-11.4l-5.9,6.9c-0.1,0.2-0.4,0.2-0.6,0.1c-0.2-0.1-0.3-0.3-0.3-0.5c0.2-1.5,0-3.4-0.4-3.7
				C159,426.9,158.9,426.9,158.9,426.9L158.9,426.9z M155.8,435.2L155.8,435.2z"></path><path class="st1" d="M128,414.7c3.2,27.5,27.8,20.5,27.8,20.5c4.5,4.4,3.4,12.2,3.4,12.2s-11.5,10.6-33,6.3
				c-3.6-0.7-7-2.2-9.9-4.4c0,0-4.5-3.8-6.1-7.3S128,414.7,128,414.7z"></path><path class="st2" d="M144.3,365.3c0.5,6.7,0.4,14.5,0.4,14.5s2.4,6.1,9,5.8s6.1-5.8,6-7s-1.5-4.8-1.8-6S144.3,365.3,144.3,365.3z
				"></path><path class="st0" d="M153.2,386.1c-6.5,0-9-6.1-9-6.1c0-0.1,0-0.1,0-0.2c0-0.1,0.1-7.9-0.4-14.5c0-0.2,0.1-0.3,0.2-0.5
				c0.2-0.1,0.3-0.1,0.5,0c5,2.3,13.5,6.4,13.9,7.6c0.1,0.5,0.4,1.2,0.7,2.1c0.5,1.3,0.9,2.6,1.2,4c0.3,1.9-0.2,3.9-1.4,5.5
				c-1.3,1.4-3.2,2.1-5.1,2.1L153.2,386.1z M145.2,379.7c1.4,3.4,4.8,5.5,8.5,5.4c1.6,0,3.2-0.6,4.4-1.7c1-1.4,1.4-3,1.2-4.7
				c-0.3-1.3-0.6-2.6-1.1-3.8c-0.3-0.9-0.6-1.6-0.7-2.1c-0.4-0.7-6.6-3.8-12.6-6.6C145.3,372.1,145.2,378.8,145.2,379.7L145.2,379.7
				z"></path><path class="st2" d="M174.3,346c0,0,4.7,17.7-2.9,24.3s-25.1,3.9-29.4-8c0,0-3.9,3.8-6.5-0.7s1.5-8.8,6.2-6.3
				c0,0,2.1-4.6,11.1-6.9c5.2-1.2,10-3.8,13.9-7.5C166.7,340.9,168,344,174.3,346z"></path><path class="st0" d="M160.6,374.3c-2,0-4-0.3-6-0.8c-6.1-1.6-10.8-5.4-12.8-10.4c-1,0.8-2.3,1.2-3.6,1.1
				c-1.4-0.3-2.5-1.2-3.1-2.4c-1.6-2.2-1.1-5.3,1.1-6.9c1.6-1.1,3.7-1.3,5.4-0.3c0.8-1.2,3.6-4.8,11.2-6.7c5.1-1.2,9.8-3.8,13.7-7.4
				c0.1-0.1,0.3-0.2,0.4-0.1c0.2,0,0.3,0.1,0.4,0.3c0,0,1.3,2.9,7.3,4.8c0.2,0.1,0.3,0.2,0.3,0.4c0.2,0.7,4.7,18.1-3.1,24.8
				C169,373,165,374.3,160.6,374.3z M142,361.8h0.1c0.2,0,0.3,0.2,0.4,0.3c1.8,5,6.3,8.8,12.4,10.4s12.5,0.6,16.2-2.6
				c6.8-5.9,3.4-21.3,2.8-23.5c-4.6-1.5-6.6-3.6-7.3-4.7c-3.9,3.5-8.6,5.9-13.7,7.2c-8.6,2.2-10.8,6.6-10.8,6.6
				c-0.1,0.1-0.2,0.2-0.3,0.3c-0.1,0.1-0.3,0.1-0.4,0c-2.4-1.2-4.3-0.6-5.3,0.4c-1.3,1.5-1.4,3.6-0.3,5.2c0.4,1,1.3,1.7,2.4,1.9
				c1.7,0.2,3.3-1.3,3.3-1.3C141.7,361.9,141.9,361.8,142,361.8z"></path><path class="st0" d="M158,353.2c-0.9-0.1-2.1-0.2-2.9-0.2h-3c-0.3,0-0.5-0.2-0.5-0.4c0,0,0,0,0-0.1c0-0.2,0.1-0.3,0.2-0.4
				c1.5-0.9,3.3-1,5-0.5c0.5,0.2,2.2,0.6,1.7,1.4C158.4,353.1,158.2,353.2,158,353.2z"></path><path class="st0" d="M173.3,351.7l-3.4,0.3c-1.1,0.1-2.3,0.3-3.5,0.3c-0.3,0-0.5-0.2-0.5-0.4c0,0,0,0,0-0.1
				c0-0.2,0.1-0.4,0.3-0.5c2.3-1.1,4.9-1.4,7.3-0.6c0.3,0.1,0.4,0.5,0.2,0.7C173.6,351.6,173.5,351.7,173.3,351.7L173.3,351.7z"></path><path class="st0" d="M167,362.5h-0.3c-1.5-0.2-2.6-1.4-2.6-2.9c0-0.3,0.2-0.5,0.5-0.5c0,0,0,0,0,0c0.3,0,0.5,0.2,0.5,0.5
				c0,0,0,0,0,0c0,0.9,0.7,1.7,1.7,1.8c0.6,0.1,1.2-0.3,1.3-0.9c0,0,0,0,0-0.1c0.1-0.3,0-0.6-0.1-0.9c-0.6-0.5-1.4-0.8-2.2-0.8
				c-0.3,0-0.5-0.2-0.5-0.5c0-2.2,0.1-4.4,0.5-6.5c0-0.3,0.3-0.5,0.6-0.4c0.3,0,0.5,0.3,0.4,0.6c-0.3,1.9-0.5,3.9-0.5,5.9
				c0.9,0.1,1.8,0.5,2.5,1.1c0.4,0.5,0.5,1.1,0.3,1.7C169,361.7,168.1,362.5,167,362.5z"></path><path class="st0" d="M154.5,356.9c0.1,1.1,0.8,1.9,1.5,1.8c0.8-0.3,1.4-1.1,1.2-2c0-0.3-0.1-0.6-0.2-0.9l-1.2,0.8l0.5-1.6
				c-0.2-0.1-0.3-0.1-0.5-0.1C154.9,355.1,154.3,356,154.5,356.9C154.5,356.9,154.5,356.9,154.5,356.9z"></path><path class="st0" d="M169,355.7c0.1,1.1,0.8,1.9,1.5,1.8c0.8-0.3,1.4-1.1,1.2-2c0-0.3-0.1-0.6-0.2-0.9l-1.2,0.8l0.5-1.6
				c-0.2-0.1-0.3-0.1-0.5-0.1C169.5,353.7,168.9,354.6,169,355.7z"></path><path class="st0" d="M161.8,367.5c-0.3,0-0.5,0-0.8-0.1c-1.1-0.4-2-1.3-2.3-2.4c-0.1-0.3,0.1-0.6,0.4-0.6s0.6,0.1,0.6,0.4
				c0.2,0.8,0.8,1.5,1.6,1.8c1,0.2,2.1-0.2,2.8-1c0.2-0.2,0.5-0.2,0.7,0.1c0.2,0.2,0.2,0.5-0.1,0.7C164,367,162.9,367.4,161.8,367.5
				z"></path><path class="st0" d="M136.5,359.2h-0.2c-0.3-0.1-0.4-0.4-0.3-0.6c0.3-0.8,0.9-1.5,1.7-1.9c1-0.3,2.1-0.3,3.1,0.2
				c0.3,0.1,0.4,0.4,0.3,0.6c-0.1,0.3-0.4,0.4-0.6,0.3c0,0-0.1,0-0.1,0c-0.7-0.3-1.5-0.4-2.3-0.1c-0.6,0.2-1,0.7-1.1,1.3
				C136.9,359.1,136.7,359.2,136.5,359.2z"></path><path class="st0" d="M139.1,362H139c-0.7-0.2-1.3-0.8-1.6-1.5c-0.4-1.1-0.4-2.4,0-3.5c0.1-0.2,0.4-0.4,0.7-0.2
				c0.2,0.1,0.4,0.4,0.2,0.7c-0.3,0.9-0.3,1.8,0,2.7c0.2,0.5,0.5,0.8,1,0.9c0.3,0,0.5,0.3,0.4,0.6
				C139.6,361.9,139.4,362.1,139.1,362L139.1,362z"></path><path class="st0" d="M136.2,455.2c-3.4,0-6.8-0.3-10.1-1c-3.7-0.7-7.1-2.2-10.1-4.5c-0.2-0.2-4.6-3.9-6.2-7.5
				c-0.1-0.2,0-0.5,0.2-0.7c0,0,0,0,0,0c0.2-0.1,0.5,0,0.7,0.2c0,0,0,0,0,0c1.5,3.4,5.9,7.1,6,7.1c2.9,2.2,6.2,3.6,9.7,4.3
				c11,2.2,19.2,0.4,24.2-1.5c3-1.1,5.7-2.6,8.2-4.6c0.1-1.1,0.6-7.6-3.1-11.4c-1.8,0.4-11.1,2.4-18.6-2.6
				c-5.3-3.5-8.5-9.7-9.5-18.4c0-0.3,0.2-0.5,0.4-0.6c0.3,0,0.5,0.2,0.6,0.4c1,8.3,4,14.3,9.1,17.6c7.9,5.2,18,2.5,18.1,2.4
				c0.2,0,0.4,0,0.5,0.1c4.6,4.5,3.6,12.3,3.6,12.6c0,0.1-0.1,0.2-0.2,0.3c-2.6,2.1-5.5,3.8-8.6,4.9
				C146.2,454.4,141.2,455.3,136.2,455.2z"></path></g></g></g><g id="gear-1"><path class="st1" d="M124,247.2L124,247.2c0-0.1,0-0.1-0.1-0.1c0,0,0,0,0,0l-2.5-3.6l-0.9,0.9l-5-3.8c-0.3-0.3-0.5-0.7-0.5-1.1
		v-3.7c0-0.4,0.2-0.8,0.5-1.1l8.3-6.3c0.5-0.4,0.6-1.1,0.3-1.6l-9.3-16l-3-4.2l-1.7,3.1l1.7,1.2l-8.1,3.4c-0.4,0.2-0.8,0.1-1.1-0.1
		c-0.5-0.4-1-0.7-1.6-1c-0.5-0.3-1.1-0.6-1.7-0.9c-0.4-0.1-0.7-0.5-0.7-0.9L97.3,201c0-0.2-0.1-0.5-0.3-0.6l0,0l-2.8-4l-1.1,3.5
		H77.5c-0.6,0-1.1,0.5-1.2,1.1L75,211.3c0,0.4-0.3,0.8-0.7,0.9c-0.6,0.3-1.2,0.6-1.7,0.9c-0.6,0.3-1.1,0.7-1.6,1
		c-0.3,0.2-0.7,0.3-1.1,0.1l-9.6-4c-0.6-0.2-1.2,0-1.5,0.5L51,224.2l-0.7-1.1l-3.5,0.6l2.7,3.8l0,0c0.1,0.3,0.2,0.5,0.5,0.7l8.3,6.3
		c0.3,0.2,0.5,0.6,0.5,1v3.7c0.1,0.4-0.1,0.8-0.5,1l-8.3,6.3c-0.5,0.4-0.6,1.1-0.3,1.6l7.2,12.4l-0.3,0.1l2.3,3.5
		c0.3,0.5,0.9,0.7,1.5,0.5l9.6-4c0.4-0.2,0.8-0.1,1.1,0.1c0.5,0.4,1,0.7,1.6,1c0.5,0.3,1.1,0.6,1.7,0.9c0.4,0.1,0.7,0.5,0.7,0.9
		l0.7,5.7l-1.7,0.2v1.3l2.4,3.4c0,0.1,0.1,0.2,0.2,0.3v0.1l0,0c0.2,0.2,0.5,0.3,0.8,0.3h18.6c0.6,0,1.1-0.5,1.2-1.1l1.3-10.3
		c0-0.4,0.3-0.8,0.7-0.9c0.6-0.3,1.2-0.6,1.7-0.9c0.6-0.3,1.1-0.7,1.6-1c0.3-0.2,0.7-0.3,1.1-0.1l9.5,4c0.6,0.2,1.2,0,1.5-0.5
		l9.3-16C124.2,248,124.2,247.5,124,247.2z M86.8,253.9c-9,0-16.3-7.3-16.3-16.3s7.3-16.3,16.3-16.3c9,0,16.3,7.3,16.3,16.3
		S95.8,253.9,86.8,253.9L86.8,253.9z"></path><path class="st2" d="M112.8,236.7c-0.3-0.3-0.5-0.7-0.5-1.1v-3.7c0-0.4,0.2-0.8,0.5-1.1l8.3-6.3c0.5-0.4,0.6-1.1,0.3-1.6l-9.3-16
		c-0.3-0.5-0.9-0.7-1.5-0.5l-9.6,4c-0.4,0.2-0.8,0.1-1.1-0.1c-0.5-0.4-1-0.7-1.6-1c-0.5-0.3-1.1-0.6-1.7-0.9
		c-0.4-0.1-0.7-0.5-0.7-0.9l-1.3-10.3c-0.1-0.6-0.6-1.1-1.2-1.1H74.8c-0.6,0-1.1,0.5-1.2,1.1l-1.3,10.3c0,0.4-0.3,0.8-0.7,0.9
		c-0.6,0.3-1.2,0.6-1.7,0.9c-0.6,0.3-1.1,0.7-1.6,1c-0.3,0.2-0.7,0.3-1.1,0.1l-9.6-4c-0.6-0.2-1.2,0-1.5,0.5l-9.3,16
		c-0.3,0.5-0.2,1.2,0.3,1.6l8.3,6.3c0.3,0.2,0.5,0.6,0.5,1v3.7c0.1,0.4-0.1,0.8-0.5,1l-8.3,6.3c-0.5,0.4-0.6,1.1-0.3,1.6l9.3,16
		c0.3,0.5,0.9,0.7,1.5,0.5l9.6-4c0.4-0.2,0.8-0.1,1.1,0.1c0.5,0.4,1,0.7,1.6,1c0.5,0.3,1.1,0.6,1.7,0.9c0.4,0.1,0.7,0.5,0.7,0.9
		l1.3,10.3c0.1,0.6,0.6,1.1,1.2,1.1h18.6c0.6,0,1.1-0.5,1.2-1.1l1.3-10.3c0-0.4,0.3-0.8,0.7-0.9c0.6-0.3,1.2-0.6,1.7-0.9
		c0.6-0.3,1.1-0.7,1.6-1c0.3-0.2,0.7-0.3,1.1-0.1l9.5,4c0.6,0.2,1.2,0,1.5-0.5l9.3-16c0.3-0.5,0.2-1.2-0.3-1.6L112.8,236.7z
		 M84.1,250c-9,0-16.3-7.3-16.3-16.3c0-9,7.3-16.3,16.3-16.3c9,0,16.3,7.3,16.3,16.3S93.1,250,84.1,250L84.1,250z"></path><path class="st0" d="M93.4,271.7H74.8c-0.9,0-1.6-0.7-1.7-1.5l-1.3-10.3c0-0.3-0.3-0.4-0.4-0.5c-0.6-0.3-1.2-0.6-1.7-0.9
		c-0.6-0.3-1.1-0.6-1.7-1c-0.2-0.1-0.4-0.1-0.6,0l-9.6,4c-0.8,0.3-1.7,0-2.1-0.7l-9.3-16c-0.4-0.7-0.3-1.7,0.4-2.2l8.3-6.3
		c0.2-0.1,0.3-0.2,0.3-0.6v-3.7c0-0.2-0.1-0.4-0.3-0.6l-8.3-6.4c-0.7-0.5-0.9-1.5-0.4-2.3l9.3-16c0.4-0.7,1.3-1,2.1-0.7l9.6,4
		c0.2,0.1,0.4,0.1,0.6-0.1l0.6-0.4c0.3-0.2,0.7-0.5,1.1-0.7c0.4-0.3,0.8-0.5,1.3-0.7l0.4-0.2c0,0,0.1,0,0.1,0
		c0.2-0.1,0.3-0.2,0.3-0.4l1.3-10.4c0.1-0.9,0.8-1.5,1.7-1.5h18.6c0.9,0,1.6,0.7,1.7,1.5l1.3,10.3c0,0.3,0.3,0.4,0.4,0.5
		c0.6,0.3,1.2,0.6,1.7,0.9l0.4,0.2c0.4,0.2,0.8,0.5,1.2,0.8c0.2,0.1,0.4,0.1,0.6,0l9.6-4c0.8-0.3,1.7,0,2.1,0.7l9.3,16
		c0.4,0.7,0.3,1.7-0.4,2.2l-8.3,6.3c-0.2,0.2-0.3,0.4-0.3,0.7v3.7c0,0.3,0.1,0.5,0.3,0.7l8.2,6.1c0.7,0.5,0.9,1.5,0.4,2.3l-9.3,16
		c-0.4,0.7-1.3,1-2.1,0.7l-9.5-4c-0.2-0.1-0.4-0.1-0.6,0.1l-0.6,0.4c-0.3,0.3-0.7,0.5-1.1,0.7c-0.4,0.3-0.8,0.5-1.3,0.7l-0.4,0.2
		c0,0-0.1,0-0.1,0c-0.2,0.1-0.3,0.2-0.3,0.4l-1.3,10.4C95,271,94.3,271.7,93.4,271.7z M67.7,256.3c0.3,0,0.7,0.1,0.9,0.3
		c0.5,0.4,1,0.7,1.5,1c0.5,0.3,1.1,0.6,1.7,0.9c0.6,0.2,1,0.7,1,1.4l1.3,10.2c0.1,0.4,0.3,0.6,0.7,0.7h18.6c0.4,0,0.7-0.3,0.7-0.7
		l1.3-10.3c0-0.6,0.4-1.1,1-1.3l0.4-0.2c0.4-0.2,0.8-0.4,1.2-0.7c0.3-0.2,0.7-0.4,1-0.6l0.6-0.4c0.5-0.3,1.1-0.4,1.6-0.1l9.4,4
		c0.3,0.1,0.7,0,0.9-0.3l9.3-16c0.2-0.3,0.1-0.8-0.2-1l-8.2-6.1l0,0c-0.4-0.4-0.6-0.9-0.7-1.4v-3.7c0-0.6,0.2-1.1,0.7-1.5l8.3-6.3
		c0.3-0.2,0.4-0.7,0.2-1l-9.3-16c-0.2-0.3-0.6-0.4-0.9-0.3l-9.6,4c-0.5,0.2-1.1,0.2-1.6-0.1c-0.4-0.3-0.7-0.5-1.2-0.7l-0.4-0.2
		c-0.5-0.3-1.1-0.6-1.7-0.9c-0.6-0.2-1-0.7-1-1.4l-1.3-10.2c-0.1-0.4-0.3-0.6-0.7-0.7H74.8c-0.4,0-0.7,0.3-0.7,0.7l-1.3,10.3
		c0,0.6-0.4,1.1-1,1.3l-0.4,0.2c-0.4,0.2-0.8,0.4-1.2,0.6c-0.3,0.2-0.7,0.4-1,0.6l-0.6,0.4c-0.5,0.3-1.1,0.4-1.6,0.1l-9.5-4
		c-0.3-0.1-0.7,0-0.9,0.3l-9.3,16c-0.2,0.3-0.1,0.8,0.2,1l8.3,6.3c0.4,0.3,0.7,0.8,0.7,1.4v3.7c0.1,0.6-0.3,1.2-0.8,1.4l-8.3,6.2
		c-0.3,0.2-0.4,0.7-0.2,1l9.3,16c0.2,0.3,0.6,0.4,0.9,0.3l9.6-4C67.2,256.4,67.4,256.3,67.7,256.3z M84.1,250.5
		c-9.3,0-16.8-7.5-16.8-16.8c0-9.3,7.5-16.8,16.8-16.8c9.3,0,16.8,7.5,16.8,16.8C100.9,243,93.4,250.5,84.1,250.5z M84.1,217.9
		c-8.7,0-15.8,7.1-15.8,15.8c0,8.7,7.1,15.8,15.8,15.8s15.8-7.1,15.8-15.8C99.9,225,92.8,217.9,84.1,217.9z"></path></g><g id="gear-2"><path class="st1" d="M393,385.8L393,385.8c0-0.1,0-0.1-0.1-0.1l0,0l-2.5-3.6l-0.9,0.9l-5-3.8c-0.3-0.3-0.5-0.7-0.5-1.1v-3.7
		c0-0.4,0.2-0.8,0.5-1.1l8.3-6.3c0.5-0.4,0.6-1.1,0.3-1.6l-9.3-16l-3-4.2l-1.7,3.1l1.7,1.2l-8.1,3.4c-0.4,0.2-0.8,0.1-1.1-0.1
		c-0.5-0.4-1-0.7-1.6-1c-0.5-0.3-1.1-0.6-1.7-0.9c-0.4-0.1-0.7-0.5-0.7-0.9l-1.3-10.3c0-0.2-0.1-0.5-0.3-0.6l0,0l-2.8-4l-1.1,3.5
		h-15.5c-0.6,0-1.1,0.5-1.2,1.1l-1.3,10.3c0,0.4-0.3,0.8-0.7,0.9c-0.6,0.3-1.2,0.6-1.7,0.9c-0.6,0.3-1.1,0.7-1.6,1
		c-0.3,0.2-0.7,0.3-1.1,0.1l-9.6-4c-0.6-0.2-1.2,0-1.5,0.5l-7.8,13.5l-0.7-1.1l-3.5,0.6l2.7,3.8l0,0c0.1,0.3,0.2,0.5,0.5,0.7
		l8.3,6.3c0.3,0.2,0.5,0.6,0.5,1v3.7c0.1,0.4-0.1,0.8-0.5,1l-8.3,6.3c-0.5,0.4-0.6,1.1-0.3,1.6l7.2,12.4l-0.3,0.1l2.3,3.5
		c0.3,0.5,0.9,0.7,1.5,0.5l9.6-4c0.4-0.2,0.8-0.1,1.1,0.1c0.5,0.4,1,0.7,1.6,1c0.5,0.3,1.1,0.6,1.7,0.9c0.4,0.1,0.7,0.5,0.7,0.9
		l0.7,5.7l-1.7,0.2v1.3l2.4,3.4c0,0.1,0.1,0.2,0.2,0.3v0.1l0,0c0.2,0.2,0.5,0.3,0.8,0.3h18.6c0.6,0,1.1-0.5,1.2-1.1l1.3-10.3
		c0-0.4,0.3-0.8,0.7-0.9c0.6-0.3,1.2-0.6,1.7-0.9c0.6-0.3,1.1-0.7,1.6-1c0.3-0.2,0.7-0.3,1.1-0.1l9.5,4c0.6,0.2,1.2,0,1.5-0.5
		l9.3-16C393.2,386.4,393.2,386.1,393,385.8L393,385.8z M355.8,392.5c-9,0-16.3-7.3-16.3-16.3s7.3-16.3,16.3-16.3
		c9,0,16.3,7.3,16.3,16.3c0,0,0,0,0,0C372.1,385.2,364.8,392.5,355.8,392.5z"></path><path class="st2" d="M381.8,375.4c-0.3-0.3-0.5-0.7-0.5-1.1v-3.7c0-0.4,0.2-0.8,0.5-1.1l8.3-6.3c0.5-0.4,0.6-1.1,0.3-1.6l-9.3-16
		c-0.3-0.5-0.9-0.7-1.5-0.5l-9.6,4c-0.4,0.2-0.8,0.1-1.1-0.1c-0.5-0.4-1-0.7-1.6-1c-0.5-0.3-1.1-0.6-1.7-0.9
		c-0.4-0.1-0.7-0.5-0.7-0.9l-1.3-10.3c-0.1-0.6-0.6-1.1-1.2-1.1h-18.6c-0.6,0-1.1,0.5-1.2,1.1l-1.3,10.3c0,0.4-0.3,0.8-0.7,0.9
		c-0.6,0.3-1.2,0.6-1.7,0.9c-0.6,0.3-1.1,0.7-1.6,1c-0.3,0.2-0.7,0.3-1.1,0.1l-9.6-4c-0.6-0.2-1.2,0-1.5,0.5l-9.3,16
		c-0.3,0.5-0.2,1.2,0.3,1.6l8.3,6.3c0.3,0.2,0.5,0.6,0.5,1v3.7c0.1,0.4-0.1,0.8-0.5,1l-8.3,6.3c-0.5,0.4-0.6,1.1-0.3,1.6l9.3,16
		c0.3,0.5,0.9,0.7,1.5,0.5l9.6-4c0.4-0.2,0.8-0.1,1.1,0.1c0.5,0.4,1,0.7,1.6,1c0.5,0.3,1.1,0.6,1.7,0.9c0.4,0.1,0.7,0.5,0.7,0.9
		l1.3,10.3c0.1,0.6,0.6,1.1,1.2,1.1h18.6c0.6,0,1.1-0.5,1.2-1.1l1.3-10.3c0-0.4,0.3-0.8,0.7-0.9c0.6-0.3,1.2-0.6,1.7-0.9
		c0.6-0.3,1.1-0.7,1.6-1c0.3-0.2,0.7-0.3,1.1-0.1l9.5,4c0.6,0.2,1.2,0,1.5-0.5l9.3-16c0.3-0.5,0.2-1.2-0.3-1.6L381.8,375.4z
		 M353.2,388.7c-9,0-16.3-7.3-16.3-16.3s7.3-16.3,16.3-16.3c9,0,16.3,7.3,16.3,16.3c0,0,0,0,0,0
		C369.5,381.4,362.2,388.7,353.2,388.7L353.2,388.7z"></path><path class="st0" d="M362.4,410.4h-18.6c-0.9,0-1.6-0.7-1.7-1.5l-1.3-10.3c0-0.3-0.3-0.4-0.4-0.5c-0.6-0.3-1.2-0.6-1.7-0.9
		c-0.6-0.3-1.1-0.6-1.6-1c-0.2-0.1-0.4-0.1-0.6,0l-9.6,4c-0.8,0.3-1.7,0-2.1-0.7l-9.3-16c-0.4-0.7-0.3-1.7,0.4-2.2l8.3-6.3
		c0.1-0.1,0.3-0.2,0.3-0.6v-3.7c0-0.2-0.1-0.4-0.3-0.6l-8.3-6.3c-0.7-0.5-0.9-1.5-0.4-2.3l9.3-16c0.4-0.7,1.3-1,2.1-0.7l9.6,4
		c0.2,0.1,0.4,0.1,0.6-0.1l0.6-0.4c0.3-0.3,0.7-0.5,1.1-0.7c0.4-0.3,0.8-0.5,1.3-0.7l0.4-0.2c0,0,0.1,0,0.1,0
		c0.2-0.1,0.3-0.2,0.3-0.4l1.3-10.4c0.1-0.9,0.8-1.5,1.7-1.5h18.6c0.9,0,1.6,0.7,1.7,1.5l1.3,10.3c0,0.3,0.3,0.4,0.4,0.5
		c0.6,0.3,1.2,0.6,1.7,0.9l0.4,0.2c0.4,0.2,0.9,0.5,1.2,0.8c0.2,0.1,0.4,0.1,0.6,0l9.6-4c0.8-0.3,1.7,0,2.1,0.7l9.3,16
		c0.4,0.7,0.3,1.7-0.4,2.2l-8.3,6.3c-0.2,0.2-0.3,0.4-0.3,0.7v3.7c0,0.3,0.1,0.5,0.3,0.7l8.2,6.1c0.7,0.5,0.9,1.5,0.4,2.3l-9.3,16
		c-0.4,0.7-1.3,1-2.1,0.7l-9.5-4c-0.2-0.1-0.4-0.1-0.6,0.1l-0.6,0.4c-0.3,0.2-0.7,0.5-1.1,0.7c-0.4,0.3-0.8,0.5-1.3,0.7l-0.4,0.2
		c0,0-0.1,0-0.1,0c-0.2,0.1-0.3,0.2-0.3,0.4l-1.3,10.4C364,409.7,363.3,410.4,362.4,410.4z M336.6,395c0.3,0,0.7,0.1,0.9,0.3
		c0.5,0.4,1,0.7,1.5,1c0.5,0.3,1.1,0.6,1.7,0.9c0.6,0.2,1,0.8,1,1.4l1.3,10.2c0.1,0.4,0.3,0.6,0.7,0.7h18.6c0.4,0,0.7-0.3,0.7-0.7
		l1.3-10.3c0-0.6,0.4-1.1,1-1.3l0.4-0.2c0.4-0.2,0.8-0.4,1.2-0.6c0.3-0.2,0.7-0.4,1-0.6l0.6-0.4c0.5-0.3,1.1-0.4,1.6-0.1l9.4,4
		c0.3,0.1,0.7,0,0.9-0.3l9.3-16c0.2-0.3,0.1-0.8-0.2-1l-8.2-6.1l0,0c-0.4-0.4-0.6-0.9-0.6-1.5v-3.7c0-0.6,0.2-1.1,0.7-1.5l8.3-6.3
		c0.3-0.2,0.4-0.7,0.1-1l-9.3-16c-0.2-0.3-0.6-0.4-0.9-0.3l-9.6,4c-0.5,0.2-1.1,0.2-1.6-0.1c-0.4-0.3-0.7-0.5-1.1-0.7l-0.4-0.2
		c-0.5-0.3-1.1-0.6-1.7-0.9c-0.6-0.2-1-0.7-1-1.4l-1.2-10.2c-0.1-0.4-0.3-0.6-0.7-0.7h-18.6c-0.4,0-0.7,0.3-0.7,0.7l-1.3,10.3
		c0,0.6-0.4,1.1-1,1.3l-0.4,0.2c-0.8,0.4-1.5,0.8-2.2,1.3l-0.6,0.4c-0.5,0.3-1.1,0.4-1.6,0.1l-9.5-4c-0.3-0.1-0.7,0-0.9,0.3l-9.3,16
		c-0.2,0.3-0.1,0.8,0.2,1l8.3,6.3c0.4,0.3,0.7,0.8,0.7,1.4v3.7c0.1,0.6-0.2,1.2-0.8,1.5l-8.2,6.2c-0.3,0.2-0.4,0.7-0.1,1l9.3,16
		c0.2,0.3,0.6,0.4,0.9,0.3l9.6-4C336.2,395.1,336.4,395,336.6,395z M353.2,389.2c-9.3,0-16.8-7.5-16.8-16.8
		c0-9.3,7.5-16.8,16.8-16.8c9.3,0,16.8,7.5,16.8,16.8C370,381.7,362.5,389.2,353.2,389.2L353.2,389.2z M353.2,356.6
		c-8.7,0-15.8,7.1-15.8,15.8c0,8.7,7.1,15.8,15.8,15.8c8.7,0,15.8-7.1,15.8-15.8c0,0,0,0,0,0C369,363.7,361.9,356.6,353.2,356.6
		L353.2,356.6z"></path></g></svg>