<svg transform="scale(1)" version="1.1" id="_x30_220_x5F_Bug_x5F_Fixing_x5F_3" xmlns="http://www.w3.org/2000/svg" xmlns:xlink="http://www.w3.org/1999/xlink" x="0px" y="0px" viewBox="0 0 500 500" xml:space="preserve" class="show_show__wrapper__graphic__5Waiy "><title>React</title><style type="text/css">
	.st0{fill:#732A09;}
	.st1{fill:#FFFFFF;}
	.st2{fill:#F75454;}
	.st3{fill:none;stroke:#732A09;stroke-linecap:round;stroke-linejoin:round;}
</style><g id="bug-3"><path class="st0" d="M238.6,104.9c-0.3,0-0.5-0.2-0.5-0.5c0-5.9,3.6-9.8,7.4-13.9c3.4-3.7,6.9-7.5,8.1-13.1
		c2.4-11.7-3.9-27.9-3.9-28c-0.1-0.3,0-0.5,0.3-0.7c0.3-0.1,0.5,0,0.6,0.3c0.3,0.7,6.5,16.7,4,28.6c-1.2,5.8-4.8,9.8-8.3,13.6
		c-3.6,4-7.1,7.7-7.1,13.2C239,104.7,238.8,104.9,238.6,104.9z"></path><path class="st0" d="M225.5,104.9c-0.3,0-0.5-0.2-0.5-0.5c0-5.5-3.4-9.2-7.1-13.2c-3.5-3.8-7.1-7.7-8.3-13.6
		c-2.5-11.9,3.7-27.9,4-28.6c0.1-0.3,0.4-0.4,0.6-0.3c0.3,0.1,0.4,0.4,0.3,0.7c-0.1,0.2-6.4,16.4-3.9,28c1.2,5.6,4.7,9.4,8.1,13.1
		c3.8,4.1,7.3,8,7.3,13.9C226,104.6,225.8,104.8,225.5,104.9C225.5,104.9,225.5,104.9,225.5,104.9z"></path><path class="st0" d="M185.4,152.4h-0.1c-29.4-8.6-30.5-47.3-31-65.9s-21.8-33.1-22-33.2c-0.2-0.1-0.3-0.4-0.2-0.7s0.4-0.3,0.7-0.2
		c0,0,0.1,0,0.1,0.1c0.2,0.2,21.9,15,22.4,34c0.5,18.3,1.6,56.5,30.3,65c0.3,0.1,0.4,0.4,0.3,0.6
		C185.8,152.3,185.6,152.4,185.4,152.4z"></path><path class="st0" d="M278.8,152.4c-0.3,0-0.5-0.2-0.6-0.4s0.2-0.5,0.4-0.6c28.7-8.4,29.8-46.6,30.3-65c0.5-19,22.2-33.9,22.4-34
		c0.2-0.2,0.5-0.1,0.7,0.1c0.2,0.2,0.1,0.5-0.1,0.7c0,0,0,0,0,0c-0.2,0.2-21.5,14.7-22,33.2s-1.6,57.3-31,65.9L278.8,152.4z"></path><path class="st0" d="M100.1,355.2c-0.2,0-0.4-0.1-0.5-0.3c-0.1-0.3,0-0.5,0.3-0.6c22.7-8.4,49.9-42.9,64.8-82.1
		c0.1-0.3,0.4-0.4,0.6-0.3c0,0,0,0,0,0c0.3,0.1,0.4,0.4,0.3,0.6c-14.9,39.4-42.4,74.2-65.3,82.7
		C100.2,355.2,100.1,355.2,100.1,355.2z"></path><path class="st0" d="M71.8,284.4c-0.2,0-0.4-0.1-0.4-0.3c-0.1-0.2,0-0.5,0.2-0.7c0,0,0,0,0,0c17.9-8.2,25.1-21.9,35.1-41
		c1.4-2.7,2.9-5.4,4.4-8.3c14.7-27.4,30.3-40.1,49.2-40.1c0.3,0,0.5,0.2,0.5,0.5c0,0.3-0.2,0.5-0.5,0.5c-18.4,0-33.8,12.6-48.3,39.6
		c-1.6,2.9-3,5.6-4.4,8.3c-10.1,19.2-17.4,33.1-35.6,41.4C72,284.4,71.9,284.4,71.8,284.4z"></path><path class="st1" d="M217,97.4h30c5.4,0,10.2,4.4,11.9,11l4.8,18.8h-63.4l4.8-18.8C206.8,101.9,211.6,97.4,217,97.4z"></path><path class="st0" d="M263.7,127.7h-63.4c-0.3,0-0.5-0.2-0.5-0.5c0,0,0-0.1,0-0.1l4.8-18.8c1.7-6.8,6.7-11.4,12.4-11.4h30
		c5.7,0,10.7,4.6,12.4,11.4l4.8,18.8C264.2,127.4,264.1,127.6,263.7,127.7C263.8,127.7,263.7,127.7,263.7,127.7L263.7,127.7z
		 M201,126.7h62.1l-4.6-18.2c-1.6-6.3-6.2-10.6-11.4-10.6h-30c-5.2,0-9.8,4.3-11.4,10.6L201,126.7z"></path><path class="st1" d="M209.9,117.4H254c8,0,15,5.1,17.5,12.7l7,21.8h-93l7-21.8C194.9,122.6,201.9,117.4,209.9,117.4z"></path><path class="st0" d="M278.5,152.4h-93c-0.2,0-0.3-0.1-0.4-0.2c-0.1-0.1-0.1-0.3-0.1-0.4l7-21.8c2.5-7.8,9.8-13.1,18-13.1h44
		c8.2,0,15.5,5.3,18,13.1l7,21.8c0.1,0.2,0,0.3-0.1,0.4C278.8,152.4,278.6,152.5,278.5,152.4z M186.1,151.4h91.6l-6.8-21.1
		c-2.4-7.4-9.2-12.4-17-12.4h-44.1c-7.8,0-14.6,5-17,12.4L186.1,151.4z"></path><path class="st2" d="M232.3,140.7v214c0,0,64.3,0.4,74.2-94.5s-8-106.9-17.2-112.2S250.2,137.4,232.3,140.7z"></path><path class="st0" d="M232.3,355.2L232.3,355.2c-0.3,0-0.5-0.2-0.5-0.5v-214c0-0.2,0.2-0.4,0.4-0.5c18.2-3.4,48.2,2.1,57.3,7.3
		c5.5,3.2,11.8,7.8,16.1,22.8c5.2,18.5,5.7,48.8,1.4,89.9c-2.8,27.2-12.3,63.7-41,83.2C248.8,355.1,232.7,355.2,232.3,355.2z
		 M232.8,141.1v213.1c2.8-0.1,17.3-1.2,32.6-11.6c28.4-19.4,37.8-55.5,40.6-82.5c10.1-96.2-8.9-107.1-17-111.7
		C280.1,143.3,250.9,138,232.8,141.1L232.8,141.1z"></path><path class="st1" d="M265.9,218l-4-1.3c-0.8-0.3-1.3-1-1.2-1.8c0-0.6,0-1.1,0-1.7s0-1.1,0-1.7c0-0.8,0.5-1.6,1.2-1.8l4-1.3
		c0.9-0.3,1.5-1.3,1.2-2.2c0,0,0,0,0,0l-2.6-7.9c-0.3-0.9-1.3-1.5-2.3-1.1l-4,1.3c-0.8,0.2-1.6-0.1-2-0.7c-0.6-1-1.3-1.9-2-2.8
		c-0.5-0.6-0.5-1.5-0.1-2.2l2.5-3.4c0.6-0.8,0.4-1.9-0.4-2.5l-6.7-4.9c-0.8-0.6-1.9-0.4-2.5,0.4c0,0,0,0,0,0l-2.5,3.4
		c-0.5,0.7-1.3,0.9-2.1,0.6c-1.1-0.4-2.2-0.8-3.3-1.1c-0.8-0.2-1.3-0.9-1.3-1.7v-4.2c0-1-0.8-1.8-1.8-1.8l0,0h-8.3
		c-1,0-1.8,0.8-1.8,1.8c0,0,0,0,0,0v4.2c0,0.8-0.5,1.5-1.3,1.7c-1.1,0.3-2.2,0.6-3.3,1.1c-0.8,0.3-1.6,0-2.1-0.6l-2.5-3.4
		c-0.6-0.8-1.7-1-2.5-0.4c0,0,0,0,0,0l-6.7,4.9c-0.8,0.6-1,1.7-0.4,2.5l2.5,3.4c0.5,0.7,0.5,1.5-0.1,2.2c-0.7,0.9-1.4,1.8-2,2.8
		c-0.4,0.7-1.3,1-2.1,0.7l-4-1.3c-0.9-0.3-2,0.2-2.3,1.1l-2.6,7.9c-0.3,0.9,0.2,2,1.1,2.3c0,0,0,0,0,0l4,1.3c0.8,0.2,1.3,1,1.2,1.8
		c0,0.6,0,1.1,0,1.7s0,1.1,0,1.7c0,0.8-0.5,1.6-1.2,1.8l-4,1.3c-0.9,0.3-1.5,1.3-1.2,2.3c0,0,0,0,0,0l2.6,7.9
		c0.3,0.9,1.3,1.5,2.3,1.1l4-1.3c0.8-0.2,1.6,0.1,2.1,0.7c0.6,1,1.3,1.9,2,2.8c0.5,0.6,0.5,1.5,0.1,2.2l-2.5,3.4
		c-0.6,0.8-0.4,1.9,0.4,2.5l6.7,4.9c0.8,0.6,1.9,0.4,2.5-0.4l2.5-3.4c0.5-0.7,1.3-0.9,2.1-0.6c1.1,0.4,2.2,0.8,3.3,1.1
		c0.8,0.2,1.3,0.9,1.3,1.7v4.2c0,1,0.8,1.8,1.8,1.8h8.3c1,0,1.8-0.8,1.8-1.8v-4.2c0-0.8,0.5-1.5,1.3-1.7c1.1-0.3,2.2-0.6,3.3-1.1
		c0.8-0.3,1.6,0,2.1,0.6l2.5,3.4c0.6,0.8,1.7,1,2.5,0.4l6.7-4.9c0.8-0.6,1-1.7,0.4-2.5l-2.5-3.4c-0.5-0.7-0.4-1.5,0.1-2.2
		c0.7-0.9,1.4-1.8,2-2.8c0.4-0.6,1.2-0.9,2-0.7l4,1.3c0.9,0.3,2-0.2,2.3-1.1l2.6-7.9C267.4,219.3,266.9,218.3,265.9,218z
		 M231.9,229.3c-8.9,0-16.1-7.2-16.1-16.1s7.2-16.1,16.1-16.1s16.1,7.2,16.1,16.1c0,0,0,0,0,0C248,222.1,240.8,229.3,231.9,229.3
		L231.9,229.3z"></path><path class="st3" d="M265.9,218l-4-1.3c-0.8-0.3-1.3-1-1.2-1.8c0-0.6,0-1.1,0-1.7s0-1.1,0-1.7c0-0.8,0.5-1.6,1.2-1.8l4-1.3
		c0.9-0.3,1.5-1.3,1.2-2.2c0,0,0,0,0,0l-2.6-7.9c-0.3-0.9-1.3-1.5-2.3-1.1l-4,1.3c-0.8,0.2-1.6-0.1-2-0.7c-0.6-1-1.3-1.9-2-2.8
		c-0.5-0.6-0.5-1.5-0.1-2.2l2.5-3.4c0.6-0.8,0.4-1.9-0.4-2.5l-6.7-4.9c-0.8-0.6-1.9-0.4-2.5,0.4c0,0,0,0,0,0l-2.5,3.4
		c-0.5,0.7-1.3,0.9-2.1,0.6c-1.1-0.4-2.2-0.8-3.3-1.1c-0.8-0.2-1.3-0.9-1.3-1.7v-4.2c0-1-0.8-1.8-1.8-1.8l0,0h-8.3
		c-1,0-1.8,0.8-1.8,1.8c0,0,0,0,0,0v4.2c0,0.8-0.5,1.5-1.3,1.7c-1.1,0.3-2.2,0.6-3.3,1.1c-0.8,0.3-1.6,0-2.1-0.6l-2.5-3.4
		c-0.6-0.8-1.7-1-2.5-0.4c0,0,0,0,0,0l-6.7,4.9c-0.8,0.6-1,1.7-0.4,2.5l2.5,3.4c0.5,0.7,0.5,1.5-0.1,2.2c-0.7,0.9-1.4,1.8-2,2.8
		c-0.4,0.7-1.3,1-2.1,0.7l-4-1.3c-0.9-0.3-2,0.2-2.3,1.1l-2.6,7.9c-0.3,0.9,0.2,2,1.1,2.3c0,0,0,0,0,0l4,1.3c0.8,0.2,1.3,1,1.2,1.8
		c0,0.6,0,1.1,0,1.7s0,1.1,0,1.7c0,0.8-0.5,1.6-1.2,1.8l-4,1.3c-0.9,0.3-1.5,1.3-1.2,2.3c0,0,0,0,0,0l2.6,7.9
		c0.3,0.9,1.3,1.5,2.3,1.1l4-1.3c0.8-0.2,1.6,0.1,2.1,0.7c0.6,1,1.3,1.9,2,2.8c0.5,0.6,0.5,1.5,0.1,2.2l-2.5,3.4
		c-0.6,0.8-0.4,1.9,0.4,2.5l6.7,4.9c0.8,0.6,1.9,0.4,2.5-0.4l2.5-3.4c0.5-0.7,1.3-0.9,2.1-0.6c1.1,0.4,2.2,0.8,3.3,1.1
		c0.8,0.2,1.3,0.9,1.3,1.7v4.2c0,1,0.8,1.8,1.8,1.8h8.3c1,0,1.8-0.8,1.8-1.8v-4.2c0-0.8,0.5-1.5,1.3-1.7c1.1-0.3,2.2-0.6,3.3-1.1
		c0.8-0.3,1.6,0,2.1,0.6l2.5,3.4c0.6,0.8,1.7,1,2.5,0.4l6.7-4.9c0.8-0.6,1-1.7,0.4-2.5l-2.5-3.4c-0.5-0.7-0.4-1.5,0.1-2.2
		c0.7-0.9,1.4-1.8,2-2.8c0.4-0.6,1.2-0.9,2-0.7l4,1.3c0.9,0.3,2-0.2,2.3-1.1l2.6-7.9C267.4,219.3,266.9,218.3,265.9,218z
		 M231.9,229.3c-8.9,0-16.1-7.2-16.1-16.1s7.2-16.1,16.1-16.1s16.1,7.2,16.1,16.1c0,0,0,0,0,0C248,222.1,240.8,229.3,231.9,229.3
		L231.9,229.3z"></path><path class="st3" d="M265.9,218l-4-1.3c-0.8-0.3-1.3-1-1.2-1.8c0-0.6,0-1.1,0-1.7s0-1.1,0-1.7c0-0.8,0.5-1.6,1.2-1.8l4-1.3
		c0.9-0.3,1.5-1.3,1.2-2.2c0,0,0,0,0,0l-2.6-7.9c-0.3-0.9-1.3-1.5-2.3-1.1l-4,1.3c-0.8,0.2-1.6-0.1-2-0.7c-0.6-1-1.3-1.9-2-2.8
		c-0.5-0.6-0.5-1.5-0.1-2.2l2.5-3.4c0.6-0.8,0.4-1.9-0.4-2.5l-6.7-4.9c-0.8-0.6-1.9-0.4-2.5,0.4c0,0,0,0,0,0l-2.5,3.4
		c-0.5,0.7-1.3,0.9-2.1,0.6c-1.1-0.4-2.2-0.8-3.3-1.1c-0.8-0.2-1.3-0.9-1.3-1.7v-4.2c0-1-0.8-1.8-1.8-1.8l0,0h-8.3
		c-1,0-1.8,0.8-1.8,1.8c0,0,0,0,0,0v4.2c0,0.8-0.5,1.5-1.3,1.7c-1.1,0.3-2.2,0.6-3.3,1.1c-0.8,0.3-1.6,0-2.1-0.6l-2.5-3.4
		c-0.6-0.8-1.7-1-2.5-0.4c0,0,0,0,0,0l-6.7,4.9c-0.8,0.6-1,1.7-0.4,2.5l2.5,3.4c0.5,0.7,0.5,1.5-0.1,2.2c-0.7,0.9-1.4,1.8-2,2.8
		c-0.4,0.7-1.3,1-2.1,0.7l-4-1.3c-0.9-0.3-2,0.2-2.3,1.1l-2.6,7.9c-0.3,0.9,0.2,2,1.1,2.3c0,0,0,0,0,0l4,1.3c0.8,0.2,1.3,1,1.2,1.8
		c0,0.6,0,1.1,0,1.7s0,1.1,0,1.7c0,0.8-0.5,1.6-1.2,1.8l-4,1.3c-0.9,0.3-1.5,1.3-1.2,2.3c0,0,0,0,0,0l2.6,7.9
		c0.3,0.9,1.3,1.5,2.3,1.1l4-1.3c0.8-0.2,1.6,0.1,2.1,0.7c0.6,1,1.3,1.9,2,2.8c0.5,0.6,0.5,1.5,0.1,2.2l-2.5,3.4
		c-0.6,0.8-0.4,1.9,0.4,2.5l6.7,4.9c0.8,0.6,1.9,0.4,2.5-0.4l2.5-3.4c0.5-0.7,1.3-0.9,2.1-0.6c1.1,0.4,2.2,0.8,3.3,1.1
		c0.8,0.2,1.3,0.9,1.3,1.7v4.2c0,1,0.8,1.8,1.8,1.8h8.3c1,0,1.8-0.8,1.8-1.8v-4.2c0-0.8,0.5-1.5,1.3-1.7c1.1-0.3,2.2-0.6,3.3-1.1
		c0.8-0.3,1.6,0,2.1,0.6l2.5,3.4c0.6,0.8,1.7,1,2.5,0.4l6.7-4.9c0.8-0.6,1-1.7,0.4-2.5l-2.5-3.4c-0.5-0.7-0.4-1.5,0.1-2.2
		c0.7-0.9,1.4-1.8,2-2.8c0.4-0.6,1.2-0.9,2-0.7l4,1.3c0.9,0.3,2-0.2,2.3-1.1l2.6-7.9C267.4,219.3,266.9,218.3,265.9,218z
		 M231.9,229.3c-8.9,0-16.1-7.2-16.1-16.1s7.2-16.1,16.1-16.1s16.1,7.2,16.1,16.1c0,0,0,0,0,0C248,222.1,240.8,229.3,231.9,229.3
		L231.9,229.3z"></path><path class="st1" d="M231.9,140.7v214c0,0-64.3,0.4-74.2-94.5S165.7,153.3,175,148S214.1,137.4,231.9,140.7z"></path><path class="st0" d="M231.9,355.2c-0.4,0-16.5-0.1-33.7-11.8c-28.8-19.6-38.2-56.1-41.1-83.2c-4.3-41.1-3.8-71.4,1.4-89.9
		c4.2-15,10.5-19.6,16.1-22.8c9.2-5.2,39.1-10.7,57.3-7.3c0.2,0,0.4,0.2,0.4,0.5v214C232.4,355,232.2,355.2,231.9,355.2L231.9,355.2
		z M218.9,140.2c-16.9,0-36.7,4.2-43.8,8.3c-8.1,4.6-27.1,15.5-17,111.7c2.8,26.9,12.1,63.1,40.6,82.5
		c15.3,10.4,29.8,11.5,32.7,11.6V141.1C227.3,140.5,223.1,140.2,218.9,140.2L218.9,140.2z"></path><path class="st1" d="M232.3,140.7l151.3,151.3c0,0,45.7-45.2-14.4-119.3s-81.2-69.9-91.5-67.1S242.6,125.7,232.3,140.7z"></path><path class="st0" d="M383.6,292.6c-0.1,0-0.3-0.1-0.4-0.1L231.9,141.1c-0.2-0.2-0.2-0.4-0.1-0.6c10.5-15.3,35.5-32.6,45.7-35.3
		c6.2-1.7,13.9-2.8,27.5,4.8c16.8,9.4,38.5,30.4,64.6,62.6c17.2,21.2,36.3,53.7,29.8,87.9c-3.9,20.5-15.4,32-15.5,32.1
		C383.9,292.5,383.8,292.6,383.6,292.6z M232.9,140.7l150.7,150.7c1.9-2.1,11.4-13.1,14.9-31.3c3.5-18.6,1.3-48.9-29.6-87
		c-60.9-75.2-82-69.4-91-67C267.9,108.8,243.5,125.7,232.9,140.7z"></path></g><g id="character-8"><path class="st1" d="M308.2,337.7c5.5,10.9,10.2,19,10.2,19l-20,7.7l-4.9-16.2L308.2,337.7z"></path><path class="st0" d="M298.3,365c-0.1,0-0.2,0-0.2,0c-0.1-0.1-0.2-0.2-0.3-0.3l-4.9-16.3c-0.1-0.2,0-0.4,0.2-0.5l14.8-10.5
		c0.1-0.1,0.3-0.1,0.4-0.1c0.1,0,0.3,0.1,0.3,0.3c5.5,10.8,10.1,18.9,10.2,19c0.1,0.1,0.1,0.3,0,0.4c-0.1,0.1-0.2,0.2-0.3,0.3
		l-20,7.7C298.4,364.9,298.4,365,298.3,365z M294.1,348.5l4.6,15.4l19-7.3c-1.1-1.9-5-9-9.6-18L294.1,348.5z"></path><path class="st2" d="M258.2,325.1c0,0-11.2-15.7,1.2-26.1c14-11.7,29.7-12.6,41.2,0S258.2,325.1,258.2,325.1z"></path><path class="st0" d="M258.2,325.6c-0.2,0-0.3-0.1-0.4-0.2c-0.1-0.2-11.3-16.2,1.3-26.8c14.6-12.2,30.7-12.2,41.9,0
		c1.5,1.4,2.1,3.5,1.5,5.5c-3.3,11-42.5,21-44.2,21.5L258.2,325.6z M281.4,290.3c-7,0-14.4,3-21.6,9c-5,4.2-6.7,9.7-5.1,16.4
		c0.8,3.1,2.1,6,3.8,8.7c3.9-1,40.1-10.7,43.1-20.7c0.5-1.6,0-3.4-1.3-4.5C294.8,293.3,288.3,290.3,281.4,290.3z"></path><path class="st1" d="M315.4,323.9c0,0,0,1.1-0.2,2.8c-0.7,5.4-3.3,17.5-12.6,22.6c-12.2,6.7-27.9,0-27.9,0s-6.7,3.5-11.6-0.5
		s0-8.8,0-8.8s12.8,1.7,29.5-8.1s19.1-22.8,19.1-22.8s1.5-5.9,7.4-3.3S321.7,324.1,315.4,323.9z"></path><path class="st0" d="M289.9,352.7c-5.2-0.1-10.4-1.1-15.3-2.9c-1.2,0.6-7.3,3.1-11.9-0.7c-1.3-1-2.2-2.5-2.3-4.2
		c-0.1-2.9,2.2-5.3,2.3-5.4c0.1-0.1,0.3-0.2,0.4-0.1c0.1,0,12.8,1.6,29.2-8s18.9-22.4,18.9-22.5c0.4-1.6,1.5-3,3-3.9
		c1.6-0.7,3.5-0.6,5.1,0.2c3.4,1.5,3.9,6.6,2.9,11c-0.9,3.9-3.2,7.8-6.4,8.1c0,0.5-0.1,1.3-0.2,2.4c-0.7,5.1-3.3,17.7-12.9,23
		C298.8,351.8,294.4,352.8,289.9,352.7z M274.6,348.7c0.1,0,0.1,0,0.2,0c0.2,0.1,15.6,6.5,27.5,0c9.2-5,11.7-17.2,12.4-22.2
		c0.2-1.7,0.2-2.7,0.2-2.7c0-0.3,0.2-0.5,0.5-0.5h0.1c2.8,0,4.9-3.7,5.8-7.3c0.9-3.9,0.5-8.6-2.4-9.8c-1.3-0.7-2.9-0.8-4.2-0.2
		c-1.2,0.7-2.1,1.8-2.5,3.2c-0.7,2.8-1.8,5.4-3.4,7.8c-4,6.3-9.5,11.6-16,15.2c-15.4,9-27.6,8.4-29.6,8.2c-1.1,1.2-1.8,2.8-1.8,4.4
		c0.1,1.4,0.9,2.6,2,3.4c4.5,3.7,11,0.5,11,0.5C274.5,348.7,274.6,348.7,274.6,348.7L274.6,348.7z"></path><path class="st1" d="M311.7,309.1c0,0,3.1,13.6-1,21.5s-21.5,16.5-29.1,16.7s-18.6-7.2-18.6-7.2l14.3-16.9L311.7,309.1z"></path><path class="st0" d="M281.2,347.8c-7.6,0-18-7.1-18.4-7.4c-0.1-0.1-0.2-0.2-0.2-0.3c0-0.1,0-0.3,0.1-0.4l14.3-16.9
		c0-0.1,0.1-0.1,0.2-0.1l34.3-14c0.1-0.1,0.3-0.1,0.4,0c0.1,0.1,0.2,0.2,0.3,0.3c0.1,0.6,3.1,13.8-1,21.8
		c-4.2,8.2-21.8,16.7-29.6,17L281.2,347.8z M263.8,339.9c2.1,1.4,10.9,6.9,17.4,6.9h0.4c7.4-0.3,24.7-8.7,28.7-16.4
		c3.5-6.7,1.6-17.9,1-20.5l-33.7,13.8L263.8,339.9z"></path><path class="st2" d="M311.7,309.1c0,0-2.4,12.9-19.1,22.8s-29.5,8.1-29.5,8.1s-12.9-24,1.9-37.4S302.4,294.6,311.7,309.1z"></path><path class="st0" d="M265.4,340.6c-1.5,0-2.3-0.1-2.4-0.1c-0.2,0-0.3-0.1-0.4-0.3c-0.1-0.2-13-24.5,2-38c6.6-6.1,15.6-8.8,24.5-7.5
		c9.4,1.2,17.8,6.3,23,14.2c0.1,0.1,0.1,0.2,0.1,0.4c-0.7,2.8-1.8,5.5-3.4,7.9c-4,6.3-9.5,11.6-16,15.2
		C280.3,339.6,269.9,340.6,265.4,340.6z M263.4,339.5c1.9,0.2,13.8,0.8,28.9-8.1s18.5-20.6,18.9-22.2c-5.1-7.5-13.2-12.4-22.2-13.6
		c-8.6-1.2-17.3,1.4-23.7,7.3C251.7,315.2,262.1,337,263.4,339.5L263.4,339.5z"></path><path class="st0" d="M275.3,339.4c-0.2,0-0.3-0.1-0.4-0.2c-4.2-6.7-4.7-16.5-4.5-23.5c0.2-4.6,0.7-9.2,1.6-13.7
		c0-0.2,0.3-0.4,0.5-0.4c12.6,0.4,28.8,14.1,33.1,19.5c0.2,0.2,0.1,0.5-0.1,0.7c-0.2,0.1-0.5,0.1-0.6-0.1
		c-4.2-5.2-19.8-18.4-32-19.1c-0.6,3.2-4.3,24.5,2.9,36.1c0.1,0.2,0.1,0.5-0.2,0.7c0,0,0,0,0,0C275.5,339.3,275.4,339.4,275.3,339.4
		z"></path><path class="st0" d="M258.1,324.2L258.1,324.2c-0.3,0-0.5-0.3-0.5-0.5c1.5-12.4,14.1-21.7,14.6-22c0.2-0.1,13.3-7.9,27.1-3.9
		c0.3,0.1,0.4,0.3,0.3,0.6c0,0,0,0,0,0c-0.1,0.3-0.3,0.4-0.6,0.4c0,0,0,0,0,0c-13.4-3.8-26.1,3.7-26.2,3.8s-12.7,9.4-14.2,21.3
		C258.5,324,258.3,324.2,258.1,324.2z"></path><path class="st1" d="M232.9,286.9l7.8-8.7c0,0,10.5-3.3,11.6-4.8s0.7-10.9-5.9-16.6c-7.1-6.2-15.3-3.8-15.9-1.5s-1.7,11.2-1.7,11.2
		l-4.9,4.3l-21.8,23.9c-1.1,1.2-1,3.1,0.2,4.2c0,0,0.1,0.1,0.1,0.1l7.4,6.1l9-2C218.9,303.1,231.8,290.6,232.9,286.9z"></path><path class="st0" d="M209.9,305.6c-0.1,0-0.2,0-0.3-0.1l-7.4-6.1c-1.5-1.2-1.7-3.5-0.5-5c0,0,0.1-0.1,0.1-0.1l21.8-23.9l4.8-4.2
		c0.2-1.4,1.1-9,1.7-11.1c0.2-0.9,1.4-1.8,3.1-2.3c3.4-1,8.8-0.6,13.6,3.6c6.7,5.8,7.3,15.5,6,17.2c-1.1,1.5-9.7,4.3-11.8,5
		l-7.7,8.5c-1.4,3.8-13.6,15.8-14.1,16.3c-0.1,0.1-0.1,0.1-0.2,0.1l-9,2L209.9,305.6z M236.6,253.4c-1.1,0-2.1,0.1-3.1,0.4
		c-1.5,0.4-2.2,1.1-2.4,1.6c-0.6,2.2-1.7,11.1-1.7,11.2c0,0.1-0.1,0.2-0.2,0.3l-4.9,4.3L202.6,295c-0.9,1-0.9,2.6,0.2,3.6
		c0,0,0.1,0.1,0.1,0.1l7.2,5.9l8.6-1.9c4.4-4.4,12.9-13.1,13.8-15.9c0-0.1,0.1-0.1,0.1-0.2l7.8-8.7c0.1-0.1,0.1-0.1,0.2-0.1
		c4-1.3,10.7-3.6,11.4-4.6c0.9-1.3,0.6-10.3-5.9-15.9C243.5,254.8,240.1,253.5,236.6,253.4z M218.9,303.1L218.9,303.1z"></path><path class="st1" d="M310.3,222.9c0,0,5.8-4.7,7-6.4s-2-4.7-5.8-2.5s-31.2,23.2-31.2,23.2s-8.8,1.3-12.5,2.8s-9.1,7.7-9.1,7.7
		l3.5,3.5c0,0,9.5-7.5,12.8-7s5.5,5.2,5.5,8.6s-10.5,9.5-10.5,9.5s3.1,4.1,5.5,4.1s7.4-6.9,8.4-9.6s1.8-9.7,2.3-12.4
		s21.6-16.3,21.6-16.3L310.3,222.9z"></path><path class="st0" d="M275.5,267L275.5,267c-2.6-0.1-5.8-4.2-5.9-4.3c-0.1-0.1-0.1-0.3-0.1-0.4c0-0.1,0.1-0.3,0.2-0.3
		c2.8-1.6,10.2-6.4,10.2-9c0.1-3.3-2.1-7.7-5-8.1c-2.5-0.4-9.8,4.8-12.4,6.9c-0.2,0.2-0.5,0.2-0.7,0l-3.5-3.5
		c-0.2-0.2-0.2-0.5,0-0.7c0.2-0.3,5.5-6.4,9.3-7.9c3.5-1.4,11.3-2.6,12.4-2.8c2.1-1.6,27.4-21.1,31.2-23.2c2.5-1.5,4.9-0.8,6.1,0.5
		c0.8,0.7,0.9,1.9,0.4,2.8c-1.1,1.6-6.2,5.8-7,6.4l-2.4,5.3c0,0.1-0.1,0.2-0.2,0.2c-10.1,6.6-21.1,14.4-21.4,16
		c-0.2,0.9-0.4,2.2-0.6,3.7c-0.4,2.9-0.9,5.9-1.7,8.7C283.5,259.5,278.5,267,275.5,267z M270.8,262.5c1,1.3,3.2,3.5,4.7,3.5l0,0
		c1.9,0,6.8-6.4,7.9-9.3c0.8-2.8,1.3-5.7,1.7-8.5c0.2-1.5,0.4-2.9,0.6-3.7c0.5-2.6,17.9-14.1,21.7-16.6l2.4-5.2
		c0-0.1,0.1-0.1,0.1-0.2c0.1,0,5.8-4.7,6.9-6.3c0.3-0.5,0.2-1.2-0.3-1.5c-0.9-1-2.8-1.5-4.8-0.3c-3.8,2.1-30.9,23-31.1,23.2
		c-0.1,0.1-0.1,0.1-0.2,0.1c-0.1,0-8.7,1.4-12.4,2.8c-3.1,1.2-7.4,5.9-8.6,7.2l2.9,2.9c1.9-1.5,9.7-7.3,12.8-6.8
		c3.4,0.6,6,5.4,5.9,9.1C281,256.2,273.1,261.2,270.8,262.5L270.8,262.5z"></path><path class="st1" d="M310.3,249.2c0.6-1.2,0.6-2.7-0.1-3.9c-3.2-5.2-3.7-8.5-1-13.3c3-5.3,2.8-8.2,1.1-9.2l-9.8,8.5
		c0,0-0.1-9-2.3-10.4s-5.3,1.2-5.4,3.8c0,0-4.9-1.9-6.1,2.2c-2.6-0.2-4.8,1.8-5,4.3c0,0-3.8,1.1-3.1,6.3s8.5,9.3,8.5,9.3
		s-2.3,3-0.7,4.7s8.4,4.7,8.4,4.7s1.3,4.5,5.5,2.7C303.7,257.6,308.5,252.8,310.3,249.2z"></path><path class="st0" d="M298.5,260c-0.6,0-1.1-0.1-1.6-0.4c-1.1-0.6-2-1.7-2.4-2.9c-1.2-0.5-6.8-3.1-8.4-4.8s-0.3-3.9,0.3-4.9
		c-1.8-1-7.7-4.7-8.3-9.4s2.2-6.4,3.1-6.8c0.3-2.6,2.5-4.5,5.1-4.5c0.3-0.9,1-1.7,1.9-2.2c1.3-0.5,2.8-0.6,4.1-0.2
		c0.4-1.5,1.4-2.8,2.8-3.5c1-0.6,2.3-0.6,3.3,0c1.9,1.2,2.4,7.2,2.5,9.8l9-7.8c0.2-0.1,0.4-0.1,0.6,0c1.3,0.8,2.9,3.2-0.9,9.9
		c-2.5,4.4-2.2,7.4,1,12.8c0.8,1.3,0.9,3,0.2,4.3l0,0c-1.9,3.5-6.7,8.5-10.2,10C299.9,259.9,299.2,260,298.5,260z M286.5,227.4
		c-2.3-0.1-4.2,1.6-4.3,3.9c0,0.2-0.2,0.4-0.4,0.4c-0.1,0-3.4,1.1-2.8,5.8c0.6,4.9,8.2,8.9,8.2,8.9c0.1,0.1,0.2,0.2,0.3,0.3
		c0,0.1,0,0.3-0.1,0.4c0,0-2,2.7-0.7,4.1c1.5,1.7,8.2,4.6,8.2,4.6c0.1,0.1,0.2,0.2,0.3,0.3c0.3,1.1,1,1.9,2,2.5
		c0.9,0.4,2,0.3,2.8-0.1c3.3-1.4,8-6.3,9.7-9.6l0,0c0.5-1.1,0.5-2.3-0.1-3.4c-3-5-4-8.5-1-13.8c2.3-4.1,2.9-7.1,1.5-8.4l-9.5,8.2
		c-0.1,0.1-0.4,0.2-0.5,0.1c-0.2-0.1-0.3-0.3-0.3-0.4c0-3.4-0.6-9.1-2.1-10c-0.7-0.4-1.6-0.4-2.3,0.1c-1.3,0.7-2.1,1.9-2.3,3.3
		c0,0.2-0.1,0.3-0.2,0.4c-0.1,0.1-0.3,0.1-0.5,0c-1.3-0.5-2.7-0.5-3.9-0.1c-0.7,0.4-1.3,1.1-1.5,1.9c-0.1,0.2-0.3,0.4-0.5,0.4
		L286.5,227.4z M310.3,249.3L310.3,249.3z"></path><path class="st0" d="M297.1,240c-0.9,0-1.8-0.5-2.3-1.2c-2.5-3.2-2.5-13.6-2.5-14c0-0.3,0.2-0.5,0.5-0.5c0,0,0,0,0,0
		c0.3,0,0.5,0.2,0.5,0.4c0,0,0,0,0,0.1c0,0.1,0,10.5,2.3,13.4c0.5,0.8,1.5,1.1,2.3,0.7c1.6-0.8,2.9-3.7,2.1-7.4
		c-0.1-0.3,0.1-0.5,0.4-0.6c0.3-0.1,0.5,0.1,0.6,0.4c0,0,0,0,0,0c0.9,4.3-0.7,7.6-2.7,8.5C297.9,239.9,297.5,240,297.1,240z"></path><path class="st0" d="M293.2,242.4c-0.4,0-0.7-0.1-1.1-0.3c-2.5-1.6-5.4-7.7-5.9-15.2c0-0.3,0.2-0.5,0.5-0.5s0.5,0.2,0.5,0.5
		c0.5,7.5,3.5,13.2,5.4,14.4c0.2,0.2,0.5,0.2,0.8,0.1c0.7-0.3,1.1-2,1.3-3c0-0.3,0.3-0.5,0.6-0.4s0.5,0.3,0.4,0.6
		c0,0.3-0.4,3.1-1.8,3.8C293.6,242.4,293.4,242.5,293.2,242.4z"></path><path class="st0" d="M289.2,243.7c-1.1-0.1-2.1-0.6-2.9-1.4c-3-2.8-5.1-10.6-5.1-11c-0.1-0.3,0.1-0.5,0.4-0.6c0,0,0,0,0,0
		c0.3-0.1,0.5,0.1,0.6,0.4c0,0.1,2,7.9,4.9,10.5c0.7,0.6,1.7,1.3,2.5,1.1s1.4-1.4,1.5-1.9c0.1-0.3,0.4-0.4,0.6-0.3c0,0,0,0,0,0
		c0.3,0.1,0.4,0.4,0.3,0.6c0,0,0,0,0,0c-0.3,1.1-1.1,2.1-2.2,2.5C289.6,243.7,289.4,243.7,289.2,243.7z"></path><path class="st0" d="M287.4,247.4c-0.1,0-0.3,0-0.4,0c-0.3-0.1-0.5-0.3-0.4-0.6s0.3-0.5,0.6-0.4l0,0c0.2,0.1,0.5,0,0.6-0.1
		c0.6-0.5,0.8-2.1,0.8-3c0-0.3,0.2-0.5,0.5-0.5c0,0,0,0,0,0c0.3,0,0.5,0.2,0.5,0.5c0,0.3,0.1,2.8-1.1,3.8
		C288.2,247.3,287.8,247.4,287.4,247.4z"></path><path class="st2" d="M275.8,244.2h-6.6c-0.8,0-1.6,0.5-2,1.2l-3.3,5.7c-0.4,0.7-0.4,1.6,0,2.3l3.3,5.7c0.4,0.7,1.2,1.2,2,1.2h6.6
		c0.8,0,1.6-0.5,2-1.2l3.3-5.7c0.4-0.7,0.4-1.6,0-2.3l-3.3-5.7C277.3,244.6,276.6,244.2,275.8,244.2z"></path><path class="st0" d="M275.8,260.7h-6.6c-1,0-1.9-0.5-2.5-1.4l-3.3-5.7c-0.5-0.9-0.5-1.9,0-2.8l3.3-5.7c0.5-0.9,1.4-1.4,2.5-1.4h6.6
		c1,0,1.9,0.5,2.4,1.4l3.3,5.7c0.5,0.9,0.5,1.9,0,2.8l-3.3,5.7C277.7,260.1,276.8,260.7,275.8,260.7z M269.2,244.7
		c-0.7,0-1.3,0.4-1.6,0.9l-3.3,5.7c-0.3,0.6-0.3,1.3,0,1.8l3.3,5.7c0.3,0.6,0.9,0.9,1.6,0.9h6.6c0.7,0,1.3-0.4,1.6-0.9l3.3-5.7
		c0.3-0.6,0.3-1.3,0-1.8l-3.3-5.7c-0.3-0.6-0.9-0.9-1.6-0.9L269.2,244.7z"></path><path class="st1" d="M235.9,290.7c-0.8,3.1-8.5,7.1-10.2,10.2c-1.3,2.6-2.3,5.3-3.2,8c0,0-3.8,3.9-12.1,3.3s-7.4-2.8-7.4-2.8
		s1.2-8.1,1.6-11.9s-0.9-14.8,2.2-18.1c1.6-1.6,2.5-1.5,3-0.8c0.9-4.1,3.6-4.7,5-4.7c1-2,2.3-3.1,4-2.3c0.2-0.5,0.4-0.9,0.8-1.3
		c2-2,4.4,0.4,4.4,0.4c-2,5.1-1.7,19.5-1,20.5s7.7-1.7,9.1-3.7S236.7,287.6,235.9,290.7z"></path><path class="st0" d="M212.2,312.8c-0.6,0-1.2,0-1.8-0.1c-4.3-0.3-6.9-1.1-7.6-2.4c-0.2-0.3-0.3-0.7-0.2-1.1
		c0.1-0.6,1.2-8.2,1.6-11.8c0.1-1,0.1-2.5,0.1-4.3c-0.1-5.1-0.2-11.5,2.3-14c0.6-0.8,1.5-1.3,2.5-1.4c0.2,0,0.4,0,0.6,0.1
		c1.1-3.6,3.6-4.2,5-4.3c1.4-2.6,3-2.8,4-2.5c0.2-0.4,0.4-0.7,0.6-1c0.5-0.6,1.3-1,2.1-1l0,0c1.1,0.1,2.1,0.6,2.9,1.3
		c0.1,0.1,0.2,0.3,0.1,0.5c-2,5.1-1.6,19.1-1,20.1c0.8,0.5,7-1.8,8.3-3.7c0.6-1,1.9-1.3,2.9-0.8c1.6,0.8,2.3,2.6,1.8,4.3l0,0
		c-0.5,1.8-2.9,3.7-5.4,5.8c-2,1.6-4.1,3.2-4.8,4.6c-1.2,2.6-2.3,5.2-3.1,7.9c0,0.1-0.1,0.2-0.1,0.2
		C222.7,309.5,219.4,312.8,212.2,312.8z M203.5,309.6c0,0.1,0.1,0.2,0.1,0.3c0.3,0.4,1.6,1.4,6.8,1.8c7.3,0.6,11.1-2.5,11.7-3.1
		c0.9-2.7,1.9-5.4,3.2-8c0.8-1.6,2.9-3.2,5.1-4.9s4.7-3.7,5.1-5.2c0.4-1.2-0.1-2.5-1.2-3.1c-0.6-0.3-1.3-0.1-1.7,0.5
		c-1.3,1.9-6.6,4.1-8.7,4.1c-0.5,0.1-0.9-0.1-1.2-0.4c-1-1.2-1.1-15.3,0.8-20.7c-0.6-0.5-1.3-0.8-2-0.8l0,0c-0.5,0-1.1,0.3-1.4,0.7
		c-0.3,0.3-0.5,0.7-0.6,1.1c-0.1,0.1-0.2,0.2-0.3,0.3c-0.1,0.1-0.3,0.1-0.4,0c-0.5-0.2-1.9-0.9-3.3,2.1c-0.1,0.2-0.3,0.3-0.4,0.3
		c-1.4,0-3.7,0.6-4.5,4.3c0,0.2-0.2,0.3-0.4,0.4c-0.2,0-0.4,0-0.5-0.2c-0.1-0.2-0.3-0.3-0.5-0.3l0,0c-0.3,0-0.8,0.1-1.8,1.1
		c-2.2,2.3-2.1,8.7-2,13.3c0,1.8,0,3.4-0.1,4.5c-0.4,3.8-1.6,11.8-1.6,11.9C203.5,309.5,203.5,309.6,203.5,309.6L203.5,309.6z
		 M235.9,290.7L235.9,290.7z"></path><path class="st0" d="M215.7,288.5L215.7,288.5c-0.3,0-0.5-0.3-0.5-0.6l0.2-1.8c0.6-4.6,1.6-11.5,3-14.6c0.1-0.3,0.4-0.4,0.6-0.3
		s0.4,0.4,0.3,0.6c0,0,0,0.1,0,0.1c-1.3,3-2.3,9.9-2.9,14.4l-0.2,1.8C216.2,288.3,215.9,288.5,215.7,288.5z"></path><path class="st0" d="M211.7,289.7L211.7,289.7c-0.3,0-0.5-0.3-0.5-0.6c0,0,0,0,0,0c0,0,0.6-4.8,1.5-9.6c0.3-2,0.9-3.9,1.7-5.7
		c0.1-0.2,0.4-0.3,0.7-0.2c0.2,0.1,0.4,0.4,0.2,0.7c0,0,0,0,0,0c-0.8,1.7-1.3,3.6-1.6,5.5c-0.9,4.8-1.5,9.6-1.5,9.6
		C212.2,289.5,212,289.7,211.7,289.7z"></path><path class="st0" d="M208.2,289.7L208.2,289.7c-0.3,0-0.5-0.3-0.5-0.5c0,0,0.5-4.8,1.7-10.5v-0.1c0.1-0.3,0.4-0.4,0.6-0.4
		s0.4,0.4,0.4,0.6v0.1c-1.2,5.6-1.6,10.3-1.6,10.4C208.7,289.5,208.4,289.7,208.2,289.7z"></path><path class="st0" d="M240.8,278.7c-0.2,0-0.4-0.2-0.5-0.4c-2.7-11.5-11-11.4-11.4-11.3c-0.3,0-0.5-0.2-0.5-0.5
		c0-0.3,0.2-0.5,0.5-0.5c0,0,0,0,0,0c0.1,0,9.5-0.2,12.4,12.1c0.1,0.3-0.1,0.5-0.4,0.6L240.8,278.7z"></path><path class="st2" d="M294.8,256.3c0,0-5.6,7.5,0,13.3s35.1,34,37.9,37.8s5.7,21.8,2.6,28.8s-30,21.8-46.6,23.9s-50.6-8.8-59.8-16.6
		c0,0-4.2-10.4-4-18.5s1.7-18-3.5-18.4s-19.8-3.3-22.7,3s-6.2,35.5-2.1,49.9s31.4,30,39.9,34.1s16.1,8.3,16.1,8.3l4,47.7
		c0,0,97.6,4.9,140.6-36.3l-24-46.9c0,0,15.1-31.8-0.5-61s-53.4-56.6-56.8-59.3s-9.7,0-9.7,0L294.8,256.3z"></path><path class="st0" d="M252.9,398.1c-0.3,0-0.5-0.2-0.5-0.5c-0.1-8.8,0.4-17.7,1.6-26.4c0-0.3,0.3-0.5,0.6-0.4c0.3,0,0.5,0.3,0.4,0.6
		c0,0,0,0,0,0c-1.1,8.7-1.7,17.5-1.6,26.3C253.4,397.9,253.2,398.1,252.9,398.1C252.9,398.1,252.9,398.1,252.9,398.1L252.9,398.1z"></path><path class="st0" d="M368.6,362.5c-0.1,0-0.2,0-0.3-0.1c-0.1-0.1-15.6-13.7-24.2-19.8c-0.2-0.2-0.3-0.5-0.1-0.7
		c0.2-0.2,0.5-0.3,0.7-0.1c0,0,0,0,0,0c8.7,6.2,24.2,19.8,24.3,19.9c0.2,0.2,0.2,0.5,0,0.7C368.9,362.5,368.8,362.5,368.6,362.5z"></path></g></svg>