<svg transform="scale(1)" version="1.1" id="_x30_017_x5F_career_x5F_4" xmlns="http://www.w3.org/2000/svg" xmlns:xlink="http://www.w3.org/1999/xlink" x="0px" y="0px" viewBox="0 0 500 500" xml:space="preserve" class="show_show__wrapper__graphic__5Waiy "><title>React</title><style type="text/css">
	.st0{fill:#FFFFFF;}
	.st1{fill:#732A09;}
	.st2{fill:#F75454;}
</style><g id="stairs"><path class="st0" d="M421.4,162.9v238.4c0,7.8-6.3,14.1-14.1,14.1c0,0,0,0,0,0H298.1v-0.1H76.9v-35.9c12-4.8,23.5-10.9,34.2-18.1
		h9.4v-29.6c14.6-5.6,35.9-20.2,35.9-20.2h16.3v-28.6c17.2-7.8,34.7-20.8,34.7-20.8h13.1v-23.7c0,0,15-4.9,33.5-16.4h19.2v-21.5
		c0,0,17.1-9.1,25.1-19v-18.6c4.6-3.4,9.1-7.1,13.2-11.1h97.3C408.8,151.8,420.6,156.6,421.4,162.9z"></path><g id="stairs-2"><path class="st1" d="M421.4,163.4H298.3c-0.3,0-0.5-0.2-0.5-0.5c0-0.2,0.1-0.3,0.2-0.4c4.6-3.4,9-7.1,13.1-11.1
			c0.1-0.1,0.2-0.1,0.4-0.1h97.3c0.1,0,0.1,0,0.2,0c0.5,0.2,12.1,5,12.9,11.5c0,0.1,0,0.3-0.1,0.4
			C421.7,163.3,421.6,163.4,421.4,163.4z M299.8,162.4h121c-1.3-5.4-11.1-9.7-12.1-10.1h-97C308,155.9,304,159.3,299.8,162.4z"></path><path class="st1" d="M408.2,201h-135c-0.3,0-0.5-0.2-0.5-0.5c0-0.2,0.1-0.4,0.3-0.4c0.2-0.1,17.1-9.2,25-18.9
			c0.1-0.1,0.2-0.2,0.4-0.2h123c0.1,0,0.3,0.1,0.4,0.2c0.1,0.1,0.1,0.3,0.1,0.4c-0.1,0.4-1.7,8.8-13.4,19.3
			C408.4,201,408.3,201,408.2,201z M275.1,200H408c9.6-8.6,12.2-15.9,12.8-18H298.5C292,190,279.6,197.4,275.1,200z M421.4,182
			L421.4,182z"></path><path class="st1" d="M421.4,181.9H298.3c-0.3,0-0.5-0.2-0.5-0.5v-18.5c0-0.3,0.2-0.5,0.5-0.5h123.1c0.3,0,0.5,0.2,0.5,0.5v18.5
			C421.9,181.7,421.7,181.9,421.4,181.9z M298.8,180.9h122.1v-17.5H298.8V180.9z"></path><path class="st1" d="M408.2,222.5h-135c-0.3,0-0.5-0.2-0.5-0.5v-21.5c0-0.3,0.2-0.5,0.5-0.5h135c0.3,0,0.5,0.2,0.5,0.5V222
			C408.7,222.3,408.5,222.5,408.2,222.5z M273.7,221.5h134V201h-134V221.5z"></path><path class="st1" d="M383.1,238.9H220.5c-0.2,0-0.5-0.2-0.5-0.4c0-0.2,0.1-0.5,0.3-0.6c11.7-4.2,22.9-9.7,33.4-16.3
			c0.1-0.1,0.2-0.1,0.3-0.1h19.2c0.3,0,0.5,0.2,0.5,0.5s-0.2,0.5-0.5,0.5h-19.1c-9.8,6.1-20.1,11.2-30.8,15.4h159.7
			c0.3,0,0.5,0.2,0.5,0.5S383.4,238.9,383.1,238.9z"></path><path class="st1" d="M172.7,283.4c-0.3,0-0.5-0.2-0.5-0.5c0-0.2,0.1-0.4,0.3-0.4c17-7.7,34.4-20.6,34.6-20.8
			c0.1-0.1,0.2-0.1,0.3-0.1h175.7c0.3,0,0.5,0.2,0.5,0.5s-0.2,0.5-0.5,0.5H207.6c-1.7,1.2-18.4,13.4-34.6,20.8
			C172.8,283.4,172.8,283.4,172.7,283.4z"></path><path class="st1" d="M220.5,262.6c-0.3,0-0.5-0.2-0.5-0.5v-23.7c0-0.3,0.2-0.5,0.5-0.5s0.5,0.2,0.5,0.5v23.7
			C221,262.4,220.8,262.6,220.5,262.6z"></path><path class="st1" d="M172.7,312c-0.3,0-0.5-0.2-0.5-0.5v-28.6c0-0.3,0.2-0.5,0.5-0.5h180.7c0.3,0,0.5,0.2,0.5,0.5
			s-0.2,0.5-0.5,0.5H173.2v28.1C173.2,311.8,173,312,172.7,312z"></path><path class="st1" d="M120.5,361.8c-0.3,0-0.5-0.2-0.5-0.5v-29.6c0-0.3,0.2-0.5,0.5-0.5h205.6c0.3,0,0.5,0.2,0.5,0.5
			s-0.2,0.5-0.5,0.5H121v29.1C121,361.6,120.8,361.8,120.5,361.8z"></path><path class="st1" d="M326.1,361.9L326.1,361.9l-205.6-0.1c-0.3,0-0.5-0.2-0.5-0.5v-29.6c0-0.2,0.1-0.4,0.3-0.5
			c14.4-5.5,35.6-20,35.8-20.1c0.1-0.1,0.2-0.1,0.3-0.1l0,0l197,0.1c0.3,0,0.5,0.2,0.5,0.5c0,0.1,0,0.2-0.1,0.3
			c-9.5,12.4-24.8,19.2-27.2,20.2v29.3C326.6,361.7,326.4,361.9,326.1,361.9L326.1,361.9z M121,360.8l204.6,0.1v-29.1
			c0-0.2,0.1-0.4,0.3-0.5c0.2-0.1,16.4-6.6,26.5-19.2L156.6,312c-1.8,1.2-21.6,14.6-35.6,20V360.8z"></path><path class="st1" d="M76.9,379.9c-0.3,0.1-0.5-0.1-0.6-0.4s0.1-0.5,0.4-0.6c12-4.8,23.4-10.9,34.1-18c0.1-0.1,0.2-0.1,0.3-0.1h215
			c0.3,0,0.5,0.2,0.5,0.5s-0.2,0.5-0.5,0.5H111.3c-10.7,7.2-22.2,13.2-34.2,18.1C77,379.9,77,379.9,76.9,379.9z"></path><path class="st1" d="M407.3,415.9H298.1c-0.3,0-0.5-0.2-0.5-0.5v-35.9c0-0.2,0.2-0.5,0.4-0.5c14.4-3.7,26.3-16.3,27.6-17.8v-29.4
			c0-0.2,0.1-0.4,0.3-0.5c17.1-7.2,26-18.6,27-19.9v-28.5c0-0.2,0.1-0.4,0.3-0.5c17.9-8.9,28.2-19.2,29.4-20.5v-23.5
			c0-0.2,0.1-0.4,0.3-0.4c15.3-8.1,23.6-15.1,24.8-16.2v-21.3c0-0.1,0.1-0.3,0.2-0.4c11.4-10.2,13-18.6,13-18.7
			c0-0.3,0.3-0.4,0.5-0.4c0.3,0,0.5,0.2,0.5,0.5v219.8C421.9,409.4,415.4,415.9,407.3,415.9z M298.6,414.9h108.7
			c7.5,0,13.6-6.1,13.6-13.6V184.7c-1.4,3.4-4.7,9.3-12.2,16.1V222c0,0.1-0.1,0.3-0.2,0.4c-0.1,0.1-8.5,7.6-24.9,16.3v23.4
			c0,0.1,0,0.2-0.1,0.3c-0.1,0.1-10.5,11.3-29.6,20.8v28.4c0,0.1,0,0.2-0.1,0.3c-0.1,0.1-9,12.5-27.2,20.2v29.3c0,0.1,0,0.2-0.1,0.3
			c-0.1,0.1-12.6,14-27.9,18.1V414.9z"></path><path class="st1" d="M298.1,415.8H76.9c-0.3,0-0.5-0.2-0.5-0.5v-35.9c0-0.3,0.2-0.5,0.5-0.5h221.2c0.3,0,0.5,0.2,0.5,0.5v35.9
			C298.6,415.6,298.4,415.8,298.1,415.8z M77.4,414.8h220.2v-34.9H77.4L77.4,414.8z"></path></g></g><g id="character"><rect class="st0" x="157.5" y="267.3" width="55.3" height="31"></rect><path class="st0" d="M153.8,293.8c2.3,9.7,11.3,12.5,17.9,12.4l11-1.4l5-14.1"></path><path class="st1" d="M171.4,306.7c-7.4,0-15.8-3.4-18.1-12.8c-0.1-0.3,0.1-0.5,0.4-0.6c0.3-0.1,0.5,0.1,0.6,0.4
		c2.1,9,10.4,12.2,17.4,12l10.6-1.4l4.9-13.8c0.1-0.3,0.4-0.4,0.6-0.3c0.3,0.1,0.4,0.4,0.3,0.6c0,0,0,0,0,0l-5,14.1
		c-0.1,0.2-0.2,0.3-0.4,0.3l-11,1.4L171.4,306.7z"></path><path class="st0" d="M242.3,153.9c3.6-3.9,4.3-10.5,4.3-12.5s3-3.1,3.9,1.7c0,0,8.3-10.7,11.2-13.3s5.2-1.4-1.6,8.2
		c0,0,7.2-6.9,9.3-7.9s2.5,2.9-6.4,11.1c0,0,10-7,11.9-7s-1.5,4.4-5.5,7l-3.9,2.6c0,0,6.3-2.4,8.7-2.6s-1.7,3.7-5.7,5
		s-5.3,6.4-10.3,8.3c-3,1.1-5.4,3.4-6.7,6.4L242.3,153.9z"></path><path class="st1" d="M251.5,161.4c-0.1,0-0.2,0-0.3-0.1l-9.2-7c-0.1-0.1-0.2-0.2-0.2-0.4c0-0.1,0-0.3,0.1-0.4
		c3.4-3.7,4.2-10,4.2-12.2c0-1.1,0.8-2,1.8-2.2c0.5-0.1,2,0,2.8,2.7c2-2.6,8.2-10.3,10.6-12.5c1.4-1.2,2.6-1.6,3.3-1
		c0.9,0.8,0.3,2.9-1.8,6.3c2.2-2,5.1-4.5,6.3-5.1c0.6-0.4,1.3-0.3,1.7,0.3c0.8,1.1-0.3,3.9-3.9,8c3-2,6.7-4.2,7.9-4.2
		c0.4,0,0.9,0.2,1,0.7c0.4,1.5-3.1,5.2-6.3,7.2l-0.6,0.4c1.6-0.6,3.3-1,5-1.3c1-0.1,1.1,0.4,1.2,0.7c0.3,1.4-3.7,4.3-6.7,5.3
		c-1.8,0.6-3,2-4.4,3.6c-1.5,2.1-3.6,3.7-5.9,4.7c-2.9,1.1-5.2,3.3-6.4,6.1c-0.1,0.1-0.2,0.3-0.3,0.3L251.5,161.4z M243,153.8
		l8.3,6.3c1.4-2.8,3.8-5,6.7-6.1c2.5-0.9,4-2.7,5.5-4.4s2.8-3.2,4.8-3.9c3-0.9,5.6-3.2,6-4h-0.1c-2.3,0.2-8.5,2.5-8.6,2.6
		c-0.3,0.1-0.6-0.1-0.6-0.3c-0.1-0.2,0-0.4,0.2-0.5l3.9-2.6c3.6-2.3,5.9-5.4,5.9-6.1c0,0,0,0-0.1,0c-1.3,0-7.8,4.2-11.6,6.9
		c-0.2,0.2-0.5,0.1-0.7-0.1c-0.2-0.2-0.1-0.5,0-0.7c7.3-6.7,7.7-9.9,7.4-10.3c0-0.1-0.2-0.1-0.5,0.1c-1.6,0.8-6.7,5.4-9.2,7.8
		c-0.2,0.2-0.5,0.2-0.7,0.1c-0.2-0.2-0.2-0.5-0.1-0.7c5.1-7.2,4.3-8.5,4.3-8.5s-0.8,0-2,1c-2.8,2.5-11,13.1-11.1,13.2
		c-0.1,0.2-0.3,0.2-0.5,0.2c-0.2-0.1-0.3-0.2-0.4-0.4c-0.4-2.3-1.3-3-2-2.9c-0.6,0.1-1,0.6-0.9,1.2
		C247.1,143.6,246.4,149.9,243,153.8z"></path><path class="st2" d="M92,292.9c0,0,4.5,11,13.8,6s43.6-51.7,43.6-51.7l1.1,41.6c0,1.3,1.1,2.3,2.4,2.3c0,0,0,0,0.1,0
		c10-0.7,48-4.7,58.6-21.9c0.4-0.6,0.5-1.3,0.5-2c-0.1-15.4-1.6-30.8-4.4-46c0,0,19.6-18,32.5-35.8s15-22.3,11.2-26.8
		s-10.1-11-17.9-1s-15.9,21.6-28.8,30.4s-23.5,9.8-34.9,14.6s-17.3,6.3-32.6,23.6s-29.6,34.3-41.4,43.7l-6.5,5.7
		c-0.5,0.5-0.9,1.1-1,1.8C88,279.7,87.8,285.1,92,292.9z"></path><path class="st0" d="M98.8,276.3c0,0-8.7,8.3-15.2,12s-11.2,4.9-16.9,12.9c-3.1,2.9-6.8,5.1-10.7,6.7c-7.1,3-4.7,7.6,9,1.7
		c0,0-12.1,5.6-11.1,8.9s13.4-5.4,13.4-5.4s-12.2,10.1-8.8,12.2s17-12.1,17-12.1s-9.3,15.2-6.2,17s15.8-17.8,15.8-17.8l4.6-5.2
		c0,0,1.1,9.9,5.9,8s0.8-16.6,1.7-19.7s7.8-8.4,7.8-8.4S102.9,278.2,98.8,276.3z"></path><path class="st1" d="M69.7,330.8c-0.2,0-0.4,0-0.6-0.2c-0.4-0.2-0.7-0.6-0.8-1.1c-0.7-2.6,2.6-9.1,4.8-13.2
		c-4.4,4.3-12.1,11.1-14.9,9.4c-0.5-0.3-0.8-0.8-0.8-1.4c-0.1-1.9,2.6-5.1,5.2-7.6c-3,1.8-6.6,3.5-8.2,2.9c-0.5-0.1-0.9-0.5-1-1
		c-0.6-2,2.4-4.4,5.5-6.3c-3.2,0.9-5.6,0.9-6.7,0.1c-0.4-0.3-0.7-0.8-0.6-1.4c0.2-1.2,1.7-2.5,4.2-3.6c3.9-1.5,7.4-3.8,10.5-6.6
		c4.6-6.5,8.5-8.5,13.5-11.1c1.1-0.6,2.3-1.2,3.6-1.9c6.4-3.6,15-11.8,15.1-11.9c0.1-0.1,0.4-0.2,0.6-0.1c4.3,2,6.5,10.8,6.6,11.1
		c0,0.2,0,0.4-0.2,0.5c-0.1,0-6.8,5.2-7.6,8.1c-0.3,0.9,0,3.3,0.2,5.8c0.6,5.7,1.3,12.8-2.2,14.2c-1,0.4-2.1,0.4-3-0.2
		c-2.2-1.3-3.1-5.2-3.5-7.2l-3.9,4.4C82.7,317.1,73.5,330.8,69.7,330.8z M75.5,312.7c0.1,0,0.2,0,0.3,0.1c0.2,0.2,0.3,0.4,0.1,0.7
		c-2.1,3.4-7.4,13-6.7,15.8c0,0.2,0.1,0.4,0.3,0.5c1.6,1,9.2-8.4,15.1-17.6l4.7-5.3c0.1-0.1,0.3-0.2,0.5-0.1
		c0.2,0.1,0.3,0.2,0.3,0.4c0,0.1,0.7,6,3.1,7.5c0.6,0.4,1.4,0.4,2.1,0.1c2.9-1.1,2.1-8.1,1.6-13.2c-0.3-2.8-0.5-5.1-0.2-6.2
		c0.8-2.9,6.4-7.4,7.7-8.5c-0.4-1.5-2.4-8.2-5.6-10c-1.5,1.4-9.2,8.5-15,11.8c-1.3,0.7-2.4,1.3-3.6,1.9c-4.8,2.5-8.6,4.5-13.2,10.8
		c-3.2,3-6.9,5.3-10.9,6.9c-2.4,1-3.5,2.1-3.6,2.8c0,0.2,0.1,0.3,0.2,0.4c0.9,0.6,4.3,0.9,12-2.4c0.3-0.1,0.5,0,0.7,0.3
		c0.1,0.2,0,0.5-0.2,0.6c0,0,0,0,0,0c-4.5,2.1-11.5,6.2-10.8,8.3c0,0.2,0.2,0.3,0.3,0.3c1.8,0.6,8.5-3.4,12.3-6
		c0.2-0.2,0.5-0.1,0.7,0.1c0.2,0.2,0.1,0.5-0.1,0.7c-2.6,2.2-9.4,8.4-9.2,10.8c0,0.2,0.1,0.5,0.4,0.6c2.2,1.4,11.2-6.6,16.4-12
		C75.3,312.8,75.4,312.7,75.5,312.7z"></path><path class="st1" d="M89.6,307.6c-0.1,0-0.1,0-0.2,0c-0.3-0.1-8.6-3.5-9.3-8.7c0-0.3,0.2-0.5,0.4-0.6c0.3,0,0.5,0.2,0.6,0.4
		c0.7,4.6,8.6,7.9,8.7,7.9c0.3,0.1,0.4,0.4,0.3,0.6c0,0,0,0,0,0C90,307.5,89.8,307.6,89.6,307.6z"></path><path class="st1" d="M67.2,313.5c-0.3,0-0.5-0.2-0.5-0.5c0-0.2,0.1-0.3,0.2-0.4l4.1-3c0.2-0.2,0.5-0.1,0.7,0.1c0,0,0,0,0,0
		c0.2,0.2,0.1,0.5-0.1,0.7c0,0,0,0,0,0l-4.1,3C67.4,313.5,67.3,313.5,67.2,313.5z"></path><path class="st1" d="M64.9,310c-0.3,0-0.5-0.2-0.5-0.5c0-0.2,0.1-0.3,0.2-0.4l3.8-2.4c0.2-0.2,0.5-0.1,0.7,0.1
		c0.2,0.2,0.1,0.5-0.1,0.7c0,0,0,0,0,0l-3.8,2.4C65.1,310,65,310,64.9,310z"></path><path class="st1" d="M102.8,298.9c-0.3,0-0.5-0.2-0.5-0.5s0.2-0.5,0.5-0.5c0.5-0.1,1-0.4,1.2-0.9c1.3-1.9,1.5-6.1,0.5-9.9
		c-0.1-0.3,0.1-0.6,0.4-0.6s0.6,0.1,0.6,0.4c1.1,4.1,0.8,8.6-0.7,10.7C104.4,298.3,103.7,298.8,102.8,298.9L102.8,298.9z"></path><path class="st1" d="M90.9,276.8c-0.1,0-0.2,0-0.3-0.1c-0.2-0.2-0.2-0.5,0-0.7c3.6-3.9,8.5-0.1,8.6,0c0.2,0.2,0.3,0.5,0.1,0.7
		c0,0,0,0,0,0c-0.2,0.2-0.5,0.3-0.7,0.1c-0.2-0.1-4.3-3.3-7.2,0C91.2,276.8,91,276.8,90.9,276.8z"></path><path class="st1" d="M149,245.2c-0.3,0-0.5-0.2-0.5-0.5c-0.7-16.6-1.4-22.4-1.4-22.5c0-0.3,0.2-0.5,0.4-0.6s0.5,0.2,0.6,0.4
		c0,0.1,0.7,5.9,1.4,22.5C149.5,245,149.3,245.2,149,245.2C149,245.2,149,245.2,149,245.2L149,245.2z"></path><path class="st1" d="M196.3,233.9c-0.1,0-0.1,0-0.2,0c-0.3-0.1-0.4-0.4-0.3-0.6c0,0,0,0,0,0c0.1-0.2,2.3-5.7,9.6-11.4
		c0.2-0.2,0.5-0.1,0.7,0.1c0.1,0.2,0.1,0.5-0.1,0.6c-7,5.5-9.2,10.9-9.2,11C196.7,233.8,196.5,233.9,196.3,233.9z"></path><path class="st1" d="M201.3,237.3c-0.2,0-0.4-0.2-0.5-0.4c-0.9-3.6-0.9-7.3-0.1-10.9c0.1-0.3,0.4-0.4,0.6-0.4s0.4,0.4,0.4,0.6
		c-0.8,3.4-0.7,7,0.1,10.4c0.1,0.3-0.1,0.5-0.4,0.6c0,0,0,0,0,0L201.3,237.3z"></path><path class="st0" d="M164.6,198.8c-10.9,0.4-16.2-10.9-18.6-13s-7-8.4-0.8-12.4c0,0-3.3-6.3-1.1-10.6s6.4-3.9,7.7-6.4
		s3.3-7.2,11-5.5c3.2-2.4,7.5-2.8,11.1-1c6.2,3.1,3.5,11.9,0.4,14.1l1.6,23.5l-4.9,11.3H164.6z"></path><path class="st1" d="M164,199.3c-8.5,0-13.4-6.7-16.4-10.8c-0.6-0.8-1.2-1.6-1.9-2.4c-1.6-1.4-4.3-4.8-4.1-8.2
		c0.2-2,1.3-3.7,2.9-4.8c-0.7-1.5-2.9-6.8-0.9-10.7c1.1-2,2.9-3.6,5-4.4c1.1-0.4,2-1.1,2.7-2l0.2-0.4c1.3-2.5,3.6-7,11.1-5.5
		c3.3-2.4,7.8-2.8,11.4-0.9c2.4,1.1,3.9,3.5,4,6.1c0.3,3.6-1.5,7.2-3.3,8.7l1.6,23.2c0,0.1,0,0.2,0,0.2l-4.9,11.3
		c-0.1,0.2-0.3,0.3-0.5,0.3L164,199.3L164,199.3z M159.8,151c-4.6,0-6.2,3.1-7.3,5.2l-0.2,0.4c-0.7,1.1-1.8,2-3.1,2.4
		c-2,0.7-3.6,2.2-4.6,4c-2.1,4,1.1,10.1,1.1,10.1c0.1,0.2,0,0.5-0.2,0.6c-1.6,0.9-2.7,2.5-2.9,4.2c-0.2,3.1,2.3,6.1,3.7,7.4
		c0.7,0.8,1.4,1.6,2,2.5c3,4,7.9,10.7,16.2,10.4h6.1l4.7-10.9l-1.5-23.4c0-0.2,0.1-0.3,0.2-0.4c1.7-1.2,3.4-4.7,3.1-8
		c-0.1-2.3-1.4-4.3-3.4-5.3c-3.4-1.8-7.5-1.4-10.6,0.9c-0.1,0.1-0.3,0.1-0.4,0.1C161.7,151.1,160.7,151,159.8,151z"></path><path class="st0" d="M174.4,161.2c3.5,5.4,4,9.7,5.2,10.4s2-1.1,3.3,0s0,3.9-2.2,3.9c0,0,4.6,16.9-5.1,18.6l2.3,8.9l-1.4,1.1
		c-3.2,2.5-7.2,3.7-11.3,3.4l0,0l-0.4-8.7c2.8-0.6,5-2.7,5.9-5.4c1.6-4.7,0.7-10.7,0.7-10.7s-3.7,3.1-5.4-0.1s1.1-6.8,3.8-4.9
		c0.2-1.3,0.2-2.7,0.2-4c-0.1-1.2,2.2-2.2,1.7-4.7c-0.1-1.2-0.5-2.3-1.2-3.3C172.2,164.6,173.6,163,174.4,161.2z"></path><path class="st1" d="M166.4,208c-0.4,0-0.8,0-1.2,0c-0.3,0-0.5-0.2-0.5-0.5l-0.4-8.7c0-0.3,0.2-0.5,0.4-0.5
		c2.6-0.6,4.7-2.5,5.5-5.1c0.9-3.1,1.1-6.4,0.8-9.6c-1,0.7-2.2,1-3.4,0.9c-0.9-0.2-1.7-0.8-2.1-1.7c-1-1.8-0.7-4,0.8-5.4
		c0.8-0.8,2-1,3.1-0.5c0.1-1,0.1-2.1,0.1-3.2c0-0.7,0.3-1.3,0.8-1.8c0.8-0.8,1.1-1.8,0.9-2.9c-0.1-1.1-0.5-2.1-1.1-3
		c-0.1-0.1-0.1-0.3-0.1-0.4c0-0.1,0.1-0.3,0.2-0.4c1.6-1,2.9-2.5,3.7-4.2c0.1-0.2,0.2-0.3,0.4-0.3c0.2,0,0.4,0.1,0.5,0.2
		c1.5,2.4,2.8,5,3.7,7.6c0.3,1,0.7,1.8,1.3,2.6c0.3,0.2,0.6,0.1,1-0.1c0.7-0.5,1.7-0.4,2.3,0.2c0.7,0.7,0.9,1.7,0.5,2.6
		c-0.4,1.1-1.3,1.9-2.4,2.1c0.5,2.3,2.2,10.7-0.8,15.4c-1,1.6-2.5,2.7-4.3,3.1l2.2,8.4c0.1,0.2,0,0.4-0.2,0.5l-1.4,1.1
		C173.8,206.8,170.1,208,166.4,208z M165.7,207c3.8,0.2,7.5-1,10.5-3.3l1.1-0.9l-2.2-8.6c0-0.1,0-0.3,0.1-0.4
		c0.1-0.1,0.2-0.2,0.3-0.2c1.7-0.3,3.3-1.3,4.2-2.8c3.2-5.1,0.6-15.1,0.5-15.2c0-0.1,0-0.3,0.1-0.4c0.1-0.1,0.2-0.2,0.4-0.2
		c1,0,1.8-0.6,2.1-1.6c0.3-0.5,0.2-1.1-0.2-1.5c-0.4-0.4-0.7-0.3-1.3,0c-0.6,0.4-1.4,0.4-2,0.1c-0.7-0.4-1.1-1.4-1.7-3.1
		c-0.8-2.3-1.9-4.5-3.1-6.7c-0.8,1.4-1.9,2.6-3.3,3.6c0.5,1,0.9,2,1,3.1c0.2,1.3-0.2,2.7-1.1,3.6c-0.3,0.4-0.6,0.8-0.6,1.1
		c0,1.4,0,2.7-0.2,4.1c0,0.3-0.3,0.5-0.5,0.5c-0.1,0-0.2,0-0.2-0.1c-0.7-0.6-1.8-0.6-2.5,0.1c-1.1,1.1-1.3,2.8-0.5,4.2
		c0.3,0.6,0.8,1,1.4,1.1c1.2,0.2,2.8-0.8,3.3-1.2c0.1-0.1,0.3-0.2,0.5-0.1c0.2,0.1,0.3,0.2,0.3,0.4c0,0.2,0.9,6.2-0.7,10.9
		c-0.9,2.7-3.1,4.9-5.9,5.6L165.7,207z"></path><path class="st1" d="M172.9,167.3c0.6-2.2,2.7-3.7,5-3.5c0.3,0,0.5,0.3,0.5,0.6c0,0.2-0.1,0.3-0.3,0.4c-1.6,0.7-3.1,1.7-4.3,3
		C173.5,168.1,172.7,167.8,172.9,167.3z"></path><path class="st1" d="M177,169.8c0.1,0.8-0.2,1.5-0.8,1.6s-1.1-0.5-1.3-1.3v-0.7l1.1,0.4l-0.7-1.1c0.1-0.1,0.2-0.2,0.4-0.2
		C176.4,168.5,177,169.1,177,169.8z"></path><path class="st1" d="M180.9,185.9L180.9,185.9c-1.4-0.1-4.1-0.8-5.2-2.4c-0.5-0.7-0.7-1.6-0.5-2.4c0.1-0.7,0.5-1.2,1.1-1.6
		c1.7-0.9,4.5,0.3,4.8,0.4c0.3,0.1,0.4,0.4,0.3,0.7c-0.1,0.3-0.4,0.4-0.7,0.3c-0.7-0.3-2.9-1-4-0.4c-0.3,0.2-0.6,0.5-0.6,0.9
		c-0.1,0.6,0,1.1,0.3,1.6c0.9,1.3,3.3,1.9,4.4,2c0.3,0,0.5,0.2,0.5,0.5S181.2,185.9,180.9,185.9L180.9,185.9z"></path><path class="st2" d="M235.4,268.4l1.1,9.4c0.1,1.1,0.9,1.9,2,2.1l2.5,0.5c5,0.9,10.3,0.2,14.8-2.2l16.2-8.4c3.1-2.1,4-6.2,2.2-9.5
		l0,0c-1.3-2.4-3.9-3.9-6.7-3.8l-9.1,0.3c-0.9,0-1.7,0.6-2,1.5c-1.1,3-5.1,9.6-19.2,8.4c-0.9-0.1-1.7,0.4-1.8,1.3
		C235.4,268.1,235.4,268.3,235.4,268.4z"></path><path class="st1" d="M244.8,278.4c-2.2,0-4.5-0.4-6.6-1.1c-0.2-0.1-0.4-0.4-0.3-0.6c0,0,0,0,0,0c0.1-0.3,0.4-0.4,0.6-0.3
		c3.3,1.1,6.9,1.3,10.3,0.6c5.7-1.3,24.8-11.8,25-12c0.2-0.1,0.5,0,0.7,0.2c0.1,0.2,0,0.5-0.2,0.7l0,0c-0.8,0.4-19.4,10.8-25.2,12
		C247.7,278.2,246.3,278.3,244.8,278.4z"></path><path class="st1" d="M245,278.4c-0.2,0-0.5-0.2-0.5-0.4c-0.2-1.4-1.3-5.3-3-5.3c-0.3,0-0.6,0.1-0.8,0.3c-0.8,0.9-0.7,3.3-0.5,4.1
		c0,0.3-0.2,0.5-0.4,0.6c-0.3,0-0.5-0.2-0.6-0.4c-0.1-0.4-0.4-3.5,0.8-4.9c0.4-0.4,0.9-0.7,1.5-0.7c2.8,0,3.9,5.5,4,6.1
		c0.1,0.3-0.1,0.5-0.4,0.6c0,0,0,0,0,0L245,278.4z"></path><path class="st1" d="M261.5,260.3c-0.2,0-0.4-0.1-0.5-0.3l-2.1-5.6c-0.1-0.3,0-0.6,0.3-0.6c0.3-0.1,0.6,0,0.6,0.3l2.1,5.6
		c0.1,0.3,0,0.5-0.3,0.6C261.6,260.3,261.6,260.3,261.5,260.3z"></path><path class="st1" d="M264.8,259.9c-0.2,0-0.4-0.1-0.5-0.3l-2.1-5.7c-0.1-0.3,0-0.5,0.3-0.6c0.3-0.1,0.5,0,0.6,0.3c0,0,0,0,0,0
		l2.1,5.7c0.1,0.3,0,0.5-0.3,0.6C264.9,259.9,264.9,259.9,264.8,259.9z"></path><path class="st0" d="M211.7,239c14.3-24,23.7-22.6,29.5-21.1c4.9,1.3,11.5,24.7,13.5,32c0.4,1.4,0.1,2.9-0.8,4l-1.7,2.2
		c-3.6,4.7-9.3,7.3-15.2,6.8l0,0c-2.1-0.2-3.8-1.8-4.2-3.8l-1.6-10.1l-17.7,36.9"></path><path class="st1" d="M213.5,286.4c-0.1,0-0.1,0-0.2,0c-0.2-0.1-0.3-0.4-0.2-0.7l17.7-36.9c0.1-0.2,0.3-0.3,0.5-0.3
		c0.2,0,0.4,0.2,0.4,0.4l1.6,10.1c0.4,1.8,1.9,3.2,3.8,3.4c5.7,0.5,11.3-2,14.8-6.6l1.7-2.2c0.8-1,1.1-2.3,0.7-3.6
		c-5.3-19.3-10.1-30.8-13.1-31.7c-7.4-1.9-16.1-0.7-28.9,20.9c-0.1,0.2-0.5,0.3-0.7,0.2s-0.3-0.5-0.2-0.7
		c13.2-22.2,22.2-23.3,30.1-21.3c4.4,1.2,10,18.2,13.9,32.4c0.4,1.5,0.1,3.2-0.9,4.4l-1.7,2.2c-3.7,4.9-9.6,7.5-15.6,7
		c-2.3-0.2-4.2-1.9-4.6-4.2l-1.3-8.6l-17,35.5C213.9,286.3,213.7,286.4,213.5,286.4z"></path><path class="st0" d="M212.3,276c7.1,49.7,4.3,81.7-25.5,106.3c-0.9,0.8-2,1.4-3.2,1.8c-5.9,2.2-24.3,6.9-40-13.5
		c-19-24.5-15.6-33.5-11.7-35.8s37.8-19,50.3-43.3"></path><path class="st1" d="M171.9,386.7c-8.4,0-19-3.2-28.7-15.8c-13.7-17.7-15.5-27-14.6-31.8c0.3-2,1.4-3.7,3.1-4.8
		c0.4-0.2,1-0.5,1.8-1c24.6-13.4,40.8-27.5,48.3-42.1c0.1-0.2,0.4-0.3,0.6-0.2c0,0,0,0,0,0c0.2,0.1,0.3,0.4,0.2,0.7c0,0,0,0,0,0
		c-7.6,14.7-24,29-48.7,42.5c-0.8,0.5-1.4,0.8-1.8,1c-1.4,0.9-2.4,2.4-2.6,4.1c-0.9,4.5,0.9,13.5,14.5,31
		c15.1,19.7,32.6,15.9,39.4,13.3c1.1-0.4,2.2-0.9,3.1-1.7c30.3-25,32.2-57.7,25.3-105.9c0-0.3,0.2-0.5,0.4-0.6
		c0.3,0,0.5,0.2,0.6,0.4c6.9,48.5,5,81.5-25.7,106.8c-1,0.9-2.1,1.5-3.4,1.9C180,386,176,386.7,171.9,386.7z"></path><path class="st2" d="M128.1,347c-5.7,4.2-17.3,11.7-24.4,16.2c-4.1,2.6-6.6,7.1-6.6,11.9c-0.1,9.7,1.4,27.4,11.4,50.8
		c10.2,23.8,21.5,35.5,28,40.7c3.2,2.6,7.4,3.6,11.5,2.8c9.2-1.8,26-7,28.6-21.3c3-16.5-4-54.5-6.4-66.4c-0.5-2.2-2-4.1-4.1-5
		c-7.7-3.3-26.8-12.9-33.2-28.4c-0.7-1.6-2.6-2.3-4.3-1.6C128.5,346.8,128.3,346.9,128.1,347z"></path><path class="st1" d="M141.6,466.1c-0.1,0-0.2,0-0.2-0.1c-0.2-0.1-0.3-0.4-0.2-0.7c0,0,0,0,0,0c0-0.1,4.7-9.5-0.5-29.2
		c-5-18.8-22.9-57.8-35.1-64c-1.4-0.9-3.2-1.1-4.8-0.5c-0.3,0.1-0.6,0-0.7-0.3c-0.1-0.3,0-0.6,0.3-0.6l0,0c1.9-0.6,3.9-0.4,5.6,0.6
		c7.8,4,16.5,19.4,21,28.2c6.2,12.2,12.1,26.8,14.7,36.4c5.4,20.2,0.7,29.6,0.5,30C142,466,141.8,466.1,141.6,466.1z"></path><path class="st1" d="M150.4,465.5c-0.1,0-0.3-0.1-0.4-0.1c-0.2-0.2-0.2-0.5,0-0.7c0,0,0,0,0,0c0.1-0.1,9.2-10.5-9.8-52.7
		c-18.9-42-25.6-44.2-32.6-46.6l-0.6-0.2c-0.2-0.1-0.4-0.4-0.2-0.7c0.1-0.2,0.3-0.3,0.6-0.3l0.6,0.2c7.3,2.5,14.2,4.8,33.2,47.2
		c19.4,43.1,10,53.4,9.6,53.9C150.7,465.4,150.5,465.5,150.4,465.5z"></path><path class="st1" d="M125.6,382.2c-0.2,0-0.3-0.1-0.4-0.2c-0.2-0.2-0.1-0.5,0.1-0.7c4.1-2.9,6.5-8.6,6-14.2
		c-0.5-5.7-4.1-10.7-9.3-13c-0.2-0.1-0.3-0.5-0.2-0.7c0.1-0.2,0.4-0.3,0.6-0.2c5.6,2.4,9.4,7.8,10,13.8c0.5,6-2.1,12.1-6.4,15.1
		C125.8,382.2,125.7,382.2,125.6,382.2z"></path><path class="st1" d="M188.3,399.9c-0.1,0-0.2,0-0.2-0.1L164.2,387c-0.2-0.1-0.3-0.4-0.2-0.7c0.1-0.2,0.4-0.3,0.7-0.2l23.9,12.8
		c0.2,0.1,0.3,0.4,0.2,0.7c0,0,0,0,0,0C188.7,399.8,188.5,399.9,188.3,399.9z"></path><path class="st1" d="M185.6,411.2c-0.1,0-0.2,0-0.2-0.1l-23.8-12.8c-0.2-0.1-0.3-0.4-0.2-0.7c0.1-0.2,0.4-0.3,0.7-0.2l23.8,12.8
		c0.2,0.1,0.3,0.4,0.2,0.7c0,0,0,0,0,0C186,411.1,185.8,411.2,185.6,411.2z"></path><path class="st1" d="M181.5,380.3c-0.2,0-0.5-0.2-0.5-0.4c-1.9-12.8-8-29.5-25.6-36.9c-6.5-2.7-13.5-3.8-20.5-3.3
		c-0.3,0-0.5-0.2-0.6-0.4s0.2-0.5,0.4-0.6c0.4,0,40.4-4.1,47.2,41C182,380,181.9,380.2,181.5,380.3
		C181.6,380.3,181.6,380.3,181.5,380.3L181.5,380.3z"></path><path class="st1" d="M231.3,249.5c-0.1,0-0.2,0-0.2-0.1c-0.2-0.1-0.3-0.4-0.2-0.7c0,0,0,0,0,0l7.1-13.5c0.2-0.2,0.5-0.3,0.7-0.1
		c0.2,0.1,0.3,0.4,0.2,0.6l-7.1,13.5C231.7,249.4,231.5,249.5,231.3,249.5z"></path></g><g id="chairs"><rect class="st0" x="354.6" y="117.3" width="4.2" height="27.3"></rect><path class="st1" d="M359.3,145.1h-5.2v-28.3h5.2V145.1z M355.1,144.1h3.2v-26.3h-3.2V144.1z"></path><path class="st0" d="M363.8,109.2c0.1,2.8-0.5,5.6-1.7,8.2h-29.3c0,0-4.3-1.4-4.3-4.8c-0.1-1.9,1.4-3.5,3.3-3.6l13.9,0.1
		L363.8,109.2z"></path><path class="st1" d="M362.4,117.9h-29.8c-0.2-0.1-4.6-1.6-4.6-5.3c-0.1-2.2,1.6-4,3.8-4.1l32.5,0.2v0.5c0.1,2.9-0.5,5.8-1.7,8.4
		L362.4,117.9z M332.9,116.9h28.9c1-2.3,1.5-4.7,1.5-7.2l-31.5-0.2c-1.6,0.1-2.9,1.5-2.8,3.1C329,115.4,332.4,116.7,332.9,116.9z"></path><path class="st0" d="M384.8,109.3c-0.4,2.1-1,4.2-1.9,6.1c-0.6,1.2-1.8,1.9-3.1,1.9H362c1.2-2.6,1.8-5.4,1.7-8.2L384.8,109.3z"></path><path class="st1" d="M379.8,117.8h-18.6l0.3-0.7c1.2-2.5,1.7-5.2,1.7-8v-0.5l22.2,0.2l-0.1,0.6c-0.4,2.2-1,4.3-1.9,6.2
		C382.7,117,381.3,117.8,379.8,117.8z M362.8,116.8h17c1.1,0,2.1-0.6,2.6-1.6c0.8-1.7,1.4-3.5,1.8-5.4l-20-0.2
		C364.2,112.1,363.7,114.5,362.8,116.8L362.8,116.8z"></path><path class="st2" d="M350.1,86.3l-4.4,22.8l-13.9-0.1c0,0,0.4-14.6,4-18.8C338.3,87.2,343.3,86.4,350.1,86.3z"></path><path class="st1" d="M345.7,109.6L345.7,109.6l-13.9-0.1c-0.1,0-0.3-0.1-0.4-0.2c-0.1-0.1-0.1-0.2-0.1-0.4c0-0.6,0.5-14.8,4.1-19.1
		c2.9-3.4,8.7-4,14.7-4.1l0,0c0.1,0,0.3,0.1,0.4,0.2c0.1,0.1,0.1,0.3,0.1,0.4l-4.4,22.8C346.1,109.4,345.9,109.6,345.7,109.6z
		 M332.3,108.5l13,0.1l4.2-21.8c-7.4,0.2-11.3,1.2-13.3,3.7C333.1,94.1,332.4,105.9,332.3,108.5z"></path><path class="st2" d="M381.5,56.8c-1.3,1.3-2.1,3-2.5,4.8c-1.8,7.3-4.1,18.9-5.4,26c-1.3,0.4-2.6,0.9-3.8,1.6
		c-5.4,3.1-6,12.4-6,16.7v3.2l-18.1-0.1l4.4-22.8l3.7-18.9c1.2-6.1,6.5-10.5,12.7-10.5L381.5,56.8z"></path><path class="st1" d="M363.8,109.6L363.8,109.6l-18.1-0.1c-0.1,0-0.3-0.1-0.4-0.2c-0.1-0.1-0.1-0.3-0.1-0.4l4.4-22.8l3.7-18.9
		c1.2-6.3,6.8-10.9,13.2-10.9h15c0.2,0,0.4,0.1,0.5,0.3c0.1,0.2,0,0.4-0.1,0.5c-1.2,1.3-2,2.9-2.4,4.6c-2,7.9-4.3,20-5.4,26
		c0,0.2-0.2,0.3-0.4,0.4c-1.3,0.4-2.5,0.9-3.7,1.6c-5,2.9-5.7,11.4-5.7,16.3v3.2C364.3,109.4,364.1,109.6,363.8,109.6L363.8,109.6z
		 M346.3,108.5l17,0.1v-2.7c0-5.1,0.8-14,6.2-17.1c1.1-0.6,2.4-1.2,3.6-1.6c1.1-6,3.4-17.9,5.4-25.7c0.3-1.5,1-2.9,1.9-4.2h-13.9
		c-6,0-11.1,4.3-12.2,10.1l-3.7,18.9L346.3,108.5z"></path><path class="st0" d="M394.4,55l-5.5,31.3c-5.9-0.2-11.2,0.1-15.3,1.3c1.4-7.1,3.7-18.7,5.4-26c0.4-1.8,1.3-3.4,2.5-4.8
		C386.1,52.1,394.4,55,394.4,55z"></path><path class="st1" d="M373,88.3l0.2-0.8c1.2-6,3.6-18.4,5.4-26c0.4-1.9,1.3-3.6,2.6-5c4.8-4.9,13.1-2,13.4-1.9l0.4,0.1l-5.6,32.1
		h-0.4c-6.5-0.2-11.4,0.2-15.1,1.3L373,88.3z M388.9,54.6c-2.6-0.1-5.1,0.8-7,2.5c-1.2,1.3-2,2.9-2.4,4.6c-1.7,7.3-4,19-5.2,25.2
		c4.7-1,9.5-1.4,14.2-1.1l5.4-30.4C392.2,54.9,390.5,54.6,388.9,54.6L388.9,54.6z"></path><path class="st0" d="M388.9,86.3l-4.1,23l-21.1-0.1V106c0-4.3,0.6-13.7,6-16.7c1.2-0.7,2.5-1.2,3.8-1.6
		C378.5,86.4,383.7,85.9,388.9,86.3z"></path><path class="st1" d="M385.2,109.8l-22-0.1V106c0-5.1,0.8-14.1,6.3-17.1c1.2-0.7,2.5-1.2,3.9-1.6c4.1-1.3,9.3-1.7,15.6-1.4h0.6
		L385.2,109.8z M364.2,108.7l20.2,0.1l3.9-22c-4.9-0.4-9.9,0.1-14.7,1.4c-1.3,0.4-2.5,0.9-3.7,1.6c-5.2,2.9-5.7,12.3-5.7,16.3V108.7
		z"></path><path class="st2" d="M342.7,152.5c-0.7,1.9,0.2,4,2.1,4.7c0,0,0,0,0.1,0c7.7,2.3,16,2.3,23.7-0.1c1.9-0.7,2.9-2.7,2.2-4.6
		c0,0,0,0,0-0.1c-1.4-3.8-5.1-9.4-14-9.4C347.7,143.1,344.1,148.7,342.7,152.5z"></path><path class="st1" d="M356.5,159.4c-4,0.1-8-0.5-11.8-1.7c-1-0.3-1.9-1-2.3-2c-0.5-1-0.6-2.2-0.2-3.3l0,0c1.3-3.6,5-9.7,14.6-9.8
		s13.1,6.1,14.5,9.7c0.4,1.1,0.3,2.3-0.2,3.3c-0.5,1-1.3,1.7-2.3,2.1C364.8,158.9,360.7,159.5,356.5,159.4z M356.8,143.5
		c-8.5,0.1-12.1,5-13.6,9.2l0,0c-0.3,0.8-0.2,1.7,0.1,2.5c0.3,0.7,1,1.3,1.7,1.5c3.7,1.2,7.6,1.7,11.5,1.7c4,0.1,8.1-0.5,11.9-1.8
		c0.8-0.2,1.4-0.8,1.8-1.5c0.4-0.8,0.4-1.7,0.1-2.5C369.1,149.2,365.7,143.5,356.8,143.5z M342.7,152.5L342.7,152.5z"></path></g></svg>