<svg transform="scale(1)" version="1.1" id="_x30_241_x5F_Data_x5F_Cloud_x5F_2" xmlns="http://www.w3.org/2000/svg" xmlns:xlink="http://www.w3.org/1999/xlink" x="0px" y="0px" viewBox="0 0 500 500" xml:space="preserve" class="show_show__wrapper__graphic__5Waiy "><title>React</title><style type="text/css">
	.st0{fill:#FFFFFF;}
	.st1{fill:#732A09;}
	.st2{fill:#F75454;}
</style><g id="server-storage-1"><polygon class="st0" points="290.9,165.5 316.6,160.6 370.6,191.9 360.9,321.3 283.6,316.8 	"></polygon><path class="st1" d="M360.9,321.8L360.9,321.8l-77.4-4.5c-0.3,0-0.5-0.3-0.5-0.5c0,0,0,0,0,0l7.4-151.3c0-0.2,0.2-0.4,0.4-0.5
		l25.7-5c0.1,0,0.2,0,0.4,0.1l54,31.4c0.2,0.1,0.3,0.3,0.2,0.5l-9.7,129.4C361.4,321.6,361.2,321.8,360.9,321.8
		C360.9,321.8,360.9,321.8,360.9,321.8z M284.1,316.3l76.4,4.5l9.7-128.6l-53.6-31.1l-25.1,4.9L284.1,316.3z"></path><path class="st2" d="M316.6,160.6c-0.2,2.8-6.8,157.8-6.8,157.8l-26.2-1.5l7.4-151.3L316.6,160.6z"></path><path class="st1" d="M309.8,318.8L309.8,318.8l-26.2-1.5c-0.3,0-0.5-0.3-0.5-0.5c0,0,0,0,0,0l7.4-151.3c0-0.2,0.2-0.4,0.4-0.5
		l25.7-5c0.2,0,0.3,0,0.4,0.1c0.1,0.1,0.2,0.3,0.2,0.4c-0.2,2.7-6.8,156.2-6.8,157.8c0,0.1-0.1,0.3-0.2,0.4
		C310,318.8,309.9,318.8,309.8,318.8z M284.1,316.3l25.2,1.5c0.5-11,6.2-145.8,6.8-156.6l-24.6,4.8L284.1,316.3z"></path><polygon class="st0" points="361.4,245.7 321.3,238.6 322.9,211.5 363.5,222 	"></polygon><path class="st1" d="M361.4,246.2L361.4,246.2l-40.1-7c-0.2,0-0.4-0.3-0.4-0.5l1.5-27.1c0-0.1,0.1-0.3,0.2-0.4
		c0.1-0.1,0.2-0.1,0.4-0.1l40.6,10.5c0.2,0.1,0.4,0.3,0.4,0.5l-2.2,23.7c0,0.1-0.1,0.3-0.2,0.4C361.6,246.1,361.5,246.1,361.4,246.2
		z M321.9,238.2l39.1,6.9l2.1-22.7l-39.6-10.2L321.9,238.2z"></path><path class="st2" d="M356.5,233.8l-27-5c-0.7-0.1-1.2-0.7-1.2-1.4v-0.6c0-0.8,0.7-1.4,1.5-1.3c0.1,0,0.1,0,0.2,0l27,5.6
		c0.7,0.1,1.2,0.8,1.1,1.5l0,0c-0.1,0.8-0.7,1.3-1.5,1.3C356.6,233.8,356.5,233.8,356.5,233.8z"></path><path class="st1" d="M356.8,234.3c-0.1,0-0.2,0-0.4,0l-27-5c-1-0.2-1.6-1-1.6-2v-0.6c0-0.6,0.3-1.1,0.7-1.4c0.4-0.3,1-0.5,1.6-0.4
		l27,5.5c1,0.2,1.6,1.1,1.5,2.1c0,0.5-0.3,1-0.8,1.3C357.6,234.1,357.2,234.3,356.8,234.3z M329.8,225.9c-0.2,0-0.4,0.1-0.6,0.2
		c-0.2,0.2-0.3,0.4-0.4,0.7v0.6c0,0.5,0.3,0.9,0.8,0.9l27,5l0,0c0.3,0,0.5,0,0.7-0.2c0.4-0.3,0.5-0.9,0.2-1.3
		c-0.1-0.2-0.3-0.3-0.5-0.3l-27-5.5L329.8,225.9z"></path><path class="st1" d="M353.4,219.4l-2,1.6c-0.8,0.6-1.8,0.9-2.8,0.7l-7-1.4c-0.9-0.2-1.8-0.7-2.3-1.6l-2.1-3.5L353.4,219.4z"></path><path class="st1" d="M349.3,222.2c-0.3,0-0.5,0-0.8-0.1l-7-1.4c-1.1-0.2-2-0.8-2.5-1.7l-2.1-3.5c-0.1-0.2-0.1-0.4,0-0.6
		c0.1-0.2,0.3-0.2,0.5-0.2l16.2,4.2c0.2,0.1,0.3,0.2,0.4,0.4c0,0.2,0,0.4-0.2,0.5l-2,1.6C351,221.9,350.2,222.2,349.3,222.2z
		 M338.4,216l1.5,2.4c0.4,0.7,1.1,1.2,1.9,1.3l7,1.4c0.8,0.2,1.7,0,2.4-0.6l1.2-1L338.4,216z"></path><path class="st1" d="M353.4,219.4l-2,1.6c-0.8,0.6-1.8,0.9-2.8,0.7l-7-1.4c-0.9-0.2-1.8-0.7-2.3-1.6l-2.1-3.5L353.4,219.4z"></path><path class="st1" d="M349.3,222.2c-0.3,0-0.5,0-0.8-0.1l-7-1.4c-1.1-0.2-2-0.8-2.5-1.7l-2.1-3.5c-0.1-0.2-0.1-0.4,0-0.6
		c0.1-0.2,0.3-0.2,0.5-0.2l16.2,4.2c0.2,0.1,0.3,0.2,0.4,0.4c0,0.2,0,0.4-0.2,0.5l-2,1.6C351,221.9,350.2,222.2,349.3,222.2z
		 M338.4,216l1.5,2.4c0.4,0.7,1.1,1.2,1.9,1.3l7,1.4c0.8,0.2,1.7,0,2.4-0.6l1.2-1L338.4,216z"></path><polygon class="st0" points="358.6,275.5 318.9,272.8 320.4,245.5 360.8,251.6 	"></polygon><path class="st1" d="M358.6,276L358.6,276l-39.7-2.7c-0.3,0-0.5-0.3-0.5-0.5l1.5-27.3c0-0.1,0.1-0.3,0.2-0.4
		c0.1-0.1,0.3-0.1,0.4-0.1l40.3,6.1c0.3,0,0.5,0.3,0.4,0.5l-2.1,23.9C359.1,275.8,358.9,276,358.6,276z M319.4,272.3l38.8,2.7
		l2.1-23l-39.3-6L319.4,272.3z"></path><path class="st2" d="M353.8,264.2l-26.8-2.1c-0.7,0-1.2-0.6-1.2-1.3c0,0,0,0,0,0v-0.6c0-0.9,0.8-1.5,1.7-1.5c0,0,0,0,0,0l26.8,2.6
		c0.7,0.1,1.2,0.7,1.1,1.3c0,0,0,0,0,0l0,0C355.4,263.6,354.6,264.2,353.8,264.2z"></path><path class="st1" d="M353.9,264.7h-0.1l-26.8-2.1c-1-0.1-1.7-0.9-1.6-1.9v-0.6c0-0.6,0.3-1.1,0.7-1.5c0.4-0.4,1-0.5,1.5-0.5
		l26.8,2.6c1,0.1,1.7,0.9,1.6,1.9c0,0,0,0,0,0C355.8,263.8,354.9,264.6,353.9,264.7z M327.4,259.2c-0.2,0-0.5,0.1-0.7,0.3
		c-0.2,0.2-0.4,0.5-0.4,0.8v0.6c0,0.4,0.3,0.8,0.7,0.8c0,0,0,0,0,0l26.8,2.1l0,0c0.6,0,1.1-0.4,1.1-1c0.1-0.4-0.2-0.8-0.6-0.9
		c0,0,0,0,0,0l-26.8-2.6L327.4,259.2z"></path><path class="st1" d="M350.7,250.1l-2,1.8c-0.7,0.7-1.7,1.1-2.8,1l-6.9-0.6c-0.9-0.1-1.7-0.6-2.2-1.3l-2.1-3.3L350.7,250.1z"></path><path class="st1" d="M346.3,253.4h-0.3l-6.9-0.6c-1.1-0.1-2-0.7-2.6-1.6l-2.1-3.3c-0.1-0.2-0.1-0.5,0.2-0.7
		c0.1-0.1,0.2-0.1,0.3-0.1l16,2.4c0.3,0.1,0.5,0.3,0.4,0.6c0,0.1-0.1,0.2-0.1,0.3l-2,1.8C348.3,253,347.3,253.4,346.3,253.4z
		 M335.7,248.3l1.5,2.3c0.4,0.6,1.1,1,1.9,1.1l6.9,0.6c0.9,0.1,1.7-0.2,2.4-0.8l1.2-1.1L335.7,248.3z"></path><path class="st1" d="M350.7,250.1l-2,1.8c-0.7,0.7-1.7,1.1-2.8,1l-6.9-0.6c-0.9-0.1-1.7-0.6-2.2-1.3l-2.1-3.3L350.7,250.1z"></path><path class="st1" d="M346.3,253.4h-0.3l-6.9-0.6c-1.1-0.1-2-0.7-2.6-1.6l-2.1-3.3c-0.1-0.2-0.1-0.5,0.2-0.7
		c0.1-0.1,0.2-0.1,0.3-0.1l16,2.4c0.3,0.1,0.5,0.3,0.4,0.6c0,0.1-0.1,0.2-0.1,0.3l-2,1.8C348.3,253,347.3,253.4,346.3,253.4z
		 M335.7,248.3l1.5,2.3c0.4,0.6,1.1,1,1.9,1.1l6.9,0.6c0.9,0.1,1.7-0.2,2.4-0.8l1.2-1.1L335.7,248.3z"></path><polygon class="st0" points="355.5,305.3 317.7,305.5 319.1,278.1 357.5,281.2 	"></polygon><path class="st1" d="M317.7,306c-0.1,0-0.3-0.1-0.4-0.1c-0.1-0.1-0.1-0.2-0.1-0.4l1.5-27.4c0-0.1,0.1-0.3,0.2-0.4
		c0.1-0.1,0.2-0.1,0.4-0.1l38.4,3.2c0.1,0,0.3,0.1,0.3,0.2c0.1,0.1,0.1,0.2,0.1,0.4l-2,24.1c0,0.3-0.2,0.5-0.5,0.5L317.7,306
		L317.7,306z M355.5,305.3L355.5,305.3z M319.6,278.6l-1.4,26.4l36.8-0.2l2-23.1L319.6,278.6z"></path><path class="st2" d="M350.9,294.3l-25.5-0.1c-0.6,0-1.1-0.5-1.1-1.1c0,0,0-0.1,0-0.1v-0.6c0-0.9,0.7-1.6,1.6-1.6l25.5,0.7
		c0.6,0,1.1,0.6,1.1,1.2c0,0,0,0.1,0,0.1l0,0C352.4,293.6,351.7,294.2,350.9,294.3z"></path><path class="st1" d="M350.9,294.8L350.9,294.8l-25.5-0.1c-0.4,0-0.8-0.2-1.1-0.5c-0.3-0.3-0.5-0.8-0.5-1.3v-0.6
		c0-1.2,1-2.1,2.1-2.1l25.5,0.7c0.4,0,0.8,0.2,1.1,0.5c0.3,0.4,0.5,0.9,0.4,1.3C352.9,293.9,352,294.7,350.9,294.8z M350.9,293.8
		L350.9,293.8c0.6-0.1,1-0.5,1.1-1.1c0-0.2,0-0.4-0.2-0.6c-0.1-0.1-0.3-0.2-0.4-0.2l-25.5-0.7c-0.5-0.1-1.1,0.5-1.1,1.1v0.6
		c0,0.2,0,0.4,0.2,0.5c0.1,0.1,0.3,0.2,0.4,0.2L350.9,293.8z"></path><path class="st1" d="M348,280.5l-1.9,2c-0.7,0.7-1.6,1.1-2.6,1.2l-6.6-0.1c-0.9,0-1.7-0.4-2.1-1.2l-2-3.1L348,280.5z"></path><path class="st1" d="M343.5,284.1L343.5,284.1l-6.6-0.1c-1,0-2-0.5-2.5-1.4l-2-3.1c-0.1-0.2-0.1-0.4,0-0.5c0.1-0.2,0.3-0.3,0.5-0.2
		L348,280c0.2,0,0.4,0.1,0.4,0.3c0.1,0.2,0,0.4-0.1,0.5l-1.9,2C345.6,283.6,344.6,284.1,343.5,284.1z M333.7,279.8l1.5,2.2
		c0.4,0.6,1,0.9,1.7,0.9l6.6,0.1c0.9,0,1.7-0.4,2.2-1l1.2-1.2L333.7,279.8z"></path><path class="st1" d="M348,280.5l-1.9,2c-0.7,0.7-1.6,1.1-2.6,1.2l-6.6-0.1c-0.9,0-1.7-0.4-2.1-1.2l-2-3.1L348,280.5z"></path><path class="st1" d="M343.5,284.1L343.5,284.1l-6.6-0.1c-1,0-2-0.5-2.5-1.4l-2-3.1c-0.1-0.2-0.1-0.4,0-0.5c0.1-0.2,0.3-0.3,0.5-0.2
		L348,280c0.2,0,0.4,0.1,0.4,0.3c0.1,0.2,0,0.4-0.1,0.5l-1.9,2C345.6,283.6,344.6,284.1,343.5,284.1z M333.7,279.8l1.5,2.2
		c0.4,0.6,1,0.9,1.7,0.9l6.6,0.1c0.9,0,1.7-0.4,2.2-1l1.2-1.2L333.7,279.8z"></path><polygon class="st0" points="383.7,216.8 348.1,202.1 349.5,175.3 385.6,193.5 	"></polygon><path class="st1" d="M383.7,217.3c-0.1,0-0.1,0-0.2,0l-35.6-14.7c-0.2-0.1-0.3-0.3-0.3-0.5l1.4-26.9c0-0.2,0.1-0.3,0.2-0.4
		c0.1-0.1,0.3-0.1,0.5,0l36.2,18.2c0.2,0.1,0.3,0.3,0.3,0.5l-1.9,23.3c0,0.2-0.1,0.3-0.2,0.4C383.9,217.3,383.8,217.3,383.7,217.3z
		 M348.6,201.8l34.7,14.3l1.8-22.2l-35.2-17.7L348.6,201.8z"></path><path class="st2" d="M379.4,204l-24-10.1c-0.6-0.3-1-1-1-1.7v-0.6c-0.1-0.5,0.3-1.1,0.8-1.1c0.2,0,0.5,0,0.7,0.1l24,10.7
		c0.7,0.3,1.1,1,1,1.7l0,0c0,0.6-0.4,1-0.9,1.1C379.8,204.2,379.6,204.1,379.4,204z"></path><path class="st1" d="M379.8,204.6c-0.2,0-0.4,0-0.6-0.1l0,0l-24-10.1c-0.8-0.4-1.4-1.2-1.3-2.1v-0.6c0-0.6,0.3-1.1,0.7-1.4
		c0.4-0.3,1-0.3,1.5-0.1l24,10.7c0.9,0.4,1.4,1.3,1.3,2.2c0,0.5-0.3,1-0.8,1.3C380.3,204.5,380.1,204.6,379.8,204.6z M379.6,203.5
		c0.2,0.1,0.4,0.1,0.5,0c0.2-0.1,0.3-0.3,0.3-0.5c0-0.5-0.2-1-0.7-1.2l-24-10.7c-0.2-0.1-0.4-0.1-0.5,0c-0.2,0.1-0.3,0.3-0.3,0.6
		v0.6c0,0.5,0.3,1,0.7,1.2L379.6,203.5L379.6,203.5z"></path><path class="st1" d="M376.7,189l-1.8,1.2c-0.7,0.5-1.7,0.5-2.5,0.1l-6.2-2.7c-0.9-0.4-1.6-1.1-2-2l-1.9-3.9L376.7,189z"></path><path class="st1" d="M373.5,191.1c-0.5,0-0.9-0.1-1.4-0.3l-6.2-2.7c-1-0.5-1.8-1.2-2.2-2.2l-1.9-3.9c-0.1-0.2-0.1-0.4,0.1-0.6
		c0.1-0.2,0.4-0.2,0.6-0.1l14.4,7.3c0.2,0.1,0.3,0.4,0.2,0.7c0,0.1-0.1,0.1-0.2,0.2l-1.8,1.2C374.7,190.9,374.1,191.1,373.5,191.1z
		 M363.4,182.9l1.3,2.6c0.4,0.8,1,1.4,1.8,1.8l6.2,2.7c0.6,0.3,1.4,0.3,2-0.1l1.1-0.7L363.4,182.9z"></path><path class="st1" d="M376.7,189l-1.8,1.2c-0.7,0.5-1.7,0.5-2.5,0.1l-6.2-2.7c-0.9-0.4-1.6-1.1-2-2l-1.9-3.9L376.7,189z"></path><path class="st1" d="M373.5,191.1c-0.5,0-0.9-0.1-1.4-0.3l-6.2-2.7c-1-0.5-1.8-1.2-2.2-2.2l-1.9-3.9c-0.1-0.2-0.1-0.4,0.1-0.6
		c0.1-0.2,0.4-0.2,0.6-0.1l14.4,7.3c0.2,0.1,0.3,0.4,0.2,0.7c0,0.1-0.1,0.1-0.2,0.2l-1.8,1.2C374.7,190.9,374.1,191.1,373.5,191.1z
		 M363.4,182.9l1.3,2.6c0.4,0.8,1,1.4,1.8,1.8l6.2,2.7c0.6,0.3,1.4,0.3,2-0.1l1.1-0.7L363.4,182.9z"></path><polygon class="st2" points="349.5,175.3 324.7,177.2 323.8,202.6 348.1,202.1 	"></polygon><path class="st1" d="M323.8,203.1c-0.3,0-0.5-0.2-0.5-0.5c0,0,0,0,0,0l0.9-25.3c0-0.3,0.2-0.5,0.5-0.5l24.8-2c0.1,0,0.3,0,0.4,0.1
		c0.1,0.1,0.2,0.2,0.2,0.4l-1.4,26.8c0,0.3-0.2,0.5-0.5,0.5L323.8,203.1L323.8,203.1z M325.2,177.7l-0.8,24.4l23.3-0.4l1.3-25.8
		L325.2,177.7z"></path><polygon class="st0" points="383.7,216.8 363.2,216.5 323.8,202.6 348.1,202.1 	"></polygon><path class="st1" d="M383.7,217.3L383.7,217.3l-20.5-0.3c-0.1,0-0.1,0-0.2,0l-39.3-13.9c-0.2-0.1-0.4-0.3-0.3-0.6
		c0-0.2,0.2-0.4,0.5-0.4l24.3-0.5h0.2l35.6,14.7c0.3,0.1,0.5,0.3,0.4,0.6S384,217.3,383.7,217.3L383.7,217.3z M363.3,216l17.8,0.2
		L348,202.6l-21.4,0.4L363.3,216z"></path></g><g id="server-storage-2"><polygon class="st0" points="186.5,164 160.8,159.1 106.8,190.4 116.5,319.8 193.9,315.3 	"></polygon><path class="st1" d="M116.5,320.3c-0.3,0-0.5-0.2-0.5-0.5l-9.7-129.4c0-0.2,0.1-0.4,0.2-0.5l54.1-31.4c0.1-0.1,0.2-0.1,0.4-0.1
		l25.7,5c0.2,0,0.4,0.2,0.4,0.5l7.4,151.3c0,0.3-0.2,0.5-0.5,0.5L116.5,320.3L116.5,320.3z M107.3,190.7l9.7,128.6l76.4-4.5
		L186,164.5l-25.1-4.9L107.3,190.7z"></path><path class="st2" d="M160.8,159.1c0.2,2.8,6.8,157.8,6.8,157.8l26.2-1.5L186.5,164L160.8,159.1z"></path><path class="st1" d="M167.6,317.3c-0.1,0-0.2,0-0.3-0.1c-0.1-0.1-0.2-0.2-0.2-0.4c-0.1-1.5-6.6-155-6.8-157.8
		c0-0.3,0.2-0.5,0.5-0.5c0,0,0.1,0,0.1,0l25.7,5c0.2,0,0.4,0.2,0.4,0.5l7.4,151.3c0,0.3-0.2,0.5-0.5,0.5L167.6,317.3L167.6,317.3z
		 M161.4,159.7c0.6,10.8,6.3,145.6,6.8,156.6l25.2-1.5L186,164.5L161.4,159.7z"></path><polygon class="st0" points="115.9,220.7 154.6,205.6 153.1,178.8 113.8,197.5 	"></polygon><path class="st1" d="M115.9,221.2c-0.3,0-0.5-0.2-0.5-0.4l-2.1-23.2c0-0.2,0.1-0.4,0.3-0.5l39.3-18.7c0.1-0.1,0.3-0.1,0.5,0
		c0.1,0.1,0.2,0.2,0.2,0.4l1.5,26.8c0,0.2-0.1,0.4-0.3,0.5l-38.7,15.1L115.9,221.2z M114.3,197.8l2,22.2l37.8-14.7l-1.4-25.7
		L114.3,197.8z"></path><path class="st2" d="M120.6,207.9l26.1-10.4c0.7-0.3,1.1-0.9,1.1-1.7v-0.6c0-0.6-0.5-1.1-1.1-1.1c-0.2,0-0.4,0-0.5,0.1l-26.1,11
		c-0.7,0.3-1.1,1-1.1,1.7l0,0c0,0.6,0.6,1.1,1.2,1C120.4,207.9,120.5,207.9,120.6,207.9z"></path><path class="st1" d="M120.1,208.4c-0.8,0-1.5-0.6-1.6-1.5c-0.1-1,0.5-1.9,1.4-2.2l26.1-11c0.5-0.2,1.1-0.2,1.6,0.1
		c0.5,0.3,0.7,0.8,0.7,1.3v0.6c0,0.9-0.5,1.8-1.4,2.2l-26.1,10.4l0,0C120.6,208.4,120.4,208.5,120.1,208.4z M120.6,207.8
		L120.6,207.8z M146.8,194.6c-0.1,0-0.2,0-0.4,0.1l-26.1,11c-0.5,0.2-0.8,0.7-0.8,1.2c0,0.2,0.1,0.4,0.3,0.5c0.2,0.1,0.5,0.1,0.7,0
		l26.1-10.4c0.5-0.2,0.8-0.7,0.8-1.2v-0.6c0-0.2-0.1-0.4-0.3-0.5C147,194.6,146.9,194.6,146.8,194.6z"></path><path class="st1" d="M123.6,192.8l2,1.2c0.8,0.5,1.8,0.5,2.7,0.1l6.7-2.8c0.9-0.4,1.7-1.1,2.2-2l2.1-3.9L123.6,192.8z"></path><path class="st1" d="M127,194.9c-0.6,0-1.1-0.1-1.7-0.4l-2-1.2c-0.2-0.1-0.3-0.3-0.2-0.4c0-0.2,0.1-0.3,0.3-0.4L139,185
		c0.2-0.1,0.4-0.1,0.6,0.1c0.2,0.2,0.2,0.4,0.1,0.6l-2.1,3.9c-0.5,1-1.4,1.8-2.4,2.2l-6.7,2.8C128,194.8,127.5,194.9,127,194.9z
		 M124.7,192.9l1.2,0.7c0.7,0.4,1.5,0.4,2.2,0.1l6.7-2.8c0.8-0.4,1.5-1,1.9-1.8l1.4-2.6L124.7,192.9z"></path><path class="st1" d="M123.6,192.8l2,1.2c0.8,0.5,1.8,0.5,2.7,0.1l6.7-2.8c0.9-0.4,1.7-1.1,2.2-2l2.1-3.9L123.6,192.8z"></path><path class="st1" d="M127,194.9c-0.6,0-1.1-0.1-1.7-0.4l-2-1.2c-0.2-0.1-0.3-0.3-0.2-0.4c0-0.2,0.1-0.3,0.3-0.4L139,185
		c0.2-0.1,0.4-0.1,0.6,0.1c0.2,0.2,0.2,0.4,0.1,0.6l-2.1,3.9c-0.5,1-1.4,1.8-2.4,2.2l-6.7,2.8C128,194.8,127.5,194.9,127,194.9z
		 M124.7,192.9l1.2,0.7c0.7,0.4,1.5,0.4,2.2,0.1l6.7-2.8c0.8-0.4,1.5-1,1.9-1.8l1.4-2.6L124.7,192.9z"></path><polygon class="st0" points="118.8,274 158.5,271.3 157,244 116.7,250.1 	"></polygon><path class="st1" d="M118.8,274.5c-0.3,0-0.5-0.2-0.5-0.5l-2.2-23.9c0-0.3,0.2-0.5,0.4-0.5l40.3-6.1c0.1,0,0.3,0,0.4,0.1
		c0.1,0.1,0.2,0.2,0.2,0.4l1.5,27.3c0,0.3-0.2,0.5-0.5,0.5L118.8,274.5L118.8,274.5z M117.2,250.5l2.1,23l38.8-2.7l-1.5-26.2
		L117.2,250.5z"></path><path class="st2" d="M123.6,262.7l26.8-2.1c0.7,0,1.2-0.6,1.1-1.3c0,0,0,0,0,0v-0.6c0-0.9-0.8-1.6-1.7-1.5l-26.8,2.6
		c-0.7,0.1-1.2,0.7-1.1,1.3c0,0,0,0,0,0.1l0,0C122.1,262.1,122.8,262.7,123.6,262.7z"></path><path class="st1" d="M123.5,263.2c-1,0-1.9-0.9-2-1.9c-0.1-1,0.6-1.8,1.6-1.9c0,0,0,0,0,0l26.8-2.6c0.5,0,1.1,0.1,1.5,0.5
		c0.4,0.4,0.7,0.9,0.7,1.5v0.6c0.1,0.9-0.7,1.8-1.6,1.8l-26.8,2.1L123.5,263.2z M150,257.7L150,257.7l-26.9,2.6
		c-0.4,0-0.7,0.4-0.7,0.8c0,0,0,0,0,0.1c0,0.6,0.5,1,1.1,1l0,0l26.8-2.1c0.4,0,0.7-0.4,0.7-0.8v-0.6c0-0.3-0.2-0.6-0.4-0.8
		C150.5,257.8,150.3,257.7,150,257.7L150,257.7z"></path><path class="st1" d="M126.7,248.6l2,1.8c0.7,0.7,1.7,1.1,2.8,1l6.9-0.6c0.9-0.1,1.7-0.6,2.2-1.3l2.1-3.3L126.7,248.6z"></path><path class="st1" d="M131.1,251.9c-1,0-2-0.4-2.8-1.1l-2-1.8c-0.1-0.1-0.2-0.3-0.1-0.5c0.1-0.2,0.2-0.3,0.4-0.4l16-2.4
		c0.2,0,0.4,0.1,0.5,0.2c0.1,0.2,0.1,0.4,0,0.5l-2.1,3.3c-0.6,0.9-1.5,1.5-2.6,1.6l-6.9,0.6L131.1,251.9z M127.8,248.9l1.2,1.1
		c0.6,0.6,1.5,0.9,2.4,0.8l6.9-0.6c0.8-0.1,1.4-0.5,1.9-1.1l1.5-2.3L127.8,248.9z"></path><path class="st1" d="M126.7,248.6l2,1.8c0.7,0.7,1.7,1.1,2.8,1l6.9-0.6c0.9-0.1,1.7-0.6,2.2-1.3l2.1-3.3L126.7,248.6z"></path><path class="st1" d="M131.1,251.9c-1,0-2-0.4-2.8-1.1l-2-1.8c-0.1-0.1-0.2-0.3-0.1-0.5c0.1-0.2,0.2-0.3,0.4-0.4l16-2.4
		c0.2,0,0.4,0.1,0.5,0.2c0.1,0.2,0.1,0.4,0,0.5l-2.1,3.3c-0.6,0.9-1.5,1.5-2.6,1.6l-6.9,0.6L131.1,251.9z M127.8,248.9l1.2,1.1
		c0.6,0.6,1.5,0.9,2.4,0.8l6.9-0.6c0.8-0.1,1.4-0.5,1.9-1.1l1.5-2.3L127.8,248.9z"></path><polygon class="st0" points="121.9,303.8 159.7,304 158.3,276.6 119.9,279.8 	"></polygon><path class="st1" d="M159.7,304.5L159.7,304.5l-37.8-0.2c-0.3,0-0.5-0.2-0.5-0.5l-2-24.1c0-0.3,0.2-0.5,0.4-0.5l38.4-3.2
		c0.1,0,0.3,0,0.4,0.1c0.1,0.1,0.2,0.2,0.2,0.4l1.4,27.5c0,0.1,0,0.3-0.1,0.4C160,304.5,159.9,304.5,159.7,304.5z M122.4,303.3
		l36.8,0.2l-1.4-26.4l-37.4,3.1L122.4,303.3z"></path><path class="st2" d="M126.5,292.8l25.5-0.1c0.6,0,1.1-0.5,1.1-1.1c0,0,0-0.1,0-0.1v-0.6c0-0.9-0.7-1.6-1.6-1.6L126,290
		c-0.6,0-1.1,0.6-1.1,1.2c0,0,0,0.1,0,0.1l0,0C125,292.1,125.7,292.8,126.5,292.8z"></path><path class="st1" d="M126.5,293.3c-1.1-0.1-2-0.9-2.1-2c-0.1-0.5,0.1-1,0.4-1.3c0.3-0.3,0.7-0.5,1.1-0.5l25.5-0.7
		c1.2,0,2.1,1,2.1,2.1v0.6c0,0.5-0.1,0.9-0.5,1.3c-0.3,0.3-0.7,0.5-1.1,0.5L126.5,293.3L126.5,293.3z M151.5,289.8L151.5,289.8
		l-25.5,0.7c-0.2,0-0.3,0.1-0.4,0.2c-0.1,0.2-0.2,0.4-0.2,0.6c0,0.6,0.5,1,1.1,1.1l0,0l25.5-0.1c0.2,0,0.3-0.1,0.4-0.2
		c0.1-0.2,0.2-0.4,0.2-0.6v-0.6C152.6,290.3,152.1,289.8,151.5,289.8L151.5,289.8z"></path><path class="st1" d="M129.4,279l1.9,2c0.7,0.7,1.7,1.1,2.7,1.1l6.6-0.1c0.9,0,1.7-0.4,2.1-1.2l2-3.1L129.4,279z"></path><path class="st1" d="M133.9,282.6c-1.1,0-2.2-0.5-2.9-1.3l-1.9-2c-0.2-0.2-0.2-0.5,0-0.7c0.1-0.1,0.2-0.1,0.3-0.1l15.3-1.3
		c0.2,0,0.4,0.1,0.5,0.2c0.1,0.2,0.1,0.4,0,0.5l-2,3.1c-0.6,0.9-1.5,1.4-2.5,1.4l-6.6,0.1L133.9,282.6z M130.5,279.4l1.2,1.2
		c0.6,0.6,1.4,1,2.2,1l6.6-0.1c0.7,0,1.3-0.3,1.7-0.9l1.5-2.2L130.5,279.4z"></path><path class="st1" d="M129.4,279l1.9,2c0.7,0.7,1.7,1.1,2.7,1.1l6.6-0.1c0.9,0,1.7-0.4,2.1-1.2l2-3.1L129.4,279z"></path><path class="st1" d="M133.9,282.6c-1.1,0-2.2-0.5-2.9-1.3l-1.9-2c-0.2-0.2-0.2-0.5,0-0.7c0.1-0.1,0.2-0.1,0.3-0.1l15.3-1.3
		c0.2,0,0.4,0.1,0.5,0.2c0.1,0.2,0.1,0.4,0,0.5l-2,3.1c-0.6,0.9-1.5,1.4-2.5,1.4l-6.6,0.1L133.9,282.6z M130.5,279.4l1.2,1.2
		c0.6,0.6,1.4,1,2.2,1l6.6-0.1c0.7,0,1.3-0.3,1.7-0.9l1.5-2.2L130.5,279.4z"></path><polygon class="st0" points="97.8,242.5 133.2,236 131.8,212.5 95.9,222 	"></polygon><path class="st1" d="M97.8,243c-0.1,0-0.2,0-0.3-0.1c-0.1-0.1-0.2-0.2-0.2-0.4l-1.9-20.5c0-0.2,0.1-0.5,0.4-0.5l36-9.5
		c0.1,0,0.3,0,0.4,0.1c0.1,0.1,0.2,0.2,0.2,0.4l1.4,23.5c0,0.3-0.2,0.5-0.4,0.5L97.8,243L97.8,243z M96.4,222.4l1.8,19.5l34.4-6.3
		l-1.3-22.4L96.4,222.4z"></path><path class="st2" d="M102.1,232.1l23.9-4.6c0.6-0.1,1-0.7,1-1.3v-0.5c0-0.7-0.6-1.2-1.3-1.2c-0.1,0-0.1,0-0.2,0l-23.9,5.1
		c-0.6,0.1-1,0.7-1,1.3l0,0c0.1,0.7,0.7,1.2,1.4,1.1C102,232.2,102.1,232.2,102.1,232.1z"></path><path class="st1" d="M101.8,232.7c-0.4,0-0.7-0.1-1-0.4c-0.4-0.3-0.6-0.7-0.7-1.2c-0.1-0.9,0.5-1.7,1.4-1.9l23.9-5.1
		c0.5-0.1,1,0,1.4,0.3c0.4,0.3,0.6,0.8,0.7,1.3v0.5c0,0.9-0.6,1.6-1.5,1.7l-23.9,4.6l0,0C102.1,232.6,102,232.7,101.8,232.7z
		 M102.1,232.1L102.1,232.1z M125.8,225.1h-0.2l-23.9,5.1c-0.4,0.1-0.6,0.4-0.6,0.8c0,0.2,0.1,0.4,0.3,0.5c0.2,0.1,0.4,0.2,0.6,0.1
		l23.9-4.6c0.4-0.1,0.6-0.4,0.6-0.8v-0.5c0-0.2-0.1-0.4-0.3-0.5C126.1,225.2,126,225.1,125.8,225.1L125.8,225.1z"></path><path class="st1" d="M104.8,219.6l1.8,1.4c0.7,0.5,1.6,0.7,2.5,0.5l6.2-1.3c0.8-0.2,1.5-0.7,2-1.4l1.9-3L104.8,219.6z"></path><path class="st1" d="M108.4,222.1c-0.8,0-1.5-0.2-2.1-0.7l-1.8-1.4c-0.2-0.1-0.2-0.3-0.2-0.5c0-0.2,0.2-0.3,0.4-0.4l14.3-3.8
		c0.3-0.1,0.5,0.1,0.6,0.4c0,0.1,0,0.3-0.1,0.4l-1.9,3c-0.5,0.8-1.4,1.4-2.3,1.6l-6.2,1.3C108.9,222.1,108.7,222.1,108.4,222.1z
		 M105.9,219.9l1,0.7c0.6,0.4,1.3,0.6,2,0.4l6.2-1.3c0.7-0.1,1.3-0.6,1.7-1.2l1.2-2L105.9,219.9z"></path><path class="st1" d="M104.8,219.6l1.8,1.4c0.7,0.5,1.6,0.7,2.5,0.5l6.2-1.3c0.8-0.2,1.5-0.7,2-1.4l1.9-3L104.8,219.6z"></path><path class="st1" d="M108.4,222.1c-0.8,0-1.5-0.2-2.1-0.7l-1.8-1.4c-0.2-0.1-0.2-0.3-0.2-0.5c0-0.2,0.2-0.3,0.4-0.4l14.3-3.8
		c0.3-0.1,0.5,0.1,0.6,0.4c0,0.1,0,0.3-0.1,0.4l-1.9,3c-0.5,0.8-1.4,1.4-2.3,1.6l-6.2,1.3C108.9,222.1,108.7,222.1,108.4,222.1z
		 M105.9,219.9l1,0.7c0.6,0.4,1.3,0.6,2,0.4l6.2-1.3c0.7-0.1,1.3-0.6,1.7-1.2l1.2-2L105.9,219.9z"></path><polygon class="st2" points="131.8,212.5 156.5,218.5 157.1,236 133.2,236 	"></polygon><path class="st1" d="M157.1,236.5h-23.9c-0.3,0-0.5-0.2-0.5-0.5l-1.4-23.5c0-0.3,0.2-0.5,0.4-0.6c0.1,0,0.2,0,0.2,0l24.6,6
		c0.2,0,0.4,0.2,0.4,0.5l0.7,17.4c0,0.1,0,0.3-0.1,0.4C157.5,236.4,157.3,236.5,157.1,236.5z M133.7,235.5h22.9l-0.6-16.6l-23.6-5.8
		L133.7,235.5z"></path><polygon class="st0" points="97.8,242.5 119.1,240.9 157.1,236 133.2,236 	"></polygon><path class="st1" d="M97.8,243c-0.3,0-0.5-0.2-0.5-0.4c0-0.3,0.1-0.5,0.4-0.6l35.4-6.5h24c0.3,0,0.5,0.2,0.5,0.5
		c0,0.3-0.2,0.5-0.4,0.5l-38,4.9L97.8,243L97.8,243z M133.2,236.5l-26.3,4.8l12.2-0.9l30.4-3.9H133.2z"></path></g><g id="main-storage"><path class="st0" d="M193.3,151h95.2c2.9,0,5.2,2.3,5.2,5.2v164.7c0,2.9-2.3,5.2-5.2,5.2h-95.2c-2.9,0-5.2-2.3-5.2-5.2V156.2
		C188.1,153.4,190.4,151,193.3,151z"></path><path class="st1" d="M288.5,326.6h-95.2c-3.1,0-5.7-2.6-5.7-5.7V156.2c0-3.1,2.6-5.7,5.7-5.7h95.2c3.1,0,5.7,2.6,5.7,5.7
		c0,0,0,0,0,0v164.7C294.2,324,291.6,326.6,288.5,326.6z M193.3,151.5c-2.6,0-4.7,2.1-4.7,4.7v164.7c0,2.6,2.1,4.7,4.7,4.7h95.2
		c2.6,0,4.7-2.1,4.7-4.7V156.2c0-2.6-2.1-4.7-4.7-4.7L193.3,151.5z"></path><path class="st0" d="M287.7,161.3v33.4c0,1.1-0.9,2-2,2h-89.6c-1.1,0-2-0.9-2-2v-33.4c0-1.1,0.9-2,2-2H224c1.8,0,3.5,0.9,4.6,2.3
		c1.1,1.4,2.8,2.2,4.5,2.2h12.4c4.1,0,3.4-4.5,9.3-4.5h30.9C286.8,159.4,287.7,160.3,287.7,161.3z"></path><path class="st1" d="M285.7,197.2h-89.6c-1.4,0-2.4-1.1-2.4-2.4v-33.4c0-1.4,1.1-2.4,2.4-2.4H224c2,0,3.8,0.9,5,2.5
		c1,1.3,2.5,2,4.1,2h12.4c1.7,0,2.4-0.8,3.3-1.8c1.4-1.8,3.7-2.8,6-2.7h30.9c1.4,0,2.5,1.1,2.5,2.4c0,0,0,0,0,0v33.4
		C288.2,196.1,287.1,197.2,285.7,197.2C285.8,197.2,285.7,197.2,285.7,197.2z M196.1,159.9c-0.8,0-1.4,0.6-1.4,1.4v33.4
		c0,0.8,0.6,1.4,1.4,1.4h89.6c0.8,0,1.5-0.6,1.5-1.4c0,0,0,0,0,0v-33.4c0-0.8-0.6-1.4-1.5-1.4l0,0h-30.9c-2-0.1-4,0.8-5.2,2.4
		c-0.9,1.3-2.5,2.1-4.1,2.1h-12.4c-1.9,0-3.7-0.9-4.9-2.4c-1-1.3-2.5-2.1-4.2-2.2L196.1,159.9z"></path><path class="st1" d="M254.8,159.4c-5.9,0-5.2,4.5-9.3,4.5h-13.4c-1.2,0-2.3-0.6-3-1.6c-1.1-1.8-2.9-2.9-5-2.9H254.8z"></path><path class="st1" d="M245.5,164.4h-13.4c-1.4,0-2.7-0.7-3.5-1.8c-1-1.6-2.7-2.7-4.6-2.7c-0.3,0-0.5-0.2-0.5-0.5s0.2-0.5,0.5-0.5
		h30.8c0.3,0,0.5,0.2,0.5,0.5s-0.2,0.5-0.5,0.5c-2-0.1-4,0.8-5.2,2.4C248.6,163.6,247.1,164.4,245.5,164.4z M227.3,159.9
		c0.8,0.6,1.6,1.3,2.1,2.1c0.6,0.9,1.6,1.4,2.6,1.4h13.4c1.7,0,2.4-0.8,3.3-1.8c0.6-0.7,1.2-1.2,1.9-1.7L227.3,159.9z"></path><path class="st2" d="M211.9,175.4h57c0.8,0,1.5,0.7,1.5,1.5v0.6c0,0.8-0.7,1.5-1.5,1.5h-57c-0.8,0-1.5-0.7-1.5-1.5v-0.6
		C210.4,176.1,211.1,175.4,211.9,175.4z"></path><path class="st1" d="M268.9,179.5h-57c-1.1,0-2-0.9-2-2v-0.6c0-1.1,0.9-2,2-2h57c1.1,0,2,0.9,2,2v0.6
		C270.9,178.6,270,179.5,268.9,179.5z M211.9,175.9c-0.6,0-1,0.4-1,1v0.6c0,0.6,0.4,1,1,1h57c0.6,0,1-0.4,1-1v-0.6c0-0.6-0.4-1-1-1
		H211.9z"></path><path class="st0" d="M287.7,257.8v33.4c0,1.1-0.9,1.9-2,2h-89.6c-1.1,0-2-0.9-2-2v-33.4c0-1.1,0.9-2,2-1.9H224
		c1.8,0,3.5,0.9,4.6,2.3c1.1,1.4,2.8,2.2,4.5,2.2h12.4c4.1,0,3.4-4.5,9.3-4.5h30.9C286.8,255.9,287.6,256.8,287.7,257.8z"></path><path class="st1" d="M285.7,293.7h-89.6c-1.4,0-2.4-1.1-2.4-2.5l0,0v-33.4c0-1.4,1.1-2.4,2.4-2.4H224c2,0,3.8,0.9,5,2.5
		c1,1.3,2.5,2,4.1,2h12.4c1.7,0,2.4-0.8,3.3-1.8c1.4-1.8,3.7-2.8,6-2.7h30.9c1.4,0,2.5,1.1,2.5,2.4l0,0v33.4
		C288.2,292.6,287.1,293.7,285.7,293.7C285.8,293.7,285.7,293.7,285.7,293.7z M196.1,256.4c-0.8,0-1.4,0.6-1.4,1.5l0,0v33.4
		c0,0.8,0.6,1.5,1.4,1.5c0,0,0,0,0,0h89.6c0.8,0,1.5-0.6,1.5-1.4v0v-33.4c0-0.8-0.6-1.5-1.4-1.5h0h-30.9c-2-0.1-4,0.8-5.2,2.4
		c-0.9,1.3-2.5,2.1-4.1,2.1h-12.4c-1.9,0-3.7-0.9-4.9-2.4c-1-1.3-2.5-2.1-4.2-2.2L196.1,256.4z"></path><path class="st1" d="M254.8,255.9c-5.9,0-5.2,4.5-9.3,4.5h-13.4c-1.2,0-2.3-0.6-3-1.6c-1.1-1.8-2.9-2.9-5-2.9L254.8,255.9z"></path><path class="st1" d="M245.5,260.9h-13.4c-1.4,0-2.7-0.7-3.5-1.8c-1-1.6-2.7-2.6-4.6-2.7c-0.3,0-0.5-0.2-0.5-0.5
		c0-0.3,0.2-0.5,0.5-0.5h30.8c0.3,0,0.5,0.2,0.5,0.5c0,0.3-0.2,0.5-0.5,0.5c-2-0.1-4,0.8-5.2,2.4
		C248.6,260.1,247.1,260.9,245.5,260.9z M227.3,256.4c0.8,0.6,1.6,1.3,2.1,2.1c0.6,0.9,1.6,1.4,2.6,1.4h13.4c1.7,0,2.4-0.8,3.3-1.8
		c0.6-0.7,1.2-1.2,1.9-1.7L227.3,256.4z"></path><path class="st2" d="M211.9,271.9h57c0.8,0,1.5,0.7,1.5,1.5v0.6c0,0.8-0.7,1.5-1.5,1.5h-57c-0.8,0-1.5-0.7-1.5-1.5v-0.6
		C210.4,272.6,211.1,271.9,211.9,271.9z"></path><path class="st1" d="M268.9,276h-57c-1.1,0-2-0.9-2-2v-0.6c0-1.1,0.9-2,2-2h57c1.1,0,2,0.9,2,2v0.6C270.9,275.1,270,276,268.9,276z
		 M211.9,272.4c-0.6,0-1,0.4-1,1v0.6c0,0.6,0.4,1,1,1h57c0.6,0,1-0.4,1-1v-0.6c0-0.6-0.4-1-1-1L211.9,272.4z"></path><path class="st2" d="M182.4,212.5l16.6-7.8h86.7l13.8,7.8l-15.6,9.4c0,0-55.1,3.4-56.9,3.4S182.4,212.5,182.4,212.5z"></path><path class="st1" d="M226.9,225.9c-1.8,0-40.3-11.5-44.7-12.9c-0.3-0.1-0.4-0.4-0.3-0.6c0-0.1,0.1-0.2,0.3-0.3l16.6-7.8
		c0.1,0,0.1,0,0.2,0h86.7c0.1,0,0.2,0,0.2,0.1l13.8,7.8c0.2,0.1,0.3,0.2,0.3,0.4c0,0.2-0.1,0.3-0.2,0.4l-15.6,9.4
		c-0.1,0-0.1,0.1-0.2,0.1C281.6,222.6,228.7,225.9,226.9,225.9z M183.8,212.4c17.1,5.1,41.8,12.4,43.1,12.4c1.7,0,53.9-3.2,56.8-3.4
		l14.8-8.9l-12.9-7.3h-86.4L183.8,212.4z"></path><path class="st1" d="M285.6,222.4c-0.3,0-0.5-0.2-0.5-0.5v-17.2c0-0.3,0.2-0.5,0.5-0.5s0.5,0.2,0.5,0.5v17.2
		C286.1,222.2,285.9,222.4,285.6,222.4z"></path><path class="st1" d="M199,222.4c-0.3,0-0.5-0.2-0.5-0.5v-17.2c0-0.3,0.2-0.5,0.5-0.5s0.5,0.2,0.5,0.5v17.2
		C199.5,222.2,199.3,222.4,199,222.4z"></path><path class="st0" d="M302,215.1v43.6c0,1.4-1.1,2.6-2.5,2.6h-117c-1.4,0-2.6-1.2-2.6-2.6v-43.6c0-1.4,1.1-2.6,2.6-2.6l0,0h36.4
		c2.4,0,4.6,1.2,6,3.1c1.4,1.8,3.6,2.8,5.9,2.8H247c5.4,0,4.5-5.9,12.1-5.9h40.4C300.9,212.5,302,213.7,302,215.1z"></path><path class="st1" d="M299.4,261.8h-117c-1.7,0-3-1.4-3-3.1v-43.6c0-1.7,1.3-3,3-3.1h36.4c2.5,0,4.9,1.2,6.4,3.2
		c1.3,1.7,3.4,2.6,5.5,2.6H247c2.2,0,3.3-1.1,4.5-2.4c1.8-2.4,4.7-3.7,7.7-3.5h40.4c1.7,0,3,1.4,3,3.1v43.6
		C302.5,260.4,301.2,261.8,299.4,261.8C299.5,261.8,299.4,261.8,299.4,261.8z M182.4,213c-1.1,0-2,0.9-2,2.1v43.7c0,1.1,0.9,2,2,2.1
		h117c1.1,0,2.1-0.9,2.1-2c0,0,0,0,0,0v-43.6c0-1.1-0.9-2.1-2-2.1H259c-2.7-0.2-5.3,1-6.9,3.2c-1.2,1.3-2.5,2.7-5.2,2.7h-16.2
		c-2.4,0-4.8-1.1-6.3-3c-1.3-1.8-3.4-2.9-5.6-2.9L182.4,213z"></path><path class="st1" d="M259,212.5c-7.7,0-6.8,5.9-12.1,5.9h-17.5c-1.6,0-3.1-0.8-4-2.1c-1.4-2.3-3.9-3.7-6.6-3.8L259,212.5z"></path><path class="st1" d="M246.9,218.9h-17.6c-1.8,0-3.4-0.9-4.4-2.3c-1.3-2.2-3.6-3.5-6.1-3.6c-0.3,0-0.5-0.2-0.5-0.5s0.2-0.5,0.5-0.5
		H259c0.3,0,0.5,0.2,0.5,0.5s-0.2,0.5-0.5,0.5c-2.7-0.2-5.3,1-6.9,3.2C250.9,217.5,249.6,218.9,246.9,218.9z M222.6,213
		c1.3,0.8,2.4,1.8,3.2,3c0.8,1.2,2.1,1.9,3.6,1.9h17.6c2.2,0,3.3-1.1,4.5-2.4c0.8-1,1.9-1.8,3-2.5L222.6,213z"></path><path class="st2" d="M202.6,233.4h75.4c0.8,0,1.5,0.7,1.5,1.5v1.7c0,0.8-0.7,1.5-1.5,1.5h-75.4c-0.8,0-1.5-0.7-1.5-1.5v-1.7
		C201,234.1,201.7,233.4,202.6,233.4z"></path><path class="st1" d="M277.9,238.7h-75.4c-1.1,0-2-0.9-2-2V235c0-1.1,0.9-2,2-2h75.4c1.1,0,2,0.9,2,2v1.7
		C279.9,237.8,279,238.7,277.9,238.7z M202.6,233.9c-0.6,0-1,0.4-1,1v1.7c0,0.6,0.4,1,1,1h75.4c0.6,0,1-0.4,1-1v-1.7
		c0-0.6-0.4-1-1-1H202.6z"></path></g><g id="cloud-1"><path class="st0" d="M196.5,302c0,0,9.5-25,41.2-25s45.2,22.4,45.2,22.4s31.8-11.8,51.3,13c0,0,43.5-7.3,52.9,26.5
		s-22.8,57-64.3,44c0,0-34.7,27.3-80.7,11.4c0,0-48.8,16.3-83.8-12.2c0,0-51.3,20-74.9-17.5s23.2-67.2,54.5-51.7
		C138,312.9,157.7,280.2,196.5,302z"></path><path class="st1" d="M271,399.7c-9.8,0-19.6-1.7-28.9-4.9c-3.2,1-50.1,15.1-83.9-12.2c-4.1,1.5-52.6,18.1-75.2-17.8
		c-9.3-14.8-8.6-30.1,2.1-41.9c12.7-14.1,35.8-18.8,52.7-10.7c2.4-3.6,22.3-30.9,58.4-10.9c1.6-3.6,12.4-24.8,41.5-24.8
		c29.5,0,43.5,19.5,45.4,22.3c3.7-1.2,32.9-10,51.3,13.1c3.9-0.5,44.2-5.5,53.2,26.9c3.9,14.2,0.9,27.1-8.7,36.3
		c-12.5,12-33.9,15.2-56,8.4C320.6,385.1,300.1,399.7,271,399.7z M242.1,393.8c0.1,0,0.1,0,0.2,0c45.2,15.6,79.9-11,80.2-11.3
		c0.1-0.1,0.3-0.1,0.5-0.1c21.9,6.9,43.1,3.8,55.3-8c9.2-8.9,12.2-21.5,8.4-35.3c-9.1-33-51.9-26.2-52.4-26.1c-0.2,0-0.4,0-0.5-0.2
		c-19.1-24.2-50.4-13-50.7-12.9c-0.2,0.1-0.5,0-0.6-0.2c-0.1-0.2-13.7-22.1-44.8-22.1S197,302,196.9,302.2c0,0.1-0.2,0.2-0.3,0.3
		c-0.1,0.1-0.3,0.1-0.4,0c-15.7-8.8-30.6-9.8-43.3-2.8c-5.8,3.3-10.8,7.9-14.5,13.4c-0.1,0.2-0.4,0.3-0.6,0.2
		c-16.6-8.2-39.4-3.7-51.9,10.2c-10.3,11.5-11.1,26.3-2,40.7c23.1,36.7,73.8,17.5,74.3,17.3c0.2-0.1,0.4,0,0.5,0.1
		c34.4,28,82.8,12.3,83.4,12.1C242,393.8,242.1,393.8,242.1,393.8L242.1,393.8z"></path><path class="st1" d="M345.8,330.7c-0.2,0-0.4-0.1-0.5-0.3c-4-9.5-11.4-17.5-11.5-17.5c-0.2-0.2-0.2-0.5,0-0.7c0,0,0,0,0,0
		c0.2-0.2,0.5-0.2,0.7,0c0,0,0,0,0,0c4.8,5.3,8.7,11.4,11.7,17.9c0.1,0.3,0,0.5-0.3,0.7c0,0,0,0,0,0
		C345.9,330.7,345.8,330.7,345.8,330.7z"></path><path class="st1" d="M322.8,383.4c-0.2,0-0.3-0.1-0.4-0.2c-0.2-0.2-0.1-0.5,0.1-0.7c0.1,0,5.7-4,11.2-15.9c0.1-0.3,0.4-0.4,0.7-0.2
		c0,0,0,0,0,0c0.2,0.1,0.4,0.4,0.2,0.6c0,0,0,0,0,0c-5.7,12.1-11.3,16.1-11.6,16.3C323,383.4,322.9,383.4,322.8,383.4z"></path><path class="st1" d="M242.1,394.8H242c-16.4-6.5-21.3-13-21.5-13.3c-0.2-0.2-0.1-0.5,0.1-0.7c0.2-0.2,0.5-0.1,0.7,0.1l0,0
		c0,0.1,5,6.6,21,13c0.3,0.1,0.4,0.4,0.3,0.6C242.5,394.7,242.3,394.8,242.1,394.8z"></path><path class="st1" d="M212,382.4c-3.5,0-7-0.7-10.2-2.1c-0.3-0.1-0.4-0.4-0.3-0.7s0.4-0.4,0.7-0.3c16.8,7.5,35.6-8.2,35.8-8.4
		c0.2-0.2,0.5-0.2,0.7,0.1c0.2,0.2,0.2,0.5-0.1,0.7l0,0C238.5,371.9,226,382.4,212,382.4z"></path><path class="st1" d="M158.3,382.6c-0.1,0-0.2,0-0.3-0.1c-14.6-12.6-15.7-19.3-15.7-19.6c0-0.3,0.2-0.5,0.4-0.6
		c0.3,0,0.5,0.1,0.6,0.4c0,0,0,0,0,0c0,0.1,1.1,6.7,15.4,19c0.2,0.2,0.2,0.5,0.1,0.7C158.6,382.5,158.5,382.6,158.3,382.6z"></path><path class="st1" d="M134.7,365c-0.7,0-1.4,0-2.1-0.1c-0.3,0-0.5-0.3-0.4-0.6c0-0.3,0.3-0.5,0.6-0.4c10.1,1.3,21.2-8,21.3-8.1
		c0.2-0.2,0.5-0.1,0.7,0.1c0.2,0.2,0.2,0.5,0,0.7c0,0,0,0,0,0C154.2,356.9,144.5,365,134.7,365z"></path><path class="st1" d="M130.4,331.2L130.4,331.2c-0.3,0-0.5-0.3-0.5-0.6c0,0,0,0,0,0c1.1-9.5,7.4-17.8,7.7-18.1
		c0.2-0.2,0.5-0.3,0.7-0.1c0.2,0.2,0.3,0.5,0.1,0.7c0,0,0,0,0,0c-0.1,0.1-6.4,8.4-7.5,17.6C130.9,331,130.7,331.2,130.4,331.2z"></path><path class="st1" d="M205.6,310c-0.2,0-0.3-0.1-0.4-0.2c0,0-2.5-3.3-9-7.3c-0.2-0.1-0.3-0.5-0.2-0.7s0.5-0.3,0.7-0.2l0,0
		c6.7,4.1,9.2,7.5,9.3,7.6c0.2,0.2,0.1,0.5-0.1,0.7c0,0,0,0,0,0C205.8,310,205.7,310,205.6,310z"></path><path class="st1" d="M199,317.3c-0.1,0-0.1,0-0.2,0c-0.3-0.1-0.4-0.4-0.3-0.6c0,0,0,0,0,0c1.6-3.9,4.1-6.3,7.4-7.3
		c7.7-2.2,17.1,4.6,17.5,4.9c0.2,0.2,0.3,0.5,0.1,0.7c0,0,0,0,0,0c-0.2,0.2-0.5,0.3-0.7,0.1c-0.1-0.1-9.4-6.8-16.6-4.7
		c-3,0.9-5.2,3.1-6.7,6.7C199.4,317.2,199.2,317.3,199,317.3z"></path></g><g id="paper-folder"><path class="st2" d="M269.4,317.6c1.4,9.1,4.3,32.4-1.5,34.5s-16.2-23.1-20.2-33.4c-0.8-2.1,0.3-4.5,2.4-5.3
		c0.1-0.1,0.3-0.1,0.4-0.1l49.8-13.3l1.6,4.6l-29.6,8.5C270.4,313.7,269.1,315.6,269.4,317.6z"></path><path class="st1" d="M267.3,352.7c-6,0-15-20.9-20-33.8c-0.5-1.2-0.4-2.6,0.2-3.8c0.6-1.2,1.7-2,2.9-2.4l49.9-13.3
		c0.3-0.1,0.5,0.1,0.6,0.3l1.6,4.6c0.1,0.1,0.1,0.3,0,0.4c-0.1,0.1-0.2,0.2-0.3,0.2l-29.6,8.5c-1.7,0.5-2.8,2.2-2.6,4
		c1.8,12.2,4,32.9-1.8,35C267.8,352.7,267.6,352.7,267.3,352.7z M300.1,300.6l-49.4,13.2c-1,0.3-1.8,0.9-2.3,1.9
		c-0.5,0.9-0.5,2-0.1,3c8,20.7,15.2,33.2,19,33.2c0.2,0,0.4,0,0.5-0.1c3.8-1.4,4.2-14,1.2-33.9l0,0c-0.3-2.3,1.1-4.5,3.3-5.1
		l29.1-8.4L300.1,300.6z"></path><path class="st0" d="M295.4,272.7c0,0,14.7,24.1,14.9,54.4L267.9,343c0,0-3.9-18.5-8-26s-6.5-11-7.6-16.1s-1.5-12.1-3.3-14.7
		C249,286.2,282,274.5,295.4,272.7z"></path><path class="st1" d="M267.9,343.5c-0.1,0-0.2,0-0.2-0.1c-0.1-0.1-0.2-0.2-0.2-0.3c0-0.2-3.9-18.6-7.9-25.8
		c-0.8-1.4-1.5-2.7-2.1-3.9c-2.8-4.9-4.6-8.1-5.5-12.4c-0.4-1.7-0.6-3.5-0.9-5.3c-0.6-3.7-1.1-7.5-2.3-9.2c-0.1-0.1-0.1-0.3-0.1-0.4
		c0-0.2,0.2-0.3,0.3-0.3c0.3-0.1,33.2-11.7,46.5-13.6c0.2,0,0.4,0.1,0.5,0.2c0.1,0.2,14.7,24.6,14.9,54.6c0,0.2-0.1,0.4-0.3,0.5
		l-42.3,16C268,343.5,268,343.5,267.9,343.5z M249.7,286.5c1.1,2,1.6,5.4,2.2,9c0.3,1.8,0.6,3.6,0.9,5.2c0.9,4.1,2.6,7.1,5.4,12.1
		c0.7,1.2,1.4,2.4,2.1,3.9c3.7,6.8,7.2,22.3,7.9,25.5l41.4-15.6c-0.3-27.9-13-50.7-14.6-53.5C282.7,275.1,254.2,285,249.7,286.5
		L249.7,286.5z"></path><path class="st1" d="M262,290.8c-0.2,0-0.4-0.1-0.5-0.3c-0.1-0.3,0-0.5,0.3-0.6c11-4,28.8-9.2,29-9.3c0.3-0.1,0.6,0.1,0.6,0.4
		c0.1,0.3-0.1,0.6-0.4,0.6c-0.2,0-17.9,5.2-28.9,9.3C262.1,290.8,262.1,290.8,262,290.8z"></path><path class="st1" d="M264.2,298.2c-0.3,0-0.5-0.1-0.6-0.4c0-0.3,0.1-0.5,0.4-0.6c7.9-2.6,29.3-9,29.5-9.1c0.3,0,0.5,0.1,0.6,0.4
		c0,0.2-0.1,0.5-0.3,0.5c-0.2,0.1-21.6,6.5-29.5,9.1L264.2,298.2z"></path><path class="st1" d="M266.8,306c-0.2,0-0.4-0.1-0.5-0.3c-0.1-0.3,0-0.5,0.3-0.6c0,0,0,0,0,0c9.2-3.1,24-6.8,24.2-6.9
		c0.3-0.1,0.5,0.1,0.6,0.4c0,0,0,0,0,0c0.1,0.3-0.1,0.5-0.4,0.6c0,0,0,0,0,0c-0.1,0-14.9,3.7-24.1,6.9L266.8,306z"></path><path class="st0" d="M317.6,331.2c-0.2,3.8-2.5,7.2-6,8.7c-16.5,7.1-43.7,12.3-43.7,12.3c5.8-2.1,2.9-25.4,1.5-34.5
		c-0.3-2,0.9-4,2.9-4.6l29.6-8.5l8.3-2.4c2.2-0.6,4.5,0.6,5.1,2.8c0,0.2,0.1,0.3,0.1,0.5C316.5,311.5,318,322.5,317.6,331.2z"></path><path class="st1" d="M267.9,352.6c-0.2,0-0.4-0.1-0.5-0.4c-0.1-0.3,0.1-0.5,0.3-0.6c3.8-1.4,4.2-14,1.2-33.9
		c-0.3-2.3,1.1-4.5,3.3-5.1l37.9-10.9c2.5-0.7,5,0.7,5.7,3.2c0,0.2,0.1,0.3,0.1,0.5c1,5.8,2.5,16.9,2.1,25.8l0,0
		c-0.2,4-2.6,7.5-6.3,9.1C295.5,347.3,268.3,352.6,267.9,352.6L267.9,352.6z M311.4,302.5c-0.3,0-0.7,0.1-1,0.1l-37.9,10.9
		c-1.7,0.5-2.8,2.2-2.6,4c1.6,10.8,3.6,28.4-0.2,33.7c6.5-1.3,27.9-6,41.7-11.9c3.3-1.4,5.5-4.6,5.7-8.2c0.4-8.8-1.2-19.8-2.1-25.6
		c-0.2-1-0.8-1.9-1.6-2.5C312.8,302.7,312.1,302.5,311.4,302.5z M317.6,331.2L317.6,331.2z"></path></g><g id="paper-plane"><path class="st2" d="M80.9,200.3l-7.2,7.1c0,0-16.9-9.2-21.8-13.1c-3.1-2.5-5.8-5.4-8-8.6l32.9,10.1L80.9,200.3z"></path><path class="st1" d="M73.8,207.9c-0.1,0-0.2,0-0.2-0.1c-0.7-0.4-17-9.3-21.9-13.1c-3.1-2.5-5.8-5.4-8.1-8.7
		c-0.2-0.2-0.1-0.5,0.1-0.7c0.1-0.1,0.3-0.1,0.4-0.1L77,195.3c0.1,0,0.2,0.1,0.2,0.1l4.1,4.5c0.2,0.2,0.2,0.5,0,0.7l-7.2,7.1
		C74,207.8,73.9,207.9,73.8,207.9z M45.2,186.6c2,2.7,4.4,5.2,7,7.3c4.4,3.5,19,11.6,21.4,12.9l6.6-6.5l-3.7-4.1L45.2,186.6z"></path><path class="st0" d="M80.9,200.3c-13.6-0.5-37-14.6-37-14.6s28.5,5.8,41.3,1.4L80.9,200.3z"></path><path class="st1" d="M80.9,200.8L80.9,200.8c-13.6-0.5-36.3-14.1-37.2-14.6c-0.2-0.1-0.3-0.4-0.2-0.7c0.1-0.2,0.3-0.3,0.5-0.2
		c0.3,0.1,28.5,5.8,41.1,1.4c0.3-0.1,0.5,0,0.6,0.3c0,0.1,0,0.2,0,0.3l-4.4,13.2C81.3,200.6,81.1,200.8,80.9,200.8z M46.7,186.8
		c6.3,3.6,23.1,12.4,33.8,13l3.9-11.9C73.7,191,54.1,188.1,46.7,186.8L46.7,186.8z"></path><path class="st0" d="M80.4,204.8c1.3,6.4,3.1,15.5,3.1,15.5s-31.2-18.8-39.6-34.6C43.9,185.7,62.6,201.6,80.4,204.8z"></path><path class="st1" d="M83.6,220.8c-0.1,0-0.2,0-0.3-0.1c-1.3-0.8-31.4-19.1-39.8-34.8c-0.1-0.2-0.1-0.5,0.1-0.6
		c0.2-0.2,0.5-0.2,0.6,0c0.2,0.2,18.8,15.8,36.3,19c0.2,0,0.4,0.2,0.4,0.4c1.3,6.4,3.1,15.5,3.1,15.6c0,0.2,0,0.4-0.2,0.5
		C83.8,220.8,83.7,220.8,83.6,220.8z M45.8,187.8c8.9,13.4,32,28.3,37,31.5c-0.5-2.6-1.8-9.1-2.8-14.1
		C65.9,202.5,51.2,192,45.8,187.8L45.8,187.8z"></path></g><g id="line-1"><path class="st1" d="M86.8,203.7L86.8,203.7c-0.5,0-1-0.1-1.5-0.2c-0.3,0-0.5-0.3-0.4-0.6c0-0.3,0.3-0.5,0.5-0.4c0,0,0,0,0,0
		c0.5,0.1,1,0.1,1.5,0.1c0.3,0,0.5,0.2,0.5,0.5S87.1,203.7,86.8,203.7L86.8,203.7z"></path><path class="st1" d="M112.3,217.3c-0.2,0-0.3-0.1-0.4-0.2c-0.6-0.8-1.2-1.6-1.8-2.4c-0.2-0.2-0.2-0.5,0-0.7c0.2-0.2,0.5-0.2,0.7,0
		c0,0,0.1,0.1,0.1,0.1c0.6,0.8,1.1,1.6,1.8,2.4c0.2,0.2,0.1,0.5-0.1,0.7C112.6,217.3,112.5,217.3,112.3,217.3z M108.9,212.5
		c-0.2,0-0.3-0.1-0.4-0.2c-0.5-0.8-1-1.7-1.5-2.6c-0.1-0.2-0.1-0.5,0.2-0.7c0.2-0.1,0.5,0,0.7,0.2c0.5,0.8,1,1.7,1.5,2.5
		c0.1,0.2,0.1,0.5-0.2,0.7C109.2,212.4,109.1,212.5,108.9,212.5L108.9,212.5z M106,207.3c-0.2,0-0.4-0.1-0.4-0.3
		c-0.4-0.9-0.9-1.8-1.3-2.7c-0.1-0.3,0-0.5,0.3-0.7c0.3-0.1,0.5,0,0.7,0.3c0.4,0.9,0.8,1.8,1.2,2.6c0.1,0.2,0,0.5-0.2,0.7
		c0,0,0,0,0,0C106.2,207.3,106.1,207.3,106,207.3z M89.7,203.8c-0.3,0-0.5-0.2-0.5-0.5s0.2-0.5,0.5-0.5c0.9,0,1.9,0,2.9-0.1
		c0.3,0,0.5,0.2,0.5,0.5c0,0,0,0,0,0c0,0.3-0.2,0.5-0.5,0.5c0,0,0,0,0,0C91.7,203.8,90.7,203.8,89.7,203.8L89.7,203.8z M95.6,203.4
		c-0.3,0-0.5-0.2-0.5-0.5s0.2-0.5,0.5-0.5c1-0.1,1.9-0.2,2.9-0.4c0.3,0,0.5,0.1,0.6,0.4c0,0.3-0.1,0.5-0.4,0.6c0,0,0,0,0,0
		C97.6,203.2,96.6,203.3,95.6,203.4L95.6,203.4z M101.5,202.4c-0.2,0-0.4-0.2-0.5-0.4c-0.1-0.3,0.1-0.5,0.4-0.6
		c0.5-0.1,1.1-0.2,1.6-0.4c-0.3-0.8-0.5-1.6-0.8-2.4c-0.1-0.3,0.1-0.5,0.3-0.6c0.3-0.1,0.5,0.1,0.6,0.3c0.2,0.8,0.5,1.6,0.8,2.4
		l0.3-0.1c0.3-0.1,0.5,0.1,0.6,0.4c0.1,0.3-0.1,0.5-0.4,0.6c0,0,0,0,0,0c-0.9,0.2-1.9,0.5-2.9,0.7L101.5,202.4z M107.2,201
		c-0.2,0-0.4-0.1-0.5-0.4c-0.1-0.2,0-0.5,0.3-0.6c0,0,0,0,0,0c1-0.3,1.9-0.6,2.8-1c0.3-0.1,0.5,0,0.7,0.3c0.1,0.3,0,0.5-0.3,0.6
		c0,0,0,0,0,0c-0.9,0.4-1.8,0.7-2.8,1L107.2,201z M112.7,198.9c-0.3,0-0.5-0.2-0.5-0.5c0-0.2,0.1-0.4,0.3-0.4
		c0.9-0.4,1.8-0.9,2.6-1.4c0.3-0.1,0.5,0,0.7,0.2c0.1,0.2,0,0.5-0.2,0.6c-0.9,0.5-1.7,1-2.7,1.4
		C112.9,198.8,112.8,198.8,112.7,198.9L112.7,198.9z M102,196.2c-0.2,0-0.4-0.2-0.5-0.4c-0.2-1-0.4-2-0.5-3c0-0.3,0.2-0.5,0.4-0.6
		c0.3,0,0.5,0.2,0.6,0.4c0.1,0.9,0.3,1.9,0.5,2.9c0.1,0.3-0.1,0.5-0.4,0.6C102.1,196.2,102.1,196.2,102,196.2L102,196.2z
		 M117.8,195.8c-0.3,0-0.5-0.2-0.5-0.5c0-0.2,0.1-0.3,0.2-0.4c0.8-0.6,1.5-1.2,2.1-1.9c0.2-0.2,0.5-0.2,0.7,0c0,0,0,0,0,0
		c0.2,0.2,0.2,0.5,0,0.7c0,0,0,0,0,0c-0.7,0.7-1.5,1.4-2.3,2C118,195.7,117.9,195.8,117.8,195.8L117.8,195.8z M121.8,191.4
		c-0.1,0-0.2,0-0.2-0.1c-0.2-0.1-0.3-0.4-0.2-0.7c0,0,0,0,0,0c0.4-0.8,0.8-1.7,0.9-2.6c0-0.3,0.3-0.5,0.6-0.4s0.5,0.3,0.4,0.6
		c-0.2,1-0.5,2-1,2.9C122.1,191.4,121.9,191.5,121.8,191.4L121.8,191.4z M101.2,190.4c-0.3,0-0.5-0.2-0.5-0.5c0-0.5,0-1,0-1.5
		s0-1,0-1.5c0-0.3,0.2-0.5,0.5-0.5c0,0,0,0,0,0c0.3,0,0.5,0.2,0.5,0.5c0,0,0,0,0,0c0,0.5,0,0.9,0,1.4s0,1,0,1.5
		C101.7,190.2,101.5,190.4,101.2,190.4C101.2,190.4,101.2,190.4,101.2,190.4L101.2,190.4z M122.6,185.8c-0.2,0-0.4-0.2-0.5-0.4
		c-0.2-0.9-0.6-1.8-1-2.6c-0.1-0.2,0-0.5,0.2-0.7c0,0,0,0,0,0c0.2-0.1,0.5,0,0.7,0.2c0.5,0.9,0.8,1.9,1,2.9
		C123.1,185.4,122.9,185.7,122.6,185.8L122.6,185.8z M101.5,184.5L101.5,184.5c-0.4-0.1-0.5-0.3-0.5-0.6c0.2-1,0.4-2,0.7-2.9
		c0.1-0.3,0.3-0.4,0.6-0.4s0.4,0.3,0.4,0.6c0,0,0,0.1,0,0.1c-0.3,0.9-0.5,1.8-0.7,2.8C101.9,184.4,101.7,184.5,101.5,184.5
		L101.5,184.5z M120,180.4c-0.2,0-0.3-0.1-0.4-0.2c-0.6-0.8-1.2-1.5-1.9-2.2c-0.2-0.2-0.2-0.5,0-0.7c0.2-0.2,0.5-0.2,0.7,0
		c0.7,0.7,1.4,1.5,2,2.3c0.2,0.2,0.1,0.5-0.1,0.7C120.2,180.4,120.1,180.5,120,180.4z M103.3,178.9c-0.1,0-0.2,0-0.2-0.1
		c-0.2-0.1-0.3-0.4-0.2-0.7c0.5-0.9,1.1-1.7,1.8-2.5c0.2-0.2,0.5-0.2,0.7,0c0,0,0,0,0,0c0.2,0.2,0.2,0.5,0,0.7c0,0,0,0,0,0
		c-0.7,0.7-1.2,1.4-1.7,2.3C103.7,178.8,103.5,178.9,103.3,178.9L103.3,178.9z M115.8,176.3c-0.1,0-0.2,0-0.3-0.1
		c-0.8-0.6-1.6-1-2.5-1.4c-0.3-0.1-0.4-0.4-0.3-0.6c0,0,0,0,0,0c0.1-0.3,0.4-0.4,0.6-0.3c0,0,0,0,0,0c1,0.4,1.9,0.9,2.7,1.5
		c0.2,0.2,0.3,0.5,0.1,0.7C116.1,176.2,116,176.3,115.8,176.3L115.8,176.3z M107.5,174.9c-0.2,0-0.4-0.1-0.5-0.3
		c-0.1-0.3,0-0.5,0.2-0.7c0.9-0.4,2-0.7,3-0.6c0.3,0,0.5,0.2,0.5,0.5c0,0.3-0.2,0.5-0.5,0.5c0,0,0,0,0,0l0,0c-0.9,0-1.8,0.2-2.6,0.6
		C107.7,174.8,107.6,174.9,107.5,174.9L107.5,174.9z"></path><path class="st1" d="M115.2,220.8c-0.1,0-0.3-0.1-0.4-0.2c-0.3-0.4-0.7-0.8-1-1.1c-0.2-0.2-0.1-0.5,0.1-0.7c0.2-0.2,0.5-0.2,0.7,0
		c0,0,0,0,0,0l1,1.1c0.2,0.2,0.2,0.5,0,0.7c0,0,0,0,0,0C115.5,220.8,115.4,220.8,115.2,220.8z"></path></g><g id="image-icon"><path class="st0" d="M287.7,107.7c12.5,23.9,49.6,37.8,49.6,37.8S381,121,388.8,97.6c-17.1-1.4-33.7-6.1-48.9-13.9
		C339.8,83.7,328.3,108.9,287.7,107.7z"></path><path class="st1" d="M337.3,146c-0.1,0-0.1,0-0.2,0c-0.4-0.1-37.5-14.2-49.9-38c-0.1-0.2-0.1-0.3,0-0.5c0.1-0.1,0.3-0.2,0.4-0.2
		c20.8,0.6,33.8-5.9,41-11.4c7.8-6,10.7-12.2,10.7-12.2c0.1-0.1,0.2-0.2,0.3-0.3c0.1,0,0.3,0,0.4,0c15.2,7.7,31.7,12.4,48.7,13.8
		c0.2,0,0.3,0.1,0.4,0.2c0.1,0.1,0.1,0.3,0.1,0.4c-3.2,9.8-12.9,20.9-28.8,32.9c-7.3,5.5-15,10.6-22.9,15.2
		C337.4,146,337.4,146,337.3,146z M288.5,108.2c12.1,22.1,45.7,35.5,48.7,36.7c3.2-1.8,43-25,50.8-46.9c-16.7-1.5-33-6.1-48-13.7
		C338.2,87.8,325.3,108.9,288.5,108.2z"></path><path class="st0" d="M376.7,101.4c-2.8,5-7.7,10.3-13.1,15.2l0,0c-1.6,1.5-3.3,2.9-5,4.3c-6.5,5.3-13.3,10.1-20.3,14.6
		c-3.2-1.2-6.2-2.6-9.2-4.1c-9-4.8-17.6-10.4-25.7-16.6c27.1-6.3,37.3-21.3,37.3-21.3c8.3,3.7,18.6,5.8,26.1,6.9
		C372.6,101.1,376.7,101.4,376.7,101.4z"></path><path class="st1" d="M338.2,135.9h-0.1c-3.2-1.2-6.3-2.6-9.3-4.2c-9-4.8-17.7-10.4-25.8-16.7c-0.2-0.1-0.2-0.3-0.2-0.5
		c0-0.2,0.2-0.3,0.4-0.4c26.6-6.2,36.9-21,37-21.1c0.1-0.2,0.4-0.3,0.6-0.2c8.3,3.7,18.7,5.8,26,6.9c5.7,0.8,9.8,1.1,9.9,1.1
		c0.2,0,0.3,0.1,0.4,0.3c0.1,0.2,0.1,0.3,0,0.5c-2.5,4.5-6.9,9.6-13.2,15.3h-0.1c-1.4,1.3-3,2.6-5,4.3c-6.5,5.3-13.3,10.1-20.3,14.6
		C338.4,135.8,338.3,135.9,338.2,135.9z M304.4,114.8c7.8,6,16.1,11.4,24.8,16c2.9,1.5,5.9,2.9,8.9,4c6.9-4.4,13.6-9.2,20-14.4
		c2-1.6,3.6-3,5-4.3c0,0,0,0,0.1-0.1c5.9-5.3,10.1-10.1,12.6-14.3c-1.5-0.1-4.9-0.4-9.1-1.1c-7.2-1.1-17.5-3.2-25.9-6.8
		C339.1,96.2,328.5,108.9,304.4,114.8L304.4,114.8z"></path><path class="st2" d="M376.7,101.4c-2.8,5-7.7,10.3-13.1,15.2l0,0c-1.6,1.5-3.3,2.9-5,4.3l-12.5-1.6c-0.1-1.9-0.2-3.7-0.1-5.6
		c0.3-6.1,1.9-8.8,3.5-10.1c1.4-1.1,9.7-1.9,17.3-3.3C372.6,101.1,376.7,101.4,376.7,101.4z"></path><path class="st1" d="M358.5,121.3L358.5,121.3l-12.5-1.6c-0.2,0-0.4-0.2-0.4-0.5c-0.1-1.9-0.2-3.8-0.1-5.7
		c0.2-5.2,1.5-8.7,3.7-10.5c0.9-0.7,4.1-1.2,9.6-2.1c2.5-0.4,5.3-0.8,7.9-1.3c0.1,0,0.1,0,0.2,0c5.7,0.8,9.8,1.1,9.9,1.1
		c0.2,0,0.3,0.1,0.4,0.3c0.1,0.2,0.1,0.3,0,0.5c-2.5,4.5-6.9,9.6-13.2,15.3h-0.1c-1.4,1.3-3,2.6-5,4.3
		C358.7,121.2,358.6,121.3,358.5,121.3z M346.5,118.8l11.8,1.6c1.9-1.6,3.4-2.9,4.8-4.2c0,0,0,0,0.1-0.1
		c5.9-5.3,10.1-10.1,12.6-14.3c-1.5-0.1-4.8-0.4-9.1-1.1c-2.6,0.5-5.4,0.9-7.9,1.3c-4.3,0.7-8.4,1.3-9.1,1.9c-1.4,1.1-3,3.6-3.3,9.7
		C346.4,115.3,346.4,117,346.5,118.8L346.5,118.8z"></path><path class="st2" d="M363.5,116.5c-1.6,1.5-3.3,2.9-5,4.3c-6.5,5.3-13.3,10.1-20.3,14.6c-3.2-1.2-6.2-2.6-9.2-4.1
		c0,0-3.4-17.5-1.9-19.3c0.8-0.9,9.9,0.3,18.9,1.6C354.7,114.9,363.1,116.4,363.5,116.5z"></path><path class="st1" d="M338.2,135.9h-0.1c-3.2-1.2-6.3-2.6-9.3-4.2c-0.1-0.1-0.2-0.2-0.3-0.4c-0.6-3-3.4-17.9-1.8-19.7
		c0.4-0.5,1.1-1.3,19.3,1.5c8.3,1.3,16.7,2.8,17.6,2.9c0.2,0,0.3,0.2,0.4,0.4c0.1,0.2,0,0.4-0.1,0.5c-1.4,1.3-3,2.7-5,4.3
		c-6.5,5.3-13.3,10.1-20.3,14.6C338.4,135.9,338.3,135.9,338.2,135.9z M329.4,130.9c2.8,1.5,5.7,2.8,8.7,3.9
		c6.9-4.4,13.6-9.2,20-14.4c1.6-1.3,3-2.5,4.2-3.6c-2.5-0.4-9.5-1.7-16.5-2.8c-15.5-2.3-18.1-2-18.5-1.8
		C326.6,113.3,327.8,122.5,329.4,130.9L329.4,130.9z"></path><ellipse class="st2" cx="340" cy="106.8" rx="2.6" ry="1.8"></ellipse><path class="st1" d="M340,109.2c-1.7,0-3.1-1-3.1-2.3s1.3-2.3,3.1-2.3s3.1,1.1,3.1,2.3S341.7,109.2,340,109.2z M340,105.5
		c-1.1,0-2.1,0.6-2.1,1.3s0.9,1.3,2.1,1.3s2.1-0.6,2.1-1.3S341.1,105.5,340,105.5z"></path></g><g id="line-2"><path class="st1" d="M238.9,162.1c-0.1,0-0.3-0.1-0.4-0.2c-0.7-0.7-1.4-1.5-2-2.3c-0.2-0.2-0.1-0.5,0.1-0.7c0,0,0,0,0,0
		c0.2-0.2,0.5-0.1,0.7,0.1c0.6,0.7,1.3,1.5,2,2.2c0.2,0.2,0.2,0.5,0,0.7C239.2,162.1,239.1,162.2,238.9,162.1z M235.1,157.5
		c-0.2,0-0.3-0.1-0.4-0.2c-0.6-0.8-1.1-1.7-1.6-2.6c-0.1-0.2-0.1-0.5,0.2-0.7c0,0,0,0,0,0c0.2-0.1,0.5,0,0.7,0.2c0,0,0,0,0,0
		c0.5,0.8,1,1.7,1.5,2.5c0.2,0.2,0.1,0.5-0.1,0.7c0,0,0,0,0,0C235.3,157.5,235.2,157.5,235.1,157.5z M232.3,152.2
		c-0.2,0-0.4-0.1-0.5-0.3c-0.4-0.9-0.7-1.9-0.9-2.9c-0.1-0.3,0.1-0.6,0.4-0.6c0.3-0.1,0.6,0.1,0.6,0.4c0.2,0.9,0.5,1.9,0.9,2.8
		c0.1,0.3,0,0.5-0.3,0.6c0,0,0,0,0,0C232.4,152.2,232.4,152.2,232.3,152.2L232.3,152.2z M259.7,151.7h-0.6c-0.3,0-0.5-0.2-0.5-0.5
		c0,0,0,0,0,0c0-0.3,0.2-0.5,0.5-0.5c0,0,0,0,0,0c1,0.1,1.9,0,2.8-0.2c0.3-0.1,0.6,0.1,0.6,0.4c0.1,0.3-0.1,0.6-0.4,0.6
		C261.4,151.6,260.5,151.7,259.7,151.7L259.7,151.7z M256.1,151.1c0,0-0.1,0-0.1,0c-1-0.3-2-0.7-2.9-1.2c-0.2-0.1-0.3-0.4-0.2-0.7
		s0.4-0.3,0.7-0.2c0.8,0.5,1.7,0.9,2.7,1.1c0.3,0.1,0.4,0.4,0.3,0.6C256.5,151,256.4,151.1,256.1,151.1L256.1,151.1z M264.8,150.2
		c-0.2,0-0.3-0.1-0.4-0.2c-0.2-0.2-0.1-0.5,0.1-0.7c0.6-0.5,1.2-1.1,1.5-1.8l0.2-0.4c0.1-0.2,0.4-0.4,0.7-0.2
		c0.3,0.1,0.4,0.4,0.3,0.7c0,0,0,0,0,0l-0.2,0.4c-0.4,0.9-1,1.6-1.8,2.1C265,150.2,264.9,150.2,264.8,150.2L264.8,150.2z M251,148.2
		c-0.1,0-0.3-0.1-0.4-0.1c-0.8-0.7-1.4-1.6-1.9-2.5c-0.1-0.2,0-0.5,0.2-0.7c0.2-0.1,0.5,0,0.6,0.2c0.5,0.8,1,1.6,1.7,2.3
		c0.2,0.2,0.2,0.5,0,0.7C251.3,148.1,251.1,148.2,251,148.2L251,148.2z M230.9,146.4c-0.3,0-0.5-0.2-0.5-0.5c0-0.5-0.1-1.1-0.1-1.6
		s0-1,0.1-1.5c0-0.3,0.3-0.5,0.5-0.5c0.3,0,0.5,0.3,0.5,0.5c0,0.5-0.1,0.9-0.1,1.4s0,1,0.1,1.5C231.4,146.2,231.2,146.4,230.9,146.4
		L230.9,146.4z M267.6,145h-0.1c-0.3-0.1-0.4-0.3-0.4-0.6c0.2-0.9,0.4-1.9,0.5-2.9c0-0.3,0.3-0.5,0.5-0.5c0.3,0,0.5,0.2,0.5,0.5
		c0,0,0,0,0,0c-0.1,1-0.2,2-0.5,3C268,144.8,267.8,145,267.6,145z M248.1,143c-0.2,0-0.4-0.2-0.5-0.4c-0.2-0.9-0.3-1.8-0.3-2.8v-0.3
		c0-0.3,0.2-0.5,0.4-0.5c0,0,0,0,0.1,0c0.3,0,0.5,0.2,0.5,0.5v0.3c0,0.9,0.1,1.7,0.3,2.5c0.1,0.3-0.1,0.5-0.4,0.6c0,0,0,0,0,0
		L248.1,143z M231.4,140.5h-0.1c-0.3-0.1-0.4-0.3-0.4-0.6c0,0,0,0,0,0c0.2-1,0.6-2,1-2.9c0.1-0.3,0.4-0.4,0.6-0.3c0,0,0,0,0,0
		c0.3,0.1,0.4,0.4,0.2,0.7c-0.4,0.9-0.7,1.8-1,2.8C231.8,140.3,231.6,140.5,231.4,140.5L231.4,140.5z M268,139.1
		c-0.3,0-0.5-0.2-0.5-0.5c-0.1-1-0.2-1.9-0.5-2.9c-0.1-0.3,0.1-0.5,0.4-0.6c0.3-0.1,0.5,0.1,0.6,0.4c0.3,1,0.4,2,0.5,3
		C268.5,138.8,268.3,139,268,139.1L268,139.1z M248.2,137.1h-0.1c-0.3-0.1-0.4-0.3-0.4-0.6c0,0,0,0,0,0c0.1-0.4,0.2-0.8,0.3-1.2
		c0.2-0.6,0.4-1.2,0.6-1.8c0.1-0.3,0.4-0.4,0.6-0.3s0.4,0.4,0.3,0.6c-0.2,0.5-0.4,1.1-0.6,1.7c-0.1,0.4-0.2,0.8-0.3,1.1
		C248.6,136.9,248.4,137,248.2,137.1L248.2,137.1z M307,135.7c-0.5,0-1.1,0-1.6-0.1c-0.3,0-0.5-0.2-0.5-0.5c0,0,0,0,0,0
		c0-0.3,0.3-0.5,0.5-0.5c0,0,0,0,0,0c1,0.1,2,0.1,2.9,0c0.3,0,0.5,0.2,0.5,0.5s-0.2,0.5-0.5,0.5C308,135.7,307.5,135.7,307,135.7z
		 M302.4,135.4L302.4,135.4c-1.1-0.1-2.1-0.3-3.1-0.6c-0.3-0.1-0.5-0.3-0.4-0.6c0.1-0.3,0.3-0.5,0.6-0.4c1,0.2,2,0.4,2.9,0.6
		c0.3,0,0.5,0.3,0.4,0.6C302.9,135.1,302.7,135.3,302.4,135.4L302.4,135.4z M311.4,135.3c-0.3,0-0.5-0.2-0.6-0.4s0.2-0.5,0.4-0.6
		c0.9-0.2,1.8-0.6,2.7-1c0.2-0.1,0.5-0.1,0.7,0.2c0.1,0.2,0.1,0.5-0.2,0.7c0,0,0,0-0.1,0c-0.9,0.5-1.9,0.8-2.9,1L311.4,135.3z
		 M233.8,135c-0.1,0-0.2,0-0.3-0.1c-0.2-0.1-0.3-0.5-0.1-0.7c0.6-0.9,1.2-1.7,1.9-2.4c0.2-0.2,0.5-0.2,0.7-0.1c0,0,0,0,0,0
		c0.2,0.2,0.2,0.5,0.1,0.7c-0.6,0.7-1.2,1.5-1.8,2.3C234.1,134.9,234,135,233.8,135z M296.6,134.1c0,0-0.1,0-0.1,0
		c-1-0.3-1.9-0.6-2.9-0.9c-0.3-0.1-0.4-0.4-0.3-0.6c0.1-0.3,0.4-0.4,0.6-0.3c0,0,0,0,0,0c0.9,0.3,1.9,0.6,2.8,0.9
		c0.3,0.1,0.4,0.4,0.3,0.6C297,133.9,296.8,134.1,296.6,134.1L296.6,134.1z M266.5,133.3c-0.2,0-0.4-0.1-0.4-0.3
		c-0.4-0.9-0.9-1.7-1.5-2.4c-0.2-0.2-0.1-0.5,0.1-0.7c0.2-0.2,0.5-0.1,0.7,0.1c0.6,0.8,1.2,1.7,1.7,2.6c0.1,0.2,0,0.5-0.2,0.7
		c0,0,0,0,0,0C266.6,133.3,266.6,133.3,266.5,133.3L266.5,133.3z M290.9,132c-0.1,0-0.1,0-0.2,0c-0.9-0.4-1.9-0.8-2.8-1.2
		c-0.2-0.1-0.4-0.4-0.2-0.7c0,0,0,0,0,0c0.1-0.2,0.4-0.3,0.7-0.2c0,0,0,0,0,0c0.9,0.4,1.8,0.8,2.7,1.2c0.3,0.1,0.4,0.4,0.3,0.6
		c0,0,0,0,0,0C291.3,131.9,291.1,132.1,290.9,132L290.9,132z M250.4,131.5c-0.1,0-0.2,0-0.3-0.1c-0.2-0.1-0.3-0.4-0.2-0.7
		c0,0,0,0,0,0c0.5-0.9,1.2-1.7,1.9-2.5c0.2-0.2,0.5-0.2,0.7,0c0.2,0.2,0.2,0.5,0,0.7c-0.7,0.7-1.2,1.5-1.7,2.3
		C250.8,131.4,250.6,131.5,250.4,131.5L250.4,131.5z M237.8,130.5c-0.3,0-0.5-0.2-0.5-0.5c0-0.1,0.1-0.3,0.2-0.4
		c0.8-0.7,1.6-1.3,2.5-1.8c0.2-0.1,0.5-0.1,0.7,0.2c0.1,0.2,0.1,0.5-0.1,0.7c-0.8,0.5-1.6,1.1-2.4,1.8
		C238,130.5,237.9,130.5,237.8,130.5L237.8,130.5z M285.5,129.4c-0.1,0-0.2,0-0.2-0.1c-0.7-0.4-1.3-0.8-2-1.2l-0.6-0.3
		c-0.2-0.1-0.3-0.4-0.2-0.7c0.1-0.2,0.4-0.3,0.7-0.2c0,0,0,0,0,0c0.2,0.1,0.4,0.2,0.6,0.4c0.6,0.4,1.3,0.8,2,1.1
		c0.2,0.1,0.3,0.4,0.2,0.7c0,0,0,0,0,0C285.9,129.3,285.7,129.4,285.5,129.4L285.5,129.4z M262.8,128.6c-0.1,0-0.2,0-0.3-0.1
		c-0.8-0.6-1.6-1.1-2.5-1.5c-0.2-0.1-0.4-0.4-0.2-0.7c0.1-0.2,0.4-0.4,0.7-0.2c0.9,0.5,1.8,1,2.6,1.6c0.2,0.2,0.3,0.5,0.1,0.7
		C263.1,128.6,262.9,128.7,262.8,128.6L262.8,128.6z M242.8,127.3c-0.2,0-0.4-0.1-0.4-0.3c-0.1-0.2,0-0.5,0.2-0.7c0,0,0,0,0,0
		c0.9-0.4,1.9-0.8,2.9-1.1c0.3-0.1,0.5,0.1,0.6,0.3c0.1,0.3-0.1,0.5-0.3,0.6c-0.9,0.3-1.8,0.6-2.7,1.1
		C242.9,127.3,242.9,127.3,242.8,127.3L242.8,127.3z M254.4,127.1c-0.3,0-0.5-0.2-0.5-0.5c0-0.2,0.1-0.3,0.2-0.4
		c0.3-0.2,0.6-0.5,1-0.7l-0.7-0.1c-0.3,0-0.5-0.3-0.4-0.5c0,0,0,0,0,0c0-0.3,0.3-0.5,0.5-0.4c0,0,0,0,0,0c0.7,0.1,1.3,0.2,1.9,0.3
		l0.3-0.2c0.2-0.1,0.5,0,0.7,0.2c0,0.1,0,0.1,0,0.2h0c0.3,0.1,0.4,0.3,0.4,0.6c0,0,0,0,0,0c-0.1,0.3-0.4,0.4-0.6,0.3l-0.7-0.2
		c-0.7,0.4-1.3,0.8-1.9,1.2C254.6,127.1,254.5,127.1,254.4,127.1L254.4,127.1z M280.2,126.5c-0.1,0-0.1,0-0.2,0
		c-0.9-0.4-1.8-0.8-2.8-1.1c-0.3-0.1-0.4-0.4-0.3-0.6c0.1-0.3,0.4-0.4,0.6-0.3c0,0,0,0,0,0c1,0.3,1.9,0.7,2.8,1.1
		c0.2,0.1,0.4,0.4,0.2,0.7C280.6,126.5,280.4,126.6,280.2,126.5L280.2,126.5z M248.5,125.5c-0.2,0-0.5-0.2-0.5-0.4
		c0-0.3,0.1-0.5,0.4-0.6c0,0,0,0,0,0c1-0.2,2-0.3,3.1-0.3c0.3,0,0.5,0.2,0.5,0.5c0,0.3-0.2,0.5-0.5,0.5c0,0,0,0,0,0
		C250.5,125.2,249.5,125.3,248.5,125.5L248.5,125.5z M274.6,124.5h-0.1c-1-0.2-1.9-0.5-2.9-0.6c-0.3-0.1-0.5-0.3-0.4-0.6
		c0-0.3,0.3-0.5,0.6-0.4c0,0,0,0,0,0c1,0.2,2,0.4,3,0.6c0.3,0.1,0.4,0.3,0.4,0.6c0,0,0,0,0,0C275,124.4,274.8,124.6,274.6,124.5
		L274.6,124.5z M259.8,124.5c-0.2,0-0.4-0.1-0.5-0.4c-0.1-0.3,0.1-0.5,0.3-0.6l0,0c1-0.3,2-0.5,3-0.7c0.3,0,0.5,0.1,0.6,0.4
		c0,0.3-0.1,0.5-0.4,0.6l0,0c-1,0.2-1.9,0.4-2.9,0.6C259.9,124.5,259.8,124.5,259.8,124.5L259.8,124.5z M268.7,123.6L268.7,123.6
		c-1,0-2,0-2.9,0c-0.3,0-0.5-0.2-0.5-0.5c0,0,0,0,0,0c0-0.3,0.2-0.5,0.5-0.5c0,0,0,0,0,0c1-0.1,2-0.1,3,0c0.3,0,0.5,0.2,0.5,0.5
		S269,123.6,268.7,123.6L268.7,123.6z"></path></g><g id="video-button"><ellipse class="st2" cx="422.8" cy="261.4" rx="25" ry="21.4"></ellipse><path class="st1" d="M422.8,283.3c-14.1,0-25.5-9.8-25.5-21.9s11.5-21.9,25.5-21.9s25.5,9.8,25.5,21.9S436.9,283.3,422.8,283.3z
		 M422.8,240.6c-13.5,0-24.5,9.4-24.5,20.9s11,20.9,24.5,20.9s24.5-9.4,24.5-20.9S436.3,240.6,422.8,240.6L422.8,240.6z"></path><path class="st0" d="M413.6,257.1l5.6,11.9c0.4,0.8,1.4,1.2,2.2,0.8c0.2-0.1,0.4-0.2,0.5-0.4l9.7-11c0.6-0.7,0.5-1.7-0.1-2.3
		c-0.3-0.2-0.6-0.4-1-0.4l-15.4-0.9c-0.9-0.1-1.7,0.6-1.8,1.6C413.4,256.6,413.5,256.8,413.6,257.1z"></path><path class="st1" d="M420.7,270.4c-0.1,0-0.2,0-0.3,0c-0.7-0.1-1.3-0.6-1.6-1.2l-5.6-11.9c-0.5-1.1,0-2.4,1.1-2.9
		c0.3-0.1,0.7-0.2,1-0.2l15.3,0.9c1.2,0.1,2.1,1.1,2,2.3c0,0.5-0.2,0.9-0.5,1.3l-9.7,11C421.9,270.2,421.3,270.4,420.7,270.4z
		 M415.1,255.2c-0.4,0-0.7,0.2-1,0.5c-0.2,0.3-0.3,0.8-0.1,1.1l0,0l5.6,11.9c0.2,0.4,0.5,0.6,0.9,0.6c0.4,0,0.7-0.1,1-0.4l9.7-11
		c0.3-0.3,0.4-0.8,0.2-1.2c-0.2-0.4-0.6-0.7-1-0.7L415.1,255.2L415.1,255.2z"></path></g><g id="line-3"><path class="st1" d="M422.9,240.6h-0.2c-0.3,0-0.5-0.3-0.5-0.5c0,0,0,0,0-0.1c0,0,0.1-0.6,0.3-1.5c0-0.3,0.3-0.4,0.6-0.4
		c0,0,0,0,0,0c0.3,0.1,0.4,0.3,0.4,0.6C423.2,240.4,423.2,240.6,422.9,240.6z M423.6,236.1L423.6,236.1c-0.3,0-0.5-0.3-0.5-0.6
		c0,0,0,0,0,0c0.1-0.9,0.3-1.9,0.4-3c0-0.3,0.3-0.5,0.6-0.4c0.3,0,0.5,0.3,0.4,0.6l0,0c-0.1,1.1-0.2,2.1-0.4,3
		C424,235.9,423.8,236.1,423.6,236.1z M424.2,230.1L424.2,230.1c-0.3,0-0.5-0.3-0.5-0.5c0,0,0,0,0,0c0.1-1,0.1-2,0.1-3
		c0-0.3,0.2-0.5,0.5-0.5c0.3,0,0.5,0.2,0.5,0.5c0,1-0.1,2.1-0.1,3c0,0.3-0.2,0.5-0.4,0.6C424.3,230.1,424.3,230.1,424.2,230.1
		L424.2,230.1z M424.4,224.1c-0.3,0-0.5-0.2-0.5-0.5c0-1-0.1-2-0.2-3c0-0.3,0.2-0.5,0.5-0.5c0.3,0,0.5,0.2,0.5,0.5
		c0.1,1,0.1,2,0.2,3C424.9,223.8,424.7,224,424.4,224.1L424.4,224.1z M402.4,218.2c-0.3,0-0.5-0.2-0.5-0.5c0-0.3,0.2-0.5,0.5-0.5
		c0.9-0.2,1.8-0.6,2.5-1.1c0.2-0.2,0.5-0.1,0.7,0.1c0,0,0,0,0,0c0.2,0.2,0.1,0.5-0.1,0.7c-0.9,0.6-1.9,1.1-2.9,1.3L402.4,218.2z
		 M423.9,218.1c-0.2,0-0.5-0.2-0.5-0.4c-0.1-1-0.3-1.9-0.6-2.9c-0.1-0.3,0.1-0.5,0.4-0.6c0.3-0.1,0.5,0.1,0.6,0.4c0,0,0,0,0,0
		c0.2,0.9,0.5,1.9,0.6,3C424.4,217.8,424.2,218,423.9,218.1C423.9,218.1,423.9,218.1,423.9,218.1L423.9,218.1z M399.5,217.6
		c-0.1,0-0.2,0-0.3-0.1c-0.2-0.1-0.4-0.3-0.5-0.5c-0.6-0.7-1-1.5-1.2-2.3c-0.1-0.3,0.1-0.5,0.4-0.6c0.3-0.1,0.5,0.1,0.6,0.4
		c0.2,0.7,0.5,1.3,1,1.9c0.1,0.1,0.2,0.2,0.4,0.4c0.2,0.2,0.3,0.5,0.1,0.7C399.9,217.6,399.7,217.6,399.5,217.6L399.5,217.6z
		 M407.3,215c-0.1,0-0.2,0-0.3-0.1c-0.2-0.2-0.2-0.5,0-0.7c0,0,0,0,0,0c0.6-0.7,1.2-1.5,1.7-2.3c0.1-0.2,0.5-0.3,0.7-0.2
		c0,0,0,0,0,0c0.2,0.1,0.3,0.5,0.2,0.7c-0.5,0.9-1.2,1.7-1.9,2.5C407.6,215,407.5,215.1,407.3,215L407.3,215z M422.3,212.3
		c-0.2,0-0.4-0.1-0.5-0.3c-0.3-0.9-0.8-1.8-1.3-2.6c-0.1-0.2,0-0.5,0.2-0.7c0.2-0.1,0.5-0.1,0.7,0.2c0.5,0.9,1,1.8,1.3,2.8
		c0.1,0.3,0,0.5-0.3,0.6C422.5,212.3,422.4,212.3,422.3,212.3L422.3,212.3z M398,212.2h-0.1c-0.3-0.1-0.4-0.3-0.4-0.6c0,0,0,0,0,0
		c0.2-1,0.6-2,1.1-2.9c0.1-0.2,0.4-0.3,0.7-0.2c0.2,0.1,0.3,0.4,0.2,0.7c0,0,0,0,0,0c-0.5,0.8-0.8,1.7-1,2.6
		C398.5,212,398.3,212.2,398,212.2L398,212.2z M410.5,210c-0.1,0-0.1,0-0.2,0c-0.3-0.1-0.4-0.4-0.3-0.6c0,0,0,0,0,0
		c0.4-0.9,0.7-1.8,0.9-2.8c0.1-0.3,0.3-0.4,0.6-0.4c0.3,0.1,0.4,0.3,0.4,0.6c0,0,0,0,0,0c-0.2,1-0.6,2-1,2.9
		C410.9,209.9,410.7,210,410.5,210z M419.3,207.2c-0.1,0-0.3-0.1-0.4-0.2c-0.6-0.7-1.3-1.3-2.1-1.9c-0.2-0.2-0.3-0.5-0.1-0.7
		c0.1-0.2,0.4-0.3,0.7-0.1c0,0,0,0,0,0l0,0c0.8,0.6,1.6,1.3,2.3,2.1c0.2,0.2,0.2,0.5,0,0.7c0,0,0,0,0,0
		C419.6,207.1,419.4,207.2,419.3,207.2L419.3,207.2z M400.9,207c-0.3,0-0.5-0.2-0.5-0.5c0-0.1,0-0.3,0.1-0.4
		c0.7-0.8,1.5-1.5,2.3-2.1c0.2-0.2,0.5-0.1,0.7,0.1c0,0,0,0,0,0c0.2,0.2,0.1,0.5-0.1,0.7c0,0,0,0,0,0c-0.8,0.6-1.5,1.2-2.1,1.9
		C401.2,206.9,401,207,400.9,207z M411.9,204.2L411.9,204.2c-0.3,0-0.5-0.2-0.5-0.5c0,0,0,0,0,0c0-0.3,0-0.6,0-0.9
		c-0.2-0.1-0.3-0.4-0.2-0.7c0-0.1,0.1-0.2,0.2-0.2c0-0.4,0-0.8-0.1-1.2c0-0.3,0.2-0.5,0.4-0.6c0.3,0,0.5,0.2,0.5,0.4c0,0,0,0,0,0
		c0,0.4,0.1,0.9,0.1,1.4c0.8,0.2,1.6,0.4,2.3,0.7c0.3,0.1,0.4,0.4,0.3,0.7c-0.1,0.3-0.4,0.4-0.6,0.3c0,0,0,0,0,0
		c-0.6-0.3-1.3-0.5-1.9-0.6c0,0.2,0,0.5,0,0.7C412.4,204,412.2,204.2,411.9,204.2C411.9,204.2,411.9,204.2,411.9,204.2L411.9,204.2z
		 M405.8,203.6c-0.2,0-0.4-0.1-0.5-0.3c-0.1-0.3,0-0.5,0.3-0.6c0,0,0,0,0,0c1-0.4,2-0.7,3-0.8c0.3,0,0.5,0.2,0.6,0.4c0,0,0,0,0,0
		c0,0.3-0.2,0.5-0.4,0.6c-0.9,0.1-1.9,0.4-2.8,0.7C405.9,203.5,405.8,203.6,405.8,203.6L405.8,203.6z M411.2,198.3
		c-0.2,0-0.4-0.1-0.5-0.4c-0.3-0.9-0.7-1.8-1.1-2.7c-0.1-0.2,0-0.5,0.2-0.7c0.2-0.1,0.5,0,0.7,0.2c0.5,0.9,0.9,1.9,1.2,2.9
		c0.1,0.3-0.1,0.5-0.3,0.6C411.3,198.3,411.2,198.3,411.2,198.3L411.2,198.3z M408.5,192.9c-0.2,0-0.3-0.1-0.4-0.2
		c-0.6-0.8-1.2-1.6-1.8-2.3c-0.2-0.2-0.1-0.5,0.1-0.7c0.2-0.2,0.5-0.1,0.7,0.1c0.6,0.8,1.3,1.6,1.9,2.4c0.2,0.2,0.1,0.5-0.1,0.7
		C408.7,192.9,408.6,192.9,408.5,192.9L408.5,192.9z M404.7,188.3c-0.1,0-0.3-0.1-0.4-0.1c-0.7-0.7-1.4-1.4-2.2-2
		c-0.2-0.2-0.2-0.5-0.1-0.7c0.2-0.2,0.5-0.2,0.7-0.1c0.8,0.6,1.5,1.3,2.2,2c0.2,0.2,0.2,0.5,0,0.7c0,0,0,0,0,0
		C404.9,188.3,404.8,188.3,404.7,188.3L404.7,188.3z M369.5,186.7c-0.2,0-0.3-0.1-0.4-0.2c-0.2-0.2-0.1-0.5,0.1-0.7
		c0.8-0.7,1.6-1.3,2.4-1.8c0.2-0.2,0.5-0.1,0.7,0.1c0.2,0.2,0.1,0.5-0.1,0.7c0,0,0,0,0,0c-0.8,0.5-1.6,1.1-2.4,1.8
		C369.7,186.6,369.6,186.7,369.5,186.7L369.5,186.7z M400,184.5c-0.1,0-0.2,0-0.3-0.1c-0.8-0.6-1.7-1.1-2.5-1.5
		c-0.3-0.1-0.4-0.4-0.3-0.6c0.1-0.3,0.4-0.4,0.6-0.3c0,0,0.1,0,0.1,0.1c0.9,0.5,1.8,1,2.6,1.6c0.2,0.2,0.3,0.5,0.1,0.7
		C400.3,184.4,400.2,184.5,400,184.5z M374.4,183.3c-0.3,0-0.5-0.2-0.5-0.5c0-0.2,0.1-0.3,0.3-0.4c0.9-0.5,1.8-0.9,2.8-1.3
		c0.2-0.1,0.5,0,0.7,0.2c0.1,0.2,0,0.5-0.2,0.7c0,0-0.1,0-0.1,0c-0.9,0.4-1.8,0.8-2.7,1.3C374.6,183.3,374.5,183.3,374.4,183.3
		L374.4,183.3z M394.7,181.8c-0.1,0-0.1,0-0.2,0c-0.9-0.3-1.9-0.6-2.8-0.9c-0.3-0.1-0.4-0.3-0.4-0.6c0.1-0.3,0.3-0.4,0.6-0.4
		c1,0.3,2,0.6,2.9,0.9c0.3,0.1,0.4,0.4,0.3,0.6c0,0,0,0,0,0C395.1,181.7,394.9,181.8,394.7,181.8L394.7,181.8z M380,181
		c-0.2,0-0.4-0.1-0.5-0.4c-0.1-0.3,0.1-0.5,0.4-0.6c1-0.3,2-0.5,3-0.6c0.3,0,0.5,0.1,0.6,0.4c0,0,0,0,0,0c0,0.3-0.1,0.5-0.4,0.6
		c0,0,0,0,0,0c-1,0.1-1.9,0.3-2.9,0.6L380,181z M388.9,180.3L388.9,180.3c-0.9-0.1-1.8-0.2-2.7-0.2h-0.3c-0.3,0-0.5-0.2-0.5-0.5
		c0-0.3,0.2-0.5,0.5-0.5c0,0,0,0,0,0h0.3c0.9,0,1.8,0.1,2.7,0.2c0.3,0,0.5,0.3,0.4,0.6C389.4,180.1,389.2,180.3,388.9,180.3
		L388.9,180.3z"></path></g><g id="cloud-2"><path class="st0" d="M40.2,288.7h44.5c5.2,0.1,9.9-2.9,12.2-7.5c1.5-3.2,2-7.1-1-10.7c-7.1-8.4-17.1-3.4-17.1-3.4
		s-4-17.2-18.6-15.7S46.8,274,46.8,274s-8.8-3.7-14.2,1.7S32.4,288.7,40.2,288.7z"></path><path class="st1" d="M84.8,289.2H40.2c-4.4,0-8.3-2.4-9.8-5.8c-1.1-2.8-0.4-6,1.8-8c4.7-4.7,11.8-2.8,14-2c0-3.8,0.6-21,13.9-22.4
		s18.1,12.5,19,15.5c2.2-0.9,10.8-3.7,17.1,3.8c2.7,3.2,3.1,7.1,1.1,11.2C95,286.2,90.1,289.2,84.8,289.2z M40.3,273.3
		c-2.7-0.1-5.3,0.9-7.3,2.8c-1.9,1.7-2.6,4.5-1.6,6.9c1.3,3.1,4.8,5.2,8.8,5.2h44.5c5,0.1,9.5-2.7,11.7-7.2c1.8-3.8,1.5-7.2-1-10.1
		c-6.7-8-16.1-3.5-16.5-3.3c-0.1,0.1-0.3,0.1-0.4,0c-0.1-0.1-0.2-0.2-0.3-0.3c0-0.2-4.1-16.8-18-15.3S47.3,273.8,47.3,274
		c0,0.2-0.1,0.3-0.2,0.4c-0.1,0.1-0.3,0.1-0.5,0C44.6,273.7,42.5,273.3,40.3,273.3z"></path></g><g id="cloud-3"><path class="st0" d="M412.8,410.1c0,0,16.4,3.1,26.4-3.6c0,0,21.4,6.7,30-11.9s-23.3-27.8-35.8-16.9c0,0-9.4-10.3-20.5-6.1
		S402,382.9,402,382.9s-17.8-4.2-19.4,15S405.5,415.3,412.8,410.1z"></path><path class="st1" d="M399.2,414.1c-3.7,0.1-7.4-0.8-10.7-2.5c-4.8-2.7-7.1-7.5-6.5-13.8c0.5-6,2.6-10.3,6.3-13
		c5-3.6,11.2-2.9,13.2-2.5c0.2-1.9,1.6-7.7,11.1-11.3c10.1-3.8,19,4.1,20.8,5.9c8.3-6.8,23.8-5.2,31.8,0.8c5.9,4.4,7.4,10.5,4.4,17
		c-8.2,17.7-28,12.9-30.4,12.3c-9.6,6.2-24.3,3.9-26.3,3.6C410.1,412.5,404.7,414.1,399.2,414.1z M398,383c-3.2-0.1-6.4,0.8-9.1,2.6
		c-3.4,2.5-5.4,6.6-5.9,12.2c-0.5,6,1.5,10.3,6,12.8c7.5,4.2,19.1,2.1,23.5-1.1c0.1-0.1,0.2-0.1,0.4-0.1c0.2,0,16.3,2.9,26-3.5
		c0.1-0.1,0.3-0.1,0.4-0.1c0.2,0.1,21.1,6.3,29.4-11.7c2.8-6.1,1.4-11.7-4.1-15.8c-7.8-5.9-23-7.4-31-0.6c-0.2,0.2-0.5,0.2-0.7,0
		c-0.1-0.1-9.4-10-20-6s-10.5,10.6-10.5,10.9c0,0.2-0.1,0.3-0.2,0.4c-0.1,0.1-0.3,0.1-0.4,0.1C400.6,383.1,399.3,383,398,383z"></path></g></svg>