<svg transform="scale(1)" version="1.1" id="_x30_020_x5F_checklist_x5F_2" xmlns="http://www.w3.org/2000/svg" xmlns:xlink="http://www.w3.org/1999/xlink" x="0px" y="0px" viewBox="0 0 500 500" xml:space="preserve" class="show_show__wrapper__graphic__5Waiy "><title>React</title><style type="text/css">
	.st0{fill:#F75454;}
	.st1{fill:#FFFFFF;}
	.st2{fill:#732A09;}
</style><g id="checklist-form"><path class="st0" d="M219.6,88.5c-17,1.8-87.5,11.4-151.8,51.6c-2.5,1.5-3.5,4.6-2.4,7.3c11.3,28.3,72.1,179,106.4,221.7
		c1.6,2,4.3,2.7,6.8,1.8c18.3-6.9,95.5-36.4,138-60c2.6-1.5,3.8-4.7,2.7-7.5c-11.1-27.5-66.5-164.9-93.8-212
		C224.2,89.4,221.9,88.2,219.6,88.5L219.6,88.5z"></path><path class="st1" d="M237.5,97.2c-17,1.8-87.5,11.4-151.8,51.6c-2.5,1.5-3.5,4.6-2.4,7.3c11.3,28.3,72.1,179,106.5,221.7
		c1.6,2,4.3,2.7,6.8,1.8c18.3-6.9,95.5-36.4,138-60c2.6-1.5,3.8-4.7,2.7-7.5c-11-27.6-66.5-164.9-93.8-212.1
		C242.2,98.1,239.9,96.9,237.5,97.2L237.5,97.2z"></path><path class="st2" d="M194.4,380.6c-1.9,0-3.8-0.9-5-2.4C155.1,335.6,94.6,186,82.8,156.4c-1.2-2.9,0-6.3,2.6-7.9
		c63.6-39.8,132.4-49.7,152-51.7h0.1c2.5-0.2,4.9,1,6.2,3.2c27.4,47.2,83,185,93.9,212.1c1.2,3,0,6.5-2.9,8.1
		c-43,23.8-122.5,54.1-138,60C196,380.5,195.2,380.6,194.4,380.6z M237.4,97.8c-19.7,2.1-88.2,11.9-151.4,51.6
		c-2.3,1.4-3.2,4.2-2.2,6.7c11.8,29.6,72.2,179.1,106.4,221.6c1.5,1.8,4,2.5,6.2,1.7c15.5-5.8,95-36.1,137.9-59.9
		c2.4-1.3,3.5-4.3,2.5-6.8c-10.9-27.1-66.5-164.8-93.8-212C241.8,98.6,239.7,97.6,237.4,97.8L237.4,97.8z"></path><path class="st2" d="M186.1,129.9c-4.6,0-8.3-3.6-8.6-8.1L176.1,98c-0.2-2.6,1.7-4.9,4.3-5.3c2.7-0.4,5.3,1.5,5.7,4.2
		c0,0.2,0,0.3,0,0.5l1.3,22.6c0,0.3-0.2,0.5-0.5,0.5c0,0,0,0,0,0c-0.3,0-0.5-0.2-0.5-0.4c0,0,0,0,0,0l-1.3-22.6
		c-0.1-1.1-0.6-2.2-1.5-2.9c-0.9-0.7-2-1-3.1-0.9c-2.1,0.3-3.6,2.1-3.4,4.2l1.3,23.8c0.3,4.2,3.9,7.4,8.1,7.1s7.4-3.9,7.1-8.1
		l-1.8-26.5c-0.4-5.9-5.5-10.4-11.4-10.1c-5.9,0.4-10.4,5.5-10.1,11.4l0,0l0.1,1.4c0,0.3-0.2,0.5-0.5,0.5s-0.5-0.2-0.5-0.5l-0.1-1.4
		c-0.4-6.5,4.5-12,11-12.4c6.5-0.4,12,4.5,12.4,11l0,0l1.8,26.5c0.3,4.7-3.3,8.9-8,9.2c0,0,0,0,0,0L186.1,129.9z"></path><ellipse class="st1" transform="matrix(0.9104 -0.4137 0.4137 0.9104 -65.458 74.4915)" cx="139.2" cy="188.4" rx="16.7" ry="20.8"></ellipse><path class="st2" d="M142.1,209c-2.7,0-5.4-0.7-7.8-1.9c-4.8-2.5-8.6-6.6-10.8-11.6c-4.8-10.7-1.8-22.6,6.9-26.5l0,0
		c4.4-1.9,9.5-1.7,13.7,0.7c4.8,2.5,8.6,6.6,10.8,11.6c4.9,10.7,1.8,22.6-6.9,26.5C146.2,208.6,144.1,209,142.1,209z M130.9,169.9
		c-8.2,3.7-11,15-6.4,25.2c2.1,4.8,5.7,8.7,10.3,11.1c4,2.2,8.7,2.4,12.9,0.6c8.2-3.7,11-15,6.4-25.2c-2.1-4.8-5.7-8.7-10.3-11.1
		C139.8,168.3,135,168.1,130.9,169.9z"></path><polygon class="st0" points="154.8,164 142.6,192.6 130,186.9 132.1,182.2 139.8,185.6 150,161.7 	"></polygon><path class="st2" d="M142.6,193.1c-0.1,0-0.1,0-0.2,0l-12.6-5.6c-0.1-0.1-0.2-0.2-0.3-0.3c-0.1-0.1-0.1-0.3,0-0.4l2.2-4.8
		c0.1-0.2,0.4-0.4,0.6-0.3c0,0,0,0,0,0l7.2,3.2l10-23.5c0.1-0.1,0.2-0.2,0.3-0.3c0.1-0.1,0.3-0.1,0.4,0l4.8,2.3
		c0.2,0.1,0.3,0.4,0.2,0.6L143,192.8c-0.1,0.1-0.2,0.2-0.3,0.3C142.7,193,142.7,193.1,142.6,193.1z M130.6,186.7l11.7,5.2l11.8-27.7
		l-3.9-1.9l-10,23.5c-0.1,0.1-0.2,0.2-0.3,0.3c-0.1,0-0.3,0-0.4,0l-7.2-3.2L130.6,186.7z"></path><path class="st2" d="M168.4,178.8c-0.3,0-0.5-0.1-0.6-0.4c0-0.3,0.1-0.5,0.4-0.6c55.8-20.8,83.5-23.6,83.8-23.7
		c0.3,0,0.5,0.2,0.6,0.4c0,0.3-0.2,0.5-0.4,0.6c-0.3,0-27.9,2.9-83.5,23.6C168.5,178.8,168.5,178.8,168.4,178.8z"></path><ellipse class="st1" transform="matrix(0.9104 -0.4137 0.4137 0.9104 -85.3317 88.8973)" cx="162.6" cy="241.5" rx="16.7" ry="20.8"></ellipse><path class="st2" d="M165.4,262.1c-7.2,0-14.8-5.2-18.6-13.5c-4.9-10.7-1.8-22.6,6.9-26.5s19.6,1.6,24.5,12.2s1.8,22.6-6.9,26.5
		C169.5,261.7,167.5,262.1,165.4,262.1z M159.7,221.8c-1.9,0-3.8,0.4-5.5,1.2c-8.2,3.7-11,15-6.4,25.2s15,15.5,23.2,11.8
		s11-15,6.4-25.2C173.7,226.8,166.6,221.8,159.7,221.8L159.7,221.8z"></path><path class="st2" d="M191.7,231.9c-0.3,0.1-0.5-0.1-0.6-0.4c-0.1-0.3,0.1-0.5,0.4-0.6l0,0c44.2-20.8,81.2-26.9,81.6-27
		c0.3,0,0.5,0.1,0.6,0.4c0,0.3-0.1,0.5-0.4,0.6c0,0,0,0,0,0c-0.4,0.1-37.2,6.1-81.3,26.9C191.9,231.8,191.8,231.8,191.7,231.9z"></path><ellipse class="st1" transform="matrix(0.9104 -0.4137 0.4137 0.9104 -105.2082 103.2973)" cx="185.9" cy="294.5" rx="16.7" ry="20.8"></ellipse><path class="st2" d="M188.7,315.2c-2.7,0-5.4-0.7-7.8-1.9c-4.8-2.5-8.6-6.6-10.8-11.6c-4.9-10.7-1.8-22.6,6.9-26.5
		s19.6,1.6,24.5,12.2c2.3,4.9,2.9,10.5,1.6,15.8c-1,4.7-4.2,8.7-8.5,10.8C192.8,314.8,190.8,315.2,188.7,315.2z M183,274.9
		c-1.9,0-3.8,0.4-5.5,1.2c-8.1,3.7-11,15-6.4,25.2c2.1,4.8,5.7,8.7,10.3,11.1c6.7,3.9,15.3,1.6,19.2-5.1c0.8-1.4,1.3-2.8,1.6-4.4
		c1.2-5.1,0.6-10.4-1.6-15.1C197,279.8,189.9,274.9,183,274.9z"></path><path class="st2" d="M215,285c-0.2,0-0.4-0.1-0.4-0.3c-0.1-0.2,0-0.5,0.2-0.7c39.5-21.4,79.5-28.8,79.9-28.9c0.3,0,0.5,0.1,0.6,0.4
		c0,0.3-0.1,0.5-0.4,0.6c-0.4,0.1-40.3,7.5-79.6,28.8C215.2,285,215.1,285,215,285z"></path><polygon class="st0" points="179.6,220.3 167.4,248.9 154.8,243.3 157,238.6 164.6,242 174.8,218 	"></polygon><path class="st2" d="M167.4,249.4c-0.1,0-0.1,0-0.2,0l-12.6-5.6c-0.1-0.1-0.2-0.2-0.3-0.3c-0.1-0.1-0.1-0.3,0-0.4l2.2-4.7
		c0.1-0.2,0.4-0.4,0.6-0.3c0,0,0,0,0,0l7.2,3.2l10-23.5c0.1-0.1,0.2-0.2,0.3-0.3c0.1-0.1,0.3-0.1,0.4,0l4.8,2.3
		c0.2,0.1,0.3,0.4,0.2,0.6l-12.2,28.6c-0.1,0.1-0.2,0.2-0.3,0.3C167.5,249.4,167.5,249.4,167.4,249.4z M155.4,243l11.7,5.2
		l11.9-27.7l-3.9-1.9l-10,23.5c-0.1,0.1-0.2,0.2-0.3,0.3c-0.1,0-0.3,0-0.4,0l-7.2-3.2L155.4,243z"></path><polygon class="st0" points="203.4,269.5 191.2,298.1 178.6,292.5 180.8,287.7 188.4,291.1 198.6,267.2 	"></polygon><path class="st2" d="M191.2,298.6c-0.1,0-0.1,0-0.2,0l-12.6-5.6c-0.1-0.1-0.2-0.2-0.3-0.3c-0.1-0.1-0.1-0.3,0-0.4l2.2-4.7
		c0.1-0.2,0.4-0.4,0.6-0.3c0,0,0,0,0,0l7.2,3.2l10-23.5c0.1-0.1,0.2-0.2,0.3-0.3c0.1,0,0.3,0,0.4,0l4.8,2.3c0.2,0.1,0.3,0.4,0.2,0.6
		l-12.2,28.6c-0.1,0.1-0.2,0.2-0.3,0.3L191.2,298.6z M179.2,292.2l11.7,5.2l11.8-27.7l-3.9-1.9l-10,23.5c-0.1,0.1-0.2,0.2-0.3,0.3
		c-0.1,0-0.3,0-0.4,0l-7.2-3.2L179.2,292.2z"></path></g><g id="left-hand"><path class="st0" d="M177.6,438.9l-52,2.6c-3.1,0.2-5.8-2.1-6.1-5.2l-6.4-60.6c0.6,1.2,2.2,2.3,4.8,3.3c1.6,0.6,3.2,0.9,4.8,1.1
		l0.7,0.1c0.4,0.1,0.8,0.1,1.2,0.1c8.6,0.9,21.2,0.1,31-1.7l2.1-0.4l1.8-0.4c4.3-1,7.7-2.1,9.4-3.3s2.4-2.4,2.4-3.5L183,432
		c0.6,3.2-1.5,6.2-4.6,6.8C178.1,438.9,177.8,438.9,177.6,438.9z"></path><path class="st0" d="M123.3,380.3c-1.9-0.2-3.7-0.6-5.5-1.3c-2.6-1-4.1-2.1-4.8-3.3l-0.2-2.1c0.7-2.5,4.7-4.9,10.3-6.6
		c0.1,2.2,0.2,4.3,0.2,6.1C123.4,376.8,123.3,379.5,123.3,380.3L123.3,380.3z"></path><path class="st2" d="M123.3,380.8L123.3,380.8c-2-0.2-3.8-0.6-5.7-1.3c-2.6-1-4.3-2.2-5-3.5c0-0.1-0.1-0.1-0.1-0.2l-0.2-2.1
		c0-0.1,0-0.1,0-0.2c0.7-2.6,4.6-5.1,10.6-7c0.1,0,0.3,0,0.4,0.1c0.1,0.1,0.2,0.2,0.2,0.4c0.1,1.9,0.2,3.9,0.2,6.2
		c0,2.4,0,4.9,0,7.1C123.8,380.5,123.6,380.7,123.3,380.8L123.3,380.8z M113.5,375.6c0.6,1.1,2.2,2.1,4.5,3c1.6,0.6,3.2,0.9,4.8,1.1
		c0-2,0.1-4.3,0-6.5c0-2-0.1-3.8-0.2-5.5c-5.1,1.7-8.6,3.9-9.3,6L113.5,375.6z"></path><path class="st0" d="M168.9,374.6c-1.9,1.4-6,2.7-11.2,3.7c-1.4-4.1-2.2-8.3-2.5-12.6c9.5,0.1,15.9,2.3,16,5.3l0,0
		C171.3,372.2,170.5,373.4,168.9,374.6z"></path><path class="st2" d="M157.6,378.9c-0.2,0-0.4-0.1-0.5-0.3c-0.7-2.2-1.3-4.4-1.8-6.6c-0.4-2-0.6-4-0.7-6.1c0-0.1,0-0.3,0.1-0.4
		c0.1-0.1,0.2-0.1,0.4-0.1l0,0c9.8,0.1,16.3,2.4,16.5,5.8c0.1,1.3-0.8,2.6-2.6,4l0,0C166.8,376.8,161.6,378.1,157.6,378.9
		L157.6,378.9z M155.7,366.3c0.1,1.8,0.4,3.6,0.7,5.4c0.4,2.1,0.9,4.1,1.6,6.1c5.1-1.1,8.9-2.3,10.6-3.6l0,0
		c1.5-1.1,2.2-2.1,2.2-3.1C170.6,368.9,165.4,366.5,155.7,366.3z M168.9,374.6L168.9,374.6z"></path><path class="st1" d="M159.5,378l-1.8,0.4l-2.1,0.4c-9.8,1.7-22.4,2.6-31,1.7c-0.4,0-0.8-0.1-1.2-0.1l-0.7-0.1
		c-0.9-14-2.9-39.1-5.8-49.9c-4.2-15.3-7.5-35.5-9.5-52.8c-1.2-12.1-1.8-24.2-1.6-36.4l22.8,53.2c4.6-42.6,15.5-33.5,17.7-23.7
		s-4,49.9-4,49.9l10.4,19.1c-0.6,1.4-1.7,2.7-3,3.5L159.5,378z"></path><path class="st2" d="M132.5,381.3c-2.7,0-5.3-0.1-8-0.4c-0.4,0-0.8-0.1-1.2-0.2l-0.7-0.1c-0.2,0-0.4-0.2-0.4-0.5
		c-0.9-14-2.9-39-5.8-49.8c-3.8-13.8-7.3-33-9.6-52.9c-1.2-12.1-1.7-24.3-1.6-36.4c0-0.2,0.2-0.4,0.4-0.5c0.2,0,0.5,0.1,0.6,0.3
		l22.1,51.5c2.9-24.7,7.8-30.2,11.4-30.5c3.3-0.2,6.1,4.2,7.1,8.5c2.2,9.5-3.5,46.7-4,49.9l10.4,18.9c0.1,0.1,0.1,0.3,0,0.5
		c-0.6,1.4-1.6,2.6-2.8,3.5l9.6,34.5c0.1,0.1,0.1,0.3,0,0.4c-0.1,0.1-0.2,0.2-0.3,0.2l-1.8,0.4l-2.1,0.4
		C148,380.6,140.2,381.3,132.5,381.3z M123.1,379.8h0.3l1.2,0.1c8.1,0.9,20.5,0.2,30.9-1.7c0.7-0.1,1.4-0.3,2.1-0.4l1.3-0.3
		l-9.6-34.4c-0.1-0.2,0-0.5,0.2-0.6c1.1-0.7,2.1-1.8,2.6-3l-10.3-18.9c0-0.1,0-0.2,0-0.3c0.1-0.4,6.2-40.1,4-49.7
		c-0.9-3.9-3.3-8-6-7.8c-2.2,0.1-7.7,3.4-10.7,31.4c0,0.2-0.2,0.4-0.4,0.4c-0.2,0-0.4-0.1-0.5-0.3l-21.9-51.1
		c-0.1,11.3,0.4,22.7,1.6,34c2.3,19.8,5.7,39,9.5,52.7C120.2,340.9,122.2,365.7,123.1,379.8z"></path><path class="st2" d="M141.6,329.9c-0.3,0-0.5-0.2-0.5-0.5c0-3,0.2-6,0.7-9c0-0.3,0.3-0.5,0.6-0.4c0.3,0,0.5,0.3,0.4,0.6
		c0,0,0,0,0,0c-0.5,2.9-0.7,5.8-0.7,8.8C142.1,329.7,141.9,329.9,141.6,329.9C141.6,329.9,141.6,329.9,141.6,329.9L141.6,329.9z"></path><path class="st2" d="M139.7,345.3c-4.3,0-8.6-0.7-12.7-2.2c-0.3-0.1-0.4-0.4-0.3-0.6c0.1-0.3,0.4-0.4,0.6-0.3c0,0,0,0,0,0
		c8.2,3.1,18.6,2.3,22.2,0.4c0.2-0.1,0.5,0,0.7,0.2c0,0,0,0,0,0c0.1,0.2,0,0.5-0.2,0.7c0,0,0,0,0,0
		C148,344.6,144.1,345.3,139.7,345.3z"></path><path class="st2" d="M127.8,302L127.8,302c-0.3,0-0.5-0.3-0.5-0.5c0,0,0,0,0,0l0.8-7.1c0-0.3,0.3-0.5,0.6-0.5
		c0.3,0,0.5,0.3,0.5,0.5c0,0,0,0,0,0l-0.8,7.1C128.2,301.8,128,302,127.8,302z"></path></g><g id="right-hand"><rect class="st1" x="305.1" y="218.8" width="22.9" height="20.4"></rect><path class="st2" d="M328,239.8h-22.9c-0.3,0-0.5-0.2-0.5-0.5v-20.4c0-0.3,0.2-0.5,0.5-0.5H328c0.3,0,0.5,0.2,0.5,0.5v20.4
		C328.5,239.5,328.3,239.8,328,239.8z M305.6,238.8h21.9v-19.4h-21.9V238.8z"></path><path class="st0" d="M391.5,178.3l-17.2,8.8c0.2,1,0.6,2,1.4,2.8l17.3-8.9c0.8-0.4,1.1-1.3,0.7-2.1
		C393.2,178.3,392.3,178,391.5,178.3L391.5,178.3z"></path><path class="st2" d="M375.6,190.4c-0.1,0-0.3-0.1-0.4-0.2c-0.8-0.8-1.3-1.9-1.5-3c0-0.2,0.1-0.4,0.3-0.5l17.2-8.8h0.1
		c1-0.5,2.2-0.1,2.7,0.9c0.3,0.6,0.3,1.2,0,1.8c-0.2,0.4-0.5,0.8-0.9,1l-17.3,8.9C375.8,190.5,375.7,190.4,375.6,190.4z
		 M374.8,187.4c0.2,0.7,0.5,1.3,0.9,1.9l16.9-8.7c0.2-0.1,0.4-0.3,0.5-0.5c0.1-0.3,0.1-0.6,0-0.9c-0.1-0.3-0.3-0.4-0.6-0.5
		c-0.3-0.1-0.5-0.1-0.8,0.1h-0.1L374.8,187.4z"></path><path class="st2" d="M258.2,249l-4.6,1.7c-0.1,0-0.2,0-0.2-0.1c0-0.1,0-0.1,0.1-0.2l4.2-3.1L258.2,249L258.2,249z"></path><path class="st2" d="M253.5,251.3c-0.2,0-0.5-0.1-0.6-0.4c-0.2-0.3-0.1-0.7,0.2-0.9l4.2-3.1c0.1-0.1,0.3-0.1,0.5-0.1
		c0.2,0,0.3,0.2,0.3,0.3l0.6,1.6c0.1,0.2,0.1,0.5-0.1,0.6l0,0c-0.1,0.1-0.2,0.1-0.2,0.1l-4.5,1.7
		C253.7,251.2,253.6,251.3,253.5,251.3z M253.4,250.3L253.4,250.3z M257.3,248.1l-1.8,1.4l2-0.8L257.3,248.1z"></path><path class="st0" d="M293.4,223c0.7,5.8,4.5,10.2,5.7,11.4l14.5-7.4c-1.3-1.3-5-5.7-5.6-11.4L293.4,223z"></path><path class="st2" d="M299.1,234.9c-0.1,0-0.3-0.1-0.4-0.2c-1.2-1.2-5.1-5.7-5.8-11.7c0,0,0-0.1,0-0.1c0-0.2,0.1-0.4,0.3-0.5
		l14.5-7.4c0.3-0.1,0.6,0,0.7,0.2c0,0,0,0.1,0,0.2c0.6,5.6,4.4,10,5.5,11.2c0.1,0.1,0.2,0.3,0.1,0.4c0,0.2-0.1,0.3-0.3,0.4
		l-14.5,7.4C299.3,234.9,299.2,234.9,299.1,234.9z M294,223.2c0.7,3.9,2.5,7.6,5.2,10.5l13.6-6.9c-2.7-3-4.5-6.6-5.2-10.5L294,223.2
		z"></path><path class="st1" d="M379.5,178.9L308,215.5c0.6,5.7,4.4,10.1,5.6,11.4l71.8-36.8c3.1-1.6,4.3-5.5,2.7-8.6
		C386.5,178.5,382.7,177.3,379.5,178.9L379.5,178.9z"></path><path class="st2" d="M313.6,227.5c-0.1,0-0.3-0.1-0.4-0.2c-1.5-1.6-5.1-6-5.8-11.7c0-0.2,0.1-0.4,0.3-0.5l71.5-36.6l0.1-0.1
		c3.4-1.7,7.5-0.4,9.2,3c0,0.1,0.1,0.1,0.1,0.2c1.6,3.4,0.3,7.4-3.1,9.1l-71.8,36.7C313.7,227.4,313.6,227.5,313.6,227.5z
		 M308.5,215.8c0.7,3.9,2.5,7.6,5.2,10.6l71.4-36.6c1.2-0.6,2.2-1.7,2.7-2.9c0.7-1.6,0.6-3.3-0.1-4.9c-1.4-2.9-4.9-4.2-7.8-2.8
		c0,0-0.1,0-0.1,0l-0.1,0.1L308.5,215.8z M379.5,178.9L379.5,178.9z"></path><path class="st1" d="M257.9,250.5l6.6,0.4c1.6,0.1,3.3-0.3,4.8-1l29.8-15.4c-1.2-1.2-5-5.6-5.7-11.4l-29.8,15.4
		c-1.4,0.7-2.5,1.7-3.4,3l-3.9,5.6c-0.7,1-0.4,2.4,0.6,3.1C257.1,250.3,257.5,250.4,257.9,250.5L257.9,250.5z"></path><path class="st2" d="M265,251.3h-0.5l-6.6-0.4l0,0c-1.5-0.1-2.6-1.4-2.5-2.9c0-0.5,0.2-1,0.5-1.4l3.9-5.7c0.9-1.3,2.2-2.4,3.6-3.1
		l29.8-15.4c0.1-0.1,0.3-0.1,0.5,0c0.1,0.1,0.2,0.2,0.3,0.4c0.7,5.6,4.4,10,5.5,11.1c0.2,0.2,0.2,0.5,0,0.7c0,0-0.1,0.1-0.1,0.1
		l-29.8,15.4C268.1,251,266.6,251.3,265,251.3z M258,250l6.6,0.4c1.6,0.1,3.1-0.3,4.5-1l29.3-15.1c-2.7-2.9-4.5-6.6-5.3-10.5
		l-29.2,15.1c-1.3,0.7-2.4,1.6-3.2,2.8l-3.9,5.7c-0.5,0.8-0.4,1.8,0.4,2.4C257.3,249.9,257.6,250,258,250z"></path><path class="st2" d="M267.9,250.9c-0.1,0-0.2-0.1-0.3-0.1c-0.2-0.2-5.2-5-5.6-11.6c0-0.3,0.2-0.5,0.5-0.5c0.3,0,0.5,0.2,0.5,0.5
		c0.5,6.2,5.3,10.9,5.3,10.9c0.2,0.2,0.2,0.5,0,0.7c0,0,0,0,0,0C268.1,250.8,268,250.9,267.9,250.9z"></path><path class="st2" d="M361.1,186.1c-0.3,0.1-0.5-0.1-0.6-0.4c-0.1-0.3,0.1-0.5,0.4-0.6l14.1-7c0.9-0.4,1.9-0.1,2.4,0.8l0.5,0.8
		c0.1,0.2,0,0.5-0.2,0.7c-0.2,0.1-0.5,0-0.7-0.2l-0.5-0.8c-0.2-0.4-0.7-0.5-1.1-0.3l-14.1,7C361.2,186.1,361.1,186.1,361.1,186.1z"></path><path class="st2" d="M359.7,203.8c-0.1,0-0.3-0.1-0.4-0.2c-1.2-1.2-5.1-5.8-5.8-11.7c0-0.3,0.2-0.5,0.4-0.6s0.5,0.2,0.6,0.4
		c0.7,5.6,4.4,10,5.5,11.1c0.2,0.2,0.2,0.5,0,0.7c0,0,0,0,0,0C360,203.8,359.8,203.8,359.7,203.8z"></path><path class="st1" d="M294,238.5c-3.8,9.2-7,16.1-5.6,17.1s17.3-1.4,16.8-11.6S294,238.5,294,238.5L294,238.5z"></path><path class="st2" d="M289.6,256.3c-0.6,0-1.1-0.1-1.6-0.3c-1.4-1,0.1-4.9,3.8-13.7c0.5-1.3,1.1-2.6,1.7-4c0-0.1,0.1-0.2,0.2-0.3
		c0.2-0.1,5.4-2.5,8.9-0.3c1.8,1.1,2.8,3.2,2.9,6.2c0.2,4-2,7.4-6.3,9.7C296.3,255.2,293,256.1,289.6,256.3z M294.3,238.9
		c-0.5,1.3-1.1,2.6-1.6,3.8c-2.3,5.6-5,11.9-4.1,12.5c0.6,0.4,6.3,0,10.9-2.8c3.5-2.1,5.2-5,5.1-8.4c-0.1-2.6-1-4.4-2.5-5.4
		C299.4,236.9,295.2,238.5,294.3,238.9L294.3,238.9z"></path><path class="st0" d="M423.8,311.1l-46.1,29.3c-2.7,1.7-6.4,1-8.3-1.6l-37.2-51.9c1.2,0.7,3.1,1,6.1,0.5c1.9-0.3,3.8-0.9,5.6-1.7
		c0.4-0.1,0.8-0.3,1.2-0.5c8.3-3.6,19.4-10.9,27.4-17.6c0.6-0.5,1.2-1,1.7-1.5c4.2-3.6,7.3-7,8.3-9.2c0.9-2,1-3.5,0.3-4.4l42.3,49.5
		c2.2,2.6,1.9,6.4-0.7,8.6C424.2,310.8,424,311,423.8,311.1L423.8,311.1z"></path><path class="st1" d="M374.2,266.1c-0.6,0.5-1.1,1-1.7,1.5c-8,6.6-19.1,14-27.4,17.6c-0.4,0.2-0.8,0.4-1.2,0.5
		c-0.4-0.7-1.7-3.2-3.6-6.5c-1-1.7-2.1-3.6-3.4-5.5c-3.6-5.6-8-11.6-11.9-14.6c-8.3-6.4-39.8-20.1-39.1-28.7s12.6-5.4,18.2-3.4
		s21.5,9.9,21.5,9.9l-4.1-13.9l27-13.8c0,0,3.5,6.6,6.9,19.9c2.4,9.3,4.7,18.4,10.1,26.9c1.1,1.8,2.4,3.5,3.8,5.1
		C370.8,262.9,372.4,264.6,374.2,266.1L374.2,266.1z"></path><path class="st2" d="M343.9,286.2c-0.2,0-0.4-0.1-0.4-0.3c-0.4-0.7-1.7-3.2-3.6-6.5c-1-1.6-2.1-3.5-3.4-5.5
		c-4.6-7.1-8.6-12-11.8-14.5c-2.5-2-7.1-4.6-12.5-7.6c-12.8-7.2-27.3-15.3-26.8-21.6c0-2,1-3.8,2.7-4.9c4.1-2.6,11.9-0.5,16.2,1
		c4.8,1.7,16.9,7.6,20.5,9.4l-3.8-12.8c-0.1-0.2,0-0.5,0.2-0.6l27-13.8c0.2-0.1,0.5,0,0.7,0.2c0,0.1,3.6,6.8,7,20l0.1,0.4
		c2.4,9.3,4.7,18.1,10,26.3c2.4,3.8,5.3,7.2,8.7,10.1c0.2,0.2,0.2,0.5,0,0.7c0,0,0,0,0,0c-0.6,0.5-1.1,1-1.8,1.5
		c-8.6,7.1-19.7,14.2-27.5,17.7l-1.2,0.5L343.9,286.2z M293.3,225.2c-1.6-0.1-3.3,0.3-4.7,1.1c-1.4,0.9-2.2,2.5-2.2,4.1
		c-0.5,5.6,15,14.3,26.3,20.6c5.4,3,10,5.6,12.6,7.6c3.3,2.5,7.3,7.5,12,14.8c1.3,2,2.4,3.9,3.4,5.5c1.7,2.8,2.9,5.1,3.4,6.1
		l0.8-0.3c7.8-3.4,18.8-10.4,27.3-17.5c0.5-0.4,0.9-0.7,1.3-1.1c-1.6-1.5-3.2-3.1-4.6-4.8c-1.4-1.6-2.7-3.4-3.8-5.2
		c-5.4-8.4-7.8-17.6-10.1-26.6l-0.1-0.4c-1.6-6.6-3.8-13.1-6.7-19.4L322,223.2l4,13.5c0.1,0.2,0,0.4-0.2,0.5
		c-0.2,0.1-0.4,0.2-0.5,0.1c-0.2-0.1-15.9-7.9-21.4-9.9C300.5,226.1,296.9,225.4,293.3,225.2L293.3,225.2z"></path><path class="st2" d="M332.2,287.4c-0.1,0-0.2,0-0.3-0.1c-0.8-0.5-1.3-1.2-1.5-2.1c-0.1-0.3,0.1-0.5,0.4-0.6c0,0,0,0,0,0
		c0.3-0.1,0.5,0.1,0.6,0.4c0.1,0.6,0.5,1.1,1,1.5c0.2,0.1,0.3,0.4,0.2,0.7c0,0,0,0,0,0C332.5,287.3,332.3,287.3,332.2,287.4z"></path><path class="st0" d="M343.9,285.7c-1.8,0.8-3.7,1.4-5.6,1.7c-2.9,0.4-4.9,0.2-6.1-0.5l-1.3-1.8c-0.6-2.6,1.8-6.9,6-11.4
		c1.2,1.9,2.4,3.8,3.4,5.5C342.1,282.5,343.5,285,343.9,285.7L343.9,285.7z"></path><path class="st2" d="M335.6,288.1c-1.3,0.1-2.6-0.2-3.7-0.8c-0.1,0-0.1-0.1-0.1-0.1l-1.3-1.8c0-0.1-0.1-0.1-0.1-0.2
		c-0.7-2.7,1.5-7,6.1-11.8c0.2-0.2,0.5-0.2,0.7,0c0,0,0.1,0.1,0.1,0.1c1.3,2,2.4,3.9,3.4,5.5c1.9,3.3,3.3,5.8,3.6,6.5
		c0.1,0.1,0.1,0.3,0,0.4c0,0.1-0.2,0.2-0.3,0.3c-1.8,0.8-3.8,1.4-5.8,1.7C337.4,288,336.5,288.1,335.6,288.1z M332.5,286.5
		c1.1,0.7,3,0.8,5.6,0.4c1.7-0.3,3.4-0.8,5-1.5c-0.6-1-1.8-3.2-3.4-6c-0.9-1.5-1.9-3.1-3-4.9c-3.8,4.2-5.9,8.1-5.4,10.3L332.5,286.5
		z"></path><path class="st0" d="M382.5,256.9c-1,2.3-4.1,5.6-8.3,9.2c-1.8-1.6-3.5-3.3-5-5.1c-1.4-1.6-2.6-3.3-3.8-5.1
		c8.8-4.8,15.7-6.1,17.4-3.4l0,0C383.5,253.5,383.4,254.9,382.5,256.9L382.5,256.9z"></path><path class="st2" d="M374.2,266.6c-0.1,0-0.2,0-0.3-0.1c-1.8-1.6-3.5-3.3-5-5.2c-1.4-1.6-2.7-3.4-3.8-5.2c-0.1-0.1-0.1-0.3-0.1-0.4
		c0-0.1,0.1-0.3,0.2-0.3c9-5,16.1-6.2,18.1-3.3l0,0.1c0.7,1.1,0.6,2.8-0.3,4.8l0,0c-1.3,2.8-5.3,6.7-8.4,9.4
		C374.5,266.6,374.3,266.6,374.2,266.6z M366.1,256.1c1.1,1.6,2.2,3.2,3.5,4.6c1.4,1.7,3,3.3,4.6,4.8c4.2-3.6,6.9-6.8,7.8-8.8
		c0.8-1.8,0.9-3.1,0.4-3.9c0,0,0-0.1,0-0.1C381,250.8,375,251.3,366.1,256.1L366.1,256.1z M382.5,256.9L382.5,256.9z"></path><path class="st1" d="M341.6,198.3c-4.4-5.4-15.1-8.4-28-2.5s-25.4,16.9-31.4,20.2s-3.7,13,8,8.3s17.5-12.5,19.6-13.4
		s8.3-0.7,8.3-0.7L341.6,198.3z"></path><path class="st2" d="M284.5,226.1c-3,0-4.8-1.3-5.6-3c-1.2-2.6,0.1-5.9,3-7.5c3-1.8,5.8-3.8,8.6-5.9c6.5-4.7,14.5-10.6,22.9-14.4
		c13.3-6.1,24.2-2.9,28.6,2.6c0.1,0.1,0.1,0.3,0.1,0.4c0,0.1-0.1,0.3-0.3,0.4l-23.5,12c-0.1,0-0.2,0-0.2,0.1c-0.1,0-6.1-0.1-8.1,0.7
		c-1,0.6-1.9,1.4-2.8,2.2c-4.9,4.7-10.6,8.5-16.9,11.1C288.5,225.7,286.5,226.1,284.5,226.1z M327.7,193.1
		c-4.8,0.1-9.5,1.1-13.9,3.1c-8.2,3.8-16.3,9.6-22.7,14.3c-2.8,2.1-5.7,4.1-8.7,5.9c-2.7,1.5-3.5,4.4-2.6,6.2
		c1,2.1,4.2,3.6,10.1,1.2c6.2-2.6,11.8-6.3,16.6-10.9c0.9-0.9,1.9-1.8,3-2.4c2-0.8,7.4-0.8,8.4-0.7l22.9-11.7
		C337.7,194.6,332.9,193.1,327.7,193.1L327.7,193.1z"></path><path class="st2" d="M317.8,233.6L317.8,233.6c-0.3,0-0.5-0.3-0.5-0.5c0,0,0,0,0,0l0.6-8.6c0-0.3,0.3-0.5,0.5-0.5
		c0.3,0,0.5,0.3,0.5,0.5l-0.6,8.6C318.3,233.4,318,233.6,317.8,233.6C317.8,233.6,317.8,233.6,317.8,233.6z"></path></g></svg>