<svg transform="scale(1)" version="1.1" id="_x30_232_x5F_Coding_x5F_8" xmlns="http://www.w3.org/2000/svg" xmlns:xlink="http://www.w3.org/1999/xlink" x="0px" y="0px" viewBox="0 0 500 500" xml:space="preserve" class="show_show__wrapper__graphic__5Waiy "><title>React</title><style type="text/css">
	.st0{fill:#FFFFFF;}
	.st1{fill:#732A09;}
	.st2{fill:#F75454;}
</style><g id="coding"><rect class="st0" x="67.9" y="86.4" width="193" height="121.8"></rect><path class="st1" d="M260.9,208.8h-193c-0.3,0-0.5-0.2-0.5-0.5V86.4c0-0.3,0.2-0.5,0.5-0.5h193c0.3,0,0.5,0.2,0.5,0.5v121.8
		C261.4,208.5,261.2,208.8,260.9,208.8z M68.4,207.8h192V86.9h-192V207.8z"></path><path class="st1" d="M136.4,109H90c-0.3,0-0.5-0.2-0.5-0.5s0.2-0.5,0.5-0.5h46.4c0.3,0,0.5,0.2,0.5,0.5S136.7,109,136.4,109
		L136.4,109z"></path><path class="st1" d="M169.9,109h-24.1c-0.3,0-0.5-0.2-0.5-0.5s0.2-0.5,0.5-0.5h24.1c0.3,0,0.5,0.2,0.5,0.5S170.1,109,169.9,109z"></path><path class="st1" d="M197.8,109h-16.8c-0.3,0-0.5-0.2-0.5-0.5s0.2-0.5,0.5-0.5h16.8c0.3,0,0.5,0.2,0.5,0.5S198,109,197.8,109z"></path><path class="st1" d="M239.2,109h-33.8c-0.3,0-0.5-0.2-0.5-0.5s0.2-0.5,0.5-0.5h33.8c0.3,0,0.5,0.2,0.5,0.5S239.5,109,239.2,109z"></path><path class="st1" d="M113.8,141.2H89.6c-0.3,0-0.5-0.2-0.5-0.5s0.2-0.5,0.5-0.5h24.1c0.3,0,0.5,0.2,0.5,0.5S114,141.2,113.8,141.2z
		"></path><path class="st1" d="M141.7,141.2h-16.8c-0.3,0-0.5-0.2-0.5-0.5c0-0.3,0.2-0.5,0.5-0.5h16.8c0.3,0,0.5,0.2,0.5,0.5
		C142.2,140.9,141.9,141.2,141.7,141.2z"></path><path class="st2" d="M201.8,141.2h-52.5c-0.3,0-0.5-0.2-0.5-0.5c0-0.3,0.2-0.5,0.5-0.5h52.5c0.3,0,0.5,0.2,0.5,0.5
		C202.3,140.9,202.1,141.2,201.8,141.2z"></path><path class="st1" d="M107.4,124.2H90.6c-0.3,0-0.5-0.2-0.5-0.5s0.2-0.5,0.5-0.5h16.8c0.3,0,0.5,0.2,0.5,0.5
		S107.7,124.2,107.4,124.2z"></path><path class="st2" d="M167.6,124.2h-52.5c-0.3,0-0.5-0.2-0.5-0.5s0.2-0.5,0.5-0.5h52.5c0.3,0,0.5,0.2,0.5,0.5
		S167.9,124.2,167.6,124.2z"></path><path class="st1" d="M189.1,124.2h-16.8c-0.3,0-0.5-0.2-0.5-0.5s0.2-0.5,0.5-0.5h16.8c0.3,0,0.5,0.2,0.5,0.5
		S189.4,124.2,189.1,124.2z"></path><path class="st1" d="M230.5,124.2h-33.8c-0.3,0-0.5-0.2-0.5-0.5s0.2-0.5,0.5-0.5h33.8c0.3,0,0.5,0.2,0.5,0.5
		S230.8,124.2,230.5,124.2L230.5,124.2z"></path><path class="st2" d="M136.4,154.5H90c-0.3,0-0.5-0.2-0.5-0.5s0.2-0.5,0.5-0.5h46.4c0.3,0,0.5,0.2,0.5,0.5
		C136.9,154.3,136.7,154.5,136.4,154.5z"></path><path class="st1" d="M169.9,154.5h-24.1c-0.3,0-0.5-0.2-0.5-0.5s0.2-0.5,0.5-0.5h24.1c0.3,0,0.5,0.2,0.5,0.5
		S170.1,154.5,169.9,154.5z"></path><path class="st1" d="M197.8,154.5h-16.8c-0.3,0-0.5-0.2-0.5-0.5c0-0.3,0.2-0.5,0.5-0.5h16.8c0.3,0,0.5,0.2,0.5,0.5
		C198.2,154.3,198,154.5,197.8,154.5z"></path><path class="st1" d="M239.2,154.5h-33.8c-0.3,0-0.5-0.2-0.5-0.5c0-0.3,0.2-0.5,0.5-0.5h33.8c0.3,0,0.5,0.2,0.5,0.5
		S239.5,154.5,239.2,154.5z"></path><path class="st1" d="M113.8,186.6H89.6c-0.3,0-0.5-0.2-0.5-0.5s0.2-0.5,0.5-0.5h24.1c0.3,0,0.5,0.2,0.5,0.5S114,186.6,113.8,186.6z
		"></path><path class="st1" d="M141.7,186.6h-16.8c-0.3,0-0.5-0.2-0.5-0.5c0-0.3,0.2-0.5,0.5-0.5h16.8c0.3,0,0.5,0.2,0.5,0.5
		C142.2,186.4,141.9,186.6,141.7,186.6z"></path><path class="st2" d="M201.8,186.6h-52.5c-0.3,0-0.5-0.2-0.5-0.5c0-0.3,0.2-0.5,0.5-0.5h52.5c0.3,0,0.5,0.2,0.5,0.5
		C202.3,186.4,202.1,186.6,201.8,186.6z"></path><path class="st1" d="M107.4,169.7H90.6c-0.3,0-0.5-0.2-0.5-0.5s0.2-0.5,0.5-0.5h16.8c0.3,0,0.5,0.2,0.5,0.5
		S107.7,169.7,107.4,169.7z"></path><path class="st1" d="M167.6,169.7h-52.5c-0.3,0-0.5-0.2-0.5-0.5s0.2-0.5,0.5-0.5h52.5c0.3,0,0.5,0.2,0.5,0.5
		S167.9,169.7,167.6,169.7z"></path><path class="st1" d="M189.1,169.7h-16.8c-0.3,0-0.5-0.2-0.5-0.5s0.2-0.5,0.5-0.5h16.8c0.3,0,0.5,0.2,0.5,0.5
		S189.4,169.7,189.1,169.7z"></path><path class="st1" d="M230.5,169.7h-33.8c-0.3,0-0.5-0.2-0.5-0.5s0.2-0.5,0.5-0.5h33.8c0.3,0,0.5,0.2,0.5,0.5
		S230.8,169.7,230.5,169.7L230.5,169.7z"></path></g><g id="character"><path class="st0" d="M250.6,322.4L233,343.9c-8.2,10-10.3,23.6-5.7,35.6l22.4,58.1c1.1,3,4.1,4.8,7.3,4.5l0,0
		c12-1.3,23.4-5.9,32.9-13.4l0.2-0.1c2.3-1.8,3.3-4.8,2.4-7.6l-18.6-60.2c0,0,2.6-4.1,28.6-12.2s53.2-27.4,53.2-56.3
		c0,0-0.8-11.7-2.1-13.9s-84.8-32.8-84.8-32.8l-62-27.2l-3.2,4.2l-29.9,70.7c-1.6,3.8,0,8.1,3.7,9.9c8.3,4,22.7,10,32.8,8.4l9.2-9.1
		l37.7,14.3L250.6,322.4z"></path><path class="st1" d="M256.3,442.6c-3.1,0-5.9-1.9-7-4.8l-22.4-58.1c-4.7-12.2-2.5-26,5.8-36.1l17.6-21.5l0.1-0.1l5.9-4.9
		l-36.5-13.9l-9,8.8c-0.1,0.1-0.2,0.1-0.3,0.1c-10.3,1.6-25.1-4.6-33.1-8.5c-3.9-1.9-5.7-6.6-4-10.6l30-70.7l0.1-0.1l3.2-4.2
		c0.1-0.2,0.4-0.2,0.6-0.1l62,27.2c13.9,5.1,83.7,30.7,85,33s2,12.9,2.1,14.1c0,13.5-5.7,25.7-17,36.3c-9.3,8.7-22.3,16-36.6,20.5
		c-22.6,7.1-27.4,11-28.2,11.9l18.5,59.9c0.9,3-0.1,6.2-2.6,8.2l-0.2,0.1c-9.6,7.5-21.1,12.1-33.1,13.4
		C256.8,442.6,256.6,442.6,256.3,442.6z M250.9,322.8l-17.5,21.5c-8,9.9-10.2,23.3-5.6,35.1l22.4,58.1c1.1,2.8,3.9,4.5,6.8,4.1
		c11.9-1.3,23.2-5.9,32.6-13.2l0.2-0.1c2.1-1.7,3-4.5,2.2-7.1L273.4,361c0-0.1,0-0.3,0-0.4c0.1-0.2,3-4.3,28.9-12.4
		c39-12.2,52.9-36.9,52.9-55.8c-0.2-3.2-1-11.9-2-13.6c-1.7-1.8-51.5-20.4-84.5-32.5l-61.6-27l-2.9,3.8l-29.9,70.7
		c-1.5,3.5,0,7.6,3.5,9.3c7.8,3.8,22.2,9.9,32.3,8.4l9.1-8.9c0.1-0.1,0.3-0.2,0.5-0.1l37.6,14.3c0.2,0.1,0.3,0.2,0.3,0.4
		c0,0.2,0,0.3-0.2,0.5L250.9,322.8z"></path><path class="st0" d="M263.7,150.2l49.3-16.6c0,0,8.4-0.5,11.5,4.4s3,6.1,4.2,6.4s9.1,0.1,12.5,7.2s2.5,9.1,3,10.7
		s9.1,6.1,10.5,16.1s-4.4,14.7-4.4,14.7l-78.6-5.3c-14.1,3-20.2-5.4-21.8-13.7s6.7-11.8,7.4-13.3S257.4,152.7,263.7,150.2"></path><path class="st1" d="M350.2,193.6L350.2,193.6l-78.6-5.3c-6,1.3-11,0.6-14.9-1.9s-6.4-6.8-7.5-12.1c-1.3-6.6,3.5-10.4,6-12.3
		c0.5-0.3,1-0.8,1.4-1.2c0.2-0.5,0.3-1,0.3-1.4c0.5-2.6,1.3-7.5,6.5-9.6l0,0l49.3-16.6h0.1c0.4,0,8.8-0.5,12,4.6
		c1.3,2,2,3.4,2.5,4.4c0.7,1.4,0.9,1.7,1.4,1.8c0.1,0,0.4,0.1,0.7,0.1c2.5,0.2,9.1,0.9,12.1,7.4c2.5,5.4,2.7,8,2.9,9.5
		c0,0.4,0.1,0.9,0.2,1.3c0.5,0.6,1,1.2,1.7,1.7c2.7,2.4,7.8,6.9,8.8,14.5c1.4,10.2-4.3,15-4.5,15.2
		C350.4,193.6,350.3,193.7,350.2,193.6z M271.6,187.4L271.6,187.4l78.4,5.2c0.9-0.8,5.2-5.4,4-14.1c-1-7.2-5.9-11.5-8.5-13.9
		c-1.1-1-1.8-1.6-2-2.2c-0.1-0.5-0.2-1-0.2-1.5c-0.1-1.6-0.3-3.9-2.8-9.1c-2.8-6-9-6.6-11.3-6.9l-0.8-0.1c-0.9-0.2-1.3-0.9-2-2.3
		c-0.5-0.9-1.2-2.3-2.5-4.3c-2.7-4.4-10.2-4.2-11-4.1l-49.2,16.5c-4.7,1.9-5.4,6.2-5.9,8.8c-0.1,0.6-0.2,1.2-0.4,1.7
		c-0.5,0.6-1,1.2-1.7,1.6c-2.6,2-6.8,5.3-5.6,11.4c1,5.1,3.5,9.2,7.1,11.5c3.5,2.3,8.5,3,14.2,1.8L271.6,187.4z"></path><path class="st2" d="M212.4,198.4c3.2-1,5.4-0.1,8.4,3.6s18.8,21.8,18.8,21.8s10.6-23.8,14.5-32s16.8-20.2,25.8-23s31.8-4.3,47,0
		s21.4,16.7,25.3,26.1s12.8,52.1,12.6,56.5s-7.5,10.2-7.5,10.2l6.2,21.4c0,0-22,10.4-39.9,9s-18.1-7.1-18.1-7.1l-19.8-4.7
		c0,0-31.3-4.1-33.6-6.1s0.9-20.3,0.9-20.3s-17.2,13.4-31.7-5.9s-23.9-38.4-22.1-41.4S212.4,198.4,212.4,198.4z"></path><path class="st0" d="M214.2,199.6c-3.7-11.6-7.3-15.1-11-17.9s-3.6-8.1-5.6-8.9c-1.5-0.6-4.6,4.1-3.3,9.7s3.3,21,3.3,21l-1.6,3.3
		c1.8,1.2,4,1.6,6.1,0.9C205.8,206.6,214.2,199.6,214.2,199.6z"></path><path class="st1" d="M199.8,208.5c-1.5,0-3-0.4-4.2-1.3c-0.2-0.2-0.2-0.4-0.1-0.6l1.6-3.1c-0.2-1.6-2-15.6-3.2-20.8
		c-1-4.6,0.7-8.6,2.2-9.9c0.4-0.5,1.1-0.6,1.7-0.4c1,0.5,1.5,1.8,2.2,3.4c0.7,1.8,1.6,4.1,3.5,5.6c3.8,2.9,7.4,6.4,11.2,18.1
		c0.1,0.2,0,0.4-0.1,0.5c-0.4,0.3-8.5,7.1-12.3,8.2C201.4,208.4,200.6,208.5,199.8,208.5z M196.6,206.7c1.6,0.9,3.6,1.1,5.3,0.6
		c3.2-0.9,10.2-6.6,11.7-7.8c-3.6-11.2-7.2-14.6-10.7-17.3c-2.2-1.7-3.1-4.1-3.9-6.1c-0.5-1.4-1-2.5-1.6-2.8
		c-0.1-0.1-0.4,0.1-0.7,0.3c-1.3,1.1-2.9,4.7-1.9,8.9c1.3,5.6,3.3,20.9,3.3,21.1c0,0.1,0,0.2,0,0.3L196.6,206.7z"></path><path class="st2" d="M191.2,185.9c-1.2-0.7-2.6-1.1-4-1v-5c0,0,9.8,1.2,12.1,8.9s-0.2,16.7-3.3,19.4c-2.7,2.3-6.2,3.4-9.7,3.1
		l-0.8-4.2c0,0,8.7,0.4,8.5-6.2S191.2,185.9,191.2,185.9z"></path><path class="st1" d="M187.4,212c-0.4,0-0.8,0-1.2-0.1c-0.2,0-0.4-0.2-0.4-0.4l-0.8-4.2c0-0.2,0-0.3,0.1-0.4
		c0.1-0.1,0.2-0.2,0.4-0.2c0,0,4.4,0.2,6.6-2c1-1,1.5-2.3,1.4-3.7c-0.1-6-2.4-13.6-2.8-14.8c-1.1-0.6-2.3-0.9-3.6-0.8
		c-0.1,0-0.3,0-0.4-0.1c-0.1-0.1-0.2-0.2-0.2-0.4v-5c0-0.1,0.1-0.3,0.2-0.4c0.1-0.1,0.2-0.1,0.4-0.1c0.4,0,10.2,1.4,12.5,9.3
		c2.2,7.6-0.1,16.9-3.5,19.9C193.8,210.8,190.7,212,187.4,212z M186.7,211c3.2,0.2,6.4-0.9,8.9-3c2.8-2.5,5.4-11.1,3.2-18.9
		c-1.8-6.2-9-8.1-11.1-8.4v3.9c1.4,0,2.7,0.4,3.8,1.1c0.1,0.1,0.1,0.2,0.2,0.2c0,0.1,2.7,8.6,2.9,15.2c0.1,1.6-0.5,3.3-1.7,4.4
		c-2.1,2-5.4,2.3-6.7,2.3L186.7,211z"></path><polygon class="st0" points="328.9,290.8 284.1,322.4 248.2,279.8 255.6,275.1 	"></polygon><path class="st1" d="M284.1,322.9c-0.1,0-0.3-0.1-0.4-0.2l-35.9-42.6c-0.1-0.1-0.1-0.3-0.1-0.4c0-0.1,0.1-0.3,0.2-0.4l7.4-4.7
		c0.1-0.1,0.2-0.1,0.4-0.1l73.3,15.7c0.2,0,0.3,0.2,0.4,0.4c0,0.2,0,0.4-0.2,0.5l-44.8,31.6C284.3,322.9,284.2,322.9,284.1,322.9z
		 M248.9,279.9l35.3,41.8l43.5-30.7l-72-15.4L248.9,279.9z"></path><polygon class="st2" points="328.9,290.8 328.9,296.8 288,326.7 287.7,326.7 284.1,322.4 	"></polygon><path class="st1" d="M288,327.2h-0.1l-0.3-0.1c-0.1,0-0.2-0.1-0.3-0.2l-3.6-4.3c-0.1-0.1-0.1-0.3-0.1-0.4c0-0.1,0.1-0.3,0.2-0.3
		l44.8-31.6c0.2-0.1,0.4-0.1,0.5,0c0.2,0.1,0.3,0.3,0.3,0.5v6c0,0.2-0.1,0.3-0.2,0.4l-40.9,30C288.2,327.3,288.1,327.3,288,327.2z
		 M284.8,322.5l3.1,3.7l40.4-29.7v-4.8L284.8,322.5z"></path><polygon class="st0" points="287.7,326.7 280.3,325.1 214.2,311.2 182.4,267.2 245.4,276.5 248.2,279.8 284.1,322.4 	"></polygon><path class="st1" d="M287.7,327.2h-0.1l-73.5-15.5c-0.1,0-0.2-0.1-0.3-0.2l-31.8-44c-0.1-0.2-0.1-0.4,0-0.5
		c0.1-0.2,0.3-0.3,0.5-0.2l63,9.2c0.1,0,0.2,0.1,0.3,0.2l42.3,50.2c0.1,0.2,0.2,0.4,0,0.6C288,327,287.9,327.2,287.7,327.2z
		 M214.5,310.8l71.9,15.1L245.1,277l-61.7-9L214.5,310.8z"></path><path class="st1" d="M302.5,289.8c-0.2,0-0.4-0.1-0.5-0.3c-0.9-2,0-3.1,0.6-3.5c0.2-0.1,0.5,0,0.7,0.2c0.1,0.2,0,0.5-0.2,0.7
		c0,0,0,0,0,0c-0.1,0.1-0.9,0.6-0.2,2.2c0.1,0.2,0,0.5-0.2,0.6c0,0,0,0,0,0C302.6,289.8,302.5,289.8,302.5,289.8z"></path><path class="st0" d="M302.5,289.3c4-0.6,7.9-2.2,11.1-4.7c0,0,2.6-7.6-1.8-13.6s-8.6-6.1-8.6-6.1c-5.5,1.3-11.2,1.6-16.8,1.1
		c-10-0.7-12.4-0.9-12.6,1.8s7,4.4,7,4.4s-8,2.2-10.7,7.5s-5.7,11.7-5.7,11.7s0.5,2.1,4.2,0.9s10-12,10-12s-3,6.3-4.2,10
		s-0.6,6.4,2.1,6.1s6.1-9,8-10.4c1.6-1.1,3.2-2,4.9-2.8c0,0-3.6,6.1-3.8,11.3s0.9,9.6,3.8,7.8s3.9-10.6,4.3-12
		c0.5-1.2,1.1-2.3,1.9-3.4c0,0-0.9,7,3.6,8.5s10.5-0.5,10-2.7s-5.9-2.1-5.9-2.1L302.5,289.3z"></path><path class="st1" d="M288.1,303.2c-0.4,0-0.7-0.1-1-0.3c-2.2-1.3-2.1-6.8-2.1-8.5c0.2-3.8,2.1-7.9,3.1-10.1
		c-1.2,0.6-2.4,1.3-3.5,2.1c-1.1,1.2-2,2.5-2.7,4c-1.8,3.1-3.7,6.3-5.5,6.5c-0.9,0.2-1.9-0.2-2.5-0.9c-0.9-1.1-1-3.2-0.1-5.9
		c0.4-1.2,1-2.6,1.5-4c-2.1,2.9-4.7,6-6.7,6.6c-1.2,0.5-2.6,0.5-3.8,0c-0.5-0.3-0.8-0.7-1-1.3c0-0.1,0-0.2,0-0.3
		c0-0.1,3.1-6.5,5.7-11.7c2-4,6.9-6.3,9.4-7.2c-2.2-0.7-6-2.2-5.8-4.5c0-0.7,0.3-1.3,0.8-1.8c1.4-1.2,4.6-1,12.4-0.4
		c5.6,0.5,11.2,0.1,16.7-1.2h0.1c0.2,0,4.5,0.2,9,6.4s1.9,13.8,1.8,14.1c0,0.1-0.1,0.2-0.2,0.2c-3.1,2.4-6.7,4-10.6,4.7l0.3,0.5
		c1.2,0,5.5,0.2,6.1,2.4c0.1,0.7-0.1,1.5-0.7,1.9c-1.7,1.6-6.2,2.5-9.9,1.4c-3.4-1.1-4-4.9-4-7.2c-0.4,0.5-0.6,1.1-0.8,1.7
		c-0.1,0.3-0.2,0.8-0.3,1.6c-0.6,3.2-1.7,9.2-4.2,10.7C289.2,303,288.7,303.2,288.1,303.2z M289.4,282.7c0.1,0,0.3,0.1,0.4,0.2
		c0.2,0.2,0.2,0.4,0.1,0.6c0,0.1-3.5,6.1-3.8,11c-0.2,3.9,0.4,6.9,1.6,7.6c0.1,0.1,0.6,0.4,1.5-0.2c2.2-1.3,3.3-7.2,3.8-10.1
		c0.1-0.8,0.2-1.4,0.3-1.7c0.5-1.3,1.2-2.5,2-3.5c0.2-0.2,0.5-0.3,0.7-0.1c0.1,0.1,0.2,0.3,0.2,0.5c0,0.1-0.8,6.6,3.3,8
		c3.5,1.1,7.6,0.1,8.9-1.1c0.4-0.3,0.5-0.6,0.4-0.9c-0.3-1.4-4.1-1.7-5.4-1.7c-0.2,0-0.3-0.1-0.4-0.2l-0.9-1.4
		c-0.1-0.1-0.1-0.3,0-0.5c0.1-0.2,0.2-0.3,0.4-0.3c3.9-0.6,7.6-2.2,10.8-4.5c0.3-1,2.1-7.7-1.7-13s-7.6-5.9-8.2-5.9
		c-5.5,1.2-11.2,1.6-16.9,1.2c-6.8-0.5-10.5-0.8-11.6,0.2c-0.3,0.3-0.4,0.7-0.4,1.1c-0.1,1.6,4,3.2,6.6,3.9c0.3,0,0.5,0.2,0.5,0.5
		s-0.2,0.5-0.5,0.5c-0.1,0-7.9,2.2-10.4,7.2c-2.3,4.7-5.1,10.4-5.6,11.5c0.1,0.2,0.3,0.4,0.5,0.5c1,0.4,2,0.4,3-0.1
		c2.9-0.9,8-8.8,9.7-11.7c0.2-0.2,0.5-0.3,0.7-0.1c0.2,0.1,0.3,0.4,0.2,0.6c0,0.1-3,6.3-4.2,9.9c-0.7,2.2-0.8,4.1-0.1,4.9
		c0.4,0.5,1,0.7,1.6,0.5c1.4-0.1,3.3-3.5,4.8-6c1.1-2,2.1-3.7,3-4.3c1.6-1.1,3.3-2,5-2.9C289.3,282.7,289.3,282.7,289.4,282.7
		L289.4,282.7z"></path><path class="st1" d="M280.8,272.7c-0.3,0-0.5-0.1-0.6-0.4s0.1-0.5,0.4-0.6c3.2-1.1,6.6-1.6,9.9-1.8c0.3,0,0.5,0.2,0.5,0.5
		c0,0,0,0,0,0c0,0.3-0.2,0.5-0.5,0.5c-3.3,0.1-6.5,0.7-9.6,1.7C280.9,272.6,280.9,272.7,280.8,272.7z"></path><path class="st1" d="M278.6,280.8c-0.1,0-0.2,0-0.3-0.1c-0.2-0.2-0.3-0.5-0.1-0.7c2.3-2.9,7.2-4,7.4-4c0.3,0,0.5,0.1,0.6,0.4
		c0.1,0.3-0.1,0.5-0.4,0.6c0,0,0,0,0,0c0,0-4.8,1-6.8,3.7C278.9,280.8,278.7,280.8,278.6,280.8z"></path><path class="st1" d="M289.4,283.7c-0.1,0-0.2,0-0.3-0.1c-0.2-0.2-0.3-0.5-0.1-0.7c0.6-1,1.4-2,2.1-2.9c0.2-0.2,0.5-0.2,0.7,0
		c0,0,0,0,0,0c0.2,0.2,0.2,0.5,0,0.7c-0.7,0.9-1.4,1.8-2,2.8C289.7,283.6,289.6,283.7,289.4,283.7z"></path><path class="st1" d="M295.6,287.4c0,0-0.1,0-0.1,0c-0.3-0.1-0.4-0.3-0.3-0.6c0,0,0,0,0,0c0.3-1.3,0.9-2.6,1.5-3.8
		c0.2-0.2,0.5-0.3,0.7-0.1c0.2,0.2,0.3,0.5,0.1,0.7c-0.6,1.1-1.1,2.3-1.4,3.6C296,287.2,295.8,287.4,295.6,287.4z"></path><path class="st0" d="M176.2,218.3h-14.8c-6.1,0-11-4.9-11-11v-30.9l0,0h36.8l0,0v30.8C187.2,213.4,182.3,218.3,176.2,218.3
		C176.2,218.3,176.2,218.3,176.2,218.3z"></path><path class="st1" d="M176.2,218.8h-14.8c-6.4,0-11.5-5.2-11.5-11.5v-30.9c0-0.3,0.2-0.5,0.5-0.5h36.9c0.3,0,0.5,0.2,0.5,0.5v30.9
		C187.7,213.7,182.5,218.8,176.2,218.8z M150.8,176.9v30.4c0,5.8,4.7,10.5,10.5,10.5h14.8c5.8,0,10.5-4.7,10.5-10.5v-30.4
		L150.8,176.9z"></path><ellipse class="st2" cx="168.8" cy="176.6" rx="18.4" ry="4.2"></ellipse><path class="st1" d="M168.8,181.3c-9.2,0-18.9-1.7-18.9-4.7s9.8-4.7,18.9-4.7s18.9,1.7,18.9,4.7S177.9,181.3,168.8,181.3z
		 M168.8,172.9c-11.1,0-17.9,2.2-17.9,3.7s6.8,3.7,17.9,3.7s17.9-2.2,17.9-3.7S179.9,172.9,168.8,172.9z"></path><path class="st0" d="M192.8,200.1c-1.3,0.9-1.6,2.7-0.7,4c0.4,0.6,0.9,1,1.6,1.1c2.2,0.7,9.3-2.1,10-3.6s-1.6-2.6-1.6-2.6
		L192.8,200.1z"></path><path class="st1" d="M194.4,205.9c-0.3,0-0.7,0-1-0.1c-1.3-0.4-2.2-1.5-2.4-2.8c-0.2-1.3,0.4-2.5,1.4-3.2c0.1-0.1,0.2-0.1,0.2-0.1
		l9.3-1.1c0.1,0,0.2,0,0.3,0.1c1,0.5,2.5,1.7,1.8,3.2S197.4,205.9,194.4,205.9z M192.9,200.6c-0.7,0.5-1,1.3-0.9,2.2
		c0.2,0.9,0.8,1.7,1.8,2c1.9,0.6,8.8-2.1,9.4-3.3c0.4-0.9-0.8-1.7-1.2-1.9L192.9,200.6z"></path><path class="st0" d="M192.2,196.5c-1.7,2.3-2.2,5.2,1.5,5.5s10.1-1.9,10.4-3.7s-2.6-3.4-2.6-3.4L192.2,196.5z"></path><path class="st1" d="M194.4,202.5c-0.2,0-0.5,0-0.7,0c-1.5-0.1-2.6-0.7-3-1.6c-0.6-1.2-0.1-2.9,1.1-4.6c0.1-0.1,0.2-0.2,0.3-0.2
		l9.3-1.7c0.1,0,0.2,0,0.3,0c0.1,0.1,3.1,1.8,2.8,3.9S198.1,202.5,194.4,202.5z M192.5,197c-0.9,1.4-1.3,2.7-0.9,3.5
		c0.3,0.6,1,1,2.2,1.1c3.7,0.3,9.6-1.9,9.8-3.3c0.2-1.1-1.4-2.4-2.1-2.8L192.5,197z"></path><path class="st0" d="M192,191.8c-2.3,2.5-2.7,5.9,0.4,6.4s10.5-1.5,11.4-3.2s-0.4-5.2-2.8-4.7S192,191.8,192,191.8z"></path><path class="st1" d="M193.6,198.8c-0.4,0-0.8,0-1.2-0.1c-1.1-0.1-2.1-0.9-2.5-2c-0.5-1.5,0.2-3.6,1.8-5.3c0.1-0.1,0.2-0.1,0.3-0.1
		c0,0,6.6-1.1,9-1.5c1.1-0.2,2.3,0.3,2.9,1.3c0.9,1.2,1.1,2.8,0.5,4.2C203.3,197,197.1,198.8,193.6,198.8z M192.2,192.2
		c-1.2,1.4-1.8,3.1-1.5,4.2c0.3,0.7,0.9,1.2,1.7,1.3c3,0.6,10.1-1.6,10.9-3c0.4-1,0.3-2.2-0.4-3.1c-0.4-0.7-1.1-1-1.9-0.9
		C198.9,191.1,193.3,192,192.2,192.2L192.2,192.2z"></path><path class="st0" d="M191.2,185.9c-2.6,2.7-3.1,6.1,0,7.2s13.1-1.2,13-3.6s-5.2-2.2-10.1-1C193.4,187.4,192.4,186.5,191.2,185.9z"></path><path class="st1" d="M193.3,193.8c-0.7,0-1.5-0.1-2.2-0.3c-1.2-0.3-2.1-1.2-2.4-2.4c-0.4-1.7,0.4-3.8,2.2-5.6
		c0.2-0.2,0.4-0.2,0.6-0.1c1.1,0.6,2.1,1.5,2.8,2.5c3.5-0.9,7.8-1.3,9.6,0c0.8,0.5,1.1,1.7,0.5,2.5c-0.2,0.3-0.4,0.5-0.7,0.6
		C201.7,192.6,196.7,193.8,193.3,193.8z M191.3,186.6c-1.3,1.5-2,3.1-1.6,4.4c0.2,0.8,0.9,1.5,1.7,1.7c2.4,0.8,9.5-0.6,11.7-2.3
		c0.4-0.3,0.6-0.6,0.6-0.8c0-0.3-0.2-0.6-0.4-0.8c-1.3-0.9-4.9-0.8-9.1,0.2c-0.2,0.1-0.5,0-0.6-0.2
		C193,187.9,192.2,187.1,191.3,186.6L191.3,186.6z"></path><path class="st1" d="M316.4,287c-0.2,0-0.4-0.1-0.5-0.3c-0.1-0.3,0-0.5,0.3-0.7c0,0,0,0,0,0c16.1-7,39-22.6,39.2-22.8
		c0.2-0.1,0.5-0.1,0.7,0.1c0.2,0.2,0.1,0.5-0.1,0.7c0,0,0,0,0,0c-0.2,0.2-23.2,15.8-39.4,22.9C316.5,287,316.4,287,316.4,287z"></path><path class="st1" d="M304.3,263.3c-0.1,0-0.3-0.1-0.4-0.2c-0.2-0.2-0.1-0.5,0.1-0.7c7-6,24.6-18,27.2-19.8
		c-1.1-3-8.4-23.2-7.3-39.3c0-0.3,0.3-0.5,0.5-0.5c0,0,0,0,0,0c0.3,0,0.5,0.2,0.5,0.5c0,0,0,0,0,0c-1.1,17.2,7.3,39,7.4,39.3
		c0.1,0.2,0,0.5-0.2,0.6c-0.2,0.1-20,13.5-27.5,19.9C304.5,263.2,304.4,263.3,304.3,263.3z"></path><path class="st1" d="M253.4,251.6L253.4,251.6c-0.3,0-0.5-0.3-0.5-0.6c3.2-32.7,7.3-56.6,7.4-56.9c0-0.3,0.3-0.5,0.6-0.4
		s0.5,0.3,0.4,0.6c0,0.2-4.2,24.2-7.4,56.8C253.9,251.4,253.6,251.6,253.4,251.6z"></path><path class="st2" d="M294.8,431.5l11.6,25.2c0.8,1.8,0.1,4-1.8,4.9l-48.1,22.6c-1.8,0.9-4,0.1-4.9-1.7c-0.1-0.2-0.1-0.3-0.2-0.5
		l-0.4-1.2c0,0-7.9-23.9,15.3-36.6C266.4,444.1,276.5,444.2,294.8,431.5z"></path><path class="st1" d="M251.5,480.4c-0.3,0.1-0.5-0.1-0.6-0.4c-0.1-0.3,0.1-0.5,0.4-0.6l53.3-25.1c0.3-0.1,0.5,0,0.7,0.2
		c0.1,0.2,0,0.5-0.2,0.7c0,0,0,0,0,0l-53.3,25.1C251.7,480.4,251.6,480.4,251.5,480.4z"></path><path class="st1" d="M292,461.4c-0.2,0-0.4-0.1-0.5-0.3c0-0.1-4.6-12.4,8-19.1c0.2-0.1,0.5,0,0.7,0.2c0,0,0,0,0,0
		c0.1,0.2,0,0.5-0.2,0.7c0,0,0,0,0,0c-11.8,6.3-7.8,17.4-7.6,17.9c0.1,0.3,0,0.5-0.3,0.6c0,0,0,0,0,0L292,461.4z"></path><path class="st1" d="M270.6,452c0,0-0.1,0-0.1,0l-15.6-4.5c-0.3-0.1-0.4-0.4-0.4-0.6c0.1-0.3,0.4-0.4,0.6-0.4l15.6,4.5
		c0.3,0.1,0.4,0.4,0.3,0.6C271.1,451.8,270.9,452,270.6,452z"></path><path class="st1" d="M266.1,456.6H266l-15.6-4.5c-0.3-0.1-0.4-0.4-0.4-0.6c0.1-0.3,0.3-0.4,0.6-0.3c0,0,0,0,0,0l15.6,4.5
		c0.3,0,0.5,0.3,0.4,0.6S266.4,456.7,266.1,456.6L266.1,456.6z"></path><path class="st2" d="M209.5,312.8l-0.6,27.8c0,2-1.7,3.6-3.7,3.6l-53.2-0.8c-2,0-3.6-1.7-3.6-3.7c0-0.2,0-0.3,0-0.5l0.2-1.2
		c0,0,3.4-24.9,29.8-26.2C178.4,311.7,187.4,316.3,209.5,312.8z"></path><path class="st1" d="M208.3,338.8L208.3,338.8l-58.9-0.9c-0.3,0-0.5-0.2-0.5-0.5c0,0,0,0,0,0c0-0.3,0.2-0.5,0.5-0.5c0,0,0,0,0,0
		l58.9,0.9c0.3,0,0.5,0.2,0.5,0.5S208.6,338.8,208.3,338.8L208.3,338.8z"></path><path class="st1" d="M194.1,338.5L194.1,338.5c-0.3,0-0.5-0.3-0.5-0.5c0,0,0,0,0,0c0-0.1,1.3-13.1,15.6-13.6c0.3,0,0.5,0.2,0.5,0.5
		c0,0.3-0.2,0.5-0.5,0.5c0,0,0,0,0,0c-13.4,0.5-14.6,12.2-14.7,12.7C194.5,338.3,194.3,338.5,194.1,338.5z"></path><path class="st1" d="M179,320.7c-0.1,0-0.2,0-0.3-0.1l-12.1-10.9c-0.2-0.2-0.2-0.5,0-0.7c0.2-0.2,0.5-0.2,0.7,0l0,0l12.1,10.9
		c0.2,0.2,0.2,0.5,0,0.7c0,0,0,0,0,0C179.2,320.6,179.1,320.7,179,320.7z"></path><path class="st1" d="M172.9,322.9c-0.1,0-0.2,0-0.3-0.1l-12.1-10.9c-0.2-0.2-0.2-0.5-0.1-0.7c0.2-0.2,0.5-0.2,0.7-0.1c0,0,0,0,0,0
		l12.1,10.8c0.2,0.2,0.2,0.5,0,0.7C173.2,322.8,173,322.9,172.9,322.9z"></path><path class="st1" d="M227.2,274.3c-0.2,0-0.4-0.1-0.4-0.3c-3.9-7.3-7-15-9.4-22.9c-0.1-0.3,0.1-0.5,0.4-0.6c0,0,0,0,0,0
		c0.3-0.1,0.5,0.1,0.6,0.3c0,0,0,0,0,0c2.4,7.8,5.5,15.4,9.3,22.7c0.1,0.2,0,0.5-0.2,0.7C227.4,274.3,227.3,274.3,227.2,274.3z"></path><path class="st1" d="M233,344.4H95.8c-0.3,0-0.5-0.2-0.5-0.5c0-0.3,0.2-0.5,0.5-0.5H233c0.3,0,0.5,0.2,0.5,0.5
		C233.5,344.2,233.3,344.4,233,344.4z"></path><path class="st1" d="M451.5,344.4H314.4c-0.3,0-0.5-0.2-0.5-0.5c0-0.3,0.2-0.5,0.5-0.5h137.2c0.3,0,0.5,0.2,0.5,0.5
		C452,344.2,451.8,344.4,451.5,344.4z"></path><path class="st0" d="M323.1,140.5c0,0,9.6,4.4,16.9-2.8s7.6-27.1-10.2-36.7s-25.1,8-21.4,15.2S323.1,140.5,323.1,140.5z"></path><path class="st1" d="M329.9,142.3c-2.4,0-4.8-0.5-7-1.4c-0.1,0-0.2-0.1-0.2-0.2c-0.1-0.2-11.1-17.3-14.7-24.4
		c-2-3.8-1.1-10.8,3.4-15.2c2.6-2.6,8.6-6.1,18.6-0.6c11.3,6.1,14.2,15.5,14.9,20.5c1,6.7-0.8,13.4-4.5,17
		C337.6,140.8,333.8,142.3,329.9,142.3z M323.4,140.1c1.2,0.5,9.7,3.6,16.2-2.7c3.5-3.4,5.2-9.8,4.3-16.2
		c-0.7-4.8-3.5-13.8-14.4-19.7c-9.5-5.2-15-1.9-17.5,0.4c-4.1,4.1-5,10.5-3.2,14C312.3,122.6,322.4,138.5,323.4,140.1L323.4,140.1z"></path><path class="st0" d="M320.1,149.9c5-4.4,7.5-16.8-1.6-29.2s-28.6-11.5-28.6-11.5c-4-4.4-12.7-4.7-18,5.3c-3.1,6.1-3.9,13-2.2,19.6
		L320.1,149.9z"></path><path class="st1" d="M320.1,150.4H320l-50.4-15.7c-0.2,0-0.3-0.2-0.3-0.3c-1.7-6.7-0.9-13.8,2.3-20c2.6-4.9,6.3-7.9,10.4-8.5
		c3-0.4,6.1,0.7,8.2,2.8c3.6-0.1,7.3,0.3,10.8,1.1c5.6,1.2,13.2,4,18,10.6c9.5,13,6.5,25.5,1.5,29.9
		C320.3,150.3,320.2,150.4,320.1,150.4z M270.1,133.7l49.9,15.6c4.8-4.4,6.8-16.6-1.8-28.4c-8.8-12.1-28-11.3-28.2-11.3
		c-0.1,0-0.3,0-0.4-0.2c-1.9-2.1-4.7-3.1-7.5-2.7c-3.8,0.5-7.2,3.3-9.6,7.9C269.4,120.6,268.6,127.3,270.1,133.7L270.1,133.7z"></path><path class="st0" d="M306.1,153.7c1,8.9,3.1,22.8,3.1,22.8s-1.6,4.9-10.4,6.3s-9.5-6.2-9.6-7.7s0.8-6.6,1-8.3
		S306.1,153.7,306.1,153.7z"></path><path class="st1" d="M296.9,183.4c-1.8,0.1-3.7-0.5-5.1-1.6c-2.5-2.1-2.9-5.4-3-6.7c0.1-1.7,0.2-3.5,0.5-5.2
		c0.2-1.3,0.4-2.6,0.4-3.2c0.1-1.7,11.3-9.9,16.1-13.4c0.1-0.1,0.3-0.1,0.5-0.1c0.2,0.1,0.3,0.2,0.3,0.4c1,8.8,3,22.6,3.1,22.8
		c0,0.1,0,0.2,0,0.2c-0.1,0.2-1.8,5.3-10.8,6.6C298.3,183.4,297.6,183.4,296.9,183.4z M305.8,154.6c-7.3,5.2-14.8,11.1-15,12.2
		c0,0.7-0.2,1.9-0.4,3.3c-0.3,1.7-0.5,3.3-0.5,5c0.1,1.2,0.5,4.2,2.6,6c1.5,1.2,3.7,1.7,6.4,1.3c7.6-1.1,9.6-5.1,9.9-5.8
		C308.5,175,306.8,163,305.8,154.6z"></path><path class="st0" d="M273.9,124.7c0,0-12,21.4-4.4,32.4s31.1,13.5,40.7-0.4c0,0,3.7,6.2,8.7,1.3s1-11.9-5.9-10.2
		c0,0-1.2-6.6-12.1-12.7c-6.3-3.4-11.6-8.4-15.4-14.4C285.5,120.6,282.7,124.2,273.9,124.7z"></path><path class="st1" d="M290.1,166.7c-8.9,0-17.1-3.7-21-9.4c-3.2-4.7-3.5-11.7-0.7-20.8c1.3-4.2,3-8.3,5.1-12.2
		c0.1-0.1,0.2-0.2,0.4-0.2c8.5-0.4,11.2-3.8,11.2-3.9c0.1-0.1,0.3-0.2,0.4-0.2c0.2,0,0.3,0.1,0.4,0.3c3.8,5.9,9.1,10.8,15.3,14.2
		c9.3,5.2,11.7,10.8,12.2,12.5c3.2-0.6,6.1,0.6,7.5,3s0.8,5.7-1.6,8.1c-1.2,1.4-3,2.1-4.8,2c-1.7-0.3-3.2-1.3-4.2-2.8
		C305.9,163.3,298.6,166.7,290.1,166.7L290.1,166.7z M274.2,125.2c-1.3,2.4-11.2,21.6-4.3,31.6c3.7,5.4,11.6,8.9,20.2,8.9l0,0
		c8.4,0,15.6-3.4,19.7-9.4c0.1-0.1,0.3-0.2,0.4-0.2c0.2,0,0.3,0.1,0.4,0.2c0,0,1.6,2.6,4,2.9c1.5,0.1,3-0.6,4-1.7
		c2.5-2.5,2.4-5.2,1.5-6.9c-1.2-2.2-3.9-3.2-6.9-2.4c-0.1,0-0.3,0-0.4-0.1c-0.1-0.1-0.2-0.2-0.2-0.3c0-0.1-1.4-6.5-11.8-12.3
		c-6.1-3.4-11.4-8.2-15.3-14C284.3,122.5,281,124.8,274.2,125.2L274.2,125.2z"></path><path class="st1" d="M292.5,138.3c0.7-0.2,1.5-0.3,2.2-0.3c0.7,0,1.5,0.1,2.2,0.2c0.7,0.2,1.4,0.4,2.1,0.7c0.7,0.3,1.3,0.7,1.8,1.2
		c0.2,0.2,0.2,0.5,0.1,0.7c0,0,0,0,0,0c-0.1,0.2-0.3,0.2-0.5,0.1l0,0c-1.3-0.4-2.6-0.8-3.8-1.1c-0.6-0.2-1.3-0.3-1.9-0.4
		s-1.3-0.2-2-0.2h-0.1c-0.3,0-0.5-0.3-0.5-0.5c0,0,0,0,0,0C292.2,138.5,292.3,138.4,292.5,138.3z"></path><path class="st1" d="M274.2,132.8c0.8,0,1.7,0,2.5,0.2c1.6,0.3,3.1,0.9,4.5,1.6c0.7,0.4,1.4,0.8,2,1.4c0.2,0.2,0.2,0.5,0.1,0.7
		c0,0,0,0,0,0c-0.1,0.2-0.4,0.2-0.5,0.2l0,0c-1.5-0.5-2.9-1.1-4.3-1.6c-0.7-0.3-1.4-0.5-2.1-0.8s-1.5-0.5-2.1-0.7l0,0
		c-0.3,0-0.5-0.3-0.5-0.6C273.7,132.9,274,132.7,274.2,132.8L274.2,132.8z"></path><path class="st1" d="M279.6,149.7c-0.2,0-0.3,0-0.5,0c-1.5-0.1-2.5-1.5-2.4-2.9c0,0,0,0,0-0.1c0-0.8,0.4-1.5,1-1.9
		c1.1-0.6,2.3-0.8,3.5-0.6c0.6-2.6,1.1-5.2,1.3-7.8c0-0.3,0.2-0.5,0.5-0.5c0,0,0,0,0,0c0.3,0,0.5,0.3,0.5,0.5c0,0,0,0,0,0
		c-0.2,2.9-0.7,5.7-1.4,8.5c-0.1,0.2-0.3,0.4-0.6,0.4c-1.1-0.3-2.2-0.1-3.2,0.4c-0.4,0.3-0.6,0.7-0.6,1.2c-0.2,0.9,0.4,1.8,1.4,1.9
		c0.1,0,0.1,0,0.2,0c1.3,0.2,2.6-0.6,2.9-1.9c0.1-0.3,0.3-0.4,0.6-0.4c0,0,0,0,0,0c0.3,0.1,0.4,0.3,0.4,0.6c0,0,0,0,0,0
		C282.7,148.7,281.3,149.8,279.6,149.7z"></path><path class="st1" d="M296,145.5c-0.5,1.4-1.6,2.2-2.5,1.8s-1.3-1.7-0.8-3c0.1-0.4,0.3-0.7,0.6-1.1l1.3,1.4l-0.1-2.2
		c0.2-0.1,0.5-0.1,0.7,0C296.1,142.8,296.4,144.2,296,145.5z"></path><path class="st1" d="M280.5,140.7c-0.4,1.2-1.5,1.9-2.3,1.6s-1.2-1.5-0.7-2.7c0.1-0.3,0.3-0.7,0.5-0.9l1.2,1.3l-0.1-2
		c0.2-0.1,0.4-0.1,0.6,0C280.5,138.3,280.9,139.5,280.5,140.7z"></path><path class="st1" d="M283.9,156.7c-1.5,0-3.1-1-4.3-2.8c-0.2-0.2-0.2-0.5,0-0.7c0.2-0.2,0.5-0.2,0.7,0c0,0,0,0.1,0.1,0.1
		c1,1.5,2.3,2.3,3.5,2.3c1.2-0.1,2.2-0.8,2.8-1.8c0.1-0.2,0.4-0.3,0.7-0.2c0.2,0.1,0.3,0.4,0.2,0.7c0,0,0,0,0,0
		C286.8,155.8,285.5,156.6,283.9,156.7L283.9,156.7z"></path><path class="st1" d="M318.5,154.4c-0.3,0-0.5-0.2-0.5-0.5c0-0.8-0.4-1.6-1-2.1c-0.9-0.6-2.1-0.8-3.1-0.6c-0.3,0-0.5-0.1-0.6-0.4
		c0-0.3,0.1-0.5,0.4-0.6c1.4-0.2,2.8,0,3.9,0.8c0.9,0.7,1.4,1.7,1.5,2.9C319.1,154.1,318.9,154.3,318.5,154.4L318.5,154.4z"></path><path class="st1" d="M314.3,157c-0.3,0-0.5-0.2-0.5-0.5c0-0.3,0.2-0.5,0.5-0.5c0,0,0,0,0,0c0.7,0,1.3-0.4,1.6-0.9
		c0.7-1,1.1-2.3,1-3.6c-0.1-0.3,0.1-0.5,0.4-0.6c0.3-0.1,0.5,0.1,0.6,0.4c0.2,1.6-0.2,3.1-1.2,4.4
		C316.2,156.5,315.3,156.9,314.3,157L314.3,157z"></path></g><g id="coding-box"><path class="st2" d="M119.2,103c-4.3-0.1-10.7-0.9-14.6-4.7c-1.6,0.4-3.2,0.7-4.8,0.7H58.3c-9.8,0-17.8-8-17.8-17.8c0,0,0,0,0,0
		V67.8c0-9.8,8-17.8,17.8-17.8c0,0,0,0,0,0h41.5c9.8,0,17.8,8,17.8,17.8v13.4c0,4.6-1.8,9-4.9,12.3c1.7,3,4.2,5.5,7.1,7.3
		c0.6,0.3,0.7,1.1,0.4,1.6C120,102.8,119.6,103,119.2,103z"></path><path class="st1" d="M119.2,103.5L119.2,103.5c-4.5-0.1-10.7-0.9-14.7-4.6c-1.5,0.4-3.1,0.6-4.7,0.6H58.3
		c-10.1,0-18.3-8.2-18.3-18.3V67.8c0-10.1,8.2-18.3,18.3-18.3h41.5c10.1,0,18.3,8.2,18.3,18.3v13.4c0,4.6-1.7,9-4.8,12.4
		c1.7,2.8,4,5.1,6.8,6.8c0.8,0.5,1,1.6,0.5,2.3C120.3,103.2,119.8,103.5,119.2,103.5z M119.2,102.5c0.4,0,0.7-0.3,0.7-0.6
		c0-0.3-0.1-0.5-0.3-0.6c-3-1.9-5.5-4.4-7.3-7.5c-0.1-0.2-0.1-0.4,0.1-0.6c3.1-3.2,4.8-7.5,4.8-11.9V67.8c0-9.6-7.8-17.3-17.3-17.3
		H58.3c-9.6,0-17.3,7.8-17.3,17.3v13.4c0,9.6,7.8,17.3,17.3,17.3h41.5c1.6,0,3.2-0.2,4.7-0.6c0.2-0.1,0.4,0,0.5,0.1
		C108.7,101.6,114.8,102.4,119.2,102.5L119.2,102.5z"></path><g id="UI_coding_3"><path class="st0" d="M68.2,89.8c-0.1,0-0.3-0.1-0.3-0.2L53.3,75.1c-0.1-0.1-0.2-0.2-0.2-0.3c0-0.1,0.1-0.3,0.2-0.4l15-15
			c0.2-0.2,0.5-0.1,0.7,0.1c0.1,0.2,0.1,0.4,0,0.5L54.3,74.7l14.2,14.2c0.2,0.2,0.2,0.5,0,0.7c0,0,0,0,0,0
			C68.5,89.7,68.3,89.8,68.2,89.8z"></path><path class="st0" d="M89.8,89.8c-0.1,0-0.3-0.1-0.3-0.2c-0.2-0.2-0.2-0.5,0-0.7c0,0,0,0,0,0l14.2-14.2L89,60
			c-0.2-0.2-0.2-0.5,0-0.7c0,0,0,0,0,0c0.2-0.2,0.5-0.2,0.7,0l15,15c0.1,0.1,0.1,0.2,0.1,0.4c0,0.1,0,0.3-0.1,0.3L90.2,89.6
			C90.1,89.7,90,89.8,89.8,89.8z"></path><path class="st0" d="M82,89.8c-0.2,0-0.4-0.2-0.5-0.4l-7.3-29.6c-0.1-0.3,0.1-0.5,0.4-0.6c0.3-0.1,0.5,0.1,0.6,0.4l7.2,29.6
			C82.5,89.4,82.3,89.7,82,89.8L82,89.8z"></path></g></g></svg>