<svg transform="scale(1)" version="1.1" id="_0103_Asynchronous_Work_2_1_" xmlns="http://www.w3.org/2000/svg" xmlns:xlink="http://www.w3.org/1999/xlink" x="0px" y="0px" viewBox="0 0 500 500" xml:space="preserve" class="show_show__wrapper__graphic__5Waiy "><title>React</title><style type="text/css">
	.st0{fill:#F75454;}
	.st1{fill:#732A09;}
	.st2{fill:#FFFFFF;}
	.st3{fill:none;}
</style><g id="day-and-night"><g id="nigh"><path class="st0" d="M368.8,94.2L162.9,382.7H87.2c-8.4,0-15.2-6.8-15.2-15.2l0,0V109.4c0-8.4,6.8-15.2,15.2-15.2H368.8z"></path><path class="st1" d="M162.9,383.2H87.2c-8.7,0-15.7-7-15.7-15.7V109.4c0-8.7,7-15.7,15.7-15.7h281.6c0.3,0,0.5,0.2,0.5,0.5
			c0,0.1,0,0.2-0.1,0.3L163.3,383C163.2,383.1,163.1,383.2,162.9,383.2z M87.2,94.7c-8.1,0-14.7,6.6-14.7,14.7v258.1
			c0,8.1,6.6,14.7,14.7,14.7h75.4L367.9,94.7H87.2z"></path><path class="st2" d="M147.3,179.5l0.6,1.3c0.1,0.2,0.3,0.4,0.6,0.4l1.4,0.2c0.4,0.1,0.7,0.5,0.7,0.9c0,0.2-0.1,0.3-0.2,0.5l-1,1
			c-0.2,0.2-0.3,0.4-0.2,0.7l0.2,1.4c0.1,0.4-0.2,0.9-0.7,0.9c-0.2,0-0.3,0-0.5-0.1l-1.3-0.7c-0.2-0.1-0.5-0.1-0.8,0l-1.3,0.7
			c-0.4,0.2-0.9,0-1.1-0.3c-0.1-0.2-0.1-0.3-0.1-0.5l0.2-1.4c0-0.3,0-0.5-0.2-0.7l-1-1c-0.3-0.3-0.3-0.8,0-1.1
			c0.1-0.1,0.3-0.2,0.5-0.2l1.4-0.2c0.3,0,0.5-0.2,0.6-0.4l0.6-1.3c0.2-0.4,0.7-0.5,1.1-0.3C147.1,179.2,147.2,179.3,147.3,179.5z"></path><path class="st2" d="M106.1,156.5l0.6,1.3c0.1,0.2,0.3,0.4,0.6,0.4l1.4,0.2c0.4,0.1,0.7,0.5,0.7,0.9c0,0.2-0.1,0.3-0.2,0.5l-1,1
			c-0.2,0.2-0.3,0.4-0.2,0.7l0.2,1.4c0.1,0.4-0.2,0.9-0.7,0.9c-0.2,0-0.3,0-0.5-0.1l-1.3-0.7c-0.2-0.1-0.5-0.1-0.8,0l-1.3,0.7
			c-0.4,0.2-0.9,0-1.1-0.3c-0.1-0.2-0.1-0.3-0.1-0.5l0.2-1.4c0-0.3-0.1-0.5-0.2-0.7l-1-1c-0.3-0.3-0.3-0.8,0-1.1
			c0.1-0.1,0.3-0.2,0.5-0.2l1.4-0.2c0.3,0,0.5-0.2,0.6-0.4l0.6-1.3c0.2-0.4,0.7-0.5,1.1-0.3C106,156.2,106.1,156.3,106.1,156.5z"></path><path class="st2" d="M140.1,126.9l0.6,1.3c0.1,0.2,0.3,0.4,0.6,0.4l1.4,0.2c0.4,0.1,0.7,0.5,0.7,0.9c0,0.2-0.1,0.3-0.2,0.5l-1,1
			c-0.2,0.2-0.3,0.4-0.2,0.7l0.2,1.4c0.1,0.4-0.2,0.9-0.7,0.9c-0.2,0-0.3,0-0.5-0.1l-1.3-0.7c-0.2-0.1-0.5-0.1-0.8,0l-1.3,0.7
			c-0.4,0.2-0.9,0-1.1-0.3c-0.1-0.2-0.1-0.3-0.1-0.5l0.2-1.4c0-0.3,0-0.5-0.2-0.7l-1-1c-0.3-0.3-0.3-0.8,0-1.1
			c0.1-0.1,0.3-0.2,0.5-0.2l1.4-0.2c0.3,0,0.5-0.2,0.6-0.4l0.6-1.3c0.2-0.4,0.7-0.5,1.1-0.3C139.9,126.6,140,126.7,140.1,126.9z"></path><path class="st2" d="M170.8,148.7l0.6,1.3c0.1,0.2,0.3,0.4,0.6,0.4l1.4,0.2c0.4,0.1,0.7,0.5,0.7,0.9c0,0.2-0.1,0.3-0.2,0.5l-1,1
			c-0.2,0.2-0.3,0.5-0.2,0.7l0.2,1.4c0.1,0.4-0.2,0.9-0.6,0.9c-0.2,0-0.4,0-0.5-0.1l-1.3-0.7c-0.2-0.1-0.5-0.1-0.8,0l-1.3,0.7
			c-0.4,0.2-0.9,0.1-1.1-0.3c-0.1-0.2-0.1-0.4-0.1-0.5l0.2-1.4c0-0.3,0-0.5-0.2-0.7l-1-1c-0.3-0.3-0.3-0.8,0-1.1
			c0.1-0.1,0.3-0.2,0.5-0.2l1.4-0.2c0.3,0,0.5-0.2,0.6-0.4l0.6-1.3c0.2-0.4,0.7-0.5,1.1-0.3C170.6,148.4,170.7,148.5,170.8,148.7z"></path><path class="st2" d="M95.2,187.9l0.6,1.3c0.1,0.2,0.3,0.4,0.6,0.4l1.4,0.2c0.4,0.1,0.7,0.5,0.7,0.9c0,0.2-0.1,0.3-0.2,0.4l-1,1
			c-0.2,0.2-0.3,0.4-0.2,0.7l0.2,1.4c0.1,0.4-0.2,0.9-0.7,0.9c-0.2,0-0.4,0-0.5-0.1l-1.2-0.7c-0.2-0.1-0.5-0.1-0.8,0l-1.2,0.7
			c-0.4,0.2-0.9,0.1-1.1-0.3c-0.1-0.2-0.1-0.4-0.1-0.5l0.2-1.4c0-0.3,0-0.5-0.2-0.7l-1-1c-0.3-0.3-0.3-0.8,0-1.1
			c0.1-0.1,0.3-0.2,0.5-0.2l1.4-0.2c0.3,0,0.5-0.2,0.6-0.4l0.6-1.3c0.2-0.4,0.7-0.5,1.1-0.3C95,187.7,95.1,187.8,95.2,187.9z"></path><path class="st2" d="M213.5,234.6l0.6,1.3c0.1,0.2,0.3,0.4,0.6,0.4l1.4,0.2c0.4,0.1,0.7,0.5,0.7,0.9c0,0.2-0.1,0.3-0.2,0.5l-1,1
			c-0.2,0.2-0.3,0.5-0.2,0.7l0.2,1.4c0.1,0.4-0.2,0.9-0.7,0.9c-0.2,0-0.3,0-0.5-0.1l-1.3-0.7c-0.2-0.1-0.5-0.1-0.8,0l-1.3,0.7
			c-0.4,0.2-0.9,0.1-1.1-0.3c-0.1-0.2-0.1-0.4-0.1-0.6l0.2-1.4c0-0.3,0-0.5-0.2-0.7l-1-1c-0.3-0.3-0.3-0.8,0-1.1
			c0.1-0.1,0.3-0.2,0.5-0.2l1.4-0.2c0.3,0,0.5-0.2,0.6-0.4l0.6-1.3c0.2-0.4,0.7-0.5,1.1-0.3C213.3,234.3,213.5,234.4,213.5,234.6z"></path><path class="st2" d="M172.4,211.6l0.6,1.3c0.1,0.2,0.3,0.4,0.6,0.4l1.4,0.2c0.4,0.1,0.7,0.5,0.7,0.9c0,0.2-0.1,0.3-0.2,0.5l-1,1
			c-0.2,0.2-0.3,0.5-0.2,0.7l0.2,1.4c0.1,0.4-0.2,0.9-0.7,0.9c-0.2,0-0.3,0-0.5-0.1l-1.3-0.7c-0.2-0.1-0.5-0.1-0.8,0l-1.3,0.7
			c-0.4,0.2-0.9,0-1.1-0.3c-0.1-0.2-0.1-0.3-0.1-0.5l0.2-1.4c0-0.3,0-0.5-0.2-0.7l-1-1c-0.3-0.3-0.3-0.8,0-1.1
			c0.1-0.1,0.3-0.2,0.5-0.2l1.4-0.2c0.3,0,0.5-0.2,0.6-0.4l0.6-1.3c0.2-0.4,0.7-0.5,1.1-0.3C172.2,211.4,172.3,211.5,172.4,211.6z"></path><path class="st2" d="M206.3,182l0.6,1.3c0.1,0.2,0.3,0.4,0.6,0.4l1.4,0.2c0.4,0.1,0.7,0.5,0.7,0.9c0,0.2-0.1,0.3-0.2,0.5l-1,1
			c-0.2,0.2-0.3,0.5-0.2,0.7l0.2,1.4c0.1,0.4-0.2,0.9-0.7,0.9c-0.2,0-0.3,0-0.5-0.1l-1.3-0.7c-0.2-0.1-0.5-0.1-0.8,0l-1.3,0.7
			c-0.4,0.2-0.9,0-1.1-0.3c-0.1-0.2-0.1-0.3-0.1-0.5l0.2-1.4c0-0.3,0-0.5-0.2-0.7l-1-1c-0.3-0.3-0.3-0.8,0-1.1
			c0.1-0.1,0.3-0.2,0.5-0.2l1.4-0.2c0.3,0,0.5-0.2,0.6-0.4l0.6-1.3c0.2-0.4,0.7-0.5,1.1-0.3C206.1,181.7,206.2,181.9,206.3,182z"></path><path class="st2" d="M237,203.8l0.6,1.3c0.1,0.2,0.3,0.4,0.6,0.4l1.4,0.2c0.4,0.1,0.7,0.5,0.7,0.9c0,0.2-0.1,0.3-0.2,0.5l-1,1
			c-0.2,0.2-0.3,0.5-0.2,0.7l0.2,1.4c0.1,0.4-0.2,0.9-0.7,0.9c-0.2,0-0.3,0-0.5-0.1l-1.3-0.7c-0.2-0.1-0.5-0.1-0.8,0l-1.3,0.7
			c-0.4,0.2-0.9,0-1.1-0.3c-0.1-0.2-0.1-0.3-0.1-0.5l0.2-1.4c0-0.3,0-0.5-0.2-0.7l-1-1c-0.3-0.3-0.3-0.8,0-1.1
			c0.1-0.1,0.3-0.2,0.5-0.2l1.4-0.2c0.3,0,0.5-0.2,0.6-0.4l0.6-1.3c0.2-0.4,0.7-0.5,1.1-0.3C236.8,203.5,236.9,203.7,237,203.8z"></path><path class="st2" d="M161.4,243.1l0.6,1.3c0.1,0.2,0.3,0.4,0.6,0.4l1.4,0.2c0.4,0.1,0.7,0.5,0.7,0.9c0,0.2-0.1,0.3-0.2,0.5l-1,1
			c-0.2,0.2-0.3,0.5-0.2,0.7l0.2,1.4c0.1,0.4-0.2,0.9-0.7,0.9c-0.2,0-0.3,0-0.5-0.1l-1.3-0.7c-0.2-0.1-0.5-0.1-0.8,0l-1.3,0.7
			c-0.4,0.2-0.9,0-1.1-0.3c-0.1-0.2-0.1-0.3-0.1-0.5l0.2-1.4c0-0.3,0-0.5-0.2-0.7l-1-1c-0.3-0.3-0.3-0.8,0-1.1
			c0.1-0.1,0.3-0.2,0.5-0.2l1.4-0.2c0.3,0,0.5-0.2,0.6-0.4l0.6-1.3c0.2-0.4,0.7-0.5,1.1-0.3C161.2,242.8,161.3,242.9,161.4,243.1z"></path><path class="st2" d="M157.6,328.1l0.6,1.3c0.1,0.2,0.3,0.4,0.6,0.4l1.4,0.2c0.4,0.1,0.7,0.5,0.7,0.9c0,0.2-0.1,0.3-0.2,0.5l-1,1
			c-0.2,0.2-0.3,0.5-0.2,0.7l0.2,1.4c0.1,0.4-0.2,0.9-0.7,0.9c-0.2,0-0.3,0-0.5-0.1l-1.3-0.7c-0.2-0.1-0.5-0.1-0.8,0l-1.3,0.7
			c-0.4,0.2-0.9,0-1.1-0.3c-0.1-0.2-0.1-0.3-0.1-0.5l0.2-1.4c0-0.3,0-0.5-0.2-0.7l-1-1c-0.3-0.3-0.3-0.8,0-1.1
			c0.1-0.1,0.3-0.2,0.5-0.2l1.4-0.2c0.3,0,0.5-0.2,0.6-0.4l0.6-1.3c0.2-0.4,0.7-0.5,1.1-0.3C157.4,327.8,157.5,327.9,157.6,328.1z"></path><path class="st2" d="M116.4,305.1l0.6,1.3c0.1,0.2,0.3,0.4,0.6,0.4l1.4,0.2c0.4,0.1,0.7,0.5,0.7,0.9c0,0.2-0.1,0.3-0.2,0.5l-1,1
			c-0.2,0.2-0.3,0.5-0.2,0.7l0.2,1.4c0.1,0.4-0.2,0.9-0.7,0.9c-0.2,0-0.3,0-0.5-0.1l-1.3-0.7c-0.2-0.1-0.5-0.1-0.8,0l-1.3,0.7
			c-0.4,0.2-0.9,0-1.1-0.3c-0.1-0.2-0.1-0.3-0.1-0.5l0.2-1.4c0-0.3,0-0.5-0.2-0.7l-1-1c-0.3-0.3-0.3-0.8,0-1.1
			c0.1-0.1,0.3-0.2,0.5-0.2l1.4-0.2c0.3,0,0.5-0.2,0.6-0.4l0.6-1.3c0.2-0.4,0.7-0.5,1.1-0.3C116.2,304.8,116.3,304.9,116.4,305.1z"></path><path class="st2" d="M150.4,275.5l0.6,1.3c0.1,0.2,0.3,0.4,0.6,0.4l1.4,0.2c0.4,0.1,0.7,0.5,0.7,0.9c0,0.2-0.1,0.3-0.2,0.5l-1,1
			c-0.2,0.2-0.3,0.5-0.2,0.7l0.2,1.4c0.1,0.4-0.2,0.9-0.7,0.9c-0.2,0-0.3,0-0.5-0.1l-1.3-0.7c-0.2-0.1-0.5-0.1-0.8,0l-1.3,0.7
			c-0.4,0.2-0.9,0-1.1-0.3c-0.1-0.2-0.1-0.3-0.1-0.5l0.2-1.4c0-0.3,0-0.5-0.2-0.7l-1-1c-0.3-0.3-0.3-0.8,0-1.1
			c0.1-0.1,0.3-0.2,0.5-0.2l1.4-0.2c0.3,0,0.5-0.2,0.6-0.4l0.6-1.3c0.2-0.4,0.7-0.5,1.1-0.3C150.2,275.2,150.3,275.3,150.4,275.5z"></path><path class="st2" d="M181.1,297.3l0.6,1.3c0.1,0.2,0.3,0.4,0.6,0.4l1.4,0.2c0.4,0.1,0.7,0.5,0.7,0.9c0,0.2-0.1,0.3-0.2,0.5l-1,1
			c-0.2,0.2-0.3,0.5-0.2,0.7l0.2,1.4c0.1,0.4-0.2,0.9-0.7,0.9c-0.2,0-0.3,0-0.5-0.1l-1.3-0.7c-0.2-0.1-0.5-0.1-0.8,0l-1.3,0.7
			c-0.4,0.2-0.9,0-1.1-0.3c-0.1-0.2-0.1-0.3-0.1-0.5l0.2-1.4c0-0.3,0-0.5-0.2-0.7l-1-1c-0.3-0.3-0.3-0.8,0-1.1
			c0.1-0.1,0.3-0.2,0.5-0.2l1.4-0.2c0.3,0,0.5-0.2,0.6-0.4l0.6-1.3c0.2-0.4,0.7-0.5,1.1-0.3C180.9,297,181,297.1,181.1,297.3z"></path><path class="st2" d="M105.5,336.5l0.6,1.3c0.1,0.2,0.3,0.4,0.6,0.4l1.4,0.2c0.4,0.1,0.7,0.5,0.7,0.9c0,0.2-0.1,0.3-0.2,0.5l-1,1
			c-0.2,0.2-0.3,0.5-0.2,0.7l0.2,1.4c0.1,0.4-0.2,0.9-0.7,0.9c-0.2,0-0.3,0-0.5-0.1l-1.3-0.7c-0.2-0.1-0.5-0.1-0.8,0l-1.3,0.7
			c-0.4,0.2-0.9,0-1.1-0.3c-0.1-0.2-0.1-0.3-0.1-0.5l0.2-1.4c0-0.3,0-0.5-0.2-0.7l-1-1c-0.3-0.3-0.3-0.8,0-1.1
			c0.1-0.1,0.3-0.2,0.5-0.2l1.4-0.2c0.3,0,0.5-0.2,0.6-0.4l0.6-1.3c0.2-0.4,0.7-0.5,1.1-0.3C105.3,336.3,105.4,336.4,105.5,336.5z"></path><path class="st2" d="M214.3,150.5c-2.7,0-5.5-0.5-8-1.6c-0.2-0.1-0.3-0.3-0.3-0.5c0-0.2,0.1-0.4,0.3-0.5
			c9.9-4.2,14.5-15.7,10.3-25.6c-2-4.7-5.7-8.4-10.3-10.3c-0.3-0.1-0.4-0.4-0.3-0.7c0.1-0.1,0.1-0.2,0.3-0.3
			c10.4-4.4,22.4,0.4,26.9,10.9s-0.4,22.4-10.9,26.9C219.8,150,217.1,150.5,214.3,150.5L214.3,150.5z M207.8,148.4
			c10.1,3.6,21.3-1.7,24.9-11.9s-1.7-21.3-11.9-24.9c-4.2-1.5-8.8-1.5-13,0c10.1,5,14.3,17.3,9.3,27.5
			C215.1,143.2,211.9,146.4,207.8,148.4z"></path></g><g id="day"><path class="st2" d="M399.4,94.2h-30.5L162.9,382.7h236.5c8.4,0,15.2-6.8,15.2-15.2l0,0V109.4C414.6,101,407.8,94.2,399.4,94.2z"></path><path class="st1" d="M399.4,383.2H162.9c-0.2,0-0.4-0.1-0.4-0.3c-0.1-0.2-0.1-0.4,0-0.5l206-288.5c0.1-0.1,0.2-0.2,0.4-0.2h30.5
			c8.7,0,15.7,7,15.7,15.7v258.1C415.1,376.2,408,383.2,399.4,383.2z M163.9,382.2h235.5c8.1,0,14.7-6.6,14.7-14.7V109.4
			c0-8.1-6.6-14.7-14.7-14.7h-30.3L163.9,382.2z"></path></g><path class="st1" d="M364.9,181.8c-7.3,0-13.2-5.9-13.2-13.2s5.9-13.2,13.2-13.2c7.3,0,13.2,5.9,13.2,13.2
		C378,175.9,372.1,181.8,364.9,181.8z M364.9,156.5c-6.7,0-12.2,5.4-12.2,12.2c0,6.7,5.4,12.2,12.2,12.2c6.7,0,12.2-5.4,12.2-12.2
		c0,0,0,0,0,0C377,161.9,371.6,156.5,364.9,156.5z"></path><path class="st1" d="M364.9,150.9c-0.3,0-0.5-0.2-0.5-0.5v-10.6c0-0.3,0.2-0.5,0.5-0.5s0.5,0.2,0.5,0.5v10.6
		C365.4,150.7,365.2,150.9,364.9,150.9z"></path><path class="st1" d="M364.9,198c-0.3,0-0.5-0.2-0.5-0.5v-10.6c0-0.3,0.2-0.5,0.5-0.5s0.5,0.2,0.5,0.5v10.6
		C365.4,197.8,365.2,198,364.9,198z"></path><path class="st1" d="M393.8,169.1h-10.6c-0.3,0-0.5-0.2-0.5-0.5s0.2-0.5,0.5-0.5h10.6c0.3,0,0.5,0.2,0.5,0.5S394,169.1,393.8,169.1
		z"></path><path class="st1" d="M346.7,169.1H336c-0.3,0-0.5-0.2-0.5-0.5s0.2-0.5,0.5-0.5h10.6c0.3,0,0.5,0.2,0.5,0.5
		C347.1,168.9,346.9,169.1,346.7,169.1z"></path><path class="st1" d="M377.8,156.3c-0.1,0-0.3-0.1-0.4-0.1c-0.2-0.2-0.2-0.5,0-0.7c0,0,0,0,0,0l7.5-7.5c0.2-0.2,0.5-0.2,0.7,0
		c0,0,0,0,0,0c0.2,0.2,0.2,0.5,0,0.7c0,0,0,0,0,0l-7.5,7.5C378,156.2,377.9,156.3,377.8,156.3z"></path><path class="st1" d="M344.5,189.6c-0.1,0-0.3-0.1-0.4-0.1c-0.2-0.2-0.2-0.5,0-0.7c0,0,0,0,0,0l7.5-7.5c0.2-0.2,0.5-0.2,0.7,0
		c0,0,0,0,0,0c0.2,0.2,0.2,0.5,0,0.7c0,0,0,0,0,0l-7.5,7.5C344.7,189.5,344.6,189.6,344.5,189.6z"></path><path class="st1" d="M385.3,189.6c-0.1,0-0.3-0.1-0.4-0.1l-7.5-7.5c-0.2-0.2-0.2-0.5,0-0.7c0,0,0,0,0,0c0.2-0.2,0.5-0.2,0.7,0
		c0,0,0,0,0,0l7.5,7.5c0.2,0.2,0.2,0.5,0,0.7c0,0,0,0,0,0C385.6,189.5,385.4,189.6,385.3,189.6z"></path><path class="st1" d="M352,156.3c-0.1,0-0.3-0.1-0.4-0.1l-7.5-7.5c-0.2-0.2-0.2-0.5,0-0.7c0,0,0,0,0,0c0.2-0.2,0.5-0.2,0.7,0
		c0,0,0,0,0,0l7.5,7.5c0.2,0.2,0.2,0.5,0,0.7c0,0,0,0,0,0C352.3,156.2,352.1,156.3,352,156.3z"></path><path class="st2" d="M329.3,207.2L329.3,207.2c0-0.4,0-0.8,0-1.2c0-4.7-3.8-8.6-8.5-8.6c-3.1,0-6,1.7-7.5,4.4
		c-0.8-0.4-1.6-0.5-2.4-0.5c-3.3,0-5.9,2.7-5.9,5.9c0,0.1,0,0.1,0,0.2c-0.5-0.1-0.9-0.2-1.4-0.2c-3.3,0.1-5.8,2.9-5.7,6.2
		c0.1,3.1,2.6,5.6,5.7,5.7h25.7c3.3,0.1,6-2.4,6.2-5.7c0.1-3.3-2.4-6-5.7-6.2C329.5,207.2,329.4,207.2,329.3,207.2L329.3,207.2z"></path><path class="st1" d="M329.3,219.6h-25.7c-3.5-0.1-6.3-3.1-6.2-6.7c0.1-3.4,2.8-6,6.2-6.2c0.3,0,0.6,0,0.9,0.1
		c0.2-3.5,3.3-6.2,6.8-6c0.6,0,1.3,0.2,1.9,0.4c2.6-4.2,8.1-5.6,12.4-3c2.7,1.7,4.3,4.6,4.3,7.8c0,0.2,0,0.4,0,0.7
		c3.5,0.2,6.3,3.2,6.1,6.7C335.7,217,332.8,219.7,329.3,219.6L329.3,219.6z M303.6,207.7c-3,0.1-5.3,2.7-5.2,5.7
		c0.1,2.8,2.4,5.1,5.2,5.2h25.7c3-0.1,5.3-2.7,5.2-5.7c-0.1-2.8-2.4-5.1-5.2-5.2h-0.1c-0.1,0-0.3-0.1-0.4-0.2
		c-0.1-0.1-0.1-0.3-0.1-0.4c0.7-4.4-2.2-8.5-6.6-9.2c-3.4-0.5-6.7,1.1-8.3,4.1c-0.1,0.2-0.4,0.3-0.6,0.2c-2.7-1.2-5.9,0-7.2,2.7
		c-0.3,0.7-0.5,1.5-0.5,2.3c0,0.1,0,0.1,0,0.2c0,0.2-0.1,0.3-0.2,0.4c-0.1,0.1-0.3,0.1-0.4,0.1C304.4,207.8,304,207.7,303.6,207.7
		L303.6,207.7z"></path><path class="st2" d="M297.3,267.4L297.3,267.4c0-0.4,0-0.8,0-1.2c0.1-4.7-3.7-8.6-8.4-8.6c-3.1,0-6.1,1.7-7.6,4.4
		c-3-1.4-6.5,0-7.8,2.9c-0.3,0.8-0.5,1.6-0.5,2.5c0,0.1,0,0.1,0,0.2c-0.5-0.1-0.9-0.2-1.4-0.2c-3.3,0.1-5.8,2.9-5.7,6.2
		c0.1,3.1,2.6,5.6,5.7,5.7h25.7c3.3,0.1,6-2.4,6.2-5.7c0.1-3.3-2.4-6-5.7-6.2C297.6,267.4,297.4,267.4,297.3,267.4L297.3,267.4z"></path><path class="st1" d="M297.3,279.8h-25.7c-3.5-0.1-6.3-3.1-6.2-6.7c0.1-3.4,2.8-6,6.2-6.2c0.3,0,0.6,0,0.9,0.1c0.2-3.4,3-6,6.4-6
		c0.8,0,1.5,0.1,2.2,0.4c2.6-4.2,8.1-5.6,12.4-3c2.7,1.7,4.3,4.6,4.3,7.8c0,0.2,0,0.4,0,0.7c3.5,0.2,6.3,3.2,6.1,6.7
		C303.7,277.1,300.8,279.8,297.3,279.8L297.3,279.8z M271.6,267.9c-3,0.1-5.3,2.7-5.2,5.7c0.1,2.8,2.4,5.1,5.2,5.2h25.7
		c3-0.1,5.3-2.7,5.2-5.7c-0.1-2.8-2.4-5.1-5.2-5.2h-0.1c-0.3,0-0.5-0.2-0.5-0.5c0,0,0,0,0-0.1c0-0.4,0.1-0.7,0.1-1.1
		c0.1-4.4-3.5-8.1-7.9-8.1c-3,0-5.7,1.5-7.1,4.1c-0.1,0.2-0.4,0.3-0.6,0.2c-0.7-0.3-1.5-0.5-2.2-0.5c-3,0-5.4,2.4-5.4,5.4
		c0,0.1,0,0.1,0,0.2c0,0.2-0.1,0.3-0.2,0.4c-0.1,0.1-0.3,0.1-0.4,0.1C272.5,268,272,267.9,271.6,267.9L271.6,267.9z"></path><path class="st1" d="M319.1,247.4h-14.3c-0.3,0-0.5-0.2-0.5-0.5s0.2-0.5,0.5-0.5h14.3c0.3,0,0.5,0.2,0.5,0.5
		S319.3,247.4,319.1,247.4z"></path><path class="st1" d="M359.1,211.8h-14.3c-0.3,0-0.5-0.2-0.5-0.5s0.2-0.5,0.5-0.5h14.3c0.3,0,0.5,0.2,0.5,0.5
		C359.6,211.6,359.4,211.8,359.1,211.8z"></path><path class="st1" d="M304.8,240.6h-7.1c-0.3,0-0.5-0.2-0.5-0.5s0.2-0.5,0.5-0.5h7.1c0.3,0,0.5,0.2,0.5,0.5
		C305.3,240.4,305.1,240.6,304.8,240.6z"></path><path class="st1" d="M314.4,234.7h-7.1c-0.3,0-0.5-0.2-0.5-0.5s0.2-0.5,0.5-0.5h7.1c0.3,0,0.5,0.2,0.5,0.5S314.7,234.7,314.4,234.7
		z"></path></g><g id="laptop-night"><path class="st0" d="M37.8,259.5L13.6,168c-0.6-2.3,0.7-4.7,2.9-5.5l115.7-38.8c1.9-0.6,3.9,0.4,4.5,2.2c0,0.1,0.1,0.2,0.1,0.3
		l21.3,84.9L37.8,259.5z"></path><path class="st1" d="M37.8,260c-0.1,0-0.2,0-0.2,0c-0.1-0.1-0.2-0.2-0.3-0.3l-24.2-91.5c-0.7-2.6,0.8-5.2,3.3-6.1l115.7-38.8
		c2.1-0.7,4.4,0.4,5.1,2.6c0,0.1,0.1,0.2,0.1,0.3l21.3,84.9c0.1,0.2-0.1,0.5-0.3,0.6L38,260C37.9,260,37.9,260,37.8,260z
		 M133.4,124.1c-0.3,0-0.7,0.1-1,0.2L16.7,163c-2,0.7-3.2,2.8-2.6,4.9l24,90.9l119.3-48l-21.2-84.5C135.9,125,134.7,124,133.4,124.1
		L133.4,124.1z"></path><polygon class="st0" points="18.6,167.2 132.3,129 152.2,208.1 41.2,252.7 	"></polygon><path class="st1" d="M41.2,253.2c-0.1,0-0.2,0-0.2-0.1c-0.1-0.1-0.2-0.2-0.3-0.3l-22.6-85.6c-0.1-0.3,0.1-0.5,0.3-0.6l113.8-38.2
		c0.3-0.1,0.6,0.1,0.6,0.3c0,0,0,0,0,0l19.8,79.1c0.1,0.2-0.1,0.5-0.3,0.6l-111,44.6C41.3,253.2,41.3,253.2,41.2,253.2z M19.2,167.5
		l22.4,84.6l110-44.2L132,129.6L19.2,167.5z"></path><path class="st2" d="M220.3,235.8v0.2c-0.1,0.4-0.3,0.7-0.7,0.9l-4,1.9l-8.6,4.1l-92.7,44c-1.4,0.7-3,0.7-4.5,0.2l-61.2-23.4
		l-3.8-1.4l-7.1-2.7l120.3-48.4l61.5,23.6C220,234.9,220.3,235.3,220.3,235.8L220.3,235.8z"></path><path class="st1" d="M111.9,287.9c-0.8,0-1.5-0.1-2.2-0.4L37.6,260c-0.3-0.1-0.4-0.4-0.3-0.6c0.1-0.1,0.2-0.2,0.3-0.3l120.3-48.4
		c0.1-0.1,0.2-0.1,0.4,0l61.5,23.6c0.6,0.2,1,0.8,1.1,1.4c0,0,0,0.1,0,0.1v0.2c-0.1,0.6-0.4,1.1-0.9,1.4l-105.3,50
		C113.7,287.7,112.8,287.9,111.9,287.9z M39.2,259.5l70.8,27.1c1.3,0.5,2.8,0.4,4.1-0.2l105.3-50c0.2-0.1,0.4-0.3,0.4-0.5l0,0
		c0,0,0-0.1,0-0.1c0-0.3-0.2-0.5-0.4-0.6l-61.3-23.5L39.2,259.5z"></path><polygon class="st2" points="189.9,228.5 157.4,244 130.4,256.8 92.4,274.8 51.5,259.4 158.1,216.5 	"></polygon><path class="st1" d="M92.4,275.3c-0.1,0-0.1,0-0.2,0l-40.9-15.5c-0.2-0.1-0.3-0.3-0.3-0.5c0-0.2,0.1-0.4,0.3-0.5L157.9,216
		c0.1-0.1,0.2-0.1,0.4,0l31.8,12c0.2,0.1,0.3,0.2,0.3,0.4c0,0.2-0.1,0.4-0.3,0.5l-97.6,46.3C92.5,275.3,92.5,275.3,92.4,275.3z
		 M52.9,259.4l39.5,14.9l96.3-45.7L158.1,217L52.9,259.4z"></path><path class="st0" d="M219.6,242.5l-105.3,50c-1.4,0.7-3,0.7-4.5,0.2l-72-27.6v-5.6l7.1,2.7l3.8,1.4l61.2,23.4
		c1.4,0.6,3.1,0.5,4.5-0.2l92.6-44l8.6-4.1l4-1.9c0.4-0.2,0.6-0.5,0.7-0.9v5.1C220.5,241.7,220.2,242.3,219.6,242.5z"></path><path class="st1" d="M111.9,293.5c-0.8,0-1.5-0.1-2.2-0.4l-72.1-27.6c-0.2-0.1-0.3-0.3-0.3-0.5v-5.6c0-0.2,0.1-0.3,0.2-0.4
		c0.1-0.1,0.3-0.1,0.5-0.1l72,27.6c1.3,0.5,2.8,0.4,4.1-0.2l105.3-50c0.2-0.1,0.4-0.3,0.4-0.5c0-0.3,0.3-0.4,0.5-0.4
		c0.3,0,0.5,0.2,0.5,0.5v5.1c0.2,0.8-0.2,1.5-0.9,1.9l0,0l-105.3,50C113.7,293.3,112.8,293.5,111.9,293.5z M38.3,264.7l71.7,27.5
		c1.3,0.5,2.8,0.4,4.1-0.2l105.3-50l0,0c0.3-0.1,0.5-0.5,0.4-0.8c0,0,0-0.1,0-0.1v-3.7l-105.3,50c-1.5,0.7-3.3,0.8-4.9,0.2
		l-71.3-27.3V264.7z M219.6,242.5L219.6,242.5z"></path><polygon class="st2" points="180.1,252.6 153.1,265.5 134.6,258.5 161.6,245.7 	"></polygon><path class="st1" d="M153.1,266h-0.2l-18.5-7c-0.2-0.1-0.3-0.2-0.3-0.5c0-0.2,0.1-0.4,0.3-0.5l27-12.8c0.1-0.1,0.3-0.1,0.4,0
		l18.5,7c0.2,0.1,0.3,0.3,0.3,0.4c0,0.2-0.1,0.4-0.3,0.5l-27,12.8C153.2,266,153.2,266,153.1,266z M135.9,258.5l17.2,6.5l25.7-12.2
		l-17.2-6.5L135.9,258.5z"></path><path class="st2" d="M36.1,174.6l83.7-28.1c2.6-0.9,5.5,0.5,6.3,3.1c0,0.1,0.1,0.2,0.1,0.3l13.7,49.5l-91.6,34.3l-15.5-53
		C32.2,178.2,33.6,175.5,36.1,174.6z"></path><path class="st1" d="M48.4,234.3c-0.1,0-0.2,0-0.2-0.1c-0.1-0.1-0.2-0.2-0.3-0.3L32.4,181c-0.9-2.9,0.7-5.9,3.6-6.8l0,0l83.7-28.1
		c2.9-1,6,0.6,7,3.5c0,0.1,0.1,0.2,0.1,0.3l13.7,49.5c0.1,0.3-0.1,0.5-0.3,0.6l-91.6,34.3C48.6,234.3,48.5,234.3,48.4,234.3z
		 M36.3,175.1c-2.3,0.8-3.6,3.2-2.9,5.6l15.4,52.5l90.6-34l-13.6-49c-0.6-2.4-3.1-3.8-5.5-3.2c-0.1,0-0.2,0-0.2,0.1L36.3,175.1z"></path><line class="st3" x1="34.7" y1="186.8" x2="127.6" y2="154.9"></line><path class="st1" d="M34.7,187.3c-0.2,0-0.4-0.1-0.5-0.3c-0.1-0.3,0.1-0.5,0.3-0.6l92.9-31.9c0.3-0.1,0.5,0,0.6,0.3s0,0.5-0.3,0.6
		l0,0l-92.9,31.9C34.8,187.3,34.7,187.3,34.7,187.3z"></path><ellipse class="st2" cx="39.1" cy="179.7" rx="1.3" ry="1.4"></ellipse><path class="st1" d="M39.1,181.7c-1.1,0.1-2-0.7-2.1-1.8c-0.1-1.1,0.7-2,1.8-2.1s2,0.7,2.1,1.8c0,0.1,0,0.1,0,0.2
		C40.9,180.8,40.1,181.6,39.1,181.7z M39.1,178.8c-0.5-0.1-1,0.3-1.1,0.8c-0.1,0.5,0.3,1,0.8,1.1s1-0.3,1.1-0.8c0-0.1,0-0.1,0-0.2
		C39.9,179.3,39.5,178.8,39.1,178.8z"></path><ellipse class="st2" cx="45" cy="177.9" rx="1.3" ry="1.4"></ellipse><path class="st1" d="M45,179.8c-1.1,0.1-2-0.7-2.1-1.8c-0.1-1.1,0.7-2,1.8-2.1s2,0.7,2.1,1.8c0,0.1,0,0.1,0,0.2
		C46.9,178.9,46.1,179.8,45,179.8z M45,176.9c-0.5-0.1-1,0.3-1.1,0.8c-0.1,0.5,0.3,1,0.8,1.1s1-0.3,1.1-0.8c0-0.1,0-0.1,0-0.2
		C45.8,177.4,45.5,177,45,176.9L45,176.9z"></path><ellipse class="st2" cx="51" cy="176" rx="1.3" ry="1.4"></ellipse><path class="st1" d="M51,178c-1.1,0.1-2-0.7-2.1-1.8s0.7-2,1.8-2.1s2,0.7,2.1,1.8c0,0,0,0,0,0.1C52.9,177,52.1,177.9,51,178
		C51,178,51,178,51,178z M51,175.1c-0.5-0.1-1.1,0.2-1.2,0.8c-0.1,0.5,0.2,1.1,0.8,1.2s1.1-0.2,1.2-0.8c0-0.1,0-0.2,0-0.3
		C51.8,175.6,51.5,175.1,51,175.1C51,175.1,51,175.1,51,175.1L51,175.1z"></path><polyline class="st2" points="47.7,188.5 44.3,196 51,199.9 	"></polyline><path class="st1" d="M51,200.4c-0.1,0-0.2,0-0.2-0.1l-6.8-3.9c-0.2-0.1-0.3-0.4-0.2-0.6l3.4-7.5c0.1-0.3,0.4-0.4,0.7-0.2
		c0.3,0.1,0.4,0.4,0.2,0.7l-3.2,7.1l6.3,3.7c0.2,0.1,0.3,0.4,0.2,0.7C51.3,200.3,51.2,200.4,51,200.4z"></path><polyline class="st2" points="57.1,185.1 63.7,189.3 60.5,196.6 	"></polyline><path class="st1" d="M60.5,197.1c-0.1,0-0.1,0-0.2,0c-0.3-0.1-0.4-0.4-0.3-0.7c0,0,0,0,0,0l3-6.9l-6.2-3.9
		c-0.2-0.1-0.3-0.5-0.2-0.7c0.1-0.2,0.4-0.3,0.7-0.2c0,0,0,0,0,0l6.7,4.1c0.2,0.1,0.3,0.4,0.2,0.6l-3.2,7.3
		C60.9,197,60.7,197.1,60.5,197.1z"></path><line class="st3" x1="50.3" y1="188.5" x2="57.9" y2="197.9"></line><path class="st1" d="M57.9,198.4c-0.2,0-0.3-0.1-0.4-0.2l-7.6-9.4c-0.2-0.2-0.1-0.5,0.1-0.7c0.2-0.2,0.5-0.1,0.7,0.1l7.6,9.4
		c0.2,0.2,0.1,0.5-0.1,0.7C58.2,198.3,58,198.4,57.9,198.4L57.9,198.4z"></path><path class="st0" d="M70.7,187.3c-0.2,0-0.4-0.1-0.5-0.3c-0.1-0.3,0.1-0.5,0.3-0.6l49.4-17c0.3-0.1,0.6,0.1,0.7,0.3
		c0.1,0.3-0.1,0.6-0.3,0.7l-49.4,16.9L70.7,187.3z"></path><path class="st0" d="M48.1,208.3c-0.3,0-0.5-0.1-0.6-0.4c0-0.3,0.1-0.5,0.4-0.6l80.9-27.8c0.2-0.1,0.5,0,0.7,0.2
		c0.1,0.2,0,0.5-0.2,0.7c0,0-0.1,0-0.1,0l-80.9,27.8C48.3,208.3,48.2,208.3,48.1,208.3z"></path><path class="st0" d="M51.5,219.1c-0.3,0-0.5-0.1-0.6-0.4c0-0.3,0.1-0.5,0.4-0.6l80.9-27.8c0.3-0.1,0.5,0.1,0.6,0.4
		c0,0.2-0.1,0.5-0.3,0.6l-80.9,27.8C51.6,219.1,51.6,219.2,51.5,219.1z"></path></g><g id="laptop-day"><path class="st0" d="M424.4,380.7l43.3-84.1c1.1-2.1,0.4-4.8-1.7-6l-104.6-62.8c-1.7-1-3.9-0.4-4.9,1.2c0,0.1-0.1,0.1-0.1,0.2
		l-39.1,78.3L424.4,380.7z"></path><path class="st1" d="M424.4,381.2c-0.1,0-0.2,0-0.3-0.1l-107-73.1c-0.2-0.1-0.3-0.4-0.2-0.6l39-78.3c0.5-1,1.4-1.8,2.5-2.1
		c1.1-0.3,2.3-0.2,3.2,0.4l104.6,62.8c2.3,1.4,3.1,4.3,1.9,6.6l-43.4,84.1c-0.1,0.1-0.2,0.2-0.3,0.2L424.4,381.2z M318,307.4
		l106.2,72.6l43.1-83.6c1-1.9,0.3-4.2-1.5-5.3l-104.6-62.8c-0.7-0.4-1.6-0.6-2.4-0.3c-0.8,0.2-1.5,0.8-1.9,1.6L318,307.4z"></path><polygon class="st2" points="463.1,294.7 360.2,232.8 323.8,305.9 422.5,373.4 	"></polygon><path class="st1" d="M422.5,373.9c-0.1,0-0.2,0-0.3-0.1l-98.7-67.5c-0.2-0.1-0.3-0.4-0.2-0.6l36.4-73c0.1-0.1,0.2-0.2,0.3-0.3
		c0.1-0.1,0.3-0.1,0.4,0l102.9,61.8c0.2,0.1,0.3,0.4,0.2,0.7L423,373.6c-0.1,0.1-0.2,0.2-0.3,0.3L422.5,373.9z M324.4,305.7
		l97.9,66.9l40.1-77.8l-102-61.3L324.4,305.7z"></path><path class="st2" d="M251.3,318.2v0.2c0,0.4,0.1,0.8,0.5,1l3.5,2.7l7.6,5.9l81,62.9c1.2,1,2.8,1.4,4.3,1.1l64.8-9.7l4-0.6l7.5-1.1
		l-107-73.1l-65.1,9.8C251.8,317.3,251.4,317.7,251.3,318.2L251.3,318.2z"></path><path class="st1" d="M347.3,392.6c-1.4,0-2.7-0.5-3.8-1.3l-92.1-71.5c-0.5-0.3-0.7-0.9-0.6-1.5v-0.3c0,0,0-0.1,0.1-0.1
		c0.2-0.6,0.7-1.1,1.3-1.1l65.1-9.8c0.1,0,0.3,0,0.4,0.1l107,73.1c0.2,0.1,0.3,0.3,0.2,0.5c0,0.2-0.2,0.4-0.4,0.4l-76.3,11.4
		C347.8,392.6,347.5,392.6,347.3,392.6z M251.8,318.4v0.1c0,0.2,0.1,0.4,0.3,0.5l92.1,71.5c1.1,0.9,2.5,1.2,3.9,1l75-11.2L317.2,308
		l-64.9,9.8c-0.3,0-0.5,0.2-0.5,0.5L251.8,318.4z"></path><polygon class="st2" points="282.5,317.6 311,339.7 334.6,358.1 367.8,383.9 411,377.6 316.2,312.8 	"></polygon><path class="st1" d="M367.8,384.4c-0.1,0-0.2,0-0.3-0.1L282.2,318c-0.2-0.1-0.2-0.3-0.2-0.5c0-0.2,0.2-0.3,0.4-0.4l33.7-4.9
		c0.1,0,0.2,0,0.4,0.1l94.9,64.9c0.2,0.1,0.3,0.3,0.2,0.5c0,0.2-0.2,0.4-0.4,0.4L367.8,384.4L367.8,384.4z M283.7,318l84.2,65.4
		l41.8-6l-93.6-64L283.7,318z"></path><path class="st0" d="M250.5,324.9l92.1,71.5c1.2,1,2.8,1.4,4.3,1.1l76.3-11.4l1.2-5.5l-7.5,1.1l-4,0.6l-64.8,9.7
		c-1.5,0.2-3.1-0.2-4.3-1.1l-81-62.9l-7.6-5.9l-3.5-2.7c-0.3-0.2-0.5-0.6-0.5-1l-1.1,5C249.9,323.9,250,324.5,250.5,324.9z"></path><path class="st1" d="M346.1,398.1c-1.4,0-2.7-0.5-3.8-1.3l-92.1-71.5l0,0c-0.6-0.5-0.8-1.3-0.5-2l1.1-4.9c0.1-0.3,0.3-0.4,0.6-0.4
		c0.3,0,0.4,0.3,0.4,0.5c0,0.2,0.1,0.5,0.3,0.6l92.1,71.5c1.1,0.9,2.5,1.2,3.9,1l76.3-11.4c0.2,0,0.3,0,0.4,0.2
		c0.1,0.1,0.2,0.3,0.1,0.5l-1.2,5.5c0,0.2-0.2,0.4-0.4,0.4L347,398C346.7,398.1,346.4,398.1,346.1,398.1z M250.8,324.5l92.1,71.5
		c1.1,0.9,2.5,1.2,3.9,1l76-11.4l1-4.4l-75.6,11.3c-1.7,0.2-3.4-0.2-4.7-1.2l-92-71.5l-0.8,3.7c0,0,0,0.1,0,0.1
		c-0.2,0.3-0.1,0.7,0.2,0.9L250.8,324.5z"></path><polygon class="st2" points="286.9,343.3 310.5,361.6 330.1,358.8 306.5,340.5 	"></polygon><path class="st1" d="M310.5,362.1c-0.1,0-0.2,0-0.3-0.1l-23.6-18.3c-0.2-0.1-0.2-0.3-0.2-0.5c0-0.2,0.2-0.3,0.4-0.4l19.5-2.8
		c0.1,0,0.3,0,0.4,0.1l23.6,18.3c0.2,0.1,0.2,0.3,0.2,0.5c0,0.2-0.2,0.3-0.4,0.4L310.5,362.1L310.5,362.1z M288.2,343.6l22.5,17.5
		l18.2-2.6L306.3,341L288.2,343.6z"></path><path class="st2" d="M445.9,298.2l-76-44.9c-2.4-1.4-5.4-0.6-6.9,1.7c-0.1,0.1-0.1,0.2-0.1,0.3l-23.7,45.5l82.4,52.6l26.2-48.6
		C449,302.6,448.2,299.6,445.9,298.2z"></path><path class="st1" d="M421.5,354c-0.1,0-0.2,0-0.3-0.1l-82.4-52.6c-0.2-0.1-0.3-0.4-0.2-0.6l23.7-45.6c1.4-2.7,4.8-3.7,7.5-2.3
		c0.1,0,0.2,0.1,0.2,0.1l76,44.9l0,0c2.6,1.5,3.5,4.8,2.1,7.4L422,353.8c-0.1,0.1-0.2,0.2-0.3,0.2L421.5,354z M339.8,300.7
		l81.6,52.1l25.9-48.1c1.1-2.1,0.4-4.8-1.7-6l-76-44.9c-2.2-1.3-4.9-0.5-6.2,1.6c0,0.1-0.1,0.1-0.1,0.2L339.8,300.7z"></path><line class="st3" x1="444.8" y1="310.5" x2="360.5" y2="259.9"></line><path class="st1" d="M444.8,311c-0.1,0-0.2,0-0.3-0.1l-84.3-50.5c-0.2-0.1-0.3-0.5-0.2-0.7c0.1-0.2,0.4-0.3,0.7-0.2c0,0,0,0,0,0
		L445,310c0.2,0.1,0.3,0.4,0.2,0.7c0,0,0,0,0,0C445.1,310.9,445,311,444.8,311z"></path><ellipse class="st2" transform="matrix(0.2081 -0.9781 0.9781 0.2081 54.0109 671.9086)" cx="441.9" cy="302.6" rx="1.4" ry="1.3"></ellipse><path class="st1" d="M441.9,304.5c-0.1,0-0.2,0-0.4,0c-0.5-0.1-0.9-0.4-1.1-0.8c-0.2-0.4-0.3-0.9-0.2-1.4l0,0
		c0.1-0.5,0.4-1,0.8-1.3c0.4-0.3,0.9-0.4,1.4-0.3c0.5,0.1,0.9,0.4,1.1,0.8c0.2,0.4,0.3,0.9,0.2,1.4
		C443.6,303.8,442.8,304.5,441.9,304.5z M442,301.7c-0.2,0-0.3,0.1-0.4,0.1c-0.2,0.1-0.3,0.4-0.4,0.6l0,0c0,0.2,0,0.5,0.1,0.7
		c0.1,0.2,0.3,0.3,0.5,0.4c0.5,0.1,0.9-0.2,1-0.7c0,0,0,0,0,0c0.1-0.2,0-0.5-0.1-0.7c-0.1-0.2-0.3-0.3-0.5-0.4L442,301.7z
		 M440.7,302.3L440.7,302.3z"></path><ellipse class="st2" transform="matrix(0.2081 -0.9781 0.9781 0.2081 52.6672 664.1566)" cx="436.5" cy="299.6" rx="1.4" ry="1.3"></ellipse><path class="st1" d="M436.4,301.5c-0.1,0-0.2,0-0.4,0c-0.5-0.1-0.9-0.4-1.1-0.8c-0.2-0.4-0.3-0.9-0.2-1.4c0.2-1,1.1-1.7,2.1-1.5
		c0,0,0,0,0,0c0.5,0.1,0.9,0.4,1.1,0.8c0.2,0.4,0.3,0.9,0.2,1.4c-0.1,0.5-0.4,0.9-0.8,1.2C437.2,301.4,436.8,301.5,436.4,301.5z
		 M436.5,298.6c-0.4,0-0.8,0.3-0.8,0.8c-0.1,0.2,0,0.5,0.1,0.7c0.1,0.2,0.3,0.3,0.5,0.4c0.2,0,0.4,0,0.6-0.1
		c0.2-0.1,0.3-0.4,0.4-0.6c0.1-0.2,0-0.5-0.1-0.7c-0.1-0.2-0.3-0.3-0.5-0.4L436.5,298.6z"></path><ellipse class="st2" transform="matrix(0.2081 -0.9781 0.9781 0.2081 51.3502 656.4022)" cx="431" cy="296.5" rx="1.4" ry="1.3"></ellipse><path class="st1" d="M431,298.4c-0.1,0-0.2,0-0.3,0c-1-0.3-1.6-1.3-1.3-2.3l0,0c0.2-1,1.1-1.6,2.1-1.4s1.6,1.1,1.4,2.1
		c0,0,0,0.1,0,0.1C432.6,297.8,431.9,298.4,431,298.4z M430.3,296.3c-0.1,0.5,0.1,0.9,0.6,1.1c0.5,0,1-0.4,1-0.9
		c0-0.4-0.2-0.8-0.6-0.9C430.8,295.5,430.3,295.8,430.3,296.3C430.3,296.3,430.3,296.3,430.3,296.3L430.3,296.3z"></path><path class="st2" d="M365.1,271l9.8,5.9c1.3,0.8,1.8,2.4,1.1,3.8l-6.3,12.1c-0.7,1.4-2.4,2-3.8,1.2c-0.1,0-0.1-0.1-0.2-0.1
		l-9.8-5.8c-1.3-0.8-1.8-2.4-1.1-3.8l6.2-12.2c0.7-1.4,2.4-2,3.8-1.3C364.9,270.9,365,271,365.1,271z"></path><path class="st1" d="M367.1,294.9c-0.6,0-1.2-0.2-1.7-0.5l-9.8-5.8c-1.5-0.9-2.1-2.8-1.3-4.4l6.3-12.2c0.4-0.8,1.2-1.4,2.1-1.7
		c0.9-0.3,1.9-0.1,2.7,0.4l0,0l9.8,5.9c1.5,0.9,2.1,2.8,1.2,4.4l-6.3,12.1c-0.4,0.8-1.2,1.4-2.1,1.7
		C367.7,294.9,367.4,294.9,367.1,294.9z M363.6,271.1c-0.2,0-0.4,0-0.6,0.1c-0.6,0.2-1.2,0.6-1.5,1.2l-6.3,12.2
		c-0.6,1.1-0.2,2.5,0.9,3.1l9.8,5.8c0.6,0.3,1.2,0.4,1.9,0.2c0.6-0.2,1.1-0.6,1.5-1.2l6.3-12.1c0.6-1.1,0.2-2.5-0.9-3.1l-9.8-5.9
		C364.4,271.2,364,271.1,363.6,271.1z"></path><line class="st3" x1="380.1" y1="285.2" x2="431.9" y2="315.8"></line><path class="st1" d="M431.9,316.3c-0.1,0-0.2,0-0.3-0.1l-51.8-30.7c-0.2-0.1-0.3-0.4-0.2-0.7c0,0,0,0,0,0c0.1-0.2,0.4-0.3,0.7-0.2
		l51.9,30.7c0.2,0.1,0.3,0.4,0.2,0.7C432.3,316.2,432.1,316.3,431.9,316.3L431.9,316.3z"></path><line class="st3" x1="374.5" y1="294.4" x2="426.4" y2="325"></line><path class="st1" d="M426.4,325.5c-0.1,0-0.2,0-0.2-0.1l-51.9-30.6c-0.2-0.1-0.3-0.4-0.2-0.7c0.1-0.2,0.5-0.3,0.7-0.2l51.9,30.6
		c0.2,0.1,0.3,0.4,0.2,0.7C426.7,325.4,426.6,325.5,426.4,325.5L426.4,325.5z"></path><line class="st3" x1="352.3" y1="295.1" x2="421.4" y2="336"></line><path class="st1" d="M421.4,336.5c-0.1,0-0.2,0-0.3-0.1L352,295.6c-0.2-0.1-0.3-0.4-0.2-0.7c0.1-0.2,0.4-0.3,0.7-0.2l69.1,40.9
		c0.2,0.1,0.3,0.4,0.2,0.7c0,0,0,0,0,0C421.8,336.4,421.6,336.5,421.4,336.5z"></path></g></svg>