<svg transform="scale(1)" version="1.1" id="_x30_272_x5F_Learn_x5F_Programming" xmlns="http://www.w3.org/2000/svg" xmlns:xlink="http://www.w3.org/1999/xlink" x="0px" y="0px" viewBox="0 0 500 500" xml:space="preserve" class="show_show__wrapper__graphic__5Waiy "><title>React</title><style type="text/css">
	.st0{fill:#FFFFFF;}
	.st1{fill:#732A09;}
	.st2{fill:#F75454;}
	.st3{fill:none;stroke:#732A09;stroke-linecap:round;stroke-linejoin:round;}
</style><g id="code"><path class="st0" d="M375.8,48.6v11.3H244.3V48.6c0-3,2.5-5.5,5.5-5.5h120.5C373.4,43.1,375.8,45.6,375.8,48.6z"></path><path class="st1" d="M375.8,60.5H244.3c-0.3,0-0.5-0.2-0.5-0.5V48.6c0-3.3,2.7-6,6-6h120.5c3.3,0,6,2.7,6,6v11.3
		C376.3,60.2,376.1,60.4,375.8,60.5z M244.8,59.5h130.6V48.6c0-2.8-2.2-5-5-5H249.8c-2.8,0-5,2.2-5,5V59.5z"></path><rect class="st0" x="244.3" y="59.9" width="131.6" height="76"></rect><path class="st1" d="M375.8,136.5H244.3c-0.3,0-0.5-0.2-0.5-0.5V60c0-0.3,0.2-0.5,0.5-0.5h131.6c0.3,0,0.5,0.2,0.5,0.5v76
		C376.3,136.2,376.1,136.5,375.8,136.5z M244.8,135.5h130.6v-75H244.8V135.5z"></path><path class="st1" d="M291,68.5h-31.6c-0.3,0-0.5-0.2-0.5-0.5c0-0.3,0.2-0.5,0.5-0.5H291c0.3,0,0.5,0.2,0.5,0.5
		C291.5,68.2,291.2,68.5,291,68.5z"></path><path class="st1" d="M313.8,68.5h-16.5c-0.3,0-0.5-0.2-0.5-0.5c0-0.3,0.2-0.5,0.5-0.5h16.5c0.3,0,0.5,0.2,0.5,0.5
		C314.3,68.2,314,68.4,313.8,68.5z"></path><path class="st1" d="M332.8,68.5h-11.5c-0.3,0-0.5-0.2-0.5-0.5c0-0.3,0.2-0.5,0.5-0.5h11.5c0.3,0,0.5,0.2,0.5,0.5
		C333.3,68.2,333,68.4,332.8,68.5z"></path><path class="st1" d="M361,68.5h-23c-0.3,0-0.5-0.2-0.5-0.5c0-0.3,0.2-0.5,0.5-0.5h23c0.3,0,0.5,0.2,0.5,0.5
		C361.5,68.2,361.3,68.5,361,68.5z"></path><path class="st1" d="M275.5,90.3h-16.5c-0.3,0-0.5-0.2-0.5-0.5s0.2-0.5,0.5-0.5h16.5c0.3,0,0.5,0.2,0.5,0.5S275.8,90.3,275.5,90.3z
		"></path><path class="st1" d="M294.5,90.3h-11.5c-0.3,0-0.5-0.2-0.5-0.5s0.2-0.5,0.5-0.5h11.5c0.3,0,0.5,0.2,0.5,0.5S294.8,90.3,294.5,90.3
		L294.5,90.3z"></path><path class="st2" d="M335.5,90.3h-35.8c-0.3,0-0.5-0.2-0.5-0.5s0.2-0.5,0.5-0.5h35.8c0.3,0,0.5,0.2,0.5,0.5S335.8,90.3,335.5,90.3
		L335.5,90.3z"></path><path class="st1" d="M271.2,78.8h-11.4c-0.3,0-0.5-0.2-0.5-0.5s0.2-0.5,0.5-0.5h11.5c0.3,0,0.5,0.2,0.5,0.5
		C271.7,78.6,271.5,78.8,271.2,78.8C271.2,78.8,271.2,78.8,271.2,78.8z"></path><path class="st2" d="M312.2,78.8h-35.8c-0.3,0-0.5-0.2-0.5-0.5s0.2-0.5,0.5-0.5h35.8c0.3,0,0.5,0.2,0.5,0.5
		C312.7,78.6,312.5,78.8,312.2,78.8z"></path><path class="st1" d="M326.9,78.8h-11.5c-0.3,0-0.5-0.2-0.5-0.5s0.2-0.5,0.5-0.5h11.5c0.3,0,0.5,0.2,0.5,0.5S327.1,78.8,326.9,78.8z
		"></path><path class="st1" d="M355.1,78.8h-23c-0.3,0-0.5-0.2-0.5-0.5s0.2-0.5,0.5-0.5h23c0.3,0,0.5,0.2,0.5,0.5S355.4,78.8,355.1,78.8z"></path><path class="st2" d="M291,99.5h-31.6c-0.3,0-0.5-0.2-0.5-0.5s0.2-0.5,0.5-0.5H291c0.3,0,0.5,0.2,0.5,0.5S291.2,99.5,291,99.5z"></path><path class="st1" d="M313.8,99.5h-16.5c-0.3,0-0.5-0.2-0.5-0.5c0-0.3,0.2-0.5,0.5-0.5h16.5c0.3,0,0.5,0.2,0.5,0.5
		C314.3,99.2,314,99.5,313.8,99.5z"></path><path class="st1" d="M332.8,99.5h-11.5c-0.3,0-0.5-0.2-0.5-0.5s0.2-0.5,0.5-0.5h11.5c0.3,0,0.5,0.2,0.5,0.5
		C333.3,99.2,333,99.5,332.8,99.5z"></path><path class="st1" d="M361,99.5h-23c-0.3,0-0.5-0.2-0.5-0.5c0-0.3,0.2-0.5,0.5-0.5h23c0.3,0,0.5,0.2,0.5,0.5S361.3,99.5,361,99.5z"></path><path class="st1" d="M275.5,121.3h-16.5c-0.3,0-0.5-0.2-0.5-0.5c0-0.3,0.2-0.5,0.5-0.5h16.5c0.3,0,0.5,0.2,0.5,0.5
		C276,121.1,275.8,121.3,275.5,121.3z"></path><path class="st1" d="M294.5,121.3h-11.5c-0.3,0-0.5-0.2-0.5-0.5s0.2-0.5,0.5-0.5h11.5c0.3,0,0.5,0.2,0.5,0.5
		C295,121.1,294.8,121.3,294.5,121.3z"></path><path class="st2" d="M335.5,121.3h-35.8c-0.3,0-0.5-0.2-0.5-0.5c0-0.3,0.2-0.5,0.5-0.5h35.8c0.3,0,0.5,0.2,0.5,0.5
		C336.1,121.1,335.8,121.3,335.5,121.3C335.6,121.3,335.5,121.3,335.5,121.3z"></path><path class="st1" d="M271.2,109.8h-11.4c-0.3,0-0.5-0.2-0.5-0.5s0.2-0.5,0.5-0.5h11.5c0.3,0,0.5,0.2,0.5,0.5
		C271.7,109.6,271.5,109.8,271.2,109.8C271.2,109.8,271.2,109.8,271.2,109.8z"></path><path class="st1" d="M312.2,109.8h-35.8c-0.3,0-0.5-0.2-0.5-0.5s0.2-0.5,0.5-0.5h35.8c0.3,0,0.5,0.2,0.5,0.5
		C312.7,109.6,312.5,109.8,312.2,109.8z"></path><path class="st1" d="M326.9,109.8h-11.5c-0.3,0-0.5-0.2-0.5-0.5s0.2-0.5,0.5-0.5h11.5c0.3,0,0.5,0.2,0.5,0.5
		S327.1,109.8,326.9,109.8z"></path><path class="st1" d="M355.1,109.8h-23c-0.3,0-0.5-0.2-0.5-0.5s0.2-0.5,0.5-0.5h23c0.3,0,0.5,0.2,0.5,0.5S355.4,109.8,355.1,109.8z"></path><circle class="st2" cx="252.7" cy="52" r="2.2"></circle><path class="st1" d="M252.7,54.6c-1.5,0-2.7-1.2-2.7-2.7s1.2-2.7,2.7-2.7c1.5,0,2.7,1.2,2.7,2.7c0,0,0,0,0,0
		C255.3,53.4,254.2,54.6,252.7,54.6z M252.7,50.3c-0.9,0-1.7,0.7-1.7,1.7s0.7,1.7,1.7,1.7c0.9,0,1.7-0.7,1.7-1.7c0,0,0,0,0,0
		C254.3,51.1,253.6,50.3,252.7,50.3z"></path><ellipse class="st2" transform="matrix(0.2298 -0.9732 0.9732 0.2298 150.107 293.6179)" cx="260.6" cy="52" rx="2.2" ry="2.2"></ellipse><path class="st1" d="M260.6,54.6c-1.5,0-2.7-1.2-2.7-2.7s1.2-2.7,2.7-2.7c1.5,0,2.7,1.2,2.7,2.7c0,0,0,0,0,0
		C263.2,53.4,262,54.6,260.6,54.6z M260.6,50.3c-0.9,0-1.7,0.7-1.7,1.7s0.7,1.7,1.7,1.7c0.9,0,1.7-0.7,1.7-1.7c0,0,0,0,0,0
		C262.2,51.1,261.5,50.3,260.6,50.3z"></path><circle class="st2" cx="268.4" cy="52" r="2.2"></circle><path class="st1" d="M268.4,54.6c-1.5,0-2.7-1.2-2.7-2.7c0-1.5,1.2-2.7,2.7-2.7s2.7,1.2,2.7,2.7c0,0,0,0,0,0
		C271.1,53.4,269.9,54.6,268.4,54.6z M268.4,50.3c-0.9,0-1.7,0.7-1.7,1.7s0.7,1.7,1.7,1.7c0.9,0,1.7-0.7,1.7-1.7c0,0,0,0,0,0
		C270.1,51.1,269.3,50.3,268.4,50.3z"></path></g><g id="code-2"><rect class="st0" x="309.4" y="119.4" width="144.7" height="107.6"></rect><path class="st1" d="M454.1,227.5H309.4c-0.3,0-0.5-0.2-0.5-0.5V119.4c0-0.3,0.2-0.5,0.5-0.5h144.7c0.3,0,0.5,0.2,0.5,0.5v107.6
		C454.6,227.2,454.4,227.4,454.1,227.5C454.1,227.5,454.1,227.5,454.1,227.5z M309.9,226.5h143.7V119.9H309.9L309.9,226.5z"></path><path class="st1" d="M320.3,141.5c0.2,0,0.5-0.1,0.6-0.2c0.2-0.1,0.3-0.3,0.4-0.5c0.2-0.5,0.4-1,0.4-1.6v-2.7
		c0-0.6,0.2-1.1,0.6-1.6c0.3-0.3,0.8-0.5,1.2-0.5h1.6v1.2h-0.9c-0.3,0-0.5,0.2-0.6,0.5c-0.1,0.4-0.2,0.7-0.2,1.1v2.4
		c0,0.3-0.1,0.7-0.2,1c-0.1,0.3-0.2,0.5-0.4,0.8c-0.2,0.3-0.5,0.5-0.9,0.6l0,0c0.1,0,0.3,0.1,0.4,0.2c0.2,0.1,0.3,0.3,0.5,0.4
		c0.2,0.2,0.3,0.5,0.4,0.7c0.1,0.4,0.2,0.7,0.2,1.1v2.4c0,0.4,0.1,0.7,0.2,1.1c0.1,0.3,0.3,0.5,0.6,0.5h0.9v1.2h-1.6
		c-0.5,0-0.9-0.2-1.2-0.6c-0.4-0.4-0.6-1-0.6-1.5V145c0-0.6-0.1-1.1-0.4-1.6c-0.2-0.4-0.6-0.7-1.1-0.7V141.5z"></path><path class="st1" d="M326.6,146h1.9v1.9h-1.9V146z"></path><path class="st1" d="M331.1,146h1.9v1.9h-1.9V146z"></path><path class="st1" d="M334.4,148.6h0.9c0.3,0,0.6-0.2,0.6-0.5c0.1-0.3,0.2-0.7,0.2-1.1v-2.4c0-0.4,0.1-0.7,0.2-1.1
		c0.1-0.3,0.2-0.5,0.4-0.7c0.2-0.3,0.5-0.5,0.8-0.6l0,0l-0.3-0.2c-0.2-0.1-0.3-0.3-0.5-0.5c-0.2-0.2-0.3-0.5-0.4-0.7
		c-0.1-0.4-0.2-0.7-0.2-1.1v-2.4c0-0.4-0.1-0.7-0.2-1.1c-0.1-0.3-0.3-0.5-0.6-0.5h-0.9v-1.2h1.6c0.5,0,1,0.2,1.3,0.6
		c0.3,0.4,0.5,1,0.5,1.6v2.7c0,0.6,0.1,1.1,0.4,1.6c0.2,0.4,0.6,0.7,1.1,0.7v1.3c-0.5,0-0.9,0.3-1.1,0.7c-0.3,0.5-0.4,1.1-0.4,1.6
		v2.7c0,0.6-0.2,1.1-0.5,1.5c-0.3,0.4-0.8,0.6-1.3,0.6h-1.6L334.4,148.6z"></path><path class="st2" d="M320.3,141.5c0.2,0,0.5-0.1,0.6-0.2c0.2-0.1,0.3-0.3,0.4-0.5c0.2-0.5,0.4-1,0.4-1.6v-2.7
		c0-0.6,0.2-1.1,0.6-1.6c0.3-0.3,0.8-0.5,1.2-0.5h1.6v1.2h-0.9c-0.3,0-0.5,0.2-0.6,0.5c-0.1,0.4-0.2,0.7-0.2,1.1v2.4
		c0,0.3-0.1,0.7-0.2,1c-0.1,0.3-0.2,0.5-0.4,0.8c-0.2,0.3-0.5,0.5-0.9,0.6l0,0c0.1,0,0.3,0.1,0.4,0.2c0.2,0.1,0.3,0.3,0.5,0.4
		c0.2,0.2,0.3,0.5,0.4,0.7c0.1,0.4,0.2,0.7,0.2,1.1v2.4c0,0.4,0.1,0.7,0.2,1.1c0.1,0.3,0.3,0.5,0.6,0.5h0.9v1.2h-1.6
		c-0.5,0-0.9-0.2-1.2-0.6c-0.4-0.4-0.6-1-0.6-1.5V145c0-0.6-0.1-1.1-0.4-1.6c-0.2-0.4-0.6-0.7-1.1-0.7V141.5z"></path><path class="st2" d="M326.6,146h1.9v1.9h-1.9V146z"></path><path class="st2" d="M331.1,146h1.9v1.9h-1.9V146z"></path><path class="st2" d="M334.4,148.6h0.9c0.3,0,0.6-0.2,0.6-0.5c0.1-0.3,0.2-0.7,0.2-1.1v-2.4c0-0.4,0.1-0.7,0.2-1.1
		c0.1-0.3,0.2-0.5,0.4-0.7c0.2-0.3,0.5-0.5,0.8-0.6l0,0l-0.3-0.2c-0.2-0.1-0.3-0.3-0.5-0.5c-0.2-0.2-0.3-0.5-0.4-0.7
		c-0.1-0.4-0.2-0.7-0.2-1.1v-2.4c0-0.4-0.1-0.7-0.2-1.1c-0.1-0.3-0.3-0.5-0.6-0.5h-0.9v-1.2h1.6c0.5,0,1,0.2,1.3,0.6
		c0.3,0.4,0.5,1,0.5,1.6v2.7c0,0.6,0.1,1.1,0.4,1.6c0.2,0.4,0.6,0.7,1.1,0.7v1.3c-0.5,0-0.9,0.3-1.1,0.7c-0.3,0.5-0.4,1.1-0.4,1.6
		v2.7c0,0.6-0.2,1.1-0.5,1.5c-0.3,0.4-0.8,0.6-1.3,0.6h-1.6L334.4,148.6z"></path><path class="st1" d="M363.7,144.7h-18.5c-0.3,0-0.5-0.2-0.5-0.5s0.2-0.5,0.5-0.5h18.5c0.3,0,0.5,0.2,0.5,0.5
		C364.2,144.5,363.9,144.7,363.7,144.7z"></path><path class="st1" d="M387.6,171.8h-18.5c-0.3,0-0.5-0.2-0.5-0.5c0-0.3,0.2-0.5,0.5-0.5h18.5c0.3,0,0.5,0.2,0.5,0.5
		S387.9,171.8,387.6,171.8L387.6,171.8z"></path><path class="st1" d="M439.8,171.8h-47.1c-0.3,0-0.5-0.2-0.5-0.5s0.2-0.5,0.5-0.5h47.1c0.3,0,0.5,0.2,0.5,0.5S440,171.8,439.8,171.8
		z"></path><path class="st1" d="M439.8,144.7h-70.7c-0.3,0-0.5-0.2-0.5-0.5c0-0.3,0.2-0.5,0.5-0.5h70.7c0.3,0,0.5,0.2,0.5,0.5
		S440,144.7,439.8,144.7z"></path><path class="st1" d="M439.8,158.3H324.3c-0.3,0-0.5-0.2-0.5-0.5c0-0.3,0.2-0.5,0.5-0.5h115.5c0.3,0,0.5,0.2,0.5,0.5
		S440,158.3,439.8,158.3z"></path><path class="st1" d="M364.9,171.8h-40.6c-0.3,0-0.5-0.2-0.5-0.5c0-0.3,0.2-0.5,0.5-0.5h40.6c0.3,0,0.5,0.2,0.5,0.5
		S365.2,171.8,364.9,171.8L364.9,171.8z"></path><path class="st1" d="M387.6,200.7h-18.5c-0.3,0-0.5-0.2-0.5-0.5c0-0.3,0.2-0.5,0.5-0.5h18.5c0.3,0,0.5,0.2,0.5,0.5
		S387.9,200.7,387.6,200.7L387.6,200.7z"></path><path class="st1" d="M439.8,200.7h-47.1c-0.3,0-0.5-0.2-0.5-0.5s0.2-0.5,0.5-0.5h47.1c0.3,0,0.5,0.2,0.5,0.5S440,200.7,439.8,200.7
		z"></path><path class="st1" d="M439.8,187.2H324.3c-0.3,0-0.5-0.2-0.5-0.5c0-0.3,0.2-0.5,0.5-0.5h115.5c0.3,0,0.5,0.2,0.5,0.5
		S440,187.2,439.8,187.2z"></path><path class="st1" d="M364.9,200.7h-40.6c-0.3,0-0.5-0.2-0.5-0.5c0-0.3,0.2-0.5,0.5-0.5h40.6c0.3,0,0.5,0.2,0.5,0.5
		S365.2,200.7,364.9,200.7L364.9,200.7z"></path><path class="st1" d="M439.8,216.1H324.3c-0.3,0-0.5-0.2-0.5-0.5c0-0.3,0.2-0.5,0.5-0.5h115.5c0.3,0,0.5,0.2,0.5,0.5
		S440,216.1,439.8,216.1z"></path></g><g id="book"><path class="st0" d="M296.3,427.9c-0.1,0-0.1,0-0.2,0c-0.2-0.1-18.3-8.6-18.3-35.3c0-14,4.9-23.6,9.1-29.3c2.5-3.5,5.6-6.6,9.1-9.1
		l143.1-71.9c0.2-0.1,0.4-0.1,0.6,0.1c0.2,0.1,0.2,0.4,0.1,0.6c-0.1,0.2-9.6,21.4-9.6,40.6s9.5,31.6,9.6,31.7
		c0.1,0.1,0.1,0.3,0.1,0.4c0,0.1-0.1,0.3-0.3,0.3l-143.1,71.8C296.5,427.8,296.4,427.9,296.3,427.9z M438.4,283.7l-141.9,71.2
		c-0.1,0.1-17.7,11.4-17.7,37.6c0,13.6,4.8,22.3,8.8,27.1c2.4,2.9,5.3,5.4,8.6,7.2l142.3-71.5c-6.2-9.5-9.5-20.5-9.4-31.9
		C429.2,306.8,436.4,288.6,438.4,283.7z"></path><path class="st0" d="M296.3,355L296.3,355l-133.1-24.4L51.8,311.2c-0.2,0-0.4-0.2-0.4-0.4c0-0.2,0.1-0.4,0.2-0.5l130.6-78.3
		c0.1-0.1,0.2-0.1,0.4-0.1l118.4,23l138.5,27.3c0.3,0.1,0.5,0.3,0.4,0.6c0,0.2-0.1,0.3-0.3,0.4l-143.1,71.8
		C296.5,355,296.4,355,296.3,355z M53.3,310.5l110.1,19.2L296.3,354l141.6-71.1l-137.1-27l-118.2-22.9L53.3,310.5z"></path><path class="st0" d="M296.3,427.4L56.8,380.5c-10.1-2-17.4-10.8-17.4-21.1v-29.2c0-8.4,4.9-16,12.5-19.5l0,0l244.4,43.8
		c0,0-18,11.3-18,38S296.3,427.4,296.3,427.4z"></path><path class="st0" d="M296.3,427.9L296.3,427.9L56.7,380.9c-10.3-2-17.8-11.1-17.8-21.6v-29.2c0-8.6,5-16.4,12.8-20
		c0.1,0,0.1,0,0.2,0l244.5,43.8c0.2,0,0.4,0.2,0.4,0.4c0,0.2,0,0.4-0.2,0.5c-0.2,0.1-17.8,11.5-17.8,37.6s17.5,34.3,17.7,34.4
		c0.3,0.1,0.5,0.3,0.4,0.6C296.9,427.7,296.6,427.9,296.3,427.9z M52,311.2c-7.4,3.5-12.1,10.9-12.1,19v29.2c0,10,7.1,18.7,17,20.6
		l236.8,46.4c-5-3.4-15.8-13.2-15.8-33.8c0-23,13.4-34.8,17.2-37.7L52,311.2z"></path><polygon class="st0" points="116.6,303.4 197.4,255.1 260.3,266.2 175.1,313.4 	"></polygon><path class="st0" d="M175.1,313.9L175.1,313.9l-58.6-10c-0.2,0-0.4-0.2-0.4-0.4c0-0.2,0.1-0.4,0.2-0.5l80.8-48.3
		c0.1-0.1,0.2-0.1,0.3-0.1l62.9,11.1c0.2,0,0.4,0.2,0.4,0.4c0,0.2-0.1,0.4-0.2,0.5l-85.2,47.2C175.3,313.9,175.2,313.9,175.1,313.9z
		 M118,303.1l57,9.8l83.8-46.5l-61.3-10.8L118,303.1z"></path><path class="st0" d="M161.4,301.1c-0.2,0-0.4-0.2-0.5-0.4l-2.9-16.1c0-0.3,0.1-0.5,0.4-0.6c0.3,0,0.5,0.1,0.6,0.4l2.8,15.7
		l27.1-3.5c0.3,0,0.5,0.2,0.6,0.4c0,0.3-0.1,0.5-0.4,0.6c0,0,0,0,0,0L161.4,301.1L161.4,301.1z"></path><path class="st0" d="M205.4,283.4h-39.6c-0.3,0-0.5-0.2-0.5-0.5c0-0.3,0.2-0.5,0.5-0.5h39.6c0.3,0,0.5,0.2,0.5,0.5
		S205.6,283.4,205.4,283.4z"></path><path class="st0" d="M211.1,280c-0.3,0-0.5-0.2-0.5-0.4l-1.1-10.4l-25.4,2.6c-0.3,0-0.5-0.2-0.5-0.4c0,0,0,0,0,0
		c0-0.3,0.2-0.5,0.4-0.5c0,0,0,0,0,0l25.9-2.6c0.3,0,0.5,0.2,0.5,0.4c0,0,0,0,0,0l1.2,10.9C211.6,279.7,211.4,280,211.1,280
		L211.1,280z"></path><path class="st0" d="M296,365.9c-0.3,0.1-0.5-0.1-0.6-0.4c-0.1-0.3,0.1-0.5,0.4-0.6l126.4-62.1c0.2-0.2,0.5-0.1,0.7,0.1
		c0.2,0.2,0.1,0.5-0.1,0.7c0,0-0.1,0-0.1,0.1l-126.4,62.2C296.1,365.9,296.1,365.9,296,365.9z"></path><path class="st0" d="M296,378.1c-0.3,0.1-0.5-0.1-0.6-0.4c-0.1-0.3,0.1-0.5,0.4-0.6l126.4-62.1c0.2-0.1,0.5,0,0.7,0.2
		c0.1,0.2,0,0.5-0.2,0.7L296.2,378C296.1,378,296.1,378.1,296,378.1z"></path><path class="st0" d="M296,390.2c-0.3,0.1-0.5-0.1-0.6-0.4c-0.1-0.3,0.1-0.5,0.4-0.6L422.2,327c0.2-0.2,0.5-0.1,0.7,0.1
		c0.2,0.2,0.1,0.5-0.1,0.7c0,0-0.1,0-0.1,0.1l-126.4,62.2C296.1,390.2,296.1,390.2,296,390.2z"></path><path class="st0" d="M299,400.9c-0.3,0-0.5-0.2-0.5-0.5c0-0.2,0.1-0.4,0.3-0.5l126.4-62.1c0.2-0.1,0.5,0,0.7,0.2
		c0.1,0.2,0,0.5-0.2,0.7l-126.4,62.1C299.2,400.9,299.1,400.9,299,400.9z"></path><path class="st0" d="M302.2,409.1c-0.3,0-0.5-0.2-0.5-0.5c0-0.2,0.1-0.4,0.3-0.5L428.4,346c0.2-0.1,0.6,0,0.7,0.2
		c0.1,0.2,0,0.6-0.2,0.7l0,0l-126.4,62.1C302.3,409.1,302.2,409.1,302.2,409.1z"></path><path class="st1" d="M296.3,427.9c-0.1,0-0.1,0-0.2,0c-0.2-0.1-18.3-8.6-18.3-35.3c0-14,4.9-23.6,9.1-29.3c2.5-3.5,5.6-6.6,9.1-9.1
		l143.1-71.9c0.2-0.1,0.4-0.1,0.6,0.1c0.2,0.1,0.2,0.4,0.1,0.6c-0.1,0.2-9.6,21.4-9.6,40.6s9.5,31.6,9.6,31.7
		c0.1,0.1,0.1,0.3,0.1,0.4c0,0.1-0.1,0.3-0.3,0.3l-143.1,71.8C296.5,427.8,296.4,427.9,296.3,427.9z M438.4,283.7l-141.9,71.2
		c-0.1,0.1-17.7,11.4-17.7,37.6c0,13.6,4.8,22.3,8.8,27.1c2.4,2.9,5.3,5.4,8.6,7.2l142.3-71.5c-6.2-9.5-9.5-20.5-9.4-31.9
		C429.2,306.8,436.4,288.6,438.4,283.7z"></path><path class="st1" d="M296.3,355L296.3,355l-133.1-24.4L51.8,311.2c-0.2,0-0.4-0.2-0.4-0.4c0-0.2,0.1-0.4,0.2-0.5l130.6-78.3
		c0.1-0.1,0.2-0.1,0.4-0.1l118.4,23l138.5,27.3c0.3,0.1,0.5,0.3,0.4,0.6c0,0.2-0.1,0.3-0.3,0.4l-143.1,71.8
		C296.5,355,296.4,355,296.3,355z M53.3,310.5l110.1,19.2L296.3,354l141.6-71.1l-137.1-27l-118.2-22.9L53.3,310.5z"></path><path class="st0" d="M296.3,427.4L56.8,380.5c-10.1-2-17.4-10.8-17.4-21.1v-29.2c0-8.4,4.9-16,12.5-19.5l0,0l244.4,43.8
		c0,0-18,11.3-18,38S296.3,427.4,296.3,427.4z"></path><path class="st1" d="M296.3,427.9L296.3,427.9L56.7,380.9c-10.3-2-17.8-11.1-17.8-21.6v-29.2c0-8.6,5-16.4,12.8-20
		c0.1,0,0.1,0,0.2,0l244.5,43.8c0.2,0,0.4,0.2,0.4,0.4c0,0.2,0,0.4-0.2,0.5c-0.2,0.1-17.8,11.5-17.8,37.6s17.5,34.3,17.7,34.4
		c0.3,0.1,0.5,0.3,0.4,0.6C296.9,427.7,296.6,427.9,296.3,427.9z M52,311.2c-7.4,3.5-12.1,10.9-12.1,19v29.2c0,10,7.1,18.7,17,20.6
		l236.8,46.4c-5-3.4-15.8-13.2-15.8-33.8c0-23,13.4-34.8,17.2-37.7L52,311.2z"></path><polygon class="st2" points="116.6,303.4 197.4,255.1 260.3,266.2 175.1,313.4 	"></polygon><path class="st1" d="M175.1,313.9L175.1,313.9l-58.6-10c-0.2,0-0.4-0.2-0.4-0.4c0-0.2,0.1-0.4,0.2-0.5l80.8-48.3
		c0.1-0.1,0.2-0.1,0.3-0.1l62.9,11.1c0.2,0,0.4,0.2,0.4,0.4c0,0.2-0.1,0.4-0.2,0.5l-85.2,47.2C175.3,313.9,175.2,313.9,175.1,313.9z
		 M118,303.1l57,9.8l83.8-46.5l-61.3-10.8L118,303.1z"></path><path class="st1" d="M161.4,301.1c-0.2,0-0.4-0.2-0.5-0.4l-2.9-16.1c0-0.3,0.1-0.5,0.4-0.6c0.3,0,0.5,0.1,0.6,0.4l2.8,15.7
		l27.1-3.5c0.3,0,0.5,0.2,0.6,0.4c0,0.3-0.1,0.5-0.4,0.6c0,0,0,0,0,0L161.4,301.1L161.4,301.1z"></path><path class="st1" d="M205.4,283.4h-39.6c-0.3,0-0.5-0.2-0.5-0.5c0-0.3,0.2-0.5,0.5-0.5h39.6c0.3,0,0.5,0.2,0.5,0.5
		S205.6,283.4,205.4,283.4z"></path><path class="st1" d="M211.1,280c-0.3,0-0.5-0.2-0.5-0.4l-1.1-10.4l-25.4,2.6c-0.3,0-0.5-0.2-0.5-0.4c0,0,0,0,0,0
		c0-0.3,0.2-0.5,0.4-0.5c0,0,0,0,0,0l25.9-2.6c0.3,0,0.5,0.2,0.5,0.4c0,0,0,0,0,0l1.2,10.9C211.6,279.7,211.4,280,211.1,280
		L211.1,280z"></path><path class="st1" d="M296,365.9c-0.3,0.1-0.5-0.1-0.6-0.4c-0.1-0.3,0.1-0.5,0.4-0.6l126.4-62.1c0.2-0.2,0.5-0.1,0.7,0.1
		c0.2,0.2,0.1,0.5-0.1,0.7c0,0-0.1,0-0.1,0.1l-126.4,62.2C296.1,365.9,296.1,365.9,296,365.9z"></path><path class="st1" d="M296,378.1c-0.3,0.1-0.5-0.1-0.6-0.4c-0.1-0.3,0.1-0.5,0.4-0.6l126.4-62.1c0.2-0.1,0.5,0,0.7,0.2
		c0.1,0.2,0,0.5-0.2,0.7L296.2,378C296.1,378,296.1,378.1,296,378.1z"></path><path class="st1" d="M296,390.2c-0.3,0.1-0.5-0.1-0.6-0.4c-0.1-0.3,0.1-0.5,0.4-0.6L422.2,327c0.2-0.2,0.5-0.1,0.7,0.1
		c0.2,0.2,0.1,0.5-0.1,0.7c0,0-0.1,0-0.1,0.1l-126.4,62.2C296.1,390.2,296.1,390.2,296,390.2z"></path><path class="st1" d="M299,400.9c-0.3,0-0.5-0.2-0.5-0.5c0-0.2,0.1-0.4,0.3-0.5l126.4-62.1c0.2-0.1,0.5,0,0.7,0.2
		c0.1,0.2,0,0.5-0.2,0.7l-126.4,62.1C299.2,400.9,299.1,400.9,299,400.9z"></path><path class="st1" d="M302.2,409.1c-0.3,0-0.5-0.2-0.5-0.5c0-0.2,0.1-0.4,0.3-0.5L428.4,346c0.2-0.1,0.6,0,0.7,0.2
		c0.1,0.2,0,0.6-0.2,0.7l0,0l-126.4,62.1C302.3,409.1,302.2,409.1,302.2,409.1z"></path><path class="st3" d="M296.3,427.9c-0.1,0-0.1,0-0.2,0c-0.2-0.1-18.3-8.6-18.3-35.3c0-14,4.9-23.6,9.1-29.3c2.5-3.5,5.6-6.6,9.1-9.1
		l143.1-71.9c0.2-0.1,0.4-0.1,0.6,0.1c0.2,0.1,0.2,0.4,0.1,0.6c-0.1,0.2-9.6,21.4-9.6,40.6s9.5,31.6,9.6,31.7
		c0.1,0.1,0.1,0.3,0.1,0.4c0,0.1-0.1,0.3-0.3,0.3l-143.1,71.8C296.5,427.8,296.4,427.9,296.3,427.9z M438.4,283.7l-141.9,71.2
		c-0.1,0.1-17.7,11.4-17.7,37.6c0,13.6,4.8,22.3,8.8,27.1c2.4,2.9,5.3,5.4,8.6,7.2l142.3-71.5c-6.2-9.5-9.5-20.5-9.4-31.9
		C429.2,306.8,436.4,288.6,438.4,283.7z"></path><path class="st3" d="M296.3,355L296.3,355l-133.1-24.4L51.8,311.2c-0.2,0-0.4-0.2-0.4-0.4c0-0.2,0.1-0.4,0.2-0.5l130.6-78.3
		c0.1-0.1,0.2-0.1,0.4-0.1l118.4,23l138.5,27.3c0.3,0.1,0.5,0.3,0.4,0.6c0,0.2-0.1,0.3-0.3,0.4l-143.1,71.8
		C296.5,355,296.4,355,296.3,355z M53.3,310.5l110.1,19.2L296.3,354l141.6-71.1l-137.1-27l-118.2-22.9L53.3,310.5z"></path><path class="st3" d="M296.3,427.4L56.8,380.5c-10.1-2-17.4-10.8-17.4-21.1v-29.2c0-8.4,4.9-16,12.5-19.5l0,0l244.4,43.8
		c0,0-18,11.3-18,38S296.3,427.4,296.3,427.4z"></path><path class="st3" d="M296.3,427.9L296.3,427.9L56.7,380.9c-10.3-2-17.8-11.1-17.8-21.6v-29.2c0-8.6,5-16.4,12.8-20
		c0.1,0,0.1,0,0.2,0l244.5,43.8c0.2,0,0.4,0.2,0.4,0.4c0,0.2,0,0.4-0.2,0.5c-0.2,0.1-17.8,11.5-17.8,37.6s17.5,34.3,17.7,34.4
		c0.3,0.1,0.5,0.3,0.4,0.6C296.9,427.7,296.6,427.9,296.3,427.9z M52,311.2c-7.4,3.5-12.1,10.9-12.1,19v29.2c0,10,7.1,18.7,17,20.6
		l236.8,46.4c-5-3.4-15.8-13.2-15.8-33.8c0-23,13.4-34.8,17.2-37.7L52,311.2z"></path><polygon class="st3" points="116.6,303.4 197.4,255.1 260.3,266.2 175.1,313.4 	"></polygon><path class="st3" d="M175.1,313.9L175.1,313.9l-58.6-10c-0.2,0-0.4-0.2-0.4-0.4c0-0.2,0.1-0.4,0.2-0.5l80.8-48.3
		c0.1-0.1,0.2-0.1,0.3-0.1l62.9,11.1c0.2,0,0.4,0.2,0.4,0.4c0,0.2-0.1,0.4-0.2,0.5l-85.2,47.2C175.3,313.9,175.2,313.9,175.1,313.9z
		 M118,303.1l57,9.8l83.8-46.5l-61.3-10.8L118,303.1z"></path><path class="st3" d="M161.4,301.1c-0.2,0-0.4-0.2-0.5-0.4l-2.9-16.1c0-0.3,0.1-0.5,0.4-0.6c0.3,0,0.5,0.1,0.6,0.4l2.8,15.7
		l27.1-3.5c0.3,0,0.5,0.2,0.6,0.4c0,0.3-0.1,0.5-0.4,0.6c0,0,0,0,0,0L161.4,301.1L161.4,301.1z"></path><path class="st3" d="M205.4,283.4h-39.6c-0.3,0-0.5-0.2-0.5-0.5c0-0.3,0.2-0.5,0.5-0.5h39.6c0.3,0,0.5,0.2,0.5,0.5
		S205.6,283.4,205.4,283.4z"></path><path class="st3" d="M211.1,280c-0.3,0-0.5-0.2-0.5-0.4l-1.1-10.4l-25.4,2.6c-0.3,0-0.5-0.2-0.5-0.4c0,0,0,0,0,0
		c0-0.3,0.2-0.5,0.4-0.5c0,0,0,0,0,0l25.9-2.6c0.3,0,0.5,0.2,0.5,0.4c0,0,0,0,0,0l1.2,10.9C211.6,279.7,211.4,280,211.1,280
		L211.1,280z"></path><path class="st3" d="M296,365.9c-0.3,0.1-0.5-0.1-0.6-0.4c-0.1-0.3,0.1-0.5,0.4-0.6l126.4-62.1c0.2-0.2,0.5-0.1,0.7,0.1
		c0.2,0.2,0.1,0.5-0.1,0.7c0,0-0.1,0-0.1,0.1l-126.4,62.2C296.1,365.9,296.1,365.9,296,365.9z"></path><path class="st3" d="M296,378.1c-0.3,0.1-0.5-0.1-0.6-0.4c-0.1-0.3,0.1-0.5,0.4-0.6l126.4-62.1c0.2-0.1,0.5,0,0.7,0.2
		c0.1,0.2,0,0.5-0.2,0.7L296.2,378C296.1,378,296.1,378.1,296,378.1z"></path><path class="st3" d="M296,390.2c-0.3,0.1-0.5-0.1-0.6-0.4c-0.1-0.3,0.1-0.5,0.4-0.6L422.2,327c0.2-0.2,0.5-0.1,0.7,0.1
		c0.2,0.2,0.1,0.5-0.1,0.7c0,0-0.1,0-0.1,0.1l-126.4,62.2C296.1,390.2,296.1,390.2,296,390.2z"></path><path class="st3" d="M299,400.9c-0.3,0-0.5-0.2-0.5-0.5c0-0.2,0.1-0.4,0.3-0.5l126.4-62.1c0.2-0.1,0.5,0,0.7,0.2
		c0.1,0.2,0,0.5-0.2,0.7l-126.4,62.1C299.2,400.9,299.1,400.9,299,400.9z"></path><path class="st3" d="M302.2,409.1c-0.3,0-0.5-0.2-0.5-0.5c0-0.2,0.1-0.4,0.3-0.5L428.4,346c0.2-0.1,0.6,0,0.7,0.2
		c0.1,0.2,0,0.6-0.2,0.7l0,0l-126.4,62.1C302.3,409.1,302.2,409.1,302.2,409.1z"></path></g><g id="character-2"><path class="st2" d="M249.8,434.1l-29.9,14c-1.5,0.7-3.2,0.1-3.9-1.4c-0.1-0.1-0.1-0.3-0.1-0.4l-0.3-1c0,0-4-12,3.7-22.1
		c1-1.4,2.2-2.6,3.6-3.8c1.5-1.3,3.2-2.5,5-3.5c0,0,4.4,0,12.8-4.1l7.4,17.8L249.8,434.1z"></path><path class="st1" d="M215.9,445.3c-0.2,0-0.4-0.1-0.4-0.3c-0.1-0.2,0-0.5,0.2-0.7c0,0,0,0,0,0l32-15.1c0.2-0.1,0.5-0.1,0.7,0.2
		c0.1,0.2,0.1,0.5-0.2,0.7c0,0-0.1,0-0.1,0l-32.1,15.1C216.1,445.3,216,445.3,215.9,445.3z"></path><path class="st1" d="M254.6,415.2L254.6,415.2c-0.3,0-0.5-0.2-0.5-0.5c0-0.3,0.2-0.5,0.5-0.5c0.3,0,0.5,0.2,0.5,0.5
		C255.2,414.9,254.9,415.2,254.6,415.2C254.7,415.2,254.7,415.2,254.6,415.2L254.6,415.2z"></path><path class="st1" d="M231.2,422.5c0,0-0.1,0-0.1,0l-12.5-3.6c-0.3-0.1-0.4-0.3-0.3-0.6c0,0,0,0,0,0c0.1-0.3,0.3-0.4,0.6-0.4
		l12.5,3.5c0.3,0.1,0.4,0.4,0.3,0.6C231.7,422.3,231.5,422.5,231.2,422.5z"></path><path class="st1" d="M227.6,426.2c0,0-0.1,0-0.1,0l-12.5-3.6c-0.3-0.1-0.4-0.3-0.3-0.6c0,0,0,0,0,0c0.1-0.3,0.3-0.4,0.6-0.4
		c0,0,0,0,0,0l12.5,3.5c0.3,0.1,0.4,0.4,0.3,0.6C228,426,227.9,426.2,227.6,426.2z"></path><path class="st0" d="M215.2,318.5l-14.1,17.3c-6.5,8-8.3,18.9-4.6,28.6l18,46.6c0.9,2.4,3.3,3.8,5.9,3.6l0,0
		c6.5-0.7,12.9-2.7,18.7-5.7l13.1-23.4l2.5-65.6L215.2,318.5z"></path><path class="st1" d="M219.8,415c-2.5,0-4.8-1.6-5.7-3.9l-18-46.6c-3.8-9.8-2-20.9,4.7-29.1l14.1-17.3c0.1-0.1,0.2-0.2,0.4-0.2
		l39.5,1.3c0.1,0,0.3,0.1,0.4,0.2c0.1,0.1,0.1,0.2,0.1,0.4l-2.5,65.6c0,0.1,0,0.2-0.1,0.2L239.5,409c0,0.1-0.1,0.1-0.2,0.2
		c-5.9,3.1-12.3,5.1-18.9,5.8C220.2,415,220,415,219.8,415z M215.4,319l-13.9,17.1c-6.4,7.9-8.1,18.6-4.5,28.1l18,46.6
		c0.8,2.2,3,3.5,5.4,3.2c6.4-0.7,12.7-2.6,18.4-5.6l13-23.1l2.5-64.9L215.4,319z"></path><path class="st0" d="M328.2,303.3c0,23.2-21.8,38.6-42.6,45.1s-22.9,9.8-22.9,9.8l14.9,48.2c0.7,2.2-0.1,4.7-1.9,6.1l-0.1,0.1
		c-7.6,5.9-16.7,9.6-26.4,10.7l0,0c-2.5,0.3-4.9-1.2-5.9-3.6l-17.9-46.6c-3.7-9.6-2-20.6,4.6-28.6l14.1-17.2l17.8-15.9l61.8-15.6
		C323.6,296,328.6,298,328.2,303.3z"></path><path class="st1" d="M248.6,423.9c-2.5,0-4.8-1.6-5.7-3.9l-18-46.6c-3.8-9.8-2-20.9,4.6-29.1l14.1-17.3l17.8-15.9
		c0.1-0.1,0.1-0.1,0.2-0.1l61.9-15.7c0.1,0,0.2,0,0.3,0c0,0,5.4,2.2,5,7.8c0,10.8-4.6,20.6-13.6,29.2c-7.5,7-17.9,12.9-29.4,16.5
		c-17.8,5.6-21.8,8.7-22.5,9.4l14.8,48c0.7,2.4-0.1,5.1-2.1,6.6l-0.1,0.1c-7.7,6-16.9,9.7-26.6,10.8
		C249,423.9,248.8,423.9,248.6,423.9z M262,312.1l-17.7,15.7l-14,17.2c-6.4,7.9-8.2,18.6-4.5,28.1l18,46.6c0.8,2.2,3,3.5,5.4,3.3
		c9.5-1,18.5-4.7,26.1-10.6l0.1-0.1c1.7-1.3,2.4-3.5,1.8-5.6l-14.9-48.2c0-0.1,0-0.3,0.1-0.4c0.1-0.1,2.4-3.5,23.2-10
		c31.2-9.8,42.3-29.5,42.3-44.7l0,0c0.3-4.4-3.5-6.4-4.2-6.8L262,312.1z"></path><path class="st0" d="M252.2,193.3l39.5-13.3c0,0,6.8-0.4,9.2,3.5s2.4,4.9,3.4,5.1s7.3,0.1,10,5.8s2,7.3,2.4,8.6s7.3,4.9,8.4,12.9
		s-3.5,11.8-3.5,11.8l-63-4.2c-11.3,2.4-16.2-4.3-17.5-11s5.4-9.5,5.9-10.6S247.2,195.3,252.2,193.3"></path><path class="st1" d="M321.5,228.3L321.5,228.3l-63-4.2c-4.8,1-8.8,0.5-12-1.6s-5.2-5.5-6-9.8c-1.1-5.4,2.8-8.4,4.9-10
		c0.4-0.3,0.8-0.6,1.1-0.9c0.1-0.4,0.2-0.8,0.2-1.1c0.4-2.1,1.1-6.1,5.3-7.7l0,0l39.5-13.3h0.1c0.3,0,7.1-0.4,9.7,3.7
		c1,1.6,1.6,2.8,2,3.5c0.6,1.1,0.7,1.3,1,1.4l0.5,0.1c1.8,0.2,7.4,0.7,9.8,6c2,4.3,2.2,6.4,2.3,7.6c0,0.3,0.1,0.7,0.1,1
		c0.4,0.5,0.8,0.9,1.3,1.3c2.2,2,6.3,5.6,7.1,11.7c1.1,8.2-3.5,12.1-3.7,12.3C321.7,228.2,321.6,228.3,321.5,228.3z M258.5,223
		L258.5,223l62.8,4.2c0.7-0.7,4.1-4.4,3.2-11.2c-0.8-5.7-4.7-9.2-6.8-11.1c-0.9-0.8-1.5-1.3-1.6-1.8c-0.1-0.4-0.2-0.8-0.2-1.2
		c-0.1-1.2-0.3-3.1-2.2-7.3c-2.2-4.8-7.2-5.3-9-5.5c-0.3,0-0.5-0.1-0.6-0.1c-0.8-0.2-1.1-0.7-1.7-1.9c-0.4-0.8-1-1.9-2-3.4
		c-2.1-3.4-8-3.3-8.7-3.3l-39.4,13.2c-3.7,1.5-4.3,4.9-4.7,7c-0.1,0.5-0.2,0.9-0.3,1.4c-0.4,0.5-0.8,1-1.4,1.3c-2,1.6-5.4,4.2-4.5,9
		c0.8,4.1,2.8,7.3,5.6,9.1s6.7,2.4,11.3,1.4L258.5,223z"></path><path class="st2" d="M213.4,228.1c2.5-0.8,4.4-0.1,6.8,2.9s15,17.5,15,17.5s8.5-19.1,11.6-25.6s13.5-16.2,20.7-18.4
		s25.5-3.4,37.7,0s17.2,13.4,20.3,20.9s10.3,41.8,10.1,45.3s-6,8.2-6,8.2l5,17.1c0,0-17.6,8.3-32,7.2s-14.5-5.7-14.5-5.7l-15.9-3.8
		c0,0-25.1-3.3-27-4.9s0.7-16.3,0.7-16.3s-13.8,10.7-25.4-4.7s-19.2-30.8-17.7-33.2S213.4,228.1,213.4,228.1z"></path><path class="st1" d="M235.1,276.6c-0.7,0-1.4,0-2.1-0.1c-4.8-0.6-9.1-3.5-12.8-8.4c-10.9-14.4-19.5-30.9-17.8-33.8
		c0.6-1,2.3-2.3,5.2-3.9c0.2-0.1,0.5,0,0.7,0.2c0.1,0.2,0.1,0.5-0.2,0.7c0,0,0,0,0,0c-3.4,1.9-4.5,3-4.8,3.5
		c-1.2,2,5.9,17,17.7,32.7c3.5,4.7,7.6,7.4,12.1,8c6.9,0.9,12.5-3.4,12.6-3.4c0.2-0.2,0.5-0.2,0.7,0s0.2,0.5,0,0.7c0,0,0,0,0,0
		C243,275.3,239.1,276.6,235.1,276.6z"></path><polygon class="st0" points="306.8,302.1 270.9,327.4 242.1,293.2 248,289.5 	"></polygon><path class="st1" d="M270.9,327.9c-0.1,0-0.3-0.1-0.4-0.2l-28.8-34.2c-0.1-0.1-0.1-0.3-0.1-0.4c0-0.1,0.1-0.3,0.2-0.3l6-3.8
		c0.1-0.1,0.2-0.1,0.4-0.1l58.7,12.6c0.2,0,0.4,0.2,0.4,0.4c0,0.2,0,0.4-0.2,0.5l-35.9,25.4C271.1,327.9,271,327.9,270.9,327.9z
		 M242.9,293.4l28.1,33.4l34.6-24.4L248.2,290L242.9,293.4z"></path><polygon class="st2" points="306.8,302.1 306.8,306.9 274,330.9 273.7,330.8 270.9,327.4 	"></polygon><path class="st1" d="M274,331.4h-0.1l-0.3-0.1c-0.1,0-0.2-0.1-0.3-0.2l-2.9-3.4c-0.1-0.1-0.1-0.3-0.1-0.4c0-0.1,0.1-0.3,0.2-0.3
		l35.9-25.4c0.2-0.1,0.4-0.1,0.5,0c0.2,0.1,0.3,0.3,0.3,0.4v4.8c0,0.2-0.1,0.3-0.2,0.4l-32.8,24C274.2,331.4,274.1,331.4,274,331.4z
		 M271.6,327.5l2.4,2.8l32.3-23.7V303L271.6,327.5z"></path><polygon class="st0" points="273.7,330.8 267.8,329.6 214.8,318.4 189.3,283.2 239.8,290.6 242.1,293.2 270.9,327.4 	"></polygon><path class="st1" d="M273.8,331.3h-0.1l-59-12.4c-0.1,0-0.2-0.1-0.3-0.2l-25.5-35.3c-0.1-0.2-0.1-0.4,0-0.5
		c0.1-0.2,0.3-0.3,0.5-0.2l50.6,7.4c0.1,0,0.2,0.1,0.3,0.2l33.9,40.2c0.1,0.2,0.1,0.4,0,0.6C274.1,331.2,273.9,331.3,273.8,331.3z
		 M215.1,318l57.3,12.1l-32.8-39l-49.2-7.2L215.1,318z"></path><path class="st1" d="M285.6,301.4c-0.2,0-0.4-0.1-0.5-0.3c-0.7-1.7,0-2.6,0.5-2.9c0.2-0.1,0.5,0,0.7,0.2c0.1,0.2,0,0.5-0.2,0.7
		c-0.1,0-0.6,0.4-0.1,1.6c0.1,0.3,0,0.5-0.3,0.7c0,0,0,0,0,0C285.7,301.4,285.6,301.4,285.6,301.4z"></path><path class="st0" d="M285.6,300.9c3.2-0.5,6.3-1.8,8.9-3.8c0,0,2.1-6.1-1.4-10.9s-6.9-4.9-6.9-4.9c-4.4,1-9,1.3-13.5,0.9
		c-8-0.6-10-0.7-10.1,1.4s5.6,3.5,5.6,3.5s-6.5,1.8-8.6,6s-4.6,9.4-4.6,9.4s0.4,1.6,3.4,0.8c3-0.9,8-9.6,8-9.6s-2.4,5-3.4,8
		s-0.5,5.1,1.7,4.9s4.9-7.2,6.4-8.3c1.3-0.9,2.6-1.6,4-2.3c0,0-2.9,4.9-3.1,9s0.7,7.7,3.1,6.3s3.1-8.5,3.5-9.6
		c0.4-1,0.9-1.9,1.5-2.7c0,0-0.8,5.6,2.9,6.8s8.4-0.4,8-2.1s-4.7-1.7-4.7-1.7L285.6,300.9z"></path><path class="st1" d="M274.1,312.1c-0.3,0-0.6-0.1-0.9-0.2c-1.8-1.1-1.8-5.2-1.7-6.9c0.3-2.7,1.1-5.4,2.4-7.8
		c-0.9,0.4-1.7,1-2.5,1.5c-0.9,1-1.6,2-2.1,3.2c-1.5,2.5-3,5.1-4.5,5.3c-0.8,0.1-1.6-0.2-2.1-0.8c-0.8-0.9-0.8-2.6-0.1-4.8
		c0.2-0.7,0.5-1.6,0.9-2.4c-1.6,2.1-3.4,4.2-4.9,4.6c-1,0.4-2.1,0.4-3.1,0c-0.4-0.2-0.7-0.6-0.9-1.1c0-0.1,0-0.2,0-0.3
		c0,0,2.5-5.2,4.6-9.4c1.5-3.1,5.2-4.9,7.3-5.7c-1.9-0.6-4.6-1.8-4.5-3.6c0-0.6,0.2-1.1,0.6-1.5c1.1-1,3.7-0.8,10-0.4
		c4.5,0.4,9,0.1,13.3-0.9c0,0,0.1,0,0.1,0c0.1,0,3.7,0.2,7.3,5.1s1.6,11.1,1.5,11.4c0,0.1-0.1,0.2-0.2,0.2c-2.5,1.9-5.3,3.1-8.4,3.7
		l0.1,0.2c1.1,0,4.5,0.2,4.9,2c0.1,0.6-0.1,1.2-0.6,1.6c-1.4,1.3-5,2.1-8,1.1c-2.6-0.8-3.2-3.6-3.3-5.5c-0.2,0.3-0.4,0.7-0.5,1.1
		c-0.1,0.2-0.1,0.7-0.2,1.3c-0.5,2.6-1.4,7.4-3.5,8.7C275,312,274.6,312.1,274.1,312.1z M275.1,295.5c0.3,0,0.5,0.2,0.5,0.5
		c0,0.1,0,0.2-0.1,0.2c0,0-2.8,4.8-3,8.8c-0.1,3,0.3,5.5,1.2,6c0.1,0.1,0.4,0.2,1.1-0.2c1.7-1,2.6-5.7,3-8c0.1-0.6,0.2-1.1,0.3-1.4
		c0.4-1,0.9-2,1.6-2.9c0.2-0.2,0.5-0.3,0.7-0.1c0.1,0.1,0.2,0.3,0.2,0.5c0,0-0.6,5.2,2.5,6.3c2.5,0.8,5.9,0.2,7-0.9
		c0.2-0.2,0.4-0.5,0.3-0.6c-0.2-1-3-1.3-4.2-1.3c-0.2,0-0.3-0.1-0.4-0.2l-0.7-1.1c-0.1-0.1-0.1-0.3,0-0.5c0.1-0.2,0.2-0.3,0.4-0.3
		c3.1-0.5,6-1.7,8.6-3.6c0.3-0.9,1.6-6.2-1.4-10.3s-6-4.7-6.5-4.7c-4.4,1-9,1.3-13.6,0.9c-5.4-0.4-8.4-0.6-9.2,0.1
		c-0.2,0.2-0.3,0.5-0.3,0.8c-0.1,1.2,3,2.5,5.2,3c0.3,0,0.5,0.2,0.5,0.5s-0.2,0.5-0.5,0.5c-0.1,0-6.3,1.8-8.2,5.7
		c-1.9,3.7-4,8.2-4.5,9.2c0.1,0.1,0.2,0.2,0.4,0.3c0.7,0.3,1.6,0.3,2.3,0c2.3-0.7,6.3-7,7.7-9.4c0.1-0.2,0.5-0.3,0.7-0.2
		c0.2,0.1,0.3,0.4,0.2,0.6c0,0-2.4,5-3.4,7.9c-0.6,1.8-0.6,3.2-0.1,3.9c0.3,0.3,0.8,0.5,1.2,0.4c1-0.1,2.6-2.8,3.8-4.8
		c0.6-1.3,1.4-2.4,2.4-3.5c1.3-0.9,2.6-1.6,4-2.3C275,295.5,275,295.5,275.1,295.5L275.1,295.5z"></path><path class="st1" d="M268.2,287.7c-0.2,0-0.4-0.1-0.5-0.3c-0.1-0.3,0-0.5,0.3-0.6c2.6-0.8,5.3-1.3,8-1.4c0.3,0,0.5,0.2,0.5,0.4
		c0,0,0,0,0,0c0,0.3-0.2,0.5-0.5,0.5c-2.6,0.1-5.2,0.6-7.7,1.4L268.2,287.7z"></path><path class="st1" d="M266.4,294.2c-0.3,0-0.5-0.2-0.5-0.5c0-0.1,0-0.2,0.1-0.3c1.8-2.4,5.8-3.2,6-3.3c0.3,0,0.5,0.1,0.6,0.4
		c0.1,0.3-0.1,0.5-0.4,0.6c0,0,0,0,0,0c0,0-3.8,0.8-5.4,2.9C266.8,294.1,266.6,294.2,266.4,294.2z"></path><path class="st1" d="M275.1,296.5c-0.1,0-0.2,0-0.3-0.1c-0.2-0.1-0.3-0.5-0.1-0.7c0,0,0,0,0,0c0.5-0.8,1.1-1.6,1.7-2.3
		c0.2-0.2,0.5-0.2,0.7,0c0.2,0.2,0.2,0.5,0,0.7c0,0,0,0,0,0c-0.6,0.7-1.1,1.4-1.6,2.2C275.4,296.4,275.2,296.5,275.1,296.5z"></path><path class="st1" d="M280.1,299.5h-0.1c-0.3-0.1-0.4-0.4-0.3-0.6c0.3-1.1,0.7-2.1,1.2-3.1c0.1-0.2,0.4-0.3,0.7-0.2
		c0.2,0.1,0.3,0.4,0.2,0.7c0,0,0,0.1-0.1,0.1c-0.5,0.9-0.8,1.9-1.1,2.8C280.5,299.3,280.3,299.5,280.1,299.5z"></path><path class="st1" d="M296.8,299.1c-0.3,0-0.5-0.2-0.5-0.5c0-0.2,0.1-0.4,0.3-0.4c12.9-5.6,31.3-18.1,31.4-18.2
		c0.2-0.2,0.5-0.1,0.7,0.1c0,0,0,0,0,0c0.1,0.2,0.1,0.5-0.1,0.7c-0.2,0.1-18.6,12.7-31.6,18.3C296.9,299.1,296.8,299.1,296.8,299.1z
		"></path><path class="st1" d="M287,280.1c-0.1,0-0.3-0.1-0.4-0.2c-0.2-0.2-0.2-0.5,0-0.7c5.5-4.8,19.5-14.2,21.8-15.8
		c-1-2.6-6.7-18.6-5.9-31.5c0-0.3,0.3-0.5,0.5-0.5c0.3,0,0.5,0.3,0.5,0.5c0,0,0,0,0,0c-0.9,13.7,5.9,31.2,5.9,31.4
		c0.1,0.2,0,0.5-0.2,0.6c-0.1,0.1-16,10.8-22,16C287.3,280.1,287.2,280.1,287,280.1z"></path><path class="st1" d="M246.2,270.7L246.2,270.7c-0.3,0-0.5-0.3-0.5-0.5c0,0,0,0,0,0c2.5-26.2,5.9-45.4,5.9-45.6
		c0-0.3,0.3-0.5,0.6-0.4c0.3,0,0.5,0.3,0.4,0.6l0,0c0,0.2-3.4,19.4-5.9,45.5C246.7,270.5,246.5,270.7,246.2,270.7z"></path><path class="st2" d="M279.4,414.8l9.4,20.2c0.6,1.5,0,3.2-1.4,3.9l-38.6,18.1c-1.5,0.7-3.2,0.1-3.9-1.4c-0.1-0.1-0.1-0.3-0.1-0.4
		l-0.3-1c0,0-6.3-19.2,12.3-29.4C256.7,425,264.8,425.1,279.4,414.8z"></path><path class="st1" d="M244.8,454.2c-0.2,0-0.4-0.1-0.4-0.3c-0.1-0.2,0-0.5,0.2-0.7c0,0,0,0,0,0l42.8-20.1c0.2-0.1,0.5,0,0.7,0.2
		c0,0,0,0,0,0c0.1,0.2,0,0.5-0.2,0.7c0,0,0,0,0,0L245,454.2C244.9,454.2,244.8,454.2,244.8,454.2z"></path><path class="st1" d="M277.2,438.9c-0.2,0-0.4-0.1-0.5-0.3c-2.1-6.1,0.7-12.7,6.5-15.5c0.2-0.1,0.5,0,0.7,0.2c0,0,0,0,0,0
		c0.1,0.2,0,0.5-0.2,0.7c0,0,0,0,0,0c-9.4,5-6.2,13.9-6,14.2c0.1,0.3,0,0.5-0.3,0.6c0,0,0,0,0,0
		C277.3,438.9,277.3,438.9,277.2,438.9z"></path><path class="st1" d="M260.1,431.4h-0.1l-12.5-3.6c-0.3-0.1-0.4-0.4-0.4-0.6c0.1-0.3,0.4-0.4,0.6-0.4l12.5,3.6
		c0.3,0.1,0.4,0.4,0.3,0.6C260.5,431.2,260.3,431.4,260.1,431.4L260.1,431.4z"></path><path class="st1" d="M256.5,435.1h-0.1l-12.6-3.6c-0.3-0.1-0.4-0.4-0.4-0.6c0.1-0.3,0.4-0.4,0.6-0.4l12.5,3.6
		c0.3,0.1,0.4,0.4,0.3,0.6C256.9,434.9,256.7,435.1,256.5,435.1L256.5,435.1z"></path><path class="st0" d="M293.8,177.5c0,0,8.5,0.2,11.6-7.3s-2.9-22.4-19-23.9s-16,13.7-11,17.9S293.8,177.5,293.8,177.5z"></path><path class="st1" d="M293.8,178L293.8,178c-0.1,0-0.2,0-0.3-0.1c-0.1-0.1-13.6-9.3-18.5-13.4c-2.7-2.2-4.2-7.7-2.3-12.4
		c1.1-2.8,4.5-7.2,13.7-6.3c10.3,1,15.4,7,17.5,10.5c2.8,4.7,3.6,10.2,2,14.1C302.8,177.8,294.5,178,293.8,178z M284.1,146.6
		c-5.2,0-8.9,2-10.5,5.8c-1.8,4.2-0.4,9.3,2,11.2c4.6,3.9,16.9,12.3,18.3,13.2c1.1,0,8.2-0.4,11-7c1.5-3.6,0.7-8.8-1.9-13.2
		c-2-3.3-6.8-9.1-16.7-10C285.5,146.7,284.8,146.6,284.1,146.6L284.1,146.6z"></path><path class="st0" d="M294.5,185.4c2.3-4.8,0.3-14.7-10.3-21.1s-24.7,0.5-24.7,0.5c-4.4-2-10.9,0.5-11.6,9.5
		c-0.4,5.4,1.2,10.8,4.5,15.2L294.5,185.4z"></path><path class="st1" d="M252.4,190c-0.1,0-0.3-0.1-0.4-0.2c-3.4-4.4-5-10-4.6-15.6c0.4-4.5,2.2-7.9,5.1-9.6c2.1-1.3,4.7-1.4,7-0.5
		c1.9-0.9,14.9-6.4,25-0.4c11.1,6.7,12.8,16.9,10.5,21.7c-0.1,0.2-0.2,0.3-0.4,0.3L252.4,190L252.4,190z M256.5,164.6
		c-1.2,0-2.4,0.4-3.5,1c-2.6,1.5-4.2,4.6-4.6,8.8c-0.4,5.2,1.1,10.4,4.2,14.6l41.5-4.1c2.1-4.7-0.3-14.2-10.2-20.2
		c-10.2-6.1-24.1,0.4-24.2,0.5c-0.1,0.1-0.3,0.1-0.4,0C258.4,164.8,257.4,164.6,256.5,164.6z M294.5,185.4L294.5,185.4z"></path><path class="st0" d="M288.5,192.2c0.8,7.1,2.5,18.2,2.5,18.2s-1.3,4-8.3,5s-7.6-4.9-7.7-6.2s0.7-5.3,0.8-6.7
		S288.5,192.2,288.5,192.2z"></path><path class="st1" d="M281.1,216.1c-1.5,0.1-3-0.4-4.2-1.3c-1.5-1.4-2.4-3.4-2.5-5.4c0.1-1.4,0.2-2.8,0.4-4.2c0.1-1.1,0.3-2,0.3-2.6
		c0.1-1.4,8.2-7.4,13-10.8c0.1-0.1,0.3-0.1,0.5-0.1c0.2,0.1,0.3,0.2,0.3,0.4c0.8,7,2.5,18.1,2.5,18.2c0,0.1,0,0.2,0,0.2
		c0,0.2-1.5,4.3-8.7,5.4C282.2,216.1,281.7,216.1,281.1,216.1z M288.1,193.1c-5.7,4.1-11.6,8.7-11.9,9.6c0,0.5-0.2,1.5-0.3,2.6
		c-0.2,1.3-0.4,2.7-0.4,4c0,1.8,0.8,3.5,2.1,4.7c1.4,1,3.3,1.4,5,1c6-0.9,7.6-4,7.9-4.6C290.3,209.2,288.9,199.7,288.1,193.1
		L288.1,193.1z"></path><path class="st0" d="M252.5,181.2c0,0-2.1,19.5,6.9,25.3c9,5.8,27.2,0.2,29.9-13.1c0,0,4.7,3.4,6.8-1.8s-3-9.1-7.5-5.7
		c0,0-3-4.5-12.9-5.6c-5.7-0.5-11.2-2.5-15.9-5.8C259.8,174.6,258.8,178.1,252.5,181.2z"></path><path class="st1" d="M268.1,209.3c-3.2,0.1-6.3-0.7-9-2.4c-9.2-5.9-7.2-25-7.1-25.8c0-0.2,0.1-0.3,0.3-0.4c6-2.9,7-6.3,7-6.3
		c0-0.2,0.2-0.3,0.3-0.3c0.2-0.1,0.3,0,0.5,0.1c4.7,3.2,10.1,5.2,15.7,5.7c8.4,0.9,11.9,4.2,12.9,5.4c1.9-1.4,4.6-1.4,6.5,0
		c1.9,1.5,2.4,4.1,1.4,6.6c-0.5,1.4-1.6,2.5-3,3c-1.4,0.3-2.8,0.1-4-0.6c-1.4,5.7-5.7,10.4-12,13
		C274.6,208.5,271.3,209.2,268.1,209.3z M253,181.5c-0.2,2.4-1.4,19.4,6.7,24.6c4.4,2.8,11.3,2.9,17.6,0.3s10.4-7.4,11.5-13
		c0-0.2,0.2-0.3,0.3-0.4c0.2-0.1,0.3,0,0.5,0.1c0,0,2,1.4,3.7,0.9c1.1-0.4,2-1.3,2.3-2.5c1.1-2.6,0.2-4.5-1-5.4
		c-1.6-1.2-3.8-1.1-5.7,0.3c-0.1,0.1-0.2,0.1-0.4,0.1c-0.1,0-0.3-0.1-0.3-0.2c0,0-3-4.3-12.5-5.3c-5.6-0.5-10.9-2.4-15.6-5.5
		C259.4,176.6,257.7,179.2,253,181.5L253,181.5z"></path><path class="st1" d="M270.4,185.4c0.5-0.4,1-0.8,1.5-1c0.6-0.2,1.1-0.4,1.7-0.5c1.2-0.2,2.4-0.1,3.6,0.3c0.3,0.1,0.4,0.4,0.3,0.7
		c-0.1,0.2-0.2,0.3-0.4,0.3l0,0c-1.1,0.2-2.1,0.3-3.1,0.4c-0.5,0.1-1,0.2-1.5,0.3l-1.5,0.4h-0.1c-0.3,0.1-0.5-0.1-0.6-0.4
		c0,0,0,0,0,0C270.3,185.7,270.3,185.5,270.4,185.4z"></path><path class="st1" d="M255.2,187c0.6-0.3,1.2-0.5,1.9-0.7c0.6-0.1,1.3-0.2,2-0.3c1.3-0.1,2.6,0.1,3.9,0.5c0.3,0.1,0.4,0.4,0.3,0.7
		c-0.1,0.2-0.2,0.3-0.4,0.3l0,0c-1.3,0.1-2.5,0.2-3.7,0.2l-1.8,0.1l-1.8,0.1h-0.1c-0.3,0-0.5-0.2-0.5-0.5c0,0,0,0,0,0
		C254.9,187.3,255.1,187.1,255.2,187z"></path><path class="st1" d="M263.5,198.3c-1,0-1.8-0.7-2.1-1.6c-0.2-0.6-0.2-1.2,0.1-1.8c0.6-0.8,1.4-1.4,2.4-1.6
		c-0.3-2.1-0.8-4.1-1.5-6.1c-0.1-0.3,0-0.5,0.3-0.6c0,0,0,0,0,0c0.3-0.1,0.5,0.1,0.6,0.3c0.7,2.2,1.3,4.4,1.6,6.7
		c0,0.3-0.2,0.5-0.4,0.6c-0.8,0.1-1.6,0.6-2.2,1.2c-0.2,0.3-0.2,0.7,0,1c0.2,0.7,0.8,1.1,1.5,0.9c0,0,0.1,0,0.1,0
		c1-0.2,1.6-1.2,1.5-2.2c0-0.3,0.1-0.5,0.4-0.6c0.3-0.1,0.5,0.1,0.6,0.4c0,0,0,0,0,0c0.2,1.5-0.7,3-2.2,3.3
		C264,198.2,263.7,198.3,263.5,198.3z"></path><path class="st1" d="M274.8,190.2c0.1,1.1-0.5,2.1-1.3,2.2s-1.5-0.8-1.5-2c0-0.3,0-0.7,0.1-1l1.4,0.6l-0.8-1.6
		c0.2-0.1,0.3-0.2,0.5-0.2C274,188.2,274.7,189.1,274.8,190.2z"></path><path class="st1" d="M260.8,192.3c0.1,1-0.5,1.9-1.2,1.9c-0.7,0-1.3-0.7-1.4-1.8c0-0.3,0-0.6,0.1-0.9l1.3,0.6l-0.7-1.5
		c0.1-0.1,0.3-0.2,0.5-0.2C260.1,190.5,260.8,191.3,260.8,192.3z"></path><path class="st1" d="M268.7,202.1c-1-0.1-2-0.4-2.8-1c-0.3-0.1-0.4-0.4-0.2-0.7c0.1-0.3,0.4-0.4,0.7-0.2c0,0,0.1,0,0.1,0.1
		c0.9,0.7,2.1,1,3.2,0.6c0.8-0.4,1.3-1.2,1.4-2.1c0.1-0.3,0.3-0.5,0.6-0.4c0.3,0,0.5,0.3,0.4,0.6c0,0,0,0,0,0
		c-0.1,1.2-0.9,2.3-2,2.9C269.6,202,269.1,202.1,268.7,202.1z"></path><path class="st1" d="M294.6,189.3c-0.2,0-0.4-0.1-0.4-0.3c-0.3-0.6-0.8-1-1.4-1.2c-0.8-0.1-1.7,0.1-2.4,0.5c-0.2,0.1-0.5,0-0.7-0.2
		c-0.1-0.2-0.1-0.5,0.1-0.6c1-0.6,2.1-0.9,3.2-0.7c0.9,0.3,1.6,0.9,2,1.7c0.1,0.2,0,0.5-0.2,0.7c0,0,0,0,0,0
		C294.7,189.3,294.6,189.3,294.6,189.3z"></path><path class="st1" d="M292.3,192.6c-0.3,0-0.5-0.2-0.5-0.5c0-0.2,0.1-0.4,0.3-0.4c0.4-0.2,0.8-0.6,0.9-1.1c0.2-1,0.1-2-0.4-2.9
		c-0.2-0.2-0.1-0.5,0.1-0.7c0.2-0.2,0.5-0.1,0.7,0.1c0,0,0,0,0,0c0.6,1.1,0.8,2.4,0.5,3.7c-0.2,0.8-0.7,1.4-1.4,1.8
		C292.4,192.6,292.4,192.6,292.3,192.6z"></path><path class="st0" d="M215.9,230.1c-1-5.6,0.5-7.1-0.6-9.8s-4.9-5.2-5.9-5.7s-0.7,1.6-0.7,1.6l-4.3-9c-1.5-3.2-2.4-5.3-3.7-4.7
		s-0.6,4.5,3.6,14.2c0,0-3-1.8-3.6,1.4c0,0-3.9-1.2-3.2,3.2c0,0-3.6,0.6-3.2,3.1s3.7,6.5,5.6,7.3s4,4.7,4,4.7
		S211.4,235.2,215.9,230.1z"></path><path class="st1" d="M203.9,237c-0.2,0-0.4-0.1-0.4-0.3c-0.5-1.1-2.3-3.9-3.7-4.5c-2.1-0.9-5.6-5-6-7.7c-0.3-2.1,1.7-3.2,3.2-3.6
		c-0.2-1,0.1-2.1,0.9-2.9c0.7-0.5,1.7-0.7,2.6-0.5c0.2-0.7,0.6-1.3,1.3-1.6c0.6-0.2,1.2-0.3,1.7-0.1c-4-9.4-4-11.9-3.6-12.9
		c0.1-0.3,0.4-0.6,0.7-0.8c1.7-0.7,2.6,1.3,4,4.3l3.9,8.1c0.1-0.1,0.1-0.2,0.2-0.2c0.3-0.2,0.7-0.2,1-0.1c1.2,0.5,5,3.2,6.1,5.9
		c0.5,1.3,0.6,2.7,0.4,4c-0.2,2-0.1,4,0.3,5.9c0,0.2,0,0.3-0.1,0.4C211.7,235.5,204.3,236.9,203.9,237L203.9,237z M199.6,218.5
		c-0.4,0-0.8,0.1-1.1,0.4c-0.5,0.7-0.7,1.6-0.5,2.5c0,0.3-0.1,0.5-0.4,0.6c0,0,0,0,0,0c-0.1,0-3.1,0.5-2.8,2.5
		c0.3,2.3,3.5,6.1,5.4,6.9s3.5,3.6,4.1,4.6c1.5-0.3,7.4-1.8,11.2-5.9c-0.3-1.9-0.4-3.9-0.2-5.9c0.2-1.2,0.1-2.4-0.4-3.6
		c-1.1-2.5-4.6-4.9-5.6-5.4c-0.1,0.4-0.1,0.7,0,1.1c0,0.3-0.2,0.5-0.4,0.6c-0.2,0-0.4-0.1-0.5-0.3l-4.6-9.7c-1.2-2.6-2-4.1-2.7-3.8
		c0,0-0.1,0.1-0.2,0.2c-0.4,1,0,4,4.1,13.3c0.1,0.2,0,0.4-0.1,0.6c-0.2,0.1-0.4,0.2-0.6,0.1c-0.6-0.4-1.3-0.5-2-0.3
		c-0.5,0.3-0.8,0.8-0.8,1.4c0,0.1-0.1,0.3-0.2,0.3c-0.1,0.1-0.3,0.1-0.4,0C200.3,218.5,200,218.4,199.6,218.5z"></path><path class="st1" d="M212.1,224c-0.2,0-0.4-0.1-0.4-0.3c-2.2-4.5-3.3-7.2-3.3-7.3c-0.1-0.3,0-0.5,0.3-0.6s0.5,0,0.6,0.3
		c0,0,1.1,2.8,3.3,7.2c0.1,0.2,0,0.5-0.2,0.7C212.2,224,212.1,224,212.1,224z"></path><path class="st1" d="M205.4,225.3c-0.7-0.1-1.4-0.4-2-0.8c-0.2-0.2-0.3-0.5-0.1-0.7c0.2-0.2,0.5-0.3,0.7-0.1c0,0,0,0,0,0
		c0.4,0.4,1,0.6,1.5,0.6c0.2,0,0.3-0.1,0.4-0.2c0.6-0.8-0.1-3.6-1.6-6.5c-0.1-0.2,0-0.5,0.2-0.7c0,0,0,0,0,0c0.2-0.1,0.5,0,0.7,0.2
		c1.4,2.6,2.6,6.1,1.5,7.6c-0.3,0.3-0.6,0.6-1.1,0.6L205.4,225.3z"></path><path class="st1" d="M201.9,226.7c-0.2,0-0.3,0-0.5,0c-0.3,0-0.5-0.3-0.4-0.6s0.3-0.5,0.6-0.4c0,0,1.2,0.2,1.5-0.7
		c0.4-1-0.5-4.1-2.4-6c-0.2-0.2-0.2-0.5,0-0.7c0.2-0.2,0.5-0.2,0.7,0c0,0,0,0,0.1,0.1c1.9,1.9,3.2,5.4,2.6,7.1
		C203.7,226.2,202.8,226.7,201.9,226.7z"></path><path class="st1" d="M200.6,228.6c-1.3,0-3.1-1.3-4.2-3.2c-0.1-0.2-0.1-0.5,0.2-0.7c0,0,0,0,0,0c0.2-0.1,0.5-0.1,0.7,0.2
		c1.2,1.9,2.8,2.9,3.5,2.8c0.2,0,0.2-0.1,0.2-0.2c0.3-1.1-0.8-4.1-3.1-5.2c-0.2-0.1-0.4-0.4-0.2-0.6c0,0,0,0,0,0
		c0.1-0.3,0.4-0.4,0.7-0.2c2.8,1.3,4,4.9,3.6,6.4c-0.1,0.5-0.6,0.9-1.1,0.9L200.6,228.6z"></path><path class="st1" d="M197.9,228.3c-0.1,0-0.3-0.1-0.4-0.1c-0.7-0.7-1-1.6-0.9-2.6c0.1-0.3,0.3-0.5,0.6-0.4c0.3,0.1,0.5,0.3,0.4,0.6
		l0,0c-0.1,0.6,0.1,1.2,0.6,1.6c0.2,0.2,0.2,0.5,0,0.7C198.2,228.3,198.1,228.3,197.9,228.3z"></path><path class="st1" d="M207.2,222c-0.2,0-0.3-0.1-0.4-0.2c-0.2-0.2-0.1-0.5,0.1-0.7c1-0.8,2.3-1.3,3.6-1.4c0.3,0,0.5,0.2,0.5,0.5
		c0,0,0,0,0,0c0,0.3-0.2,0.5-0.5,0.5c0,0,0,0,0,0c-1.1,0.1-2.1,0.4-2.9,1.1C207.4,221.9,207.3,222,207.2,222z"></path></g><g id="chat"><path class="st2" d="M234.3,187.3c-4.2-0.1-10.3-0.8-14.1-4.5c-1.5,0.4-3.1,0.6-4.7,0.6h-40.2c-9.5,0-17.2-7.7-17.2-17.2v-13
		c0-9.5,7.7-17.2,17.2-17.2h40.2c9.5,0,17.2,7.7,17.2,17.2v13c0,4.4-1.7,8.7-4.8,11.9c1.7,2.9,4,5.4,6.9,7.1
		c0.5,0.3,0.7,1.1,0.4,1.6C235.1,187.1,234.7,187.3,234.3,187.3z"></path><path class="st1" d="M234.3,187.8L234.3,187.8c-4.4-0.1-10.4-0.9-14.2-4.4c-1.5,0.4-3,0.6-4.5,0.6h-40.2c-9.8,0-17.7-8-17.8-17.8
		v-13c0-9.8,8-17.7,17.8-17.7h40.2c9.8,0,17.7,8,17.8,17.8v13c0,4.4-1.6,8.7-4.6,12c1.6,2.7,3.9,5,6.6,6.6c0.6,0.4,0.9,1.2,0.7,1.9
		C235.7,187.3,235,187.8,234.3,187.8z M234.3,186.8L234.3,186.8c0.3,0,0.6-0.2,0.6-0.5c0.1-0.3,0-0.6-0.3-0.7
		c-2.9-1.8-5.4-4.3-7.1-7.3c-0.1-0.2-0.1-0.4,0.1-0.6c3-3.1,4.6-7.2,4.6-11.6v-13c0-9.2-7.5-16.7-16.8-16.7h-40.2
		c-9.2,0-16.7,7.5-16.8,16.8v13c0,9.2,7.5,16.7,16.8,16.8h40.2c1.5,0,3.1-0.2,4.5-0.6c0.2,0,0.4,0,0.5,0.1
		C224.2,186,230,186.8,234.3,186.8L234.3,186.8z"></path><g id="UI_coding_3"><path class="st0" d="M185,174.5c-0.1,0-0.3-0.1-0.4-0.1l-14.1-14.1c-0.2-0.2-0.2-0.5,0-0.7c0,0,0,0,0,0l14.6-14.6
			c0.2-0.2,0.5-0.2,0.7,0s0.2,0.5,0,0.7l-14.2,14.2l13.8,13.8c0.2,0.2,0.2,0.5,0,0.7c0,0,0,0,0,0C185.2,174.4,185.1,174.5,185,174.5
			z"></path><path class="st0" d="M205.9,174.5c-0.1,0-0.3-0.1-0.4-0.1c-0.2-0.2-0.2-0.5,0-0.7c0,0,0,0,0,0l13.8-13.8l-14.2-14.2
			c-0.2-0.2-0.2-0.5,0-0.7s0.5-0.2,0.7,0l14.6,14.6c0.2,0.2,0.2,0.5,0,0.7l-14.1,14.1C206.2,174.4,206.1,174.5,205.9,174.5z"></path><path class="st0" d="M198.3,174.5c-0.2,0-0.4-0.2-0.5-0.4l-7-28.6c-0.1-0.3,0.1-0.5,0.4-0.6c0.3-0.1,0.5,0.1,0.6,0.4l7,28.7
			C198.8,174.1,198.6,174.4,198.3,174.5L198.3,174.5z"></path></g></g></svg>