<svg transform="scale(1)" id="_0921_Downloading_2" xmlns="http://www.w3.org/2000/svg" viewBox="0 0 500 500" class="show_show__wrapper__graphic__5Waiy "><title>React</title><g id="character"><path d="M164.64,244.36l21.81,136.45c.34,2.1-.56,4.22-2.33,5.41-4.81,3.26-15.75,8.62-32.75,5.67-2.26-.39-4.05-2.14-4.48-4.39l-22.28-116.07s-7.25,8.07-10.69,20.42c-3.03,10.89-11.46,80.39-13.41,96.64-.27,2.23-1.86,4.05-4.02,4.64-5.53,1.52-17.32,3.42-34.68-.7-2.8-.67-4.62-3.38-4.16-6.23l22.92-141.85h84.06Z" fill="#fff" stroke-width="0"></path><path d="M81.81,395.42c-5.53,0-12.25-.64-20.09-2.5-3.04-.72-5.04-3.71-4.54-6.79l22.92-141.85c.04-.24.25-.42.49-.42h84.06c.25,0,.46.18.49.42l21.81,136.45c.37,2.29-.63,4.61-2.54,5.9-5.05,3.42-16.07,8.71-33.11,5.75-2.45-.43-4.42-2.35-4.88-4.79l-22.08-115.03c-1.86,2.32-7.16,9.52-9.92,19.42-3.04,10.94-11.69,82.36-13.4,96.57-.29,2.42-2.01,4.41-4.38,5.06-3.05.84-8.04,1.8-14.83,1.8ZM81.01,244.86l-22.85,141.43c-.42,2.57,1.25,5.06,3.79,5.66,17.26,4.1,28.98,2.21,34.43.71,1.98-.54,3.41-2.2,3.66-4.22,1.7-14.22,10.36-85.71,13.43-96.72,3.43-12.32,10.73-20.54,10.8-20.62.13-.14.32-.2.51-.15.18.05.32.2.36.39l22.28,116.07c.39,2.03,2.03,3.63,4.07,3.99,16.7,2.91,27.46-2.26,32.38-5.59,1.59-1.08,2.42-3,2.11-4.92l-21.75-136.03h-83.21Z" fill="#732a09" stroke-width="0"></path><path d="M153.65,146.49s9.81,8.43,15.62,22.5,6.35,15.8,6.35,15.8l32.5,1.71s4.95.56,4.63,5.08l-.68,9.55s.59,5.71-9.76,5.53-30.5,0-30.5,0h-10.89l-7.27-60.17Z" fill="#f25454" stroke-width="0"></path><path d="M227.18,200.49c1.84,2.18,1.69,4.62.63,4.2s-6.44-5.17-6.44-5.17l-.3-2.09h3.76l2.35,3.06Z" fill="#fff" stroke-width="0"></path><path d="M228.03,205.24c-.13,0-.27-.03-.41-.08-1.11-.44-6.03-4.77-6.59-5.26-.09-.08-.15-.19-.16-.3l-.3-2.09c-.02-.14.02-.29.12-.4.1-.11.23-.17.38-.17h3.76c.16,0,.3.07.4.2l2.34,3.05c1.53,1.82,1.83,3.83,1.24,4.66-.19.27-.47.41-.78.41ZM221.83,199.27c2.07,1.82,5.45,4.68,6.15,4.96.24-.2.19-1.78-1.19-3.42v-.02s-2.21-2.86-2.21-2.86h-2.94l.19,1.34Z" fill="#732a09" stroke-width="0"></path><path d="M230.38,199.62c2.62,2.47,2.38,5.77.63,4.95s-7.91-7.03-7.91-7.03l3.2-2.04,4.07,4.12Z" fill="#fff" stroke-width="0"></path><path d="M231.51,205.19c-.21,0-.45-.05-.71-.18-1.81-.85-7.79-6.88-8.05-7.13-.11-.11-.16-.26-.14-.41.02-.15.1-.29.23-.37l3.2-2.04c.2-.12.46-.1.62.07l4.07,4.12c1.99,1.88,2.53,4.31,1.79,5.4-.2.29-.55.54-1.01.54ZM223.9,197.62c1.96,1.95,6.06,5.9,7.33,6.49.35.16.43.04.47-.02.36-.52.1-2.45-1.66-4.11,0,0,0,0-.01-.01l-3.79-3.84-2.34,1.49Z" fill="#732a09" stroke-width="0"></path><path d="M231.93,197.87c5.29,3.4,6.06,5.14,5.77,5.67s-2.62.39-5.38-1.46-6.55-5.34-6.55-5.34l6.16,1.12Z" fill="#fff" stroke-width="0"></path><path d="M236.87,204.31c-1.11,0-2.9-.52-4.83-1.81-2.77-1.84-6.45-5.24-6.61-5.38-.16-.15-.21-.39-.11-.59.1-.2.31-.31.54-.27l6.16,1.12c.06.01.13.04.18.07,4.49,2.88,6.6,5.13,5.94,6.33-.12.23-.35.39-.68.47-.17.04-.36.06-.59.06ZM227.42,197.56c1.34,1.18,3.47,2.97,5.17,4.11,2.44,1.62,4.37,1.79,4.71,1.58-.05,0-.1-1.38-5.56-4.91l-4.32-.78Z" fill="#732a09" stroke-width="0"></path><path d="M148.64,114.53c.78,6.79,14.08,23.81,9.75,28.11s-21.26,6.97-27.42,6.1-8.58-21.21-8.58-21.21l26.25-12.99Z" fill="#fff" stroke-width="0"></path><path d="M133.72,149.39c-1.1,0-2.05-.05-2.81-.16-6.47-.92-8.91-20.8-9.01-21.65-.02-.21.08-.41.27-.51l26.25-13c.15-.07.32-.07.46,0,.14.08.24.22.26.38.3,2.59,2.52,6.79,4.87,11.24,3.75,7.09,7.62,14.42,4.74,17.28-4.03,4.01-17.68,6.4-25.03,6.4ZM122.93,127.81c.73,5.79,3.47,19.77,8.12,20.43,6.39.91,22.95-1.93,27-5.96,2.36-2.34-1.51-9.65-4.92-16.11-2.21-4.17-4.3-8.13-4.87-10.9l-25.33,12.54Z" fill="#732a09" stroke-width="0"></path><path d="M109.84,148.66c4.98-.51,9.49-23.78,7.14-34.09l31.56-1.54s4.67-7.5,2.43-17.19c-2.24-9.7-9.7-11.37-14.08-8.49,0,0-16.42-5.12-26.86,3.45-3.09,2.54-5.32,5.3-6.84,8.05-.01.01-.02.03-.02.04-5.2,7.91-17.33,36.38-17.99,42.53-.66,6.17,17.05,8.01,24.66,7.22Z" fill="#fff" stroke-width="0"></path><path d="M106.01,149.33c-6.79,0-16.62-1.3-20.08-4.77-.95-.95-1.37-2.02-1.25-3.17.66-6.14,12.62-34.45,18.05-42.73,0-.01.01-.02.02-.04h0c1.65-3,3.99-5.75,6.96-8.2,9.85-8.1,25.06-4.19,27.1-3.61,2.25-1.39,5.09-1.62,7.63-.6,3.42,1.37,5.91,4.75,7.01,9.52,2.26,9.78-2.3,17.25-2.49,17.56-.09.14-.24.23-.4.23l-30.97,1.51c1.72,8.83-1.07,26.56-5.15,32.25-.82,1.14-1.68,1.77-2.55,1.86h0c-1.09.11-2.42.17-3.89.17ZM103.62,99.12s-.02.05-.04.07c-5.23,7.95-17.28,36.42-17.91,42.31-.09.85.22,1.62.96,2.36,3.65,3.66,16.35,5.01,23.15,4.31h0c.56-.06,1.2-.56,1.84-1.45,4.06-5.66,6.78-23.62,4.86-32.03-.03-.14,0-.3.09-.41.09-.12.23-.19.37-.2l31.28-1.52c.72-1.3,4.19-8.13,2.24-16.59-1.03-4.44-3.3-7.57-6.41-8.82-2.32-.93-4.9-.69-6.91.63-.13.08-.28.1-.42.06-.16-.05-16.29-4.94-26.39,3.36-2.87,2.36-5.13,5.02-6.72,7.91h0Z" fill="#732a09" stroke-width="0"></path><path d="M121.49,137.28c18.16-1.13,35.79,8.38,38.29,17.15s13.3,96.13,13.3,96.13h-95.73s3.13-78.84,6.57-94.18,22.52-18.16,37.56-19.1Z" fill="#f25454" stroke-width="0"></path><path d="M114.73,124.8c-.83,8.12-.84,14.12-.77,17.14.03,1.38,1.01,2.56,2.36,2.84,2.22.46,5.72.75,8.89-.91,1.06-.55,1.7-1.67,1.62-2.86l-.44-6.68-11.67-9.53Z" fill="#fff" stroke-width="0"></path><path d="M119.71,145.64c-1.29,0-2.48-.16-3.48-.37-1.58-.33-2.72-1.69-2.76-3.31-.07-2.89-.07-8.98.77-17.21.02-.18.14-.34.31-.41.17-.07.36-.04.51.07l11.67,9.53c.11.09.17.22.18.35l.44,6.68c.09,1.38-.65,2.68-1.89,3.33-1.91,1-3.92,1.33-5.75,1.33ZM115.14,125.78c-.74,7.7-.74,13.39-.67,16.15.03,1.16.84,2.13,1.96,2.36,2.25.47,5.57.7,8.56-.86.89-.46,1.42-1.4,1.36-2.38l-.42-6.46-10.78-8.81Z" fill="#732a09" stroke-width="0"></path><path d="M147.06,104.07s5.47,20.83-3.37,28.51c-8.84,7.68-29.46,4.63-34.51-9.36,0,0-4.52,4.42-7.68-.84-3.16-5.26,1.79-10.31,7.26-7.36,0,0,2.52-5.37,13.04-8.1,10.52-2.74,16.31-8.84,16.31-8.84,0,0,1.58,3.68,8.94,6Z" fill="#fff" stroke-width="0"></path><path d="M130.99,137.2c-2.28,0-4.64-.29-6.97-.9-7.2-1.87-12.65-6.32-15.05-12.25-.82.62-2.42,1.6-4.2,1.37-1.45-.19-2.69-1.12-3.69-2.79-1.54-2.57-1.38-5.44.41-7.31,1.74-1.82,4.48-2.18,7.07-.97.86-1.38,4.14-5.59,13.12-7.92,10.26-2.67,16.01-8.64,16.07-8.7.12-.12.29-.18.45-.15.17.03.31.14.37.29.01.03,1.62,3.51,8.63,5.72.16.05.29.18.33.35.23.86,5.45,21.22-3.52,29.01-3.18,2.76-7.91,4.24-13.03,4.24ZM109.19,122.72s.08,0,.11.01c.17.04.3.16.36.32,2.15,5.95,7.48,10.42,14.62,12.28,7.24,1.89,14.73.66,19.09-3.13,7.98-6.93,3.86-25.31,3.28-27.74-5.59-1.82-7.86-4.41-8.63-5.58-1.59,1.5-7.1,6.18-16.07,8.51-10.12,2.63-12.69,7.78-12.72,7.83-.06.12-.17.22-.3.26-.13.04-.27.03-.39-.03-2.32-1.25-4.8-1.03-6.31.56-1.17,1.23-1.86,3.47-.28,6.11.83,1.38,1.83,2.16,2.96,2.31,2.05.26,3.93-1.55,3.95-1.57.09-.09.22-.14.35-.14Z" fill="#732a09" stroke-width="0"></path><path d="M127.88,112.43c-2.32-.33-4.56-.31-6.93-.21-.29.02-.54-.21-.55-.5,0-.2.11-.37.27-.46,1.74-.96,3.87-1.07,5.77-.56.55.21,2.44.64,1.98,1.51-.12.19-.34.26-.55.22h0Z" fill="#732a09" stroke-width="0"></path><path d="M145.84,110.67c-2.65.12-5.41.53-8.07.71-.28.02-.52-.2-.54-.48-.01-.21.11-.4.28-.49,1.3-.65,2.72-.98,4.16-1.13.81-.07,4.98-.22,4.67,1.04-.07.22-.28.35-.5.34h0Z" fill="#732a09" stroke-width="0"></path><path d="M138.36,123.34c-.12,0-.23,0-.36-.02-1.47-.17-3.02-1.46-2.95-3.23.01-.28.24-.49.52-.48.28.01.49.24.48.52-.04,1.16,1.03,2.08,2.07,2.2.42.05,1.43.02,1.69-1.29.09-.44.02-.8-.21-1.1-.59-.75-2.1-.98-2.63-1-.26-.01-.47-.22-.48-.49,0-.14-.09-3.44.65-7.63.05-.27.31-.46.58-.41.27.05.45.31.41.58-.57,3.23-.64,5.96-.64,6.99.74.1,2.16.41,2.89,1.34.42.54.56,1.18.41,1.92-.26,1.31-1.2,2.11-2.43,2.11Z" fill="#732a09" stroke-width="0"></path><path d="M123.73,116.92c.11,1.25.9,2.2,1.76,2.12s1.48-1.14,1.37-2.4c-.03-.37-.13-.73-.28-1.03l-1.42.93.55-1.89c-.2-.1-.4-.14-.61-.12-.86.07-1.48,1.14-1.37,2.39Z" fill="#732a09" stroke-width="0"></path><path d="M140.85,115.43c.11,1.25.9,2.2,1.76,2.12.87-.08,1.48-1.14,1.37-2.4-.03-.37-.13-.73-.28-1.03l-1.42.93.55-1.89c-.2-.1-.4-.14-.61-.12-.86.07-1.48,1.14-1.37,2.39Z" fill="#732a09" stroke-width="0"></path><path d="M132.35,129.29c-.31,0-.61-.04-.9-.12-1.21-.33-2.16-1.35-2.61-2.78-.08-.26.06-.54.33-.63.27-.08.54.06.63.33.35,1.1,1.05,1.87,1.92,2.11,1.01.28,2.22-.14,3.42-1.2.21-.18.52-.16.71.04.18.21.16.52-.04.71-1.14,1.01-2.33,1.53-3.45,1.53Z" fill="#732a09" stroke-width="0"></path><path d="M102.7,119.54c-.06,0-.11,0-.17-.03-.26-.09-.4-.38-.3-.64.38-1.06,1.02-1.78,1.9-2.15,1.64-.68,3.48.17,3.56.2.25.12.36.41.24.66-.12.25-.41.36-.66.24-.02,0-1.54-.7-2.76-.18-.61.25-1.06.78-1.33,1.56-.07.2-.27.33-.47.33Z" fill="#732a09" stroke-width="0"></path><path d="M105.71,122.75s-.1,0-.15-.02c-.8-.24-1.41-.82-1.77-1.66-.61-1.41-.39-3.29-.01-4.05.12-.25.42-.35.67-.22.25.12.35.42.23.67-.24.49-.45,2.07.04,3.21.25.57.63.95,1.15,1.1.26.08.41.36.33.62-.07.22-.26.35-.48.35Z" fill="#732a09" stroke-width="0"></path><path d="M121.56,221.57c.05,2.47-1.49,4.68-3.83,5.5-6.8,2.37-21.68,7.34-34.92,10.28-17.86,3.97-30.05-1.13-18.71-41.1,11.34-39.97,25.66-49.76,25.66-49.76l4.39,15.17c.57,12.48-9.64,52.45-9.64,52.45l28.2-8.51c2.21-.67,4.53.06,5.96,1.7.5.57.89,1.24,1.13,2.01,1.14,3.62,1.57,7.62,1.71,10.77.02.52.04,1.02.05,1.49Z" fill="#f25454" stroke-width="0"></path><path d="M180.82,209.14c-3.13-.17-49.79,2.3-49.79,2.3l-21.77-3.13,2.64-44.18,21.43,1.31,49.96-1.31v35.96c0,4.48.66,9.21-2.47,9.05Z" fill="#fff" stroke-width="0"></path><path d="M131.06,211.94l-21.87-3.13c-.26-.04-.44-.27-.43-.53l2.64-44.18c0-.13.07-.26.17-.34s.24-.14.36-.12l21.43,1.31,49.92-1.31c.13.01.27.05.36.14.1.09.15.22.15.36v35.96c0,.67.02,1.35.03,2.02.07,3.04.12,5.67-1.13,6.89-.48.47-1.12.69-1.89.65h0c-3.05-.15-49.27,2.28-49.74,2.3ZM109.79,207.88l21.31,3.06c1.81-.11,46.62-2.46,49.75-2.3.49.02.86-.09,1.14-.37.94-.92.89-3.58.83-6.15-.01-.67-.03-1.36-.03-2.04v-35.45l-49.45,1.3-20.97-1.28-2.58,43.22Z" fill="#732a09" stroke-width="0"></path><polygon points="111.9 164.13 166.64 161.66 183.29 164.13 133.33 165.44 111.9 164.13" fill="#fff" stroke-width="0"></polygon><path d="M133.35,165.94l-21.48-1.32c-.27-.02-.47-.24-.47-.5,0-.27.21-.48.48-.5l54.74-2.47,16.75,2.47c.26.04.44.27.43.52s-.23.46-.49.47l-49.96,1.32ZM121.28,164.2l12.08.74,44.16-1.17-10.96-1.62-45.28,2.05Z" fill="#732a09" stroke-width="0"></path><polygon points="133.33 165.44 131.03 211.44 109.26 208.31 111.9 164.13 133.33 165.44" fill="#732a09" stroke-width="0"></polygon><path d="M131.03,211.94s-.05,0-.07,0l-21.77-3.13c-.26-.04-.44-.27-.43-.53l2.64-44.18c0-.13.07-.26.17-.34s.24-.14.36-.12l21.43,1.31c.27.02.48.25.47.52l-2.3,46c0,.14-.07.27-.18.36-.09.07-.2.11-.32.11ZM109.79,207.88l20.77,2.99,2.25-44.96-20.44-1.25-2.58,43.22Z" fill="#732a09" stroke-width="0"></path><path d="M133.12,170.06c-.27,0-.49-.22-.5-.49,0-.28.21-.5.49-.51l50.17-1.15c.25,0,.5.21.51.49,0,.28-.21.5-.49.51l-50.17,1.15h-.01Z" fill="#732a09" stroke-width="0"></path><path d="M133.04,174.01c-.27,0-.49-.22-.5-.49,0-.28.21-.5.49-.51l50.17-1.15h.01c.27,0,.49.22.5.49,0,.28-.21.5-.49.51l-50.17,1.15h-.01Z" fill="#732a09" stroke-width="0"></path><path d="M132.96,177.97c-.27,0-.49-.22-.5-.49,0-.28.21-.5.49-.51l50.17-1.15h.01c.27,0,.49.22.5.49,0,.28-.21.5-.49.51l-50.17,1.15h-.01Z" fill="#732a09" stroke-width="0"></path><path d="M132.88,181.92c-.27,0-.49-.22-.5-.49,0-.28.21-.5.49-.51l50.17-1.15c.25-.03.5.21.51.49,0,.28-.21.5-.49.51l-50.17,1.15h-.01Z" fill="#732a09" stroke-width="0"></path><path d="M132.8,185.87c-.27,0-.49-.22-.5-.49,0-.28.21-.5.49-.51l50.17-1.15c.27,0,.51.21.51.49,0,.28-.21.5-.49.51l-50.17,1.15h-.01Z" fill="#732a09" stroke-width="0"></path><path d="M132.72,189.82c-.27,0-.49-.22-.5-.49,0-.28.21-.5.49-.51l50.17-1.15c.3,0,.5.21.51.49,0,.28-.21.5-.49.51l-50.17,1.15h-.01Z" fill="#732a09" stroke-width="0"></path><path d="M132.64,193.77c-.27,0-.49-.22-.5-.49,0-.28.21-.5.49-.51l50.17-1.15c.31-.03.5.21.51.49,0,.28-.21.5-.49.51l-50.17,1.15h-.01Z" fill="#732a09" stroke-width="0"></path><path d="M132.56,197.72c-.27,0-.49-.22-.5-.49,0-.28.21-.5.49-.51l50.17-1.15c.31.02.5.21.51.49,0,.28-.21.5-.49.51l-50.17,1.15h-.01Z" fill="#732a09" stroke-width="0"></path><path d="M132.48,201.67c-.27,0-.49-.22-.5-.49,0-.28.21-.5.49-.51l50.17-1.15c.28,0,.5.21.51.49,0,.28-.21.5-.49.51l-50.17,1.15h-.01Z" fill="#732a09" stroke-width="0"></path><path d="M132.4,205.62c-.27,0-.49-.22-.5-.49,0-.28.21-.5.49-.51l50.17-1.15c.26-.03.51.21.51.49s-.21.5-.49.51l-50.17,1.15h-.01Z" fill="#732a09" stroke-width="0"></path><path d="M154.22,208.1c.14,1.22-9.74,4.2-15.56,5.95-4.7,1.42-13.82,4.79-17.15,6.03-.14-3.15-.57-7.15-1.71-10.77-.24-.77-.63-1.44-1.13-2.01,2.27-1.82,7.82-6.1,9.84-6.1,2.57,0,2.7,5.95,2.7,5.95,0,0,13.4.41,17.19-.13s5.69-.14,5.82,1.08Z" fill="#fff" stroke-width="0"></path><path d="M121.51,220.58c-.1,0-.19-.03-.28-.08-.13-.09-.22-.24-.22-.39-.12-2.81-.52-6.93-1.69-10.64-.21-.68-.56-1.29-1.03-1.83-.09-.1-.13-.24-.12-.37.01-.14.08-.26.19-.35,2.89-2.32,8.06-6.21,10.15-6.21,2.6,0,3.09,4.41,3.18,5.96,2.39.07,13.33.33,16.64-.14,2.97-.42,4.86-.29,5.76.42.36.28.58.66.63,1.1.13,1.14-2.14,2.34-15.91,6.48-4.57,1.38-13.49,4.67-17.12,6.02-.06.02-.12.03-.17.03ZM119.37,207.38c.4.54.7,1.14.9,1.78,1.11,3.52,1.54,7.38,1.7,10.21,3.96-1.47,12.19-4.49,16.54-5.8,3.94-1.19,14.34-4.31,15.2-5.49-.03-.14-.1-.25-.23-.35-.38-.29-1.53-.71-5.01-.22-3.79.54-16.73.15-17.28.14-.27,0-.48-.22-.48-.49-.03-1.42-.5-5.46-2.2-5.46-1.23,0-4.71,2.17-9.14,5.68ZM153.72,208.16h0,0Z" fill="#732a09" stroke-width="0"></path><path d="M213.63,252.69c-.18-9.31-.67-39.22-.82-48.43-.03-1.51,1.18-2.76,2.69-2.79l35.91-.81c1.51-.03,2.76,1.15,2.81,2.65l1.75,48.04c.06,1.52-1.14,2.8-2.66,2.85l-36.84,1.18c-1.53.05-2.81-1.16-2.84-2.69Z" fill="#fff" stroke-width="0"></path><path d="M216.38,255.88c-.84,0-1.63-.32-2.24-.89-.63-.6-.99-1.41-1.01-2.29h0c-.18-9.31-.67-39.22-.82-48.43-.03-1.78,1.4-3.26,3.18-3.3l35.91-.81c1.75,0,3.26,1.37,3.32,3.13l1.75,48.04c.03.87-.28,1.7-.87,2.34s-1.4,1-2.27,1.03l-36.84,1.18s-.07,0-.11,0ZM251.47,201.16s-.03,0-.05,0l-35.91.81c-1.23.03-2.22,1.05-2.2,2.28.15,9.21.65,39.13.82,48.43h0c.01.6.26,1.17.7,1.58.44.42,1.03.64,1.63.62l36.84-1.18c.6-.02,1.16-.27,1.57-.71.41-.44.63-1.02.6-1.62l-1.75-48.04c-.04-1.21-1.05-2.17-2.25-2.17Z" fill="#732a09" stroke-width="0"></path><path d="M212.07,201.13c4.65,1.86,11.24,9.04,12.76,8.7s1.86-4.05.93-5.91-4.39-4.39-4.39-4.39c0,0,4.31-2.37,6.93-2.03s13.35,5.91,15.04,5.07-7.35-6.5-12.16-8.79-18.42-2.2-18.42-2.2l-.68,9.55Z" fill="#fff" stroke-width="0"></path><path d="M224.72,210.34c-.93,0-2.35-1.14-5.03-3.34-2.42-1.99-5.42-4.46-7.8-5.41-.2-.08-.33-.28-.31-.5l.68-9.54c.02-.26.23-.46.5-.46.55,0,13.77-.06,18.63,2.24,3.04,1.44,12.64,6.86,12.66,8.92,0,.33-.17.61-.48.76-1.12.56-4.26-.68-9.3-2.79-2.47-1.03-5.02-2.1-6.03-2.23-1.83-.24-4.64.99-5.93,1.62,1.07.85,3.18,2.63,3.91,4.08s.76,3.94.06,5.41c-.41.85-.95,1.13-1.33,1.22-.07.02-.14.02-.22.02ZM212.6,200.81c2.44,1.08,5.24,3.38,7.72,5.42,1.72,1.42,3.86,3.18,4.4,3.11.3-.07.51-.4.64-.67.56-1.18.54-3.34-.06-4.53-.86-1.73-4.21-4.19-4.24-4.21-.14-.1-.21-.26-.2-.44s.11-.32.26-.41c.18-.1,4.48-2.43,7.23-2.08,1.14.15,3.53,1.14,6.28,2.3,2.76,1.16,7.33,3.05,8.36,2.85-.54-1.24-7.16-5.6-12.05-7.92-4.16-1.97-15.32-2.14-17.74-2.15l-.62,8.72Z" fill="#732a09" stroke-width="0"></path><path d="M92.22,179.06c-2.82,15.92-7.71,35.05-7.71,35.05l28.2-8.51c2.21-.67,4.53.06,5.96,1.7.5.57.89,1.24,1.13,2.01,1.14,3.62,1.57,7.62,1.71,10.77.02.52.04,1.02.05,1.49.05,2.47-1.49,4.68-3.83,5.5-6.8,2.37-21.68,7.34-34.92,10.28" fill="#f75454" stroke-width="0"></path><path d="M82.81,237.85c-.23,0-.44-.16-.49-.39-.06-.27.11-.54.38-.6,12.96-2.88,27.41-7.67,34.86-10.26,2.14-.75,3.54-2.77,3.49-5.02,0-.43-.03-.88-.04-1.36v-.12c-.13-2.8-.52-6.93-1.69-10.64-.21-.68-.56-1.29-1.03-1.83-1.34-1.54-3.47-2.15-5.44-1.55l-28.2,8.51c-.17.05-.36,0-.49-.12-.13-.12-.18-.31-.14-.49.05-.19,4.91-19.29,7.7-35.01.05-.27.3-.45.58-.41.27.05.45.31.4.58-2.46,13.86-6.52,30.33-7.5,34.23l27.35-8.26c2.34-.71,4.88.02,6.48,1.85.56.64.98,1.38,1.23,2.19,1.2,3.81,1.6,8.03,1.73,10.9v.13c.02.48.04.94.05,1.37.05,2.69-1.62,5.09-4.16,5.98-7.48,2.61-21.96,7.41-34.98,10.3-.04,0-.07.01-.11.01Z" fill="#732a09" stroke-width="0"></path><path d="M156.8,162.6c-.27,0-.49-.21-.5-.49,0-.03-.12-3.47-1.67-8.86-.08-.27.08-.54.34-.62.27-.08.54.08.62.34,1.59,5.52,1.71,8.96,1.71,9.11,0,.28-.21.51-.49.51h-.01Z" fill="#732a09" stroke-width="0"></path><path d="M124.63,271.93c-.12,0-.24-.04-.33-.12-.21-.18-.23-.5-.05-.71,7.15-8.13,13.15-14.88,13.15-14.88.18-.21.5-.22.71-.04.21.18.23.5.04.71,0,0-6,6.75-13.15,14.87-.1.11-.24.17-.38.17Z" fill="#732a09" stroke-width="0"></path><path d="M62.17,394.47l-2.79,26.06c-.2,1.82,1.12,3.46,2.94,3.67l48.06,5.49c2.01.23,3.76-1.37,3.71-3.4l-.03-1.14s-.15-22.9-23.85-27.1c0,0-12.18,1.93-28.04-3.59Z" fill="#f65454" stroke-width="0"></path><path d="M113.46,425.08s-.04,0-.06,0l-53.29-6.09c-.27-.03-.47-.28-.44-.55.03-.27.28-.47.55-.44l53.29,6.09c.27.03.47.28.44.55-.03.25-.25.44-.5.44Z" fill="#732a09" stroke-width="0"></path><path d="M73.04,420.46s-.01,0-.02,0c-.28-.01-.49-.24-.48-.52.02-.46.29-11.17-11.71-13.17-.27-.04-.46-.3-.41-.58.04-.27.3-.46.58-.41,6.72,1.12,9.78,4.92,11.16,7.91,1.49,3.23,1.39,6.16,1.39,6.29-.01.27-.23.48-.5.48Z" fill="#732a09" stroke-width="0"></path><path d="M88.71,406.09c-.16,0-.31-.08-.41-.22-.16-.23-.1-.54.13-.7l12.17-8.39c.23-.16.54-.1.7.13.16.23.1.54-.13.7l-12.17,8.39c-.09.06-.19.09-.28.09Z" fill="#732a09" stroke-width="0"></path><path d="M93.95,408.8c-.16,0-.31-.08-.41-.22-.16-.23-.1-.54.13-.7l12.17-8.39c.23-.16.54-.1.7.13.16.23.1.54-.13.7l-12.17,8.39c-.09.06-.19.09-.28.09Z" fill="#732a09" stroke-width="0"></path><path d="M154.22,393.75l1.17,26.18c.08,1.83,1.63,3.25,3.46,3.18l48.34-1.82c2.02-.08,3.51-1.92,3.16-3.92l-.2-1.12s-3.61-22.62-27.67-23.19c0,0-11.75,3.75-28.26.69Z" fill="#f65454" stroke-width="0"></path><path d="M155.87,418.3c-.27,0-.49-.21-.5-.48-.01-.28.2-.51.48-.52l53.6-2.02c.28,0,.51.21.52.48.01.28-.2.51-.48.52l-53.6,2.02h-.02Z" fill="#732a09" stroke-width="0"></path><path d="M168.81,417.81c-.25,0-.47-.19-.5-.44-.05-.45-1.4-11.09-13.56-11.25-.28,0-.5-.23-.49-.51,0-.27.23-.49.5-.49h0c6.82.09,10.41,3.38,12.23,6.13,1.96,2.97,2.31,5.88,2.32,6,.03.27-.17.52-.44.55-.02,0-.04,0-.06,0Z" fill="#732a09" stroke-width="0"></path><path d="M182.13,401.24c-.13,0-.27-.05-.36-.16-.19-.2-.18-.52.02-.71l10.77-10.13c.2-.19.52-.18.71.02.19.2.18.52-.02.71l-10.77,10.13c-.1.09-.22.14-.34.14Z" fill="#732a09" stroke-width="0"></path><path d="M187.72,403.13c-.13,0-.27-.05-.36-.16-.19-.2-.18-.52.02-.71l10.77-10.13c.2-.19.52-.18.71.02.19.2.18.52-.02.71l-10.77,10.13c-.1.09-.22.14-.34.14Z" fill="#732a09" stroke-width="0"></path></g><g id="laptop"><polygon points="182.13 263.99 353.86 263.99 371.35 405.17 199.62 405.17 182.13 263.99" fill="#fff" stroke-width="0"></polygon><path d="M371.35,405.67h-171.73c-.25,0-.47-.19-.5-.44l-17.49-141.17c-.02-.14.03-.29.12-.39.09-.11.23-.17.37-.17h171.73c.25,0,.47.19.5.44l17.49,141.17c.02.14-.03.29-.12.39-.09.11-.23.17-.37.17ZM200.06,404.67h170.72l-17.37-140.17h-170.72l17.37,140.17Z" fill="#732a09" stroke-width="0"></path><polygon points="203.15 401.17 186.66 267.99 350.32 267.99 366.82 401.17 203.15 401.17" fill="#fff" stroke-width="0"></polygon><path d="M366.82,401.67h-163.67c-.25,0-.47-.19-.5-.44l-16.5-133.17c-.02-.14.03-.29.12-.39.09-.11.23-.17.37-.17h163.67c.25,0,.47.19.5.44l16.5,133.17c.02.14-.03.29-.12.39-.09.11-.23.17-.37.17ZM203.6,400.67h162.66l-16.38-132.17h-162.66l16.38,132.17Z" fill="#732a09" stroke-width="0"></path><path d="M325.25,405.17h145.15v15.46h-145.15c-4.27,0-7.73-3.46-7.73-7.73h0c0-4.27,3.46-7.73,7.73-7.73Z" transform="translate(787.91 825.8) rotate(180)" fill="#f75454" stroke-width="0"></path><path d="M462.66,421.13h-145.15c-.28,0-.5-.22-.5-.5v-15.46c0-.28.22-.5.5-.5h145.15c4.54,0,8.23,3.69,8.23,8.23s-3.69,8.23-8.23,8.23ZM318.01,420.13h144.65c3.99,0,7.23-3.24,7.23-7.23s-3.24-7.23-7.23-7.23h-144.65v14.46Z" fill="#732a09" stroke-width="0"></path><path d="M199.62,405.17h129.39c4.27,0,7.73,3.46,7.73,7.73h0c0,4.27-3.46,7.73-7.73,7.73h-121.62c-4.29,0-7.78-3.48-7.78-7.78v-7.69h0Z" fill="#732a09" stroke-width="0"></path><path d="M329.01,421.13h-121.62c-4.56,0-8.27-3.71-8.27-8.27v-7.69c0-.28.22-.5.5-.5h129.39c4.54,0,8.23,3.69,8.23,8.23s-3.69,8.23-8.23,8.23ZM200.12,405.67v7.19c0,4.01,3.26,7.27,7.27,7.27h121.62c3.99,0,7.23-3.24,7.23-7.23s-3.24-7.23-7.23-7.23h-128.89Z" fill="#732a09" stroke-width="0"></path></g><g id="download"><path d="M289.32,321.03l-8.36,13.74-.12.18c-.06.09-.12.18-.19.27-.06.08-.13.15-.21.24-.07.08-.15.14-.23.2-.14.1-.29.19-.46.28-.12.06-.25.1-.37.13-.1.03-.2.05-.31.07-.11.02-.22.03-.33.03-.04.01-.09.01-.13.01-.12,0-.25-.01-.37-.03-.08,0-.17-.02-.27-.04-.49-.1-.95-.33-1.36-.63-.07-.05-.13-.1-.19-.16-.11-.09-.23-.19-.32-.31l-13.9-13.77c-1.27-1.26-1.42-3.2-.34-4.33,1.1-1.12,3-1.02,4.27.24l8.05,7.98-3.48-26.93c-.22-1.7.94-3.07,2.6-3.07s3.18,1.37,3.4,3.07l3.33,25.76,4.03-6.61c.82-1.35,2.66-1.62,4.12-.6,1.45,1.02,1.97,2.94,1.14,4.29Z" fill="#f75454" stroke-width="0"></path><path d="M278.6,336.68c-.15,0-.31-.01-.46-.04-.05,0-.18-.02-.29-.05-.54-.11-1.06-.35-1.56-.72-.09-.07-.18-.14-.26-.22-.09-.07-.22-.19-.34-.33l-13.87-13.74c-1.46-1.45-1.62-3.7-.35-5.03.58-.6,1.37-.93,2.23-.93,1,0,1.99.41,2.75,1.16l7.02,6.96-3.29-25.48c-.13-.98.14-1.9.75-2.6.59-.67,1.42-1.03,2.35-1.03,1.9,0,3.64,1.57,3.89,3.5l3.15,24.35,3.29-5.4c.43-.72,1.13-1.21,1.97-1.39.95-.2,2,.03,2.86.64,1.67,1.17,2.24,3.4,1.29,4.96l-8.49,13.94c-.07.11-.14.22-.23.32-.05.07-.13.16-.23.25-.09.11-.21.2-.3.26-.16.12-.34.23-.54.33-.14.07-.29.12-.47.17-.08.03-.21.05-.34.08-.12.02-.24.04-.37.04-.07.01-.13.01-.18.01ZM263.76,316.62h-.02c-.59,0-1.14.23-1.52.63-.89.93-.74,2.56.33,3.63l13.9,13.77c.11.12.2.2.28.28.09.09.13.12.18.15.37.28.76.46,1.16.54.06.01.12.03.16.03.18.02.28.03.37.03.04,0,.09-.02.13,0,.08,0,.16,0,.23-.02.09-.02.17-.03.25-.06.14-.04.23-.07.3-.1.15-.07.28-.15.39-.23.06-.04.12-.09.15-.12.09-.1.15-.15.19-.21.08-.09.12-.17.17-.24l.12-.19,8.36-13.74s0,0,0,0c.69-1.12.24-2.75-1.01-3.62-.64-.45-1.4-.62-2.08-.48-.56.12-1.03.45-1.32.93l-4.03,6.61c-.11.18-.32.27-.53.23-.21-.04-.36-.21-.39-.42l-3.33-25.76c-.19-1.45-1.49-2.63-2.9-2.63-.64,0-1.21.25-1.6.69-.42.47-.6,1.11-.51,1.81l3.48,26.93c.03.21-.08.42-.27.51-.19.09-.42.06-.57-.09l-8.05-7.98c-.56-.55-1.29-.87-2.01-.87Z" fill="#732a09" stroke-width="0"></path><path d="M280.95,334.77l-.12.18c-.06.09-.12.18-.19.27.12-.13.22-.29.3-.45Z" fill="#732a09" stroke-width="0"></path><path d="M300.05,344.66h-42.08c-1.66,0-3.18-1.37-3.4-3.07l-1.36-10.5c-.22-1.69.95-3.07,2.6-3.07s3.18,1.37,3.4,3.07l.96,7.43h36.08l-.96-7.43c-.22-1.69.95-3.07,2.6-3.07s3.18,1.37,3.4,3.07l1.36,10.5c.22,1.69-.95,3.07-2.6,3.07Z" fill="#f75454" stroke-width="0"></path><path d="M300.05,345.16h-42.08c-1.9,0-3.64-1.57-3.89-3.5l-1.36-10.5c-.13-.98.14-1.9.75-2.59.59-.67,1.42-1.04,2.35-1.04,1.9,0,3.64,1.57,3.89,3.5l.9,7h35.07l-.89-6.87c-.13-.98.14-1.9.75-2.59.59-.67,1.42-1.04,2.35-1.04,1.9,0,3.64,1.57,3.89,3.5l1.36,10.5c.13.98-.14,1.9-.75,2.59-.59.67-1.42,1.04-2.35,1.04ZM255.82,328.53c-.64,0-1.21.25-1.6.7-.42.47-.6,1.11-.51,1.81l1.36,10.5c.19,1.45,1.49,2.63,2.9,2.63h42.08c.64,0,1.21-.25,1.6-.7.42-.47.6-1.11.51-1.81l-1.36-10.5c-.19-1.45-1.49-2.63-2.9-2.63-.64,0-1.21.25-1.6.7-.42.47-.6,1.11-.51,1.81l.96,7.43c.02.14-.03.29-.12.39s-.23.17-.38.17h-36.08c-.25,0-.46-.19-.5-.44l-.96-7.43c-.19-1.45-1.49-2.63-2.9-2.63Z" fill="#732a09" stroke-width="0"></path><path d="M236.05,362.25h90.46c2.29,0,3.89-1.89,3.59-4.23h0c-.3-2.34-2.4-4.23-4.69-4.23h-90.46c-2.29,0-3.89,1.89-3.59,4.23h0c.3,2.34,2.4,4.23,4.69,4.23Z" fill="#fff" stroke-width="0"></path><path d="M326.51,362.75h-90.46c-2.52,0-4.85-2.09-5.18-4.67-.17-1.3.18-2.52.99-3.43.77-.88,1.88-1.36,3.1-1.36h90.46c2.52,0,4.85,2.09,5.18,4.67.17,1.3-.18,2.52-.98,3.43-.77.88-1.88,1.36-3.1,1.36ZM234.95,354.29c-.94,0-1.77.36-2.35,1.02-.61.69-.87,1.63-.74,2.64.27,2.09,2.15,3.79,4.19,3.79h90.46c.94,0,1.77-.36,2.35-1.02.61-.69.87-1.63.74-2.64-.27-2.09-2.15-3.79-4.19-3.79h-90.46Z" fill="#732a09" stroke-width="0"></path><polygon points="246.97 353.79 240.03 353.79 237.66 362.25 244.59 362.25 246.97 353.79" fill="#f75454" stroke-width="0"></polygon><path d="M244.59,362.75h-6.93c-.16,0-.3-.07-.4-.2-.09-.12-.13-.29-.08-.44l2.37-8.46c.06-.22.26-.37.48-.37h6.93c.16,0,.3.07.4.2.09.12.13.29.08.44l-2.37,8.46c-.06.22-.26.37-.48.37ZM238.32,361.75h5.9l2.09-7.46h-5.9l-2.09,7.46Z" fill="#732a09" stroke-width="0"></path><polygon points="259.53 353.79 252.59 353.79 250.22 362.25 257.15 362.25 259.53 353.79" fill="#f75454" stroke-width="0"></polygon><path d="M257.15,362.75h-6.93c-.16,0-.3-.07-.4-.2-.09-.12-.13-.29-.08-.44l2.37-8.46c.06-.22.26-.37.48-.37h6.93c.16,0,.3.07.4.2.09.12.13.29.08.44l-2.37,8.46c-.06.22-.26.37-.48.37ZM250.88,361.75h5.9l2.09-7.46h-5.9l-2.09,7.46Z" fill="#732a09" stroke-width="0"></path><polygon points="272.09 353.79 265.16 353.79 262.78 362.25 269.72 362.25 272.09 353.79" fill="#f75454" stroke-width="0"></polygon><path d="M269.72,362.75h-6.93c-.16,0-.3-.07-.4-.2-.09-.12-.13-.29-.08-.44l2.37-8.46c.06-.22.26-.37.48-.37h6.93c.16,0,.3.07.4.2.09.12.13.29.08.44l-2.37,8.46c-.06.22-.26.37-.48.37ZM263.44,361.75h5.9l2.09-7.46h-5.9l-2.09,7.46Z" fill="#732a09" stroke-width="0"></path><polygon points="284.65 353.79 277.72 353.79 275.34 362.25 282.28 362.25 284.65 353.79" fill="#f75454" stroke-width="0"></polygon><path d="M282.28,362.75h-6.93c-.16,0-.3-.07-.4-.2-.09-.12-.13-.29-.08-.44l2.37-8.46c.06-.22.26-.37.48-.37h6.93c.16,0,.3.07.4.2.09.12.13.29.08.44l-2.37,8.46c-.06.22-.26.37-.48.37ZM276,361.75h5.9l2.09-7.46h-5.9l-2.09,7.46Z" fill="#732a09" stroke-width="0"></path><polygon points="297.21 353.79 290.28 353.79 287.91 362.25 294.84 362.25 297.21 353.79" fill="#f75454" stroke-width="0"></polygon><path d="M294.84,362.75h-6.93c-.16,0-.3-.07-.4-.2-.09-.12-.13-.29-.08-.44l2.37-8.46c.06-.22.26-.37.48-.37h6.93c.16,0,.3.07.4.2.09.12.13.29.08.44l-2.37,8.46c-.06.22-.26.37-.48.37ZM288.56,361.75h5.9l2.09-7.46h-5.9l-2.09,7.46Z" fill="#732a09" stroke-width="0"></path><polygon points="309.78 353.79 302.84 353.79 300.47 362.25 307.4 362.25 309.78 353.79" fill="#f75454" stroke-width="0"></polygon><path d="M307.4,362.75h-6.93c-.16,0-.3-.07-.4-.2-.09-.12-.13-.29-.08-.44l2.37-8.46c.06-.22.26-.37.48-.37h6.93c.16,0,.3.07.4.2.09.12.13.29.08.44l-2.37,8.46c-.06.22-.26.37-.48.37ZM301.13,361.75h5.9l2.09-7.46h-5.9l-2.09,7.46Z" fill="#732a09" stroke-width="0"></path></g></svg>