<svg transform="scale(1)" version="1.1" id="jnT8OpXXDj" xmlns="http://www.w3.org/2000/svg" xmlns:xlink="http://www.w3.org/1999/xlink" x="0px" y="0px" viewBox="0 0 500 500" xml:space="preserve" class="pbimage_pbimage__wrapper__image__0LEis false"><title>Rocket Launch 1</title><style type="text/css"> .st0{fill:#F75454;} .st1{fill:#732A09;} .st2{fill:#FFFFFF;}
 .st2{fill:#FFFFFF;}
 .st1{fill:#732A09;}
 .st0{fill:#F75454;}</style><g id="rocket"><rect class="st0" x="210.3" y="188.7" width="86.9" height="12.3" fill="#F75454"></rect><path class="st1" d="M297.2,201.5h-86.9c-0.3,0-0.5-0.2-0.5-0.5v-12.3c0-0.3,0.2-0.5,0.5-0.5h86.9c0.3,0,0.5,0.2,0.5,0.5V201
		C297.7,201.3,297.5,201.5,297.2,201.5z M210.8,200.5h85.9v-11.3h-85.9V200.5z" fill="#732A09"></path><path class="st0" d="M317.3,180.6c0,0-9.3-5.9-25.1,0c0,0-1.2-24.7,12.5-24.7S317.3,180.6,317.3,180.6z" fill="#F75454"></path><path class="st1" d="M292.2,181.1c-0.1,0-0.2-0.1-0.2-0.1c-0.1-0.1-0.2-0.2-0.2-0.4c0-0.6-0.7-15.4,5.6-22
		c3.9-4.1,10.4-4.2,14.5-0.3c0.1,0.1,0.2,0.2,0.3,0.3c6.3,6.7,5.7,21.4,5.6,22c0,0.2-0.1,0.3-0.3,0.4c-0.2,0.1-0.3,0.1-0.5,0
		c-0.1-0.1-9.3-5.7-24.6,0.1L292.2,181.1z M304.8,156.5c-2.5,0-5,1-6.7,2.9c-5.3,5.6-5.4,17.6-5.4,20.6c13.1-4.7,21.6-1.4,24.1-0.1
		c0-3.2-0.2-15-5.4-20.5C309.7,157.5,307.3,156.4,304.8,156.5L304.8,156.5z" fill="#732A09"></path><path class="st2" d="M317.3,180.6v116.9h-25.1V180.6C308,174.8,317.3,180.6,317.3,180.6z" fill="#FFFFFF"></path><path class="st1" d="M317.3,298h-25.1c-0.3,0-0.5-0.2-0.5-0.5V180.6c0-0.2,0.1-0.4,0.3-0.5c15.8-5.9,25.1-0.2,25.5,0
		c0.1,0.1,0.2,0.2,0.2,0.4v117C317.8,297.8,317.6,298,317.3,298z M292.7,297h24.1V180.9c-1.5-0.8-10.3-5-24.1,0.1V297z" fill="#732A09"></path><path class="st0" d="M215,180.6c0,0-9.3-5.9-25.1,0c0,0-1.2-24.7,12.5-24.7S215,180.6,215,180.6z" fill="#F75454"></path><path class="st1" d="M189.9,181.1c-0.1,0-0.2,0-0.3-0.1c-0.1-0.1-0.2-0.2-0.2-0.4c0-0.6-0.7-15.4,5.6-22c3.9-4.1,10.4-4.2,14.5-0.3
		c0.1,0.1,0.2,0.2,0.3,0.3c6.3,6.7,5.7,21.4,5.6,22c0,0.2-0.1,0.3-0.3,0.4c-0.2,0.1-0.3,0.1-0.5,0c-0.1-0.1-9.3-5.7-24.6,0.1
		C190,181.1,189.9,181.1,189.9,181.1z M202.4,156.5c-2.5,0-5,1-6.7,2.9c-5.3,5.6-5.4,17.6-5.4,20.6c13.1-4.7,21.6-1.4,24.1-0.1
		c0-3.2-0.2-15-5.4-20.5C207.4,157.5,205,156.4,202.4,156.5L202.4,156.5z" fill="#732A09"></path><path class="st2" d="M215,180.6v116.9h-25.1V180.6C205.7,174.8,215,180.6,215,180.6z" fill="#FFFFFF"></path><path class="st1" d="M215,298h-25.1c-0.3,0-0.5-0.2-0.5-0.5V180.6c0-0.2,0.1-0.4,0.3-0.5c15.8-5.9,25.1-0.2,25.5,0
		c0.1,0.1,0.2,0.2,0.2,0.4v117C215.5,297.8,215.2,298,215,298z M190.4,297h24.1V180.9c-1.5-0.8-10.3-5-24.1,0.1V297z" fill="#732A09"></path><path class="st0" d="M271.4,96.3c-11.8,1.6-23.8,1.6-35.7,0c3.9-7.2,9.6-13.9,17.8-13.9C261.8,82.4,267.5,89,271.4,96.3z" fill="#F75454"></path><path class="st1" d="M254,98c-6.1,0-12.2-0.4-18.3-1.2c-0.3,0-0.5-0.3-0.4-0.5c0-0.1,0-0.1,0.1-0.2c5-9.4,11.2-14.1,18.3-14.1
		c7.1,0,13.2,4.7,18.3,14.1c0.1,0.2,0.1,0.5-0.2,0.7c-0.1,0-0.1,0.1-0.2,0.1C265.7,97.6,259.9,98,254,98z M236.6,95.9
		c11.3,1.4,22.8,1.4,34.1,0c-4.8-8.6-10.5-13-17-13S241.4,87.2,236.6,95.9L236.6,95.9z" fill="#732A09"></path><path class="st2" d="M279.6,127.7V250h-52V127.7c0-7.1,1.1-14.1,3.5-20.8c1.3-3.7,2.8-7.2,4.6-10.6c11.8,1.6,23.8,1.6,35.7,0
		c1.8,3.4,3.3,7,4.6,10.6C278.4,113.5,279.6,120.6,279.6,127.7z" fill="#FFFFFF"></path><path class="st1" d="M279.6,250.5h-52c-0.3,0-0.5-0.2-0.5-0.5V127.7c0-7.1,1.2-14.2,3.6-20.9c1.3-3.7,2.9-7.3,4.7-10.7
		c0.1-0.2,0.3-0.3,0.5-0.3c11.8,1.6,23.7,1.6,35.5,0c0.2,0,0.4,0.1,0.5,0.3c1.8,3.4,3.4,7,4.6,10.7c2.4,6.7,3.6,13.8,3.5,20.9V250
		C280.1,250.3,279.9,250.5,279.6,250.5z M228.1,249.5h51V127.7c0-7-1.1-14-3.5-20.6c-1.2-3.5-2.7-6.9-4.4-10.2
		c-11.7,1.5-23.4,1.5-35.1,0c-1.7,3.3-3.2,6.7-4.4,10.3c-2.4,6.6-3.5,13.6-3.5,20.6L228.1,249.5z" fill="#732A09"></path><path class="st0" d="M271.4,215.4c0,0,15.3,35,26.7,50.4s25.1,22.3,29.5,31.8s1.6,15.7,1.6,15.7h-60.4l-10.7-25.1L271.4,215.4z" fill="#F75454"></path><path class="st1" d="M329.1,313.8h-60.4c-0.2,0-0.4-0.1-0.5-0.3l-10.7-25.1c0-0.1,0-0.2,0-0.3l13.3-72.8c0-0.3,0.3-0.5,0.6-0.4
		c0.2,0,0.3,0.1,0.4,0.3c0.1,0.4,15.5,35.2,26.6,50.3c5.6,7.6,11.7,13.1,17.2,17.9s10.2,9.1,12.4,13.9c4.5,9.5,1.7,15.9,1.6,16.1
		C329.6,313.7,329.4,313.8,329.1,313.8z M269.1,312.8h59.7c0.5-1.3,2-7-1.7-15c-2.2-4.7-6.8-8.8-12.2-13.6s-11.7-10.4-17.3-18.1
		c-9.9-13.5-23-42.2-26-49l-13,71L269.1,312.8z" fill="#732A09"></path><path class="st0" d="M236,215.4c0,0-15.4,35-26.7,50.4s-25.1,22.3-29.6,31.8s-1.6,15.7-1.6,15.7h60.3l10.7-25.1L236,215.4z" fill="#F75454"></path><path class="st1" d="M238.6,313.8h-60.3c-0.2,0-0.4-0.1-0.5-0.3c-0.1-0.3-2.9-6.6,1.6-16.1c2.3-4.9,7-9.1,12.4-13.9
		s11.6-10.3,17.1-17.9c11.2-15.2,26.4-50,26.6-50.3c0.1-0.2,0.3-0.3,0.5-0.3c0.2,0,0.4,0.2,0.4,0.4l13.3,72.8c0,0.1,0,0.2,0,0.3
		l-10.7,25.1C239,313.7,238.8,313.8,238.6,313.8z M178.6,312.8h59.7l10.5-24.7l-12.9-71c-3.1,6.9-16.2,35.6-26.1,49
		c-5.6,7.7-11.8,13.2-17.3,18.1s-10,8.9-12.2,13.6C176.5,305.8,178.1,311.5,178.6,312.8L178.6,312.8z" fill="#732A09"></path><path class="st0" d="M277.4,324.4c0,4.5-13,3-23.8,3s-23.8,1.5-23.8-3s6.1-20.4,6.1-20.4c14.8-3.1,35.5,0,35.5,0
		S277.4,319.9,277.4,324.4z" fill="#F75454"></path><path class="st1" d="M240.4,328.1c-4.9,0-8.8-0.4-10.4-1.9c-0.5-0.5-0.8-1.1-0.8-1.8c0-4.5,5.8-19.9,6.1-20.6
		c0.1-0.2,0.2-0.3,0.4-0.3c14.8-3,35.5,0,35.7,0c0.2,0,0.3,0.2,0.4,0.3c0.2,0.6,6.1,16,6.1,20.6c0,0.7-0.3,1.4-0.8,1.8
		c-2.2,2.2-9,2-16.8,1.8c-2.2-0.1-4.5-0.1-6.7-0.1s-4.5,0.1-6.7,0.1S242.4,328.1,240.4,328.1z M236.2,304.4
		c-0.8,2.1-5.9,15.9-5.9,20c0,0.4,0.2,0.8,0.5,1.1c1.9,1.9,9.1,1.7,16.1,1.5c2.2-0.1,4.5-0.1,6.7-0.1s4.5,0.1,6.7,0.1
		c7,0.2,14.2,0.4,16.1-1.5c0.3-0.3,0.5-0.7,0.5-1.1c0-4-5.1-17.8-5.9-19.9C268.5,304.1,249.8,301.7,236.2,304.4L236.2,304.4z" fill="#732A09"></path><path class="st2" d="M271.4,215.4V304c0,0-20.7-3.1-35.5,0v-88.6c0-27.2,5.9-48.1,17.8-48.1C265.5,167.3,271.4,188.2,271.4,215.4z" fill="#FFFFFF"></path><path class="st1" d="M235.8,304.5c-0.1,0-0.2,0-0.3-0.1c-0.1-0.1-0.2-0.2-0.2-0.4v-88.6c0-30,7-48.6,18.3-48.6
		c11.3,0,18.3,18.6,18.3,48.6V304c0,0.1-0.1,0.3-0.2,0.4c-0.1,0.1-0.3,0.1-0.4,0.1C271.1,304.5,250.5,301.5,235.8,304.5L235.8,304.5
		z M251.6,302.1c6.4,0,12.9,0.5,19.3,1.3v-88c0-29.4-6.6-47.6-17.3-47.6s-17.3,18.2-17.3,47.6v88
		C241.4,302.5,246.5,302.1,251.6,302.1z" fill="#732A09"></path><path class="st2" d="M235.8,232c11.7-2.7,23.8-2.7,35.5,0" fill="#FFFFFF"></path><path class="st1" d="M271.4,232.5h-0.1c-11.6-2.6-23.7-2.6-35.3,0c-0.3,0.1-0.5-0.1-0.6-0.3c0,0,0,0,0,0c-0.1-0.3,0.1-0.5,0.4-0.6
		c11.8-2.7,24-2.7,35.8,0c0.3,0.1,0.4,0.3,0.4,0.6C271.8,232.4,271.6,232.5,271.4,232.5z" fill="#732A09"></path><path class="st0" d="M254.2,196.6c-0.4,0-0.8,0-1.2,0c-9.3-0.6-11.8-5-9.9-6.8s4.7-0.8,10.5-0.8s8.6-1,10.5,0.8
		S263.5,196,254.2,196.6z" fill="#F75454"></path><path class="st1" d="M253.6,197.1c-0.2,0-0.4,0-0.6,0c-6.8-0.4-10-2.9-10.8-5c-0.4-0.9-0.2-2,0.6-2.7c1.5-1.4,3.4-1.3,6.4-1.1
		c1.3,0.1,2.8,0.2,4.5,0.2s3.2-0.1,4.5-0.2c2.9-0.2,4.9-0.3,6.4,1.1c0.7,0.7,1,1.8,0.6,2.7c-0.8,2.1-4,4.5-10.8,5l0,0
		C254,197.1,253.8,197.1,253.6,197.1z M254.2,196.6L254.2,196.6z M246.6,189.2c-1.1-0.1-2.3,0.2-3.2,0.9c-0.4,0.4-0.6,1.1-0.3,1.7
		c0.6,1.7,3.6,3.9,9.9,4.3c0.4,0,0.8,0,1.2,0l0,0c6.3-0.4,9.3-2.6,9.9-4.3c0.2-0.6,0.1-1.2-0.3-1.7c-1.2-1.1-2.8-1-5.6-0.8
		c-1.3,0.1-2.8,0.2-4.6,0.2s-3.3-0.1-4.6-0.2C248.1,189.3,247.3,189.2,246.6,189.2L246.6,189.2z" fill="#732A09"></path><circle class="st0" cx="253.6" cy="128.6" r="16.1" fill="#F75454"></circle><path class="st1" d="M253.6,145.2c-9.2,0-16.6-7.4-16.6-16.6s7.4-16.6,16.6-16.6c9.2,0,16.6,7.4,16.6,16.6c0,0,0,0,0,0
		C270.2,137.8,262.8,145.2,253.6,145.2z M253.6,113.1c-8.6,0-15.6,7-15.6,15.6s7,15.6,15.6,15.6c8.6,0,15.6-7,15.6-15.6l0,0
		C269.2,120,262.2,113.1,253.6,113.1z" fill="#732A09"></path><path class="st0" d="M271.5,330.7c0.7,5.9-1.3,15.2-1.3,15.2l-2.2-5.4l-1.9,18.6l-1.7-4.2l-1.2,18.8l-2-5.2v13.8l-3.2-5.2
		l-3.3,11.9l-3.4-15.3l-3.6,8.2l-1.2-16.1c0,0-3.5,4.2-3.5,3.7s0.8-17.8,0.8-17.8l-5.6,7.3l1.2-19.3l-3.7,2.9c-1.3-3.9-1.3-8.1,0-12
		C235.8,330.7,251,334.1,271.5,330.7z" fill="#F75454"></path><path class="st1" d="M254.8,389.6L254.8,389.6c-0.2,0-0.4-0.2-0.5-0.4l-3-13.8l-2.9,6.8c-0.1,0.2-0.3,0.3-0.6,0.3
		c-0.2,0-0.4-0.2-0.4-0.5l-1.1-14.9c-2.7,3.2-2.9,3.1-3.3,3c-0.2-0.1-0.3-0.3-0.4-0.5c0-0.4,0.5-11.9,0.7-16.2l-4.6,6
		c-0.1,0.2-0.4,0.2-0.6,0.2c-0.2-0.1-0.3-0.3-0.3-0.5l1.1-18.1l-2.8,2.2c-0.1,0.1-0.3,0.1-0.4,0.1c-0.2,0-0.3-0.1-0.3-0.3
		c-1.4-4-1.4-8.4,0-12.4c0.1-0.3,0.3-0.4,0.6-0.3c0.1,0,15.3,3.4,35.5,0c0.1,0,0.3,0,0.4,0.1c0.1,0.1,0.2,0.2,0.2,0.3
		c0.7,5.9-1.2,15-1.3,15.4c-0.1,0.2-0.2,0.4-0.5,0.4c-0.2,0-0.4-0.1-0.5-0.3l-1.4-3.5l-1.6,16.6c0,0.3-0.2,0.5-0.4,0.6
		s-0.5-0.2-0.6-0.4l0,0l-0.9-2.1l-1,16.6c0,0.3-0.1,0.5-0.4,0.6c-0.3,0-0.5-0.1-0.6-0.4l-1.1-2.7v11.1c0,0.3-0.2,0.5-0.5,0.5
		c-0.2,0-0.3-0.1-0.4-0.2l-2.7-4.2l-3,10.8C255.2,389.4,255,389.6,254.8,389.6z M251.4,373.3L251.4,373.3c0.3,0,0.4,0.2,0.5,0.4
		l2.9,13.3l2.8-10c0.1-0.2,0.2-0.3,0.4-0.4c0.2,0,0.4,0.1,0.5,0.2l2.3,3.7v-12c0-0.3,0.1-0.5,0.4-0.6s0.5,0.1,0.6,0.4l1.1,3.1
		l1-16.5c0-0.2,0.2-0.4,0.4-0.5c0.2,0,0.5,0.1,0.5,0.3l0.9,2.3l1.6-16.6c0-0.3,0.2-0.5,0.4-0.6s0.5,0.2,0.6,0.4l1.5,3.8
		c0.5-2.8,1.4-8.7,1-12.9c-11.6,2-23.4,2-34.9,0c-1,3.5-1.1,7.2-0.1,10.6l3.1-2.5c0.2-0.1,0.4-0.1,0.5,0c0.2,0.1,0.3,0.3,0.3,0.5
		l-1,17.6l4.6-6c0.1-0.2,0.4-0.2,0.6-0.2c0.2,0.1,0.3,0.3,0.3,0.5c-0.2,5-0.6,13.6-0.7,16.7c0.7-0.7,1.7-1.9,2.6-3
		c0.1-0.2,0.3-0.2,0.5-0.1c0.2,0.1,0.3,0.2,0.3,0.4l1,14.1l2.7-6.3C251.1,373.4,251.3,373.3,251.4,373.3z" fill="#732A09"></path><path class="st1" d="M258.7,360.4c-0.3,0-0.5-0.2-0.5-0.5v-14.2c0-0.3,0.2-0.5,0.5-0.5c0.2,0,0.3,0.1,0.4,0.2l2.3,2.9v-8.1
		c0-0.3,0.2-0.5,0.5-0.5c0.3,0,0.5,0.2,0.5,0.5v9.6c0,0.2-0.1,0.4-0.3,0.5c-0.2,0.1-0.4,0-0.6-0.1l-2.3-2.9v12.8
		C259.2,360.2,258.9,360.4,258.7,360.4L258.7,360.4z" fill="#732A09"></path><path class="st1" d="M247.6,359.9c-0.3,0-0.5-0.2-0.5-0.5v-15.7l-1.2,1.9c-0.1,0.2-0.3,0.3-0.6,0.2c-0.2-0.1-0.4-0.3-0.4-0.5v-6.7
		c0-0.3,0.2-0.5,0.5-0.5s0.5,0.2,0.5,0.5v5l1.2-1.9c0.1-0.2,0.3-0.3,0.6-0.2c0.2,0.1,0.4,0.3,0.4,0.5v17.4
		C248.1,359.6,247.9,359.9,247.6,359.9C247.6,359.9,247.6,359.9,247.6,359.9z" fill="#732A09"></path></g><g id="cloud"><path class="st2" d="M332.1,196.6c0,0,7.1-16.8,22.7-14.9s20.4,13.1,20.4,13.1s17.3-3.6,22.5,12c0,0,10.6-0.7,12.8,14.2
		s-27.9,16.8-40.7,12.1c0,0-28.6,10.9-49.9,0.9c0,0-18,2.8-20.8-6.1c0,0-12.5-3-12.8-12.5s16.3-18.5,23-12.4
		C309.1,203,319.6,189.3,332.1,196.6z"></path><path class="st1" d="M341,238.7c-6.9,0-14.4-1-21.2-4.1c-1.9,0.3-18.1,2.4-21.1-6.3c-1.9-0.5-12.7-3.9-12.9-12.9
		c-0.1-5.7,5.4-10.9,10.6-13.2c5-2.3,9.9-2.2,12.8,0.1c1.9-2.2,4.1-4.1,6.6-5.6c5.5-3.3,11-3.5,16.2-0.7c1.4-2.9,3.2-5.5,5.4-7.8
		c5-5.3,11.1-7.7,17.6-6.9c6.1,0.6,11.8,3.2,16.3,7.4c1.7,1.6,3.2,3.5,4.3,5.6c2.6-0.4,17.6-2.1,22.5,12c2,0.1,11,1.1,12.9,14.6
		c0.6,3.6-0.9,7.2-3.9,9.3c-8.4,6.8-28,6.7-37.3,3.4c-5.5,1.9-11.2,3.3-16.9,4.2C348.9,238.4,345,238.7,341,238.7z M319.9,233.5
		c0.1,0,0.1,0,0.2,0.1c10.9,5.1,23.8,4.6,32.6,3.2c5.8-0.9,11.4-2.2,16.9-4.2c0.1,0,0.2,0,0.4,0c9,3.3,28.3,3.5,36.5-3.1
		c2.7-1.9,4-5.2,3.5-8.4c-0.9-5.9-3.2-10.2-7-12.3c-1.6-0.9-3.4-1.4-5.3-1.4c-0.2,0-0.4-0.1-0.5-0.3c-1.7-6-6.7-10.4-12.8-11.5
		c-3-0.6-6.1-0.7-9.1-0.1c-0.2,0.1-0.5-0.1-0.6-0.3c0-0.1-4.8-11-20-12.8s-22.1,14.4-22.2,14.6c-0.1,0.3-0.4,0.4-0.7,0.3
		c0,0,0,0,0,0c-12-7-22.2,6.1-22.3,6.2c-0.1,0.1-0.2,0.2-0.4,0.2c-0.1,0-0.3,0-0.4-0.1c-2.6-2.4-7.2-2.5-12.1-0.3s-10.1,7-10,12.3
		c0.2,9,12.3,12,12.4,12c0.2,0,0.3,0.2,0.4,0.3c2.7,8.5,20.1,5.8,20.3,5.8L319.9,233.5z"></path><path class="st1" d="M369.7,233.6c-0.2,0-0.4-0.1-0.5-0.3c-0.1-0.3,0-0.5,0.3-0.7c3.3-1.6,6.3-3.7,8.9-6.2c0.2-0.2,0.5-0.2,0.7,0
		c0,0,0,0,0,0c0.2,0.2,0.2,0.5,0,0.7c-2.7,2.7-5.8,4.8-9.2,6.4C369.9,233.6,369.8,233.6,369.7,233.6z"></path><path class="st1" d="M319.8,234.5c-0.1,0-0.1,0-0.2,0c-7.4-3.4-8.2-8.1-8.2-8.3c0-0.3,0.1-0.5,0.4-0.6c0,0,0,0,0,0
		c0.3,0,0.5,0.1,0.6,0.4c0,0,0.8,4.3,7.6,7.5c0.2,0.1,0.4,0.4,0.2,0.7C320.2,234.5,320,234.6,319.8,234.5L319.8,234.5z"></path><path class="st1" d="M364.7,201.5c-0.1,0-0.1,0-0.2,0c-0.3-0.1-0.4-0.4-0.3-0.6c0.1-0.2,1.8-4.1,10.8-6.4c0.3-0.1,0.5,0.1,0.6,0.4
		c0,0,0,0,0,0c0.1,0.3-0.1,0.5-0.4,0.6c-8.5,2.2-10.1,5.8-10.2,5.8C365.1,201.4,364.9,201.5,364.7,201.5z"></path><path class="st1" d="M332.1,204.6c-0.2,0-0.3-0.1-0.4-0.2c-0.1-0.1-1.9-2.8-0.1-7.9c0.1-0.3,0.4-0.4,0.6-0.3
		c0.3,0.1,0.4,0.4,0.3,0.6c-1.7,4.6-0.1,7-0.1,7c0.1,0.2,0.1,0.5-0.1,0.7C332.3,204.6,332.2,204.6,332.1,204.6z"></path></g><g id="cloud-2"><path class="st2" d="M116.3,215.4c-7.8-2.7-7.6-22.3,8.8-22.7c1.7-7.3,6.1-13.6,12.4-17.6c10.4-6.4,23.7,4.4,23.7,4.4
		s14.2-11.2,25,2.4c0,0,11.6,0.2,13.2,10.8c0,0,7.3-0.9,10.9,8.3s-4.5,14.5-13.3,14.4c-5.1,0-10.2-1.2-14.8-3.5
		c0,0-10.6,4.8-27.4,5.4s-20.4-4.8-20.4-4.8S125.5,218.7,116.3,215.4z"></path><path class="st1" d="M152.2,217.9c-12.5,0-16.9-3.5-18-4.7c-1.8,1.2-9.7,5.6-18.1,2.7c-3.8-1.3-6-6.4-5.2-11.9s4.9-11.4,13.7-11.7
		c0.5-2.1,3.2-11.8,12.6-17.6c4.4-2.7,10-2.8,16.2-0.2c2.8,1.2,5.4,2.6,7.8,4.4c2.2-1.6,15.1-9.9,25.2,2.5
		c1.7,0.1,11.6,1.1,13.4,10.8l0,0c1.8,0,7.8,0.6,10.9,8.6c1.4,3.6,1.1,6.9-0.7,9.6c-2.4,3.5-7.4,5.6-13.1,5.6
		c-5.1,0-10.2-1.2-14.9-3.4c-1.7,0.7-12,4.8-27.4,5.4C153.9,217.9,153.1,217.9,152.2,217.9z M134.3,212h0.1c0.1,0,0.2,0.1,0.3,0.2
		c0,0.1,3.8,5.2,20,4.6c16.5-0.6,27.2-5.3,27.3-5.4c0.1-0.1,0.3-0.1,0.4,0c4.5,2.2,9.5,3.4,14.6,3.4c5.3,0,10-1.9,12.2-5.1
		c1.6-2.4,1.8-5.4,0.6-8.6c-3.4-8.7-10.1-8-10.4-8c-0.3,0-0.5-0.2-0.6-0.4c-0.5-4-3.1-7.5-6.9-9c-1.9-0.8-3.8-1.3-5.9-1.4
		c-0.1,0-0.3-0.1-0.4-0.2c-4.4-5.5-9.7-7.5-16-6.1c-3,0.7-5.8,2-8.3,3.8c-0.2,0.1-0.4,0.1-0.6,0c-0.1-0.1-13.1-10.5-23.1-4.4
		s-12.2,17.2-12.2,17.3c0,0.2-0.2,0.4-0.5,0.4c-8.5,0.2-12.4,5.8-13.2,10.9s1.2,9.7,4.5,10.8l0,0c8.8,3.1,17.5-2.7,17.6-2.8
		C134.2,212,134.2,212,134.3,212z"></path><path class="st2" d="M134.3,212.5c-1.6-1.6-2.7-3.5-3.3-5.7"></path><path class="st1" d="M134.3,213c-0.1,0-0.3-0.1-0.4-0.1c-1.6-1.6-2.8-3.7-3.4-5.9c-0.1-0.3,0.1-0.5,0.4-0.6c0,0,0,0,0,0
		c0.3-0.1,0.5,0.1,0.6,0.4c0.6,2,1.7,3.9,3.2,5.4c0.2,0.2,0.2,0.5,0,0.7c0,0,0,0,0,0C134.6,213,134.5,213,134.3,213z"></path><path class="st2" d="M182.2,211.9c2.4-0.9,4.5-2.5,6.1-4.4"></path><path class="st1" d="M182.2,212.4c-0.2,0-0.4-0.1-0.5-0.3c-0.1-0.3,0-0.5,0.3-0.6c2.3-0.9,4.4-2.4,5.9-4.3c0.2-0.2,0.5-0.3,0.7-0.1
		c0.2,0.2,0.3,0.5,0.1,0.7c-1.7,2.1-3.9,3.6-6.3,4.6C182.4,212.4,182.3,212.4,182.2,212.4z"></path><path class="st2" d="M161.2,179.5c-4,2.5-5,4.7-5,4.7"></path><path class="st1" d="M156.2,184.7c-0.3,0-0.5-0.2-0.5-0.5c0-0.1,0-0.1,0-0.2c0-0.1,1.1-2.4,5.2-4.9c0.2-0.1,0.5-0.1,0.7,0.2
		s0.1,0.5-0.2,0.7l0,0c-3.8,2.4-4.8,4.5-4.8,4.5C156.6,184.6,156.4,184.7,156.2,184.7z"></path><path class="st2" d="M161.2,185.8c-3.2-1.6-6.8-1.9-10.2-0.8"></path><path class="st1" d="M161.2,186.2c-0.1,0-0.2,0-0.2-0.1c-3-1.5-6.5-1.8-9.8-0.8c-0.3,0.1-0.5-0.1-0.6-0.3c-0.1-0.3,0.1-0.5,0.3-0.6
		c3.5-1.1,7.3-0.8,10.6,0.9c0.2,0.1,0.3,0.4,0.2,0.7c0,0,0,0,0,0C161.6,186.2,161.4,186.2,161.2,186.2z"></path><path class="st2" d="M125.1,192.7c4-0.3,5.9,1.4,5.9,1.4"></path><path class="st1" d="M131,194.6c-0.1,0-0.2,0-0.3-0.1c0,0-1.8-1.6-5.5-1.2c-0.3,0-0.5-0.2-0.5-0.4c0,0,0,0,0,0
		c0-0.3,0.2-0.5,0.4-0.5c4.2-0.4,6.2,1.4,6.3,1.5c0.2,0.2,0.2,0.5,0,0.7c0,0,0,0,0,0C131.3,194.5,131.1,194.5,131,194.6z"></path><path class="st2" d="M186.2,181.9c1.4,1.5,2.3,3.5,2.6,5.6"></path><path class="st1" d="M188.8,188c-0.3,0-0.5-0.2-0.5-0.5c-0.2-2-1.1-3.8-2.4-5.3c-0.2-0.2-0.2-0.5,0-0.7s0.5-0.2,0.7,0c0,0,0,0,0,0
		c1.5,1.6,2.4,3.7,2.7,5.9C189.3,187.7,189.1,188,188.8,188C188.8,188,188.8,188,188.8,188L188.8,188z"></path><path class="st2" d="M199.5,192.7c-3.7,0.4-5.1,2.5-5.1,2.5"></path><path class="st1" d="M194.4,195.7c-0.1,0-0.2,0-0.3-0.1c-0.2-0.2-0.2-0.4-0.1-0.6c0.1-0.1,1.5-2.4,5.4-2.8c0.3,0,0.5,0.2,0.5,0.4
		c0,0.3-0.2,0.5-0.4,0.6c-3.4,0.3-4.6,2.2-4.7,2.3C194.7,195.7,194.6,195.7,194.4,195.7z"></path></g><g id="smoke"><path class="st1" d="M401,424.3c-0.2,0-0.3-0.1-0.4-0.2c-7.9-10.6-27.1-11.3-35-8.1c-0.3,0.1-0.6,0-0.7-0.3s0-0.6,0.3-0.7l0,0
		c4.2-1.7,11.4-2.2,17.8-1.2c5.8,0.9,13.6,3.3,18.4,9.7c0.2,0.2,0.1,0.5-0.1,0.7C401.2,424.3,401.1,424.3,401,424.3z"></path><path class="st1" d="M362.6,406c-0.1,0-0.2,0-0.3-0.1c-13.4-10.6-29-6.8-29.2-6.8c-0.2,0-0.4,0-0.5-0.2
		c-0.1-0.1-12.9-14.4-34.5-7.2c-0.3,0.1-0.5-0.1-0.6-0.3c-0.1-0.3,0-0.5,0.3-0.6c0,0,0,0,0,0c11.7-3.9,20.7-1.6,26.3,0.9
		c3.4,1.5,6.5,3.7,9.1,6.3c2.3-0.5,17-3.1,29.8,7c0.2,0.2,0.3,0.5,0.1,0.7C362.9,405.9,362.8,406,362.6,406z"></path><path class="st1" d="M303.9,390.3c-0.1,0-0.2,0-0.3-0.1c-14.7-10-33-0.8-33.2-0.7c-0.2,0.1-0.5,0-0.7-0.2c-0.1-0.2,0-0.5,0.2-0.7
		c0,0,0,0,0,0c0.2-0.1,19-9.6,34.2,0.8c0.2,0.2,0.3,0.5,0.1,0.7c0,0,0,0,0,0C304.2,390.2,304,390.3,303.9,390.3z"></path><path class="st1" d="M306,412.4c-0.1,0-0.2,0-0.3-0.1c-0.1-0.1-12.5-10.5-26.2-1.4c-0.2,0.2-0.5,0.1-0.7-0.1
		c-0.2-0.2-0.1-0.5,0.1-0.7c0,0,0,0,0,0c14.4-9.6,27.3,1.4,27.4,1.5c0.2,0.2,0.2,0.5,0,0.7C306.3,412.4,306.1,412.4,306,412.4z"></path><path class="st1" d="M308.3,376.2L308.3,376.2c-0.2,0-0.3-0.1-0.4-0.2c-0.1-0.1-6.1-9.4-16.6-7.6c-0.3,0-0.5-0.1-0.6-0.4
		c0-0.3,0.1-0.5,0.4-0.6c0,0,0,0,0,0c9.5-1.7,15.6,5.4,17.2,7.5c4.4-5.2,16.1-6.8,26.1-1.3c0.2,0.1,0.3,0.4,0.2,0.7c0,0,0,0,0,0
		c-0.1,0.2-0.4,0.3-0.7,0.2c-10.7-5.9-21.9-3.1-25.2,1.5C308.6,376.1,308.5,376.2,308.3,376.2z"></path><path class="st1" d="M263.4,401.3c-0.2,0-0.3-0.1-0.4-0.2c-1.9-2.7-6.6-4.6-12-4.9c-6.2-0.4-11.7,1.5-14.8,5
		c-0.2,0.2-0.5,0.2-0.7,0c-0.2-0.2-0.2-0.5,0-0.7c0,0,0,0,0,0c3.3-3.7,9.1-5.7,15.6-5.3c5.7,0.3,10.7,2.4,12.7,5.4
		c0.2,0.2,0.1,0.5-0.1,0.7c0,0,0,0,0,0C263.6,401.3,263.5,401.3,263.4,401.3z"></path><path class="st1" d="M276.1,396.1c-0.2,0-0.4-0.1-0.4-0.3c-3.5-6.7-8.8-6.8-15.3-6.3c-0.3,0-0.5-0.2-0.5-0.4c0,0,0,0,0,0
		c0-0.3,0.2-0.5,0.5-0.5c6.7-0.6,12.5-0.5,16.3,6.8c0.1,0.2,0,0.5-0.2,0.7c0,0,0,0,0,0C276.2,396.1,276.2,396.1,276.1,396.1z"></path><path class="st1" d="M241.7,407.1c-0.2,0-0.4-0.1-0.4-0.3c-0.2-0.4-4.7-8.7-14.1-5.6c-0.3,0.1-0.5-0.1-0.6-0.3
		c-0.1-0.3,0.1-0.5,0.3-0.6c10.2-3.4,15.2,6,15.3,6.1c0.1,0.2,0,0.5-0.2,0.7c0,0,0,0,0,0C241.9,407.1,241.8,407.1,241.7,407.1z"></path><path class="st1" d="M198.1,385.5c-0.1,0-0.2,0-0.3-0.1c-0.2-0.2-0.3-0.5-0.1-0.7c8.9-12.5,26.4-7.3,29.2-6.4
		c1.1-1.3,5.8-6.4,12.5-3.2c0.3,0.1,0.4,0.4,0.3,0.6c-0.1,0.3-0.4,0.4-0.6,0.3c0,0,0,0-0.1,0c-6.9-3.3-11.3,2.9-11.5,3.2
		c-0.1,0.2-0.4,0.3-0.6,0.2c-0.2-0.1-19.2-7-28.3,5.9C198.4,385.5,198.2,385.5,198.1,385.5z"></path><path class="st1" d="M152.1,407.1c-0.1,0-0.2,0-0.3-0.1c-0.2-0.2-0.3-0.5-0.1-0.7c7.7-10.4,19.2-7.3,22.3-6.3
		c-0.1-1.4,0.1-2.8,0.6-4.1c0.9-2.5,3.3-6.1,9.5-9c7-3.2,15-3.2,22,0c0.2,0.1,0.3,0.4,0.2,0.7c-0.1,0.2-0.4,0.3-0.7,0.2l0,0
		c-6.7-3.1-14.4-3.1-21.1,0c-11.1,5.1-9.5,12.5-9.4,12.8c0,0.2,0,0.4-0.2,0.5c-0.1,0.1-0.3,0.1-0.5,0.1c-0.6-0.2-13.5-5.8-21.9,5.7
		C152.4,407,152.3,407.1,152.1,407.1z"></path><path class="st1" d="M188.1,377.6L188.1,377.6c-0.2,0-0.3-0.1-0.4-0.2c-3.6-5.2-9.9-7.7-16.1-6.4c-0.3,0-0.5-0.1-0.6-0.4
		c-0.1-0.3,0.1-0.5,0.4-0.6c0,0,0,0,0,0c6.3-1.3,12.8,1.1,16.7,6.2c6.7-9.9,19.6-10.9,28.4-6.7c0.3,0.1,0.4,0.4,0.2,0.7c0,0,0,0,0,0
		c-0.1,0.2-0.4,0.4-0.7,0.2c-8.7-4.1-21.3-3.1-27.6,6.9C188.5,377.5,188.3,377.6,188.1,377.6z"></path><path class="st1" d="M118.2,409.8H118c-0.3-0.1-0.4-0.4-0.3-0.6c2-5.5,6.5-9.8,12.7-11.9c5.9-2,12.7-1.8,16.5,0.6
		c0.2,0.1,0.3,0.5,0.2,0.7c-0.1,0.2-0.4,0.3-0.7,0.2c0,0,0,0,0,0c-3.4-2.2-10-2.4-15.6-0.5c-5.9,2-10.2,6-12.1,11.3
		C118.6,409.7,118.4,409.8,118.2,409.8z"></path><path class="st1" d="M108.9,413.7c-0.3,0-0.5-0.2-0.5-0.5c0-0.1,0.1-0.3,0.2-0.4c8.3-8,19.3-0.1,19.4,0c0.2,0.2,0.3,0.5,0.1,0.7
		c0,0,0,0,0,0c-0.2,0.2-0.5,0.3-0.7,0.1c-1.9-1.3-4-2.3-6.2-2.9c-4.7-1.2-8.7-0.3-11.9,2.8C109.2,413.7,109.1,413.7,108.9,413.7z"></path><path class="st1" d="M199.8,425.6c-0.1,0-0.2,0-0.3-0.1c-0.2-0.2-0.3-0.5-0.1-0.7c10.9-14.9,24.9-6.5,25-6.4
		c0.2,0.1,0.3,0.4,0.2,0.7c0,0,0,0,0,0c-0.1,0.2-0.5,0.3-0.7,0.2c0,0,0,0,0,0c-0.5-0.3-13.3-8-23.7,6.1
		C200.1,425.5,199.9,425.6,199.8,425.6z"></path><path class="st1" d="M208.9,431.9c-0.1,0-0.3-0.1-0.4-0.1c-0.1-0.1-10.4-10.2-18.8-6.3c-0.2,0.1-0.5,0.1-0.7-0.2
		c-0.1-0.2-0.1-0.5,0.2-0.7c0,0,0.1,0,0.1,0c9.1-4.3,19.5,6,19.9,6.5c0.2,0.2,0.2,0.5,0,0.7c0,0,0,0,0,0
		C209.2,431.9,209,431.9,208.9,431.9z"></path></g><g id="sun"><circle class="st2" cx="177.3" cy="74.5" r="22.9"></circle><path class="st1" d="M177.3,98c-12.9,0-23.4-10.5-23.4-23.4s10.5-23.4,23.4-23.4s23.4,10.5,23.4,23.4c0,0,0,0,0,0
		C200.8,87.5,190.3,98,177.3,98z M177.3,52.2c-12.4,0-22.4,10-22.4,22.4S165,97,177.3,97s22.4-10,22.4-22.4v0
		C199.8,62.2,189.7,52.1,177.3,52.2C177.3,52.1,177.3,52.1,177.3,52.2L177.3,52.2z"></path><path class="st1" d="M177.4,103.3c-0.3,0-0.5-0.2-0.5-0.5s0.2-0.5,0.5-0.5c1.6,0,3.2-0.1,4.8-0.4c0.3,0,0.5,0.1,0.6,0.4
		c0,0.3-0.1,0.5-0.4,0.6C180.7,103.2,179,103.4,177.4,103.3L177.4,103.3z M172.5,102.9L172.5,102.9c-1.7-0.3-3.4-0.7-4.9-1.3
		c-0.3-0.1-0.4-0.4-0.3-0.6c0.1-0.2,0.4-0.4,0.6-0.3c1.5,0.6,3.1,1,4.7,1.2c0.3,0.1,0.5,0.3,0.4,0.6
		C172.9,102.8,172.7,102.9,172.5,102.9L172.5,102.9z M187,101.6c-0.2,0-0.4-0.1-0.5-0.3c-0.1-0.3,0-0.5,0.3-0.6
		c1.5-0.6,3-1.2,4.4-2.1c0.2-0.1,0.5-0.1,0.7,0.2c0.1,0.2,0,0.5-0.2,0.7c-1.5,0.8-3,1.5-4.6,2.1C187.2,101.6,187.1,101.7,187,101.6
		L187,101.6z M163.2,99.6c-0.1,0-0.2,0-0.2-0.1c-1.5-0.8-2.8-1.8-4.1-2.9c-0.2-0.2-0.2-0.5-0.1-0.7c0.2-0.2,0.5-0.2,0.7-0.1
		c1.2,1,2.6,2,4,2.8c0.2,0.1,0.3,0.4,0.2,0.7C163.6,99.5,163.4,99.6,163.2,99.6L163.2,99.6z M195.6,96.7c-0.3,0-0.5-0.2-0.5-0.5
		c0-0.1,0.1-0.3,0.2-0.4c1.2-1,2.4-2.2,3.4-3.4c0.2-0.2,0.5-0.2,0.7-0.1c0,0,0,0,0,0c0.2,0.2,0.2,0.5,0.1,0.7
		c-1.1,1.3-2.3,2.5-3.6,3.6C195.8,96.7,195.7,96.7,195.6,96.7z M155.7,93.3c-0.1,0-0.3-0.1-0.4-0.2c-1.1-1.3-2-2.6-2.9-4.1
		c-0.1-0.2-0.1-0.5,0.2-0.7c0.2-0.1,0.5-0.1,0.7,0.2c0.8,1.4,1.7,2.8,2.8,4c0.2,0.2,0.1,0.5-0.1,0.7
		C155.9,93.3,155.8,93.3,155.7,93.3L155.7,93.3z M201.9,89.2c-0.1,0-0.2,0-0.2-0.1c-0.2-0.1-0.3-0.4-0.2-0.7c0.8-1.4,1.5-2.9,2-4.4
		c0.1-0.3,0.4-0.4,0.6-0.3c0.3,0.1,0.4,0.4,0.3,0.6c0,0,0,0,0,0c-0.6,1.6-1.3,3.1-2.1,4.6C202.2,89.1,202.1,89.2,201.9,89.2z
		 M150.7,84.8c-0.2,0-0.4-0.1-0.5-0.3c-0.6-1.6-1-3.2-1.3-4.8c0-0.3,0.1-0.5,0.4-0.6c0.3,0,0.5,0.1,0.6,0.4c0.3,1.6,0.7,3.2,1.3,4.7
		c0.1,0.3,0,0.5-0.3,0.6c0,0,0,0,0,0C150.8,84.8,150.8,84.8,150.7,84.8L150.7,84.8z M205.2,79.9L205.2,79.9c-0.4,0-0.5-0.3-0.5-0.6
		c0,0,0,0,0,0c0.3-1.6,0.4-3.2,0.4-4.8v-0.1c0-0.3,0.2-0.5,0.5-0.5c0.3,0,0.5,0.2,0.5,0.5v0.1c0,1.7-0.1,3.3-0.4,5
		C205.7,79.8,205.5,79.9,205.2,79.9z M149,75.1c-0.3,0-0.5-0.2-0.5-0.5c0,0,0,0,0,0v-0.1c0-1.7,0.1-3.3,0.4-4.9
		c0-0.3,0.3-0.5,0.6-0.4c0,0,0,0,0,0c0.3,0.1,0.5,0.3,0.4,0.6c-0.3,1.6-0.4,3.2-0.4,4.8C149.5,74.8,149.3,75,149,75.1z M205.2,70
		c-0.2,0-0.5-0.2-0.5-0.4c-0.3-1.6-0.7-3.2-1.3-4.7c-0.1-0.2,0-0.5,0.2-0.7c0.2-0.1,0.5,0,0.7,0.2c0,0,0,0.1,0,0.1
		c0.6,1.6,1,3.2,1.3,4.8C205.8,69.7,205.6,69.9,205.2,70L205.2,70z M150.7,65.4c-0.1,0-0.1,0-0.2,0c-0.3-0.1-0.4-0.4-0.3-0.6
		c0,0,0,0,0,0c0.6-1.6,1.3-3.1,2.1-4.5c0.1-0.2,0.4-0.3,0.7-0.2c0.2,0.1,0.3,0.4,0.2,0.7c0,0,0,0,0,0c-0.8,1.4-1.5,2.9-2,4.4
		C151.1,65.3,150.9,65.4,150.7,65.4z M201.8,60.8c-0.2,0-0.3-0.1-0.4-0.2c-0.8-1.4-1.8-2.7-2.8-4c-0.2-0.2-0.2-0.5,0.1-0.7
		s0.5-0.2,0.7,0.1c1.1,1.3,2.1,2.7,2.9,4.1c0.1,0.2,0.1,0.5-0.2,0.7C202,60.7,201.9,60.7,201.8,60.8z M155.6,56.9
		c-0.1,0-0.2,0-0.3-0.1c-0.2-0.2-0.2-0.5-0.1-0.7c1.1-1.3,2.3-2.5,3.5-3.6c0.2-0.2,0.5-0.1,0.7,0.1c0.2,0.2,0.1,0.5-0.1,0.7l0,0
		c-1.2,1-2.4,2.2-3.4,3.4C155.9,56.8,155.7,56.9,155.6,56.9L155.6,56.9z M195.5,53.3c-0.1,0-0.2,0-0.3-0.1c-1.3-1-2.6-2-4-2.8
		c-0.2-0.1-0.3-0.4-0.2-0.7c0,0,0,0,0,0c0.1-0.2,0.4-0.3,0.7-0.2c0,0,0,0,0,0c1.5,0.8,2.8,1.8,4.1,2.9c0.2,0.2,0.2,0.5,0.1,0.7
		C195.7,53.2,195.6,53.3,195.5,53.3L195.5,53.3z M163.1,50.5c-0.3,0-0.5-0.2-0.5-0.5c0-0.2,0.1-0.3,0.2-0.4c1.5-0.8,3-1.6,4.5-2.1
		c0.3-0.1,0.5,0,0.6,0.3c0.1,0.3,0,0.5-0.3,0.6c-1.5,0.6-3,1.2-4.4,2.1C163.3,50.5,163.2,50.5,163.1,50.5z M186.9,48.4h-0.2
		c-1.5-0.6-3.1-1-4.7-1.2c-0.3,0-0.5-0.3-0.4-0.6c0-0.3,0.3-0.5,0.6-0.4c1.7,0.3,3.3,0.7,4.9,1.3c0.3,0.1,0.4,0.4,0.3,0.6
		C187.3,48.2,187.1,48.4,186.9,48.4L186.9,48.4z M172.3,47.1c-0.3,0-0.5-0.2-0.5-0.5s0.2-0.5,0.5-0.5c1.7-0.3,3.3-0.4,5-0.5l0,0
		c0.3,0,0.5,0.2,0.5,0.5c0,0.3-0.2,0.5-0.5,0.5C175.6,46.7,174,46.8,172.3,47.1L172.3,47.1z"></path><path class="st1" d="M194.4,75c-0.3,0-0.5-0.2-0.5-0.5c0-9.1-7.4-16.5-16.6-16.5c-0.3,0-0.5-0.2-0.5-0.5s0.2-0.5,0.5-0.5
		c9.7,0,17.5,7.8,17.6,17.5C194.9,74.8,194.7,75,194.4,75z"></path></g></svg>