<svg transform="scale(1)" id="_0941_Getting_Started" xmlns="http://www.w3.org/2000/svg" viewBox="0 0 500 500" class="show_show__wrapper__graphic__5Waiy "><title>React</title><rect x="111.25" y="146.19" width="268.87" height="268.87" rx="29.46" ry="29.46" fill="#ee5454" stroke-width="0"></rect><g id="rocket"><path d="M246.07,146.19c-21.8,0-31.55,6.02-31.55,6.02,6.49-27.82,19.8-45.36,31.55-45.36s24.21,16.43,30.9,42.7c0,0-9.1-3.36-30.9-3.36Z" fill="#732a09" stroke-width="0"></path><path d="M214.52,152.71c-.1,0-.21-.03-.29-.09-.16-.12-.24-.32-.19-.52,6.28-26.94,19.46-45.75,32.04-45.75s24.82,17.31,31.38,43.08c.05.18-.01.37-.15.49-.14.12-.33.17-.51.1-.09-.03-9.3-3.33-30.73-3.33s-31.19,5.89-31.29,5.95c-.08.05-.17.07-.26.07ZM246.07,107.35c-11.95,0-24.54,17.99-30.8,43.89,3-1.5,12.76-5.55,30.8-5.55s27.43,2.28,30.19,3.11c-6.41-24.45-18.76-41.45-30.19-41.45Z" fill="#732a09" stroke-width="0"></path><path d="M282.72,234.02v.12c0,28.51-.75,52.95-.75,52.95,0,0-1.99,7.5-6.37,11.47,0,0-8.34-3.04-29.53-3.04s-29.52,3.04-29.52,3.04c-4.4-3.97-6.38-11.47-6.38-11.47,0,0-.75-24.44-.75-52.95v-.12c0-19.62.36-41.15,1.56-57.96.25-3.47.6-6.85,1.05-10.12.07-.62,16.49-5.63,34.04-5.63s33.8,3.84,33.8,3.84c.56,3.83,1,7.8,1.29,11.91,1.2,16.81,1.56,38.34,1.56,57.96Z" fill="#fff" stroke-width="0"></path><path d="M216.55,299.06c-.12,0-.24-.04-.33-.13-4.46-4.02-6.45-11.4-6.53-11.71,0-.04-.02-.07-.02-.11,0-.25-.75-24.77-.75-52.97v-.12c0-23.97.53-43.48,1.56-58,.25-3.48.6-6.89,1.05-10.15.13-1.17,9.76-3.24,10.86-3.47,5.61-1.18,14.27-2.59,23.68-2.59,17.41,0,33.75,3.82,33.92,3.85.2.05.35.21.38.41.58,3.96,1.01,7.98,1.29,11.95,1.04,14.51,1.56,34.02,1.56,58v.12c0,28.19-.74,52.72-.75,52.97,0,.04,0,.08-.02.11-.08.31-2.08,7.69-6.52,11.71-.14.12-.33.16-.51.1-.08-.03-8.54-3.01-29.36-3.01s-29.27,2.98-29.35,3.01c-.06.02-.11.03-.17.03ZM210.67,287.02c.18.66,2.1,7.28,6,10.98,1.66-.54,10.27-2.97,29.4-2.97s27.75,2.44,29.41,2.97c3.88-3.69,5.81-10.31,5.99-10.98.04-1.37.75-25.38.75-52.88v-.12c0-23.95-.52-43.44-1.56-57.92-.27-3.83-.69-7.71-1.24-11.53-2.4-.54-17.43-3.75-33.35-3.75s-31.86,4.41-33.57,5.38c-.43,3.19-.78,6.52-1.02,9.9-1.03,14.49-1.56,33.98-1.56,57.92v.12c0,27.5.71,51.51.75,52.88ZM281.97,287.09h0,0ZM212.53,166s0,.01,0,.02c0,0,0-.01,0-.02Z" fill="#732a09" stroke-width="0"></path><path d="M312.11,329.5c-2.26-3.09-4.6-7.5-6.76-13.75-8.26-23.89-13.39-34.61-13.39-34.61l-9.23-8.49v-38.63s21.29,25.45,23.07,30.59c1.32,3.8,10.79,41.18,15.66,60.49,1.42,5.61-5.93,9.07-9.35,4.4Z" fill="#fff" stroke-width="0"></path><path d="M316.27,332.17c-1.62,0-3.31-.68-4.56-2.38h0c-2.55-3.48-4.85-8.15-6.83-13.88-7.77-22.48-12.83-33.4-13.33-34.47l-9.16-8.42c-.1-.09-.16-.23-.16-.37v-38.63c0-.21.13-.4.33-.47.2-.07.42-.01.55.15.87,1.04,21.36,25.58,23.16,30.74,1.3,3.74,10.38,39.53,15.68,60.53.8,3.18-1,5.62-3.14,6.63-.76.36-1.64.57-2.54.57ZM312.51,329.2c1.71,2.34,4.23,2.27,5.87,1.5,1.64-.77,3.3-2.67,2.59-5.48-5.29-20.99-14.37-56.74-15.65-60.45-1.53-4.4-18.06-24.5-22.1-29.37v37.02l9.07,8.34s.08.09.11.15c.05.11,5.24,11.01,13.41,34.66,1.95,5.63,4.2,10.22,6.69,13.62h0Z" fill="#732a09" stroke-width="0"></path><path d="M209.42,234.02v38.63l-9.23,8.49s-5.13,10.72-13.4,34.61c-2.16,6.26-4.49,10.66-6.75,13.75-3.42,4.67-10.76,1.21-9.35-4.4,4.87-19.3,14.35-56.69,15.66-60.49,1.79-5.13,23.07-30.59,23.07-30.59Z" fill="#fff" stroke-width="0"></path><path d="M175.88,332.17c-.9,0-1.78-.21-2.54-.57-2.14-1.01-3.94-3.45-3.14-6.63,5.3-21,14.38-56.79,15.68-60.53,1.8-5.16,22.29-29.7,23.16-30.74.14-.16.36-.22.55-.15.2.07.33.26.33.47v38.63c0,.14-.06.27-.16.37l-9.16,8.42c-.5,1.07-5.56,11.99-13.34,34.47-1.97,5.72-4.27,10.39-6.82,13.88-1.25,1.7-2.94,2.38-4.56,2.38ZM208.92,235.41c-4.04,4.87-20.57,24.97-22.1,29.37-1.28,3.7-10.36,39.46-15.65,60.45-.71,2.81.95,4.71,2.59,5.48,1.64.77,4.16.84,5.87-1.5,2.5-3.41,4.74-7.99,6.68-13.62,8.18-23.64,13.37-34.55,13.42-34.66.03-.06.07-.11.11-.15l9.07-8.34v-37.02Z" fill="#732a09" stroke-width="0"></path><path d="M294.02,348.74s-17.48-5.95-47.95-5.95-47.94,5.95-47.94,5.95c0,0,1.04-4.86,4.33-17.06,3.3-12.21,8.38-17.36,8.38-17.36,11.5-3.19,35.22-3.52,35.22-3.52,0,0,23.73.33,35.23,3.52,0,0,5.08,5.15,8.37,17.36,3.3,12.2,4.34,17.06,4.34,17.06Z" fill="#fff" stroke-width="0"></path><path d="M294.02,349.25c-.05,0-.11,0-.16-.03-.17-.06-17.77-5.93-47.79-5.93s-47.6,5.87-47.78,5.93c-.17.06-.36.02-.49-.1-.13-.12-.19-.3-.16-.48.01-.05,1.08-5.01,4.34-17.08,3.29-12.2,8.3-17.37,8.51-17.58.06-.06.14-.11.22-.13,11.43-3.17,35.11-3.54,35.35-3.54.25,0,23.95.37,35.37,3.54.08.02.16.07.22.13.21.21,5.21,5.39,8.5,17.58,3.26,12.07,4.34,17.04,4.35,17.08.04.18-.02.36-.16.48-.09.08-.21.13-.33.13ZM211.11,314.77c-.68.75-5.19,6-8.17,17.05-2.5,9.26-3.71,14.33-4.14,16.19,3.85-1.16,20.75-5.72,47.26-5.72s43.42,4.56,47.27,5.72c-.43-1.86-1.64-6.93-4.15-16.19-2.98-11.04-7.48-16.3-8.16-17.05-11.35-3.1-34.73-3.46-34.97-3.47-.22,0-23.59.37-34.95,3.47Z" fill="#732a09" stroke-width="0"></path><path d="M281.3,314.32c-11.5-3.19-35.23-3.52-35.23-3.52,0,0-23.73.33-35.22,3.52-2.7-1.43-3.42-9.54-2.47-11.54.96-1.98,8.17-4.23,8.17-4.23,0,0,8.33-3.04,29.52-3.04s29.53,3.04,29.53,3.04c0,0,7.21,2.24,8.16,4.23.96,1.99.24,10.1-2.46,11.54Z" fill="#f55454" stroke-width="0"></path><path d="M210.85,314.82c-.08,0-.16-.02-.23-.06-3.09-1.64-3.66-10.15-2.69-12.19,1.02-2.12,7.71-4.25,8.47-4.49.32-.12,8.64-3.07,29.67-3.07s29.36,2.95,29.7,3.08c.74.23,7.43,2.36,8.44,4.48.98,2.03.43,10.54-2.68,12.19-.11.06-.24.08-.37.04-11.3-3.14-34.87-3.5-35.1-3.5-.22,0-23.78.37-35.08,3.5-.04.01-.09.02-.13.02ZM246.06,310.3c.25,0,23.66.37,35.17,3.49,2.28-1.53,2.95-8.98,2.08-10.78-.62-1.3-5.15-3.12-7.86-3.97-.11-.04-8.57-3.02-29.38-3.02s-29.27,2.98-29.35,3.01c-2.73.85-7.26,2.67-7.89,3.97-.86,1.8-.18,9.25,2.09,10.78,11.5-3.12,34.9-3.48,35.14-3.49Z" fill="#732a09" stroke-width="0"></path><path d="M208.21,350.38c-7.44-.81-10.08-1.64-10.08-1.64,0,0,17.48-5.95,47.94-5.95s47.95,5.95,47.95,5.95c0,0-2.88.9-11.12,1.75" fill="#fff" stroke-width="0"></path><path d="M282.9,350.99c-.25,0-.47-.19-.5-.45-.03-.27.17-.52.45-.55,4.63-.48,7.57-.97,9.23-1.31-5.17-1.46-21.42-5.39-46.01-5.39s-40.83,3.94-46,5.39c1.54.31,4.16.76,8.2,1.2.27.03.47.28.44.55-.03.27-.29.47-.55.44-7.4-.81-10.06-1.62-10.17-1.66-.21-.06-.35-.25-.35-.47,0-.22.13-.41.34-.48.18-.06,17.91-5.98,48.1-5.98s47.93,5.92,48.11,5.98c.21.07.34.26.34.48,0,.22-.14.41-.35.47-.12.04-3.02.92-11.22,1.77-.02,0-.03,0-.05,0Z" fill="#732a09" stroke-width="0"></path><path d="M254.57,302.9c-2.22,9.64-4.42,19.06-6.03,25.89-.61,2.61-4.33,2.61-4.94,0-1.6-6.84-3.8-16.25-6.02-25.89-4.3-18.64-4.3-21.5-2.29-34.69,2-13.19,4.87-32.39,10.78-33.26,5.92.87,8.79,20.07,10.79,33.26,2.01,13.18,2.01,16.04-2.29,34.69Z" fill="#fff" stroke-width="0"></path><path d="M246.07,331.25h0c-1.2,0-2.58-.73-2.96-2.35-1.6-6.84-3.8-16.25-6.02-25.89-4.33-18.77-4.33-21.57-2.3-34.87l.04-.28c2.08-13.71,4.92-32.49,11.16-33.4.05,0,.1,0,.15,0,6.25.92,9.1,19.69,11.17,33.4l.04.28c2.03,13.31,2.03,16.11-2.3,34.87h0c-2.22,9.64-4.42,19.06-6.03,25.89-.38,1.62-1.76,2.35-2.96,2.35ZM246.07,235.46c-5.46.96-8.34,19.96-10.25,32.55l-.04.28c-2,13.14-2.01,15.91,2.29,34.5,2.22,9.64,4.42,19.05,6.02,25.89.27,1.16,1.24,1.58,1.99,1.58h0c.75,0,1.71-.41,1.99-1.57,1.6-6.84,3.8-16.25,6.03-25.89h0c4.29-18.59,4.29-21.36,2.29-34.5l-.04-.28c-1.91-12.59-4.79-31.59-10.26-32.55Z" fill="#732a09" stroke-width="0"></path><circle cx="246.07" cy="197.41" r="23.26" fill="#fff" stroke-width="0"></circle><path d="M246.07,221.17c-13.1,0-23.76-10.66-23.76-23.76s10.66-23.76,23.76-23.76,23.76,10.66,23.76,23.76-10.66,23.76-23.76,23.76ZM246.07,174.65c-12.55,0-22.76,10.21-22.76,22.76s10.21,22.76,22.76,22.76,22.76-10.21,22.76-22.76-10.21-22.76-22.76-22.76Z" fill="#732a09" stroke-width="0"></path><circle cx="246.07" cy="197.41" r="14.14" fill="#f55454" stroke-width="0"></circle><path d="M246.07,212.05c-8.07,0-14.64-6.57-14.64-14.64s6.57-14.64,14.64-14.64,14.64,6.57,14.64,14.64-6.57,14.64-14.64,14.64ZM246.07,183.77c-7.52,0-13.64,6.12-13.64,13.64s6.12,13.64,13.64,13.64,13.64-6.12,13.64-13.64-6.12-13.64-13.64-13.64Z" fill="#732a09" stroke-width="0"></path><path d="M279.87,164.15s-16.25-3.84-33.8-3.84-33.97,5.01-34.04,5.63c.64-4.81,1.49-9.4,2.49-13.73,0,0,9.75-6.02,31.55-6.02s30.9,3.36,30.9,3.36h0c1.17,4.59,2.15,9.46,2.9,14.6Z" fill="#f25454" stroke-width="0"></path><path d="M212.03,166.44s-.04,0-.06,0c-.27-.03-.47-.28-.44-.55,0,0,0,0,0,0h0c.62-4.63,1.46-9.26,2.5-13.78.03-.13.11-.24.22-.31.4-.25,10.12-6.09,31.81-6.09s30.7,3.25,31.07,3.39c.17.06.29.22.32.39,1.19,4.67,2.17,9.59,2.9,14.6.02.16-.03.33-.16.44-.12.11-.29.16-.45.12-.16-.04-16.4-3.83-33.69-3.83s-32.29,4.53-33.63,5.42c-.09.13-.24.21-.41.21ZM214.96,152.53c-.94,4.1-1.71,8.31-2.3,12.51,4.35-1.97,20.46-5.24,33.41-5.24,15.34,0,29.86,2.96,33.2,3.69-.7-4.66-1.62-9.21-2.72-13.57-1.6-.52-10.98-3.25-30.48-3.25s-29.71,5.06-31.11,5.84Z" fill="#732a09" stroke-width="0"></path><path d="M277.67,348.75c9.23,2.47,17.12,9,19.38,17.12,0,0,13.52-.9,21.86,6.99,8.34,7.89,7.21,17.57,7.21,17.57,0,0,20.19,2.41,24.41,24.64H111.25c1.78-14.21,18.34-14.96,18.34-14.96,8.51-19.93,28.96-18.21,28.96-18.21,7.74-22.07,36.9-17.2,36.9-17.2,0,0,2.98-11.3,16.66-15.95" fill="#fff" stroke-width="0"></path><path d="M350.52,415.56H111.25c-.14,0-.28-.06-.38-.17-.09-.11-.14-.25-.12-.39,1.67-13.36,16.16-15.17,18.5-15.37,7.97-18.23,26.08-18.36,28.96-18.25,7.44-20.35,33.23-17.72,36.9-17.24.72-2.14,4.59-11.7,16.84-15.87.27-.09.55.05.63.31.09.26-.05.55-.31.63-13.25,4.5-16.31,15.49-16.33,15.6-.07.25-.31.41-.57.37-.29-.05-28.84-4.54-36.35,16.87-.07.22-.28.35-.51.33-.2-.01-20.2-1.45-28.46,17.9-.08.18-.25.29-.44.3-.16,0-15.72.88-17.79,13.96h238.08c-2.25-10.9-8.5-16.73-13.4-19.71-5.42-3.3-10.41-3.93-10.46-3.94-.27-.03-.47-.28-.44-.55.01-.09.99-9.54-7.05-17.15-8.09-7.64-21.35-6.86-21.49-6.85-.25.02-.45-.14-.52-.37-2.13-7.66-9.6-14.24-19.02-16.77-.27-.07-.42-.35-.35-.61.07-.27.35-.42.61-.35,9.6,2.58,17.26,9.25,19.62,17.08,2.36-.09,14.14-.13,21.84,7.14,7.46,7.06,7.52,15.41,7.4,17.51,1.4.24,5.67,1.14,10.35,3.98,5.17,3.14,11.8,9.33,14.02,20.99.03.15-.01.3-.11.41-.1.11-.24.18-.39.18Z" fill="#732a09" stroke-width="0"></path><path d="M414.83,415.06h-64.31c-4.21-22.23-24.41-24.64-24.41-24.64,0,0,1.13-9.68-7.21-17.57,0,0,21.74-5.04,34.58,9.04,0,0,17.04-5.22,26.58,1.66,0,0,6.54,4.58,9.4,11.56,0,0,23.55,4.46,25.37,19.95Z" fill="#fff" stroke-width="0"></path><path d="M414.83,415.56h-64.31c-.24,0-.45-.17-.49-.41-2.14-11.28-8.53-17.27-13.52-20.3-5.42-3.3-10.41-3.93-10.46-3.94-.27-.03-.47-.28-.44-.55.01-.09.99-9.54-7.05-17.15-.13-.13-.19-.32-.14-.49.05-.18.19-.31.37-.36.22-.05,21.94-4.89,34.85,8.96,2.42-.69,17.67-4.7,26.72,1.82.26.18,6.54,4.64,9.46,11.53,1.23.26,6.49,1.47,11.87,4.16,8.16,4.07,12.88,9.66,13.64,16.17.02.14-.03.28-.12.39-.09.11-.23.17-.37.17ZM350.93,414.56h63.33c-2.26-14.5-24.66-18.91-24.89-18.96-.17-.03-.31-.15-.37-.3-2.76-6.75-9.16-11.29-9.22-11.34-9.24-6.66-25.98-1.64-26.15-1.59-.19.06-.39,0-.52-.14-11.02-12.09-28.94-9.81-33.18-9.07,6.78,6.91,6.83,14.81,6.71,16.84,3.09.55,20.26,4.5,24.28,24.56Z" fill="#732a09" stroke-width="0"></path><path d="M310.4,397.01c-.12,0-.24-.04-.34-.13-.2-.19-.21-.5-.03-.71,3.65-3.93,9.77-6.33,16.08-6.24.28,0,.5.23.49.51,0,.27-.23.49-.5.49h0c-5.99-.07-11.87,2.19-15.34,5.92-.1.11-.23.16-.37.16Z" fill="#732a09" stroke-width="0"></path><path d="M316.99,404.32c-.22,0-.41-.14-.48-.36-.1-.35-2.66-8.49-13.2-6.96-.28.03-.53-.15-.57-.42-.04-.27.15-.53.42-.57,11.42-1.65,14.28,7.58,14.31,7.67.08.26-.07.54-.34.62-.05.01-.1.02-.14.02Z" fill="#732a09" stroke-width="0"></path><path d="M283.33,372.48c-.1,0-.2-.03-.29-.1-.22-.16-.27-.47-.11-.7,4.63-6.37,13.73-6.32,14.12-6.32.28,0,.5.23.49.51,0,.28-.23.46-.51.49-.09,0-8.97-.04-13.3,5.9-.1.13-.25.21-.4.21Z" fill="#732a09" stroke-width="0"></path><path d="M209.42,373.16c-.14,0-.27-.06-.37-.17-5.81-6.51-13.59-7.78-13.67-7.79-.27-.04-.46-.3-.42-.57.04-.27.3-.46.57-.42.33.05,8.2,1.33,14.26,8.11.18.21.17.52-.04.71-.1.08-.21.13-.33.13Z" fill="#732a09" stroke-width="0"></path><path d="M156.61,392.91c-.27,0-.49-.21-.5-.49,0-.23-.12-5.58,1.99-10.71.11-.26.4-.38.65-.27.26.1.38.4.27.65-2.03,4.93-1.91,10.25-1.91,10.3,0,.28-.21.51-.49.51h-.01Z" fill="#732a09" stroke-width="0"></path><path d="M150.75,398.62c-.07,0-.14-.02-.21-.05-.25-.12-.36-.41-.24-.66.04-.08,3.81-7.94,15.32-5.99.27.05.46.3.41.58-.05.27-.3.46-.58.41-10.74-1.81-14.1,5.13-14.24,5.42-.08.18-.27.29-.45.29Z" fill="#732a09" stroke-width="0"></path><path d="M246.07,395.61c-.15,0-.29-.06-.39-.19-.05-.06-5.07-6.25-14.53-7.77-9.51-1.53-18.71,3.17-18.8,3.22-.24.13-.55.03-.67-.21-.13-.25-.03-.55.21-.67.39-.2,9.6-4.89,19.42-3.32,9.86,1.58,14.94,7.87,15.15,8.14.17.22.14.53-.08.7-.09.07-.2.11-.31.11Z" fill="#732a09" stroke-width="0"></path><path d="M235.9,388.86c-.08,0-.15-.02-.22-.05-.25-.12-.35-.42-.22-.67,4.27-8.54,14.32-5.08,14.42-5.04.26.09.4.38.3.64-.09.26-.38.4-.64.3-.38-.13-9.31-3.2-13.19,4.55-.09.17-.26.28-.45.28Z" fill="#732a09" stroke-width="0"></path></g><path d="M325.93,223.83c-.13-.28-.41-.52-.7-.69-.3-.68-.81-1.25-1.42-1.7-1.43-1.05-3.66-1-5.09.01-1.04.74-1.72,1.76-1.81,3.06-.06.93.29,1.93.83,2.68.73,1,1.65,1.71,2.8,2.15.91.35,2.06.41,2.98.07.99-.36,1.9-1.06,2.37-2.02.28-.59.45-1.12.47-1.78.03-.64-.17-1.21-.44-1.78Z" fill="#fff" stroke-width="0"></path><path d="M322.18,230.13c-.61,0-1.24-.11-1.81-.33-1.24-.48-2.23-1.24-3.02-2.33-.65-.89-.99-2.01-.93-3.01.09-1.38.79-2.56,2.02-3.43,1.65-1.17,4.09-1.17,5.67,0,.68.5,1.19,1.09,1.52,1.76.27.18.58.45.76.82t0,0c.24.51.52,1.19.48,2.01-.03.69-.18,1.28-.52,1.98-.49,1-1.45,1.83-2.64,2.27-.46.17-.99.26-1.52.26ZM321.3,221.16c-.82,0-1.64.23-2.29.69-.99.7-1.52,1.6-1.6,2.68-.05.75.23,1.66.74,2.35.67.92,1.52,1.57,2.57,1.98.85.33,1.86.35,2.63.07.95-.35,1.71-1,2.09-1.77.28-.58.4-1.03.42-1.58.02-.47-.1-.93-.39-1.54h0c-.07-.16-.26-.33-.51-.48-.09-.05-.16-.13-.2-.23-.25-.57-.68-1.08-1.26-1.5-.61-.45-1.41-.67-2.21-.67Z" fill="#732a09" stroke-width="0"></path><path d="M186.01,198.37c-.39-1.38-1.62-2.53-3.04-2.81-.72-.14-1.45-.17-2.16.05-.67.21-1.3.58-1.79,1.08-.85.87-1.41,2.16-1.28,3.38.04.34.07.7.2,1.02.21.55.39.85.75,1.31.32.4.76.74,1.23.95.63.29,1.24.47,1.95.48.69,0,1.36-.18,1.97-.5.44-.24.81-.58,1.11-.98.03-.03.07-.06.1-.1.46-.53.83-1.13.98-1.83.15-.68.17-1.38-.02-2.06Z" fill="#fff" stroke-width="0"></path><path d="M181.88,204.34h-.02c-.71,0-1.37-.16-2.15-.52-.54-.25-1.05-.63-1.41-1.09-.41-.51-.6-.85-.83-1.44-.15-.39-.19-.8-.23-1.15-.13-1.3.41-2.75,1.42-3.78.54-.55,1.23-.97,2-1.21.71-.22,1.49-.24,2.4-.07,1.61.31,2.99,1.58,3.43,3.16.2.71.21,1.49.02,2.3-.16.7-.52,1.37-1.09,2.04-.01.01-.08.09-.1.1-.34.45-.77.83-1.26,1.09-.68.37-1.44.56-2.19.56ZM181.92,195.96c-.35,0-.67.05-.97.14-.61.19-1.16.52-1.58.95-.8.81-1.24,1.98-1.14,2.98.03.31.06.63.17.9.19.49.33.74.68,1.17.27.33.65.63,1.05.81.66.3,1.18.43,1.74.43.56,0,1.19-.15,1.73-.44.36-.19.68-.48.95-.84.02-.02.08-.09.1-.11.49-.56.77-1.09.89-1.63.15-.65.14-1.26-.01-1.81h0c-.34-1.21-1.43-2.21-2.65-2.45-.34-.07-.65-.1-.95-.1Z" fill="#732a09" stroke-width="0"></path><path d="M313.92,146.06c-.08-.59-.25-1.1-.48-1.65-.18-.42-.36-.84-.62-1.21-.63-.92-1.53-1.76-2.67-1.96-.63-.11-1.28-.14-1.89.08-.75.28-1.35.73-1.78,1.43-.54.86-.66,2-.73,2.98,0,.02,0,.04,0,.06-.1.75,0,1.53.27,2.24.08.25.18.51.3.75.62,1.29,1.96,2.05,3.34,2.14.18.04.36.06.55.07.77.02,1.45-.31,1.96-.85.08-.08.17-.15.24-.24.2-.15.39-.31.56-.5.84-.94,1.14-2.1.97-3.34Z" fill="#fff" stroke-width="0"></path><path d="M310.26,151.49s-.06,0-.09,0c-.21,0-.42-.04-.63-.08-1.58-.09-3.02-1.01-3.69-2.41-.13-.27-.23-.54-.32-.81-.29-.78-.39-1.63-.29-2.45.08-1.1.22-2.31.81-3.25.48-.76,1.14-1.3,2.03-1.63.79-.29,1.6-.21,2.15-.11,1.13.2,2.16.95,3,2.17.28.41.48.85.67,1.3.2.48.42,1.07.52,1.78h0c.19,1.43-.19,2.73-1.1,3.74-.17.19-.37.37-.6.54-.08.08-.16.16-.25.24-.6.62-1.39.98-2.22.98ZM309.27,141.66c-.32,0-.59.05-.84.14-.68.25-1.18.65-1.53,1.22-.47.75-.59,1.82-.66,2.76-.09.75,0,1.44.23,2.08.08.25.17.49.28.71.5,1.05,1.65,1.78,2.92,1.85.22.04.38.06.53.07.76.03,1.27-.37,1.58-.69.1-.09.17-.16.23-.23.02-.03.05-.05.08-.07.19-.14.35-.28.48-.43.72-.8,1-1.79.85-2.94h0c-.06-.47-.2-.93-.45-1.52-.17-.4-.34-.79-.57-1.12-.47-.69-1.27-1.56-2.34-1.75-.29-.05-.55-.08-.79-.08Z" fill="#732a09" stroke-width="0"></path><path d="M162.57,225.87c-1.03.8-2.08,1.58-3.12,2.36.3.95.6,1.9.9,2.86.14.43-.37.76-.74.56-.92-.49-1.85-.99-2.77-1.52-.81.58-1.61,1.17-2.43,1.75-.47.32-.91-.31-.65-.71-.01-.07,0-.14.03-.22.3-.73.57-1.47.81-2.22-1.23-.84-2.4-1.77-3.44-2.87-.3-.33-.08-.83.36-.85,1.34-.08,2.68-.11,4.02-.13.2-1.11.35-2.23.42-3.36.03-.52.64-.65.93-.25.76,1.06,1.15,2.35,1.52,3.62,1.27.02,2.54.05,3.81.13.38.02.72.56.35.85Z" fill="#fff" stroke-width="0"></path><path d="M154.15,232.46c-.23,0-.46-.09-.64-.27-.31-.31-.4-.76-.24-1.14,0-.09.03-.18.06-.28.25-.61.48-1.23.69-1.84-1.27-.89-2.32-1.79-3.21-2.72-.27-.3-.35-.71-.2-1.07.15-.37.5-.6.9-.62,1.16-.07,2.3-.1,3.62-.12.17-1.03.29-1.98.34-2.9.02-.43.3-.79.71-.91.42-.12.86.03,1.13.4.75,1.05,1.17,2.33,1.49,3.42,1.26.02,2.35.05,3.46.12.42.02.8.33.93.75.12.37,0,.75-.31.99,0,0,0,0,0,0-.87.67-1.75,1.33-2.62,1.99l-.22.16.79,2.52c.12.37,0,.77-.3,1.02-.33.27-.79.32-1.15.13-.83-.44-1.67-.89-2.5-1.37l-.74.54c-.47.34-.95.69-1.43,1.03-.17.12-.37.18-.55.18ZM156.48,221.56c-.09,1.06-.23,2.18-.45,3.41-.04.24-.25.41-.48.41-1.48.02-2.73.05-4,.13.88.97,1.98,1.88,3.33,2.81.18.12.26.35.19.57-.24.76-.52,1.52-.82,2.26.02.12,0,.2-.07.3.42-.31.89-.65,1.36-.99l1.01-.73c.16-.12.37-.12.54-.03.92.53,1.84,1.03,2.76,1.51l-.87-2.83c-.06-.2,0-.42.18-.55l.5-.38c.83-.62,1.67-1.25,2.5-1.89-1.21-.12-2.37-.15-3.75-.17-.22,0-.41-.15-.47-.36-.33-1.15-.71-2.44-1.45-3.47ZM162.57,225.87h0,0Z" fill="#732a09" stroke-width="0"></path><path d="M339.09,170.77c-1.03.8-2.08,1.58-3.12,2.36.3.95.6,1.9.9,2.86.14.43-.37.76-.74.56-.92-.49-1.85-.99-2.77-1.52-.81.58-1.61,1.17-2.43,1.75-.47.32-.91-.31-.65-.71-.01-.07,0-.14.03-.22.3-.73.57-1.47.81-2.22-1.23-.84-2.4-1.77-3.44-2.87-.3-.33-.08-.83.36-.85,1.34-.08,2.68-.11,4.02-.13.2-1.11.35-2.23.42-3.36.03-.52.64-.65.93-.25.76,1.06,1.15,2.35,1.52,3.62,1.27.02,2.54.05,3.81.13.38.02.72.56.35.85Z" fill="#fff" stroke-width="0"></path><path d="M330.66,177.37c-.23,0-.46-.09-.64-.27-.31-.31-.4-.76-.24-1.14,0-.09.03-.18.06-.28.25-.61.48-1.23.69-1.85-1.27-.89-2.32-1.79-3.21-2.72-.27-.3-.35-.71-.2-1.07.15-.37.5-.6.9-.62,1.16-.07,2.3-.1,3.62-.12.17-1.03.29-1.98.34-2.9.02-.43.3-.79.71-.91.42-.12.86.03,1.13.4.75,1.05,1.16,2.29,1.49,3.42,1.26.02,2.35.05,3.46.12.42.02.8.33.93.75.12.37,0,.75-.31.99,0,0,0,0,0,0-.87.68-1.76,1.34-2.64,2l-.2.15.79,2.52c.12.37,0,.77-.3,1.02-.32.27-.79.32-1.15.13-.83-.44-1.67-.89-2.5-1.37l-.73.53c-.48.35-.95.69-1.44,1.03-.17.12-.37.18-.55.18ZM333,166.46c-.09,1.07-.23,2.18-.45,3.41-.04.24-.25.41-.48.41-1.48.02-2.73.05-4,.13.88.97,1.98,1.89,3.33,2.81.18.12.26.35.19.57-.24.76-.52,1.52-.82,2.26.02.12,0,.2-.07.3.42-.31.9-.66,1.37-1l1-.72c.16-.12.37-.12.54-.03.92.53,1.84,1.03,2.76,1.51l-.87-2.83c-.06-.2,0-.42.18-.55l.49-.37c.84-.63,1.68-1.26,2.51-1.9-1.21-.12-2.37-.15-3.75-.17-.22,0-.41-.15-.47-.36-.33-1.15-.71-2.45-1.45-3.47ZM339.09,170.77h0,0Z" fill="#732a09" stroke-width="0"></path><circle cx="151.02" cy="146.07" r="16.71" fill="#fff" stroke-width="0"></circle><path d="M151.02,163.28c-9.49,0-17.21-7.72-17.21-17.21s7.72-17.21,17.21-17.21,17.21,7.72,17.21,17.21-7.72,17.21-17.21,17.21ZM151.02,129.87c-8.94,0-16.21,7.27-16.21,16.21s7.27,16.21,16.21,16.21,16.21-7.27,16.21-16.21-7.27-16.21-16.21-16.21Z" fill="#732a09" stroke-width="0"></path><circle cx="147.56" cy="139.69" r="3.41" fill="#fff" stroke-width="0"></circle><path d="M147.56,143.6c-2.15,0-3.91-1.75-3.91-3.91s1.75-3.91,3.91-3.91,3.91,1.75,3.91,3.91-1.75,3.91-3.91,3.91ZM147.56,136.79c-1.6,0-2.91,1.3-2.91,2.91s1.3,2.91,2.91,2.91,2.91-1.3,2.91-2.91-1.3-2.91-2.91-2.91Z" fill="#732a09" stroke-width="0"></path><circle cx="158.93" cy="148.51" r="3.41" fill="#fff" stroke-width="0"></circle><path d="M158.93,152.42c-2.15,0-3.91-1.75-3.91-3.91s1.75-3.91,3.91-3.91,3.91,1.75,3.91,3.91-1.75,3.91-3.91,3.91ZM158.93,145.61c-1.6,0-2.91,1.3-2.91,2.91s1.3,2.91,2.91,2.91,2.91-1.3,2.91-2.91-1.3-2.91-2.91-2.91Z" fill="#732a09" stroke-width="0"></path></svg>