<svg transform="scale(1)" version="1.1" id="_x30_256_x5F_HTML" xmlns="http://www.w3.org/2000/svg" xmlns:xlink="http://www.w3.org/1999/xlink" x="0px" y="0px" viewBox="0 0 500 500" xml:space="preserve" class="show_show__wrapper__graphic__5Waiy "><title>React</title><style type="text/css">
	.st0{fill:#732A09;}
	.st1{fill:#FFFFFF;}
	.st2{fill:#F75454;}
</style><g id="monitor"><path class="st0" d="M309.2,406.4h-65.6c7.4,0,14.5-2.9,19.8-8.1l17-16.7c1.8-1.8,2.6-4.5,2-7l-5.3-23.7h9c0,0,4.5,28.8,7.3,33.2
		s14.2,6.5,15.8,8.9S309.2,406.4,309.2,406.4z"></path><path class="st0" d="M309.2,406.9h-65.6c-0.3,0-0.5-0.2-0.5-0.5s0.2-0.5,0.5-0.5c7.3,0,14.2-2.9,19.4-8l17-16.7
		c1.7-1.7,2.4-4.2,1.9-6.5l-5.3-23.7c0-0.2,0-0.3,0.1-0.4c0.1-0.1,0.2-0.2,0.4-0.2h9c0.2,0,0.5,0.2,0.5,0.4c0,0.3,4.5,28.7,7.2,33
		c1.6,2.4,6,4.2,9.7,5.6c3,1.2,5.4,2.1,6.1,3.3c1.7,2.5,0.2,12.5,0.1,13.7C309.7,406.7,309.5,406.9,309.2,406.9z M251.2,405.9h57.6
		c0.5-3.3,1.2-10.8,0-12.6c-0.6-0.9-3-1.9-5.6-2.9c-3.9-1.5-8.4-3.3-10.1-6c-2.7-4.2-6.7-29.3-7.3-33h-8l5.1,23.1
		c0.6,2.7-0.2,5.5-2.2,7.4l-17,16.7C260.2,402.1,255.9,404.6,251.2,405.9L251.2,405.9z"></path><path class="st1" d="M280.4,381.6l-17,16.7c-5.3,5.2-12.4,8.1-19.8,8.1h-60.9c-1.3,0-2.3-1.1-2.2-2.3c0-0.8,0.5-1.6,1.2-2
		c10.1-5,24.5-13.9,25.6-23.4c1.6-14.7-8.1-27.7-8.1-27.7h77.9l5.3,23.7C283,377.1,282.2,379.8,280.4,381.6z"></path><path class="st0" d="M243.7,406.9h-60.9c-1.5,0-2.8-1.3-2.8-2.8c0-1,0.6-2,1.5-2.5c9-4.5,24.3-13.5,25.3-23
		c1.6-14.4-7.9-27.2-8-27.4c-0.1-0.2-0.1-0.4-0.1-0.5c0.1-0.2,0.3-0.3,0.4-0.3h77.9c0.2,0,0.4,0.2,0.5,0.4l5.3,23.7
		c0.6,2.7-0.2,5.5-2.2,7.4l0,0l-17,16.7C258.4,403.9,251.2,406.9,243.7,406.9z M200.2,351.4c2.1,3.1,9,14.6,7.6,27.3
		c-1,9.5-14.6,18.2-25.9,23.8c-0.9,0.4-1.2,1.5-0.8,2.4c0.3,0.6,0.9,1,1.6,1h60.9c7.3,0,14.2-2.9,19.4-8l17-16.7
		c1.7-1.7,2.4-4.2,1.9-6.5l-5.2-23.3L200.2,351.4z M280.4,381.6L280.4,381.6z"></path><path class="st1" d="M84.2,113.6h342.1c3.5,0,6.3,2.8,6.3,6.3v224.8c0,3.5-2.8,6.3-6.3,6.3H84.2c-3.5,0-6.3-2.8-6.3-6.3V119.8
		C77.9,116.4,80.7,113.6,84.2,113.6z"></path><path class="st0" d="M426.3,351.4H84.2c-3.7,0-6.8-3-6.8-6.8V119.8c0-3.7,3-6.8,6.8-6.8h342.1c3.7,0,6.8,3,6.8,6.8v224.8
		C433,348.4,430,351.4,426.3,351.4z M84.2,114.1c-3.2,0-5.8,2.6-5.8,5.8v224.8c0,3.2,2.6,5.8,5.8,5.8h342.1c3.2,0,5.8-2.6,5.8-5.8
		V119.8c0-3.2-2.6-5.8-5.8-5.8H84.2z"></path><rect class="st2" x="95.3" y="128.7" width="319.9" height="207"></rect><path class="st0" d="M415.1,336.2H95.3c-0.3,0-0.5-0.2-0.5-0.5v-207c0-0.3,0.2-0.5,0.5-0.5h319.9c0.3,0,0.5,0.2,0.5,0.5v207
		C415.6,336,415.4,336.2,415.1,336.2z M95.8,335.2h318.9v-206H95.8L95.8,335.2z"></path></g><g id="script-3"><path class="st2" d="M143.4,293.8v11.5H35.3v-11.5c0-1.9,1.6-3.5,3.5-3.5c0,0,0,0,0,0h101.1C141.9,290.3,143.4,291.8,143.4,293.8
		C143.4,293.8,143.4,293.8,143.4,293.8z"></path><path class="st0" d="M143.4,305.8H35.3c-0.3,0-0.5-0.2-0.5-0.5v-11.5c0-2.2,1.8-4,4-4h101.1c2.2,0,4,1.8,4,4v11.5
		C143.9,305.5,143.7,305.8,143.4,305.8C143.4,305.8,143.4,305.8,143.4,305.8z M35.8,304.8h107.1v-11c0-1.7-1.3-3-3-3H38.8
		c-1.7,0-3,1.3-3,3L35.8,304.8z"></path><path class="st1" d="M143.4,305.3v72.4c0,1.9-1.6,3.5-3.5,3.5H38.8c-1.9,0-3.5-1.6-3.5-3.5c0,0,0,0,0,0v-72.4H143.4z"></path><path class="st0" d="M139.9,381.7H38.8c-2.2,0-4-1.8-4-4v-72.4c0-0.3,0.2-0.5,0.5-0.5h108.1c0.3,0,0.5,0.2,0.5,0.5v72.4
		C143.9,379.9,142.1,381.7,139.9,381.7z M35.8,305.8v72c0,1.7,1.3,3,3,3h101.1c1.7,0,3-1.3,3-3v-72H35.8z"></path><circle class="st1" cx="44.8" cy="298.3" r="2.1"></circle><path class="st0" d="M44.8,300.9c-1.5,0-2.6-1.2-2.6-2.6c0-1.5,1.2-2.6,2.6-2.6c1.5,0,2.6,1.2,2.6,2.6c0,0,0,0,0,0
		C47.4,299.7,46.2,300.9,44.8,300.9z M44.8,296.7c-0.9,0-1.6,0.7-1.6,1.6c0,0.9,0.7,1.6,1.6,1.6c0.9,0,1.6-0.7,1.6-1.6
		C46.4,297.4,45.7,296.7,44.8,296.7C44.8,296.7,44.8,296.7,44.8,296.7z"></path><circle class="st1" cx="53.2" cy="298.3" r="2.1"></circle><path class="st0" d="M53.2,300.9c-1.5,0-2.6-1.2-2.6-2.6c0-1.5,1.2-2.6,2.6-2.6c1.5,0,2.6,1.2,2.6,2.6c0,0,0,0,0,0
		C55.8,299.7,54.6,300.9,53.2,300.9C53.2,300.9,53.2,300.9,53.2,300.9z M53.2,296.7c-0.9,0-1.6,0.7-1.6,1.6c0,0.9,0.7,1.6,1.6,1.6
		c0.9,0,1.6-0.7,1.6-1.6C54.8,297.4,54.1,296.7,53.2,296.7C53.2,296.7,53.2,296.7,53.2,296.7z"></path><circle class="st1" cx="61.5" cy="298.3" r="2.1"></circle><path class="st0" d="M61.5,300.9c-1.5,0-2.6-1.2-2.6-2.6c0-1.5,1.2-2.6,2.6-2.6c1.5,0,2.6,1.2,2.6,2.6c0,0,0,0,0,0
		C64.2,299.7,63,300.9,61.5,300.9z M61.5,296.7c-0.9,0-1.6,0.7-1.6,1.6c0,0.9,0.7,1.6,1.6,1.6c0.9,0,1.6-0.7,1.6-1.6
		C63.2,297.4,62.4,296.7,61.5,296.7C61.5,296.7,61.5,296.7,61.5,296.7z"></path><path class="st0" d="M65.7,321.2H46.6c-0.3,0-0.5-0.2-0.5-0.5s0.2-0.5,0.5-0.5h19.2c0.3,0,0.5,0.2,0.5,0.5S66,321.2,65.7,321.2z"></path><path class="st0" d="M89.4,332.5H46.6c-0.3,0-0.5-0.2-0.5-0.5s0.2-0.5,0.5-0.5h42.8c0.3,0,0.5,0.2,0.5,0.5S89.6,332.5,89.4,332.5z"></path><path class="st0" d="M89.4,343.7H46.6c-0.3,0-0.5-0.2-0.5-0.5s0.2-0.5,0.5-0.5h42.8c0.3,0,0.5,0.2,0.5,0.5S89.6,343.7,89.4,343.7z"></path><path class="st0" d="M89.4,355H46.6c-0.3,0-0.5-0.2-0.5-0.5s0.2-0.5,0.5-0.5h42.8c0.3,0,0.5,0.2,0.5,0.5S89.6,355,89.4,355z"></path><path class="st0" d="M89.4,366.3H46.6c-0.3,0-0.5-0.2-0.5-0.5s0.2-0.5,0.5-0.5h42.8c0.3,0,0.5,0.2,0.5,0.5S89.6,366.3,89.4,366.3z"></path><path class="st2" d="M104.3,321.2h-31c-0.3,0-0.5-0.2-0.5-0.5s0.2-0.5,0.5-0.5h31c0.3,0,0.5,0.2,0.5,0.5
		C104.8,321,104.6,321.2,104.3,321.2C104.3,321.2,104.3,321.2,104.3,321.2z"></path><path class="st0" d="M116.1,332.5H94.7c-0.3,0-0.5-0.2-0.5-0.5s0.2-0.5,0.5-0.5h21.4c0.3,0,0.5,0.2,0.5,0.5
		S116.3,332.5,116.1,332.5z"></path><path class="st0" d="M116.1,343.7H94.7c-0.3,0-0.5-0.2-0.5-0.5s0.2-0.5,0.5-0.5h21.4c0.3,0,0.5,0.2,0.5,0.5
		S116.3,343.7,116.1,343.7z"></path><path class="st0" d="M116.1,355H94.7c-0.3,0-0.5-0.2-0.5-0.5s0.2-0.5,0.5-0.5h21.4c0.3,0,0.5,0.2,0.5,0.5S116.3,355,116.1,355z"></path><path class="st0" d="M116.1,366.3H94.7c-0.3,0-0.5-0.2-0.5-0.5s0.2-0.5,0.5-0.5h21.4c0.3,0,0.5,0.2,0.5,0.5
		S116.3,366.3,116.1,366.3z"></path></g><g id="script-2"><path class="st2" d="M141.6,82.3v9.6H51.3v-9.6c0-1.6,1.3-2.9,2.9-2.9c0,0,0,0,0,0h84.5C140.3,79.4,141.6,80.7,141.6,82.3
		C141.6,82.3,141.6,82.3,141.6,82.3z"></path><path class="st0" d="M141.6,92.4H51.3c-0.3,0-0.5-0.2-0.5-0.5v-9.6c0-1.9,1.5-3.4,3.4-3.4h84.5c1.9,0,3.4,1.5,3.4,3.4c0,0,0,0,0,0
		v9.6C142.1,92.2,141.9,92.4,141.6,92.4z M51.8,91.4h89.3v-9.1c0-1.3-1.1-2.4-2.4-2.4H54.2c-1.3,0-2.4,1.1-2.4,2.4L51.8,91.4z"></path><path class="st1" d="M141.6,91.9v60.5c0,1.6-1.3,2.9-2.9,2.9c0,0,0,0,0,0H54.2c-1.6,0-2.9-1.3-2.9-2.9l0,0V91.9H141.6z"></path><path class="st0" d="M138.7,155.8H54.2c-1.9,0-3.4-1.5-3.4-3.4l0,0V91.9c0-0.3,0.2-0.5,0.5-0.5h90.3c0.3,0,0.5,0.2,0.5,0.5v60.5
		C142.1,154.3,140.6,155.8,138.7,155.8z M51.8,92.4v60c0,1.3,1.1,2.4,2.4,2.4h0h84.5c1.3,0,2.4-1.1,2.4-2.4v-60L51.8,92.4z"></path><circle class="st1" cx="59.2" cy="86.1" r="1.8"></circle><path class="st0" d="M59.2,88.3c-1.3,0-2.3-1-2.3-2.3c0-1.3,1-2.3,2.3-2.3s2.3,1,2.3,2.3l0,0C61.5,87.3,60.5,88.3,59.2,88.3z
		 M59.2,84.8c-0.7,0-1.3,0.6-1.3,1.3c0,0.7,0.6,1.3,1.3,1.3c0.7,0,1.3-0.6,1.3-1.3c0,0,0,0,0,0C60.5,85.3,59.9,84.8,59.2,84.8
		C59.2,84.8,59.2,84.8,59.2,84.8z"></path><circle class="st1" cx="66.2" cy="86.1" r="1.8"></circle><path class="st0" d="M66.2,88.3c-1.3,0-2.3-1-2.3-2.3c0-1.3,1-2.3,2.3-2.3s2.3,1,2.3,2.3l0,0C68.5,87.3,67.5,88.3,66.2,88.3z
		 M66.2,84.8c-0.7,0-1.3,0.6-1.3,1.3s0.6,1.3,1.3,1.3c0.7,0,1.3-0.6,1.3-1.3c0,0,0,0,0,0C67.5,85.3,66.9,84.8,66.2,84.8
		C66.2,84.8,66.2,84.8,66.2,84.8z"></path><circle class="st1" cx="73.2" cy="86.1" r="1.8"></circle><path class="st0" d="M73.2,88.3c-1.3,0-2.3-1-2.3-2.3s1-2.3,2.3-2.3s2.3,1,2.3,2.3l0,0C75.5,87.3,74.5,88.3,73.2,88.3z M73.2,84.8
		c-0.7,0-1.3,0.6-1.3,1.3s0.6,1.3,1.3,1.3c0.7,0,1.3-0.6,1.3-1.3c0,0,0,0,0,0C74.5,85.3,73.9,84.8,73.2,84.8
		C73.2,84.8,73.2,84.8,73.2,84.8z"></path><path class="st0" d="M76.7,105.3h-16c-0.3,0-0.5-0.2-0.5-0.5c0-0.3,0.2-0.5,0.5-0.5h16c0.3,0,0.5,0.2,0.5,0.5
		C77.2,105,77,105.3,76.7,105.3z"></path><path class="st0" d="M96.5,114.7H60.7c-0.3,0-0.5-0.2-0.5-0.5c0-0.3,0.2-0.5,0.5-0.5h35.7c0.3,0,0.5,0.2,0.5,0.5
		S96.7,114.7,96.5,114.7z"></path><path class="st0" d="M96.5,124.1H60.7c-0.3,0-0.5-0.2-0.5-0.5c0-0.3,0.2-0.5,0.5-0.5h35.7c0.3,0,0.5,0.2,0.5,0.5
		S96.7,124.1,96.5,124.1z"></path><path class="st0" d="M96.5,133.5H60.7c-0.3,0-0.5-0.2-0.5-0.5c0-0.3,0.2-0.5,0.5-0.5h35.7c0.3,0,0.5,0.2,0.5,0.5
		S96.7,133.5,96.5,133.5z"></path><path class="st0" d="M96.5,142.9H60.7c-0.3,0-0.5-0.2-0.5-0.5s0.2-0.5,0.5-0.5h35.7c0.3,0,0.5,0.2,0.5,0.5S96.7,142.9,96.5,142.9z"></path><path class="st2" d="M108.9,105.3H83.1c-0.3,0-0.5-0.2-0.5-0.5c0-0.3,0.2-0.5,0.5-0.5h25.8c0.3,0,0.5,0.2,0.5,0.5
		S109.2,105.3,108.9,105.3z"></path><path class="st0" d="M118.8,114.7h-17.9c-0.3,0-0.5-0.2-0.5-0.5c0-0.3,0.2-0.5,0.5-0.5h17.9c0.3,0,0.5,0.2,0.5,0.5
		C119.3,114.5,119,114.7,118.8,114.7z"></path><path class="st0" d="M118.8,124.1h-17.9c-0.3,0-0.5-0.2-0.5-0.5c0-0.3,0.2-0.5,0.5-0.5h17.9c0.3,0,0.5,0.2,0.5,0.5
		C119.3,123.9,119,124.1,118.8,124.1z"></path><path class="st0" d="M118.8,133.5h-17.9c-0.3,0-0.5-0.2-0.5-0.5c0-0.3,0.2-0.5,0.5-0.5h17.9c0.3,0,0.5,0.2,0.5,0.5
		C119.3,133.3,119,133.5,118.8,133.5z"></path><path class="st0" d="M118.8,142.9h-17.9c-0.3,0-0.5-0.2-0.5-0.5s0.2-0.5,0.5-0.5h17.9c0.3,0,0.5,0.2,0.5,0.5S119,142.9,118.8,142.9
		z"></path></g><g id="html"><path class="st1" d="M144.1,225.6l23-12.9v6.2l-17.5,9.5l17.5,9.6v6.3l-23-12.9L144.1,225.6z"></path><path class="st1" d="M184.1,195.1h7.1v21.5h9.8v-21.5h7.1v53.2H201v-25.2h-9.8v25.2h-7.1L184.1,195.1z"></path><path class="st1" d="M230.2,201.7h-8.6v-6.6h24.3v6.6h-8.6v46.6h-7.1V201.7z"></path><path class="st1" d="M285.8,227.5c0-9.4,0.1-20.3,0.3-26.2H286c-1.3,9.1-4.7,31.5-7.2,47.1H272c-1.9-13.8-5.4-37.5-6.6-47.1h-0.2
		c0.2,6.2,0.4,18.2,0.4,27.4v19.7h-6.5v-53.2h10.6c2.4,14.5,5.1,31.5,5.9,38.6h0.1c0.9-7.2,4.2-25,6.7-38.6h10.3v53.2h-6.8
		L285.8,227.5z"></path><path class="st1" d="M309.7,195.1h7.1V242h13.4l-0.7,6.4h-19.9V195.1z"></path><path class="st1" d="M366.3,231.3l-23,12.9v-6.2l17.5-9.5l-17.5-9.6v-6.3l23,12.9V231.3z"></path><path class="st1" d="M144.1,225.6l23-12.9v6.2l-17.5,9.5l17.5,9.6v6.3l-23-12.9L144.1,225.6z"></path><path class="st1" d="M184.1,195.1h7.1v21.5h9.8v-21.5h7.1v53.2H201v-25.2h-9.8v25.2h-7.1L184.1,195.1z"></path><path class="st1" d="M230.2,201.7h-8.6v-6.6h24.3v6.6h-8.6v46.6h-7.1V201.7z"></path><path class="st1" d="M285.8,227.5c0-9.4,0.1-20.3,0.3-26.2H286c-1.3,9.1-4.7,31.5-7.2,47.1H272c-1.9-13.8-5.4-37.5-6.6-47.1h-0.2
		c0.2,6.2,0.4,18.2,0.4,27.4v19.7h-6.5v-53.2h10.6c2.4,14.5,5.1,31.5,5.9,38.6h0.1c0.9-7.2,4.2-25,6.7-38.6h10.3v53.2h-6.8
		L285.8,227.5z"></path><path class="st1" d="M309.7,195.1h7.1V242h13.4l-0.7,6.4h-19.9V195.1z"></path><path class="st1" d="M366.3,231.3l-23,12.9v-6.2l17.5-9.5l-17.5-9.6v-6.3l23,12.9V231.3z"></path></g><g id="script"><path class="st1" d="M356.5,73.8H477c1.7,0,3.1,1.4,3.1,3.1v80.9c0,1.7-1.4,3.1-3.1,3.1H356.5c-1.7,0-3.1-1.4-3.1-3.1V76.9
		C353.4,75.2,354.8,73.8,356.5,73.8z"></path><path class="st0" d="M477,161.3H356.5c-2,0-3.6-1.6-3.6-3.6V76.9c0-2,1.6-3.6,3.6-3.6H477c2,0,3.6,1.6,3.6,3.6v80.9
		C480.6,159.7,479,161.3,477,161.3z M356.5,74.3c-1.4,0-2.6,1.2-2.6,2.6v80.9c0,1.4,1.2,2.6,2.6,2.6H477c1.4,0,2.6-1.2,2.6-2.6V76.9
		c0-1.4-1.2-2.6-2.6-2.6l0,0H356.5z"></path><path class="st0" d="M480.1,93.1H353.4c-0.3,0-0.5-0.2-0.5-0.5s0.2-0.5,0.5-0.5h126.7c0.3,0,0.5,0.2,0.5,0.5
		C480.6,92.9,480.3,93.1,480.1,93.1z"></path><path class="st2" d="M378.6,123.1l23.7-13.3v6.4l-18,9.8l18,9.9v6.5l-23.7-13.3V123.1z"></path><path class="st0" d="M402.3,142.9c-0.1,0-0.2,0-0.2-0.1l-23.7-13.3c-0.2-0.1-0.3-0.3-0.3-0.4v-6c0-0.2,0.1-0.3,0.3-0.4l23.7-13.3
		c0.2-0.1,0.3-0.1,0.5,0c0.2,0.1,0.3,0.3,0.2,0.4v6.4c0,0.2-0.1,0.4-0.3,0.4l-17.2,9.3l17.2,9.4c0.2,0.1,0.3,0.3,0.3,0.4v6.5
		c0,0.2-0.1,0.3-0.2,0.4C402.5,142.8,402.4,142.9,402.3,142.9z M379.1,128.8l22.7,12.7v-5.3l-17.8-9.8c-0.2-0.1-0.3-0.3-0.3-0.4
		c0-0.2,0.1-0.4,0.3-0.4l17.8-9.6v-5.3l-22.7,12.7V128.8z"></path><path class="st2" d="M409.3,104.9h5.7l9.1,42.4h-5.7L409.3,104.9z"></path><path class="st0" d="M424.1,147.8h-5.7c-0.2,0-0.4-0.2-0.5-0.4l-9.1-42.4c0-0.1,0-0.3,0.1-0.4c0.1-0.1,0.2-0.2,0.4-0.2h5.7
		c0.2,0,0.4,0.2,0.5,0.4l9.1,42.4c0,0.1,0,0.3-0.1,0.4C424.4,147.7,424.3,147.8,424.1,147.8z M418.8,146.8h4.7l-8.9-41.4h-4.6
		L418.8,146.8z"></path><path class="st2" d="M454.8,129l-23.7,13.3v-6.4l18-9.8l-18-9.9v-6.5l23.7,13.3V129z"></path><path class="st0" d="M431.1,142.8c-0.1,0-0.2,0-0.2-0.1c-0.2-0.1-0.2-0.3-0.2-0.4v-6.4c0-0.2,0.1-0.4,0.3-0.4l17.2-9.3l-17.2-9.4
		c-0.2-0.1-0.3-0.3-0.3-0.4v-6.5c0-0.2,0.1-0.3,0.2-0.4c0.2-0.1,0.3-0.1,0.5,0l23.7,13.3c0.2,0.1,0.3,0.3,0.3,0.4v6
		c0,0.2-0.1,0.3-0.3,0.4l-23.7,13.3C431.3,142.7,431.2,142.8,431.1,142.8z M431.6,136.2v5.3l22.7-12.7v-5.4l-22.7-12.7v5.3l17.8,9.8
		c0.2,0.1,0.3,0.3,0.3,0.4c0,0.2-0.1,0.4-0.3,0.4L431.6,136.2z M454.8,129L454.8,129z"></path></g></svg>