<svg transform="scale(1)" version="1.1" id="_x30_349_x5F_Like" xmlns="http://www.w3.org/2000/svg" xmlns:xlink="http://www.w3.org/1999/xlink" x="0px" y="0px" viewBox="0 0 500 500" xml:space="preserve" class="show_show__wrapper__graphic__5Waiy "><title>React</title><style type="text/css">
	.st0{fill:#FFFFFF;}
	.st1{fill:#732A09;}
	.st2{fill:#F75454;}
	.st3{fill:none;stroke:#732A09;stroke-linecap:round;stroke-linejoin:round;}
	.st4{fill:none;}
</style><g id="thumbs-up-icon"><path class="st0" d="M240.7,434.8c-0.1,0-0.1,0-0.2,0c-0.2-0.1-0.3-0.3-0.3-0.5v-26H112.4c-12.1,0-22-9.9-22-22V261.9
		c0-12.1,9.9-22,22-22h285.3c12.2,0,22,9.8,22,22v124.3c0,12.2-9.8,22-22,22H272.5L241,434.7C240.9,434.7,240.8,434.8,240.7,434.8z"></path><path class="st0" d="M240.7,434.8c-0.1,0-0.1,0-0.2,0c-0.2-0.1-0.3-0.3-0.3-0.5v-26H112.4c-12.1,0-22-9.9-22-22V261.9
		c0-12.1,9.9-22,22-22h285.3c12.2,0,22,9.8,22,22v124.3c0,12.2-9.8,22-22,22H272.5L241,434.7C240.9,434.7,240.8,434.8,240.7,434.8z
		 M112.4,240.9c-11.6,0-21,9.4-21,21v124.3c0,11.6,9.4,21,21,21h128.2c0.3,0,0.5,0.2,0.5,0.5v25.5l30.8-25.8
		c0.1-0.1,0.2-0.1,0.3-0.1h125.4c11.6,0,21-9.4,21-21l0,0V261.9c0-11.6-9.4-21-21-21L112.4,240.9z"></path><g id="like_icon-2"><path class="st0" d="M195.5,301.4h23.8c1.5,0,2.8,1.2,2.8,2.8v59.8c0,1.5-1.2,2.8-2.8,2.8h-23.8c-1.5,0-2.8-1.2-2.8-2.8v-59.8
			C192.7,302.6,194,301.4,195.5,301.4z"></path><path class="st0" d="M219.2,367.2h-23.8c-1.8,0-3.2-1.5-3.2-3.2v-59.8c0-1.8,1.5-3.2,3.2-3.2h23.8c1.8,0,3.2,1.5,3.2,3.2V364
			C222.5,365.8,221,367.2,219.2,367.2z M195.5,301.9c-1.2,0-2.2,1-2.2,2.2l0,0V364c0,1.2,1,2.2,2.2,2.2l0,0h23.8
			c1.2,0,2.2-1,2.2-2.2l0,0v-59.9c0-1.2-1-2.2-2.2-2.2l0,0L195.5,301.9z"></path><path class="st0" d="M226.4,307.3h22.1c1.3,0,2.6-0.6,3.4-1.7c4-5.3,7-11.3,9.1-17.6c4-12,5-15.7,11.1-16c4.8-0.2,6.6,20.1,7.2,29
			c0.1,2.3,2,4.1,4.3,4.1h10.4c5.1,0,9.2,4.1,9.2,9.1c0,0.3,0,0.6,0,0.9c-0.3,2.7-1.4,5.3-3.2,7.4c-0.9,1-1.2,2.4-0.8,3.6
			c0.8,3.3,1.6,9.5-2.2,13.6c-0.9,0.9-1.2,2.2-1,3.5c0.5,2.8,0.9,7.6-1.2,10.6c-0.8,1.1-1.1,2.5-0.8,3.8c0.8,3,1.6,8.3-2.1,10
			c-4.1,1.9-29.7,0.9-42,0.3c-4.1-0.2-8.2-1.2-12-2.9c-4-1.9-8.1-3.4-12.4-4.4c-2-0.4-3.4-2.2-3.4-4.2v-44.7
			C222,309.2,223.9,307.3,226.4,307.3C226.3,307.3,226.3,307.3,226.4,307.3z"></path><path class="st0" d="M276.8,369.3c-8.7,0-19.3-0.4-26.9-0.8c-4.2-0.2-8.4-1.2-12.2-3c-4-1.9-8.1-3.3-12.3-4.4
			c-2.2-0.5-3.9-2.4-3.8-4.7v-44.8c0-2.7,2.2-4.9,4.8-4.9h0h22.1c1.2,0,2.3-0.6,3-1.5c3.9-5.3,7-11.2,9.1-17.4l0.6-1.7
			c3.6-10.7,4.8-14.3,11-14.6h0.1c4.8,0,6.8,16,7.6,29.5c0.1,2,1.8,3.6,3.8,3.6h10.4c2.8,0,5.4,1.2,7.3,3.2c1.8,2,2.7,4.7,2.4,7.3
			c-0.3,2.8-1.5,5.5-3.4,7.7c-0.7,0.9-1,2.1-0.7,3.2c0.8,3.5,1.6,9.9-2.3,14c-0.7,0.8-1.1,2-0.9,3.1c0.5,2.7,0.9,7.8-1.2,11
			c-0.7,1-1,2.2-0.8,3.4c0.9,3.2,1.7,8.8-2.4,10.6C290.2,369,284.1,369.3,276.8,369.3z M226.4,307.8c-2.1,0-3.8,1.7-3.9,3.9v44.8
			c0,1.8,1.2,3.4,3,3.8c4.3,1.1,8.5,2.6,12.5,4.5c3.7,1.7,7.7,2.7,11.8,2.9c23.7,1.1,38.9,1,41.8-0.3c3.5-1.6,2.7-6.6,1.9-9.4
			c-0.3-1.5,0-3,0.9-4.2c2-2.9,1.5-7.6,1.1-10.2c-0.3-1.4,0.1-2.9,1.1-3.9c3.6-3.8,2.8-9.9,2-13.1c-0.4-1.4,0-3,1-4.1
			c1.8-2,2.9-4.5,3.1-7.1c0.3-2.4-0.5-4.8-2.1-6.5c-1.7-1.9-4-2.9-6.5-2.9h-10.4c-2.6,0-4.7-2-4.8-4.5c-1.1-17.6-3.6-28.6-6.6-28.6
			h-0.1c-5.5,0.3-6.6,3.5-10.1,14l-0.6,1.7c-2.1,6.4-5.2,12.3-9.2,17.7c-0.9,1.2-2.3,1.9-3.8,1.9L226.4,307.8z"></path><path class="st0" d="M298.6,324.5h-13.1c-0.3,0-0.5-0.2-0.5-0.5s0.2-0.5,0.5-0.5h13.1c0.3,0,0.5,0.2,0.5,0.5
			S298.8,324.5,298.6,324.5z"></path><path class="st0" d="M295.9,341.6h-11.2c-0.3,0-0.5-0.2-0.5-0.5s0.2-0.5,0.5-0.5h11.2c0.3,0,0.5,0.2,0.5,0.5
			S296.2,341.6,295.9,341.6z"></path><path class="st0" d="M293.8,356.2h-11.3c-0.3,0-0.5-0.2-0.5-0.5s0.2-0.5,0.5-0.5h11.3c0.3,0,0.5,0.2,0.5,0.5
			S294,356.2,293.8,356.2z"></path><path class="st0" d="M195.5,301.4h23.8c1.5,0,2.8,1.2,2.8,2.8v59.8c0,1.5-1.2,2.8-2.8,2.8h-23.8c-1.5,0-2.8-1.2-2.8-2.8v-59.8
			C192.7,302.6,194,301.4,195.5,301.4z"></path><path class="st0" d="M219.2,367.2h-23.8c-1.8,0-3.2-1.5-3.2-3.2v-59.8c0-1.8,1.5-3.2,3.2-3.2h23.8c1.8,0,3.2,1.5,3.2,3.2V364
			C222.5,365.8,221,367.2,219.2,367.2z M195.5,301.9c-1.2,0-2.2,1-2.2,2.2l0,0V364c0,1.2,1,2.2,2.2,2.2l0,0h23.8
			c1.2,0,2.2-1,2.2-2.2l0,0v-59.9c0-1.2-1-2.2-2.2-2.2l0,0L195.5,301.9z"></path><path class="st0" d="M226.4,307.3h22.1c1.3,0,2.6-0.6,3.4-1.7c4-5.3,7-11.3,9.1-17.6c4-12,5-15.7,11.1-16c4.8-0.2,6.6,20.1,7.2,29
			c0.1,2.3,2,4.1,4.3,4.1h10.4c5.1,0,9.2,4.1,9.2,9.1c0,0.3,0,0.6,0,0.9c-0.3,2.7-1.4,5.3-3.2,7.4c-0.9,1-1.2,2.4-0.8,3.6
			c0.8,3.3,1.6,9.5-2.2,13.6c-0.9,0.9-1.2,2.2-1,3.5c0.5,2.8,0.9,7.6-1.2,10.6c-0.8,1.1-1.1,2.5-0.8,3.8c0.8,3,1.6,8.3-2.1,10
			c-4.1,1.9-29.7,0.9-42,0.3c-4.1-0.2-8.2-1.2-12-2.9c-4-1.9-8.1-3.4-12.4-4.4c-2-0.4-3.4-2.2-3.4-4.2v-44.7
			C222,309.2,223.9,307.3,226.4,307.3C226.3,307.3,226.3,307.3,226.4,307.3z"></path><path class="st0" d="M276.8,369.3c-8.7,0-19.3-0.4-26.9-0.8c-4.2-0.2-8.4-1.2-12.2-3c-4-1.9-8.1-3.3-12.3-4.4
			c-2.2-0.5-3.9-2.4-3.8-4.7v-44.8c0-2.7,2.2-4.9,4.8-4.9h0h22.1c1.2,0,2.3-0.6,3-1.5c3.9-5.3,7-11.2,9.1-17.4l0.6-1.7
			c3.6-10.7,4.8-14.3,11-14.6h0.1c4.8,0,6.8,16,7.6,29.5c0.1,2,1.8,3.6,3.8,3.6h10.4c2.8,0,5.4,1.2,7.3,3.2c1.8,2,2.7,4.7,2.4,7.3
			c-0.3,2.8-1.5,5.5-3.4,7.7c-0.7,0.9-1,2.1-0.7,3.2c0.8,3.5,1.6,9.9-2.3,14c-0.7,0.8-1.1,2-0.9,3.1c0.5,2.7,0.9,7.8-1.2,11
			c-0.7,1-1,2.2-0.8,3.4c0.9,3.2,1.7,8.8-2.4,10.6C290.2,369,284.1,369.3,276.8,369.3z M226.4,307.8c-2.1,0-3.8,1.7-3.9,3.9v44.8
			c0,1.8,1.2,3.4,3,3.8c4.3,1.1,8.5,2.6,12.5,4.5c3.7,1.7,7.7,2.7,11.8,2.9c23.7,1.1,38.9,1,41.8-0.3c3.5-1.6,2.7-6.6,1.9-9.4
			c-0.3-1.5,0-3,0.9-4.2c2-2.9,1.5-7.6,1.1-10.2c-0.3-1.4,0.1-2.9,1.1-3.9c3.6-3.8,2.8-9.9,2-13.1c-0.4-1.4,0-3,1-4.1
			c1.8-2,2.9-4.5,3.1-7.1c0.3-2.4-0.5-4.8-2.1-6.5c-1.7-1.9-4-2.9-6.5-2.9h-10.4c-2.6,0-4.7-2-4.8-4.5c-1.1-17.6-3.6-28.6-6.6-28.6
			h-0.1c-5.5,0.3-6.6,3.5-10.1,14l-0.6,1.7c-2.1,6.4-5.2,12.3-9.2,17.7c-0.9,1.2-2.3,1.9-3.8,1.9L226.4,307.8z"></path><path class="st0" d="M298.6,324.5h-13.1c-0.3,0-0.5-0.2-0.5-0.5s0.2-0.5,0.5-0.5h13.1c0.3,0,0.5,0.2,0.5,0.5
			S298.8,324.5,298.6,324.5z"></path><path class="st0" d="M295.9,341.6h-11.2c-0.3,0-0.5-0.2-0.5-0.5s0.2-0.5,0.5-0.5h11.2c0.3,0,0.5,0.2,0.5,0.5
			S296.2,341.6,295.9,341.6z"></path><path class="st0" d="M293.8,356.2h-11.3c-0.3,0-0.5-0.2-0.5-0.5s0.2-0.5,0.5-0.5h11.3c0.3,0,0.5,0.2,0.5,0.5
			S294,356.2,293.8,356.2z"></path><path class="st0" d="M195.5,301.4h23.8c1.5,0,2.8,1.2,2.8,2.8v59.8c0,1.5-1.2,2.8-2.8,2.8h-23.8c-1.5,0-2.8-1.2-2.8-2.8v-59.8
			C192.7,302.6,194,301.4,195.5,301.4z"></path><path class="st0" d="M219.2,367.2h-23.8c-1.8,0-3.2-1.5-3.2-3.2v-59.8c0-1.8,1.5-3.2,3.2-3.2h23.8c1.8,0,3.2,1.5,3.2,3.2V364
			C222.5,365.8,221,367.2,219.2,367.2z M195.5,301.9c-1.2,0-2.2,1-2.2,2.2l0,0V364c0,1.2,1,2.2,2.2,2.2l0,0h23.8
			c1.2,0,2.2-1,2.2-2.2l0,0v-59.9c0-1.2-1-2.2-2.2-2.2l0,0L195.5,301.9z"></path><path class="st0" d="M226.4,307.3h22.1c1.3,0,2.6-0.6,3.4-1.7c4-5.3,7-11.3,9.1-17.6c4-12,5-15.7,11.1-16c4.8-0.2,6.6,20.1,7.2,29
			c0.1,2.3,2,4.1,4.3,4.1h10.4c5.1,0,9.2,4.1,9.2,9.1c0,0.3,0,0.6,0,0.9c-0.3,2.7-1.4,5.3-3.2,7.4c-0.9,1-1.2,2.4-0.8,3.6
			c0.8,3.3,1.6,9.5-2.2,13.6c-0.9,0.9-1.2,2.2-1,3.5c0.5,2.8,0.9,7.6-1.2,10.6c-0.8,1.1-1.1,2.5-0.8,3.8c0.8,3,1.6,8.3-2.1,10
			c-4.1,1.9-29.7,0.9-42,0.3c-4.1-0.2-8.2-1.2-12-2.9c-4-1.9-8.1-3.4-12.4-4.4c-2-0.4-3.4-2.2-3.4-4.2v-44.7
			C222,309.2,223.9,307.3,226.4,307.3C226.3,307.3,226.3,307.3,226.4,307.3z"></path><path class="st0" d="M276.8,369.3c-8.7,0-19.3-0.4-26.9-0.8c-4.2-0.2-8.4-1.2-12.2-3c-4-1.9-8.1-3.3-12.3-4.4
			c-2.2-0.5-3.9-2.4-3.8-4.7v-44.8c0-2.7,2.2-4.9,4.8-4.9h0h22.1c1.2,0,2.3-0.6,3-1.5c3.9-5.3,7-11.2,9.1-17.4l0.6-1.7
			c3.6-10.7,4.8-14.3,11-14.6h0.1c4.8,0,6.8,16,7.6,29.5c0.1,2,1.8,3.6,3.8,3.6h10.4c2.8,0,5.4,1.2,7.3,3.2c1.8,2,2.7,4.7,2.4,7.3
			c-0.3,2.8-1.5,5.5-3.4,7.7c-0.7,0.9-1,2.1-0.7,3.2c0.8,3.5,1.6,9.9-2.3,14c-0.7,0.8-1.1,2-0.9,3.1c0.5,2.7,0.9,7.8-1.2,11
			c-0.7,1-1,2.2-0.8,3.4c0.9,3.2,1.7,8.8-2.4,10.6C290.2,369,284.1,369.3,276.8,369.3z M226.4,307.8c-2.1,0-3.8,1.7-3.9,3.9v44.8
			c0,1.8,1.2,3.4,3,3.8c4.3,1.1,8.5,2.6,12.5,4.5c3.7,1.7,7.7,2.7,11.8,2.9c23.7,1.1,38.9,1,41.8-0.3c3.5-1.6,2.7-6.6,1.9-9.4
			c-0.3-1.5,0-3,0.9-4.2c2-2.9,1.5-7.6,1.1-10.2c-0.3-1.4,0.1-2.9,1.1-3.9c3.6-3.8,2.8-9.9,2-13.1c-0.4-1.4,0-3,1-4.1
			c1.8-2,2.9-4.5,3.1-7.1c0.3-2.4-0.5-4.8-2.1-6.5c-1.7-1.9-4-2.9-6.5-2.9h-10.4c-2.6,0-4.7-2-4.8-4.5c-1.1-17.6-3.6-28.6-6.6-28.6
			h-0.1c-5.5,0.3-6.6,3.5-10.1,14l-0.6,1.7c-2.1,6.4-5.2,12.3-9.2,17.7c-0.9,1.2-2.3,1.9-3.8,1.9L226.4,307.8z"></path><path class="st0" d="M298.6,324.5h-13.1c-0.3,0-0.5-0.2-0.5-0.5s0.2-0.5,0.5-0.5h13.1c0.3,0,0.5,0.2,0.5,0.5
			S298.8,324.5,298.6,324.5z"></path><path class="st0" d="M295.9,341.6h-11.2c-0.3,0-0.5-0.2-0.5-0.5s0.2-0.5,0.5-0.5h11.2c0.3,0,0.5,0.2,0.5,0.5
			S296.2,341.6,295.9,341.6z"></path><path class="st0" d="M293.8,356.2h-11.3c-0.3,0-0.5-0.2-0.5-0.5s0.2-0.5,0.5-0.5h11.3c0.3,0,0.5,0.2,0.5,0.5
			S294,356.2,293.8,356.2z"></path></g><path class="st1" d="M240.7,434.8c-0.1,0-0.1,0-0.2,0c-0.2-0.1-0.3-0.3-0.3-0.5v-26H112.4c-12.1,0-22-9.9-22-22V261.9
		c0-12.1,9.9-22,22-22h285.3c12.2,0,22,9.8,22,22v124.3c0,12.2-9.8,22-22,22H272.5L241,434.7C240.9,434.7,240.8,434.8,240.7,434.8z
		 M112.4,240.9c-11.6,0-21,9.4-21,21v124.3c0,11.6,9.4,21,21,21h128.2c0.3,0,0.5,0.2,0.5,0.5v25.5l30.8-25.8
		c0.1-0.1,0.2-0.1,0.3-0.1h125.4c11.6,0,21-9.4,21-21l0,0V261.9c0-11.6-9.4-21-21-21L112.4,240.9z"></path><g id="like_icon-3"><path class="st0" d="M195.5,301.4h23.8c1.5,0,2.8,1.2,2.8,2.8v59.8c0,1.5-1.2,2.8-2.8,2.8h-23.8c-1.5,0-2.8-1.2-2.8-2.8v-59.8
			C192.7,302.6,194,301.4,195.5,301.4z"></path><path class="st0" d="M219.2,367.2h-23.8c-1.8,0-3.2-1.5-3.2-3.2v-59.8c0-1.8,1.5-3.2,3.2-3.2h23.8c1.8,0,3.2,1.5,3.2,3.2V364
			C222.5,365.8,221,367.2,219.2,367.2z M195.5,301.9c-1.2,0-2.2,1-2.2,2.2l0,0V364c0,1.2,1,2.2,2.2,2.2l0,0h23.8
			c1.2,0,2.2-1,2.2-2.2l0,0v-59.9c0-1.2-1-2.2-2.2-2.2l0,0L195.5,301.9z"></path><path class="st0" d="M226.4,307.3h22.1c1.3,0,2.6-0.6,3.4-1.7c4-5.3,7-11.3,9.1-17.6c4-12,5-15.7,11.1-16c4.8-0.2,6.6,20.1,7.2,29
			c0.1,2.3,2,4.1,4.3,4.1h10.4c5.1,0,9.2,4.1,9.2,9.1c0,0.3,0,0.6,0,0.9c-0.3,2.7-1.4,5.3-3.2,7.4c-0.9,1-1.2,2.4-0.8,3.6
			c0.8,3.3,1.6,9.5-2.2,13.6c-0.9,0.9-1.2,2.2-1,3.5c0.5,2.8,0.9,7.6-1.2,10.6c-0.8,1.1-1.1,2.5-0.8,3.8c0.8,3,1.6,8.3-2.1,10
			c-4.1,1.9-29.7,0.9-42,0.3c-4.1-0.2-8.2-1.2-12-2.9c-4-1.9-8.1-3.4-12.4-4.4c-2-0.4-3.4-2.2-3.4-4.2v-44.7
			C222,309.2,223.9,307.3,226.4,307.3C226.3,307.3,226.3,307.3,226.4,307.3z"></path><path class="st0" d="M276.8,369.3c-8.7,0-19.3-0.4-26.9-0.8c-4.2-0.2-8.4-1.2-12.2-3c-4-1.9-8.1-3.3-12.3-4.4
			c-2.2-0.5-3.9-2.4-3.8-4.7v-44.8c0-2.7,2.2-4.9,4.8-4.9h0h22.1c1.2,0,2.3-0.6,3-1.5c3.9-5.3,7-11.2,9.1-17.4l0.6-1.7
			c3.6-10.7,4.8-14.3,11-14.6h0.1c4.8,0,6.8,16,7.6,29.5c0.1,2,1.8,3.6,3.8,3.6h10.4c2.8,0,5.4,1.2,7.3,3.2c1.8,2,2.7,4.7,2.4,7.3
			c-0.3,2.8-1.5,5.5-3.4,7.7c-0.7,0.9-1,2.1-0.7,3.2c0.8,3.5,1.6,9.9-2.3,14c-0.7,0.8-1.1,2-0.9,3.1c0.5,2.7,0.9,7.8-1.2,11
			c-0.7,1-1,2.2-0.8,3.4c0.9,3.2,1.7,8.8-2.4,10.6C290.2,369,284.1,369.3,276.8,369.3z M226.4,307.8c-2.1,0-3.8,1.7-3.9,3.9v44.8
			c0,1.8,1.2,3.4,3,3.8c4.3,1.1,8.5,2.6,12.5,4.5c3.7,1.7,7.7,2.7,11.8,2.9c23.7,1.1,38.9,1,41.8-0.3c3.5-1.6,2.7-6.6,1.9-9.4
			c-0.3-1.5,0-3,0.9-4.2c2-2.9,1.5-7.6,1.1-10.2c-0.3-1.4,0.1-2.9,1.1-3.9c3.6-3.8,2.8-9.9,2-13.1c-0.4-1.4,0-3,1-4.1
			c1.8-2,2.9-4.5,3.1-7.1c0.3-2.4-0.5-4.8-2.1-6.5c-1.7-1.9-4-2.9-6.5-2.9h-10.4c-2.6,0-4.7-2-4.8-4.5c-1.1-17.6-3.6-28.6-6.6-28.6
			h-0.1c-5.5,0.3-6.6,3.5-10.1,14l-0.6,1.7c-2.1,6.4-5.2,12.3-9.2,17.7c-0.9,1.2-2.3,1.9-3.8,1.9L226.4,307.8z"></path><path class="st0" d="M298.6,324.5h-13.1c-0.3,0-0.5-0.2-0.5-0.5s0.2-0.5,0.5-0.5h13.1c0.3,0,0.5,0.2,0.5,0.5
			S298.8,324.5,298.6,324.5z"></path><path class="st0" d="M295.9,341.6h-11.2c-0.3,0-0.5-0.2-0.5-0.5s0.2-0.5,0.5-0.5h11.2c0.3,0,0.5,0.2,0.5,0.5
			S296.2,341.6,295.9,341.6z"></path><path class="st0" d="M293.8,356.2h-11.3c-0.3,0-0.5-0.2-0.5-0.5s0.2-0.5,0.5-0.5h11.3c0.3,0,0.5,0.2,0.5,0.5
			S294,356.2,293.8,356.2z"></path><path class="st2" d="M195.5,301.4h23.8c1.5,0,2.8,1.2,2.8,2.8v59.8c0,1.5-1.2,2.8-2.8,2.8h-23.8c-1.5,0-2.8-1.2-2.8-2.8v-59.8
			C192.7,302.6,194,301.4,195.5,301.4z"></path><path class="st1" d="M219.2,367.2h-23.8c-1.8,0-3.2-1.5-3.2-3.2v-59.8c0-1.8,1.5-3.2,3.2-3.2h23.8c1.8,0,3.2,1.5,3.2,3.2V364
			C222.5,365.8,221,367.2,219.2,367.2z M195.5,301.9c-1.2,0-2.2,1-2.2,2.2l0,0V364c0,1.2,1,2.2,2.2,2.2l0,0h23.8
			c1.2,0,2.2-1,2.2-2.2l0,0v-59.9c0-1.2-1-2.2-2.2-2.2l0,0L195.5,301.9z"></path><path class="st0" d="M226.4,307.3h22.1c1.3,0,2.6-0.6,3.4-1.7c4-5.3,7-11.3,9.1-17.6c4-12,5-15.7,11.1-16c4.8-0.2,6.6,20.1,7.2,29
			c0.1,2.3,2,4.1,4.3,4.1h10.4c5.1,0,9.2,4.1,9.2,9.1c0,0.3,0,0.6,0,0.9c-0.3,2.7-1.4,5.3-3.2,7.4c-0.9,1-1.2,2.4-0.8,3.6
			c0.8,3.3,1.6,9.5-2.2,13.6c-0.9,0.9-1.2,2.2-1,3.5c0.5,2.8,0.9,7.6-1.2,10.6c-0.8,1.1-1.1,2.5-0.8,3.8c0.8,3,1.6,8.3-2.1,10
			c-4.1,1.9-29.7,0.9-42,0.3c-4.1-0.2-8.2-1.2-12-2.9c-4-1.9-8.1-3.4-12.4-4.4c-2-0.4-3.4-2.2-3.4-4.2v-44.7
			C222,309.2,223.9,307.3,226.4,307.3C226.3,307.3,226.3,307.3,226.4,307.3z"></path><path class="st1" d="M276.8,369.3c-8.7,0-19.3-0.4-26.9-0.8c-4.2-0.2-8.4-1.2-12.2-3c-4-1.9-8.1-3.3-12.3-4.4
			c-2.2-0.5-3.9-2.4-3.8-4.7v-44.8c0-2.7,2.2-4.9,4.8-4.9h0h22.1c1.2,0,2.3-0.6,3-1.5c3.9-5.3,7-11.2,9.1-17.4l0.6-1.7
			c3.6-10.7,4.8-14.3,11-14.6h0.1c4.8,0,6.8,16,7.6,29.5c0.1,2,1.8,3.6,3.8,3.6h10.4c2.8,0,5.4,1.2,7.3,3.2c1.8,2,2.7,4.7,2.4,7.3
			c-0.3,2.8-1.5,5.5-3.4,7.7c-0.7,0.9-1,2.1-0.7,3.2c0.8,3.5,1.6,9.9-2.3,14c-0.7,0.8-1.1,2-0.9,3.1c0.5,2.7,0.9,7.8-1.2,11
			c-0.7,1-1,2.2-0.8,3.4c0.9,3.2,1.7,8.8-2.4,10.6C290.2,369,284.1,369.3,276.8,369.3z M226.4,307.8c-2.1,0-3.8,1.7-3.9,3.9v44.8
			c0,1.8,1.2,3.4,3,3.8c4.3,1.1,8.5,2.6,12.5,4.5c3.7,1.7,7.7,2.7,11.8,2.9c23.7,1.1,38.9,1,41.8-0.3c3.5-1.6,2.7-6.6,1.9-9.4
			c-0.3-1.5,0-3,0.9-4.2c2-2.9,1.5-7.6,1.1-10.2c-0.3-1.4,0.1-2.9,1.1-3.9c3.6-3.8,2.8-9.9,2-13.1c-0.4-1.4,0-3,1-4.1
			c1.8-2,2.9-4.5,3.1-7.1c0.3-2.4-0.5-4.8-2.1-6.5c-1.7-1.9-4-2.9-6.5-2.9h-10.4c-2.6,0-4.7-2-4.8-4.5c-1.1-17.6-3.6-28.6-6.6-28.6
			h-0.1c-5.5,0.3-6.6,3.5-10.1,14l-0.6,1.7c-2.1,6.4-5.2,12.3-9.2,17.7c-0.9,1.2-2.3,1.9-3.8,1.9L226.4,307.8z"></path><path class="st1" d="M298.6,324.5h-13.1c-0.3,0-0.5-0.2-0.5-0.5s0.2-0.5,0.5-0.5h13.1c0.3,0,0.5,0.2,0.5,0.5
			S298.8,324.5,298.6,324.5z"></path><path class="st1" d="M295.9,341.6h-11.2c-0.3,0-0.5-0.2-0.5-0.5s0.2-0.5,0.5-0.5h11.2c0.3,0,0.5,0.2,0.5,0.5
			S296.2,341.6,295.9,341.6z"></path><path class="st1" d="M293.8,356.2h-11.3c-0.3,0-0.5-0.2-0.5-0.5s0.2-0.5,0.5-0.5h11.3c0.3,0,0.5,0.2,0.5,0.5
			S294,356.2,293.8,356.2z"></path><path class="st3" d="M195.5,301.4h23.8c1.5,0,2.8,1.2,2.8,2.8v59.8c0,1.5-1.2,2.8-2.8,2.8h-23.8c-1.5,0-2.8-1.2-2.8-2.8v-59.8
			C192.7,302.6,194,301.4,195.5,301.4z"></path><path class="st4" d="M219.2,367.2h-23.8c-1.8,0-3.2-1.5-3.2-3.2v-59.8c0-1.8,1.5-3.2,3.2-3.2h23.8c1.8,0,3.2,1.5,3.2,3.2V364
			C222.5,365.8,221,367.2,219.2,367.2z M195.5,301.9c-1.2,0-2.2,1-2.2,2.2l0,0V364c0,1.2,1,2.2,2.2,2.2l0,0h23.8
			c1.2,0,2.2-1,2.2-2.2l0,0v-59.9c0-1.2-1-2.2-2.2-2.2l0,0L195.5,301.9z"></path><path class="st3" d="M226.4,307.3h22.1c1.3,0,2.6-0.6,3.4-1.7c4-5.3,7-11.3,9.1-17.6c4-12,5-15.7,11.1-16c4.8-0.2,6.6,20.1,7.2,29
			c0.1,2.3,2,4.1,4.3,4.1h10.4c5.1,0,9.2,4.1,9.2,9.1c0,0.3,0,0.6,0,0.9c-0.3,2.7-1.4,5.3-3.2,7.4c-0.9,1-1.2,2.4-0.8,3.6
			c0.8,3.3,1.6,9.5-2.2,13.6c-0.9,0.9-1.2,2.2-1,3.5c0.5,2.8,0.9,7.6-1.2,10.6c-0.8,1.1-1.1,2.5-0.8,3.8c0.8,3,1.6,8.3-2.1,10
			c-4.1,1.9-29.7,0.9-42,0.3c-4.1-0.2-8.2-1.2-12-2.9c-4-1.9-8.1-3.4-12.4-4.4c-2-0.4-3.4-2.2-3.4-4.2v-44.7
			C222,309.2,223.9,307.3,226.4,307.3C226.3,307.3,226.3,307.3,226.4,307.3z"></path><path class="st4" d="M276.8,369.3c-8.7,0-19.3-0.4-26.9-0.8c-4.2-0.2-8.4-1.2-12.2-3c-4-1.9-8.1-3.3-12.3-4.4
			c-2.2-0.5-3.9-2.4-3.8-4.7v-44.8c0-2.7,2.2-4.9,4.8-4.9h0h22.1c1.2,0,2.3-0.6,3-1.5c3.9-5.3,7-11.2,9.1-17.4l0.6-1.7
			c3.6-10.7,4.8-14.3,11-14.6h0.1c4.8,0,6.8,16,7.6,29.5c0.1,2,1.8,3.6,3.8,3.6h10.4c2.8,0,5.4,1.2,7.3,3.2c1.8,2,2.7,4.7,2.4,7.3
			c-0.3,2.8-1.5,5.5-3.4,7.7c-0.7,0.9-1,2.1-0.7,3.2c0.8,3.5,1.6,9.9-2.3,14c-0.7,0.8-1.1,2-0.9,3.1c0.5,2.7,0.9,7.8-1.2,11
			c-0.7,1-1,2.2-0.8,3.4c0.9,3.2,1.7,8.8-2.4,10.6C290.2,369,284.1,369.3,276.8,369.3z M226.4,307.8c-2.1,0-3.8,1.7-3.9,3.9v44.8
			c0,1.8,1.2,3.4,3,3.8c4.3,1.1,8.5,2.6,12.5,4.5c3.7,1.7,7.7,2.7,11.8,2.9c23.7,1.1,38.9,1,41.8-0.3c3.5-1.6,2.7-6.6,1.9-9.4
			c-0.3-1.5,0-3,0.9-4.2c2-2.9,1.5-7.6,1.1-10.2c-0.3-1.4,0.1-2.9,1.1-3.9c3.6-3.8,2.8-9.9,2-13.1c-0.4-1.4,0-3,1-4.1
			c1.8-2,2.9-4.5,3.1-7.1c0.3-2.4-0.5-4.8-2.1-6.5c-1.7-1.9-4-2.9-6.5-2.9h-10.4c-2.6,0-4.7-2-4.8-4.5c-1.1-17.6-3.6-28.6-6.6-28.6
			h-0.1c-5.5,0.3-6.6,3.5-10.1,14l-0.6,1.7c-2.1,6.4-5.2,12.3-9.2,17.7c-0.9,1.2-2.3,1.9-3.8,1.9L226.4,307.8z"></path><path class="st4" d="M298.6,324.5h-13.1c-0.3,0-0.5-0.2-0.5-0.5s0.2-0.5,0.5-0.5h13.1c0.3,0,0.5,0.2,0.5,0.5
			S298.8,324.5,298.6,324.5z"></path><path class="st4" d="M295.9,341.6h-11.2c-0.3,0-0.5-0.2-0.5-0.5s0.2-0.5,0.5-0.5h11.2c0.3,0,0.5,0.2,0.5,0.5
			S296.2,341.6,295.9,341.6z"></path><path class="st4" d="M293.8,356.2h-11.3c-0.3,0-0.5-0.2-0.5-0.5s0.2-0.5,0.5-0.5h11.3c0.3,0,0.5,0.2,0.5,0.5
			S294,356.2,293.8,356.2z"></path></g><path class="st4" d="M240.7,434.8c-0.1,0-0.1,0-0.2,0c-0.2-0.1-0.3-0.3-0.3-0.5v-26H112.4c-12.1,0-22-9.9-22-22V261.9
		c0-12.1,9.9-22,22-22h285.3c12.2,0,22,9.8,22,22v124.3c0,12.2-9.8,22-22,22H272.5L241,434.7C240.9,434.7,240.8,434.8,240.7,434.8z
		 M112.4,240.9c-11.6,0-21,9.4-21,21v124.3c0,11.6,9.4,21,21,21h128.2c0.3,0,0.5,0.2,0.5,0.5v25.5l30.8-25.8
		c0.1-0.1,0.2-0.1,0.3-0.1h125.4c11.6,0,21-9.4,21-21l0,0V261.9c0-11.6-9.4-21-21-21L112.4,240.9z"></path></g><g id="character-2"><path class="st2" d="M151.9,152.6c8.2-2.4,12.4,4.5,14.8,15.1s3.2,16.9,3.2,16.9s26.2-33.3,62.7-34.1s67.2,15.6,73.6,30.2
		s18,53.8,18,53.8v6.5L133,240.4c0,0-8.8-50.8-10.5-62.4s7.3-19.4,13.8-20.9S151.9,152.6,151.9,152.6z"></path><path class="st0" d="M292.1,240.4c2.6-3.7,14.3-6.5,16.9-7.4s3.1-6.3,10.5-7s18.1-0.3,21.8,4.1c2.5,3.2,4.6,6.6,6.3,10.2h-5.5
		c0,0,3.4,6.9-2.5,6.6c0,0-2.2,3-7.1,1.9c0,0-5.7,4.6-10.9-0.5c0,0-2.9,3.7-7.1,2.4s-4-10.5-4-10.5L292.1,240.4z"></path><path class="st1" d="M316.4,251.6c-0.6,0-1.3-0.1-1.9-0.3c-4-1.1-4.3-8.4-4.3-10.4h-18c-0.2,0-0.4-0.1-0.4-0.3
		c-0.1-0.2-0.1-0.4,0-0.5c2.2-3.1,10-5.4,14.7-6.8c1.1-0.3,2-0.6,2.5-0.8c0.9-0.5,1.6-1.2,2.1-2c1.5-1.9,3.5-4.5,8.6-5
		c8.4-0.8,18.7-0.1,22.3,4.3c2.5,3.2,4.6,6.7,6.4,10.3c0.1,0.1,0.1,0.3,0,0.5c-0.1,0.1-0.2,0.2-0.4,0.2H343c0.5,1.2,1.2,3.7,0.2,5.3
		c-0.7,1-2,1.5-3.2,1.4c-0.6,0.7-2.9,2.8-7.2,1.9c-1.1,0.8-6.2,4-11-0.4C320.4,250.6,318.5,251.5,316.4,251.6z M293.3,239.9h17.5
		c0.1,0,0.3,0.1,0.4,0.1c0.1,0.1,0.1,0.2,0.1,0.4c0,0.1-0.2,8.9,3.6,10s6.5-2.1,6.6-2.3c0.1-0.1,0.2-0.2,0.4-0.2
		c0.1,0,0.3,0,0.4,0.1c4.8,4.8,10,0.7,10.2,0.5c0.1-0.1,0.3-0.1,0.4-0.1c4.5,1,6.5-1.6,6.6-1.7c0.1-0.1,0.3-0.2,0.4-0.2
		c1,0.2,1.9-0.2,2.6-0.9c0.9-1.4-0.1-4.1-0.6-5c-0.1-0.2-0.1-0.3,0-0.5c0.1-0.1,0.3-0.2,0.4-0.2h4.7c-1.6-3.3-3.6-6.5-5.9-9.4
		c-3.4-4.1-13.3-4.7-21.4-3.9c-4.6,0.4-6.4,2.8-7.9,4.6c-0.6,1-1.5,1.8-2.5,2.3c-0.5,0.2-1.4,0.5-2.6,0.8
		C302.8,235.4,296,237.4,293.3,239.9z"></path><path class="st1" d="M339.8,247.5c-0.2,0-0.4-0.1-0.4-0.3c-0.2-0.4-5-9.2-4-12.9c0.1-0.3,0.4-0.4,0.6-0.4c0.3,0.1,0.4,0.4,0.4,0.6
		c-0.8,2.8,2.6,9.7,3.9,12.2c0.1,0.2,0,0.5-0.2,0.7c0,0,0,0,0,0C340,247.5,339.9,247.5,339.8,247.5z"></path><path class="st1" d="M332.7,249.4c-0.2,0-0.3-0.1-0.4-0.2c-0.2-0.4-6.1-8.8-5.7-14.8c0-0.3,0.3-0.5,0.5-0.5c0.3,0,0.5,0.3,0.5,0.5
		c0,0,0,0,0,0c-0.4,5.7,5.5,14.1,5.5,14.1c0.2,0.2,0.1,0.5-0.1,0.7c0,0,0,0,0,0C332.9,249.4,332.8,249.5,332.7,249.4z"></path><path class="st1" d="M321.8,248.9c-0.2,0-0.4-0.1-0.5-0.3c-1.4-3.6-2.8-11.2-1.9-15.2c0.1-0.3,0.3-0.4,0.6-0.4
		c0.3,0.1,0.4,0.3,0.4,0.6l0,0c-0.9,3.8,0.5,11.1,1.8,14.6c0.1,0.3,0,0.5-0.3,0.6C321.9,248.9,321.8,248.9,321.8,248.9z"></path><path class="st1" d="M310.7,240.9L310.7,240.9c-0.3,0-0.5-0.2-0.5-0.5c0,0,0,0,0,0c0.1-2.4,0.4-4.7,1-7c0.1-0.3,0.4-0.4,0.6-0.4
		c0.3,0.1,0.4,0.4,0.4,0.6l0,0c-0.5,2.2-0.9,4.5-0.9,6.7C311.3,240.7,311.1,240.9,310.7,240.9C310.8,240.9,310.7,240.9,310.7,240.9z
		"></path><path class="st0" d="M342.2,240.4c-0.6-1.7-0.4-3.5,0.5-5"></path><path class="st1" d="M342.2,240.9c-0.2,0-0.4-0.1-0.5-0.4c-0.7-1.8-0.5-3.8,0.6-5.4c0.2-0.2,0.5-0.3,0.7-0.1s0.3,0.5,0.1,0.7
		c0,0,0,0,0,0c-0.8,1.4-1,3-0.4,4.5c0.1,0.3-0.1,0.5-0.3,0.6L342.2,240.9z"></path><path class="st0" d="M136.3,114.3c-1.9-7.8-5.4-18.8-10.1-18.8s-4,5.1-3.1,10.8s1.9,14.3,1.9,14.3L136.3,114.3z"></path><path class="st1" d="M125,121.1c-0.1,0-0.2,0-0.2-0.1c-0.1-0.1-0.3-0.2-0.3-0.4c0-0.1-1-8.7-1.9-14.3c-0.6-4.2-1.2-8.2,0.5-10.2
		c0.8-0.9,2-1.3,3.1-1.2c3.9,0,7.4,6.5,10.6,19.2c0,0.2,0,0.4-0.2,0.6l-11.3,6.3C125.2,121.1,125.1,121.1,125,121.1z M126.2,96
		c-0.9-0.1-1.7,0.2-2.4,0.9c-1.4,1.6-0.8,5.6-0.2,9.3c0.7,4.7,1.6,11.4,1.8,13.6l10.3-5.7C132.8,102.4,129.4,96,126.2,96z"></path><path class="st0" d="M130.7,164c-0.1-9.3-2.7-18.5-7.3-26.6c-3.5-6-2.5-18,0-19.7s19.4-7.4,23.2-7s3.6,8.9,3.6,8.9s5.9,3.2,3.7,8.5
		c0,0,5.1,3.6,2,8.6c0,0,3.5,4,1.6,6.9s-2.9,3.2-2.9,3.2s1,6,3.5,9.1C158.2,155.9,141.5,163.1,130.7,164z"></path><path class="st1" d="M130.7,164.5c-0.1,0-0.2,0-0.3-0.1c-0.1-0.1-0.2-0.2-0.2-0.4c-0.2-9.3-2.6-18.3-7.2-26.4
		c-1.6-2.8-2.5-7-2.3-11.7c0.1-3.3,0.8-7.5,2.5-8.7c2.4-1.7,19.5-7.6,23.6-7.1c3.8,0.4,4.1,7.6,4.1,9.1c1.1,0.7,5.5,3.9,3.8,8.6
		c1.1,0.9,4.5,4.3,2.1,8.7c0.8,1,3.2,4.4,1.4,7.2c-0.7,1.2-1.7,2.3-2.8,3.2c0.2,1.3,1.3,6,3.3,8.5c0.1,0.1,0.1,0.3,0.1,0.4
		c0,0.2-0.1,0.3-0.3,0.3C158.2,156.4,141.5,163.7,130.7,164.5L130.7,164.5z M131.2,164L131.2,164z M146.2,111.2
		c-4.4,0-20,5.2-22.5,7c-2.1,1.5-3.4,13,0.1,19.1c4.6,8,7.1,17.1,7.4,26.3c9.5-0.9,23.2-6.6,26.2-7.8c-2.3-3.2-3.2-8.5-3.2-8.8
		c0-0.3,0.1-0.5,0.4-0.6l0,0c0,0,0.9-0.4,2.6-3s-1.5-6.2-1.6-6.3c-0.1-0.2-0.1-0.4,0-0.6c2.8-4.5-1.7-7.8-1.9-8
		c-0.2-0.1-0.3-0.4-0.2-0.6c2-4.8-3.2-7.7-3.4-7.8c-0.2-0.1-0.3-0.3-0.3-0.4c0-2.2-0.5-8.1-3.2-8.4L146.2,111.2z"></path><path class="st1" d="M141.2,149.8c-0.4,0-0.7,0-1,0c-0.3,0-0.5-0.2-0.5-0.5c0,0,0,0,0,0c0-0.3,0.3-0.5,0.5-0.5
		c5.4,0.3,14.2-2.4,14.3-2.4c0.3-0.1,0.5,0.1,0.6,0.3c0.1,0.3-0.1,0.5-0.3,0.6C154.5,147.4,146.8,149.8,141.2,149.8z"></path><path class="st1" d="M143,141c-0.2,0-0.4-0.2-0.5-0.4c-0.1-0.3,0.1-0.5,0.4-0.6c0,0,0,0,0,0c4.4-1,8.7-2.3,12.9-3.8
		c0.3-0.1,0.5,0,0.6,0.3c0.1,0.3,0,0.5-0.3,0.6c0,0,0,0,0,0c-4.3,1.5-8.6,2.8-13.1,3.8H143z"></path><path class="st1" d="M139.7,134.3c-0.2,0-0.4-0.1-0.5-0.3c-0.1-0.3,0-0.5,0.3-0.6c0,0,0,0,0,0c4.9-1.9,14.2-5.7,14.3-5.7
		c0.3-0.1,0.6,0,0.7,0.3c0.1,0.3,0,0.6-0.3,0.7c-0.1,0-9.4,3.8-14.3,5.7C139.8,134.3,139.7,134.3,139.7,134.3z"></path><path class="st1" d="M136.3,124.8c-0.3,0-0.5-0.2-0.6-0.4c0-0.3,0.2-0.5,0.4-0.6c6.8-2,13.9-4.6,14-4.7c0.3-0.1,0.5,0,0.6,0.3
		c0.1,0.3,0,0.5-0.3,0.6c0,0,0,0,0,0c-0.1,0-7.3,2.7-14.1,4.7L136.3,124.8z"></path><path class="st1" d="M174.9,235.6c-0.3,0-0.5-0.2-0.5-0.5c0-0.3-0.2-26.8-4.1-46.5c-0.1-0.3,0.1-0.5,0.4-0.6c0,0,0,0,0,0
		c0.3-0.1,0.5,0.1,0.6,0.4c0,0,0,0,0,0c3.9,19.9,4.2,46.5,4.2,46.7C175.4,235.4,175.2,235.6,174.9,235.6z"></path><path class="st1" d="M297.1,230.7c-0.2,0-0.5-0.2-0.5-0.4c0-0.1-1.7-11.7-6-47.7c0-0.3,0.2-0.5,0.4-0.5c0,0,0,0,0,0
		c0.3,0,0.5,0.2,0.6,0.4c0,0,0,0,0,0c4.3,35.9,6,47.5,6,47.6C297.6,230.4,297.5,230.6,297.1,230.7L297.1,230.7z"></path><path class="st0" d="M245.7,130.6c-0.8,8.6-0.4,17.2,1.2,25.7c0,0-16.4,3.4-22.2-0.7l0.4-15.7L245.7,130.6z"></path><path class="st1" d="M234.3,158.1c-3.8,0-7.6-0.5-9.9-2.1c-0.1-0.1-0.2-0.3-0.2-0.4l0.4-15.7c0-0.2,0.1-0.4,0.3-0.4l20.7-9.3
		c0.2-0.1,0.3-0.1,0.5,0.1c0.1,0.1,0.2,0.3,0.2,0.4c-0.8,8.5-0.4,17.1,1.2,25.5c0,0.1,0,0.3-0.1,0.4c-0.1,0.1-0.2,0.2-0.3,0.2
		C242.8,157.6,238.6,158.1,234.3,158.1z M225.2,155.3c5.2,3.3,18.4,1.1,21.1,0.6c-1.4-8.1-1.8-16.3-1.2-24.5l-19.6,8.8L225.2,155.3z
		"></path><path class="st2" d="M259.9,128.1c11.1-22.6-9.1-25.8-9.1-25.8s3.6-10-4-16s-16.1-3-24.3-10.2s-24.6-6.9-29.9,10.5
		s1.4,22.5,1.4,22.5l31.2,20l23.7,4.2L259.9,128.1z"></path><path class="st1" d="M248.8,133.8L248.8,133.8l-23.8-4.2c-0.1,0-0.1,0-0.2-0.1l-31.2-20c-0.3-0.2-7-5.5-1.6-23
		c2.3-7.6,7-12.7,13.3-14.5c6.1-1.7,12.6-0.2,17.4,3.8c4.2,3.7,8.6,4.6,12.8,5.5c3.8,0.8,7.8,1.7,11.5,4.6c6.8,5.3,5,13.7,4.4,16
		c1.9,0.4,8,2.2,10.8,7.7c2.5,4.8,1.9,11.1-1.9,18.7c-0.1,0.1-0.1,0.2-0.2,0.2l-11.1,5.1C248.9,133.7,248.9,133.7,248.8,133.8z
		 M225.3,128.6l23.5,4.1l10.8-5c3.5-7.2,4.1-13.2,1.8-17.7c-3.1-6-10.6-7.3-10.7-7.3c-0.1,0-0.3-0.1-0.4-0.2c-0.1-0.1-0.1-0.3,0-0.4
		c0-0.1,3.4-9.7-3.9-15.4c-3.5-2.8-7.2-3.6-11.1-4.4c-4.3-1-8.8-1.9-13.2-5.8c-4.6-3.9-10.7-5.2-16.5-3.6c-6,1.7-10.4,6.6-12.6,13.9
		c-5.1,16.8,1.2,21.9,1.2,21.9L225.3,128.6z M259.9,128.1L259.9,128.1z"></path><path class="st0" d="M197.6,97.3c0,0-17.6,43.9,8.2,50.3s43-12.1,43-12.1c8.6,4.1,15.7-3.6,11.1-7.3s-9.6,2.7-9.6,2.7
		s-9.5-6.4-6.3-21.6c0,0-12.4,3.2-17.7-7c0,0-26.4,2-32.8-10"></path><path class="st1" d="M216.5,149.4c-3.7,0-7.3-0.5-10.8-1.4c-5.1-1.1-9.3-4.4-11.7-9c-3.2-6.2-3.6-15.2-1.3-26.6
		c1.1-5.2,2.5-10.3,4.4-15.3c0,0,0,0,0-0.1c-1.7-1.2-3.1-2.8-4.1-4.6c-0.1-0.2,0-0.5,0.2-0.7c0.2-0.1,0.5,0,0.7,0.2c0,0,0,0,0,0
		c6.2,11.6,32.1,9.8,32.4,9.7c0.2,0,0.4,0.1,0.5,0.3c5,9.7,17,6.7,17.2,6.7c0.2,0,0.3,0,0.5,0.1c0.1,0.1,0.2,0.3,0.1,0.5
		c-1.6,7.7,0.1,13,1.9,16.1c1,1.8,2.3,3.4,3.8,4.7c0.8-0.9,3.1-3.3,5.9-3.6c1.5-0.2,2.9,0.3,4,1.2c1.8,1.3,2.2,3.9,0.9,5.7
		c-1.9,3.1-6.8,5-12.2,2.6C247,137.9,234.7,149.4,216.5,149.4z M198,97.6c-0.8,2.2-10.1,27.1-3.1,40.9c2.2,4.4,6.2,7.5,11,8.5
		c3.5,0.9,7,1.3,10.6,1.3c19.3,0,31.7-13.2,31.9-13.3c0.2-0.2,0.4-0.2,0.6-0.1c5.3,2.5,9.8,0.3,11.2-2.1c1-1.4,0.8-3.4-0.6-4.4
		c0,0,0,0,0,0c-0.9-0.8-2.1-1.1-3.3-1c-3,0.3-5.5,3.6-5.5,3.6c-0.2,0.2-0.5,0.2-0.7,0.1c-1.9-1.4-3.4-3.2-4.5-5.3
		c-1.8-3.2-3.6-8.5-2.2-16.1c-2.8,0.5-12.7,1.5-17.4-7.1c-4.6,0.2-9.2,0.1-13.8-0.5C206.2,101.4,201.4,99.8,198,97.6z"></path><path class="st1" d="M251.9,133.3c-0.1,0-0.1,0-0.2-0.1c-0.2-0.1-0.2-0.3-0.1-0.5c0,0,0,0,0,0c0,0,2.9-4.6,6.7-2.6
		c0.2,0.1,0.3,0.3,0.2,0.5c-0.1,0.2-0.3,0.2-0.5,0.2c-3.2-1.7-5.6,2.3-5.7,2.3C252.1,133.3,252,133.3,251.9,133.3z"></path><path class="st1" d="M223.1,114.6c1.7-0.7,3.4-1,5.2-0.9c0.9,0,1.8,0.2,2.6,0.3c0.9,0.2,1.7,0.5,2.5,0.8c0.1,0.1,0.2,0.2,0.1,0.4
		c0,0,0,0,0,0c-0.1,0.1-0.2,0.2-0.3,0.2l0,0c-0.8-0.2-1.6-0.4-2.5-0.5c-0.8-0.1-1.6-0.2-2.5-0.2c-0.8-0.1-1.7-0.1-2.5,0
		c-0.8,0.1-1.7,0.2-2.5,0.4l0,0c-0.1,0-0.3,0-0.4-0.2C222.9,114.8,223,114.6,223.1,114.6L223.1,114.6L223.1,114.6z"></path><path class="st1" d="M198.5,110.6c2-0.3,4-0.2,5.9,0.1c1,0.2,1.9,0.4,2.9,0.7c0.9,0.3,1.9,0.6,2.8,1c0.1,0.1,0.2,0.3,0.1,0.4
		c-0.1,0.1-0.2,0.2-0.3,0.2c-1.9-0.4-3.8-0.9-5.6-1.2c-1-0.2-1.9-0.3-2.9-0.4s-1.9-0.1-2.9-0.1l0,0c-0.2,0-0.3-0.1-0.3-0.3
		C198.3,110.7,198.4,110.6,198.5,110.6z"></path><path class="st1" d="M208.2,129.6c-1.7,0.1-3.2-1.3-3.3-3c-0.2-0.9,0.1-1.8,0.7-2.5c1.1-1.2,3.2-1.5,4.2-1.6
		c0.2-3.3,0.1-6.7-0.3-10c0-0.3,0.2-0.5,0.4-0.6c0.3,0,0.5,0.2,0.6,0.4c0.4,3.5,0.5,7.1,0.2,10.6c0,0.3-0.2,0.4-0.5,0.4
		c0,0-2.8,0-3.9,1.2c-0.4,0.5-0.6,1.1-0.4,1.7c0,1.2,1.1,2.2,2.3,2.1c0.1,0,0.1,0,0.2,0c1.7,0,3.1-1.4,3.2-3.1
		c0-0.3,0.2-0.5,0.5-0.5c0,0,0,0,0,0c0.3,0,0.5,0.2,0.5,0.5c0,0,0,0,0,0c-0.2,2.2-2,3.9-4.2,4L208.2,129.6z"></path><path class="st1" d="M228.8,122.1c-0.3,1.7-1.4,3-2.6,2.8s-1.9-1.7-1.7-3.4c0.1-0.5,0.2-1,0.5-1.4l1.9,1.4l-0.6-2.7
		c0.3-0.1,0.6-0.2,0.9-0.1C228.3,118.9,229.1,120.4,228.8,122.1z"></path><path class="st1" d="M205.2,118.6c-0.3,1.7-1.4,3-2.6,2.8s-1.9-1.7-1.7-3.4c0.1-0.5,0.2-1,0.5-1.4l1.9,1.4l-0.6-2.7
		c0.3-0.1,0.6-0.2,0.9-0.1C204.7,115.3,205.4,116.9,205.2,118.6z"></path><path class="st1" d="M216.1,138.4c-1.9-0.1-3.6-1-4.8-2.4c-0.2-0.2-0.2-0.5,0-0.7c0.2-0.2,0.5-0.2,0.7,0c0,0,0,0,0,0
		c1.6,1.6,3.3,2.3,4.8,2c1.4-0.4,2.6-1.5,3-2.9c0.1-0.3,0.4-0.4,0.6-0.3c0,0,0,0,0,0c0.3,0.1,0.4,0.4,0.3,0.6
		c-0.6,1.7-2,3.1-3.7,3.5C216.7,138.4,216.4,138.4,216.1,138.4z"></path><path class="st0" d="M202.7,73.8c7.9,2.5,14.1,6.6,24.8,14c0.5,0,6.4,3.7,6.4,3.7l29.7,25c0,0,2.9-12.6,1.9-24.8s-3.4-18.3-10.8-25
		C232.4,49.3,211,62.2,202.7,73.8z"></path><path class="st1" d="M263.5,117c-0.1,0-0.2,0-0.3-0.1l-29.7-25c-2-1.3-4-2.5-6.1-3.6c-0.1,0-0.1,0-0.2-0.1
		c-10.4-7.2-16.7-11.4-24.6-13.9c-0.2-0.1-0.3-0.2-0.3-0.3c-0.1-0.2,0-0.3,0.1-0.4c4.6-6.4,13.6-13.8,25.2-15.4
		c9.5-1.3,18.7,1.5,27.4,8.3c7.3,6.5,9.9,12.7,11,25.3c1,12.1-1.9,24.8-1.9,24.9c0,0.2-0.2,0.3-0.3,0.4
		C263.6,117,263.6,117,263.5,117z M227.7,87.3c0.5,0.2,1.8,0.8,6.4,3.8l29.1,24.5c0.6-3,2.6-13.6,1.7-23.8
		c-1-12.5-3.5-18.3-10.6-24.6c-8.4-6.7-17.4-9.4-26.6-8.1c-10.9,1.5-19.5,8.4-24.1,14.4C211.3,76.1,217.5,80.2,227.7,87.3
		L227.7,87.3z"></path><path class="st0" d="M192.5,86.6c13.9-2.7,28.4-1,41.3,4.9l-7.1-5.2c0,0-15.3-13.5-23.2-16c-2.7-0.8-9.4-1-11.5-1
		C177,68.9,192.5,86.6,192.5,86.6z"></path><path class="st1" d="M233.8,92c-0.1,0-0.1,0-0.2,0c-12.8-5.8-27.2-7.5-41-4.8c-0.2,0-0.4,0-0.5-0.2c-0.4-0.4-9.1-10.4-6.7-15.5
		c0.9-1.9,3.2-2.8,6.7-2.7h0.4c2.6,0.1,8.6,0.2,11.2,1c7.9,2.5,22.7,15.5,23.4,16.1l7,5.2c0.2,0.2,0.3,0.5,0.1,0.7
		C234.1,91.9,234,92,233.8,92L233.8,92z M205.3,84.9c8.5,0,16.9,1.5,24.9,4.5l-3.7-2.7c-0.2-0.2-15.3-13.5-23-15.9
		c-2.5-0.8-8.7-0.9-11-1h-0.4c-3.1-0.1-5.1,0.7-5.8,2.1c-1.7,3.6,3.9,11.2,6.4,14.2C196.8,85.2,201.1,84.8,205.3,84.9L205.3,84.9z"></path><path class="st1" d="M227.4,88.3c-0.1,0-0.1,0-0.2,0c-0.2-0.1-0.4-0.4-0.3-0.6c0,0,0,0,0,0c0.4-0.8,9.3-20.5,21.8-22.5
		c0.3,0,0.5,0.1,0.6,0.4c0,0.3-0.1,0.5-0.4,0.6c0,0,0,0,0,0C237,68,228,87.8,227.9,88C227.8,88.2,227.6,88.3,227.4,88.3z"></path></g></svg>