<svg transform="scale(1)" version="1.1" id="_x30_372_x5F_Post" xmlns="http://www.w3.org/2000/svg" xmlns:xlink="http://www.w3.org/1999/xlink" x="0px" y="0px" viewBox="0 0 500 500" xml:space="preserve" class="show_show__wrapper__graphic__5Waiy "><title>React</title><style type="text/css">
	.st0{fill:#F75454;}
	.st1{fill:#732A09;}
	.st2{fill:#FFFFFF;}
</style><g id="phone"><path class="st0" d="M77.6,76.9h248.8c4.2,0,7.5,3.4,7.5,7.5v272.7c0,4.2-3.4,7.5-7.5,7.5H77.6c-4.2,0-7.5-3.4-7.5-7.5V84.4
		C70.1,80.2,73.5,76.9,77.6,76.9z"></path><path class="st1" d="M326.5,365.1H77.6c-4.5,0-8.1-3.6-8.1-8.1V84.4c0-4.4,3.6-8.1,8.1-8.1h248.9c4.4,0,8.1,3.6,8.1,8.1v272.7
		C334.5,361.5,330.9,365.1,326.5,365.1z M77.6,77.4c-3.9,0-7,3.1-7,7v272.7c0,3.9,3.1,7,7,7h248.9c3.9,0,7-3.2,7-7V84.4
		c0-3.9-3.1-7-7-7H77.6z"></path><rect class="st2" x="86.2" y="94.4" width="231.7" height="252.7"></rect><path class="st1" d="M317.9,347.6H86.2c-0.3,0-0.5-0.2-0.5-0.5V94.4c0-0.3,0.2-0.5,0.5-0.5h231.7c0.3,0,0.5,0.2,0.5,0.5v252.7
		C318.4,347.4,318.2,347.6,317.9,347.6z M86.7,346.5h230.7V94.9H86.7L86.7,346.5z"></path><circle class="st2" cx="186.4" cy="85.2" r="3.4"></circle><path class="st1" d="M186.4,89.1c-2.1,0-3.9-1.7-3.9-3.9s1.7-3.9,3.9-3.9c2.1,0,3.9,1.7,3.9,3.9c0,0,0,0,0,0
		C190.3,87.4,188.6,89.1,186.4,89.1C186.4,89.1,186.4,89.1,186.4,89.1z M186.4,82.4c-1.6,0-2.9,1.3-2.9,2.8s1.3,2.9,2.8,2.9
		c1.6,0,2.9-1.3,2.9-2.8c0,0,0,0,0,0C189.2,83.7,188,82.4,186.4,82.4L186.4,82.4z"></path><path class="st2" d="M197.2,83.1h22c1,0,1.8,0.8,1.8,1.8v0.7c0,1-0.8,1.8-1.8,1.8h-22c-1,0-1.8-0.8-1.8-1.8v-0.7
		C195.3,83.9,196.1,83.1,197.2,83.1z"></path><path class="st1" d="M219.2,88h-22c-1.3,0-2.4-1.1-2.4-2.4V85c0-1.3,1.1-2.4,2.4-2.4h22c1.3,0,2.3,1,2.3,2.3v0.6
		C221.6,86.9,220.5,88,219.2,88z M197.2,83.6c-0.7,0-1.3,0.6-1.3,1.3v0.6c0,0.7,0.6,1.3,1.3,1.3h22c0.7,0,1.3-0.6,1.3-1.4
		c0,0,0,0,0,0v-0.6c0-0.7-0.6-1.3-1.3-1.3L197.2,83.6z"></path></g><g id="new-post"><path class="st0" d="M278.1,173.2v82.2c0,3-2.4,5.4-5.4,5.4h-57.3c-1.6,0-3.1,0.7-4.1,2l-7.7,9.3c-0.7,0.8-1.8,0.9-2.6,0.2
		c-0.1-0.1-0.2-0.1-0.2-0.2l-7.7-9.3c-1-1.2-2.5-1.9-4.1-2h-57.3c-3,0-5.4-2.4-5.4-5.4v-82.2c0-3,2.4-5.4,5.4-5.4h141.2
		C275.6,167.8,278.1,170.2,278.1,173.2z"></path><path class="st1" d="M202,273.2c-0.7,0-1.4-0.3-1.8-0.9l-7.7-9.3c-0.9-1.1-2.3-1.8-3.8-1.8h-57.3c-3.3,0-5.9-2.7-5.9-5.9v-82.2
		c0-3.3,2.7-5.9,5.9-5.9h141.2c3.3,0,5.9,2.7,5.9,5.9v82.2c0,3.3-2.7,5.9-5.9,5.9h-57.3c-1.5,0-2.8,0.7-3.8,1.8l-7.7,9.3
		C203.4,272.8,202.8,273.2,202,273.2z M131.5,168.3c-2.7,0-4.9,2.2-4.9,4.9v82.2c0,2.7,2.2,4.9,4.9,4.9h57.3c1.8,0,3.4,0.8,4.6,2.1
		l7.7,9.3c0.5,0.6,1.4,0.6,2,0.1c0,0,0.1-0.1,0.1-0.1l7.7-9.3c1.1-1.4,2.8-2.1,4.6-2.1h57.3c2.7,0,4.9-2.2,4.9-4.9v-82.2
		c0-2.7-2.2-4.9-4.9-4.9H131.5z"></path><path class="st2" d="M178.5,211.2v-24.8h3.4l5.4,14.9h0.1v-14.9h3.6v24.8h-3.3l-5.4-14.9h-0.1v14.9H178.5z"></path><path class="st2" d="M194.1,211.2v-24.8h10.6v3.3h-7v7.2h6.1v3.3h-6.1v7.2h7v3.6H194.1z"></path><path class="st2" d="M225.4,186.4l-3.7,24.8h-3.3l-2.7-16.1h-0.1l-2.7,16.1h-3.3l-3.7-24.8h3.8l1.8,15.7h0.1l2.8-15.7h2.7l2.9,16.1
		h0.1l1.7-16.1H225.4z"></path><path class="st2" d="M176.5,241.7V217h5.3c0.9,0,1.7,0.1,2.6,0.4c0.8,0.3,1.5,0.7,2.1,1.4c0.6,0.6,1,1.4,1.2,2.3
		c0.3,1.2,0.4,2.3,0.4,3.5c0,0.9-0.1,1.9-0.2,2.8c-0.1,0.8-0.4,1.5-0.8,2.2c-0.5,0.8-1.1,1.4-1.9,1.9c-1,0.5-2.1,0.7-3.2,0.7h-1.8
		v9.7L176.5,241.7z M180.1,220.3v8.4h1.7c0.6,0,1.2-0.1,1.7-0.3c0.4-0.2,0.7-0.5,0.9-0.9c0.2-0.4,0.3-0.8,0.3-1.3
		c0-0.5,0.1-1,0.1-1.7s0-1.1,0-1.7c0-0.5-0.1-0.9-0.3-1.4c-0.2-0.4-0.5-0.7-0.8-0.9c-0.5-0.2-1-0.3-1.6-0.3H180.1z"></path><path class="st2" d="M190.5,222.8c0-0.9,0.2-1.8,0.5-2.7c0.3-0.7,0.8-1.4,1.4-1.9c0.6-0.5,1.2-0.9,1.9-1.1c1.4-0.5,2.9-0.5,4.3,0
		c0.7,0.3,1.4,0.6,1.9,1.1c0.6,0.5,1,1.2,1.4,1.9c0.4,0.8,0.5,1.7,0.5,2.7v13.1c0,0.9-0.2,1.8-0.5,2.7c-0.6,1.4-1.8,2.5-3.3,3
		c-1.4,0.5-2.9,0.5-4.3,0c-0.7-0.2-1.3-0.6-1.9-1.1c-0.6-0.5-1.1-1.1-1.4-1.8c-0.4-0.8-0.6-1.8-0.5-2.7V222.8z M194,235.9
		c-0.1,0.7,0.2,1.4,0.7,1.9c1,0.8,2.4,0.8,3.4,0c0.5-0.5,0.8-1.2,0.7-1.9v-13.1c0.1-0.7-0.2-1.4-0.7-1.9c-1-0.8-2.4-0.8-3.4,0
		c-0.5,0.5-0.8,1.2-0.7,1.9V235.9z"></path><path class="st2" d="M217,224.1h-3.6v-0.8c0-0.7-0.2-1.4-0.6-2.1c-0.4-0.6-1.2-1-1.9-0.9c-0.4,0-0.8,0.1-1.2,0.3
		c-0.3,0.2-0.5,0.4-0.7,0.7c-0.2,0.3-0.3,0.7-0.4,1c-0.1,0.4-0.1,0.8-0.1,1.2c0,0.4,0,0.8,0.1,1.2c0,0.3,0.1,0.6,0.3,0.9
		c0.1,0.3,0.4,0.5,0.6,0.7c0.3,0.2,0.7,0.4,1.1,0.6l2.7,1c0.7,0.2,1.3,0.6,1.9,1c0.5,0.4,0.9,0.9,1.1,1.4c0.3,0.6,0.5,1.2,0.5,1.9
		c0.1,0.8,0.1,1.6,0.1,2.4c0,1-0.1,2-0.3,2.9c-0.2,0.8-0.5,1.6-1,2.3c-0.5,0.7-1.2,1.2-1.9,1.5c-0.9,0.4-1.9,0.6-2.9,0.5
		c-0.8,0-1.6-0.1-2.4-0.4c-0.7-0.3-1.4-0.7-1.9-1.3c-0.5-0.5-1-1.2-1.3-1.9c-0.3-0.7-0.5-1.5-0.5-2.3v-1.3h3.6v1.1
		c0,0.6,0.2,1.3,0.6,1.8c0.5,0.6,1.2,0.9,1.9,0.8c0.5,0,1-0.1,1.4-0.3c0.3-0.2,0.6-0.4,0.8-0.7c0.2-0.4,0.3-0.8,0.3-1.2
		c0-0.5,0-1,0-1.5c0-0.6,0-1.2-0.1-1.6c0-0.4-0.1-0.7-0.3-1c-0.2-0.3-0.4-0.5-0.6-0.6c-0.3-0.2-0.7-0.4-1-0.5l-2.5-1
		c-1.3-0.4-2.4-1.3-3.1-2.5c-0.6-1.2-0.8-2.5-0.8-3.9c0-0.9,0.1-1.8,0.4-2.6c0.2-0.8,0.6-1.5,1.1-2.2c0.5-0.6,1.1-1.1,1.9-1.4
		c0.8-0.4,1.8-0.6,2.7-0.5c0.8,0,1.7,0.2,2.4,0.5c0.7,0.3,1.4,0.7,1.9,1.3c1,1,1.6,2.4,1.6,3.8L217,224.1z"></path><path class="st2" d="M221.9,241.7v-21.4h-4.1V217h11.8v3.3h-4.1v21.4H221.9z"></path><path class="st1" d="M301.3,175h-14c-0.3,0-0.5-0.2-0.5-0.5s0.2-0.5,0.5-0.5h14c0.3,0,0.5,0.2,0.5,0.5S301.6,175,301.3,175
		L301.3,175z"></path><path class="st1" d="M282,165.2c-0.2,0-0.3-0.1-0.4-0.2c-0.2-0.2-0.1-0.5,0.1-0.7l14.3-11.7c0.2-0.2,0.5-0.2,0.7,0.1c0,0,0,0,0,0
		c0.2,0.2,0.2,0.5-0.1,0.7c0,0,0,0,0,0l-14.3,11.7C282.2,165.2,282.1,165.2,282,165.2z"></path><path class="st1" d="M272.3,159.4c-0.3,0-0.5-0.2-0.5-0.5v-11.5c0-0.3,0.2-0.5,0.5-0.5s0.5,0.2,0.5,0.5v11.5
		C272.9,159.2,272.6,159.4,272.3,159.4z"></path></g><g id="paper"><path class="st2" d="M459.3,438.4H310.2c-11.2-1.8-14.8-17.1-18.6-34c-4.9-21.8-10-46.4-31.5-47.9h149.1
		C447.3,359.2,433.7,434.2,459.3,438.4z"></path><path class="st1" d="M459.3,438.9H310.2c-11.8-1.9-15.5-18.5-19.2-34.5l-0.3-1.3c-4.7-21-10-44.7-30.7-46.3c-0.3,0-0.5-0.3-0.5-0.5
		c0-0.3,0.2-0.5,0.5-0.5h149.1c21.5,1.6,26.9,25.7,31.7,47.1c3.8,17,7.4,33.1,18.5,34.9c0.3,0,0.5,0.3,0.4,0.6
		C459.8,438.7,459.6,438.9,459.3,438.9z M265.7,356.9c16.8,5.1,21.7,26.7,26,46l0.3,1.3c3.5,15.7,7.2,31.9,18.2,33.6h145.6
		c-9.2-4.3-12.5-19.1-16-34.7c-4.7-21-10-44.7-30.8-46.3L265.7,356.9z"></path><path class="st2" d="M285.5,356.4H260c-38.2-2.8-41,47.9-78.5,47.9s-52.1-53.5-52.1-106h149.1C278.5,318.6,280.7,339,285.5,356.4z"></path><path class="st1" d="M181.5,404.8c-17.4,0-31.4-11.6-40.6-33.6c-7.8-18.5-12-44.4-12-72.9c0-0.3,0.2-0.5,0.5-0.5h149.1
		c0.3,0,0.5,0.2,0.5,0.5c0,21.4,2.4,41.4,7,57.9c0.1,0.3-0.1,0.6-0.4,0.6c0,0-0.1,0-0.1,0H260c-19.2-1.4-29.2,10.7-39.7,23.5
		C210.4,392.4,200.1,404.8,181.5,404.8z M129.9,298.9c0.1,28.1,4.3,53.7,11.9,72c9.2,21.9,22.5,33,39.6,33c18.2,0,28.2-12.3,38-24.1
		c10.2-12.4,20.8-25.3,40.5-23.8h24.9c-4.4-16.3-6.8-36-6.8-57H129.9z"></path><path class="st2" d="M393.3,356.4h-5.8C389.5,356.2,391.4,356.2,393.3,356.4z"></path><path class="st1" d="M393.3,356.9h-5.8c-0.3,0-0.5-0.2-0.5-0.5c0-0.3,0.2-0.5,0.5-0.5c2-0.1,3.9-0.1,5.9,0c0.3,0,0.5,0.2,0.5,0.5
		S393.7,356.9,393.3,356.9L393.3,356.9z"></path><path class="st0" d="M291.5,404.3h-110c37.5,0,40.3-50.7,78.5-47.9C281.5,358,286.6,382.5,291.5,404.3z"></path><path class="st1" d="M291.5,404.8h-110c-0.3,0-0.5-0.2-0.5-0.5c0-0.3,0.2-0.5,0.5-0.5c18.2,0,28.2-12.3,38-24.1
		c10.2-12.4,20.8-25.3,40.5-23.8c21.5,1.6,26.9,25.7,31.7,47.1l0.3,1.3c0,0.2,0,0.3-0.1,0.4C291.8,404.8,291.6,404.8,291.5,404.8z
		 M190.4,403.8h100.4l-0.1-0.7c-4.7-21-10-44.7-30.7-46.3c-19.2-1.4-29.1,10.7-39.7,23.5C212.1,390.3,203.6,400.6,190.4,403.8z"></path><path class="st1" d="M176.5,314.9h-32.9c-0.3,0-0.5-0.2-0.5-0.5c0-0.3,0.2-0.5,0.5-0.5h32.9c0.3,0,0.5,0.2,0.5,0.5
		S176.8,314.9,176.5,314.9z"></path><path class="st1" d="M214.7,328.6h-69.2c-0.3,0-0.5-0.2-0.5-0.5s0.2-0.5,0.5-0.5h69.2c0.3,0,0.5,0.2,0.5,0.5
		C215.2,328.4,215,328.6,214.7,328.6z"></path><path class="st1" d="M246.6,341.1h-98.8c-0.3,0-0.5-0.2-0.5-0.5s0.2-0.5,0.5-0.5h98.8c0.3,0,0.5,0.2,0.5,0.5
		S246.9,341.1,246.6,341.1z"></path></g><g id="pen"><path class="st0" d="M352.4,200.6l-16.2,16.2c0.5,1.1,1.4,2,2.5,2.6l16.3-16.2c0.3-0.3,0.5-0.7,0.5-1.1c0.1-1-0.6-1.9-1.6-2
		C353.4,200,352.8,200.2,352.4,200.6L352.4,200.6z"></path><path class="st1" d="M338.7,219.9c-0.1,0-0.2,0-0.2-0.1c-1.2-0.6-2.1-1.6-2.7-2.9c-0.1-0.2,0-0.4,0.1-0.6l16.2-16.2
		c0.4-0.5,1.1-0.7,1.7-0.7c1.3,0,2.3,1.1,2.3,2.4c0,0.1,0,0.1,0,0.2c-0.1,0.5-0.3,1-0.7,1.4l-16.2,16.2
		C339,219.9,338.8,219.9,338.7,219.9z M336.8,216.9c0.4,0.8,1.1,1.4,1.8,1.9l16-15.9c0.2-0.2,0.3-0.5,0.4-0.8c0-0.4-0.1-0.8-0.3-1
		c-0.2-0.3-0.6-0.4-0.9-0.4c-0.4,0-0.7,0.1-0.9,0.4l0,0L336.8,216.9z M352.4,200.6L352.4,200.6z"></path><path class="st1" d="M227.8,328.4l-4.5,3.6c-0.1,0.1-0.2,0.1-0.3,0c-0.1-0.1-0.1-0.2,0-0.3l3.6-5L227.8,328.4z"></path><path class="st1" d="M223,332.6c-0.2,0-0.4-0.1-0.5-0.2c-0.3-0.3-0.3-0.7-0.1-1l3.6-5c0.1-0.1,0.2-0.2,0.4-0.2
		c0.2,0,0.3,0.1,0.4,0.2l1.3,1.7c0.2,0.2,0.1,0.5-0.1,0.7l-4.5,3.6C223.4,332.5,223.2,332.6,223,332.6z M226.4,327.6l-1.9,2.7l2.5-2
		L226.4,327.6z"></path><path class="st0" d="M258,286.3c2.9,6.2,8.8,9.8,10.5,10.8l13.6-13.6c-1.9-1-7.7-4.7-10.5-10.9L258,286.3z"></path><path class="st1" d="M268.5,297.6c-0.1,0-0.2,0-0.2-0.1c-1.8-1-7.8-4.6-10.7-11c-0.1-0.2-0.1-0.4,0.1-0.6l13.7-13.7
		c0.1-0.1,0.3-0.2,0.5-0.1c0.2,0,0.3,0.1,0.4,0.3c2.7,6.1,8.5,9.7,10.2,10.6c0.1,0.1,0.2,0.2,0.3,0.4c0,0.2,0,0.3-0.1,0.4
		l-13.6,13.6C268.8,297.6,268.7,297.6,268.5,297.6z M258.6,286.4c2.7,5.6,7.8,8.9,9.8,10.1l12.9-12.8c-4.1-2.4-7.5-5.9-9.8-10.1
		L258.6,286.4z"></path><path class="st2" d="M339.1,205.5l-67.4,67.1c2.8,6.2,8.6,9.8,10.5,10.9l67.6-67.3c2.9-3,2.7-7.8-0.3-10.7
		C346.6,202.8,342,202.8,339.1,205.5L339.1,205.5z"></path><path class="st1" d="M282.2,284.1c-0.1,0-0.2,0-0.3-0.1c-2.3-1.3-7.9-4.9-10.7-11.1c-0.1-0.2-0.1-0.4,0.1-0.6l67.4-67.1
		c3.1-3.1,8.2-3.1,11.4,0c0.1,0.1,0.1,0.1,0.2,0.2c1.6,1.7,2.4,4,2.2,6.3c-0.2,1.9-1,3.6-2.3,4.9l-67.6,67.3
		C282.4,284,282.3,284.1,282.2,284.1z M272.3,272.8c2.6,5.6,7.8,9,9.8,10.1l67.3-67c1.2-1.2,1.9-2.7,2.1-4.3c0.2-2-0.5-4-1.9-5.5
		c-2.7-2.8-7.1-3-9.9-0.3c-0.1,0-0.1,0.1-0.2,0.2l0,0L272.3,272.8z M339.1,205.5L339.1,205.5z"></path><path class="st2" d="M228,330.1l7.5-2c1.9-0.5,3.6-1.5,5-2.8l28-28.2c-1.8-1-7.7-4.5-10.5-10.8l-28,28.2c-1.3,1.3-2.2,2.8-2.8,4.6
		l-2.4,7.8c-0.4,1.4,0.4,2.8,1.7,3.2C227,330.2,227.5,330.3,228,330.1z"></path><path class="st1" d="M227.3,330.7c-1.7,0-3.1-1.4-3.1-3.1c0-0.3,0-0.6,0.1-0.9l2.4-7.8c0.6-1.8,1.6-3.4,2.9-4.8l28-28.2
		c0.1-0.1,0.3-0.2,0.5-0.1c0.2,0,0.3,0.1,0.4,0.3c2.8,6.1,8.6,9.6,10.3,10.6c0.1,0.1,0.2,0.2,0.3,0.4c0,0.2,0,0.3-0.1,0.4l-28,28.2
		c-1.5,1.4-3.3,2.5-5.2,3l-7.5,2l0,0C227.8,330.7,227.6,330.7,227.3,330.7z M228,330.1L228,330.1z M257.9,287.2l-27.5,27.7
		c-1.2,1.2-2.1,2.7-2.6,4.3l-2.4,7.8c-0.3,1.1,0.3,2.3,1.4,2.6c0.4,0.1,0.8,0.1,1.1,0l7.5-2c1.8-0.5,3.4-1.4,4.8-2.7l27.6-27.7
		C263.6,294.9,260.2,291.4,257.9,287.2L257.9,287.2z"></path><path class="st1" d="M239.1,327c-0.1,0-0.2,0-0.2-0.1c-0.3-0.1-7.6-3.7-10.5-11c-0.1-0.3,0-0.6,0.3-0.7c0.3-0.1,0.6,0,0.7,0.3
		c0,0,0,0,0,0c2.8,6.9,9.9,10.4,10,10.4c0.3,0.1,0.5,0.3,0.4,0.6C239.7,326.9,239.4,327.1,239.1,327L239.1,327z"></path><path class="st1" d="M320.8,220.4c-0.1,0-0.3-0.1-0.4-0.2c-0.2-0.2-0.2-0.5,0-0.7c0,0,0,0,0,0l13.3-13c0.8-0.8,2.1-0.8,2.9,0
		l0.8,0.8c0.2,0.2,0.2,0.5,0,0.7c0,0,0,0,0,0c-0.2,0.2-0.5,0.2-0.7,0c0,0,0,0,0,0l-0.8-0.8c-0.4-0.4-1-0.4-1.4,0l-13.3,13
		C321,220.3,320.9,220.4,320.8,220.4z"></path><path class="st1" d="M325.6,240.8c-0.1,0-0.2,0-0.2-0.1c-1.8-1-7.8-4.6-10.7-11c-0.1-0.3,0-0.6,0.3-0.7c0.3-0.1,0.6,0,0.7,0.2
		c0,0,0,0,0,0c2.8,6.1,8.6,9.6,10.3,10.6c0.2,0.1,0.3,0.5,0.2,0.7C326,240.7,325.8,240.8,325.6,240.8z"></path></g></svg>