<svg transform="scale(1)" version="1.1" id="_x30_029_x5F_creative-process" xmlns="http://www.w3.org/2000/svg" xmlns:xlink="http://www.w3.org/1999/xlink" x="0px" y="0px" viewBox="0 0 500 500" xml:space="preserve" class="show_show__wrapper__graphic__5Waiy "><title>React</title><style type="text/css">
	.st0{fill:#F75454;}
	.st1{fill:#FFFFFF;}
	.st2{fill:#732A09;}
</style><g id="gear-3"><path class="st0" d="M429,238.3L429,238.3l-0.1-0.2l-4.6-6.5l-1.7,1.6l-9-6.8c-0.6-0.5-0.9-1.3-0.8-2.1c0-0.4,0.1-0.7,0.1-1.1v-4.6
		c0-0.4,0-0.8,0-1.1c-0.1-0.7,0.3-1.4,0.8-1.9l15-11.3c0.9-0.7,1.1-1.9,0.6-2.8l-16.7-28.9l-5.5-7.6l-3,5.5l3.1,2.2l-14.7,6.2
		c-0.7,0.3-1.5,0.2-2.1-0.2c-1-0.7-1.9-1.3-2.9-1.9c-1-0.6-2-1.1-3-1.6c-0.7-0.3-1.2-1-1.3-1.7l-2.3-18.5c-0.1-0.4-0.2-0.8-0.5-1.1
		l0,0l-5-7.1l-2,6.4h-28c-1.1,0-2,0.8-2.1,1.9l-2.3,18.6c-0.1,0.7-0.5,1.4-1.2,1.7c-1,0.4-2,1-3,1.6s-2,1.2-3,1.9
		c-0.6,0.4-1.4,0.5-2,0.2l-17.3-7.2c-1-0.4-2.2,0-2.7,0.9L297.5,197l-1.4-2l-6.4,1.2l4.8,6.8l0,0c0.1,0.5,0.4,1,0.8,1.3l15,11.3
		c0.6,0.4,0.9,1.1,0.8,1.9c0,0.4,0,0.8,0,1.1v4.6c0,0.4,0,0.7,0,1.1c0.1,0.7-0.2,1.4-0.8,1.9l-15,11.3c-0.9,0.7-1.1,1.9-0.6,2.8
		l13,22.4l-0.5,0.2l4.2,6.3c0.6,0.9,1.7,1.3,2.7,0.9l17.3-7.3c0.7-0.3,1.5-0.2,2.1,0.2c1,0.6,1.9,1.3,2.9,1.9c1,0.6,2,1.1,3,1.6
		c0.7,0.3,1.2,0.9,1.3,1.7l1.2,10.3l-3,0.3v2.4l4.2,6.1c0.1,0.2,0.2,0.4,0.4,0.5l0.1,0.1l0,0c0.4,0.4,0.9,0.6,1.5,0.6h33.5
		c1.1,0,2-0.8,2.1-1.9l2.3-18.6c0.1-0.7,0.5-1.4,1.2-1.7c1-0.5,2-1,3-1.6s2-1.2,3-1.9c0.6-0.4,1.4-0.5,2.1-0.2l17.1,7.3
		c1,0.4,2.2,0,2.7-0.9l16.8-28.9C429.4,239.7,429.4,238.9,429,238.3L429,238.3z M362,250.4c-16.3,0-29.4-13.2-29.4-29.4
		c0-16.3,13.2-29.4,29.4-29.4c16.3,0,29.4,13.2,29.4,29.4l0,0C391.4,237.2,378.3,250.4,362,250.4C362,250.4,362,250.4,362,250.4
		L362,250.4z"></path><path class="st1" d="M408.7,219.4c-0.6-0.5-0.9-1.3-0.8-2.1c0-0.4,0.1-0.7,0.1-1.1v-4.6c0-0.4,0-0.8,0-1.1c0-0.7,0.3-1.4,0.8-1.9
		l15-11.3c0.9-0.7,1.1-1.9,0.6-2.8l-16.7-28.9c-0.5-0.9-1.7-1.3-2.7-0.9l-17.4,7.2c-0.7,0.3-1.5,0.2-2.1-0.2
		c-0.9-0.7-1.9-1.3-2.9-1.9c-1-0.6-2-1.1-3-1.6c-0.7-0.3-1.2-0.9-1.3-1.7l-2.4-18.5c-0.1-1.1-1.1-1.9-2.2-1.9h-33.4
		c-1.1,0-2,0.8-2.1,1.9l-2.3,18.6c-0.1,0.7-0.5,1.4-1.2,1.7c-1,0.4-2,1-3,1.6s-2,1.2-3,1.9c-0.6,0.4-1.4,0.5-2,0.2l-17.3-7.2
		c-1-0.4-2.2,0-2.7,0.9L290,194.6c-0.6,1-0.3,2.2,0.6,2.8l15,11.3c0.6,0.4,0.9,1.2,0.8,1.9c0,0.4,0,0.8,0,1.1v4.6c0,0.4,0,0.7,0,1.1
		c0.1,0.7-0.3,1.4-0.8,1.9l-15,11.3c-0.9,0.7-1.1,1.9-0.6,2.8l16.7,28.9c0.5,0.9,1.7,1.3,2.7,0.9l17.3-7.2c0.7-0.3,1.5-0.2,2.1,0.2
		c0.9,0.6,1.9,1.3,2.9,1.9c1,0.6,2,1.1,3,1.6c0.7,0.3,1.2,0.9,1.3,1.7l2.3,18.5c0.1,1.1,1.1,1.9,2.1,1.9h33.4c1.1,0,2-0.8,2.2-1.9
		l2.3-18.6c0.1-0.7,0.5-1.4,1.2-1.7c1-0.5,2-1,3-1.6s2-1.2,3-1.9c0.6-0.4,1.4-0.5,2.1-0.2l17.1,7.2c1,0.4,2.2,0,2.7-0.9l16.7-28.9
		c0.6-1,0.3-2.2-0.6-2.8L408.7,219.4z M357.1,243.4c-16.3,0-29.4-13.2-29.4-29.4c0-16.3,13.2-29.4,29.4-29.4
		c16.2,0,29.4,13.2,29.4,29.4C386.6,230.3,373.4,243.4,357.1,243.4C357.1,243.5,357.1,243.5,357.1,243.4L357.1,243.4z"></path><path class="st2" d="M373.8,282.3h-33.4c-1.4,0-2.5-1-2.6-2.4l-2.3-18.5c-0.1-0.6-0.5-1.1-1-1.3c-1.1-0.5-2.1-1-3.1-1.6
		c-1-0.6-1.9-1.2-2.9-1.9c-0.5-0.3-1.1-0.4-1.6-0.2l-17.3,7.3c-1.2,0.5-2.7,0-3.4-1.1l-16.7-28.9c-0.7-1.2-0.4-2.7,0.7-3.5l15-11.3
		c0.5-0.3,0.7-0.9,0.6-1.4v-0.2c0-0.3,0-0.7,0-1v-4.6c0-0.3,0-0.7,0-1v-0.1c0.1-0.6-0.2-1.1-0.6-1.4l-15-11.3
		c-1.1-0.8-1.4-2.3-0.7-3.5l16.7-28.9c0.7-1.2,2.1-1.6,3.4-1.1l17.3,7.2c0.5,0.2,1.1,0.2,1.6-0.1c1.1-0.7,2-1.3,3-1.9
		c1-0.6,2-1.1,3.1-1.6c0.5-0.3,0.8-0.7,0.9-1.3l2.3-18.6c0.2-1.3,1.3-2.3,2.6-2.3h33.4c1.4,0,2.5,1,2.6,2.4l2.3,18.5
		c0.1,0.6,0.5,1.1,1,1.3c1.1,0.5,2.1,1,3.1,1.6c1.2,0.7,2.1,1.3,2.9,1.9c0.5,0.3,1.1,0.4,1.6,0.2l17.3-7.3c1.2-0.5,2.7,0,3.4,1.1
		l16.7,28.9c0.7,1.2,0.4,2.7-0.7,3.5l-15,11.3c-0.4,0.4-0.7,0.9-0.6,1.5c0,0.4,0,0.8,0,1.2v4.6c0,0.4,0,0.7-0.1,1.1
		c-0.1,0.6,0.2,1.2,0.6,1.5l14.8,11.2c1.1,0.8,1.4,2.3,0.7,3.5l-16.7,28.9c-0.7,1.2-2.1,1.7-3.4,1.1l-17.1-7.2
		c-0.5-0.2-1.1-0.2-1.6,0.1c-0.9,0.6-1.9,1.3-3,1.9s-2,1.1-3,1.6c-0.5,0.2-0.9,0.7-0.9,1.3l-2.3,18.6
		C376.3,281.3,375.2,282.3,373.8,282.3z M327.5,255.3c0.5,0,1.1,0.2,1.5,0.5c1,0.7,1.9,1.3,2.8,1.8c1,0.6,2,1.1,3,1.5
		c0.9,0.4,1.5,1.2,1.6,2.1l2.3,18.5c0.1,0.8,0.8,1.5,1.7,1.5h33.4c0.8,0,1.6-0.6,1.7-1.5l2.3-18.6c0.1-0.9,0.7-1.7,1.5-2.1
		c1-0.5,2-1,3-1.5s2-1.3,2.9-1.9c0.8-0.5,1.7-0.6,2.5-0.2l17.1,7.3c0.8,0.3,1.7,0,2.1-0.7l16.7-28.9c0.4-0.7,0.2-1.7-0.5-2.2
		l-14.8-11.2l0,0c-0.8-0.6-1.2-1.6-1-2.5c0-0.3,0-0.6,0-1v-4.6c0-0.4,0-0.7,0-1.1c-0.1-0.9,0.3-1.8,1-2.4l15-11.3
		c0.7-0.5,0.9-1.4,0.5-2.2l-16.7-28.9c-0.4-0.7-1.3-1-2.1-0.7l-17.3,7.2c-0.8,0.4-1.8,0.3-2.6-0.3c-0.8-0.6-1.7-1.1-2.8-1.8
		c-1-0.6-2-1.1-3-1.6c-0.9-0.4-1.5-1.2-1.6-2.1l-2.3-18.5c-0.1-0.8-0.8-1.5-1.7-1.5h-33.5c-0.8,0-1.6,0.6-1.7,1.5l-2.3,18.6
		c-0.1,0.9-0.7,1.7-1.5,2.1c-0.9,0.4-1.9,0.9-3,1.5c-0.9,0.6-1.9,1.2-2.9,1.9c-0.7,0.5-1.7,0.6-2.5,0.2l-17.3-7.2
		c-0.8-0.3-1.7,0-2.1,0.7l-16.7,28.9c-0.4,0.7-0.2,1.7,0.4,2.2l15,11.3c0.7,0.6,1.1,1.4,1,2.3v0.1c0,0.3,0,0.7,0,1v4.6
		c0,0.3,0,0.6,0,0.9v0.1c0.1,0.9-0.3,1.8-1,2.3l-15,11.3c-0.7,0.5-0.9,1.4-0.4,2.2l16.7,28.9c0.4,0.7,1.3,1,2.1,0.7l17.3-7.3
		C326.8,255.4,327.2,255.4,327.5,255.3L327.5,255.3z M357.1,244c-16.5,0-29.9-13.4-29.9-29.9c0-16.5,13.4-29.9,29.9-29.9
		c16.5,0,29.9,13.4,29.9,29.9C387.1,230.5,373.7,244,357.1,244z M357.1,185.1c-16,0-28.9,13-28.9,28.9c0,16,13,28.9,28.9,28.9
		s28.9-13,28.9-28.9c0,0,0,0,0-0.1C386,198.1,373.1,185.1,357.1,185.1L357.1,185.1z"></path></g><g id="gear-2"><path class="st0" d="M223,360.7L223,360.7l-0.1-0.2l-5-7.2l-2,1.8l-10-7.5c-0.7-0.5-1-1.4-0.9-2.3c0-0.4,0.1-0.8,0.1-1.2v-5
		c0-0.4,0-0.8,0-1.2c-0.1-0.8,0.3-1.6,0.9-2.1l16.6-12.5c1-0.7,1.2-2.1,0.6-3.1l-18.5-32l-6-8.4l-3.4,6.1l3.4,2.4l-16.2,6.8
		c-0.8,0.3-1.6,0.2-2.3-0.2c-1-0.7-2.1-1.4-3.2-2.1c-1.1-0.7-2.2-1.2-3.4-1.8c-0.8-0.3-1.3-1-1.4-1.9l-2.6-20.5
		c-0.1-0.5-0.3-0.9-0.6-1.3l0,0l-5.6-7.9l-2.2,7.1h-31c-1.2,0-2.2,0.9-2.4,2.1l-2.6,20.5c-0.1,0.8-0.6,1.5-1.3,1.9
		c-1.1,0.5-2.2,1.1-3.3,1.7s-2.2,1.4-3.3,2.1c-0.7,0.5-1.5,0.5-2.3,0.2l-19.1-8c-1.1-0.5-2.4,0-3,1l-15.6,27l-1.4-2.1l-7.1,1.3
		l5.3,7.5l0,0c0.1,0.6,0.4,1.1,0.9,1.5l16.6,12.5c0.7,0.5,1,1.3,0.9,2.1c0,0.4,0,0.8,0,1.2v4.9c0,0.4,0,0.8,0,1.2
		c0.1,0.8-0.3,1.6-0.9,2.1L75,359.9c-0.9,0.7-1.2,2.1-0.6,3.1l14.3,24.8l-0.5,0.3l4.7,6.9c0.6,1,1.9,1.5,3,1l19.1-8
		c0.8-0.3,1.6-0.2,2.3,0.2c1,0.7,2.1,1.4,3.2,2.1c1.1,0.6,2.2,1.2,3.3,1.7c0.8,0.3,1.3,1,1.4,1.9l1.4,11.4l-3.3,0.3v2.7l4.7,6.8
		c0.1,0.2,0.2,0.4,0.4,0.6l0.1,0.1l0,0c0.4,0.4,1,0.7,1.7,0.7h37c1.2,0,2.2-0.9,2.4-2.1l2.6-20.6c0.1-0.8,0.6-1.6,1.4-1.9
		c1.1-0.5,2.2-1.1,3.3-1.7s2.2-1.4,3.3-2.1c0.7-0.4,1.5-0.5,2.3-0.2l18.9,8c1.1,0.5,2.4,0,3-1l18.5-32
		C223.3,362.3,223.3,361.4,223,360.7L223,360.7z M148.8,374c-18,0-32.6-14.6-32.6-32.6c0-18,14.6-32.6,32.6-32.6
		s32.6,14.6,32.6,32.6S166.8,374,148.8,374C148.8,374,148.8,374,148.8,374L148.8,374z"></path><path class="st1" d="M200.6,339.8c-0.7-0.5-1-1.4-0.9-2.3c0-0.4,0.1-0.8,0.1-1.2v-5.1c0-0.4,0-0.8,0-1.2c-0.1-0.8,0.3-1.6,0.9-2.1
		l16.6-12.5c1-0.7,1.2-2.1,0.6-3.1l-18.5-32c-0.6-1-1.9-1.5-3-1l-19.1,8c-0.8,0.3-1.6,0.2-2.3-0.2c-1-0.7-2.1-1.4-3.2-2.1
		c-1.1-0.7-2.2-1.2-3.4-1.8c-0.8-0.3-1.3-1-1.4-1.9l-2.6-20.5c-0.1-1.2-1.2-2.1-2.4-2.1h-37c-1.2,0-2.2,0.9-2.4,2.1l-2.6,20.6
		c-0.1,0.8-0.6,1.5-1.3,1.9c-1.1,0.5-2.2,1.1-3.3,1.7s-2.2,1.4-3.3,2.1c-0.7,0.5-1.5,0.5-2.3,0.2l-19.1-8c-1.1-0.5-2.4,0-3,1
		l-18.5,32c-0.6,1.1-0.3,2.4,0.6,3.1L86.3,328c0.6,0.5,1,1.3,0.9,2.1c0,0.4,0,0.8,0,1.2v5.1c0,0.4,0,0.8,0,1.2
		c0.1,0.8-0.3,1.6-0.9,2.1l-16.6,12.5c-1,0.7-1.2,2.1-0.6,3.1l18.5,32c0.6,1,1.9,1.5,3,1l19.1-8c0.8-0.3,1.6-0.2,2.3,0.2
		c1,0.7,2.1,1.4,3.2,2.1c1.1,0.6,2.2,1.2,3.3,1.8c0.8,0.3,1.3,1,1.4,1.9l2.6,20.5c0.1,1.2,1.2,2.1,2.4,2.1h37c1.2,0,2.2-0.9,2.4-2.1
		l2.6-20.5c0.1-0.8,0.6-1.5,1.4-1.9c1.1-0.5,2.2-1.1,3.3-1.7s2.2-1.4,3.3-2.1c0.7-0.5,1.5-0.5,2.3-0.2l18.9,8c1.1,0.5,2.4,0,3-1
		l18.5-32c0.6-1.1,0.3-2.4-0.6-3.1L200.6,339.8z M143.4,366.4c-18,0-32.6-14.6-32.6-32.6c0-18,14.6-32.6,32.6-32.6
		s32.6,14.6,32.6,32.6c0,0,0,0,0,0C176,351.8,161.4,366.4,143.4,366.4L143.4,366.4z"></path><path class="st2" d="M161.9,409.4h-37c-1.5,0-2.7-1.1-2.9-2.5l-2.6-20.5c-0.1-0.7-0.5-1.2-1.1-1.5c-1.2-0.5-2.3-1.1-3.4-1.8
		c-1.1-0.6-2.1-1.3-3.2-2.1c-0.5-0.4-1.2-0.4-1.8-0.2l-19.2,8c-1.3,0.6-2.9,0-3.6-1.2l-18.5-32c-0.7-1.3-0.4-2.9,0.8-3.8L86,339.3
		c0.5-0.4,0.8-1,0.7-1.6v-0.2c0-0.4,0-0.8,0-1.1v-5.1c0-0.4,0-0.7,0-1.1V330c0.1-0.6-0.2-1.3-0.7-1.7l-16.6-12.5
		c-1.2-0.9-1.5-2.5-0.8-3.8l18.5-32c0.7-1.3,2.3-1.8,3.7-1.2l19.1,8c0.6,0.3,1.3,0.2,1.8-0.2c1.2-0.8,2.2-1.5,3.3-2.1
		c1.1-0.6,2.2-1.2,3.4-1.8c0.6-0.3,0.9-0.9,1-1.5l2.6-20.5c0.2-1.5,1.4-2.5,2.9-2.5h37c1.5,0,2.7,1.1,2.9,2.5l2.6,20.5
		c0.1,0.7,0.5,1.2,1.1,1.5c1.2,0.5,2.3,1.1,3.4,1.8c1.3,0.8,2.3,1.5,3.2,2.1c0.5,0.4,1.2,0.4,1.8,0.2l19.1-8
		c1.3-0.6,2.9-0.1,3.6,1.2l18.5,32c0.7,1.3,0.4,2.9-0.8,3.8l-16.5,12.5c-0.5,0.4-0.8,1-0.7,1.7c0,0.4,0,0.9,0,1.3v5.1
		c0,0.4,0,0.8-0.1,1.2c-0.1,0.7,0.2,1.4,0.7,1.8l16.4,12.4c1.2,0.9,1.5,2.5,0.8,3.8l-18.5,32c-0.7,1.3-2.3,1.8-3.6,1.2l-18.9-8
		c-0.6-0.2-1.3-0.2-1.8,0.2c-1,0.7-2.1,1.4-3.3,2.1s-2.2,1.2-3.4,1.7c-0.6,0.3-1,0.8-1.1,1.5l-2.6,20.6
		C164.6,408.3,163.4,409.4,161.9,409.4z M110.7,379.6c0.6,0,1.1,0.2,1.6,0.5c1.1,0.7,2.1,1.4,3.2,2c1.1,0.6,2.2,1.2,3.3,1.7
		c0.9,0.4,1.6,1.3,1.7,2.3l2.5,20.5c0.1,1,0.9,1.7,1.9,1.7h37c1,0,1.8-0.7,1.9-1.7l2.6-20.6c0.1-1,0.7-1.9,1.6-2.3
		c1.1-0.5,2.2-1.1,3.3-1.7s2.3-1.4,3.2-2.1c0.8-0.5,1.9-0.6,2.8-0.3l18.9,8c0.9,0.4,1.9,0,2.4-0.8l18.5-32c0.5-0.8,0.3-1.9-0.5-2.5
		l-16.4-12.4l0,0c-0.8-0.6-1.3-1.7-1.1-2.8c0-0.4,0.1-0.7,0.1-1.1v-5.1c0-0.4,0-0.8,0-1.2c-0.1-1,0.3-1.9,1.1-2.6l16.6-12.5
		c0.8-0.6,1-1.6,0.5-2.5l-18.5-32c-0.5-0.8-1.5-1.2-2.4-0.8l-19.1,8c-0.9,0.4-2,0.3-2.8-0.3c-0.9-0.6-1.9-1.3-3.1-2
		c-1.1-0.6-2.2-1.2-3.3-1.7c-0.9-0.4-1.6-1.3-1.7-2.3l-2.6-20.4c-0.1-1-0.9-1.7-1.9-1.7h-37c-1,0-1.8,0.7-1.9,1.7l-2.6,20.6
		c-0.1,1-0.7,1.8-1.6,2.3c-1,0.5-2.1,1-3.3,1.7c-1,0.6-2.1,1.3-3.2,2.1c-0.8,0.5-1.8,0.6-2.7,0.2l-19.1-8c-0.9-0.4-1.9,0-2.4,0.8
		l-18.5,32c-0.4,0.8-0.2,1.8,0.5,2.4l16.6,12.5c0.8,0.6,1.2,1.5,1.1,2.5v0.1c0,0.4,0,0.7,0,1.1v5.1c0,0.4,0,0.7,0,1.1v0.1
		c0.1,1-0.3,1.9-1.1,2.5L70,352.6c-0.8,0.6-1,1.6-0.5,2.5l18.5,32c0.5,0.8,1.5,1.2,2.4,0.8l19.2-8
		C109.9,379.7,110.3,379.7,110.7,379.6z M143.4,366.9c-18.3,0-33.1-14.8-33.1-33.1c0-18.3,14.8-33.1,33.1-33.1s33.1,14.8,33.1,33.1
		l0,0C176.5,352.1,161.7,366.9,143.4,366.9z M143.4,301.8c-17.7,0-32.1,14.4-32.1,32.1c0,17.7,14.4,32.1,32.1,32.1
		s32.1-14.4,32.1-32.1C175.5,316.1,161.1,301.8,143.4,301.8z"></path></g><g id="gear-1"><path class="st0" d="M252.9,153.7L252.9,153.7c0-0.1-0.1-0.1-0.1-0.2l-5-7.2l-1.9,1.8l-10-7.6c-0.7-0.5-1-1.4-0.9-2.3
		c0-0.4,0.1-0.8,0.1-1.2V132c0-0.4,0-0.8,0-1.2c-0.1-0.8,0.3-1.6,0.9-2.1l16.6-12.5c0.9-0.8,1.1-2.1,0.5-3.1l-18.5-32l-6-8.3
		l-3.4,6.1l3.4,2.4L212.4,88c-0.7,0.3-1.6,0.2-2.3-0.2c-1-0.7-2.1-1.4-3.2-2.1c-1.1-0.6-2.2-1.2-3.4-1.7c-0.8-0.3-1.3-1.1-1.4-1.9
		l-2.6-20.5c-0.1-0.5-0.3-0.9-0.6-1.3l0,0l-5.6-7.9l-2.2,7.1h-31c-1.2,0-2.2,0.9-2.4,2.1l-2.6,20.6c-0.1,0.8-0.6,1.5-1.3,1.8
		c-1.1,0.5-2.2,1.1-3.3,1.7s-2.2,1.4-3.3,2.1c-0.7,0.4-1.5,0.5-2.2,0.2l-19.1-8c-1.1-0.5-2.4,0-3,1l-15.6,27l-1.4-2.1l-7.1,1.3
		l5.3,7.5l0,0c0.1,0.6,0.4,1.1,0.9,1.5l16.6,12.5c0.6,0.5,1,1.3,0.9,2.1c0,0.4,0,0.8,0,1.2v5.1c0,0.4,0,0.8,0,1.2
		c0.1,0.8-0.3,1.6-0.9,2.1L105,152.9c-1,0.7-1.3,2.1-0.6,3.1l14.3,24.8l-0.5,0.3l4.7,6.9c0.6,1,1.9,1.5,3,1L145,181
		c0.8-0.3,1.6-0.2,2.3,0.2c1,0.7,2.1,1.4,3.2,2.1c1.1,0.6,2.2,1.2,3.3,1.8c0.8,0.3,1.3,1,1.4,1.9l1.4,11.4l-3.3,0.4v2.7l4.7,6.8
		c0.1,0.2,0.2,0.4,0.4,0.6l0.1,0.1l0,0c0.4,0.4,1,0.7,1.7,0.7h37c1.2,0,2.2-0.9,2.4-2.1l2.6-20.6c0.1-0.8,0.6-1.5,1.4-1.9
		c1.1-0.5,2.2-1.1,3.3-1.7s2.2-1.4,3.3-2.1c0.7-0.4,1.5-0.5,2.3-0.2l18.9,8c1.1,0.5,2.4,0,3-1l18.5-32
		C253.2,155.3,253.2,154.4,252.9,153.7L252.9,153.7z M178.7,167.1c-18,0-32.6-14.6-32.6-32.6s14.6-32.6,32.6-32.6
		s32.6,14.6,32.6,32.6c0,0,0,0,0,0C211.3,152.5,196.7,167.1,178.7,167.1C178.7,167.1,178.7,167.1,178.7,167.1L178.7,167.1z"></path><path class="st1" d="M230.5,132.9c-0.7-0.5-1.1-1.4-0.9-2.3c0-0.4,0.1-0.8,0.1-1.2v-5.1c0-0.4,0-0.8,0-1.2c0-0.8,0.3-1.6,0.9-2.1
		l16.6-12.5c1-0.7,1.2-2.1,0.6-3.1l-18.5-32c-0.6-1-1.9-1.5-3-1l-19.1,8c-0.7,0.3-1.6,0.2-2.3-0.2c-1-0.7-2.1-1.4-3.2-2.1
		c-1.1-0.7-2.2-1.2-3.4-1.8c-0.8-0.3-1.3-1-1.4-1.9l-2.6-20.5c-0.1-1.2-1.2-2.1-2.4-2.1h-37c-1.2,0-2.2,0.9-2.4,2.1L150,74.4
		c-0.1,0.8-0.6,1.5-1.3,1.9c-1.1,0.5-2.2,1.1-3.3,1.7s-2.2,1.4-3.3,2.1c-0.7,0.4-1.5,0.5-2.3,0.2l-19.2-8c-1.1-0.5-2.4,0-3,1
		l-18.6,32c-0.6,1.1-0.3,2.4,0.6,3.1l16.5,12.5c0.7,0.5,1,1.3,0.9,2.1c0,0.4,0,0.8,0,1.2v5.1c0,0.4,0,0.8,0,1.2
		c0.1,0.8-0.3,1.6-0.9,2.1l-16.6,12.6c-1,0.7-1.2,2.1-0.6,3.1l18.5,32c0.6,1,1.9,1.5,3,1l19.1-8c0.8-0.3,1.6-0.2,2.3,0.2
		c1,0.7,2.1,1.4,3.2,2.1c1.1,0.6,2.2,1.2,3.3,1.8c0.8,0.3,1.3,1,1.4,1.9l2.6,20.5c0.1,1.2,1.2,2.1,2.4,2.1h37c1.2,0,2.2-0.9,2.4-2.1
		l2.6-20.6c0.1-0.8,0.6-1.5,1.4-1.9c1.1-0.5,2.2-1.1,3.3-1.7s2.2-1.4,3.3-2.1c0.7-0.4,1.5-0.5,2.3-0.2l18.9,8c1.1,0.5,2.4,0,3-1
		l18.5-32c0.6-1.1,0.3-2.4-0.6-3.1L230.5,132.9z M173.3,159.4c-18,0-32.6-14.6-32.6-32.6s14.6-32.6,32.6-32.6s32.6,14.6,32.6,32.6
		l0,0C205.9,144.9,191.3,159.4,173.3,159.4z"></path><path class="st2" d="M191.9,202.4h-37c-1.5,0-2.7-1.1-2.9-2.6l-2.6-20.5c-0.1-0.7-0.5-1.2-1.1-1.5c-1.2-0.5-2.3-1.1-3.4-1.8
		c-1.1-0.6-2.1-1.3-3.2-2.1c-0.5-0.4-1.2-0.4-1.8-0.2l-19.2,8c-1.3,0.6-2.9,0-3.6-1.2l-18.5-32c-0.7-1.3-0.4-2.9,0.8-3.8l16.6-12.6
		c0.5-0.4,0.8-1,0.7-1.6v-0.2c0-0.4,0-0.8,0-1.1v-5.1c0-0.4,0-0.7,0-1.1V123c0.1-0.6-0.2-1.3-0.7-1.7l-16.6-12.5
		c-1.2-0.9-1.5-2.5-0.8-3.8l18.5-32c0.7-1.3,2.3-1.8,3.7-1.2l19.1,8c0.6,0.3,1.3,0.2,1.8-0.2c1.2-0.8,2.2-1.5,3.3-2.1
		c1.3-0.7,2.4-1.3,3.4-1.8c0.6-0.3,1-0.8,1.1-1.5l2.6-20.5c0.2-1.5,1.4-2.6,2.9-2.5h37c1.5,0,2.7,1.1,2.9,2.6l2.6,20.5
		c0.1,0.7,0.5,1.2,1.1,1.5c1.2,0.5,2.3,1.1,3.4,1.8c1.3,0.8,2.3,1.4,3.2,2.1c0.5,0.4,1.2,0.4,1.8,0.2l19.1-8
		c1.3-0.6,2.9-0.1,3.6,1.2l18.5,32c0.7,1.3,0.4,2.9-0.8,3.8l-16.6,12.5c-0.5,0.4-0.8,1-0.7,1.7c0,0.4,0,0.9,0,1.3v5.1
		c0,0.4,0,0.8-0.1,1.2c-0.1,0.7,0.2,1.4,0.7,1.8l16.4,12.4c1.2,0.9,1.5,2.5,0.8,3.8l-18.5,32c-0.7,1.3-2.3,1.8-3.6,1.2l-18.9-8
		c-0.6-0.3-1.3-0.2-1.8,0.1c-1,0.7-2.1,1.4-3.3,2.1s-2.2,1.2-3.4,1.8c-0.6,0.3-1,0.8-1.1,1.5l-2.6,20.6
		C194.5,201.3,193.3,202.4,191.9,202.4z M140.6,172.7c0.6,0,1.2,0.2,1.6,0.5c1.1,0.7,2.1,1.4,3.1,2c1.1,0.6,2.2,1.2,3.3,1.7
		c0.9,0.4,1.6,1.3,1.7,2.3l2.6,20.6c0.1,1,0.9,1.7,1.9,1.7h37c1,0,1.8-0.7,1.9-1.7l2.6-20.6c0.1-1,0.7-1.9,1.6-2.3
		c1.1-0.5,2.2-1.1,3.3-1.7s2.3-1.4,3.2-2.1c0.8-0.5,1.9-0.6,2.8-0.2l18.9,8c0.9,0.4,1.9,0,2.4-0.8l18.5-32c0.5-0.8,0.3-1.9-0.5-2.5
		l-16.4-12.4l0,0c-0.8-0.6-1.3-1.7-1.1-2.7c0-0.4,0.1-0.7,0.1-1.1v-5.1c0-0.4,0-0.8,0-1.2c-0.1-1,0.4-1.9,1.1-2.6l16.6-12.5
		c0.8-0.6,1-1.6,0.5-2.5l-18.5-32c-0.5-0.8-1.5-1.2-2.4-0.8l-19.1,8c-0.9,0.4-2,0.3-2.8-0.3c-0.9-0.6-1.9-1.3-3.1-2
		c-1.1-0.6-2.2-1.2-3.4-1.7c-0.9-0.4-1.6-1.3-1.7-2.3L193.7,54c-0.1-1-0.9-1.7-1.9-1.7h-37c-1,0-1.7,0.7-1.9,1.7l-2.6,20.6
		c-0.1,1-0.7,1.8-1.6,2.3c-1,0.4-2.1,1-3.3,1.7c-1,0.6-2.1,1.3-3.2,2.1c-0.8,0.5-1.9,0.6-2.8,0.2l-19.1-8c-0.9-0.4-1.9,0-2.4,0.8
		l-18.5,32c-0.5,0.8-0.3,1.9,0.5,2.5l16.6,12.5c0.8,0.6,1.2,1.5,1.1,2.5v0.1c0,0.4,0,0.7,0,1.1v5.1c0,0.4,0,0.7,0,1.1v0.1
		c0.1,1-0.3,1.9-1.1,2.5l-16.6,12.5c-0.8,0.6-1,1.6-0.5,2.5l18.5,32c0.5,0.8,1.5,1.2,2.4,0.8l19.2-8
		C139.8,172.8,140.2,172.7,140.6,172.7L140.6,172.7z M173.3,160c-18.3,0-33.1-14.8-33.1-33.1s14.8-33.1,33.1-33.1
		s33.1,14.8,33.1,33.1C206.4,145.2,191.6,160,173.3,160z M173.3,94.8c-17.7,0-32.1,14.4-32.1,32.1s14.4,32.1,32.1,32.1
		s32.1-14.4,32.1-32.1c0,0,0,0,0,0C205.4,109.2,191.1,94.8,173.3,94.8L173.3,94.8z"></path></g><g id="character"><path class="st1" d="M328.3,306.7c10.7,6.2,25,21.9,0.6,45.7l-30.3,31.8l-27.8,24.7c-1.5,1.3-3.6,1.8-5.6,1.2l0,0
		c-10.6-3.4-19.5-10.6-25.1-20.2l-0.1-0.1c-1.2-2.1-1-4.7,0.6-6.6l10.7-12.6l1.7-48.4L328.3,306.7z"></path><path class="st2" d="M267,410.9c-0.6,0-1.3-0.1-1.9-0.3c-10.7-3.4-19.7-10.7-25.4-20.5l-0.1-0.1c-1.3-2.3-1.1-5.1,0.6-7.1
		l10.6-12.5l1.7-48.2c0-0.2,0.2-0.4,0.4-0.5l75.1-15.5c0.1,0,0.2,0,0.4,0c3.8,2.2,12.8,8.5,14.1,18.8c1.1,8.6-3.4,18-13.4,27.7
		L299,384.5l-27.8,24.8C270,410.3,268.5,410.9,267,410.9z M253.6,322.6l-1.7,48c0,0.1,0,0.2-0.1,0.3l-10.7,12.6
		c-1.4,1.7-1.6,4.1-0.5,6v0.1c5.5,9.5,14.3,16.7,24.8,20c1.8,0.6,3.7,0.2,5.1-1.1l27.8-24.7l30.2-31.8c9.8-9.5,14.1-18.6,13.1-26.9
		c-1.2-9.7-9.7-15.7-13.5-18L253.6,322.6z M251.4,370.6L251.4,370.6z"></path><path class="st2" d="M283.8,338.2c-0.2,0-0.4-0.1-0.4-0.3c-0.1-0.2,0-0.5,0.2-0.7c0.1-0.1,11.9-6.6,16.7-12.7
		c0.2-0.2,0.5-0.3,0.7-0.1c0.2,0.2,0.3,0.5,0.1,0.7c0,0,0,0,0,0c-5,6.2-16.5,12.7-17,12.9C284,338.1,283.9,338.2,283.8,338.2z"></path><path class="st0" d="M187.6,328.5c0,0-11.8-10.1-6.6-38.8s9.3-52.6,18.4-63s29.2-22.1,40.2-23.4s41.4,4,54.5,19.4
		s30.7,64.7,30.7,64.7s-44.6,35.8-44.6,35s-45.7-1.3-45.7-1.3s-23.6-9.8-31.3-6.6S187.6,328.5,187.6,328.5z"></path><path class="st1" d="M250.7,197.5c-0.4,5.3-0.1,10.6,1,15.8c0,0-12,3.9-19.1-1.6l4-19.5L250.7,197.5z"></path><path class="st2" d="M242.8,215.1c-3.5,0-7.4-0.7-10.5-3.1c-0.2-0.1-0.2-0.3-0.2-0.5l4-19.5c0-0.1,0.1-0.3,0.2-0.3
		c0.1-0.1,0.3-0.1,0.4,0l14.1,5.3c0.2,0.1,0.3,0.3,0.3,0.5c-0.4,5.2-0.1,10.5,1,15.6c0.1,0.3-0.1,0.5-0.3,0.6
		C248.9,214.6,245.9,215.1,242.8,215.1z M233.2,211.4c6.1,4.5,15.8,2.1,18,1.5c-1-5-1.3-10-1-15.1l-13.2-5L233.2,211.4z"></path><path class="st1" d="M269.8,170.3l-19.3,5.2l-20.2,6.7l-11.9,1.8l-3.6-4.5c-6.8-19.3,9.8-20,9.8-20s-2-8.4,4.8-12.5
		s16.9-1.3,24.2-6.2c7.3-5,19.8-3.7,22.5,10.9S269.8,170.3,269.8,170.3z"></path><path class="st2" d="M218.3,184.4c-0.2,0-0.3-0.1-0.4-0.2l-3.6-4.5c0,0-0.1-0.1-0.1-0.1c-2.3-6.5-2.2-11.7,0.2-15.4
		c2.8-4.2,7.8-5.1,9.4-5.2c-0.3-2-0.9-8.9,5.1-12.5c3.3-2,7.2-2.4,11.4-2.8c4.4-0.4,9-0.9,12.8-3.4c4.2-2.9,9.5-3.5,14.2-1.6
		c3.3,1.4,7.6,4.8,9,12.9c2.7,14.8-6.3,19.2-6.4,19.3h-0.1l-19.3,5.2l-20.2,6.7L218.3,184.4L218.3,184.4z M215.2,179.1l3.3,4.2
		l11.6-1.8l20.2-6.6l19.3-5.1c1.6-0.9,2.9-2.2,3.9-3.8c2.3-3.6,3-8.6,2-14.4c-1.4-7.7-5.4-10.8-8.4-12.1c-4.4-1.7-9.3-1.1-13.2,1.5
		c-3.9,2.7-8.7,3.2-13.2,3.6c-4.1,0.4-7.9,0.8-11,2.6c-6.4,3.9-4.6,11.6-4.5,11.9c0,0.1,0,0.3-0.1,0.4c-0.1,0.1-0.2,0.2-0.4,0.2
		c-0.1,0-6.2,0.3-9.2,4.9C213,168.1,213,173,215.2,179.1L215.2,179.1z M269.8,170.3L269.8,170.3z"></path><path class="st1" d="M268,160.4c0,0,10,37.1-11.4,39.8S223,186.4,223,186.4c-7.4,2.5-12.4-4.4-8.3-7s7.4,3.1,7.4,3.1
		s8.2-4.3,7.1-16.8c0,0,9.8,3.8,15-3.9c0,0,21.1,4.1,27.5-5"></path><path class="st2" d="M251.9,201c-17,0-27.4-12-29-14.1c-4.6,1.4-8.4-0.6-9.7-3.3c-0.9-1.6-0.4-3.7,1.3-4.6c1-0.7,2.3-0.9,3.4-0.6
		c1.8,0.6,3.4,1.8,4.4,3.4c1.6-1,7.4-5.5,6.5-16.1c0-0.3,0.2-0.5,0.4-0.5c0.1,0,0.2,0,0.2,0c0.4,0.1,9.4,3.5,14.4-3.8
		c0.1-0.2,0.3-0.3,0.5-0.2c0.2,0,20.9,3.9,27-4.8c0.2-0.2,0.5-0.3,0.7-0.1c0.2,0.2,0.3,0.4,0.1,0.7c-1,1.4-2.2,2.5-3.7,3.3
		c0.3,1.1,6,23-1.5,34.2c-2.3,3.5-6.1,5.8-10.4,6.2C255.1,200.9,253.5,201,251.9,201z M223,185.9c0.2,0,0.3,0.1,0.4,0.2
		c0.1,0.1,10.4,14,28.4,14c1.6,0,3.1-0.1,4.6-0.3c3.9-0.4,7.5-2.5,9.6-5.8c6.9-10.3,2-30.8,1.4-33.2c-8,3.9-20.8,1.9-23.1,1.5
		c-4.6,6.4-12.3,4.8-14.6,4.1c0.4,6.2-1.6,10.3-3.3,12.7c-1.1,1.6-2.5,2.9-4.2,3.9c-0.2,0.1-0.5,0-0.6-0.2c0,0-1.8-2.8-4.1-3.4
		c-0.9-0.2-1.9,0-2.7,0.5c-1.2,0.7-1.6,2.2-0.9,3.3c0,0,0,0,0,0c1,2,4.3,4.2,8.8,2.7L223,185.9z"></path><path class="st2" d="M220.7,184.6c-0.2,0-0.4-0.1-0.4-0.3c-0.1-0.1-1.6-3.3-4.1-2.3c-0.3,0.1-0.5,0-0.6-0.3c0,0,0,0,0,0
		c-0.1-0.3,0-0.5,0.3-0.6c2.7-1.1,4.7,1.4,5.4,2.8c0.1,0.2,0,0.5-0.2,0.7c0,0,0,0,0,0C220.9,184.6,220.8,184.6,220.7,184.6z"></path><path class="st2" d="M245.4,172.6c-0.6-0.1-1.3-0.2-1.9-0.4s-1.3-0.2-1.9-0.2c-1.3-0.1-2.6-0.1-4-0.1l0,0c-0.3,0-0.5-0.1-0.6-0.4
		c0-0.3,0.1-0.5,0.4-0.6c0.7-0.3,1.4-0.5,2.1-0.6c0.7-0.1,1.5-0.1,2.2-0.1c0.7,0.1,1.5,0.2,2.2,0.4c0.7,0.2,1.4,0.6,2,1
		c0.2,0.2,0.3,0.5,0.1,0.7C245.8,172.6,245.6,172.7,245.4,172.6L245.4,172.6z"></path><path class="st2" d="M265.7,171.7c-0.7,0-1.5,0-2.3,0l-2.3,0.1c-1.5,0.1-3,0.2-4.6,0.2l0,0c-0.3,0-0.5-0.2-0.5-0.5c0,0,0,0,0,0
		c0-0.2,0.1-0.4,0.3-0.5c0.8-0.3,1.5-0.5,2.3-0.7c0.8-0.2,1.6-0.3,2.4-0.3c0.8,0,1.6,0,2.5,0.1c0.8,0.1,1.6,0.3,2.4,0.6
		c0.3,0.1,0.4,0.4,0.3,0.6c0,0,0,0,0,0C266.2,171.6,266,171.7,265.7,171.7L265.7,171.7z"></path><path class="st2" d="M256.7,185.6c-0.2,0-0.4,0-0.5-0.1c-1.8-0.3-3.2-1.9-3.1-3.8c0-0.3,0.2-0.5,0.5-0.5c0,0,0,0,0,0
		c0.3,0,0.5,0.3,0.5,0.5c0,0,0,0,0,0c0,1.3,0.9,2.5,2.3,2.7c0.9,0.2,1.8-0.3,2-1.3c0,0,0-0.1,0-0.1c0.1-0.4,0.1-0.9-0.2-1.3
		c-0.8-0.8-1.9-1.3-3-1.3c-0.3,0-0.5-0.3-0.4-0.5c0.1-2.9,0.5-5.8,1.2-8.6c0.1-0.3,0.3-0.4,0.6-0.4c0.3,0.1,0.4,0.3,0.4,0.6l0,0
		c-0.6,2.6-1,5.3-1.1,7.9c1.2,0.2,2.4,0.7,3.2,1.7c0.4,0.6,0.6,1.4,0.3,2.1C259.1,184.7,258,185.6,256.7,185.6z"></path><path class="st2" d="M240.4,177.5c0,1.4,0.9,2.5,1.9,2.5s1.7-1.2,1.7-2.6c0-0.4-0.1-0.8-0.2-1.2l-1.7,1l0.7-2.1
		c-0.2-0.1-0.4-0.2-0.7-0.2C241.1,174.9,240.3,176.1,240.4,177.5z"></path><path class="st2" d="M259.8,176.9c0,1.4,0.9,2.5,1.9,2.5s1.7-1.2,1.7-2.6c0-0.4-0.1-0.8-0.2-1.2l-1.7,1l0.7-2.1
		c-0.2-0.1-0.4-0.2-0.7-0.2C260.5,174.3,259.8,175.4,259.8,176.9z"></path><path class="st2" d="M249.6,192c-0.4,0-0.8-0.1-1.2-0.2c-1.4-0.5-2.4-1.8-2.7-3.2c-0.1-0.3,0.1-0.5,0.4-0.6
		c0.3-0.1,0.5,0.1,0.6,0.4c0,0,0,0,0,0c0.2,1.1,1,2.1,2.1,2.6c1.1,0.4,2.6,0,4-1.1c0.2-0.2,0.5-0.1,0.7,0.1s0.1,0.5-0.1,0.7
		C252.3,191.4,251,191.9,249.6,192z"></path><path class="st2" d="M234.6,321.7c-0.2,0-0.4-0.1-0.4-0.3c-3.8-8.2,1.9-15.1,4.2-17.5c-13.3-0.1-32.3-0.2-33.6,0
		c-0.3,0.1-0.5,0-0.6-0.3c-0.1-0.2,0-0.4,0.1-0.5c0.2-0.2,0.4-0.4,35.4-0.1c0.3,0,0.5,0.2,0.5,0.5c0,0.1-0.1,0.3-0.2,0.4
		c-0.1,0.1-9.3,7.8-4.9,17.2c0.1,0.2,0,0.5-0.2,0.7c0,0,0,0,0,0C234.8,321.7,234.7,321.7,234.6,321.7z"></path><path class="st2" d="M246.9,314.3c-0.2,0-0.4-0.2-0.5-0.4c0-0.1-1.6-7.5-7-10c-0.2-0.1-0.4-0.4-0.2-0.6c0,0,0,0,0,0
		c0.1-0.3,0.4-0.4,0.7-0.2c5.8,2.7,7.4,10.4,7.5,10.8C247.4,314,247.2,314.3,246.9,314.3C246.9,314.3,246.9,314.3,246.9,314.3
		L246.9,314.3z"></path><path class="st1" d="M251.4,327.2l-16.8-6c-0.3-1.6-0.5-3.2-0.5-4.9c0.2-0.2,22.4-1.3,22.4-1.3s7.2,1.6,7.1,2
		S251.4,327.2,251.4,327.2z"></path><path class="st2" d="M251.4,327.7h-0.2l-16.8-6c-0.2-0.1-0.3-0.2-0.3-0.4c-0.8-4.9-0.6-5.1-0.4-5.3s0.3-0.4,22.8-1.5h0.1
		c7,1.6,7.3,2,7.4,2.2c0.1,0.1,0.1,0.3,0.1,0.4c0,0.2-0.1,0.6-12.3,10.4C251.7,327.6,251.5,327.7,251.4,327.7z M235.1,320.8
		l16.3,5.8c3.9-3.2,9.9-8,11.5-9.5c-1.1-0.4-3.8-1.1-6.4-1.6c-8,0.4-19.7,1-21.9,1.2C234.6,317.5,234.8,319.2,235.1,320.8z"></path><path class="st1" d="M235.4,308.6c8.3-0.6,19.1-4,23,0l-2.7,11.2c0,0-21.8-0.8-21.9-1.2C233.1,315.2,233.7,311.7,235.4,308.6z"></path><path class="st2" d="M255.7,320.4L255.7,320.4c-22.2-0.8-22.2-1.1-22.4-1.5c-0.6-3.6,0-7.3,1.7-10.5c0.1-0.1,0.2-0.2,0.4-0.2
		c2.2-0.2,4.7-0.5,7.1-0.9c6.8-1,13.3-2,16.3,1.1c0.1,0.1,0.2,0.3,0.1,0.5l-2.7,11.3C256.1,320.2,255.9,320.4,255.7,320.4z
		 M234.2,318.3c1.9,0.3,13.3,0.8,21.1,1l2.5-10.6c-2.8-2.5-9.1-1.5-15.2-0.6c-2.3,0.4-4.7,0.7-6.9,0.9
		C234.2,311.9,233.7,315.1,234.2,318.3z"></path><path class="st2" d="M297.5,280.5c-0.2,0-0.4-0.2-0.5-0.4c0-0.3-5.1-28.9-12.5-42.3c-0.1-0.2,0-0.5,0.2-0.7c0.2-0.1,0.5,0,0.7,0.2
		c7.4,13.5,12.5,42.3,12.6,42.6C298,280.2,297.9,280.5,297.5,280.5C297.6,280.5,297.6,280.5,297.5,280.5L297.5,280.5z"></path><path class="st2" d="M209.4,303.9c-0.3,0-0.5-0.2-0.5-0.5c0-0.3-0.1-28.8,4.6-48.5c0.1-0.3,0.3-0.4,0.6-0.4
		c0.3,0.1,0.4,0.3,0.4,0.6c-4.6,19.7-4.5,48-4.5,48.3C209.9,303.7,209.7,303.9,209.4,303.9C209.4,303.9,209.4,303.9,209.4,303.9
		L209.4,303.9z"></path><path class="st1" d="M251.4,327.2c0.6-0.9,18.9-46.1,18.9-46.1l72-3.8L321.5,321L251.4,327.2z"></path><path class="st2" d="M251.4,327.7c-0.2,0-0.3-0.1-0.4-0.2c-0.1-0.2-0.1-0.4,0-0.5c0.5-1,12.6-30.5,18.8-46c0.1-0.2,0.2-0.3,0.4-0.3
		l72-3.8c0.3,0,0.5,0.2,0.5,0.4c0,0.1,0,0.2-0.1,0.3l-20.9,43.7c-0.1,0.2-0.2,0.3-0.4,0.3L251.4,327.7L251.4,327.7z M270.6,281.6
		c-2.2,5.4-15.9,39.2-18.4,45l68.9-6.1l20.4-42.7L270.6,281.6z"></path><path class="st1" d="M226,363.3l99.7,28.7c1.4,0.4,2.9,0.1,4.1-0.7c11.9-9.1,14.7-23.1,15.3-29.8c0.2-2.2-1.1-4.2-3.2-4.9
		c-15.3-5-78.5-25.4-107.2-35.4c-32.8-11.4-33.9-8.1-41.8,1.4s-12.6,12.7-1.7,42s48.5,21,48.5,21l11.9-14.9"></path><path class="st2" d="M327,392.7c-0.5,0-1-0.1-1.5-0.2l-73.9-21.3L240,385.8c-0.1,0.1-0.2,0.2-0.3,0.2c-6.7,1.3-13.6,1.4-20.3,0.5
		c-14.3-2.1-24.2-9.6-28.7-21.8c-10.4-28.2-6.7-32.5,0.7-41.2l1.1-1.3l0.9-1.1c7.4-8.8,9.6-11.5,41.4-0.4
		c28.3,9.8,89.2,29.6,107.2,35.4c2.3,0.7,3.8,3,3.6,5.4c-0.7,7.4-3.6,21.1-15.5,30.1C329.2,392.3,328.1,392.7,327,392.7z M226,362.8
		h0.1l99.7,28.7c1.3,0.4,2.6,0.1,3.7-0.7c11.6-8.8,14.4-22.2,15.1-29.4c0.2-1.9-1-3.7-2.9-4.4c-18-5.8-78.9-25.6-107.2-35.4
		c-31.2-10.8-33.3-8.3-40.4,0.1l-0.9,1.1l-1.2,1.3c-7.1,8.4-10.7,12.6-0.5,40.2s45,21.3,47.7,20.7l11.3-14.2l-24.7-7.1
		c-0.3-0.1-0.4-0.3-0.4-0.6C225.6,362.9,225.8,362.8,226,362.8z"></path><path class="st0" d="M236.5,392.9c4.2,9.3,12,16.5,21.7,19.8l-25.4,16.1c-4.6,2.9-10,4.2-15.4,3.7l-4-0.4
		c-6.1-0.5-10.5-5.9-10-11.9c0-0.4,0.1-0.7,0.1-1.1l0,0c1-5.1,4.1-9.5,8.6-12L236.5,392.9z"></path><path class="st2" d="M205.5,423.7L205.5,423.7c-0.3,0-0.5-0.3-0.5-0.6c1.6-10,13.7-16.5,25.3-22.8c2-1.1,3.9-2.1,5.8-3.2
		c0.2-0.1,0.5-0.1,0.7,0.2s0.1,0.5-0.2,0.7c0,0,0,0,0,0c-1.9,1.1-3.8,2.1-5.8,3.2c-11.4,6.2-23.2,12.6-24.8,22.1
		C206,423.5,205.8,423.7,205.5,423.7z"></path><path class="st2" d="M247.8,422.5c-0.1,0-0.3-0.1-0.4-0.2L233.5,406c-0.2-0.2-0.2-0.5,0-0.7c0,0,0,0,0,0c0.2-0.2,0.5-0.2,0.7,0
		l13.9,16.3c0.2,0.2,0.1,0.5-0.1,0.7C248.1,422.4,247.9,422.5,247.8,422.5z"></path><path class="st2" d="M241.7,427.7c-0.1,0-0.3-0.1-0.4-0.2l-13.9-16.3c-0.2-0.2-0.2-0.5,0.1-0.7c0.2-0.2,0.5-0.2,0.7,0l13.9,16.3
		c0.2,0.2,0.2,0.5,0,0.7c0,0,0,0,0,0C241.9,427.7,241.8,427.7,241.7,427.7z"></path><path class="st0" d="M349.2,366.2c-0.9,10.2-6,19.5-14,25.8l29.2,6.8c5.3,1.2,10.8,0.7,15.8-1.5l3.6-1.6c5.5-2.5,8-9,5.5-14.5
		c-0.2-0.3-0.3-0.7-0.5-1l0,0c-2.6-4.4-7-7.6-12-8.6L349.2,366.2z"></path><path class="st2" d="M388.5,385c-0.2,0-0.4-0.1-0.4-0.3c-4.6-8.5-17.9-10.6-30.7-12.7c-2.2-0.4-4.4-0.7-6.5-1.1
		c-0.3-0.1-0.4-0.3-0.4-0.6c0-0.3,0.3-0.4,0.6-0.4c0,0,0,0,0,0c2.1,0.4,4.3,0.7,6.5,1.1c13.1,2.1,26.6,4.3,31.4,13.2
		c0.1,0.2,0,0.5-0.2,0.7c0,0,0,0,0,0C388.6,385,388.5,385,388.5,385z"></path><path class="st2" d="M348.1,397.8h-0.2c-0.3-0.1-0.4-0.4-0.3-0.6c0,0,0,0,0,0l7.8-19.9c0.1-0.3,0.4-0.4,0.6-0.3
		c0.3,0.1,0.4,0.4,0.3,0.6c0,0,0,0,0,0l-7.8,19.9C348.5,397.7,348.3,397.8,348.1,397.8z"></path><path class="st2" d="M355.6,400.8h-0.2c-0.3-0.1-0.4-0.4-0.3-0.6c0,0,0,0,0,0l7.8-20c0.1-0.3,0.4-0.4,0.6-0.3s0.4,0.4,0.3,0.6
		c0,0,0,0,0,0.1l-7.8,19.9C356.1,400.7,355.9,400.8,355.6,400.8z"></path><path class="st2" d="M187.6,329c-0.1,0-0.2,0-0.3-0.1c-7.3-6.8-7.9-21.1-8-21.7c0-0.3,0.2-0.5,0.5-0.5c0.3,0,0.5,0.2,0.5,0.5
		c0,0.1,0.7,14.5,7.6,21c0.2,0.2,0.2,0.5,0,0.7c0,0,0,0,0,0C187.9,328.9,187.7,329,187.6,329z"></path></g><g id="light"><circle class="st2" cx="388.5" cy="189.7" r="1.8"></circle><path class="st0" d="M396.3,180.4c0,4.4,0.3,9.3-7.8,9.3s-7.8-4.9-7.8-9.3c0-1.2,0-2.3,0-3.3c5.2,0.6,10.5,0.6,15.7,0
		C396.2,178.2,396.3,179.3,396.3,180.4z"></path><path class="st1" d="M402.7,163.7c-1.1,1.2-2.1,2.2-2.9,3c-2.3,2.2-3.5,5.1-3.6,8.3c-5.2,0.6-10.5,0.6-15.7,0
		c0-3.1-1.3-6.1-3.6-8.3c-0.8-0.8-1.8-1.8-2.8-3c-4.2-4.6-9.4-12.1-5.8-23.3c1.3-4.1,3.8-7.6,7.2-10.2c7.7-5.7,18.1-5.7,25.8,0
		c3.4,2.5,5.9,6.1,7.2,10.2C412.1,151.7,406.9,159.1,402.7,163.7z"></path><path class="st2" d="M388.5,175.9c-2.6,0-5.3-0.1-7.9-0.4c-0.2,0-0.4-0.2-0.4-0.5c0-3-1.3-5.9-3.4-8l-0.9-0.9
		c-0.6-0.6-1.3-1.3-2-2.1c-4.3-4.7-9.5-12.3-5.9-23.8c1.3-4.2,3.9-7.8,7.4-10.4c7.8-5.8,18.6-5.8,26.4,0c3.5,2.6,6.1,6.3,7.4,10.5
		c3.6,11.5-1.6,19.1-5.9,23.8l0,0c-0.7,0.8-1.4,1.4-2,2.1l-0.9,0.9c-2.2,2.1-3.4,5-3.4,8c0,0.2-0.2,0.5-0.4,0.5
		C393.7,175.8,391.1,176,388.5,175.9z M396.3,175L396.3,175z M381.1,174.6c4.9,0.5,9.8,0.5,14.7,0c0.1-3.1,1.4-6,3.7-8.2l0.9-0.9
		c0.6-0.6,1.2-1.3,1.9-2l0,0c4.1-4.5,9.2-11.8,5.7-22.8c-1.2-4-3.7-7.4-7-9.9c-7.5-5.6-17.7-5.6-25.2,0c-3.3,2.5-5.8,5.9-7,9.9
		c-3.5,11,1.6,18.3,5.7,22.8c0.7,0.8,1.4,1.4,2,2.1l0.9,0.9C379.6,168.6,380.9,171.5,381.1,174.6z"></path><path class="st0" d="M405.1,147.9c-0.3,0-0.5-0.2-0.5-0.5c0-1.9-0.4-3.7-0.9-5.5c-0.9-3.1-2.8-5.7-5.4-7.6c-2.3-1.7-5-2.8-7.8-3.1
		c-0.3,0-0.5-0.3-0.4-0.6s0.3-0.5,0.6-0.4c3,0.4,5.9,1.5,8.3,3.3c2.7,2,4.7,4.9,5.7,8.1c0.6,1.9,1,3.8,1,5.8
		C405.7,147.7,405.4,147.9,405.1,147.9C405.2,147.9,405.2,147.9,405.1,147.9L405.1,147.9z"></path><path class="st2" d="M388.4,181.4c-2.3,0-4.6-0.2-6.9-0.6c-0.3,0-0.5-0.3-0.4-0.6c0-0.3,0.3-0.5,0.6-0.4c4.4,0.8,8.9,0.8,13.3,0
		c0.3,0,0.5,0.1,0.6,0.4c0.1,0.3-0.1,0.5-0.4,0.6c0,0,0,0,0,0C393,181.2,390.7,181.4,388.4,181.4z"></path><path class="st2" d="M388.4,185.4c-2.3,0-4.6-0.2-6.9-0.6c-0.3,0-0.5-0.3-0.4-0.6c0-0.3,0.3-0.5,0.6-0.4l0,0
		c4.4,0.7,8.9,0.7,13.3,0c0.3,0,0.5,0.1,0.6,0.4c0.1,0.3-0.1,0.5-0.4,0.6c0,0,0,0,0,0C393,185.2,390.7,185.4,388.4,185.4z"></path><path class="st0" d="M388,123.1c-0.4-1.4-0.6-2.8-0.6-4.3c0-0.7,0-1.4,0.1-2.1c0.1-0.7,0.3-1.5,0.5-2.1c0.1-0.3,0.4-0.4,0.7-0.3
		c0.1,0.1,0.2,0.2,0.3,0.3c0.3,0.7,0.4,1.4,0.5,2.1c0.1,0.7,0.1,1.4,0.1,2.1c0,1.4-0.2,2.9-0.6,4.3c-0.1,0.3-0.4,0.4-0.7,0.3
		c0,0,0,0,0,0C388.2,123.4,388.1,123.2,388,123.1z"></path><path class="st0" d="M402.1,126.3c0.7-2.1,1.8-4,3.2-5.6c0.5-0.6,1-1,1.6-1.5c0.2-0.2,0.6-0.1,0.8,0.2c0.1,0.1,0.1,0.3,0.1,0.4
		c-0.2,0.7-0.4,1.4-0.8,2.1c-0.3,0.6-0.7,1.2-1.1,1.8c-0.8,1.2-1.8,2.3-2.9,3.2c-0.2,0.2-0.6,0.1-0.7-0.1
		C402.1,126.7,402.1,126.5,402.1,126.3z"></path><path class="st0" d="M374,126.9c-1.1-0.9-2.1-2-2.9-3.2c-0.4-0.6-0.8-1.2-1.1-1.8c-0.3-0.7-0.6-1.3-0.8-2.1
		c-0.1-0.3,0.1-0.6,0.4-0.7c0.1,0,0.3,0,0.4,0.1c0.6,0.4,1.2,0.9,1.6,1.5c0.5,0.5,0.9,1.1,1.3,1.7c0.8,1.2,1.5,2.5,1.9,3.9
		c0.1,0.3-0.1,0.6-0.4,0.7C374.3,127,374.1,127,374,126.9z"></path></g></svg>