<svg transform="scale(1)" version="1.1" id="_0984_Product_Development_2" xmlns="http://www.w3.org/2000/svg" xmlns:xlink="http://www.w3.org/1999/xlink" x="0px" y="0px" viewBox="0 0 500 500" xml:space="preserve" class="show_show__wrapper__graphic__5Waiy "><title>React</title><style type="text/css">
	.st0{fill:#FFFFFF;}
	.st1{fill:#732A09;}
	.st2{fill:#F75454;}
	.st3{fill:#F25454;}
	.st4{fill:#EF5454;}
</style><g id="character"><path class="st0" d="M205.4,448.9h-34.6l-11.6-55.8c-0.5,2.3-0.9,4.5-1.3,6.5c-1.9,11.5-6.6,49.3-6.6,49.3h-44l9.1-101.8l82.4-4.3
		L205.4,448.9z"></path><path class="st1" d="M205.4,449.4h-34.6c-0.2,0-0.4-0.2-0.5-0.4l-11.1-53.5c-0.3,1.6-0.6,2.9-0.8,4.1c-1.8,11.3-6.5,48.9-6.6,49.3
		c0,0.2-0.2,0.4-0.5,0.4h-44c-0.1,0-0.3-0.1-0.4-0.2c-0.1-0.1-0.1-0.2-0.1-0.4l9.1-101.8c0-0.2,0.2-0.4,0.5-0.5l82.4-4.3
		c0.3,0,0.5,0.2,0.5,0.5l6.6,106.1c0,0.1,0,0.3-0.1,0.4C205.6,449.3,205.5,449.4,205.4,449.4L205.4,449.4z M171.2,448.4h33.6
		l-6.5-105l-81.4,4.2l-9,100.8h43c0.5-4.3,4.8-38.2,6.5-48.9c0.3-1.8,0.7-4,1.3-6.5c0.1-0.2,0.2-0.4,0.5-0.4l0,0
		c0.2,0,0.4,0.2,0.5,0.4L171.2,448.4L171.2,448.4z"></path><path class="st0" d="M186.1,214.1l-47.8-19.5c0,0-8.3-1.1-11.7,3.6s-3.3,5.9-4.5,6.1s-9.1-0.5-12.8,6.4s-3.1,8.9-3.6,10.4
		s-9.4,5.5-11.4,15.3c-2,9.8,3.4,14.9,3.4,14.9l78.3-0.3c13.8,3.9,20.4-4,22.5-12.2c2.1-8.1-5.9-12.1-6.5-13.6
		S192.2,217,186.1,214.1"></path><path class="st1" d="M182.7,252.5c-2.1,0-4.4-0.3-6.9-1l-78.2,0.3l0,0c-0.1,0-0.2,0-0.3-0.1c-0.2-0.2-5.6-5.4-3.6-15.4
		c1.5-7.4,6.8-11.6,9.7-13.8c0.8-0.6,1.7-1.3,1.8-1.6c0.1-0.4,0.2-0.8,0.3-1.2c0.2-1.5,0.6-4,3.4-9.2c3.4-6.3,10-6.5,12.5-6.6
		c0.3,0,0.5,0,0.7,0c0.4-0.1,0.6-0.3,1.4-1.7c0.6-0.9,1.4-2.3,2.8-4.2c3.5-4.8,11.8-3.9,12.2-3.8c0,0,0.1,0,0.1,0l47.8,19.5h0
		c5,2.4,5.6,7.3,5.9,9.9c0.1,0.6,0.1,1.2,0.2,1.5c0.1,0.2,0.7,0.8,1.3,1.3c2.4,2.1,6.9,6.1,5.2,12.6c-1.4,5.2-4.3,9.4-8.2,11.6
		C188.4,251.8,185.7,252.5,182.7,252.5L182.7,252.5z M175.9,250.4c0,0,0.1,0,0.1,0c5.6,1.6,10.4,1.3,14.2-0.9c3.6-2.1,6.4-6,7.7-11
		c1.6-5.9-2.5-9.5-4.9-11.6c-0.8-0.7-1.4-1.2-1.6-1.7c-0.1-0.4-0.2-0.9-0.3-1.7c-0.3-2.6-0.8-6.9-5.3-9.1l-47.7-19.5
		c-0.8-0.1-8.2-0.8-11.2,3.4c-1.4,1.9-2.2,3.2-2.7,4.1c-0.8,1.4-1.2,2-2.2,2.1c-0.2,0-0.4,0-0.8,0.1c-2.3,0.1-8.5,0.3-11.7,6.1
		c-2.7,5-3.1,7.4-3.3,8.9c-0.1,0.5-0.2,1-0.3,1.4c-0.2,0.5-0.9,1.1-2.1,2c-2.8,2.2-7.9,6.2-9.3,13.2c-1.7,8.6,2.3,13.4,3.1,14.3
		L175.9,250.4L175.9,250.4L175.9,250.4z"></path><path class="st0" d="M207.7,341.6l-0.3,69.4c0,0-9.2,3-22.6,5.8l-2.2-64.7l-37.8,5.5c0,0,1.2,40.1-0.4,63.5
		c-24.1,0.1-45.2-3.7-45.2-3.7l0.4-70.5c-22.4-1.2-24.1-22-18.2-43.2c5.9-21.2,10.6-47.4,28.2-64.4c5-4.8,11.6-7.9,18.9-9.6
		c14.3-3.3,31.3-1.3,43.5,3.1c3.4,1.2,6.5,2.6,9.1,4.2c16.2,9.8,43.4,48,43.4,48L207.7,341.6L207.7,341.6z"></path><path class="st1" d="M143.5,421.5c-23.5,0-44.2-3.7-44.5-3.8c-0.2,0-0.4-0.2-0.4-0.5l0.4-70c-7.5-0.5-13.1-3.2-16.7-8.2
		c-6.8-9.5-4.6-24.6-1.5-35.6c0.9-3.1,1.7-6.2,2.5-9.5c5-19,10.6-40.5,25.8-55.2c4.8-4.6,11.2-7.9,19.1-9.7
		c15.7-3.7,32.9-0.8,43.8,3.1c3.5,1.2,6.6,2.6,9.1,4.2c16.1,9.7,43.2,47.8,43.5,48.2c0.1,0.1,0.1,0.3,0.1,0.4l-16.7,56.8l-0.3,69.3
		c0,0.2-0.1,0.4-0.3,0.5c-0.1,0-9.4,3.1-22.6,5.8c-0.1,0-0.3,0-0.4-0.1c-0.1-0.1-0.2-0.2-0.2-0.4l-2.2-64.2l-36.8,5.4
		c0.1,4.5,1.1,41.3-0.4,63.1c0,0.3-0.2,0.5-0.5,0.5C144.1,421.5,143.8,421.5,143.5,421.5L143.5,421.5z M99.6,416.9
		c3,0.5,22.3,3.7,43.9,3.7c0.1,0,0.3,0,0.4,0c1.6-23.2,0.3-62.6,0.3-63c0-0.2,0.2-0.5,0.4-0.5l37.8-5.5c0.1,0,0.3,0,0.4,0.1
		s0.2,0.2,0.2,0.4l2.2,64.1c11.5-2.4,19.9-5,21.6-5.5l0.3-69c0,0,0-0.1,0-0.1l16.6-56.6c-2.1-3-27.7-38.5-43.1-47.7
		c-2.5-1.5-5.5-2.9-9-4.1c-10.7-3.8-27.7-6.6-43.2-3c-7.7,1.8-14,5-18.7,9.5c-15,14.5-20.6,35.9-25.5,54.8c-0.9,3.3-1.7,6.4-2.5,9.5
		c-2.5,8.9-5.6,25.1,1.3,34.8c3.4,4.8,8.9,7.4,16.4,7.8c0.3,0,0.5,0.2,0.5,0.5L99.6,416.9L99.6,416.9z M207.3,411L207.3,411
		L207.3,411z"></path><path class="st2" d="M171.4,233.4c0,0,9.6,75.4,11.1,118.7l-37.8,5.5c0.1-59.8-10.7-115.7-16.3-128
		C128.4,229.5,146.5,222.8,171.4,233.4L171.4,233.4z"></path><path class="st1" d="M144.7,358c-0.1,0-0.2,0-0.3-0.1c-0.1-0.1-0.2-0.2-0.2-0.4c0.1-59.5-10.7-115.6-16.3-127.8
		c-0.1-0.1-0.1-0.3,0-0.4c0.1-0.1,0.2-0.2,0.3-0.3c0.2-0.1,4.7-1.7,12.3-2.1c7-0.3,18.1,0.4,31.1,5.9c0.2,0.1,0.3,0.2,0.3,0.4
		c0.1,0.8,9.7,75.9,11.1,118.7c0,0.2-0.2,0.5-0.4,0.5L144.7,358C144.8,358,144.8,358,144.7,358L144.7,358z M129.1,229.8
		c5.6,13.2,16.2,68.5,16.2,127.1l36.8-5.4c-1.5-41.5-10.4-112.8-11.1-117.9C148.9,224.4,132.2,228.9,129.1,229.8L129.1,229.8z"></path><path class="st0" d="M165.2,279.9l-10.5-12.6c-1-1.2-0.9-3,0.3-4l0,0c1.2-1,3-0.9,4,0.3l34.3,39l1.9,5.8c0.2,0.7-0.5,1.4-1.2,1.1
		l-5.2-2.1L165.2,279.9L165.2,279.9z"></path><path class="st1" d="M194.4,310.1c-0.2,0-0.4,0-0.5-0.1l-5.2-2.1c-0.1,0-0.1-0.1-0.2-0.1l-23.6-27.5l0,0l-10.5-12.6
		c-1.2-1.4-1-3.5,0.4-4.7c1.4-1.2,3.5-1,4.7,0.3l34.3,39c0.1,0,0.1,0.1,0.1,0.2l1.9,5.8c0.2,0.5,0,1.1-0.4,1.4
		C195.1,310,194.7,310.1,194.4,310.1L194.4,310.1z M189.1,307.1l5.1,2c0.2,0.1,0.3,0,0.4-0.1c0.1,0,0.2-0.2,0.1-0.4l-1.8-5.7
		l-34.2-39c-0.8-1-2.3-1.1-3.3-0.2c-1,0.8-1.1,2.3-0.3,3.3l10.5,12.6L189.1,307.1L189.1,307.1z"></path><path class="st0" d="M127.8,200.7c0,0-9.8,3.7-16.5-3.8c-6.7-7.5-5.8-27.3,12.4-35.8s24.4,9.5,20.2,16.4
		C139.8,184.4,127.8,200.7,127.8,200.7z"></path><path class="st1" d="M122.1,202.1c-3.4,0-7.8-1-11.2-4.9c-3.4-3.9-4.8-10.6-3.4-17.2c1-4.9,4.4-14,16-19.4
		c10.3-4.8,16-0.9,18.4,1.8c4.2,4.6,4.6,11.6,2.4,15.3c-4.1,6.8-16,23.1-16.1,23.3c-0.1,0.1-0.1,0.1-0.2,0.2
		C127.9,201.2,125.4,202.1,122.1,202.1L122.1,202.1z M132.5,159.4c-2.4,0-5.2,0.6-8.6,2.2c-11.2,5.2-14.5,13.9-15.5,18.7
		c-1.3,6.3,0,12.7,3.2,16.3c6,6.7,14.7,4.1,15.9,3.7c1.1-1.5,12.1-16.6,16-23.1c2-3.4,1.5-9.8-2.3-14.1
		C139.7,161.5,136.9,159.4,132.5,159.4L132.5,159.4z M127.8,200.7L127.8,200.7L127.8,200.7z"></path><path class="st0" d="M130.2,210.2c-4.7-4.6-6.4-17.1,3.4-28.9s29.1-9.6,29.1-9.6c4.2-4.1,12.9-3.9,17.5,6.4s1,19.6,1,19.6
		L130.2,210.2L130.2,210.2z"></path><path class="st1" d="M130.2,210.7c-0.1,0-0.3-0.1-0.3-0.1c-4.7-4.6-6.9-17.2,3.3-29.5c5.1-6.2,12.9-8.5,18.5-9.4
		c5.4-0.8,9.7-0.5,10.8-0.4c2.2-2,5.3-2.9,8.3-2.3c4.1,0.8,7.5,4,9.8,9c4.6,10.4,1.2,19.6,1,20c-0.1,0.1-0.2,0.3-0.4,0.3l-50.9,12.4
		C130.3,210.7,130.2,210.7,130.2,210.7L130.2,210.7z M159.1,172.1c-6,0-18.2,1.1-25.2,9.6c-6,7.2-10.5,20.9-3.6,28l50.4-12.3
		c0.5-1.5,2.9-9.9-1.1-19c-2.1-4.7-5.3-7.7-9.1-8.5c-2.8-0.5-5.6,0.3-7.6,2.2c-0.1,0.1-0.3,0.1-0.4,0.1
		C162.5,172.3,161.2,172.1,159.1,172.1z"></path><path class="st0" d="M143.8,214.9c-1.6,8.8-4.5,22.4-4.5,22.4s1.3,5,9.9,6.9c8.6,1.8,9.8-5.5,10-7c0.2-1.5-0.4-6.6-0.4-8.3
		S143.8,214.9,143.8,214.9L143.8,214.9z"></path><path class="st1" d="M151.8,245c-0.8,0-1.7-0.1-2.7-0.3c-8.8-1.9-10.2-7-10.3-7.2c0-0.1,0-0.1,0-0.2c0-0.1,2.9-13.7,4.5-22.4
		c0-0.2,0.2-0.3,0.3-0.4s0.3,0,0.5,0.1c4.6,3.7,15.2,12.6,15.2,14.3c0,0.7,0.1,1.9,0.2,3.2c0.2,2.1,0.3,4.2,0.2,5.2
		c-0.1,1.3-0.8,4.6-3.4,6.4C155,244.5,153.5,245,151.8,245L151.8,245z M139.8,237.3c0.2,0.7,2,4.8,9.5,6.4c2.6,0.6,4.8,0.3,6.4-0.9
		c2.3-1.6,2.9-4.6,3-5.8c0.1-0.9-0.1-3-0.2-5c-0.1-1.3-0.2-2.6-0.2-3.3c-0.2-1.1-7.2-7.3-14.1-13C142.6,224,140.1,235.9,139.8,237.3
		L139.8,237.3z"></path><path class="st0" d="M177.5,188.1c0,0,10.5,22,2.4,32.4c-8.2,10.4-31.7,11.5-40.3-3c0,0-4.1,5.9-8.7,0.7c-4.6-5.2-0.2-11.8,6.5-9.7
		c0,0,1.7-6.5,12.8-11.8c11.1-5.3,16.2-13.3,16.2-13.3S168.9,187.1,177.5,188.1L177.5,188.1z"></path><path class="st1" d="M160.9,228.9c-0.7,0-1.3,0-2-0.1c-8.4-0.5-15.4-4.3-19.3-10.4c-0.7,0.9-2.3,2.3-4.4,2.5
		c-1.6,0.1-3.2-0.7-4.6-2.3c-2.2-2.5-2.7-5.7-1.1-8.1c1.5-2.4,4.5-3.4,7.6-2.6c0.6-1.6,3.3-7.1,12.9-11.6c10.8-5.2,16-13.1,16-13.1
		c0.1-0.1,0.2-0.2,0.4-0.2c0.2,0,0.3,0.1,0.4,0.2c0,0,2.6,3.6,10.9,4.5c0.2,0,0.3,0.1,0.4,0.3c0,0.1,2.7,5.6,4.3,12.4
		c2.2,9.2,1.5,16.1-2,20.5C176.4,225.8,168.9,228.9,160.9,228.9L160.9,228.9z M139.6,217C139.6,217,139.6,217,139.6,217
		c0.2,0,0.4,0.1,0.4,0.2c3.7,6.2,10.6,10,18.9,10.5c8.5,0.5,16.6-2.4,20.6-7.6c7.4-9.5-1.2-29.2-2.3-31.6c-6.7-0.8-9.8-3.3-10.8-4.4
		c-1.4,1.9-6.5,8.4-16,12.9c-10.7,5.1-12.5,11.4-12.5,11.5c0,0.1-0.1,0.2-0.2,0.3s-0.3,0.1-0.4,0c-2.9-0.9-5.6-0.1-7,2
		c-1.1,1.6-1.3,4.3,1,6.9c1.2,1.4,2.5,2,3.8,1.9c2.4-0.1,4.1-2.6,4.1-2.6C139.3,217.1,139.4,217,139.6,217L139.6,217z"></path><path class="st1" d="M158,201.5c-2.7,0.1-5.2,0.6-7.8,1.3c-0.5,0.1-0.9-0.6-0.4-0.9c1.8-1.4,4.1-2,6.3-1.8c0.8,0.1,1.5,0.2,2.2,0.5
		c0.3,0.1,0.4,0.4,0.3,0.6C158.5,201.4,158.3,201.5,158,201.5L158,201.5L158,201.5z"></path><path class="st1" d="M176.7,197.1c-3,0.6-5.8,1.7-8.7,2.5c-0.5,0.2-0.9-0.6-0.4-0.9c2.6-1.8,5.9-2.9,9.1-2.6
		C177.3,196.2,177.3,197.1,176.7,197.1L176.7,197.1L176.7,197.1z"></path><path class="st1" d="M170.6,212.6c-1.6,0-3.3-1.1-3.6-2.9c0-0.3,0.1-0.5,0.4-0.6c0.3,0,0.5,0.1,0.6,0.4c0.2,1.4,1.6,2.1,2.8,2
		c0.5,0,1.6-0.3,1.6-1.8c0-0.5-0.2-0.9-0.5-1.2c-0.8-0.7-2.5-0.6-3.1-0.6c-0.3,0-0.5-0.1-0.6-0.4c0-0.1-0.8-3.7-0.9-8.5
		c0-0.3,0.2-0.5,0.5-0.5c0.3,0,0.5,0.2,0.5,0.5c0.1,3.7,0.6,6.8,0.8,7.8c0.8-0.1,2.5,0,3.5,0.8c0.6,0.5,0.8,1.1,0.8,2
		c0,1.6-1,2.7-2.6,2.8C170.8,212.6,170.7,212.6,170.6,212.6L170.6,212.6z"></path><path class="st1" d="M154.4,207.4c0.4,1.4,1.5,2.2,2.4,2c0.9-0.3,1.4-1.6,1-2.9c-0.1-0.4-0.3-0.8-0.5-1.1l-1.4,1.3l0.2-2.2
		c-0.2-0.1-0.5-0.1-0.7,0C154.5,204.8,154,206.1,154.4,207.4L154.4,207.4z"></path><path class="st1" d="M170.1,203.7c0.4,1.2,1.3,2,2.2,1.8s1.2-1.4,0.9-2.6c-0.1-0.4-0.3-0.7-0.5-1l-1.2,1.2l0.2-2
		c-0.2-0.1-0.4-0.1-0.6,0C170.1,201.3,169.7,202.5,170.1,203.7L170.1,203.7z"></path><path class="st1" d="M165.9,219.3c-0.1,0-0.2,0-0.3,0c-1.4-0.1-2.6-1-3.4-2.5c-0.1-0.2,0-0.6,0.2-0.7c0.2-0.1,0.6,0,0.7,0.2
		c0.6,1.2,1.6,1.9,2.6,2c1.2,0.1,2.5-0.6,3.6-2.1c0.2-0.2,0.5-0.3,0.7-0.1s0.3,0.5,0.1,0.7C168.8,218.4,167.3,219.3,165.9,219.3
		L165.9,219.3z"></path><path class="st1" d="M131.5,214.8C131.5,214.8,131.4,214.8,131.5,214.8c-0.4,0-0.5-0.3-0.5-0.6c0.2-1.2,0.7-2.2,1.6-2.8
		c1.7-1.1,3.9-0.6,3.9-0.5c0.3,0.1,0.4,0.3,0.4,0.6c-0.1,0.3-0.3,0.4-0.6,0.4c0,0-1.9-0.4-3.2,0.4c-0.6,0.4-1,1.1-1.2,2.1
		C131.9,214.6,131.7,214.8,131.5,214.8L131.5,214.8z"></path><path class="st1" d="M135.5,217.7C135.5,217.7,135.5,217.7,135.5,217.7c-1-0.1-1.8-0.6-2.3-1.4c-1-1.4-1.1-3.5-0.9-4.4
		c0.1-0.3,0.4-0.4,0.6-0.4c0.3,0.1,0.4,0.4,0.3,0.6c-0.2,0.6-0.1,2.4,0.7,3.6c0.4,0.6,0.9,0.9,1.6,1c0.3,0,0.5,0.3,0.4,0.6
		C136,217.5,135.8,217.7,135.5,217.7L135.5,217.7z"></path><path class="st0" d="M153.9,298.8c5.1-5.2,11-14.7,11.4-18.8l4.7,5c0,0,12.8-0.6,12.6,8.4c0,0,5,2,2.6,7.4c0,0,1.9,7.1-2.6,7.2
		c0,0,1,6.1-3.9,5.8c0,0-3.3,3-6.1,2.2c-2.8-0.8-1.8-3.7-1.8-3.7s-3.8,3.4-9.1,4.5C161.7,316.8,158.3,301.2,153.9,298.8L153.9,298.8
		z"></path><path class="st1" d="M161.7,317.3c-0.2,0-0.4-0.2-0.5-0.4c0-0.1-3.4-15.5-7.6-17.7c-0.1-0.1-0.2-0.2-0.3-0.4c0-0.2,0-0.3,0.1-0.4
		c5.2-5.4,10.9-14.7,11.2-18.5c0-0.2,0.1-0.4,0.3-0.4c0.2-0.1,0.4,0,0.5,0.1l4.5,4.9c1.3,0,7.4,0,10.8,3.3c1.4,1.4,2.1,3.2,2.2,5.3
		c0.7,0.3,2.2,1.3,2.9,3c0.6,1.4,0.5,3-0.2,4.7c0.2,0.9,1,4.5-0.5,6.4c-0.5,0.7-1.2,1.1-2.1,1.2c0.1,1,0.1,3.3-1.2,4.7
		c-0.8,0.8-1.8,1.2-3.1,1.2c-0.7,0.6-3.7,2.9-6.4,2.2c-0.9-0.3-1.6-0.8-2-1.5c-0.3-0.5-0.3-1-0.3-1.5c-1.5,1.1-4.5,3-8.3,3.8
		C161.8,317.3,161.8,317.3,161.7,317.3L161.7,317.3z M154.6,298.7c3.9,3,6.9,14.9,7.5,17.6c4.8-1.1,8.3-4.3,8.3-4.3
		c0.2-0.1,0.4-0.2,0.6,0c0.2,0.1,0.3,0.4,0.2,0.6c0,0-0.4,1.2,0.1,2c0.2,0.5,0.7,0.8,1.4,1c2.5,0.7,5.6-2.1,5.6-2.1
		c0.1-0.1,0.2-0.1,0.4-0.1c1.1,0.1,2-0.2,2.6-0.9c1.3-1.5,0.9-4.3,0.9-4.4c0-0.1,0-0.3,0.1-0.4s0.2-0.2,0.4-0.2
		c0.8,0,1.4-0.3,1.8-0.8c1.3-1.8,0.3-5.7,0.3-5.8c0-0.1,0-0.2,0-0.3c0.7-1.5,0.8-2.9,0.3-4.1c-0.7-1.8-2.6-2.6-2.6-2.7
		c-0.2-0.1-0.3-0.3-0.3-0.5c0.1-2-0.6-3.6-1.9-4.9c-3.4-3.3-10.2-3-10.2-3c-0.1,0-0.3,0-0.4-0.2l-4-4.3
		C164.5,285.6,159.1,293.9,154.6,298.7L154.6,298.7z"></path><path class="st1" d="M160.9,292.5c-0.1,0-0.2,0-0.3-0.1c-0.2-0.2-0.2-0.5-0.1-0.7c3.5-4.5,8.9-7.1,9.2-7.2c0.2-0.1,0.6,0,0.7,0.2
		s0,0.5-0.2,0.7c-0.1,0-5.4,2.6-8.8,6.9C161.2,292.4,161.1,292.5,160.9,292.5L160.9,292.5z"></path><path class="st1" d="M182.5,293.9c-0.1,0-0.2,0-0.2-0.1c-0.1,0-6.1-3.4-9.7-3c-0.3,0-0.5-0.2-0.6-0.4c0-0.3,0.2-0.5,0.4-0.6
		c4-0.5,10.1,3,10.3,3.1c0.2,0.1,0.3,0.4,0.2,0.7C182.9,293.8,182.7,293.8,182.5,293.9L182.5,293.9z"></path><path class="st1" d="M185.1,301.2c-0.1,0-0.2,0-0.3-0.1c-0.1,0-6.1-4.7-10.8-5.5c-0.3,0-0.5-0.3-0.4-0.6s0.3-0.5,0.6-0.4
		c4.9,0.8,10.9,5.5,11.2,5.7c0.2,0.2,0.3,0.5,0.1,0.7C185.4,301.2,185.3,301.2,185.1,301.2L185.1,301.2z"></path><path class="st1" d="M182.6,308.4c-0.2,0-0.3-0.1-0.4-0.2c0-0.1-3.5-5.9-7-6.9c-0.3-0.1-0.4-0.4-0.4-0.6c0.1-0.3,0.4-0.4,0.6-0.4
		c3.9,1.1,7.4,7,7.6,7.3c0.1,0.2,0.1,0.5-0.2,0.7C182.7,308.4,182.6,308.4,182.6,308.4L182.6,308.4z"></path><path class="st1" d="M178.6,314.2c-0.3,0-0.5-0.2-0.5-0.5c0-0.1-0.1-6-2.9-7.9c-0.2-0.2-0.3-0.5-0.1-0.7c0.1-0.2,0.5-0.3,0.7-0.1
		c3.2,2.2,3.4,8.4,3.4,8.7C179.1,314,178.9,314.2,178.6,314.2L178.6,314.2L178.6,314.2z"></path><path class="st1" d="M170.8,312.8c-0.1,0-0.2,0-0.3-0.1c-0.2-0.2-0.3-0.5-0.1-0.7c1.1-1.5,1-3.2,1-3.2c0-0.3,0.2-0.5,0.4-0.5
		c0.3,0,0.5,0.2,0.5,0.5c0,0.1,0.2,2.1-1.2,3.9C171.1,312.7,170.9,312.8,170.8,312.8L170.8,312.8z"></path><path class="st2" d="M260.1,299.5l12.7-23.8c1.1-2-0.7-4.5-3-4l-63.1,12.1c-0.8,0.1-1.4,0.6-1.8,1.3l-42.5,69.5
		c-1.2,2,0.5,4.6,2.9,4.2l64.1-11.6c0.8-0.1,1.4-0.6,1.9-1.2L260.1,299.5L260.1,299.5z"></path><path class="st1" d="M164.7,359.3c-1.1,0-2.1-0.5-2.7-1.4c-0.7-1.1-0.8-2.4-0.1-3.5l42.5-69.5c0.5-0.8,1.3-1.3,2.2-1.5l63.1-12.1
		c1.2-0.2,2.5,0.2,3.2,1.3s0.9,2.4,0.2,3.5l-12.7,23.8c0,0,0,0,0,0l-29,46.4c-0.5,0.8-1.3,1.3-2.2,1.5l-64.1,11.6
		C165.1,359.3,164.9,359.3,164.7,359.3L164.7,359.3z M270.4,272.2c-0.1,0-0.3,0-0.5,0l-63.1,12.1c-0.6,0.1-1.2,0.5-1.5,1l-42.5,69.5
		c-0.5,0.8-0.4,1.7,0.1,2.5s1.4,1.1,2.3,1l64.1-11.6c0.6-0.1,1.2-0.5,1.5-1l29-46.4l12.7-23.8c0.4-0.8,0.4-1.7-0.2-2.4
		C271.8,272.5,271.1,272.2,270.4,272.2L270.4,272.2z M260.1,299.5L260.1,299.5L260.1,299.5z"></path><path class="st0" d="M249.1,320.4c1.7,1.1,3.2,6.1-1.2,7.4s-9.6,1.5-11-0.7s3.8-6.1,3.8-6.1L249.1,320.4L249.1,320.4z"></path><path class="st1" d="M241.8,329.3c-2.4,0-4.4-0.6-5.3-1.9c-1.6-2.5,3.3-6.3,3.9-6.8c0.1-0.1,0.2-0.1,0.3-0.1l8.4-0.6
		c0.1,0,0.2,0,0.3,0.1c1.1,0.7,2.1,2.8,1.9,4.8c-0.2,1.7-1.4,3-3.2,3.5C246,328.9,243.8,329.3,241.8,329.3L241.8,329.3z
		 M240.9,321.5c-1.3,1-4.5,3.9-3.5,5.3c1.3,1.9,6.3,1.8,10.4,0.5c1.8-0.6,2.4-1.8,2.5-2.7c0.2-1.6-0.6-3.2-1.3-3.8L240.9,321.5
		L240.9,321.5z"></path><path class="st0" d="M252.2,313.9c2.8,1.2,3.4,5.9-1.4,7.6c-4.7,1.7-10.9,1.8-12.3-0.1s3.1-6.5,3.1-6.5L252.2,313.9L252.2,313.9z"></path><path class="st1" d="M243.4,323.3c-2.4,0-4.4-0.5-5.3-1.6c-1.7-2.1,2.6-6.6,3.1-7.1c0.1-0.1,0.2-0.1,0.3-0.1l10.6-1.1
		c0.1,0,0.2,0,0.2,0c1.5,0.6,2.5,2.2,2.4,3.9c0,2-1.5,3.8-3.9,4.7C248.6,322.8,245.8,323.3,243.4,323.3L243.4,323.3z M241.8,315.4
		c-1.4,1.5-3.8,4.6-2.9,5.7c1.3,1.6,7.2,1.6,11.8-0.1c2-0.7,3.2-2.1,3.2-3.7c0-1.2-0.7-2.4-1.7-2.9L241.8,315.4L241.8,315.4z"></path><path class="st0" d="M256.1,307c1.9,2.6,1.4,7.1-2.9,8.4s-13.1,3-14.1,0.1s3.6-6.7,3.6-6.7L256.1,307z"></path><path class="st1" d="M243.3,317.6c-2.4,0-4.3-0.5-4.8-1.9c-1.1-3.2,3.6-7.1,3.8-7.2c0.1-0.1,0.2-0.1,0.2-0.1l13.4-1.8
		c0.2,0,0.4,0,0.5,0.2c1.1,1.5,1.5,3.6,0.9,5.4c-0.6,1.8-2,3.2-4.1,3.8C251.2,316.5,246.8,317.6,243.3,317.6L243.3,317.6z
		 M242.9,309.3c-1.3,1.1-4.1,4-3.4,6c0.8,2.2,8.5,1.2,13.5-0.4c1.7-0.5,2.9-1.7,3.4-3.2c0.5-1.4,0.2-3-0.6-4.2L242.9,309.3
		L242.9,309.3z"></path><path class="st0" d="M258.2,302c0,0-4.1,3.6-8.8,2.9c-4.8-0.8-8.3-0.5-8.8,3.6s12.6,2.8,17.2-0.4c4.6-3.2,4.3-6.9,2.3-8.6
		L258.2,302L258.2,302z"></path><path class="st1" d="M246.1,311.6c-2,0-3.7-0.3-4.8-1c-1.1-0.7-1.3-1.5-1.2-2.2c0.2-1.5,0.7-2.6,1.7-3.3c1.9-1.4,5.1-1.1,7.7-0.7
		c4.2,0.7,8-2.4,8.4-2.7l1.9-2.5c0.1-0.1,0.2-0.2,0.3-0.2c0.1,0,0.3,0,0.4,0.1c1.1,0.9,1.6,2.2,1.5,3.7c-0.1,2-1.5,4.1-3.9,5.8
		C255.6,310.3,250.3,311.6,246.1,311.6L246.1,311.6z M245.8,305.1c-1.6,0-2.7,0.3-3.4,0.9c-0.7,0.6-1.2,1.4-1.3,2.6
		c0,0.3,0,0.8,0.7,1.2c2.8,1.7,12.1,0.5,15.7-2c2.1-1.5,3.4-3.2,3.5-5c0.1-0.9-0.2-1.8-0.8-2.5l-1.6,2.1c0,0,0,0-0.1,0.1
		c-0.2,0.2-4.3,3.8-9.2,3C247.9,305.2,246.8,305.1,245.8,305.1L245.8,305.1z M258.2,302L258.2,302L258.2,302z"></path><path class="st1" d="M121.7,307.1L121.7,307.1c-0.3,0-0.5-0.2-0.5-0.5c0-0.2,0.6-18.6-5.2-44.5c-0.1-0.3,0.1-0.5,0.4-0.6
		c0.3,0,0.5,0.1,0.6,0.4c5.8,26,5.2,44.5,5.2,44.7C122.2,306.9,121.9,307.1,121.7,307.1L121.7,307.1z"></path><path class="st0" d="M107.9,312.5c10.6-4.4,42.6-16.7,46-13.8c0,0,4.6,2.5,7.9,18.1c1.1,5.3-9,13.9-27.7,22
		c-18.7,8.1-29.5,8.3-29.5,8.3"></path><path class="st1" d="M104.6,347.6c-0.3,0-0.5-0.2-0.5-0.5c0-0.3,0.2-0.5,0.5-0.5c0.1,0,10.9-0.4,29.3-8.3
		c20.2-8.7,28.3-17,27.4-21.4c-3.1-15-7.6-17.7-7.6-17.7c0,0-0.1,0-0.1-0.1c-2.8-2.5-31,7.8-45.5,13.9c-0.2,0.1-0.6,0-0.7-0.3
		c-0.1-0.2,0-0.5,0.3-0.6c0.4-0.2,41.9-17.3,46.5-13.7c0.6,0.3,5,3.4,8.1,18.4c1.2,5.8-9.8,14.7-27.9,22.5
		C115.7,347.3,104.7,347.6,104.6,347.6L104.6,347.6L104.6,347.6z"></path><path class="st1" d="M195.2,294.6c-0.2,0-0.4-0.1-0.5-0.4c-0.1-0.3-6.5-25.9-11.6-40.1c-0.1-0.3,0-0.5,0.3-0.6
		c0.3-0.1,0.6,0,0.6,0.3c5.1,14.2,11.5,39.9,11.6,40.2c0.1,0.3-0.1,0.5-0.4,0.6C195.3,294.6,195.2,294.6,195.2,294.6L195.2,294.6z"></path><path class="st1" d="M136.4,261.9c-0.1,0-0.2,0-0.3-0.1l-11.3-9.1c-0.2-0.1-0.2-0.4-0.1-0.6l3-6.5l-7.1-2.6
		c-0.2-0.1-0.4-0.3-0.3-0.6l2.2-11.4c0.1-0.3,0.3-0.4,0.6-0.4s0.4,0.3,0.4,0.6l-2.2,11l7.2,2.6c0.1,0.1,0.2,0.1,0.3,0.3
		c0.1,0.1,0.1,0.3,0,0.4l-3.1,6.6l11,8.9c0.2,0.2,0.2,0.5,0.1,0.7C136.7,261.8,136.5,261.9,136.4,261.9L136.4,261.9z"></path><path class="st1" d="M174.8,262.5c-0.1,0-0.1,0-0.2,0c-0.3-0.1-0.4-0.4-0.3-0.6l5.4-15.3l-4.6-2.9c-0.2-0.1-0.3-0.4-0.2-0.6
		c0.1-0.2,0.3-0.4,0.5-0.3l4.2,0.3l-4.1-8.5c-0.1-0.2,0-0.6,0.2-0.7s0.6,0,0.7,0.2l4.5,9.2c0.1,0.2,0.1,0.4,0,0.5s-0.3,0.2-0.4,0.2
		l-3.2-0.2l3.3,2.1c0.2,0.1,0.3,0.4,0.2,0.6l-5.6,15.7C175.3,262.4,175.1,262.5,174.8,262.5L174.8,262.5z"></path><path class="st1" d="M159.2,393.6c0,0-0.1,0-0.1,0c-0.3-0.1-0.4-0.3-0.4-0.6c2.4-11.1,6.2-24.8,6.2-24.9c0.1-0.3,0.4-0.4,0.6-0.4
		c0.3,0.1,0.4,0.4,0.4,0.6c0,0.1-3.9,13.8-6.2,24.8C159.6,393.4,159.4,393.6,159.2,393.6L159.2,393.6z"></path></g><g id="rocket"><path class="st0" d="M349,174.2c-28.3,0-41,7.8-41,7.8c8.4-36.1,25.7-58.9,41-58.9s31.5,21.4,40.1,55.5
		C389.1,178.5,377.3,174.2,349,174.2L349,174.2z"></path><path class="st1" d="M308,182.5c-0.1,0-0.2,0-0.3-0.1c-0.2-0.1-0.2-0.3-0.2-0.5c8.1-34.9,25.2-59.3,41.5-59.3s32.3,23,40.6,55.9
		c0,0.2,0,0.4-0.1,0.5c-0.1,0.1-0.3,0.2-0.5,0.1c-0.1,0-12.1-4.3-40-4.3s-40.6,7.7-40.7,7.8C308.2,182.5,308.1,182.5,308,182.5
		L308,182.5z M349,123.5c-15.6,0-32.1,23.6-40.2,57.5c3.5-1.8,16.5-7.4,40.2-7.4s36.2,3.1,39.4,4.1
		C380.1,145.8,363.9,123.5,349,123.5L349,123.5z"></path><path class="st0" d="M396.6,288.3v0.2c0,37-1,68.8-1,68.8s-2.6,9.8-8.3,14.9c0,0-10.8-4-38.4-4s-38.4,4-38.4,4
		c-5.7-5.2-8.3-14.9-8.3-14.9s-1-31.8-1-68.8v-0.2c0-25.5,0.5-53.5,2-75.3c0.3-4.5,0.8-8.9,1.4-13.1c0.1-0.8,21.4-7.3,44.2-7.3
		s43.9,5,43.9,5c0.7,5,1.3,10.1,1.7,15.5C396.1,234.8,396.6,262.8,396.6,288.3L396.6,288.3z"></path><path class="st1" d="M387.3,372.6c-0.1,0-0.1,0-0.2,0c-0.1,0-11.1-3.9-38.2-3.9s-38.1,3.9-38.2,3.9c-0.2,0.1-0.4,0-0.5-0.1
		c-5.8-5.2-8.3-14.7-8.4-15.1c0,0,0-0.1,0-0.1c0-0.3-1-32.2-1-68.8v-0.2c0-31.1,0.7-56.5,2-75.4c0.3-4.5,0.8-8.9,1.4-13.2
		c0.2-1.6,23.2-7.8,44.7-7.8s43.8,4.9,44,5c0.2,0.1,0.4,0.2,0.4,0.4c0.8,5.1,1.3,10.4,1.7,15.5c1.4,18.9,2,44.2,2,75.3v0.2
		c0,36.6-1,68.5-1,68.8c0,0,0,0.1,0,0.1c-0.1,0.4-2.7,10-8.4,15.1C387.6,372.6,387.5,372.6,387.3,372.6L387.3,372.6z M302.8,357.2
		c0.2,0.8,2.7,9.6,7.9,14.4c1.9-0.6,13-3.9,38.2-3.9s36.3,3.2,38.2,3.9c5.2-4.9,7.7-13.6,7.9-14.4c0-1.6,1-32.9,1-68.7v-0.2
		c0-31.1-0.7-56.4-2-75.3c-0.4-5-0.9-10.1-1.6-15.1c-2.8-0.6-22.5-4.9-43.5-4.9s-41.9,5.9-43.8,7.1c-0.6,4.2-1,8.5-1.3,12.9
		c-1.3,18.8-2,44.1-2,75.3v0.2C301.8,324.3,302.8,355.6,302.8,357.2L302.8,357.2z M395.6,357.2L395.6,357.2L395.6,357.2z
		 M305.2,199.9C305.2,199.9,305.2,199.9,305.2,199.9C305.2,199.9,305.2,199.9,305.2,199.9z"></path><path class="st0" d="M434.8,412.4c-2.9-4-6-9.7-8.8-17.9c-10.7-31-17.4-45-17.4-45l-12-11v-50.2c0,0,27.7,33.1,30,39.7
		c1.7,4.9,14,53.5,20.4,78.6C448.8,413.9,439.2,418.4,434.8,412.4L434.8,412.4z"></path><path class="st1" d="M440.2,415.7c-2.1,0-4.2-0.9-5.8-3l0,0c-3.3-4.5-6.3-10.6-8.9-18c-10.2-29.4-16.8-43.6-17.3-44.8l-11.9-11
		c-0.1-0.1-0.2-0.2-0.2-0.4v-50.2c0-0.2,0.1-0.4,0.3-0.5c0.2-0.1,0.4,0,0.5,0.1c1.1,1.4,27.7,33.2,30.1,39.9
		c1.7,4.8,13.5,51.4,20.4,78.6c1,4-1.3,7.2-4,8.4C442.5,415.4,441.3,415.7,440.2,415.7L440.2,415.7z M435.2,412.1
		c2.1,2.9,5.5,3.1,7.8,2c2.4-1.1,4.3-3.8,3.5-7.3c-6.9-27.3-18.7-73.8-20.3-78.6c-2-5.8-24.3-32.8-29-38.5v48.6l11.8,10.9
		c0,0,0.1,0.1,0.1,0.1c0.1,0.1,6.8,14.3,17.4,45C429,401.6,431.9,407.6,435.2,412.1L435.2,412.1L435.2,412.1z"></path><path class="st0" d="M301.4,288.3v50.2l-12,11c0,0-6.7,13.9-17.4,45c-2.8,8.1-5.8,13.9-8.8,17.9c-4.4,6.1-14,1.6-12.1-5.7
		c6.3-25.1,18.6-73.7,20.4-78.6C273.7,321.4,301.3,288.3,301.4,288.3L301.4,288.3z"></path><path class="st1" d="M257.8,415.7c-1.1,0-2.3-0.3-3.2-0.7c-2.7-1.3-5-4.4-4-8.4c6.9-27.3,18.7-73.8,20.4-78.6
		c2.3-6.7,28.9-38.5,30.1-39.9c0.1-0.2,0.4-0.2,0.5-0.1c0.2,0.1,0.3,0.3,0.3,0.5v50.2c0,0.1-0.1,0.3-0.2,0.4l-11.9,11
		c-0.6,1.2-7.2,15.4-17.4,44.8c-2.6,7.4-5.5,13.5-8.9,18C262,414.8,259.8,415.7,257.8,415.7L257.8,415.7z M300.9,289.7
		c-4.7,5.7-27,32.7-29,38.5c-1.7,4.8-13.5,51.3-20.3,78.6c-0.9,3.5,1.1,6.2,3.4,7.3c2.4,1.1,5.7,0.9,7.8-2
		c3.2-4.4,6.2-10.4,8.7-17.7c10.6-30.7,17.4-44.9,17.4-45c0-0.1,0.1-0.1,0.1-0.1l11.8-10.9L300.9,289.7L300.9,289.7z"></path><path class="st0" d="M409.8,431.3c0.9,3.4-1.4,6.8-4.9,7.3c-2.1,0.3-4.8,0.7-8.1,1c-70.2,3.8-97-0.1-97-0.1c-2.7-0.3-5-0.6-6.8-0.9
		c-3.5-0.5-5.8-3.9-4.9-7.3s2.2-8.8,4.2-16.1c4.3-15.9,10.9-22.6,10.9-22.6c14.9-4.1,45.8-4.6,45.8-4.6s30.9,0.4,45.8,4.6
		c0,0,6.6,6.7,10.9,22.6C407.6,422.4,408.9,427.7,409.8,431.3L409.8,431.3z"></path><path class="st1" d="M341.8,441.8c-29.4,0-41.9-1.8-42.1-1.8c-2.5-0.3-4.7-0.6-6.8-0.9c-1.8-0.3-3.4-1.3-4.4-2.8s-1.3-3.4-0.9-5.1
		c1.1-4.6,2.5-10,4.2-16.1c4.3-15.8,10.8-22.5,11-22.8c0.1-0.1,0.1-0.1,0.2-0.1c14.8-4.1,45.6-4.6,45.9-4.6c0.3,0,31.1,0.5,45.9,4.6
		c0.1,0,0.2,0.1,0.2,0.1c0.3,0.3,6.7,7,11,22.8c1.7,6.1,3.1,11.6,4.2,16.1c0.4,1.8,0.1,3.6-0.9,5.1c-1,1.5-2.6,2.5-4.4,2.8
		c-2.4,0.4-5.1,0.7-8.1,1C374.2,441.4,356,441.8,341.8,441.8L341.8,441.8z M303.5,393.1c-0.8,0.9-6.8,7.7-10.7,22.2
		c-1.6,6.1-3,11.5-4.2,16.1c-0.4,1.5-0.1,3.1,0.8,4.4c0.9,1.3,2.2,2.1,3.7,2.4c2,0.3,4.3,0.6,6.7,0.9c0.3,0,27.7,3.9,97,0.1
		c3-0.3,5.7-0.6,8.1-1c1.5-0.2,2.9-1.1,3.7-2.4c0.9-1.3,1.1-2.9,0.8-4.4l0,0c-1.1-4.5-2.5-9.9-4.2-16.1
		c-3.9-14.5-9.9-21.4-10.7-22.2c-14.8-4-45.2-4.5-45.5-4.5C348.7,388.6,318.2,389,303.5,393.1L303.5,393.1z"></path><path class="st3" d="M394.8,392.6c-14.9-4.1-45.8-4.6-45.8-4.6s-30.8,0.4-45.8,4.6c-3.5-1.9-4.4-12.4-3.2-15
		c1.2-2.6,10.6-5.5,10.6-5.5s10.8-4,38.4-4s38.4,4,38.4,4s9.4,2.9,10.6,5.5C399.2,380.2,398.3,390.8,394.8,392.6L394.8,392.6z"></path><path class="st1" d="M394.8,393.1c0,0-0.1,0-0.1,0c-14.7-4.1-45.4-4.6-45.6-4.6c-0.3,0-30.9,0.5-45.6,4.6c-0.1,0-0.3,0-0.4,0
		c-4-2.1-4.7-13-3.4-15.6c1.3-2.7,9.9-5.5,10.9-5.8c0.4-0.2,11.2-4,38.5-4s38.1,3.8,38.5,4c1,0.3,9.6,3,10.9,5.8
		c1.4,3,0.4,13.6-3.4,15.6C394.9,393.1,394.8,393.1,394.8,393.1L394.8,393.1z M349,387.6c0.3,0,30.8,0.5,45.7,4.5
		c3-2,4-11.9,2.8-14.2c-0.9-2-7.8-4.4-10.3-5.2c-0.1,0-11.1-3.9-38.2-3.9s-38.1,3.9-38.2,3.9c-2.6,0.8-9.4,3.3-10.3,5.2
		c-1.1,2.4-0.2,12.3,2.8,14.2C318.2,388,348.6,387.6,349,387.6L349,387.6z"></path><path class="st0" d="M360,377.8c-2.9,12.5-5.8,24.8-7.8,33.6c-0.8,3.4-5.6,3.4-6.4,0c-2.1-8.9-4.9-21.1-7.8-33.6
		c-5.6-24.2-5.6-27.9-3-45.1c2.6-17.1,6.3-42.1,14-43.2c7.7,1.1,11.4,26.1,14,43.2C365.6,349.9,365.6,353.6,360,377.8L360,377.8z"></path><path class="st1" d="M349,414.5L349,414.5c-1.5,0-3.2-0.9-3.7-2.9c-2.1-8.9-4.9-21.1-7.8-33.6c-5.6-24.4-5.6-28-3-45.3l0-0.4
		c2.7-17.8,6.4-42.1,14.4-43.3c0,0,0.1,0,0.1,0c8,1.2,11.7,25.5,14.4,43.3l0,0.4c2.6,17.3,2.6,20.9-3,45.3
		c-3,12.8-5.9,25.4-7.8,33.6C352.2,413.6,350.5,414.5,349,414.5L349,414.5z M349,290c-7.2,1.2-11,26-13.5,42.4l-0.1,0.4
		c-2.6,17.1-2.6,20.7,3,44.9c2.9,12.5,5.7,24.8,7.8,33.6c0.4,1.6,1.7,2.2,2.7,2.2l0,0c1,0,2.4-0.6,2.7-2.2
		c1.9-8.3,4.9-20.8,7.8-33.6l0,0c5.6-24.2,5.6-27.8,3-44.9l0-0.4C360,316,356.2,291.2,349,290L349,290z"></path><circle class="st0" cx="349" cy="240.7" r="30.2"></circle><path class="st1" d="M349,271.4c-16.9,0-30.7-13.8-30.7-30.7S332,210,349,210s30.7,13.8,30.7,30.7S365.9,271.4,349,271.4z M349,211
		c-16.4,0-29.7,13.3-29.7,29.7s13.3,29.7,29.7,29.7s29.7-13.3,29.7-29.7S365.4,211,349,211L349,211z"></path><circle class="st3" cx="349" cy="240.7" r="18.4"></circle><path class="st1" d="M349,259.6c-10.4,0-18.9-8.5-18.9-18.9s8.5-18.9,18.9-18.9s18.9,8.5,18.9,18.9S359.4,259.6,349,259.6z
		 M349,222.8c-9.9,0-17.9,8-17.9,17.9s8,17.9,17.9,17.9s17.9-8,17.9-17.9S358.8,222.8,349,222.8L349,222.8z"></path><path class="st4" d="M392.9,197.5c0,0-21.1-5-43.9-5s-44.1,6.5-44.2,7.3c0.8-6.2,1.9-12.2,3.2-17.8c0,0,12.7-7.8,41-7.8
		s40.1,4.4,40.1,4.4l0,0C390.7,184.5,391.9,190.8,392.9,197.5L392.9,197.5z"></path><path class="st1" d="M304.7,200.3C304.7,200.3,304.7,200.3,304.7,200.3c-0.3,0-0.5-0.3-0.5-0.6l0,0l0,0c0.8-6,1.9-12,3.2-17.9
		c0-0.1,0.1-0.2,0.2-0.3c0.1-0.1,13.1-7.9,41.3-7.9s40.2,4.4,40.3,4.4c0.2,0.1,0.3,0.2,0.3,0.4c1.5,6.1,2.8,12.4,3.8,19
		c0,0.2,0,0.3-0.2,0.4c-0.1,0.1-0.3,0.1-0.5,0.1c-0.2-0.1-21.3-5-43.8-5s-42.4,6.1-43.8,7.1C305.1,200.2,304.9,200.3,304.7,200.3
		L304.7,200.3z M308.4,182.3c-1.2,5.4-2.3,11-3,16.6c4.9-2.3,24.8-6.9,43.6-6.9c20.3,0,39.4,4,43.3,4.8c-0.9-6.2-2.1-12.2-3.6-17.9
		c-1.9-0.6-14-4.2-39.7-4.2S310,181.4,308.4,182.3L308.4,182.3z"></path></g><g id="indicator"><path class="st2" d="M197.4,206.9c0,0,32.9-18.9,64.2,0l9.1-15.6c0,0-13.2-13.9-41.1-13.9s-41.1,12.3-41.1,12.3L197.4,206.9
		L197.4,206.9z"></path><path class="st1" d="M261.6,207.4c-0.1,0-0.2,0-0.3-0.1c-30.7-18.6-63.3-0.2-63.7,0c-0.1,0.1-0.3,0.1-0.4,0.1
		c-0.1,0-0.2-0.1-0.3-0.2l-8.9-17.2c-0.1-0.2-0.1-0.4,0.1-0.6c0.1-0.1,13.7-12.4,41.4-12.4c14.5,0,25,3.8,31.2,7
		c6.8,3.5,10.1,6.9,10.2,7.1c0.1,0.2,0.2,0.4,0.1,0.6l-9.1,15.6c-0.1,0.1-0.2,0.2-0.3,0.2C261.7,207.4,261.7,207.4,261.6,207.4
		L261.6,207.4z M189.2,189.9l8.5,16.4c4.1-2.2,34.7-17.2,63.8,0l8.7-14.8c-2-1.9-15.3-13.5-40.5-13.5S191.2,188.1,189.2,189.9
		L189.2,189.9z"></path><path class="st0" d="M231.9,218.4L231.9,218.4c1.8,1.4,4.4,0.9,5.6-1l18-28.6c0.2-0.3-0.2-0.6-0.5-0.4l-23.6,24.2
		C229.8,214.2,230,217,231.9,218.4L231.9,218.4z"></path><path class="st1" d="M234.2,219.6c-0.9,0-1.9-0.3-2.6-0.9l0,0c-1-0.8-1.6-1.9-1.7-3.1s0.4-2.5,1.2-3.4l23.6-24.2
		c0.3-0.3,0.7-0.3,1.1-0.1c0.3,0.2,0.4,0.7,0.2,1l-18,28.6c-0.6,1-1.7,1.8-2.9,2C234.8,219.6,234.5,219.6,234.2,219.6L234.2,219.6z
		 M254.1,190.1l-22.2,22.8c-0.7,0.7-1,1.6-0.9,2.6s0.6,1.9,1.3,2.4l0,0c0.8,0.6,1.7,0.8,2.6,0.6s1.7-0.7,2.2-1.5L254.1,190.1
		L254.1,190.1z"></path><path class="st0" d="M229.6,174c-0.8,0-1.5-0.7-1.5-1.5v-8.8c0-0.8,0.7-1.5,1.5-1.5s1.5,0.7,1.5,1.5v8.8
		C231.1,173.4,230.5,174,229.6,174z"></path><path class="st1" d="M229.6,174.5c-1.1,0-2-0.9-2-2v-8.8c0-1.1,0.9-2,2-2s2,0.9,2,2v8.8C231.6,173.6,230.7,174.5,229.6,174.5z
		 M229.6,162.7c-0.6,0-1,0.4-1,1v8.8c0,0.6,0.4,1,1,1s1-0.4,1-1v-8.8C230.6,163.2,230.2,162.7,229.6,162.7z"></path><g><path class="st0" d="M261,180c-0.7-0.4-0.9-1.4-0.5-2.1l4.6-7.5c0.4-0.7,1.4-0.9,2.1-0.5c0.7,0.4,0.9,1.4,0.5,2.1l-4.6,7.5
			C262.6,180.2,261.7,180.4,261,180z"></path><path class="st1" d="M260.7,180.4c-0.9-0.6-1.2-1.8-0.6-2.8l4.6-7.5c0.6-0.9,1.8-1.2,2.8-0.6c0.9,0.6,1.2,1.8,0.6,2.8l-4.6,7.5
			C262.9,180.7,261.6,181,260.7,180.4z M266.9,170.4c-0.5-0.3-1.1-0.1-1.4,0.3l-4.6,7.5c-0.3,0.5-0.1,1.1,0.3,1.4s1.1,0.1,1.4-0.3
			l4.6-7.5C267.5,171.3,267.4,170.7,266.9,170.4z"></path></g><g><path class="st0" d="M194.5,179.5l-4.6-7.5c-0.4-0.7-0.2-1.6,0.5-2.1c0.7-0.4,1.6-0.2,2.1,0.5l4.6,7.5c0.4,0.7,0.2,1.6-0.5,2.1
			S195,180.2,194.5,179.5z"></path><path class="st1" d="M194.1,179.8l-4.6-7.5c-0.6-0.9-0.3-2.2,0.6-2.8c0.9-0.6,2.2-0.3,2.8,0.6l4.6,7.5c0.6,0.9,0.3,2.2-0.6,2.8
			C195.9,181,194.7,180.7,194.1,179.8z M190.3,171.8l4.6,7.5c0.3,0.5,0.9,0.6,1.4,0.3s0.6-0.9,0.3-1.4l-4.6-7.5
			c-0.3-0.5-0.9-0.6-1.4-0.3C190.2,170.7,190,171.3,190.3,171.8z"></path></g></g><g id="indicator-2"><rect class="st0" x="182.4" y="126.4" width="88.3" height="19.5"></rect><path class="st1" d="M270.7,146.4h-88.3c-0.3,0-0.5-0.2-0.5-0.5v-19.5c0-0.3,0.2-0.5,0.5-0.5h88.3c0.3,0,0.5,0.2,0.5,0.5v19.5
		C271.2,146.2,271,146.4,270.7,146.4z M182.9,145.4h87.3v-18.5h-87.3V145.4z"></path><rect class="st2" x="182.4" y="126.4" width="66.7" height="19.5"></rect><path class="st1" d="M249.1,146.4h-66.7c-0.3,0-0.5-0.2-0.5-0.5v-19.5c0-0.3,0.2-0.5,0.5-0.5h66.7c0.3,0,0.5,0.2,0.5,0.5v19.5
		C249.6,146.2,249.4,146.4,249.1,146.4z M182.9,145.4h65.7v-18.5h-65.7V145.4z"></path><path class="st0" d="M268.7,121.5c-0.8,0-1.5-0.7-1.5-1.5v-6.8c0-0.8,0.7-1.5,1.5-1.5s1.5,0.7,1.5,1.5v6.8
		C270.2,120.8,269.5,121.5,268.7,121.5z"></path><path class="st1" d="M268.7,122c-1.1,0-2-0.9-2-2v-6.8c0-1.1,0.9-2,2-2s2,0.9,2,2v6.8C270.7,121,269.8,122,268.7,122z M268.7,112.1
		c-0.6,0-1,0.5-1,1v6.8c0,0.6,0.5,1,1,1c0.6,0,1-0.5,1-1v-6.8C269.7,112.6,269.3,112.1,268.7,112.1z"></path><path class="st0" d="M251.7,121.5c-0.8,0-1.5-0.7-1.5-1.5v-6.8c0-0.8,0.7-1.5,1.5-1.5s1.5,0.7,1.5,1.5v6.8
		C253.3,120.8,252.6,121.5,251.7,121.5z"></path><path class="st1" d="M251.7,122c-1.1,0-2-0.9-2-2v-6.8c0-1.1,0.9-2,2-2s2,0.9,2,2v6.8C253.8,121,252.9,122,251.7,122z M251.7,112.1
		c-0.6,0-1,0.5-1,1v6.8c0,0.6,0.5,1,1,1s1-0.5,1-1v-6.8C252.8,112.6,252.3,112.1,251.7,112.1z"></path><path class="st0" d="M234.8,121.5c-0.8,0-1.5-0.7-1.5-1.5v-6.8c0-0.8,0.7-1.5,1.5-1.5s1.5,0.7,1.5,1.5v6.8
		C236.3,120.8,235.6,121.5,234.8,121.5z"></path><path class="st1" d="M234.8,122c-1.1,0-2-0.9-2-2v-6.8c0-1.1,0.9-2,2-2s2,0.9,2,2v6.8C236.8,121,235.9,122,234.8,122z M234.8,112.1
		c-0.6,0-1,0.5-1,1v6.8c0,0.6,0.5,1,1,1s1-0.5,1-1v-6.8C235.8,112.6,235.4,112.1,234.8,112.1z"></path><path class="st0" d="M217.8,121.5c-0.8,0-1.5-0.7-1.5-1.5v-6.8c0-0.8,0.7-1.5,1.5-1.5s1.5,0.7,1.5,1.5v6.8
		C219.4,120.8,218.7,121.5,217.8,121.5z"></path><path class="st1" d="M217.8,122c-1.1,0-2-0.9-2-2v-6.8c0-1.1,0.9-2,2-2s2,0.9,2,2v6.8C219.9,121,219,122,217.8,122z M217.8,112.1
		c-0.6,0-1,0.5-1,1v6.8c0,0.6,0.5,1,1,1s1-0.5,1-1v-6.8C218.9,112.6,218.4,112.1,217.8,112.1z"></path><path class="st0" d="M200.9,121.5c-0.8,0-1.5-0.7-1.5-1.5v-6.8c0-0.8,0.7-1.5,1.5-1.5s1.5,0.7,1.5,1.5v6.8
		C202.4,120.8,201.7,121.5,200.9,121.5z"></path><path class="st1" d="M200.9,122c-1.1,0-2-0.9-2-2v-6.8c0-1.1,0.9-2,2-2s2,0.9,2,2v6.8C202.9,121,202,122,200.9,122z M200.9,112.1
		c-0.6,0-1,0.5-1,1v6.8c0,0.6,0.5,1,1,1s1-0.5,1-1v-6.8C201.9,112.6,201.5,112.1,200.9,112.1z"></path><path class="st0" d="M183.9,121.5c-0.8,0-1.5-0.7-1.5-1.5v-6.8c0-0.8,0.7-1.5,1.5-1.5s1.5,0.7,1.5,1.5v6.8
		C185.5,120.8,184.8,121.5,183.9,121.5z"></path><path class="st1" d="M183.9,122c-1.1,0-2-0.9-2-2v-6.8c0-1.1,0.9-2,2-2s2,0.9,2,2v6.8C186,121,185.1,122,183.9,122z M183.9,112.1
		c-0.6,0-1,0.5-1,1v6.8c0,0.6,0.5,1,1,1s1-0.5,1-1v-6.8C185,112.6,184.5,112.1,183.9,112.1z"></path></g><g id="traffict"><path class="st1" d="M107.4,101.6c-0.2,0-0.3-0.1-0.4-0.2c-0.1-0.2-0.1-0.5,0.2-0.7l106.2-61.1c0.1-0.1,0.3-0.1,0.4,0
		s0.2,0.2,0.3,0.3l8.1,32.3L293.9,31c0.2-0.1,0.5-0.1,0.7,0.2c0.1,0.2,0.1,0.5-0.2,0.7l-72.3,41.6c-0.1,0.1-0.3,0.1-0.4,0
		c-0.1-0.1-0.2-0.2-0.3-0.3l-8.1-32.3l-105.7,60.7C107.5,101.6,107.5,101.6,107.4,101.6L107.4,101.6z"></path><path class="st2" d="M285.1,31.2l4.5,8c0.5,1,1.9,1,2.5,0.2l6.5-9c0.7-1-0.1-2.5-1.4-2.4l-10.9,1C285.2,29.1,284.6,30.3,285.1,31.2
		L285.1,31.2z"></path><path class="st1" d="M290.9,40.5c0,0-0.1,0-0.1,0c-0.7,0-1.3-0.4-1.6-1l-4.5-8c-0.3-0.6-0.3-1.3,0-1.9c0.3-0.6,0.9-1,1.6-1l10.9-1
		c0.8-0.1,1.5,0.3,1.9,1c0.4,0.7,0.4,1.5-0.1,2.2l-6.5,9C292.1,40.2,291.5,40.5,290.9,40.5L290.9,40.5z M297.3,28.5c0,0-0.1,0-0.1,0
		l-10.9,1c-0.3,0-0.6,0.2-0.8,0.5s-0.2,0.7,0,1l0,0l4.5,8c0.2,0.3,0.5,0.5,0.8,0.5c0.4,0,0.7-0.1,0.9-0.4l6.5-9
		c0.2-0.3,0.2-0.7,0-1.1C298,28.7,297.7,28.5,297.3,28.5L297.3,28.5z"></path><circle class="st2" cx="221.9" cy="73" r="4.5"></circle><path class="st1" d="M221.9,78c-2.8,0-5-2.2-5-5s2.2-5,5-5s5,2.2,5,5S224.6,78,221.9,78z M221.9,69c-2.2,0-4,1.8-4,4s1.8,4,4,4
		s4-1.8,4-4S224.1,69,221.9,69z"></path><circle class="st2" cx="213.6" cy="40" r="4.5"></circle><path class="st1" d="M213.6,45.1c-2.8,0-5-2.2-5-5s2.2-5,5-5s5,2.2,5,5S216.4,45.1,213.6,45.1z M213.6,36c-2.2,0-4,1.8-4,4
		s1.8,4,4,4s4-1.8,4-4S215.8,36,213.6,36z"></path><circle class="st2" cx="107.4" cy="101.1" r="4.5"></circle><path class="st1" d="M107.4,106.1c-2.8,0-5-2.2-5-5s2.2-5,5-5s5,2.2,5,5S110.2,106.1,107.4,106.1z M107.4,97.1c-2.2,0-4,1.8-4,4
		s1.8,4,4,4s4-1.8,4-4S109.6,97.1,107.4,97.1z"></path></g></svg>