<svg transform="scale(1)" version="1.1" id="_0646_x5F_Beach" xmlns="http://www.w3.org/2000/svg" xmlns:xlink="http://www.w3.org/1999/xlink" x="0px" y="0px" viewBox="0 0 500 500" xml:space="preserve" class="show_show__wrapper__graphic__5Waiy "><title>React</title><style type="text/css">
	.st0{fill:#FFFFFF;}
	.st1{fill:#732A09;}
	.st2{fill:#F75454;}
</style><g id="sea"><path class="st0" d="M389.1,274.9c0.1,22.9-3.4,45.7-10.2,67.6H111.4c-6.4-20.5-9.9-41.9-10.2-63.4c22.8-15.6,45.6-16.4,65.1-9.2
		c20.9,7.7,34.8-3.4,64.1-3.1s44.9,10.8,71.9,12.3c24.1,1.3,49.6-14.6,86.8-6.1C389.1,273.5,389.1,274.2,389.1,274.9z"></path><path class="st0" d="M378.8,343H111.4c-0.2,0-0.4-0.1-0.5-0.4c-6.4-20.6-9.9-42-10.2-63.5c0-0.2,0.1-0.3,0.2-0.4
		c26.2-18,50.1-15,65.5-9.3c12.1,4.4,21.6,2.6,33.6,0.2c8.4-1.6,18-3.5,30.3-3.4c15.7,0.1,27.6,3.3,39.2,6.3
		c9.9,2.6,20.2,5.3,32.7,6c9.2,0.5,18.8-1.6,29-3.8c16.4-3.5,35-7.6,58-2.4c0.2,0,0.4,0.2,0.4,0.5c0,0.7,0,1.4,0,2
		c0.1,23-3.4,45.8-10.3,67.8C379.3,342.9,379.1,343,378.8,343z M111.7,342h266.7c6.8-21.7,10.2-44.3,10.1-67.1c0-0.5,0-1.1,0-1.6
		c-22.6-5-40.9-1.1-57.1,2.4c-10.2,2.2-19.9,4.3-29.2,3.8c-12.6-0.7-23-3.4-32.9-6c-11.5-3-23.3-6.1-38.9-6.3
		c-12.2-0.1-21.7,1.7-30.1,3.4c-11.7,2.3-21.8,4.3-34.2-0.3c-15.2-5.6-38.7-8.5-64.4,9C102,300.6,105.4,321.7,111.7,342z"></path><path class="st0" d="M378.8,343H111.4c-0.2,0-0.4-0.1-0.5-0.4c-6.4-20.6-9.9-42-10.2-63.5c0-1.4,0-2.8,0-4.2
		c0-100.7,64.8-182.6,144.5-182.6c38.3,0,74.4,18.8,101.7,52.9s42.4,79.4,42.8,127.7c0,0.7,0,1.4,0,2c0.1,23-3.4,45.8-10.3,67.8
		C379.3,342.8,379.1,343,378.8,343z M111.7,342h266.7c6.8-21.7,10.2-44.3,10.1-67.1c0-0.7,0-1.4,0-2c-0.4-48.2-15.6-93.3-42.6-127.2
		s-62.9-52.5-100.9-52.5c-79.1,0-143.5,81.5-143.5,181.6c0,1.4,0,2.8,0,4.2C102,300.4,105.4,321.6,111.7,342z"></path><path class="st0" d="M198.3,280.4c-0.3,0-0.5-0.2-0.5-0.5s0.2-0.5,0.5-0.5c2.9-0.1,5.8-0.6,8.6-1.5c1-0.3,1.9-0.7,2.9-1
		c1.9-0.8,3.8-1.4,5.8-1.8c2.3-0.4,4.6-0.3,6.9,0.1c0.3,0,0.5,0.3,0.4,0.6s-0.3,0.5-0.6,0.4c-2.2-0.4-4.4-0.4-6.6-0.1
		c-1.9,0.4-3.8,1-5.6,1.8c-1,0.4-1.9,0.7-2.9,1.1C204.4,279.9,201.4,280.4,198.3,280.4L198.3,280.4z"></path><path class="st0" d="M257.8,279.7c-2.8-0.1-5.5-0.7-8.1-1.5c-1.7-0.5-3.4-1-5.1-1.3c-3.2-0.4-6.5-0.5-9.8-0.2
		c-0.3,0-0.5-0.2-0.5-0.5c0,0,0,0,0,0c0-0.3,0.2-0.5,0.5-0.5c3.3-0.3,6.7-0.2,10,0.2c1.8,0.3,3.5,0.8,5.2,1.3c3,0.9,5.9,1.7,8.9,1.5
		c0.3,0,0.5,0.2,0.5,0.5c0,0,0,0,0,0c0,0.3-0.2,0.5-0.5,0.5C258.6,279.7,258.2,279.7,257.8,279.7z"></path><path class="st0" d="M249.7,282.6L249.7,282.6c-2.9-0.3-6-0.5-8.9-0.6c-0.3,0-0.5-0.2-0.5-0.5s0.2-0.5,0.5-0.5c3,0.1,6,0.3,9,0.6
		c0.3,0,0.5,0.3,0.5,0.5c0,0,0,0,0,0C250.2,282.4,249.9,282.6,249.7,282.6z"></path><path class="st0" d="M202.6,275.3h-0.5c-0.3,0-0.5-0.3-0.5-0.5c0,0,0,0,0,0c0-0.3,0.2-0.5,0.5-0.5c0,0,0,0,0,0
		c2,0.1,3.9-0.7,5.8-1.6c1.6-0.8,3.2-1.3,4.9-1.6c0.3,0,0.5,0.1,0.6,0.4c0,0,0,0,0,0c0,0.3-0.2,0.5-0.4,0.6
		c-1.6,0.3-3.2,0.8-4.7,1.5C206.6,274.6,204.6,275.1,202.6,275.3z"></path><path class="st0" d="M389.1,274.9c0.1,22.9-3.4,45.7-10.2,67.6H111.4c-6.4-20.5-9.9-41.9-10.2-63.4c22.8-15.6,45.6-16.4,65.1-9.2
		c20.9,7.7,34.8-3.4,64.1-3.1s44.9,10.8,71.9,12.3c24.1,1.3,49.6-14.6,86.8-6.1C389.1,273.5,389.1,274.2,389.1,274.9z"></path><path class="st1" d="M378.8,343H111.4c-0.2,0-0.4-0.1-0.5-0.4c-6.4-20.6-9.9-42-10.2-63.5c0-0.2,0.1-0.3,0.2-0.4
		c26.2-18,50.1-15,65.5-9.3c12.1,4.4,21.6,2.6,33.6,0.2c8.4-1.6,18-3.5,30.3-3.4c15.7,0.1,27.6,3.3,39.2,6.3
		c9.9,2.6,20.2,5.3,32.7,6c9.2,0.5,18.8-1.6,29-3.8c16.4-3.5,35-7.6,58-2.4c0.2,0,0.4,0.2,0.4,0.5c0,0.7,0,1.4,0,2
		c0.1,23-3.4,45.8-10.3,67.8C379.3,342.9,379.1,343,378.8,343z M111.7,342h266.7c6.8-21.7,10.2-44.3,10.1-67.1c0-0.5,0-1.1,0-1.6
		c-22.6-5-40.9-1.1-57.1,2.4c-10.2,2.2-19.9,4.3-29.2,3.8c-12.6-0.7-23-3.4-32.9-6c-11.5-3-23.3-6.1-38.9-6.3
		c-12.2-0.1-21.7,1.7-30.1,3.4c-11.7,2.3-21.8,4.3-34.2-0.3c-15.2-5.6-38.7-8.5-64.4,9C102,300.6,105.4,321.7,111.7,342z"></path><path class="st1" d="M346.8,145.1c-27.2-34.1-63.3-52.9-101.7-52.9c-79.7,0-144.5,81.9-144.5,182.6v4.2
		c0.3,21.5,3.8,42.9,10.2,63.5c0.1,0.2,0.3,0.3,0.5,0.3h267.5c0.2,0,0.5-0.2,0.5-0.4c6.9-21.9,10.3-44.8,10.3-67.8v-2
		C389.2,224.5,374,179.2,346.8,145.1z M388.6,274.9c0.1,22.8-3.3,45.4-10.1,67.1H111.7c-6.4-20.4-9.8-41.6-10.1-62.9v-4.2
		c0-100.2,64.4-181.6,143.5-181.6c38,0,73.9,18.6,100.9,52.5c27,33.9,42.1,79,42.6,127.2V274.9z"></path><path class="st0" d="M388.6,272.9v2c0.1,22.8-3.3,45.4-10.1,67.1H111.7c-6.4-20.4-9.8-41.6-10.1-62.9v-4.2
		c0-100.2,64.4-181.6,143.5-181.6c38,0,73.9,18.6,100.9,52.5C373,179.6,388.1,224.7,388.6,272.9z"></path><path class="st1" d="M198.3,280.4c-0.3,0-0.5-0.2-0.5-0.5s0.2-0.5,0.5-0.5c2.9-0.1,5.8-0.6,8.6-1.5c1-0.3,1.9-0.7,2.9-1
		c1.9-0.8,3.8-1.4,5.8-1.8c2.3-0.4,4.6-0.3,6.9,0.1c0.3,0,0.5,0.3,0.4,0.6s-0.3,0.5-0.6,0.4c-2.2-0.4-4.4-0.4-6.6-0.1
		c-1.9,0.4-3.8,1-5.6,1.8c-1,0.4-1.9,0.7-2.9,1.1C204.4,279.9,201.4,280.4,198.3,280.4L198.3,280.4z"></path><path class="st1" d="M257.8,279.7c-2.8-0.1-5.5-0.7-8.1-1.5c-1.7-0.5-3.4-1-5.1-1.3c-3.2-0.4-6.5-0.5-9.8-0.2
		c-0.3,0-0.5-0.2-0.5-0.5c0,0,0,0,0,0c0-0.3,0.2-0.5,0.5-0.5c3.3-0.3,6.7-0.2,10,0.2c1.8,0.3,3.5,0.8,5.2,1.3c3,0.9,5.9,1.7,8.9,1.5
		c0.3,0,0.5,0.2,0.5,0.5c0,0,0,0,0,0c0,0.3-0.2,0.5-0.5,0.5C258.6,279.7,258.2,279.7,257.8,279.7z"></path><path class="st1" d="M249.7,282.6L249.7,282.6c-2.9-0.3-6-0.5-8.9-0.6c-0.3,0-0.5-0.2-0.5-0.5s0.2-0.5,0.5-0.5c3,0.1,6,0.3,9,0.6
		c0.3,0,0.5,0.3,0.5,0.5c0,0,0,0,0,0C250.2,282.4,249.9,282.6,249.7,282.6z"></path><path class="st1" d="M202.6,275.3h-0.5c-0.3,0-0.5-0.3-0.5-0.5c0,0,0,0,0,0c0-0.3,0.2-0.5,0.5-0.5c0,0,0,0,0,0
		c2,0.1,3.9-0.7,5.8-1.6c1.6-0.8,3.2-1.3,4.9-1.6c0.3,0,0.5,0.1,0.6,0.4c0,0,0,0,0,0c0,0.3-0.2,0.5-0.4,0.6
		c-1.6,0.3-3.2,0.8-4.7,1.5C206.6,274.6,204.6,275.1,202.6,275.3z"></path><path class="st1" d="M378.8,343H111.4c-0.2,0-0.4-0.1-0.5-0.4c-6.4-20.6-9.9-41.9-10.2-63.5c0-0.2,0.1-0.3,0.2-0.4
		c26.2-17.9,50.1-15,65.5-9.3c12.1,4.4,21.6,2.6,33.6,0.2c8.5-1.6,18-3.5,30.3-3.4c15.7,0.1,27.6,3.3,39.2,6.3
		c9.9,2.6,20.2,5.3,32.8,6c9.2,0.5,18.8-1.6,29-3.8c16.4-3.5,35-7.6,58-2.4c0.2,0.1,0.4,0.2,0.4,0.5c0,0.7,0,1.4,0,2l0,0
		c0.1,23-3.4,45.8-10.3,67.8C379.2,342.8,379,343,378.8,343z M111.7,342h266.7c6.8-21.7,10.2-44.3,10.1-67.1v0c0-0.5,0-1.1,0-1.6
		c-22.6-5-40.9-1.1-57.1,2.4c-10.2,2.2-19.9,4.3-29.2,3.8c-12.6-0.7-23-3.4-33-6c-11.5-3-23.3-6.1-38.9-6.3
		c-12.2-0.1-21.7,1.7-30.1,3.4c-11.7,2.3-21.8,4.3-34.2-0.3c-15.2-5.6-38.7-8.5-64.4,9C102,300.6,105.4,321.7,111.7,342z
		 M389.6,274.9L389.6,274.9L389.6,274.9z"></path></g><g id="sand"><path class="st0" d="M130.9,330.6h243.8c9.5,0,17.1,7.7,17.1,17.1l0,0c0,9.5-7.7,17.1-17.1,17.1H347c-3.2,0-5.9,2.6-5.9,5.8
		c0,0,0,0,0,0l0,0c0,3.2,2.6,5.9,5.9,5.9h72.4c9.5,0,17.1,7.7,17.1,17.1c0,0,0,0,0,0l0,0c0,9.5-7.7,17.1-17.1,17.1c0,0,0,0,0,0h-237
		c-7.2,0-13-5.8-13-13l0,0l0,0c0-7.2,5.8-13,13-13l0,0h24.1c5.4,0,9.8-4.4,9.8-9.8l0,0l0,0c0-5.4-4.4-9.8-9.8-9.8H89.3
		c-9.6,0-17.3-7.8-17.3-17.3c0,0,0,0,0,0l0,0c0-9.5,7.7-17.3,17.3-17.3c0,0,0,0,0,0L130.9,330.6z"></path><path class="st1" d="M419.5,411.4h-237c-7.5,0.4-13.8-5.3-14.2-12.8c-0.4-7.5,5.3-13.8,12.8-14.2c0.5,0,1,0,1.5,0h24.1
		c5.2,0,9.3-4.2,9.3-9.3c0-5.2-4.2-9.3-9.3-9.3H89.3c-9.8,0-17.8-8-17.8-17.8c0-9.8,8-17.8,17.8-17.8h285.4
		c9.7,0,17.7,7.9,17.7,17.6c0,9.7-7.9,17.7-17.6,17.7c0,0,0,0,0,0H347c-3-0.1-5.5,2.2-5.6,5.1c-0.1,3,2.2,5.5,5.1,5.6
		c0.2,0,0.3,0,0.5,0h72.4c9.7,0,17.6,7.9,17.6,17.6C437.1,403.5,429.2,411.4,419.5,411.4C419.4,411.4,419.4,411.4,419.5,411.4
		L419.5,411.4z M182.5,385.4c-6.9-0.4-12.8,4.9-13.2,11.8s4.9,12.8,11.8,13.2c0.5,0,0.9,0,1.4,0h237c9.2,0,16.6-7.4,16.6-16.6
		c0-9.2-7.4-16.6-16.6-16.6c0,0,0,0,0,0H347c-3.5,0.1-6.5-2.6-6.6-6.1s2.6-6.5,6.1-6.6c0.2,0,0.3,0,0.5,0h27.6
		c9.2,0,16.7-7.4,16.7-16.6c0-9.2-7.4-16.7-16.6-16.7c0,0,0,0,0,0H89.3c-9.3,0-16.8,7.5-16.8,16.8c0,9.3,7.5,16.8,16.8,16.8l0,0
		h117.3c5.7,0,10.3,4.6,10.3,10.3c0,5.7-4.6,10.3-10.3,10.3L182.5,385.4z"></path><circle class="st0" cx="145.8" cy="397.9" r="13"></circle><path class="st1" d="M145.8,411.4c-7.5,0-13.5-6.1-13.5-13.5c0-7.5,6.1-13.5,13.5-13.5c7.5,0,13.5,6.1,13.5,13.5l0,0
		C159.4,405.3,153.3,411.4,145.8,411.4z M145.8,385.4c-6.9,0-12.5,5.6-12.5,12.5c0,6.9,5.6,12.5,12.5,12.5s12.5-5.6,12.5-12.5
		c0,0,0,0,0,0C158.4,391,152.8,385.4,145.8,385.4L145.8,385.4L145.8,385.4z"></path></g><g id="cloud"><path class="st0" d="M341.4,164c0,0,5.8-20.9,27.4-10.6c0,0,19.8-8.6,28.8,10.6c0,0,13.3-5.2,18.5,8.8s-15.1,13.9-23,11
		c0,0-17.8,16.6-40.9,4.7c0,0-17.1,15.4-32.2,4.3S320.9,155,341.4,164z"></path><path class="st1" d="M332,197.3c-4.5,0-8.8-1.4-12.4-4.1c-7.7-5.6-7.3-14.8-3.5-21.4c4.3-7.4,13.8-13.1,24.9-8.5
		c0.7-2,3.4-8.9,10-11.9c5-2.3,10.9-1.8,17.7,1.4c2.2-0.9,20.4-7.3,29,10.5c3.6-1.2,7.5-1.1,11.1,0.4c3.4,1.5,6,4.5,7.6,8.9
		c1.5,4,1.1,7.2-1.3,9.6c-4.6,4.6-16,4.3-22,2.2c-2.2,1.9-19.3,15.7-41,4.8c-3.1,2.6-6.6,4.6-10.3,6.2
		C338.7,196.5,335.4,197.2,332,197.3z M333.2,162.7c-6.7,0.1-12.9,3.8-16.2,9.7c-3.6,6.2-4,14.8,3.2,20.1c6.1,4.5,13.2,5.1,21.2,2
		c3.7-1.5,7.2-3.6,10.3-6.2c0.2-0.1,0.4-0.2,0.6-0.1c22.6,11.6,40.2-4.5,40.4-4.6c0.1-0.1,0.3-0.2,0.5-0.1
		c5.8,2.1,16.9,2.5,21.3-1.9c2-2,2.4-4.9,1-8.5c-1.5-4.1-3.9-6.9-7-8.3c-5.1-2.3-10.7-0.2-10.8-0.2c-0.2,0.1-0.5,0-0.6-0.2
		c-3.6-7.7-9.5-11.8-17.3-12.2c-3.7-0.1-7.4,0.5-10.8,1.8c-0.1,0.1-0.3,0.1-0.4,0c-6.6-3.2-12.3-3.7-17.1-1.5
		c-7.2,3.3-9.6,11.7-9.6,11.8c0,0.1-0.1,0.3-0.3,0.3c-0.1,0.1-0.3,0.1-0.4,0C338.7,163.3,335.9,162.7,333.2,162.7L333.2,162.7z"></path><path class="st1" d="M359.2,161.1c-0.1,0-0.2,0-0.3-0.1c-0.2-0.2-0.3-0.5-0.1-0.7c0.2-0.2,4.8-6,9.8-7.4c0.3-0.1,0.5,0.1,0.6,0.3
		c0.1,0.3-0.1,0.5-0.3,0.6c0,0,0,0,0,0c-4.7,1.4-9.3,7-9.3,7.1C359.5,161.1,359.3,161.1,359.2,161.1z"></path><path class="st1" d="M399,169.3c-0.2,0-0.4-0.1-0.5-0.4l-1.4-4.9c-0.1-0.3,0.1-0.5,0.3-0.6c0.3-0.1,0.5,0.1,0.6,0.3c0,0,0,0,0,0
		l1.4,4.9c0.1,0.3-0.1,0.5-0.3,0.6c0,0,0,0,0,0C399.1,169.3,399,169.3,399,169.3z"></path><path class="st1" d="M393,184.3c-0.3,0-0.5-0.2-0.5-0.5c0-0.2,0.1-0.3,0.2-0.4c4.3-3.2,5-4.8,5-4.9c0.1-0.3,0.4-0.4,0.6-0.3
		c0.3,0.1,0.4,0.4,0.3,0.6c0,0,0,0,0,0c-0.1,0.2-0.8,2-5.4,5.3C393.2,184.2,393.1,184.3,393,184.3z"></path><path class="st1" d="M352.1,189c-0.1,0-0.2,0-0.2-0.1c-6.8-3.4-8.5-8.4-8.5-8.6c-0.1-0.3,0.1-0.6,0.3-0.7s0.6,0.1,0.7,0.3
		c0,0.1,1.6,4.8,8,8c0.2,0.1,0.4,0.4,0.2,0.7C352.5,188.9,352.3,189,352.1,189L352.1,189z"></path><path class="st0" d="M291.8,131.4c0,0,4.6-16.5,21.6-8.3c0,0,15.6-6.7,22.7,8.3c0,0,10.5-4.1,14.5,6.9s-11.9,11-18.1,8.7
		c0,0-14,13.1-32.2,3.7c0,0-13.5,12.1-25.3,3.4S275.7,124.3,291.8,131.4z"></path><path class="st1" d="M284.4,157.7c-3.5,0-7-1.1-9.8-3.2c-6.1-4.5-5.8-11.8-2.8-17c3.4-5.8,10.9-10.4,19.6-6.8
		c0.6-1.7,2.8-7,7.9-9.3c3.9-1.8,8.6-1.4,14,1.1c1.9-0.7,16.1-5.6,22.9,8.3c2.8-0.9,5.9-0.8,8.7,0.3c2.7,1.2,4.8,3.6,6,7
		c1.2,3.2,0.9,5.8-1,7.6c-3.9,3.9-13.1,3.3-17.4,1.8c-1.9,1.6-15.4,12.2-32.3,3.8c-2.4,2-5.2,3.6-8.1,4.8
		C289.7,157.1,287.1,157.7,284.4,157.7z M285.3,130.5c-5.3,0.1-10.1,3-12.6,7.5c-2.8,4.8-3.1,11.6,2.5,15.7
		c11.4,8.4,24.6-3.2,24.7-3.4c0.2-0.1,0.4-0.2,0.6-0.1c17.7,9.1,31.5-3.5,31.7-3.6c0.1-0.1,0.3-0.2,0.5-0.1c4.5,1.7,13.2,2,16.6-1.4
		c1.6-1.6,1.8-3.8,0.8-6.6c-1.2-3.2-3-5.4-5.5-6.5c-2.7-1-5.7-1.1-8.4-0.1c-0.2,0.1-0.5,0-0.6-0.2c-2.9-6.1-7.4-9.3-13.6-9.5
		c-2.9-0.1-5.8,0.4-8.5,1.4c-0.1,0.1-0.3,0.1-0.4,0c-5.2-2.5-9.6-2.9-13.4-1.2c-5.6,2.6-7.5,9.1-7.5,9.2c0,0.1-0.1,0.3-0.3,0.3
		c-0.1,0.1-0.3,0.1-0.4,0C289.6,130.9,287.5,130.5,285.3,130.5L285.3,130.5z"></path><path class="st1" d="M305.8,129.3c-0.3,0-0.5-0.2-0.5-0.5c0-0.1,0-0.2,0.1-0.3c0.1-0.2,3.8-4.7,7.8-5.9c0.3-0.1,0.5,0.1,0.6,0.3
		c0.1,0.3-0.1,0.5-0.4,0.6c-3.7,1-7.2,5.5-7.3,5.5C306.1,129.2,305.9,129.3,305.8,129.3z"></path><path class="st1" d="M337.1,135.7c-0.2,0-0.4-0.1-0.5-0.4l-1.1-3.8c-0.1-0.3,0.1-0.5,0.3-0.6c0.3-0.1,0.5,0.1,0.6,0.3l1.1,3.8
		c0.1,0.3-0.1,0.5-0.3,0.6L337.1,135.7z"></path><path class="st1" d="M332.5,147.5c-0.2,0-0.3-0.1-0.4-0.2c-0.2-0.2-0.1-0.5,0.1-0.7c0,0,0,0,0,0c3.4-2.4,3.9-3.8,3.9-3.8
		c0.1-0.3,0.4-0.4,0.6-0.3c0.3,0.1,0.4,0.4,0.3,0.6c0,0,0,0,0,0c-0.1,0.1-0.6,1.6-4.3,4.2C332.7,147.4,332.6,147.5,332.5,147.5z"></path><path class="st1" d="M300.2,151.2c-0.1,0-0.2,0-0.2-0.1c-5.4-2.7-6.7-6.7-6.8-6.8c-0.1-0.3,0.1-0.5,0.3-0.6
		c0.3-0.1,0.5,0.1,0.6,0.3c0,0,1.3,3.7,6.3,6.2c0.2,0.1,0.3,0.4,0.2,0.7C300.6,151.1,300.4,151.2,300.2,151.2z"></path></g><g id="sun"><circle class="st0" cx="160.7" cy="114.3" r="27.8"></circle><path class="st1" d="M160.7,142.6c-15.6,0-28.3-12.7-28.3-28.3S145,86,160.6,86c15.6,0,28.3,12.7,28.4,28.3c0,0,0,0,0,0
		C189,129.9,176.3,142.6,160.7,142.6z M160.7,87c-15.1,0-27.3,12.2-27.3,27.3s12.2,27.3,27.3,27.3c15.1,0,27.3-12.2,27.4-27.3
		c0,0,0,0,0,0C188,99.2,175.8,87,160.7,87L160.7,87z"></path><path class="st1" d="M180.2,137.8c2.5,2,4.9,4,7.3,6.1c0.5,0.4,1.2-0.3,0.7-0.7c-2.4-2.1-4.8-4.1-7.3-6.1
		C180.4,136.7,179.7,137.4,180.2,137.8L180.2,137.8z"></path><path class="st1" d="M190.3,120.2H202c0.3,0,0.5-0.2,0.5-0.5s-0.2-0.5-0.5-0.5h-11.7c-0.3,0-0.5,0.2-0.5,0.5S190,120.2,190.3,120.2
		z"></path><path class="st1" d="M188.3,99.8c4-1.7,7.9-3.5,11.8-5.5c0.6-0.3,0.1-1.2-0.5-0.9c-3.8,1.9-7.6,3.7-11.5,5.4
		C187.5,99.1,187.7,100.1,188.3,99.8L188.3,99.8z"></path><path class="st1" d="M177.8,87.3c1.5-2.6,3.3-5,5.5-7.1c0.5-0.4-0.2-1.2-0.7-0.7c-2.2,2.1-4.1,4.6-5.6,7.3
		c-0.1,0.2-0.1,0.5,0.2,0.7C177.4,87.6,177.7,87.5,177.8,87.3L177.8,87.3z"></path><path class="st1" d="M158.7,82.6v-13c0-0.3-0.2-0.5-0.5-0.5s-0.5,0.2-0.5,0.5v13c0,0.3,0.2,0.5,0.5,0.5S158.7,82.9,158.7,82.6z"></path><path class="st1" d="M137.2,81.3L137.2,81.3c0.2,0,0.4-0.2,0.5-0.4c0.2-0.4-0.3-0.8-0.6-0.8c-0.6,0.1-0.6,0.7-0.3,1.1
		c0.6,0.7,1.2,1.3,1.8,1.9c1.3,1.2,2.6,2.4,4,3.5c0.2,0.2,0.5,0.2,0.7,0c0.2-0.2,0.2-0.5,0-0.7c-1-0.8-2-1.7-3-2.6
		c-0.5-0.4-0.9-0.9-1.4-1.3c-0.2-0.2-0.5-0.5-0.7-0.7l-0.3-0.3c-0.1-0.1-0.2-0.2-0.3-0.3v0.3v-0.1l-0.2,0.3l0,0l-0.4,0.1l0,0
		l-0.2-0.1l-0.1-0.1v-0.2l0.5-0.4l0,0c-0.3,0-0.5,0.2-0.5,0.5S136.9,81.3,137.2,81.3L137.2,81.3z"></path><path class="st1" d="M134.1,98.6c-3.7-0.9-7.3-2-10.9-3.2c-0.6-0.2-0.9,0.8-0.3,1c3.6,1.2,7.3,2.3,10.9,3.2
		c0.3,0.1,0.6-0.1,0.6-0.4C134.5,99,134.3,98.7,134.1,98.6z"></path><path class="st1" d="M130.6,111.5c-4.6,0.5-9.3,0.9-13.9,1.2c-0.6,0-0.6,1,0,1c4.7-0.4,9.3-0.8,13.9-1.2
		C131.2,112.5,131.2,111.5,130.6,111.5z"></path><path class="st1" d="M131.8,124.2c-3,2.9-6.8,4.6-10.1,7.2c-0.5,0.4,0.2,1.1,0.7,0.7c3.2-2.6,7.1-4.3,10.1-7.2
		C132.9,124.4,132.2,123.7,131.8,124.2L131.8,124.2z"></path><path class="st1" d="M137.9,137c-2.6,3.1-5.2,6.3-7.6,9.5c-0.4,0.5,0.5,1,0.9,0.5c2.3-3.2,4.8-6.3,7.4-9.4
		C139,137.2,138.3,136.5,137.9,137L137.9,137z"></path><path class="st1" d="M153.7,144.5l-2.6,12c-0.1,0.6,0.8,0.9,1,0.3l2.6-12C154.8,144.1,153.9,143.9,153.7,144.5L153.7,144.5z"></path><path class="st1" d="M168.8,144.5c1.1,2.5,2.1,5.1,2.9,7.7c0.1,0.3,0.4,0.4,0.6,0.4c0.3-0.1,0.4-0.4,0.4-0.6l0,0
		c-0.8-2.7-1.8-5.4-3-7.9C169.4,143.4,168.5,144,168.8,144.5L168.8,144.5z"></path><path class="st1" d="M190.9,130.8c2,1.1,4.2,2,6.4,2.5c0.6,0.1,0.9-0.8,0.3-1c-2.2-0.5-4.3-1.3-6.2-2.4c-0.3-0.1-0.5,0-0.7,0.2
		C190.7,130.3,190.7,130.6,190.9,130.8L190.9,130.8z"></path><path class="st1" d="M192.5,109c2.3-0.1,4.5-0.1,6.8,0c0.6,0,0.6-1,0-1c-2.3-0.1-4.5-0.1-6.8,0C191.9,108,191.8,109,192.5,109z"></path><path class="st1" d="M126.1,120c-3.5,0.5-6.9,1.3-10.3,2.3c-0.6,0.2-0.3,1.2,0.3,1c3.4-1,6.8-1.8,10.3-2.3
		C127,120.9,126.7,119.9,126.1,120z"></path><path class="st1" d="M167.2,94.8c6,2.5,12.5,6.3,13.7,13.2c0.1,0.6,1.1,0.4,1-0.3c-1.3-7.3-8.2-11.3-14.4-13.9
		C166.9,93.6,166.7,94.5,167.2,94.8L167.2,94.8z"></path></g><g id="umbrela"><path class="st1" d="M358.1,256.3h3.2l0,0V350c0,0.9-0.7,1.6-1.6,1.6l0,0c-0.9,0-1.6-0.7-1.6-1.6V256.3L358.1,256.3z"></path><path class="st1" d="M359.8,352.2c-1.2,0-2.1-0.9-2.1-2.1v-93.7c0-0.3,0.2-0.5,0.5-0.5h3.2c0.3,0,0.5,0.2,0.5,0.5V350
		C361.9,351.2,361,352.1,359.8,352.2C359.8,352.2,359.8,352.2,359.8,352.2z M358.6,256.8V350c0,0.6,0.5,1.1,1.1,1.1
		c0.6,0,1.1-0.5,1.1-1.1v-93.2L358.6,256.8z"></path><path class="st2" d="M302.2,249.4l-6.8,11.6c-26.8-1.5-31.2-3.8-31.2-3.8l2.6-9c0.2-0.7,0.5-1.4,0.9-2
		C267.7,246.2,271.5,248.2,302.2,249.4z"></path><path class="st1" d="M295.5,261.5L295.5,261.5c-26.6-1.5-31.2-3.8-31.4-3.8c-0.2-0.1-0.3-0.4-0.3-0.6l2.6-9c0.2-0.8,0.6-1.5,1-2.2
		c0.1-0.2,0.4-0.3,0.6-0.2c0.2,0.1,4.4,1.9,34.3,3.1c0.2,0,0.3,0.1,0.4,0.3c0.1,0.2,0.1,0.3,0,0.5l-6.8,11.6
		C295.9,261.4,295.7,261.5,295.5,261.5z M264.9,256.9c1.5,0.5,8.3,2.3,30.3,3.6l6.2-10.6c-25-1-31.8-2.5-33.4-3
		c-0.3,0.5-0.5,1-0.7,1.6L264.9,256.9z"></path><path class="st0" d="M341.4,250.2l-2,12.2c-19-0.2-33.2-0.7-43.9-1.4l6.8-11.6C312.2,249.8,325,250.1,341.4,250.2z"></path><path class="st1" d="M339.4,262.9L339.4,262.9c-17.1-0.2-31.9-0.6-44-1.4c-0.3,0-0.5-0.3-0.5-0.5c0-0.1,0-0.2,0.1-0.2l6.8-11.6
		c0.1-0.2,0.3-0.3,0.5-0.2c10.9,0.4,24.1,0.7,39.1,0.8c0.1,0,0.3,0.1,0.4,0.2c0.1,0.1,0.1,0.3,0.1,0.4l-2,12.2
		C339.8,262.7,339.6,262.8,339.4,262.9z M296.3,260.6c11.8,0.7,26.1,1.1,42.7,1.3l1.8-11.2c-14.6-0.1-27.5-0.4-38.3-0.8L296.3,260.6
		z"></path><path class="st2" d="M378.3,262.4c-5.7,0.1-11.9,0.1-18.5,0.1c-7.3,0-14.1,0-20.3-0.1l2-12.2c5.7,0,11.8,0.1,18.4,0.1
		c6,0,11.6,0,16.9-0.1L378.3,262.4z"></path><path class="st1" d="M359.8,263c-7,0-13.8,0-20.3-0.1c-0.1,0-0.3-0.1-0.4-0.2c-0.1-0.1-0.1-0.3-0.1-0.4l2-12.2
		c0-0.2,0.3-0.4,0.5-0.4c5.4,0,11.4,0.1,18.4,0.1c5.6,0,11.2,0,16.9-0.1c0.2,0,0.5,0.1,0.5,0.4c0,0,0,0,0,0l1.6,12.2
		c0,0.3-0.2,0.5-0.4,0.6c0,0,0,0-0.1,0C372.5,263,366.3,263,359.8,263z M340,261.9c6.3,0.1,13,0.1,19.8,0.1c6.3,0,12.4,0,17.9-0.1
		l-1.5-11.2c-5.5,0.1-11,0.1-16.4,0.1c-6.8,0-12.7,0-18-0.1L340,261.9z"></path><path class="st0" d="M423.8,261c-11,0.6-25.8,1.2-45.6,1.4l-1.6-12.2c17.4-0.2,31.1-0.6,41.7-1.2L423.8,261z"></path><path class="st1" d="M378.3,262.9c-0.2,0-0.5-0.2-0.5-0.4l-1.6-12.2c0-0.1,0-0.3,0.1-0.4c0.1-0.1,0.2-0.2,0.4-0.2
		c15.7-0.1,29.8-0.5,41.7-1.2c0.2,0,0.4,0.1,0.5,0.3l5.5,12c0.1,0.1,0.1,0.3,0,0.5c-0.1,0.1-0.2,0.2-0.4,0.2
		C411.4,262.3,396.1,262.7,378.3,262.9L378.3,262.9z M377.2,250.7l1.5,11.2c17.2-0.2,32.2-0.6,44.4-1.3l-5-11
		C406.3,250.2,392.6,250.5,377.2,250.7L377.2,250.7z"></path><path class="st2" d="M455.3,257.2c0,0-4.5,2.2-31.4,3.8l-5.5-12c19-1,28.5-2.3,33.1-3.3c0.6,0.8,1,1.6,1.3,2.5L455.3,257.2z"></path><path class="st1" d="M423.8,261.5c-0.2,0-0.4-0.1-0.5-0.3l-5.5-12c-0.1-0.2,0-0.5,0.2-0.7c0.1,0,0.1-0.1,0.2-0.1
		c18.8-1,28.3-2.3,33-3.3c0.2,0,0.4,0,0.5,0.2c0.6,0.8,1.1,1.7,1.3,2.7l2.6,9c0.1,0.2,0,0.5-0.3,0.6
		C455.3,257.8,450.6,260,423.8,261.5L423.8,261.5z M419.1,249.5l5,11c22.2-1.3,29-3.1,30.5-3.6l-2.5-8.5c-0.2-0.8-0.6-1.5-1-2.1
		C446.5,247.3,437.1,248.6,419.1,249.5L419.1,249.5z"></path><path class="st0" d="M359.8,199.6L359.8,199.6c-0.6,0.6-22.8,24.5-57.5,49.8l0,0c-30.7-1.2-34.5-3.1-34.5-3.1l0,0
		c1-1.5,2.5-2.7,4.2-3.2C297.8,235,339,212,359.8,199.6z"></path><path class="st1" d="M302.2,249.9L302.2,249.9c-30.5-1.2-34.5-3.1-34.7-3.2c-0.2-0.1-0.3-0.3-0.3-0.4c0-0.1,0-0.2,0.1-0.3
		c1-1.7,2.7-2.9,4.5-3.5c23.6-7.3,62-27.9,87.6-43.3c0.2-0.1,0.4-0.1,0.5,0c0.2,0.1,0.3,0.5,0.2,0.7c0,0-0.1,0.1-0.1,0.1
		c-2.4,2.6-24.1,25.4-57.5,49.8C302.5,249.9,302.4,249.9,302.2,249.9z M268.5,246c1.8,0.5,8.9,1.9,33.5,2.9
		c19.5-14.2,37.8-29.9,54.8-47c-25.6,15.2-62,34.5-84.7,41.6C270.7,243.9,269.4,244.8,268.5,246z"></path><path class="st0" d="M376.6,250.2c-5.3,0.1-10.9,0.1-16.9,0.1c-6.6,0-12.7,0-18.4-0.1c8.3-17.4,18.1-49.6,18.4-50.6l0,0l0,0
		C360.1,200.6,370.3,233.3,376.6,250.2z"></path><path class="st1" d="M359.8,250.8c-7,0-13,0-18.4-0.1c-0.2,0-0.3-0.1-0.4-0.2c-0.1-0.1-0.1-0.3,0-0.5c8.4-17.5,18.3-50.2,18.4-50.5
		c0,0,0-0.1,0-0.1c0.1-0.2,0.4-0.3,0.7-0.2c0,0,0.1,0.1,0.1,0.1c0.1,0.1,0.1,0.1,0.1,0.2l0,0c0.1,0.3,10.4,33.5,16.9,50.6
		c0.1,0.3,0,0.6-0.3,0.7c0,0-0.1,0-0.1,0C371,250.8,365.3,250.8,359.8,250.8z M342.1,249.7c5.1,0,10.9,0.1,17.6,0.1
		c5.3,0,10.8,0,16.1-0.1c-5.6-15.1-14.1-41.8-16.1-48.4C357.7,207.8,349.4,234.2,342.1,249.7z"></path><path class="st2" d="M359.7,199.6c-0.3,1-10.1,33.2-18.4,50.6c-16.4-0.1-29.2-0.4-39.1-0.8l0,0C337,224.1,359.1,200.2,359.7,199.6z
		"></path><path class="st1" d="M341.4,250.7L341.4,250.7c-15-0.1-28.2-0.4-39.2-0.8c-0.3,0-0.5-0.2-0.5-0.5c0-0.2,0.1-0.3,0.2-0.4
		c33.4-24.3,55.1-47.2,57.4-49.7c0.2-0.2,0.4-0.2,0.6-0.1c0.2,0.1,0.3,0.3,0.2,0.6c-0.1,0.3-10,33.1-18.4,50.7
		C341.7,250.6,341.6,250.7,341.4,250.7z M303.7,249c10.6,0.4,23.1,0.6,37.4,0.8c7.1-15,15.3-40.8,17.6-48.2
		C341.6,218.8,323.3,234.7,303.7,249z M359.7,199.7l0.4,0.3L359.7,199.7z"></path><path class="st0" d="M451.4,245.8c-4.5,0.9-14.1,2.3-33.1,3.3c-26.9-10-57.8-48.4-58.6-49.4l0,0c20.7,12.4,61.9,35.4,87.7,43.4
		C449.1,243.5,450.4,244.5,451.4,245.8z"></path><path class="st1" d="M418.4,249.5c-0.1,0-0.1,0-0.2,0c-26.6-9.9-57.5-48-58.8-49.6c0,0,0,0,0-0.1c-0.2-0.2-0.1-0.5,0.1-0.7
		c0.2-0.1,0.4-0.1,0.5,0c25.7,15.4,64,36,87.6,43.3c1.7,0.5,3.1,1.6,4.2,3c0.1,0.1,0.1,0.3,0.1,0.5c-0.1,0.2-0.2,0.3-0.4,0.3
		C446.8,247.3,437.3,248.6,418.4,249.5L418.4,249.5z M362,201.5c7.1,8.5,33.5,38.4,56.5,47c17.7-0.9,27.1-2.1,32.1-3.1
		c-0.9-0.9-1.9-1.6-3.2-2C424.4,236.3,387.6,216.7,362,201.5z"></path><path class="st2" d="M418.4,249c-10.7,0.6-24.3,1-41.7,1.2c-6.4-16.9-16.5-49.6-16.9-50.6C360.6,200.6,391.5,239.1,418.4,249z"></path><path class="st1" d="M376.6,250.7c-0.2,0-0.4-0.1-0.5-0.3c-6.4-17.1-16.8-50.3-16.9-50.6c-0.1-0.2,0-0.5,0.2-0.6
		c0.2-0.1,0.5-0.1,0.6,0.1c1.3,1.6,32,39.5,58.4,49.3c0.3,0,0.5,0.3,0.4,0.6c0,0.3-0.3,0.5-0.6,0.4
		C406.4,250.2,392.4,250.6,376.6,250.7L376.6,250.7z M361,201.9c2.5,7.9,10.6,33.4,16,47.8c14.6-0.1,27.7-0.5,39.1-1
		C393.1,238.9,367.6,209.8,361,201.9z"></path><path class="st1" d="M339.4,262.9c-0.3,0-0.5-0.2-0.5-0.5c0,0,0,0,0,0l0,0c0-0.3,0.2-0.5,0.5-0.5s0.5,0.2,0.5,0.5
		C339.9,262.7,339.7,262.9,339.4,262.9z"></path><path class="st0" d="M366.7,350.2c1.6,0.6,3,1.5,4.3,2.6c0.7,0.7,0.7,1.8,0,2.5c-0.3,0.3-0.6,0.5-1,0.5c-3.4,0.4-6.8,0.5-10.2,0.5
		c-3.3,0.1-6.7-0.2-9.9-0.8c-1-0.2-1.6-1.1-1.4-2.1c0.1-0.4,0.3-0.7,0.5-0.9c1.1-0.9,2.3-1.6,3.5-2.2
		C357,348.4,362.2,348.3,366.7,350.2z"></path><path class="st1" d="M359.7,356.8c-3.4,0.1-6.7-0.2-10-0.8c-0.9-0.2-1.5-0.8-1.8-1.6c-0.2-0.8,0-1.7,0.7-2.2
		c1.1-0.9,2.3-1.7,3.7-2.3c4.7-2,9.9-2,14.6-0.1c1.6,0.6,3.1,1.6,4.4,2.8c0.9,0.9,0.9,2.3,0,3.2c-0.4,0.4-0.8,0.6-1.3,0.7
		C366.6,356.7,363.2,356.8,359.7,356.8z M359.7,349.3c-2.4,0-4.8,0.5-7,1.5c-1.2,0.5-2.4,1.2-3.4,2.1c-0.3,0.3-0.5,0.8-0.4,1.2
		c0.1,0.5,0.5,0.8,1,0.9c3.2,0.6,6.5,0.8,9.8,0.8c3.4,0,6.8-0.1,10.2-0.5c0.7-0.1,1.2-0.7,1.1-1.4c0-0.3-0.2-0.5-0.4-0.7
		c-1.2-1.1-2.6-2-4.1-2.5l0,0C364.4,349.8,362.1,349.3,359.7,349.3z"></path></g><g id="ball"><path class="st0" d="M205,349c-4.7,5.2-11.4,8.1-18.4,8.1c-1.7,0-3.4-0.2-5-0.5c-6.4-9.8-6.8-22.6-6.8-26.2c0.5,0.1,1,0.2,1.5,0.2
		c2.2,0,4.2-1,5.5-2.8C185.2,330.7,196.7,340.1,205,349z"></path><path class="st1" d="M186.6,357.6c-1.7,0-3.4-0.2-5.1-0.5c-0.1,0-0.2-0.1-0.3-0.2c-6.4-9.9-6.9-22.8-6.9-26.5
		c0-0.2,0.1-0.3,0.2-0.4c0.1-0.1,0.3-0.1,0.4-0.1c0.4,0.1,0.9,0.1,1.4,0.1c2,0,3.9-1,5.1-2.6c0.1-0.1,0.2-0.2,0.3-0.2
		c0.1,0,0.3,0,0.4,0.1c3.4,2.7,15,12.3,23.3,21.3c0.2,0.2,0.2,0.5,0,0.7C200.5,354.6,193.7,357.6,186.6,357.6z M181.9,356.2
		c1.5,0.3,3.1,0.5,4.7,0.5c6.7,0,13.1-2.8,17.7-7.6c-7.1-7.3-14.6-14.1-22.5-20.5c-1.4,1.6-3.4,2.6-5.6,2.6c-0.3,0-0.7,0-1-0.1
		C175.3,335.3,176,347,181.9,356.2z"></path><path class="st2" d="M211.5,332.2c0,6.2-2.3,12.2-6.5,16.8c-8.3-8.9-19.8-18.4-23.3-21.2c0.8-1.1,1.3-2.5,1.3-4
		c0-1.4-0.4-2.8-1.2-3.9c8.2-2.1,16.7-2.8,25.1-2.1C209.9,322,211.5,327.1,211.5,332.2z"></path><path class="st1" d="M205,349.5c-0.1,0-0.3-0.1-0.4-0.2c-8.3-8.9-19.9-18.5-23.2-21.2c-0.2-0.2-0.2-0.5-0.1-0.7
		c0.8-1.1,1.2-2.3,1.2-3.7c0-1.3-0.4-2.6-1.1-3.6c-0.1-0.1-0.1-0.3-0.1-0.5c0.1-0.2,0.2-0.3,0.3-0.3c8.3-2.1,16.8-2.8,25.3-2.1
		c0.1,0,0.3,0.1,0.4,0.2c6.9,9.7,6.1,23-1.9,31.8C205.3,349.5,205.1,349.5,205,349.5L205,349.5z M182.4,327.7
		c7.9,6.4,15.5,13.3,22.6,20.6c7.4-8.4,8-20.8,1.6-30c-8.1-0.6-16.2,0.1-24.1,2C183.9,322.6,183.8,325.5,182.4,327.7L182.4,327.7z"></path><path class="st0" d="M206.9,317.8c-8.4-0.6-16.9,0.1-25.2,2.2c-1.3-1.8-3.3-2.9-5.5-2.9c-0.2,0-0.4,0-0.6,0
		c0.5-1.7,2.3-5.8,8.6-9.7c0.8-0.1,1.6-0.1,2.4-0.1C194.7,307.3,202.2,311.3,206.9,317.8z"></path><path class="st1" d="M181.7,320.5c-0.2,0-0.3-0.1-0.4-0.2c-1.2-1.7-3.1-2.7-5.1-2.6c-0.2,0-0.4,0-0.6,0c-0.3,0-0.5-0.1-0.6-0.4
		c0-0.1,0-0.2,0-0.2c0.5-1.6,2.3-5.9,8.8-10c0.1,0,0.1-0.1,0.2-0.1c0.8-0.1,1.6-0.1,2.4-0.1c8.2,0,15.9,4,20.7,10.7
		c0.1,0.2,0.1,0.4,0,0.5c-0.1,0.2-0.3,0.3-0.5,0.3C198.4,317.7,190,318.4,181.7,320.5L181.7,320.5z M176.3,316.6
		c2.2,0,4.3,1.1,5.6,2.8c7.8-1.9,15.9-2.7,23.9-2.1c-4.6-5.9-11.7-9.4-19.2-9.4c-0.8,0-1.5,0-2.2,0.1
		C179,311.3,177,314.8,176.3,316.6z"></path><path class="st2" d="M184.2,307.5c-6.3,3.9-8.1,7.9-8.6,9.7c-1.9,0.2-3.6,1.1-4.8,2.7c-1.6-0.7-3.3-1.1-5-1.2
		C169.9,312.3,176.7,308.2,184.2,307.5z"></path><path class="st1" d="M170.8,320.3c-0.1,0-0.1,0-0.2,0c-1.5-0.7-3.2-1.1-4.9-1.2l0,0c-0.3,0-0.5-0.2-0.5-0.5c0-0.1,0-0.2,0.1-0.3
		c4.2-6.5,11.1-10.6,18.8-11.4c0.2,0,0.4,0.1,0.5,0.3c0.1,0.2,0,0.5-0.2,0.6c-6.2,3.9-8,7.8-8.4,9.4c-0.1,0.2-0.2,0.3-0.4,0.4
		c-1.8,0.2-3.4,1.1-4.4,2.5C171.1,320.2,171,320.3,170.8,320.3z M166.7,318.1c1.4,0.2,2.7,0.5,4,1c1.1-1.4,2.8-2.3,4.6-2.5
		c0.6-1.6,2.2-5,6.9-8.4C175.9,309.4,170.3,312.9,166.7,318.1L166.7,318.1z"></path><path class="st0" d="M169.4,323.9c0,0.8,0.1,1.6,0.4,2.3c-3.3,2-6.1,4.7-8.1,8.1c-0.1-0.7-0.1-1.3-0.1-2c0-4.9,1.4-9.6,4.1-13.6
		c1.7,0.1,3.4,0.5,5,1.2C169.9,321,169.4,322.4,169.4,323.9z"></path><path class="st1" d="M161.8,334.7h-0.1c-0.2,0-0.4-0.2-0.4-0.5c-0.1-0.7-0.1-1.3-0.1-2c0-5,1.4-9.8,4.2-13.9
		c0.1-0.1,0.3-0.2,0.5-0.2c1.8,0.1,3.6,0.5,5.2,1.2c0.1,0.1,0.3,0.2,0.3,0.3c0,0.1,0,0.3-0.1,0.4c-1.3,1.7-1.6,3.9-0.9,5.9
		c0.1,0.2,0,0.5-0.2,0.6c-3.3,1.9-6,4.6-7.9,7.9C162.1,334.6,162,334.7,161.8,334.7z M166,319.1c-2.5,3.9-3.9,8.5-3.9,13.1v0.3
		c1.9-2.7,4.3-4.9,7.1-6.6c-0.6-2-0.3-4.2,0.8-5.9C168.7,319.5,167.4,319.2,166,319.1z"></path><path class="st2" d="M181.6,356.6c-10.9-2.2-18.9-11.4-19.8-22.4c2-3.3,4.8-6.1,8.1-8.1c0.8,2.2,2.6,3.8,4.9,4.3
		C174.8,334,175.2,346.8,181.6,356.6z"></path><path class="st1" d="M181.6,357.1h-0.1c-11.1-2.3-19.3-11.6-20.2-22.9c0-0.1,0-0.2,0.1-0.3c2-3.4,4.9-6.3,8.3-8.2
		c0.1-0.1,0.3-0.1,0.4,0c0.1,0.1,0.2,0.2,0.3,0.3c0.7,2,2.4,3.5,4.5,4c0.2,0,0.4,0.3,0.4,0.5c0,3.6,0.5,16.3,6.8,25.9
		c0.1,0.2,0.1,0.4,0,0.5C181.9,357.1,181.7,357.2,181.6,357.1z M162.3,334.3c0.9,10.3,8.2,18.9,18.2,21.5c-5.6-9.4-6.2-21-6.3-25
		c-2-0.6-3.7-2-4.6-3.9C166.6,328.8,164.1,331.3,162.3,334.3L162.3,334.3z"></path><path class="st2" d="M183,323.9c0,3.7-3,6.8-6.7,6.8c0,0,0,0,0,0c-0.5,0-1-0.1-1.5-0.2c-2.3-0.5-4.1-2.1-4.9-4.3
		c-0.8-2.1-0.4-4.5,0.9-6.4c1.1-1.5,2.9-2.5,4.8-2.7c0.2,0,0.4,0,0.6,0c2.2,0,4.3,1.1,5.5,2.9C182.6,321.1,183,322.5,183,323.9z"></path><path class="st1" d="M176.2,331.1c-0.5,0-1-0.1-1.6-0.2c-2.4-0.5-4.4-2.3-5.2-4.6c-0.3-0.8-0.5-1.6-0.4-2.5c0-3.7,2.9-6.9,6.6-7.2
		c0.2,0,0.4,0,0.7,0c2.4,0,4.6,1.1,5.9,3.1c0.9,1.2,1.3,2.7,1.3,4.2c0,1.5-0.5,3-1.4,4.2C180.7,330,178.5,331.1,176.2,331.1z
		 M176.2,317.6c-0.2,0-0.4,0-0.6,0c-1.8,0.2-3.4,1.1-4.4,2.5c-1.3,1.7-1.6,3.9-0.9,5.9c0.7,2,2.4,3.5,4.5,4c2.4,0.5,5-0.4,6.4-2.5
		c0.8-1.1,1.2-2.3,1.2-3.6c0-1.3-0.4-2.6-1.1-3.6C180.2,318.6,178.2,317.6,176.2,317.6z"></path><path class="st2" d="M183,323.9c0,3.7-3,6.8-6.7,6.8c0,0,0,0,0,0c-0.5,0-1-0.1-1.5-0.2c-2.3-0.5-4.1-2.1-4.9-4.3
		c-0.8-2.1-0.4-4.5,0.9-6.4c1.1-1.5,2.9-2.5,4.8-2.7c0.2,0,0.4,0,0.6,0c2.2,0,4.3,1.1,5.5,2.9C182.6,321.1,183,322.5,183,323.9z"></path><path class="st1" d="M176.2,331.1c-0.5,0-1-0.1-1.6-0.2c-2.4-0.5-4.4-2.3-5.2-4.6c-0.3-0.8-0.5-1.6-0.4-2.5c0-3.7,2.9-6.9,6.6-7.2
		c0.2,0,0.4,0,0.7,0c2.4,0,4.6,1.1,5.9,3.1c0.9,1.2,1.3,2.7,1.3,4.2c0,1.5-0.5,3-1.4,4.2C180.7,330,178.5,331.1,176.2,331.1z
		 M176.2,317.6c-0.2,0-0.4,0-0.6,0c-1.8,0.2-3.4,1.1-4.4,2.5c-1.3,1.7-1.6,3.9-0.9,5.9c0.7,2,2.4,3.5,4.5,4c2.4,0.5,5-0.4,6.4-2.5
		c0.8-1.1,1.2-2.3,1.2-3.6c0-1.3-0.4-2.6-1.1-3.6C180.2,318.6,178.2,317.6,176.2,317.6z"></path></g><g id="surf-board"><path class="st0" d="M151.5,254.9c0,0-1.1,5.9-12.6,14s-42.2,22-48.8,39.6c-0.4-11.9,1-24.2,2.1-33.7c0,0,6.3-9.9,22.7-22.4
		s29.1-17.5,31.3-27.6C148.7,234.8,150.4,244.8,151.5,254.9z"></path><path class="st1" d="M90.2,309L90.2,309c-0.3,0-0.5-0.2-0.5-0.5c-0.4-11.4,0.8-22.9,2.1-33.8c0-0.1,0-0.1,0.1-0.2
		c0.1-0.1,6.5-10.1,22.8-22.5c4.8-3.6,9.3-6.7,13.2-9.3c9.5-6.4,16.4-11,17.9-18c0-0.2,0.2-0.4,0.5-0.4c0.2,0,0.4,0.2,0.5,0.4
		c2.3,9.9,4.1,19.9,5.2,30c0,0,0,0.1,0,0.1c-0.1,0.2-1.3,6.2-12.8,14.3c-2.7,1.9-6.5,4.1-10.9,6.7c-13.8,8.2-32.8,19.4-37.7,32.7
		C90.6,308.8,90.4,309,90.2,309z M92.8,275c-1.2,10-2.3,20.6-2.2,31.2c6.1-12.6,24-23.2,37.2-31.1c4.3-2.6,8.1-4.8,10.8-6.7
		c10.5-7.4,12.2-13,12.3-13.6c-1-9.4-2.6-18.8-4.7-28c-2.3,6.3-8.9,10.8-17.8,16.8c-4,2.7-8.4,5.7-13.2,9.3
		C100,264.6,93.5,274,92.8,275z"></path><path class="st0" d="M146.3,224.9c-2.2,10.1-14.9,15.1-31.3,27.6s-22.7,22.3-22.7,22.3c0.4-3.3,0.8-6.3,1-8.8
		c2.2-22,12.3-75.1,27.8-77.3C132.8,187.2,141.1,203.4,146.3,224.9z"></path><path class="st1" d="M92.3,275.4c-0.3,0-0.5-0.2-0.5-0.5c0,0,0,0,0-0.1l0.2-1.4c0.3-2.8,0.6-5.2,0.8-7.4
		c2.3-23.4,12.6-75.6,28.2-77.7c13.5-1.9,21.4,18.8,25.7,36.4c0,0.1,0,0.2,0,0.2c-1.6,7.4-8.6,12.1-18.3,18.6
		c-4,2.7-8.4,5.7-13.2,9.3c-16.1,12.3-22.5,22.1-22.6,22.2C92.6,275.3,92.5,275.4,92.3,275.4z M122.7,189.2c-0.5,0-1,0-1.5,0.1
		c-14.2,2-24.8,51-27.4,76.8c-0.2,2-0.5,4.3-0.8,6.8c2.5-3.3,9.2-11.4,21.7-20.9c4.8-3.6,9.3-6.7,13.2-9.3
		c9.4-6.4,16.3-11,17.9-17.9C138.7,195.9,129.6,189.2,122.7,189.2z"></path><path class="st0" d="M121.2,349c-23.7,0-30.2-19.5-31-40.5c6.5-17.6,37.3-31.6,48.8-39.7s12.6-14,12.6-14c0.4,3.8,0.8,7.5,1.1,11.2
		C155.5,303.4,163.1,349,121.2,349z"></path><path class="st1" d="M121.2,349.5c-19.9,0-30.5-13.8-31.5-41c0-0.1,0-0.1,0-0.2c5-13.6,24.2-24.9,38.2-33.2
		c4.3-2.6,8.1-4.8,10.8-6.7c11.1-7.8,12.4-13.6,12.4-13.6c0-0.3,0.2-0.5,0.5-0.5s0.5,0.2,0.5,0.5c0.4,3.7,0.8,7.5,1.1,11.2
		c0.2,3,0.5,6,0.8,9.1c2.2,25.4,4.4,51.6-8.1,65.2C140.1,346.5,132.1,349.5,121.2,349.5z M90.7,308.6c1,26.9,11,39.9,30.4,39.9
		c10.6,0,18.4-2.9,23.9-8.8c12.2-13.3,10-39.3,7.8-64.5c-0.3-3.1-0.5-6.1-0.8-9.1s-0.5-6.1-0.9-9.2c-1.2,2.4-4.3,6.9-12,12.3
		c-2.7,1.9-6.5,4.1-10.9,6.7C114.6,284.2,95.7,295.4,90.7,308.6z"></path></g><g id="boat"><path class="st2" d="M229,145.4c0,0,19.7,45,54.2,74.6c0,0-22.9,10.5-54.2,12.6V145.4z"></path><path class="st1" d="M229,233.1c-0.1,0-0.2-0.1-0.3-0.1c-0.1-0.1-0.2-0.2-0.2-0.4v-87.2c-0.1-0.3,0.1-0.5,0.4-0.6
		c0.3-0.1,0.5,0.1,0.6,0.4c0.2,0.4,20,45.3,54.1,74.4c0.1,0.1,0.2,0.3,0.2,0.4c0,0.2-0.1,0.3-0.3,0.4
		C266.1,227.6,247.8,231.9,229,233.1L229,233.1z M229.5,147.7v84.4c18.1-1.3,35.9-5.4,52.8-12.2
		C252.6,194.2,233.8,156.8,229.5,147.7L229.5,147.7z"></path><path class="st0" d="M228.9,143.5h0.2c0.7,0,1.2,0.5,1.2,1.2v100.4c0,0.7-0.5,1.2-1.2,1.2h-0.2c-0.7,0-1.2-0.5-1.2-1.2V144.7
		C227.7,144,228.2,143.5,228.9,143.5z"></path><path class="st1" d="M229.1,246.8h-0.2c-0.9,0-1.7-0.8-1.7-1.7V144.7c0-0.9,0.8-1.7,1.7-1.7h0.2c0.9,0,1.7,0.8,1.7,1.7v100.4
		C230.8,246.1,230.1,246.8,229.1,246.8z M228.9,144c-0.4,0-0.7,0.3-0.7,0.7c0,0,0,0,0,0v100.4c0,0.4,0.3,0.7,0.7,0.7c0,0,0,0,0,0
		h0.2c0.4,0,0.7-0.3,0.7-0.7c0,0,0,0,0,0V144.7c0-0.4-0.3-0.7-0.7-0.7c0,0,0,0,0,0L228.9,144z"></path><path class="st1" d="M229,238.7v41c0,0,11.3-12.8,14.3-20.5c1.8-5.1,2.8-10.5,2.9-16L229,238.7z"></path><path class="st1" d="M229,280.2h-0.2c-0.2-0.1-0.3-0.3-0.3-0.5v-41c0-0.2,0.1-0.3,0.2-0.4c0.1-0.1,0.3-0.1,0.4-0.1l17.2,4.5
		c0.2,0.1,0.4,0.3,0.4,0.5c-0.1,5.5-1.2,11-3,16.2c-2.9,7.7-13.9,20.1-14.4,20.6C229.3,280.1,229.1,280.2,229,280.2z M229.5,239.3
		v39c2.7-3.2,10.9-13,13.3-19.3c1.8-5,2.7-10.2,2.9-15.4L229.5,239.3z"></path><path class="st0" d="M229,238.7v41c0,0-11.3-12.8-14.2-20.5c-1.8-5.1-2.8-10.5-2.9-16L229,238.7z"></path><path class="st1" d="M229,280.2c-0.1,0-0.3-0.1-0.4-0.2c-0.5-0.5-11.4-12.9-14.4-20.6c-1.8-5.2-2.9-10.7-3-16.2
		c0-0.2,0.2-0.4,0.4-0.5l17.2-4.5c0.1,0,0.3,0,0.4,0.1c0.1,0.1,0.2,0.2,0.2,0.4v41c0,0.2-0.1,0.4-0.3,0.5
		C229.1,280.2,229,280.2,229,280.2z M212.3,243.6c0.2,5.3,1.1,10.5,2.9,15.4c2.4,6.3,10.6,16.2,13.3,19.3v-39L212.3,243.6z"></path></g></svg>