<svg transform="scale(1)" id="_01118_Business_Strategy" xmlns="http://www.w3.org/2000/svg" viewBox="0 0 500 500" class="show_show__wrapper__graphic__5Waiy "><title>React</title><g id="floor"><path d="M378.51,266.31H124.85c-.28,0-.5-.22-.5-.5s.22-.5.5-.5h253.67c.28,0,.5.22.5.5s-.22.5-.5.5Z" fill="#732a09" stroke-width="0"></path><path d="M452.12,350.67H51.25c-.28,0-.5-.22-.5-.5s.22-.5.5-.5h400.87c.28,0,.5.22.5.5s-.22.5-.5.5Z" fill="#732a09" stroke-width="0"></path><line x1="290.31" y1="265.81" x2="345.45" y2="350.17" fill="#fff" stroke-width="0"></line><path d="M345.45,350.67c-.16,0-.32-.08-.42-.23l-55.14-84.37c-.15-.23-.09-.54.15-.69.23-.15.54-.09.69.15l55.14,84.37c.15.23.09.54-.15.69-.08.05-.18.08-.27.08Z" fill="#732a09" stroke-width="0"></path><line x1="365.77" y1="265.81" x2="445.75" y2="350.17" fill="#fff" stroke-width="0"></line><path d="M445.75,350.67c-.13,0-.26-.05-.36-.16l-79.98-84.37c-.19-.2-.18-.52.02-.71.2-.19.52-.18.71.02l79.98,84.37c.19.2.18.52-.02.71-.1.09-.22.14-.34.14Z" fill="#732a09" stroke-width="0"></path><line x1="216.98" y1="265.81" x2="161.84" y2="350.17" fill="#fff" stroke-width="0"></line><path d="M161.84,350.67c-.09,0-.19-.03-.27-.08-.23-.15-.3-.46-.15-.69l55.14-84.37c.15-.23.46-.29.69-.15.23.15.3.46.15.69l-55.14,84.37c-.1.15-.26.23-.42.23Z" fill="#732a09" stroke-width="0"></path><line x1="141.52" y1="265.81" x2="61.54" y2="350.17" fill="#fff" stroke-width="0"></line><path d="M61.54,350.67c-.12,0-.25-.05-.34-.14-.2-.19-.21-.51-.02-.71l79.98-84.37c.19-.2.51-.21.71-.02.2.19.21.51.02.71l-79.98,84.37c-.1.1-.23.16-.36.16Z" fill="#732a09" stroke-width="0"></path><path d="M417.47,308.49H85.9c-.28,0-.5-.22-.5-.5s.22-.5.5-.5h331.57c.28,0,.5.22.5.5s-.22.5-.5.5Z" fill="#732a09" stroke-width="0"></path></g><g id="chess"><path d="M365.99,277.02c2.75.43,3.09,2.33,3.09,7.33s-.34,6.99-3.62,7.93-8.98,2.84-24.3,3.21c-8.63.21-28.57-1.89-28.94-7.95-.38-6.05.35-10.59,3.26-10.53s50.52,0,50.52,0Z" fill="#732a09" stroke-width="0"></path><path d="M340.06,296.01c-8.24,0-27.94-1.87-28.35-8.43-.33-5.27.22-8.7,1.65-10.18.58-.6,1.31-.88,2.13-.88,2.88.06,50.03,0,50.5,0h0s.05,0,.08,0c3.18.5,3.51,2.77,3.51,7.83s-.38,7.37-3.98,8.42l-.51.15c-3.48,1.02-9.3,2.72-23.92,3.08-.34,0-.71.01-1.11.01ZM315.42,277.52c-.53,0-.97.19-1.34.58-.84.87-1.76,3.22-1.37,9.43.33,5.28,18.97,7.72,28.43,7.48,14.49-.35,20.23-2.04,23.66-3.04l.52-.15c2.85-.83,3.26-2.33,3.26-7.45s-.47-6.48-2.63-6.83c-1.62,0-47.63.06-50.49,0-.02,0-.03,0-.05,0Z" fill="#732a09" stroke-width="0"></path><path d="M365.87,278.66s-3.09,2.6-25.14,2.67c-22.05-.06-25.13-2.67-25.13-2.67-.97-9.96,3.88-12.63,8.5-17.24,4.62-4.62,3.16-9.96,2.19-13.6-.97-3.64,5.83-6.07,8.02-18.45,2.19-12.39-3.89-24.77-3.89-24.77h20.64s-6.07,12.39-3.88,24.77c2.19,12.39,8.98,14.81,8.01,18.45-.97,3.65-2.42,8.99,2.19,13.6,4.62,4.61,9.48,7.28,8.51,17.24Z" fill="#fff" stroke-width="0"></path><path d="M340.73,281.83c-21.98-.06-25.32-2.67-25.45-2.79-.1-.08-.16-.2-.17-.33-.85-8.76,2.79-12.15,6.65-15.74.66-.61,1.33-1.23,1.99-1.9,4.38-4.38,3.05-9.39,2.07-13.05-.49-1.83.57-3.28,2.04-5.28,1.98-2.7,4.7-6.4,5.95-13.46,2.13-12.09-3.79-24.34-3.85-24.47-.08-.15-.07-.34.03-.48.09-.15.25-.24.42-.24h20.64c.17,0,.33.09.42.24.09.15.1.33.03.48-.06.12-5.97,12.39-3.84,24.47,1.25,7.06,3.96,10.76,5.94,13.46,1.47,2,2.53,3.44,2.06,5.21-.99,3.72-2.32,8.73,2.06,13.12.67.67,1.34,1.29,2,1.9,3.86,3.59,7.51,6.98,6.65,15.74-.01.13-.08.25-.18.33-.13.11-3.48,2.72-25.46,2.79ZM316.08,278.37c.84.46,5.53,2.4,24.65,2.46,18.95-.05,23.81-2.02,24.66-2.46.72-8.08-2.57-11.14-6.36-14.67-.67-.62-1.35-1.25-2.02-1.93-4.79-4.79-3.31-10.35-2.33-14.03.36-1.36-.53-2.58-1.88-4.42-1.92-2.62-4.83-6.59-6.12-13.88-1.89-10.7,2.36-21.52,3.6-24.36h-19.09c1.24,2.84,5.49,13.66,3.61,24.36-1.29,7.29-4.2,11.25-6.12,13.88-1.35,1.84-2.25,3.06-1.9,4.36,1,3.74,2.48,9.29-2.32,14.08-.67.67-1.35,1.3-2.02,1.92-3.79,3.53-7.08,6.59-6.36,14.67ZM365.87,278.66h0,0Z" fill="#732a09" stroke-width="0"></path><path d="M340.73,281.83h-.85c-.28,0-.5-.22-.5-.5s.22-.5.5-.5h.85c.28,0,.5.22.5.5s-.22.5-.5.5Z" fill="#732a09" stroke-width="0"></path><path d="M341.58,281.83h-.85c-.28,0-.5-.22-.5-.5s.22-.5.5-.5h.85c.28,0,.5.22.5.5s-.22.5-.5.5Z" fill="#732a09" stroke-width="0"></path><path d="M338.69,249.36c-3.93,0-7.98-.45-11.32-1.79-.26-.1-.38-.39-.28-.65s.4-.38.65-.28c9.46,3.82,25.64.02,25.8-.02.27-.07.54.1.6.37s-.1.54-.37.6c-.44.11-7.52,1.77-15.09,1.77Z" fill="#732a09" stroke-width="0"></path><path d="M357.19,203.23c-.22,1.54-6.38,4.07-16.45,4.07s-16.24-2.53-16.46-4.07c-.22-1.54,8.36-3.08,9.78-5.83,1.43-2.75,1.1-5.94,1.1-5.94h11.13s-.32,3.2,1.1,5.94c1.43,2.75,10,4.29,9.78,5.83Z" fill="#fff" stroke-width="0"></path><path d="M340.74,207.8c-9.61,0-16.65-2.37-16.95-4.5-.16-1.1,1.53-1.78,4.08-2.79,2.26-.9,5.07-2.02,5.75-3.34,1.34-2.58,1.05-5.63,1.05-5.66-.01-.14.03-.28.13-.38.09-.11.23-.17.37-.17h11.13c.14,0,.28.06.37.17.1.1.14.24.13.38,0,.03-.29,3.09,1.05,5.66.68,1.31,3.49,2.44,5.75,3.34,2.55,1.02,4.24,1.69,4.08,2.79h0c-.31,2.13-7.34,4.5-16.95,4.5ZM335.7,191.96c.03,1.07-.05,3.49-1.19,5.67-.85,1.64-3.73,2.79-6.27,3.8-1.33.53-3.33,1.33-3.46,1.75.16,1.06,5.78,3.61,15.96,3.61s15.74-2.53,15.95-3.62c-.16-.42-2.14-1.22-3.46-1.74-2.54-1.01-5.42-2.16-6.27-3.81-1.14-2.19-1.22-4.61-1.19-5.67h-10.08ZM357.19,203.23h0,0ZM356.69,203.16h0Z" fill="#732a09" stroke-width="0"></path><circle cx="340.74" cy="182.77" r="11.95" fill="#732a09" stroke-width="0"></circle><path d="M340.74,195.22c-6.86,0-12.45-5.58-12.45-12.45s5.58-12.45,12.45-12.45,12.45,5.58,12.45,12.45-5.58,12.45-12.45,12.45ZM340.74,171.32c-6.31,0-11.45,5.13-11.45,11.45s5.14,11.45,11.45,11.45,11.45-5.13,11.45-11.45-5.13-11.45-11.45-11.45Z" fill="#732a09" stroke-width="0"></path></g><g id="chess-2"><path d="M186.06,280.36c2.77.43,3.12,2.35,3.12,7.39s-.35,7.05-3.65,8-9.06,2.86-24.51,3.24c-8.71.21-28.81-1.91-29.19-8.01-.38-6.11.35-10.68,3.29-10.62s50.95,0,50.95,0Z" fill="#732a09" stroke-width="0"></path><path d="M159.91,299.51c-8.3,0-28.17-1.88-28.59-8.5-.33-5.32.23-8.77,1.66-10.26.58-.61,1.31-.9,2.14-.89,2.9.06,50.45,0,50.93,0h0s.05,0,.08,0c3.21.5,3.54,2.79,3.54,7.89s-.38,7.43-4.01,8.48l-.52.15c-3.51,1.03-9.38,2.75-24.12,3.11-.34,0-.71.01-1.11.01ZM135.05,280.86c-.53,0-.98.19-1.35.58-.85.88-1.77,3.25-1.38,9.51.33,5.33,19.15,7.79,28.68,7.54,14.61-.36,20.41-2.05,23.87-3.07l.52-.15c2.88-.83,3.29-2.35,3.29-7.52s-.47-6.54-2.66-6.89c-1.62,0-48.04.06-50.92,0-.02,0-.03,0-.05,0Z" fill="#732a09" stroke-width="0"></path><path d="M185.93,282.02s-3.11,2.63-25.35,2.69c-22.24-.06-25.34-2.69-25.34-2.69-.98-10.04,3.91-12.74,8.57-17.39,4.65-4.65,3.18-10.04,2.2-13.72-.98-3.68,5.88-6.12,8.08-18.61,2.2-12.49-3.92-24.98-3.92-24.98h20.81s-6.12,12.49-3.91,24.98c2.2,12.49,9.05,14.93,8.08,18.61-.98,3.68-2.44,9.06,2.2,13.72,4.65,4.65,9.56,7.34,8.58,17.39Z" fill="#fff" stroke-width="0"></path><path d="M160.58,285.21c-22.17-.06-25.53-2.7-25.67-2.81-.1-.08-.16-.2-.17-.33-.86-8.83,2.82-12.25,6.71-15.88.66-.62,1.34-1.24,2.01-1.91,4.42-4.42,3.08-9.47,2.09-13.16-.49-1.85.58-3.31,2.06-5.32,2-2.72,4.74-6.46,6-13.58,2.15-12.19-3.82-24.55-3.88-24.68-.08-.15-.07-.34.03-.48.09-.15.25-.24.42-.24h20.81c.17,0,.33.09.42.24.09.15.1.33.03.48-.06.12-6.02,12.5-3.87,24.68,1.26,7.12,3.99,10.85,5.99,13.58,1.48,2.02,2.55,3.47,2.07,5.25-1,3.75-2.34,8.81,2.07,13.24.67.67,1.35,1.3,2.01,1.92,3.89,3.62,7.57,7.04,6.71,15.87-.01.13-.08.25-.18.33-.13.11-3.5,2.74-25.67,2.81ZM135.72,281.73c.84.46,5.56,2.42,24.87,2.48,19.24-.05,24-2,24.88-2.48.72-8.15-2.59-11.24-6.42-14.8-.67-.63-1.36-1.26-2.04-1.94-4.83-4.83-3.33-10.44-2.35-14.14.37-1.37-.54-2.6-1.9-4.46-1.94-2.65-4.87-6.64-6.17-13.99-1.91-10.8,2.38-21.71,3.63-24.57h-19.26c1.25,2.86,5.54,13.77,3.64,24.57-1.3,7.35-4.23,11.35-6.18,13.99-1.36,1.86-2.27,3.09-1.92,4.4,1,3.78,2.5,9.37-2.33,14.2-.68.68-1.36,1.31-2.03,1.94-3.83,3.56-7.14,6.65-6.41,14.81ZM185.93,282.02h0,0Z" fill="#732a09" stroke-width="0"></path><path d="M160.58,285.21h-.86c-.28,0-.5-.22-.5-.5s.22-.5.5-.5h.86c.28,0,.5.22.5.5s-.22.5-.5.5Z" fill="#732a09" stroke-width="0"></path><path d="M161.44,285.21h-.86c-.28,0-.5-.22-.5-.5s.22-.5.5-.5h.86c.28,0,.5.22.5.5s-.22.5-.5.5Z" fill="#732a09" stroke-width="0"></path><path d="M158.53,252.46c-3.96,0-8.05-.45-11.42-1.81-.26-.1-.38-.39-.28-.65.1-.26.4-.38.65-.28,9.54,3.85,25.86.02,26.02-.02.27-.07.54.1.6.37.06.27-.1.54-.37.6-.45.11-7.58,1.79-15.22,1.79Z" fill="#732a09" stroke-width="0"></path><path d="M177.18,205.94c-.22,1.55-6.43,4.11-16.59,4.11s-16.38-2.55-16.6-4.11c-.22-1.55,8.43-3.1,9.87-5.88,1.44-2.77,1.11-5.99,1.11-5.99h11.23s-.33,3.22,1.11,5.99c1.44,2.78,10.09,4.33,9.87,5.88Z" fill="#fff" stroke-width="0"></path><path d="M160.59,210.55c-9.69,0-16.79-2.39-17.09-4.54-.16-1.11,1.54-1.79,4.11-2.81,2.28-.91,5.12-2.04,5.81-3.37,1.35-2.6,1.06-5.68,1.06-5.71-.01-.14.03-.28.13-.38.09-.11.23-.17.37-.17h11.23c.14,0,.28.06.37.17.1.1.14.24.13.38,0,.03-.29,3.11,1.06,5.71.69,1.33,3.53,2.46,5.8,3.37,2.57,1.03,4.27,1.7,4.11,2.81h0c-.31,2.15-7.4,4.54-17.08,4.54ZM155.5,194.57c.03,1.07-.05,3.51-1.2,5.72-.86,1.66-3.76,2.81-6.32,3.84-1.34.54-3.37,1.34-3.5,1.77.16,1.07,5.83,3.65,16.1,3.65s15.88-2.55,16.09-3.66c-.16-.43-2.16-1.23-3.49-1.76-2.56-1.02-5.46-2.18-6.32-3.84-1.15-2.21-1.23-4.65-1.2-5.72h-10.17ZM177.18,205.94h0,0ZM176.69,205.87h0Z" fill="#732a09" stroke-width="0"></path><circle cx="160.59" cy="185.31" r="12.05" fill="#732a09" stroke-width="0"></circle><path d="M160.59,197.86c-6.92,0-12.55-5.63-12.55-12.55s5.63-12.55,12.55-12.55,12.55,5.63,12.55,12.55-5.63,12.55-12.55,12.55ZM160.59,173.76c-6.37,0-11.55,5.18-11.55,11.55s5.18,11.55,11.55,11.55,11.55-5.18,11.55-11.55-5.18-11.55-11.55-11.55Z" fill="#732a09" stroke-width="0"></path></g><g id="chess-3"><path d="M259.39,181.32h-21.43c.19-10.64-5.12-23.64-2.96-33.68,2.16-9.98,9.41-10.43,13.62-10.44h.1c4.22,0,11.47.47,13.62,10.44,2.16,10.04-3.15,23.05-2.95,33.68Z" fill="#f75454" stroke-width="0"></path><path d="M259.39,181.82h-21.43c-.13,0-.26-.05-.36-.15-.09-.1-.15-.23-.14-.36.08-4.44-.83-9.43-1.72-14.25-1.23-6.7-2.5-13.63-1.23-19.53,2.34-10.81,10.59-10.83,14.11-10.84h.1c3.53,0,11.78.02,14.11,10.84,1.27,5.89,0,12.82-1.23,19.52-.88,4.83-1.8,9.81-1.71,14.26,0,.13-.05.26-.14.36-.09.1-.22.15-.36.15ZM238.46,180.82h20.42c-.01-4.41.88-9.26,1.74-13.95,1.21-6.6,2.46-13.43,1.23-19.13-1.9-8.83-7.71-10.04-13.13-10.05h-.1c-5.42.01-11.22,1.21-13.13,10.05-1.23,5.7.02,12.53,1.24,19.14.86,4.69,1.75,9.53,1.74,13.94Z" fill="#732a09" stroke-width="0"></path><path d="M281.33,279c3.54.56,3.98,3,3.98,9.45s-.44,9-4.67,10.23-11.57,3.66-31.33,4.14c-11.13.27-36.82-2.44-37.31-10.24-.49-7.8.45-13.65,4.21-13.57s65.11,0,65.11,0Z" fill="#732a09" stroke-width="0"></path><path d="M247.73,303.33c-5.63,0-13.89-.63-21.15-2.12-9.76-2.01-14.83-4.9-15.06-8.61-.42-6.76.28-11.13,2.08-13.01.72-.75,1.58-1.13,2.63-1.09,3.71.08,64.48,0,65.1,0h0s.05,0,.08,0c3.99.63,4.41,3.51,4.41,9.94s-.46,9.38-5.03,10.71l-.66.19c-4.48,1.31-11.97,3.51-30.79,3.97-.51.01-1.04.02-1.61.02ZM216.15,279.5c-.72,0-1.32.26-1.83.79-1.58,1.64-2.2,5.88-1.8,12.26.19,3.11,5.26,5.84,14.26,7.69,7.91,1.62,17.01,2.23,22.53,2.08,18.69-.46,26.1-2.63,30.53-3.93l.66-.19c3.77-1.09,4.31-3.06,4.31-9.75s-.46-8.45-3.52-8.95c-1.86,0-61.4.08-65.08,0-.02,0-.04,0-.06,0Z" fill="#732a09" stroke-width="0"></path><path d="M281.17,281.11s-3.98,3.36-32.4,3.44c-28.42-.08-32.39-3.44-32.39-3.44-1.25-12.83,5-16.28,10.95-22.22,5.95-5.95,4.07-12.83,2.82-17.53-1.25-4.7,7.51-7.82,10.33-23.78,2.82-15.97-5.01-31.93-5.01-31.93h26.6s-7.82,15.97-5,31.93c2.82,15.97,11.57,19.09,10.32,23.78-1.25,4.7-3.12,11.58,2.82,17.53,5.95,5.94,12.21,9.39,10.96,22.22Z" fill="#f75454" stroke-width="0"></path><path d="M248.77,285.05c-28.28-.08-32.54-3.41-32.71-3.55-.1-.08-.16-.2-.17-.33-1.09-11.22,3.58-15.57,8.53-20.17.85-.79,1.71-1.59,2.57-2.45,5.71-5.71,3.98-12.21,2.71-16.96-.61-2.3.74-4.14,2.61-6.68,2.57-3.49,6.08-8.28,7.69-17.41,2.76-15.62-4.89-31.47-4.97-31.62-.08-.15-.07-.34.02-.48.09-.15.25-.24.42-.24h26.6c.17,0,.33.09.42.24.09.15.1.33.03.48-.08.16-7.71,16.01-4.96,31.62,1.61,9.13,5.12,13.92,7.68,17.41,1.87,2.55,3.22,4.38,2.63,6.59-1.29,4.82-3.02,11.33,2.69,17.05.86.86,1.73,1.66,2.58,2.45,4.95,4.6,9.62,8.95,8.53,20.17-.01.13-.08.25-.18.33-.17.14-4.44,3.47-32.72,3.55ZM216.86,280.83c.95.55,6.78,3.15,31.91,3.22,25.08-.07,30.94-2.66,31.92-3.22.96-10.55-3.31-14.51-8.24-19.1-.86-.8-1.73-1.61-2.6-2.48-6.11-6.12-4.22-13.24-2.96-17.94.48-1.82-.68-3.41-2.45-5.82-2.47-3.37-6.21-8.46-7.86-17.83-2.47-14.03,3.25-28.21,4.72-31.52h-25.04c1.47,3.31,7.2,17.49,4.73,31.52-1.65,9.36-5.39,14.46-7.87,17.83-1.77,2.41-2.94,4-2.47,5.74,1.28,4.79,3.17,11.9-2.95,18.01-.87.87-1.74,1.68-2.59,2.47-4.93,4.59-9.2,8.56-8.24,19.11ZM281.17,281.12h0,0Z" fill="#732a09" stroke-width="0"></path><path d="M248.77,285.05h-1.1c-.28,0-.5-.22-.5-.5s.22-.5.5-.5h1.1c.28,0,.5.22.5.5s-.22.5-.5.5Z" fill="#732a09" stroke-width="0"></path><path d="M249.87,285.05h-1.1c-.28,0-.5-.22-.5-.5s.22-.5.5-.5h1.1c.28,0,.5.22.5.5s-.22.5-.5.5Z" fill="#732a09" stroke-width="0"></path><path d="M246.15,243.2c-5.04,0-10.25-.58-14.54-2.3-.26-.1-.38-.39-.28-.65.1-.26.4-.38.65-.28,12.24,4.94,33.13.03,33.34-.02.27-.07.54.1.6.37s-.1.54-.37.6c-.57.14-9.68,2.28-19.42,2.28Z" fill="#732a09" stroke-width="0"></path><path d="M267.19,188.25c-.87,1.3-7.46,4.51-18.57,4.51s-17.7-3.21-18.56-4.51c-.87-1.3,3.32-3.18,3.32-3.18,0,0-4.05-5.21,0-6.51s8.35,1.59,15.24,1.59,11.19-2.89,15.24-1.59c4.04,1.3,0,6.51,0,6.51,0,0,4.19,1.88,3.32,3.18Z" fill="#f75454" stroke-width="0"></path><path d="M248.62,193.26c-11.06,0-17.92-3.14-18.97-4.74-.2-.3-.25-.65-.15-1.01.31-1.09,2.14-2.14,3.14-2.64-.66-.99-1.95-3.22-1.42-4.95.27-.88.95-1.5,2.02-1.84,2.33-.75,4.7-.2,7.45.44,2.27.53,4.85,1.12,7.94,1.12s5.68-.6,7.95-1.13c2.75-.64,5.12-1.19,7.45-.44,1.06.34,1.74.96,2.01,1.84.53,1.73-.75,3.96-1.42,4.95.99.5,2.82,1.54,3.14,2.64.1.36.05.71-.15,1.01,0,0,0,0,0,0-1.07,1.6-7.94,4.74-18.98,4.74ZM235.66,178.72c-.73,0-1.43.09-2.12.31-.75.24-1.2.63-1.37,1.19-.45,1.45,1.01,3.77,1.61,4.54.09.12.13.28.09.43s-.14.27-.28.33c-1.18.53-2.94,1.58-3.13,2.26-.03.09-.01.13.02.18.6.91,6.67,4.29,18.14,4.29s17.54-3.38,18.15-4.29c.03-.05.04-.09.02-.18-.2-.68-1.95-1.73-3.13-2.27-.14-.06-.24-.19-.28-.33s0-.31.09-.43c.6-.77,2.05-3.1,1.61-4.54-.17-.56-.62-.95-1.37-1.19-2.06-.66-4.2-.17-6.92.46-2.33.54-4.96,1.15-8.18,1.15s-5.84-.61-8.17-1.15c-1.8-.42-3.35-.78-4.79-.78ZM267.19,188.25h0,0Z" fill="#732a09" stroke-width="0"></path><path d="M249.27,187.04c-4.54,0-9.96-.37-15.98-1.48-.27-.05-.45-.31-.4-.58.05-.27.3-.44.58-.4,17.79,3.27,30.14.04,30.26,0,.27-.07.54.08.61.35.07.27-.09.54-.35.61-.08.02-5.68,1.49-14.72,1.49Z" fill="#732a09" stroke-width="0"></path><path d="M259.66,121.82l-6.99-2.76s3.05,6.1,3.05,7.88c0,1.47-4.2,9.45-5.63,12.13-.29.54-.85.88-1.47.88h0c-.61,0-1.18-.34-1.47-.88-1.43-2.68-5.63-10.65-5.63-12.13,0-1.78,3.05-7.88,3.05-7.88l-6.99,2.76v-15.36l7.09,3.75s-4.14-14.58-2.96-15.57c.91-.76,4.07-1.17,6.91-1.31,2.83.14,5.99.55,6.9,1.31,1.18.98-2.96,15.57-2.96,15.57l7.09-3.75v15.36Z" fill="#fff" stroke-width="0"></path><path d="M248.62,140.45c-.8,0-1.53-.44-1.91-1.14-2.13-3.97-5.69-10.86-5.69-12.36,0-1.41,1.63-5.03,2.54-6.94l-5.8,2.29c-.16.06-.33.04-.46-.05-.14-.09-.22-.25-.22-.41v-15.36c0-.17.09-.34.24-.43.15-.09.34-.1.49-.01l6.06,3.2c-1.57-5.63-3.65-14-2.48-14.96,1.18-.98,5.02-1.31,7.2-1.42,2.23.11,6.07.44,7.25,1.42,1.16.97-.92,9.33-2.48,14.96l6.06-3.2c.16-.08.34-.08.49.01.15.09.24.25.24.43v15.36c0,.17-.08.32-.22.41-.14.09-.31.11-.46.05l-5.8-2.29c.91,1.91,2.54,5.54,2.54,6.94,0,1.5-3.57,8.39-5.69,12.36-.38.7-1.11,1.14-1.91,1.14ZM244.58,118.56c.14,0,.27.06.37.16.14.15.17.38.08.56-.83,1.67-3,6.3-3,7.66,0,.9,2.19,5.56,5.57,11.89.2.38.6.61,1.03.61s.82-.24,1.03-.61c3.38-6.33,5.57-10.99,5.57-11.89,0-1.36-2.17-5.99-3-7.66-.09-.19-.06-.41.08-.56.14-.15.36-.2.55-.13l6.31,2.49v-13.8l-6.36,3.36c-.18.09-.39.07-.55-.05-.16-.13-.22-.33-.17-.53,1.9-6.71,3.58-14.19,3.08-15.09-.63-.51-3.22-.98-6.57-1.15-3.3.17-5.89.64-6.56,1.19-.46.85,1.21,8.33,3.12,15.05.05.19-.01.4-.17.53s-.37.14-.55.05l-6.36-3.36v13.8l6.31-2.49c.06-.02.12-.04.18-.04Z" fill="#732a09" stroke-width="0"></path></g><g id="chess-4"><path d="M312.12,320.26c3.3.52,3.72,2.8,3.72,8.82s-.42,8.4-4.36,9.55-10.8,3.41-29.24,3.87c-10.39.25-34.37-2.28-34.82-9.56-.46-7.28.42-12.74,3.93-12.67s60.78,0,60.78,0Z" fill="#732a09" stroke-width="0"></path><path d="M280.91,343c-9.89,0-33.51-2.22-34-10.04-.39-6.32.26-10.41,1.95-12.17.68-.7,1.53-1.04,2.49-1.03,3.46.07,60.19,0,60.76,0h0s.05,0,.08,0c3.75.59,4.14,3.29,4.14,9.31s-.45,8.79-4.72,10.03l-.62.18c-4.18,1.22-11.18,3.27-28.75,3.71-.41,0-.86.02-1.34.02ZM251.27,320.76c-.67,0-1.22.24-1.68.72-1.02,1.07-2.14,3.91-1.67,11.42.18,2.88,4.9,5.42,13.29,7.15,7.38,1.52,15.88,2.07,21.02,1.94,17.45-.43,24.36-2.45,28.5-3.67l.62-.18c3.5-1.01,4-2.84,4-9.07s-.43-7.86-3.26-8.32c-1.79,0-57.31.07-60.75,0-.02,0-.04,0-.06,0Z" fill="#732a09" stroke-width="0"></path><path d="M311.97,322.23s-3.71,3.13-30.24,3.21c-26.53-.08-30.23-3.21-30.23-3.21-1.17-11.98,4.67-15.2,10.22-20.74,5.55-5.55,3.8-11.98,2.63-16.37-1.17-4.39,7.01-7.3,9.64-22.2,2.63-14.9-4.68-29.81-4.68-29.81h24.83s-7.3,14.9-4.67,29.81c2.63,14.9,10.8,17.82,9.63,22.2-1.17,4.39-2.91,10.81,2.63,16.37,5.55,5.54,11.4,8.76,10.23,20.74Z" fill="#fff" stroke-width="0"></path><path d="M281.73,325.94c-26.41-.08-30.4-3.19-30.56-3.33-.1-.08-.16-.2-.17-.33-1.02-10.49,3.35-14.55,7.97-18.86.79-.74,1.6-1.49,2.4-2.29,5.31-5.31,3.7-11.37,2.52-15.8-.58-2.16.69-3.88,2.44-6.27,2.39-3.26,5.67-7.72,7.17-16.24,2.57-14.56-4.56-29.35-4.64-29.5-.08-.15-.07-.34.03-.48.09-.15.25-.24.42-.24h24.83c.17,0,.33.09.42.24.09.15.1.33.03.48-.07.15-7.2,14.94-4.63,29.5,1.5,8.52,4.78,12.98,7.17,16.24,1.75,2.38,3.01,4.11,2.46,6.18-1.2,4.5-2.81,10.56,2.5,15.88.8.8,1.61,1.55,2.41,2.29,4.62,4.3,8.99,8.37,7.97,18.85-.01.13-.08.25-.18.33-.16.13-4.15,3.25-30.56,3.33ZM251.97,321.95c.92.52,6.41,2.93,29.76,2.99,23.29-.07,28.82-2.46,29.77-3,.89-9.81-3.09-13.51-7.68-17.78-.8-.75-1.62-1.51-2.43-2.32-5.72-5.73-3.95-12.38-2.78-16.78.45-1.68-.64-3.16-2.28-5.4-2.31-3.15-5.8-7.91-7.34-16.65-2.3-13.04,2.98-26.21,4.38-29.39h-23.28c1.4,3.18,6.69,16.36,4.39,29.39-1.54,8.75-5.04,13.51-7.35,16.65-1.65,2.24-2.73,3.72-2.3,5.33,1.19,4.48,2.96,11.13-2.76,16.85-.81.81-1.62,1.57-2.42,2.31-4.59,4.28-8.57,7.97-7.68,17.79ZM311.97,322.23h0,0Z" fill="#732a09" stroke-width="0"></path><path d="M281.73,325.94h-1.03c-.28,0-.5-.22-.5-.5s.22-.5.5-.5h1.03c.28,0,.5.22.5.5s-.22.5-.5.5Z" fill="#732a09" stroke-width="0"></path><path d="M282.75,325.94h-1.03c-.28,0-.5-.22-.5-.5s.22-.5.5-.5h1.03c.28,0,.5.22.5.5s-.22.5-.5.5Z" fill="#732a09" stroke-width="0"></path><path d="M279.27,286.88c-4.71,0-9.58-.54-13.58-2.15-.26-.1-.38-.39-.28-.65.1-.26.39-.38.65-.28,11.42,4.61,30.91.02,31.1-.02.27-.07.54.1.6.37.06.27-.1.54-.37.6-.53.13-9.04,2.13-18.13,2.13Z" fill="#732a09" stroke-width="0"></path><path d="M301.53,231.48c-.27,1.85-7.67,4.9-19.79,4.9s-19.54-3.05-19.8-4.9c-.27-1.85,10.05-3.7,11.77-7.01,1.72-3.3,1.33-7.15,1.33-7.15h13.39s-.39,3.84,1.33,7.15c1.72,3.31,12.04,5.16,11.77,7.01Z" fill="#fff" stroke-width="0"></path><path d="M281.74,236.87c-11.51,0-19.93-2.81-20.3-5.33-.18-1.25,1.82-2.04,4.85-3.25,2.73-1.09,6.14-2.45,6.97-4.06,1.63-3.13,1.28-6.83,1.27-6.87-.01-.14.03-.28.13-.39.09-.11.23-.17.37-.17h13.39c.14,0,.28.06.37.17.09.1.14.24.13.38,0,.04-.35,3.74,1.28,6.87.84,1.61,4.24,2.97,6.97,4.06,3.03,1.21,5.03,2.01,4.85,3.25-.36,2.52-8.78,5.33-20.29,5.33ZM275.57,217.81c.04,1.21-.02,4.19-1.42,6.88-1.01,1.94-4.45,3.32-7.49,4.53-1.58.63-4.21,1.68-4.23,2.18.19,1.34,6.99,4.47,19.31,4.47s19.1-3.13,19.3-4.47c-.01-.5-2.65-1.55-4.23-2.18-3.04-1.21-6.48-2.59-7.49-4.53-1.4-2.69-1.46-5.67-1.42-6.88h-12.33ZM301.53,231.48h0,0Z" fill="#732a09" stroke-width="0"></path><circle cx="281.73" cy="206.86" r="14.37" fill="#732a09" stroke-width="0"></circle><path d="M281.73,221.74c-8.2,0-14.87-6.67-14.87-14.87s6.67-14.88,14.87-14.88,14.87,6.67,14.87,14.88-6.67,14.87-14.87,14.87ZM281.73,192.99c-7.65,0-13.87,6.22-13.87,13.88s6.22,13.87,13.87,13.87,13.87-6.22,13.87-13.87-6.22-13.88-13.87-13.88Z" fill="#732a09" stroke-width="0"></path></g></svg>