<svg transform="scale(1)" id="_01052_Uploading_4" xmlns="http://www.w3.org/2000/svg" viewBox="0 0 500 500" class="show_show__wrapper__graphic__5Waiy "><title>React</title><g id="laptop"><path d="M116.49,354.69h261.75c2.43,0,4.76.9,6.56,2.53l61.36,55.71H49.73l62.22-56.49c1.24-1.13,2.86-1.75,4.54-1.75Z" fill="#fff" stroke-width="0"></path><path d="M446.15,413.43H49.73c-.21,0-.39-.13-.47-.32-.07-.19-.02-.41.13-.55l62.22-56.49c1.34-1.21,3.07-1.88,4.87-1.88h261.75c2.56,0,5,.95,6.9,2.66l61.36,55.71c.15.14.21.36.13.55-.07.19-.26.32-.47.32ZM51.02,412.43h393.83l-60.4-54.84c-1.71-1.55-3.92-2.4-6.22-2.4H116.49c-1.56,0-3.05.58-4.2,1.62l-61.26,55.62Z" fill="#732a09" stroke-width="0"></path><polygon points="321.04 412.25 174.84 412.25 182.84 394.78 313.04 394.78 321.04 412.25" fill="#f65454" stroke-width="0"></polygon><polygon points="246.06 361.69 227.49 361.69 226.32 367.01 246.08 367.01 246.06 361.69" fill="#f65454" stroke-width="0"></polygon><polygon points="249.18 367.01 268.73 367.01 267.55 361.69 249.2 361.69 249.18 367.01" fill="#f65454" stroke-width="0"></polygon><polygon points="223.75 378.69 246.13 378.69 246.1 370.37 225.58 370.37 223.75 378.69" fill="#f65454" stroke-width="0"></polygon><polygon points="249.15 378.69 271.32 378.69 269.47 370.37 249.17 370.37 249.15 378.69" fill="#f65454" stroke-width="0"></polygon><polygon points="272.3 367.01 291.4 367.01 289.07 361.69 271.16 361.69 272.3 367.01" fill="#f65454" stroke-width="0"></polygon><polygon points="222.04 370.37 201.97 370.37 198.34 378.69 220.28 378.69 222.04 370.37" fill="#f65454" stroke-width="0"></polygon><polygon points="147.46 378.69 168.52 378.69 173.85 370.37 154.67 370.37 147.46 378.69" fill="#f65454" stroke-width="0"></polygon><polygon points="203.44 367.01 222.75 367.01 223.88 361.69 205.75 361.69 203.44 367.01" fill="#f65454" stroke-width="0"></polygon><polygon points="197.96 370.37 178.33 370.37 172.91 378.69 194.41 378.69 197.96 370.37" fill="#f65454" stroke-width="0"></polygon><polygon points="321.74 378.69 316.3 370.37 296.89 370.37 300.46 378.69 321.74 378.69" fill="#f65454" stroke-width="0"></polygon><polygon points="273.02 370.37 274.8 378.69 296.52 378.69 292.87 370.37 273.02 370.37" fill="#f65454" stroke-width="0"></polygon><polygon points="365.03 367.01 381.4 367.01 375.46 361.69 359.35 361.69 365.03 367.01" fill="#f65454" stroke-width="0"></polygon><polygon points="346.98 378.69 339.75 370.37 320.78 370.37 326.13 378.69 346.98 378.69" fill="#f65454" stroke-width="0"></polygon><polygon points="372.23 378.69 363.22 370.37 344.69 370.37 351.83 378.69 372.23 378.69" fill="#f65454" stroke-width="0"></polygon><polygon points="318.61 367.01 336.82 367.01 332.21 361.69 315.19 361.69 318.61 367.01" fill="#f65454" stroke-width="0"></polygon><polygon points="295.44 367.01 314.1 367.01 310.62 361.69 293.16 361.69 295.44 367.01" fill="#f65454" stroke-width="0"></polygon><polygon points="337.25 361.69 341.81 367.01 359.58 367.01 353.82 361.69 337.25 361.69" fill="#f65454" stroke-width="0"></polygon><polygon points="180.52 367.01 199.39 367.01 201.66 361.69 183.98 361.69 180.52 367.01" fill="#f65454" stroke-width="0"></polygon><polygon points="323.83 381.88 301.82 381.88 304.89 389.02 328.5 389.02 323.83 381.88" fill="#f65454" stroke-width="0"></polygon><polygon points="157.58 367.01 176.01 367.01 179.41 361.69 162.18 361.69 157.58 367.01" fill="#f65454" stroke-width="0"></polygon><polygon points="375.68 381.88 354.56 381.88 360.68 389.02 383.42 389.02 375.68 381.88" fill="#f65454" stroke-width="0"></polygon><polygon points="129.15 367.01 134.82 361.69 120.42 361.69 114.48 367.01 129.15 367.01" fill="#f65454" stroke-width="0"></polygon><polygon points="385.15 370.37 368.63 370.37 377.54 378.69 394.45 378.69 385.15 370.37" fill="#f65454" stroke-width="0"></polygon><polygon points="349.75 381.88 328.19 381.88 332.78 389.02 355.95 389.02 349.75 381.88" fill="#f65454" stroke-width="0"></polygon><polygon points="133.79 389.02 139.89 381.88 118.56 381.88 110.86 389.02 133.79 389.02" fill="#f65454" stroke-width="0"></polygon><polygon points="101.43 378.69 116.69 378.69 125.57 370.37 110.72 370.37 101.43 378.69" fill="#f65454" stroke-width="0"></polygon><polygon points="122 378.69 142.61 378.69 149.72 370.37 130.98 370.37 122 378.69" fill="#f65454" stroke-width="0"></polygon><polygon points="134.61 367.01 152.59 367.01 157.13 361.69 140.34 361.69 134.61 367.01" fill="#f65454" stroke-width="0"></polygon><polygon points="166.48 381.88 144.71 381.88 138.52 389.02 161.9 389.02 166.48 381.88" fill="#f65454" stroke-width="0"></polygon><polygon points="193.05 381.88 170.83 381.88 166.18 389.02 190 389.02 193.05 381.88" fill="#f65454" stroke-width="0"></polygon><polygon points="196.95 381.88 297.92 381.88 301.05 389.02 193.84 389.02 196.95 381.88" fill="#f65454" stroke-width="0"></polygon><path d="M383.79,177.53l-1.74,172.86c-.03,2.39-1.97,4.31-4.36,4.31H118.19c-2.39,0-4.33-1.92-4.36-4.31l-1.74-172.86c-.03-2.43,1.93-4.41,4.36-4.41h262.97c2.43,0,4.39,1.98,4.36,4.41Z" fill="#fff" stroke-width="0"></path><path d="M377.69,355.19H118.19c-2.65,0-4.83-2.16-4.86-4.81l-1.74-172.86c-.02-1.31.48-2.54,1.4-3.47.92-.93,2.15-1.44,3.46-1.44h262.97c1.31,0,2.54.51,3.46,1.44.92.93,1.42,2.17,1.4,3.47l-1.74,172.86c-.03,2.65-2.21,4.81-4.86,4.81ZM116.46,173.61c-1.04,0-2.02.41-2.75,1.15-.73.74-1.13,1.72-1.12,2.76l1.74,172.86c.02,2.1,1.76,3.82,3.86,3.82h259.49c2.11,0,3.84-1.71,3.86-3.82l1.74-172.86h0c.01-1.04-.38-2.02-1.12-2.76-.73-.74-1.71-1.15-2.75-1.15H116.46Z" fill="#732a09" stroke-width="0"></path><polygon points="120.62 347.88 118.93 179.93 376.95 179.93 375.26 347.88 120.62 347.88" fill="#732a09" stroke-width="0"></polygon><path d="M375.26,348.38H120.62c-.27,0-.5-.22-.5-.5l-1.68-167.96c0-.13.05-.26.14-.36.09-.09.22-.15.36-.15h258.01c.13,0,.26.05.36.15.09.09.15.22.14.36l-1.68,167.96c0,.27-.23.5-.5.5ZM121.11,347.38h253.66l1.67-166.96H119.44l1.67,166.96Z" fill="#732a09" stroke-width="0"></path><rect x="49.73" y="412.93" width="396.42" height="8.28" fill="#f65454" stroke-width="0"></rect><path d="M446.15,421.7H49.73c-.28,0-.5-.22-.5-.5v-8.28c0-.28.22-.5.5-.5h396.42c.28,0,.5.22.5.5v8.28c0,.28-.22.5-.5.5ZM50.23,420.7h395.42v-7.28H50.23v7.28Z" fill="#732a09" stroke-width="0"></path></g><g id="loading"><rect x="175.1" y="305.06" width="145.67" height="16.22" rx="8.11" ry="8.11" fill="#fff" stroke-width="0"></rect><path d="M312.67,321.78h-129.46c-4.75,0-8.61-3.86-8.61-8.61s3.86-8.61,8.61-8.61h129.46c4.75,0,8.61,3.86,8.61,8.61s-3.86,8.61-8.61,8.61ZM183.21,305.56c-4.2,0-7.61,3.41-7.61,7.61s3.41,7.61,7.61,7.61h129.46c4.2,0,7.61-3.41,7.61-7.61s-3.41-7.61-7.61-7.61h-129.46Z" fill="#732a09" stroke-width="0"></path><rect x="178.33" y="307.92" width="116.74" height="10.49" rx="5.25" ry="5.25" fill="#f75454" stroke-width="0"></rect><path d="M289.83,318.92h-106.25c-3.17,0-5.75-2.58-5.75-5.75s2.58-5.75,5.75-5.75h106.25c3.17,0,5.75,2.58,5.75,5.75s-2.58,5.75-5.75,5.75ZM183.58,308.42c-2.62,0-4.75,2.13-4.75,4.75s2.13,4.75,4.75,4.75h106.25c2.62,0,4.75-2.13,4.75-4.75s-2.13-4.75-4.75-4.75h-106.25Z" fill="#732a09" stroke-width="0"></path></g><path id="arrow" d="M290.52,250h37.98c-34.17,14.74-75.96,47.45-75.96,47.45,0,0-41.79-32.71-75.95-47.45h37.98s-19.57-131.53-54.96-188.67h185.87c-35.4,57.14-54.96,188.67-54.96,188.67Z" fill="#fff" stroke-width="0"></path><path d="M252.54,297.95c-.11,0-.22-.04-.31-.11-.42-.33-42.13-32.84-75.84-47.38-.22-.09-.34-.33-.29-.56.05-.23.25-.4.49-.4h37.4c-1.47-9.53-21.06-133.42-54.8-187.91-.1-.15-.1-.35-.01-.51.09-.16.26-.26.44-.26h185.87c.18,0,.35.1.44.26.09.16.08.35-.01.51-33.76,54.49-53.34,178.38-54.8,187.91h37.4c.24,0,.44.17.49.4.05.23-.07.47-.29.56-33.72,14.55-75.43,47.06-75.85,47.38-.09.07-.2.11-.31.11ZM178.97,250.5c31.87,14.32,69.77,43.37,73.57,46.32,3.8-2.94,41.71-32,73.58-46.32h-35.6c-.15,0-.28-.06-.38-.17-.1-.11-.14-.26-.12-.4.19-1.31,19.8-131.12,54.56-188.1h-184.08c34.75,56.98,54.37,186.79,54.56,188.1.02.14-.02.29-.12.4-.1.11-.23.17-.38.17h-35.6Z" fill="#732a09" stroke-width="0"></path><g id="video"><rect x="270.87" y="219.91" width="26.61" height="21.57" rx="3.45" ry="3.45" fill="#f75454" stroke-width="0"></rect><path d="M294.04,241.98h-19.72c-2.18,0-3.95-1.77-3.95-3.95v-14.68c0-2.18,1.77-3.95,3.95-3.95h19.72c2.18,0,3.95,1.77,3.95,3.95v14.68c0,2.18-1.77,3.95-3.95,3.95ZM274.32,220.41c-1.62,0-2.95,1.32-2.95,2.95v14.68c0,1.62,1.32,2.95,2.95,2.95h19.72c1.62,0,2.95-1.32,2.95-2.95v-14.68c0-1.62-1.32-2.95-2.95-2.95h-19.72Z" fill="#732a09" stroke-width="0"></path><path d="M297.48,236.67l9.83,3.48c1.82.65,3.74-.71,3.74-2.64v-13.64c0-1.93-1.91-3.29-3.74-2.64l-9.83,3.48v11.95Z" fill="#f75454" stroke-width="0"></path><path d="M308.26,240.82c-.37,0-.75-.06-1.11-.19l-9.83-3.48c-.2-.07-.33-.26-.33-.47v-11.95c0-.21.13-.4.33-.47l9.83-3.48c1.02-.36,2.12-.21,3.01.42.89.63,1.4,1.61,1.4,2.7v13.64c0,1.09-.51,2.07-1.4,2.7-.57.4-1.23.61-1.89.61ZM297.98,236.32l9.49,3.37c.71.25,1.48.15,2.1-.29.62-.44.97-1.12.97-1.88v-13.64c0-.76-.35-1.44-.97-1.88-.62-.44-1.38-.54-2.1-.29l-9.49,3.37v11.25Z" fill="#732a09" stroke-width="0"></path></g><g id="video-2"><rect x="273.66" y="139.52" width="47.64" height="39.61" rx="7.66" ry="7.66" transform="translate(43.63 -63.03) rotate(13.04)" fill="#fff" stroke-width="0"></rect><path d="M310.49,182.97c-.61,0-1.22-.07-1.84-.21h0l-31.5-7.3c-2.12-.49-3.93-1.78-5.08-3.63s-1.52-4.04-1.03-6.16l5.48-23.67c1.02-4.38,5.41-7.12,9.79-6.11l31.5,7.3c4.38,1.01,7.12,5.41,6.11,9.79l-5.48,23.67c-.87,3.76-4.24,6.32-7.95,6.32ZM308.88,181.79c3.84.89,7.7-1.51,8.59-5.36l5.48-23.67c.89-3.84-1.51-7.7-5.36-8.59l-31.5-7.3c-3.85-.89-7.7,1.51-8.59,5.36l-5.48,23.67c-.43,1.86-.11,3.78.9,5.4,1.01,1.62,2.59,2.75,4.46,3.18l31.5,7.3Z" fill="#732a09" stroke-width="0"></path><path d="M290.92,146.17l-5.12,22.1c-.38,1.64,1.15,3.07,2.76,2.6l22.07-6.53c1.63-.48,2.12-2.56.86-3.72l-16.95-15.57c-1.24-1.14-3.24-.52-3.62,1.12Z" fill="#f75454" stroke-width="0"></path><path d="M287.92,171.46c-.67,0-1.33-.25-1.84-.74-.71-.66-1-1.62-.78-2.57l5.12-22.1c.22-.94.9-1.68,1.83-1.96.92-.29,1.9-.07,2.62.59l16.95,15.57c.72.66,1.02,1.63.8,2.59s-.92,1.69-1.86,1.97l-22.07,6.53c-.26.08-.52.11-.77.11ZM293.06,144.97c-.17,0-.34.03-.51.08-.58.18-1.01.64-1.15,1.24l-5.12,22.1c-.14.59.04,1.2.49,1.61.44.42,1.06.56,1.64.39l22.07-6.53c.59-.17,1.03-.64,1.17-1.24.14-.6-.05-1.21-.5-1.63l-16.95-15.57c-.32-.29-.72-.45-1.14-.45ZM290.92,146.17h0,0Z" fill="#732a09" stroke-width="0"></path></g><g id="image"><rect x="303.25" y="70.28" width="47.63" height="49.43" rx="3.41" ry="3.41" transform="translate(29.88 -71.36) rotate(13.04)" fill="#fff" stroke-width="0"></rect><path d="M342.15,124.26c-.3,0-.59-.03-.89-.1l-39.76-9.21c-2.1-.49-3.41-2.59-2.93-4.69l9.62-41.51c.49-2.1,2.59-3.41,4.69-2.93h0l39.76,9.21c2.1.49,3.41,2.59,2.93,4.69l-9.62,41.51c-.24,1.02-.85,1.88-1.74,2.44-.63.39-1.34.59-2.06.59ZM312,66.72c-1.32,0-2.53.91-2.84,2.25l-9.62,41.51c-.36,1.56.62,3.13,2.18,3.49l39.76,9.21c.76.18,1.54.05,2.2-.37.66-.41,1.12-1.06,1.29-1.81l9.62-41.51c.36-1.56-.62-3.13-2.18-3.49l-39.76-9.21c-.22-.05-.44-.08-.66-.08Z" fill="#732a09" stroke-width="0"></path><path d="M320.9,84.89l-16.96,21.78c-.89,1.14-.29,2.83,1.12,3.15l22.62,5.24c1.41.33,2.69-.92,2.39-2.34l-5.66-27.02c-.35-1.65-2.47-2.15-3.51-.81Z" fill="#f75454" stroke-width="0"></path><path d="M328.13,115.62c-.19,0-.38-.02-.56-.06l-22.62-5.24c-.83-.19-1.5-.79-1.78-1.59s-.14-1.68.38-2.36l16.96-21.78c.6-.77,1.57-1.12,2.52-.89.95.22,1.67.95,1.87,1.91l5.66,27.02c.17.83-.08,1.69-.69,2.29-.47.46-1.09.71-1.73.71ZM322.45,84.62c-.45,0-.86.2-1.15.58h0l-16.96,21.78c-.31.4-.4.93-.23,1.41.17.48.57.84,1.06.95l22.62,5.24c.5.12,1.01-.03,1.37-.39.36-.36.52-.87.41-1.37l-5.66-27.02c-.12-.58-.54-1.01-1.12-1.14-.12-.03-.24-.04-.35-.04ZM320.9,84.89h0,0Z" fill="#732a09" stroke-width="0"></path><path d="M336.22,96.86l-11.41,14.65c-.89,1.14-.29,2.83,1.12,3.15l15.21,3.52c1.41.33,2.69-.92,2.39-2.34l-3.81-18.17c-.35-1.65-2.47-2.15-3.51-.81Z" fill="#f75454" stroke-width="0"></path><path d="M341.6,118.74c-.19,0-.38-.02-.57-.07l-15.21-3.52c-.83-.19-1.5-.79-1.78-1.59-.28-.8-.14-1.68.38-2.36l11.41-14.65c.6-.77,1.57-1.12,2.52-.89.95.22,1.67.95,1.87,1.91l3.81,18.17c.17.83-.08,1.69-.69,2.29-.47.46-1.09.71-1.73.71ZM337.77,96.59c-.45,0-.86.2-1.15.58h0l-11.41,14.65c-.31.4-.4.93-.23,1.41.17.48.57.83,1.06.95l15.21,3.52c.5.12,1.01-.03,1.37-.38.36-.36.52-.87.42-1.37l-3.81-18.17c-.12-.58-.54-1.01-1.12-1.14-.12-.03-.24-.04-.35-.04ZM336.22,96.86h0,0Z" fill="#732a09" stroke-width="0"></path><circle cx="335.03" cy="86.53" r="2.46" fill="#fff" stroke-width="0"></circle><path d="M335.03,89.49c-.22,0-.45-.03-.67-.08-1.59-.37-2.58-1.96-2.22-3.55.18-.77.65-1.42,1.32-1.84.67-.42,1.46-.55,2.23-.37,1.59.37,2.58,1.96,2.21,3.55-.18.77-.65,1.42-1.32,1.84-.48.3-1.01.45-1.56.45ZM335.03,84.57c-.89,0-1.7.61-1.91,1.52-.24,1.05.41,2.11,1.47,2.35.51.12,1.04.03,1.48-.25.44-.28.75-.71.87-1.22.24-1.05-.41-2.11-1.47-2.35-.15-.03-.3-.05-.44-.05Z" fill="#732a09" stroke-width="0"></path></g><g id="paper"><polygon points="137.23 51.58 156.56 118.51 212.98 102.21 198.52 52.15 180.37 39.12 137.23 51.58" fill="#fff" stroke-width="0"></polygon><path d="M156.56,119.01c-.22,0-.42-.14-.48-.36l-19.33-66.93c-.04-.13-.02-.26.04-.38.06-.12.17-.2.3-.24l43.14-12.46c.15-.04.31-.01.43.07l18.15,13.04c.09.07.16.16.19.27l14.46,50.06c.04.13.02.26-.04.38-.06.12-.17.2-.3.24l-56.42,16.3s-.09.02-.14.02ZM137.85,51.92l19.05,65.97,55.46-16.02-14.27-49.41-17.81-12.79-42.43,12.26Z" fill="#732a09" stroke-width="0"></path><polygon points="180.37 39.12 185.16 55.7 198.52 52.15 180.37 39.12" fill="#f75454" stroke-width="0"></polygon><path d="M185.16,56.2c-.22,0-.42-.14-.48-.36l-4.79-16.58c-.06-.21.02-.42.19-.55.17-.12.41-.12.58,0l18.15,13.04c.16.11.24.31.2.5-.03.19-.18.34-.36.39l-13.36,3.55s-.09.02-.13.02ZM181.25,40.36l4.25,14.73,11.86-3.15-16.12-11.58Z" fill="#732a09" stroke-width="0"></path><path d="M148.8,62.38c-.22,0-.42-.14-.48-.36-.08-.27.08-.54.34-.62l22.93-6.62c.27-.08.54.08.62.34.08.27-.08.54-.34.62l-22.93,6.62s-.09.02-.14.02Z" fill="#732a09" stroke-width="0"></path><path d="M151.19,70.67c-.22,0-.42-.14-.48-.36-.08-.27.08-.54.34-.62l39.46-11.4c.27-.08.54.08.62.34.08.27-.08.54-.34.62l-39.46,11.4s-.09.02-.14.02Z" fill="#732a09" stroke-width="0"></path><path d="M153.59,78.96c-.22,0-.42-.14-.48-.36-.08-.27.08-.54.34-.62l39.46-11.4c.27-.08.54.08.62.34.08.27-.08.54-.34.62l-39.46,11.4s-.09.02-.14.02Z" fill="#732a09" stroke-width="0"></path><path d="M155.98,87.25c-.22,0-.42-.14-.48-.36-.08-.27.08-.54.34-.62l39.46-11.4c.27-.08.54.08.62.34.08.27-.08.54-.34.62l-39.46,11.4s-.09.02-.14.02Z" fill="#732a09" stroke-width="0"></path><path d="M158.37,95.53c-.22,0-.42-.14-.48-.36-.08-.27.08-.54.34-.62l39.46-11.4c.27-.08.54.08.62.34.08.27-.08.54-.34.62l-39.46,11.4s-.09.02-.14.02Z" fill="#732a09" stroke-width="0"></path><path d="M160.77,103.82c-.22,0-.42-.14-.48-.36-.08-.27.08-.54.34-.62l39.46-11.4c.27-.08.54.08.62.34.08.27-.08.54-.34.62l-39.46,11.4s-.09.02-.14.02Z" fill="#732a09" stroke-width="0"></path></g><g id="mail"><path d="M171.96,190.03s-9.18-38.69-8.88-40.16,63.92-15.5,65.39-15.2,8.81,36.21,8.93,38.75-65.43,16.61-65.43,16.61Z" fill="#fff" stroke-width="0"></path><path d="M171.96,190.53c-.23,0-.43-.16-.49-.38-1.54-6.48-9.19-38.88-8.89-40.38.1-.49.27-1.32,32.63-8.65,10.41-2.36,32.27-7.16,33.34-6.94,2.24.46,9.31,38.84,9.33,39.22.03.73.13,2.97-65.82,17.12-.04,0-.07.01-.11.01ZM163.57,150.1c.15,2.34,5.23,24.41,8.77,39.33,25.06-5.39,62.33-13.99,64.55-16.12-.29-3.07-6.98-35.74-8.61-38.16-1.54.12-15.35,2.98-32.35,6.82-18.24,4.13-30.78,7.28-32.35,8.12Z" fill="#732a09" stroke-width="0"></path><path d="M201.37,163.98c-6.08,0-35.04-12.19-38.49-13.65-.25-.11-.37-.4-.27-.66.11-.25.4-.37.66-.26,14.15,5.99,36.1,14.55,38.51,13.53,2.77-1.16,19.93-21.04,26.3-28.59.18-.21.49-.24.7-.06.21.18.24.49.06.7-.94,1.12-23.12,27.38-26.68,28.87-.19.08-.45.12-.79.12Z" fill="#732a09" stroke-width="0"></path><path d="M237.39,173.92c-.07,0-.14-.01-.2-.04l-31.09-13.8c-.25-.11-.37-.41-.25-.66.11-.25.41-.37.66-.25l31.09,13.8c.25.11.37.41.25.66-.08.19-.27.3-.46.3Z" fill="#732a09" stroke-width="0"></path><path d="M171.96,190.53c-.11,0-.22-.04-.31-.11-.22-.17-.25-.49-.08-.7l22.24-28.2c.17-.22.49-.25.7-.08.22.17.25.49.08.7l-22.24,28.2c-.1.12-.25.19-.39.19Z" fill="#732a09" stroke-width="0"></path></g></svg>