<svg transform="scale(1)" version="1.1" id="_0091_workflow_2_1_" xmlns="http://www.w3.org/2000/svg" xmlns:xlink="http://www.w3.org/1999/xlink" x="0px" y="0px" viewBox="0 0 500 500" xml:space="preserve" class="show_show__wrapper__graphic__5Waiy "><title>React</title><style type="text/css">
	.st0{fill:#FFFFFF;}
	.st1{fill:#732A09;}
	.st2{fill:#F75454;}
	.st3{fill:#732A09;stroke:#732A09;stroke-linecap:round;stroke-linejoin:round;}
	.st4{fill:#FFFFFF;stroke:#732A09;stroke-linecap:round;stroke-linejoin:round;}
</style><g id="floor"><polygon class="st0" points="420.8,226.6 275.3,292.8 114.7,252.3 264.9,184.2 	"></polygon><path class="st1" d="M275.3,293.3c0,0-0.1,0-0.1,0l-160.6-40.5c-0.2-0.1-0.4-0.2-0.4-0.4c0-0.2,0.1-0.4,0.3-0.5l150.2-68.1
		c0.1,0,0.2,0,0.3,0l155.9,42.3c0.2,0.1,0.3,0.2,0.4,0.4c0,0.2-0.1,0.4-0.3,0.5l-145.5,66.2C275.4,293.3,275.3,293.3,275.3,293.3z
		 M116.2,252.2l159,40.1l144.1-65.6l-154.4-41.9L116.2,252.2z"></path></g><g id="character-3-3"><path class="st0" d="M322.9,179.5l0.9,48.6c0,0.9-0.7,1.6-1.6,1.6c0,0,0,0,0,0l0,0c-0.9,0-1.5-0.7-1.6-1.5l-1.4-47.6L322.9,179.5z"></path><path class="st1" d="M322.2,230.1c-1.1,0-2-0.9-2.1-2l-1.4-47.6c0-0.2,0.1-0.4,0.4-0.5l3.7-1c0.2,0,0.3,0,0.4,0.1
		c0.1,0.1,0.2,0.2,0.2,0.4l0.9,48.6C324.3,229.2,323.4,230.2,322.2,230.1C322.2,230.2,322.2,230.2,322.2,230.1L322.2,230.1z
		 M319.8,180.9l1.4,47.2c0,0.6,0.5,1,1.1,1c0.3,0,0.6-0.1,0.8-0.3c0.2-0.2,0.3-0.5,0.3-0.8l-0.8-47.9L319.8,180.9z"></path><path class="st0" d="M296.2,180.3l0.9,48.6c0,0.9-0.7,1.6-1.6,1.6c0,0,0,0,0,0l0,0c-0.9,0-1.5-0.7-1.6-1.5l-1.4-47.6L296.2,180.3z"></path><path class="st1" d="M295.5,231c-1.1,0-2-0.9-2.1-2l-1.4-47.6c0-0.2,0.1-0.4,0.4-0.5l3.7-1c0.3-0.1,0.5,0.1,0.6,0.3
		c0,0,0,0.1,0,0.1l0.9,48.6c0,0.6-0.2,1.1-0.6,1.5C296.6,230.8,296,231,295.5,231z M293.1,181.8l1.4,47.2c0,0.6,0.5,1,1.1,1
		c0.3,0,0.6-0.1,0.8-0.3c0.2-0.2,0.3-0.5,0.3-0.8l-0.8-47.9L293.1,181.8z"></path><path class="st0" d="M282.5,199.6c9,2.6,18.7,1.6,28-5.8s16.9-10.5,13.7-25.4S282.5,199.6,282.5,199.6z"></path><path class="st1" d="M291.4,201.4c-3,0-6.1-0.5-9-1.3c-0.2,0-0.3-0.2-0.3-0.3c-0.1-0.2,0-0.3,0.1-0.5c1.2-1.5,30.7-36.6,40-34.3
		c1.4,0.4,2.3,1.4,2.7,3.2c2.8,13.2-2.7,17.4-10.3,23.1c-1.1,0.9-2.4,1.8-3.6,2.8C304.8,199,298.2,201.4,291.4,201.4z M283.4,199.3
		c9.6,2.6,18.7,0.6,26.8-5.9c1.2-1,2.5-1.9,3.6-2.8c7.6-5.7,12.6-9.5,9.9-22.1c-0.3-1.4-0.9-2.2-1.9-2.5c-2.5-0.6-8.4,1.7-22.6,16.1
		C291.8,189.5,285.2,197.2,283.4,199.3L283.4,199.3z"></path><path class="st2" d="M304.2,107.6c6.8-2.4,23.5,2.2,23.7,25.2s-0.8,42-9.3,52.3c-8.1,9.6-20.3,14.5-32.8,13.2
		c-10.8-1.4-10.1-44.2-10.1-44.2L304.2,107.6z"></path><path class="st0" d="M213.5,147v73.7c0,2,1.3,3.7,3.1,4.4l0.6,0.2c1.2,0.4,2.5,0.3,3.7-0.3l0,0c1.5-0.8,2.4-2.3,2.4-4v-72.5
		L213.5,147z"></path><path class="st1" d="M218.7,226c-0.5,0-1.1-0.1-1.6-0.2l-0.6-0.2c-2.1-0.7-3.5-2.6-3.5-4.8V147c0-0.3,0.2-0.5,0.5-0.5
		c0,0,0.1,0,0.1,0l9.8,1.4c0.2,0,0.4,0.2,0.4,0.5v72.4C223.8,223.7,221.5,225.9,218.7,226C218.7,226,218.7,225.9,218.7,226
		L218.7,226z M214,147.6v73.1c0,1.8,1.1,3.3,2.8,3.9l0.6,0.2c1.1,0.4,2.3,0.2,3.3-0.3c1.3-0.7,2.1-2.1,2.1-3.6v-72L214,147.6z"></path><path class="st2" d="M301.7,217.4l13.3,6.8c0.9,0.5,1.3,1.6,0.8,2.5l-12.3,24.6c-0.5,0.9-1.6,1.3-2.6,0.8c-0.1,0-0.2-0.1-0.2-0.1
		l-0.5-0.4c0,0-10.9-7.2-5.5-19.8C298.1,227.6,300.5,222.7,301.7,217.4z"></path><path class="st1" d="M300.2,251.7c-0.1,0-0.2,0-0.2-0.1c-0.2-0.1-0.4-0.4-0.2-0.7c0,0,0,0,0,0l13.6-27.3c0.1-0.2,0.4-0.3,0.7-0.2
		c0.2,0.1,0.3,0.4,0.2,0.7l-13.6,27.3C300.5,251.6,300.4,251.7,300.2,251.7z"></path><path class="st1" d="M310.5,231c-0.1,0-0.2,0-0.3-0.1c-3.6-2.3-4.9-6.9-3-10.7c0.1-0.3,0.4-0.4,0.7-0.3c0.3,0.1,0.4,0.4,0.3,0.7
		c0,0,0,0,0,0c-1.7,3.3-0.6,7.4,2.6,9.4c0.2,0.1,0.3,0.4,0.2,0.7C310.8,230.9,310.7,231,310.5,231z"></path><path class="st1" d="M290.7,240.5c-0.2,0-0.4-0.1-0.5-0.3c-0.1-0.3,0-0.5,0.3-0.6l7.8-3.2c0.3-0.1,0.5,0,0.7,0.3c0,0,0,0,0,0
		c0.1,0.3,0,0.5-0.3,0.6l-7.8,3.2C290.8,240.5,290.8,240.5,290.7,240.5z"></path><path class="st1" d="M291,237.2c-0.2,0-0.4-0.1-0.5-0.3c-0.1-0.3,0-0.5,0.3-0.6l7.8-3.2c0.2-0.1,0.5,0,0.6,0.3c0,0,0,0,0,0
		c0.1,0.3,0,0.5-0.3,0.6l-7.8,3.2C291.1,237.2,291.1,237.2,291,237.2z"></path><path class="st2" d="M213.4,238.8l-10.7,12.6c-0.7,0.9-2.1,1-2.9,0.2l-23.3-19.5c-0.9-0.7-1-2.1-0.3-2.9c0.1-0.1,0.1-0.1,0.2-0.2
		l0.5-0.5c0,0,10.5-9.9,22.7-0.9C199.7,227.6,204.1,234,213.4,238.8z"></path><path class="st1" d="M203.4,250.6c-0.1,0-0.2,0-0.3-0.1l-25.8-21.6c-0.2-0.2-0.2-0.5-0.1-0.7c0.2-0.2,0.5-0.2,0.7-0.1l25.8,21.6
		c0.2,0.2,0.2,0.5,0.1,0.7C203.7,250.6,203.5,250.6,203.4,250.6z"></path><path class="st1" d="M197.1,245.4c-0.1,0-0.3-0.1-0.3-0.1c-0.2-0.2-0.2-0.5,0-0.7c0,0,0,0,0,0c3.3-3.2,8.6-3.4,12.1-0.4
		c0.2,0.2,0.3,0.5,0.1,0.7c0,0,0,0,0,0c-0.2,0.2-0.5,0.3-0.7,0.1c-6-4.5-10.6,0.1-10.8,0.3C197.4,245.4,197.3,245.4,197.1,245.4z"></path><path class="st1" d="M193.4,230.9c-0.2,0-0.5-0.2-0.5-0.4l-1.4-9.2c0-0.3,0.1-0.5,0.4-0.6s0.5,0.1,0.6,0.4l1.4,9.2
		c0,0.3-0.1,0.5-0.4,0.6C193.5,230.8,193.5,230.8,193.4,230.9L193.4,230.9z"></path><path class="st1" d="M196.9,232.1c-0.2,0-0.5-0.2-0.5-0.4l-1.4-9.2c0-0.3,0.1-0.5,0.4-0.6c0,0,0,0,0,0c0.3,0,0.5,0.1,0.6,0.4
		l1.4,9.2c0,0.3-0.1,0.5-0.4,0.6L196.9,232.1z"></path><path class="st0" d="M255.2,203.6c-0.6,0.4-29.6,25.6-36.8,31.9c-1,0.9-2.4,1.2-3.7,0.8l-0.9-0.3c-5-1.5-9.2-5.1-11.3-9.8l0,0
		c-0.6-1.4-0.4-3.1,0.6-4.3l28.5-32.7l24.5,5.6L255.2,203.6z"></path><path class="st1" d="M215.8,237c-0.4,0-0.9-0.1-1.3-0.2l-0.9-0.3c-5.1-1.5-9.4-5.2-11.6-10.1c-0.7-1.6-0.5-3.5,0.7-4.8l28.4-32.7
		c0.1-0.1,0.3-0.2,0.5-0.2l24.4,5.6c0.2,0.1,0.4,0.3,0.4,0.5l-0.7,8.8c0,0.2-0.1,0.3-0.2,0.4c-0.7,0.5-20.3,17.5-36.8,31.9
		C217.9,236.6,216.9,237,215.8,237z M231.7,189.9l-28.3,32.5c-0.9,1-1.1,2.5-0.5,3.7c2.1,4.6,6.1,8.1,11,9.6l0.9,0.3
		c1.1,0.3,2.4,0.1,3.3-0.7c8.1-7.1,34-29.6,36.7-31.8l0.7-8.1L231.7,189.9z M255.2,203.6L255.2,203.6z"></path><path class="st0" d="M305.8,171.6c3.3,10.8-8.2,22.2-24.7,34l18.9,9.8c1.6,0.8,2.7,2.5,2.9,4.3l0,0c0.3,4-1,7.9-3.5,10.9l-0.9,1
		c-1.6,1.9-4.2,2.4-6.4,1.3c-9-4.5-31.3-15.8-31.5-16.6c-0.2-1.1-3.8-24.2-3.8-24.2L305.8,171.6z"></path><path class="st1" d="M294.4,234c-0.9,0-1.8-0.2-2.6-0.6c-31.5-15.8-31.7-16.6-31.8-17c-0.2-1.1-3.7-23.3-3.9-24.2
		c0-0.2,0.1-0.4,0.3-0.5l49.1-20.5c0.1-0.1,0.3-0.1,0.4,0c0.1,0.1,0.2,0.2,0.3,0.3c3.7,11.9-10,23.9-24.2,34.1l18.2,9.4
		c1.8,0.9,3,2.7,3.1,4.7c0.3,4.1-1,8.1-3.7,11.2l-0.9,1C297.7,233.2,296.1,234,294.4,234z M261,216.1c1.1,1,13,7.3,31.2,16.4
		c2,1,4.4,0.5,5.8-1.2l0.9-1c2.5-2.9,3.7-6.7,3.4-10.5c-0.1-1.7-1.1-3.2-2.6-3.9l-19-9.8c-0.2-0.1-0.3-0.2-0.3-0.4
		c0-0.2,0.1-0.3,0.2-0.4c19.4-13.8,27-24,24.7-32.9l-48.2,20.1C257.7,195.3,260.7,214.2,261,216.1z"></path><path class="st0" d="M252.6,196.8v73.7c0,2,1.3,3.7,3.1,4.4l0.6,0.2c1.2,0.4,2.5,0.3,3.7-0.3l0,0c1.5-0.8,2.4-2.3,2.4-4v-72.4
		L252.6,196.8z"></path><path class="st1" d="M257.8,275.8c-0.5,0-1.1-0.1-1.6-0.2l-0.6-0.2c-2.1-0.7-3.5-2.6-3.5-4.8v-73.7c0-0.1,0.1-0.3,0.2-0.4
		c0.1-0.1,0.3-0.1,0.4-0.1l9.8,1.4c0.2,0,0.4,0.2,0.4,0.5v72.4C262.9,273.5,260.6,275.8,257.8,275.8
		C257.8,275.8,257.8,275.8,257.8,275.8L257.8,275.8z M253.1,197.4v73.1c0,1.8,1.1,3.3,2.8,3.9l0.6,0.2c1.1,0.4,2.3,0.2,3.3-0.3
		c1.3-0.7,2.1-2.1,2.1-3.6v-72L253.1,197.4z"></path><path class="st0" d="M307.5,174v73.7c0,2,1.3,3.7,3.1,4.4l0.6,0.2c1.2,0.4,2.5,0.3,3.7-0.3l0,0c1.5-0.8,2.4-2.3,2.4-4v-72.4
		L307.5,174z"></path><path class="st1" d="M312.7,253c-0.5,0-1.1-0.1-1.6-0.3l-0.6-0.2c-2.1-0.7-3.5-2.6-3.5-4.8V174c0-0.1,0.1-0.3,0.2-0.4
		c0.1-0.1,0.3-0.1,0.4-0.1l9.8,1.4c0.2,0,0.4,0.3,0.4,0.5v72.4c0,1.9-1,3.6-2.6,4.5C314.4,252.8,313.5,253,312.7,253z M308,174.6
		v73.1c0,1.8,1.1,3.3,2.8,3.9l0.6,0.2c2.1,0.7,4.5-0.5,5.2-2.6c0.1-0.4,0.2-0.9,0.2-1.3v-72L308,174.6z"></path><path class="st0" d="M170,174v73.7c0,2,1.3,3.7,3.2,4.4l0.6,0.2c1.2,0.4,2.5,0.3,3.7-0.3l0,0c1.5-0.8,2.4-2.3,2.4-4v-72.4L170,174z
		"></path><path class="st1" d="M175.2,253c-0.5,0-1.1-0.1-1.6-0.3l-0.6-0.2c-2.1-0.7-3.5-2.6-3.5-4.8V174c0-0.1,0.1-0.3,0.2-0.4
		c0.1-0.1,0.3-0.1,0.4-0.1l9.8,1.4c0.2,0,0.4,0.3,0.4,0.5v72.4c0,1.9-1,3.6-2.6,4.5C176.9,252.8,176,253,175.2,253z M170.5,174.6
		v73.1c0,1.8,1.1,3.3,2.8,3.9l0.6,0.2c2.1,0.7,4.5-0.4,5.2-2.6c0.1-0.4,0.2-0.9,0.2-1.3v-72L170.5,174.6z"></path><polygon class="st0" points="285.5,160.3 319.3,169.6 263.3,193.8 163.7,168.1 222.1,143 	"></polygon><path class="st1" d="M263.3,194.3h-0.1l-99.6-25.6c-0.2-0.1-0.4-0.2-0.4-0.4c0-0.2,0.1-0.4,0.3-0.5l58.4-25.1c0.1,0,0.2,0,0.3,0
		l63.3,17.3l0,0l33.8,9.3c0.3,0.1,0.4,0.4,0.3,0.6c0,0.1-0.1,0.3-0.3,0.3l-56,24.2C263.4,194.3,263.4,194.3,263.3,194.3z M165.2,168
		l98,25.2l54.5-23.5l-32.4-8.9l-63.1-17.3L165.2,168z"></path><polygon class="st0" points="260.6,160.9 273.8,164.6 251.9,174 212.9,164 235.8,154.1 	"></polygon><path class="st1" d="M251.9,174.5h-0.1l-39-10c-0.2,0-0.4-0.2-0.4-0.4c0-0.2,0.1-0.4,0.3-0.5l22.9-9.9c0.1,0,0.2,0,0.3,0l24.8,6.8
		l0,0l13.2,3.7c0.2,0.1,0.3,0.2,0.4,0.4c0,0.2-0.1,0.4-0.3,0.5l-21.9,9.5C252,174.6,252,174.5,251.9,174.5z M214.4,163.9l37.4,9.6
		l20.5-8.8l-11.9-3.3l-24.6-6.7L214.4,163.9z"></path><path class="st0" d="M271.3,121.3c-6-3.8-7.8-16.1-7.8-16.1l-8-18.5c-2.2-2.5-3.2-5.7-2.8-9c0.5-5.8,6.1-8.9,10.5-6.7
		c0,0,13.5-6.7,21.8,5.1s2.2,16.1,11.2,21.3s9.8,7.1,11.3,11.4s6.6,3.4,10.7,6s12.7,13-11.5,19.7S271.3,121.3,271.3,121.3z"></path><path class="st1" d="M296.9,136.5c-6.2,0-12.3-1.9-17.4-5.6c-3.5-2.5-6.4-5.6-8.6-9.2c-5.9-3.9-7.8-15.2-7.9-16.3L255,87
		c-2.3-2.5-3.3-5.9-2.9-9.3c0.2-2.9,1.8-5.5,4.3-6.9c2-1.1,4.5-1.2,6.6-0.3c1.9-0.8,14.3-5.8,22.1,5.4c2.7,3.7,4.6,8,5.3,12.6
		c0.7,3.5,1.2,5.9,5.8,8.5c9,5.1,10,7.2,11.5,11.7c0.8,2.4,2.9,3,5.5,3.7c1.8,0.4,3.4,1.1,5,2c2.2,1.4,5.7,5,5,9.2
		c-0.7,4.7-6.3,8.5-16.7,11.4C303.5,136,300.2,136.5,296.9,136.5z M260.1,70.8c-1.1,0-2.2,0.3-3.1,0.8c-2.2,1.3-3.7,3.6-3.8,6.1
		c-0.4,3.1,0.6,6.2,2.6,8.6c0.1,0,0.1,0.1,0.1,0.2l8,18.5c0,0,0,0.1,0,0.1c0,0.1,1.9,12.1,7.6,15.8c0.1,0,0.1,0.1,0.2,0.2
		c0.1,0.2,11.2,19.6,34.7,13c9.8-2.7,15.3-6.4,16-10.6c0.6-3.7-2.8-7-4.6-8.2c-1.5-0.9-3.1-1.5-4.7-1.9c-2.6-0.8-5.1-1.5-6.1-4.4
		c-1.4-4.1-2-6-11-11.1c-5-2.9-5.5-5.5-6.2-9.2c-0.7-4.4-2.5-8.6-5.1-12.2c-7.9-11.3-21-5-21.1-5c-0.1,0.1-0.3,0.1-0.5,0
		C262.1,71,261.1,70.8,260.1,70.8z"></path><path class="st2" d="M276.4,160.9c2,2.1,5.1,2.1,9.5-1l24.7,6.8c1.6-8.7,2.1-17.5,1.5-26.4c-1.1-13.3-6.2-27.9-15.9-32.2
		s-30.6-4.5-37.5,0s-10.5,18.4-12.2,24.6c-1.7,6.1-8.4,13.4-13.7,16.2s7.9,11.1,7.9,11.1s10.7-4.4,12.9-10.3l0.2,1.4l23.4,6.4
		L276.4,160.9z"></path><path class="st1" d="M254.4,144.6c-0.3,0-0.5-0.2-0.5-0.5c0-0.8-1.2-19.8,0-27.3c0-0.3,0.3-0.5,0.6-0.4c0,0,0,0,0,0
		c0.3,0,0.5,0.3,0.4,0.6c0,0,0,0,0,0c-1.2,7.4,0,26.9,0,27.1C254.9,144.3,254.7,144.5,254.4,144.6
		C254.4,144.5,254.4,144.5,254.4,144.6L254.4,144.6z"></path><path class="st1" d="M287.8,158.9c-0.2,0-0.4-0.1-0.5-0.4c-0.1-0.3,0.1-0.5,0.3-0.6c7-2.3,19.6-7.6,22.3-12.6
		c0.1-0.2,0.4-0.3,0.7-0.2c0,0,0,0,0,0c0.2,0.1,0.3,0.4,0.2,0.7c-3.4,6.5-20.9,12.5-22.8,13.1C287.9,158.9,287.8,158.9,287.8,158.9z
		"></path><path class="st1" d="M271.9,154.2h-0.1c-0.3-0.1-0.4-0.3-0.4-0.6l0.2-1.2c0.2-1.1,0.9-2,1.9-2.5l20.7-10.3
		c-0.4-2.8-2.8-20.1,0.1-25.5c0.2-0.2,0.5-0.3,0.7-0.1c0.2,0.1,0.3,0.4,0.2,0.6c-2.9,5.5,0,25.1,0,25.3c0,0.2-0.1,0.4-0.3,0.5
		l-21,10.5c-0.7,0.4-1.2,1-1.4,1.8l-0.2,1.2C272.4,154.1,272.2,154.2,271.9,154.2z"></path><polygon class="st0" points="223.1,141.9 236.4,145.5 251.9,174 212.9,164 198.3,135.1 	"></polygon><path class="st1" d="M251.9,174.5h-0.1l-39-10c-0.1,0-0.3-0.1-0.3-0.3l-14.6-28.9c-0.1-0.2-0.1-0.4,0.1-0.5
		c0.1-0.2,0.3-0.2,0.5-0.2l24.8,6.8l0,0l13.2,3.6c0.1,0,0.2,0.1,0.3,0.2l15.5,28.5c0.1,0.2,0.1,0.4,0,0.6
		C252.2,174.4,252.1,174.5,251.9,174.5z M213.2,163.5l37.7,9.7L236,145.9l-13-3.6l-23.7-6.5L213.2,163.5z"></path><polygon class="st2" points="212.9,164 212.9,166.4 251.9,176.4 273.8,167 273.8,164.6 251.9,174 	"></polygon><path class="st1" d="M251.9,176.9h-0.1l-39-10c-0.2-0.1-0.4-0.3-0.4-0.5V164c0-0.2,0.1-0.3,0.2-0.4c0.1-0.1,0.3-0.1,0.4-0.1
		l38.8,10l21.8-9.4c0.1-0.1,0.3-0.1,0.5,0c0.1,0.1,0.2,0.2,0.2,0.4v2.5c0,0.2-0.1,0.4-0.3,0.4l-21.9,9.5
		C252,176.9,252,176.9,251.9,176.9z M213.4,166l38.4,9.9l21.5-9.3v-1.3l-21.2,9.2c-0.1,0-0.2,0-0.3,0l-38.4-9.9V166z"></path><path class="st0" d="M271.9,153.7c-5.4,0.4-9.4-1.7-11.2-1.7s-1.1,3.8,2,4.9c-2.6,0.6-5.1,1.9-7.1,3.7c-2.8,2.7-3.1,5.4-1.7,6
		s2.9-3.2,4.7-4.4c1.5-0.9,3.1-1.5,4.8-2c-1.7,1.4-3.2,2.9-4.6,4.6c-1.9,2.6-1.3,5.1,0.3,4.9s2.6-4,4.9-5.7c1-0.9,2.1-1.5,3.3-1.8
		c0,0-3.4,2.9-4.3,6.3s1.5,3.8,2.6,2.1s2.3-5.7,3.5-6.3s0,2.8,0.3,4.9s2.1,2.4,2.4,0c0.2-1.9,1-3.8,2.2-5.3c0.8-0.8,5-2.5,5.5-4
		C279.6,159.9,276.9,151.8,271.9,153.7z"></path><path class="st1" d="M264.2,172.1c-0.2,0-0.4,0-0.6-0.1c-0.4-0.2-1.6-0.9-0.9-3.6c0.5-1.7,1.3-3.2,2.5-4.5
		c-0.2,0.2-0.5,0.3-0.7,0.5c-1,0.9-1.8,1.9-2.4,3.1c-0.9,1.4-1.6,2.6-2.6,2.7c-0.7,0.1-1.4-0.2-1.7-0.8c-0.6-1-0.5-2.9,0.9-4.8
		c0.8-1.1,1.7-2.1,2.7-3c-0.8,0.3-1.6,0.7-2.3,1.1c-0.8,0.6-1.5,1.4-2,2.2c-1,1.4-2,2.8-3.2,2.3c-0.6-0.2-1-0.8-1.1-1.4
		c-0.3-1.5,0.7-3.6,2.6-5.4c1.8-1.6,3.8-2.8,6.1-3.4c-1.4-0.9-2.2-2.4-2.1-4.1c0.1-0.7,0.7-1.3,1.4-1.2c0.9,0.1,1.8,0.3,2.7,0.6
		c2.7,0.9,5.6,1.3,8.4,1.1c1.1-0.4,2.4-0.4,3.5,0.1c3.1,1.4,4.8,6.2,4.8,6.4c0,0.1,0,0.2,0,0.3c-0.4,1.2-2.3,2.3-4,3.2
		c-0.6,0.3-1.1,0.6-1.6,1c-1.2,1.4-1.9,3.2-2.1,5c-0.2,1.5-1,2.1-1.6,2.1l0,0c-0.7,0-1.6-0.7-1.7-2.1c-0.1-1,0-1.9,0.1-2.9
		c0.1-0.5,0.1-1.1,0.1-1.5c-0.8,1-1.4,2.1-1.9,3.3c-0.4,0.9-0.8,1.8-1.3,2.6C265.7,171.6,265,172,264.2,172.1z M267.4,161.7
		c0.2,0,0.4,0.1,0.5,0.3c0.1,0.2,0,0.4-0.1,0.6c0,0-3.3,2.8-4.1,6.1c-0.4,1.5-0.1,2.2,0.3,2.4s0.9-0.1,1.4-0.8
		c0.5-0.8,0.9-1.7,1.2-2.5c0.8-1.8,1.5-3.5,2.5-3.9c0.3-0.2,0.6-0.2,0.9,0c0.5,0.4,0.4,1.3,0.2,2.6c-0.1,0.9-0.2,1.8-0.1,2.7
		c0.1,0.9,0.5,1.2,0.7,1.2l0,0c0.2,0,0.5-0.4,0.6-1.2c0.2-2.1,1-4,2.4-5.6c0.6-0.4,1.2-0.8,1.8-1.1c1.2-0.7,3-1.7,3.5-2.5
		c-0.3-0.9-1.8-4.5-4.2-5.7c-0.9-0.4-1.9-0.4-2.8-0.1H272c-3,0.2-6-0.2-8.8-1.2c-0.8-0.3-1.6-0.4-2.4-0.5c-0.2,0-0.4,0.1-0.5,0.4
		c-0.2,1,0.7,2.8,2.6,3.6c0.2,0.1,0.3,0.3,0.3,0.5c0,0.2-0.2,0.4-0.4,0.4c-2.5,0.6-4.9,1.8-6.9,3.5c-1.9,1.8-2.5,3.6-2.3,4.5
		c0,0.3,0.2,0.6,0.5,0.7c0.5,0.2,1.3-0.9,2.1-1.9c0.6-0.9,1.4-1.8,2.2-2.4c1.5-0.9,3.2-1.6,4.9-2.1c0.2-0.1,0.5,0,0.6,0.2
		c0.1,0.2,0,0.5-0.1,0.6c-1.7,1.3-3.2,2.8-4.5,4.5c-1.1,1.5-1.3,3-0.9,3.7c0.1,0.3,0.4,0.4,0.7,0.3c0.6-0.1,1.3-1.2,2-2.3
		c0.7-1.3,1.6-2.4,2.7-3.3C264.8,162.6,266,162,267.4,161.7L267.4,161.7z M271.9,153.7L271.9,153.7z"></path><path class="st0" d="M271.4,104.8c0,0,0.6,4.7-0.3,7.9l10.5-1.6L279,99.9L271.4,104.8z"></path><path class="st1" d="M271,113.2c-0.3,0-0.5-0.2-0.5-0.5c0,0,0-0.1,0-0.1c0.9-3,0.3-7.6,0.3-7.7c0-0.2,0.1-0.4,0.2-0.5l7.6-5
		c0.1-0.1,0.3-0.1,0.5,0c0.2,0.1,0.3,0.2,0.3,0.3L282,111c0,0.1,0,0.3-0.1,0.4c-0.1,0.1-0.2,0.2-0.3,0.2l-10.5,1.6H271z
		 M271.9,105.1c0.2,2.3,0.2,4.7-0.2,7l9.2-1.4l-2.3-10L271.9,105.1z"></path><path class="st0" d="M257.2,80.8c0,0-6,12.6,0.3,22.3s22.7,2.3,22.9-7.1c0,0,4.5,0.1,4.2-3.2c-0.2-2.7-2.3-4-4.1-3
		c-0.8,0.5-1.4,1.3-1.5,2.3l-0.5,2.8l-2.7-6.2c0,0-6.6-0.5-10.2-3.9C262.4,84.5,259.4,83.1,257.2,80.8z"></path><path class="st1" d="M266.2,108.1c-3.6,0.1-7.1-1.7-9.1-4.8c-6.4-9.8-0.6-22.3-0.3-22.8c0.1-0.1,0.2-0.3,0.4-0.3
		c0.2,0,0.3,0,0.5,0.2c2.1,2.2,4.9,3.6,8,3.7c0.1,0,0.2,0.1,0.3,0.1c3.5,3.2,9.9,3.8,9.9,3.8c0.2,0,0.4,0.1,0.4,0.3l2,4.6l0.2-1.2
		c0.2-1.1,0.8-2,1.7-2.6c0.9-0.5,2-0.5,2.9,0c1.2,0.7,2,2,2,3.4c0.1,0.9-0.2,1.8-0.8,2.4c-1,0.8-2.2,1.3-3.5,1.3
		c-0.4,5.4-5.6,9.6-10.6,11.1C268.9,107.9,267.6,108.1,266.2,108.1z M257.4,81.6c-1.1,2.7-4.7,13.1,0.5,21.1c2.5,3.8,7,5.2,12.1,3.8
		c4.9-1.4,9.9-5.5,10-10.6c0-0.1,0.1-0.3,0.2-0.3c0.1-0.1,0.2-0.1,0.4-0.1c0,0,2.2,0,3.2-1.1c0.4-0.4,0.6-1.1,0.5-1.7
		c0-1.1-0.6-2-1.5-2.6c-0.6-0.3-1.3-0.3-1.9,0c-0.7,0.4-1.1,1.1-1.2,1.9l-0.5,2.8c0,0.3-0.3,0.5-0.6,0.4c-0.2,0-0.3-0.1-0.4-0.3
		l-2.6-6c-1.4-0.1-6.8-0.9-10.1-3.9C262.4,84.9,259.6,83.7,257.4,81.6z"></path><path class="st1" d="M261.2,88c0.4-0.4,0.8-0.7,1.3-0.9c0.5-0.2,1-0.4,1.5-0.5c1-0.2,2.1-0.1,3.1,0.3c0.3,0.1,0.4,0.4,0.3,0.7
		c0,0,0,0,0,0c-0.1,0.2-0.2,0.3-0.4,0.3l0,0c-0.9,0.2-1.8,0.3-2.6,0.4c-0.4,0.1-0.9,0.2-1.3,0.2l-1.3,0.3h-0.1
		c-0.3,0.1-0.5-0.1-0.6-0.4C261.1,88.3,261.1,88.1,261.2,88L261.2,88z"></path><path class="st1" d="M253.7,88.7c0.3-0.3,0.7-0.6,1.1-0.8c0.4-0.2,0.8-0.3,1.2-0.3c0.9-0.1,1.7,0.1,2.4,0.7
		c0.2,0.2,0.3,0.5,0.1,0.7c-0.1,0.1-0.2,0.2-0.3,0.2l0,0c-0.7,0.1-1.3,0.1-2,0.1l-1,0.1c-0.3,0-0.7,0.1-1,0.1h-0.1
		c-0.3,0-0.5-0.2-0.5-0.5c0,0,0,0,0,0C253.6,89,253.6,88.8,253.7,88.7z"></path><path class="st0" d="M257.8,90.4c0,1.8-0.2,3.5-0.6,5.2c0,0-2.6-0.4-2.6,1.4c0,2.1,3.1,1.7,3.4-0.1"></path><path class="st1" d="M256,98.9h-0.2c-1,0-1.8-0.9-1.8-1.9c0,0,0-0.1,0-0.1c0-0.5,0.2-1,0.6-1.4c0.6-0.4,1.4-0.6,2.1-0.6
		c0.3-1.5,0.4-3.1,0.5-4.7c0-0.3,0.2-0.5,0.5-0.5s0.5,0.2,0.5,0.5c0,1.8-0.2,3.6-0.6,5.3c-0.1,0.3-0.3,0.4-0.6,0.4
		c-0.6-0.1-1.3,0-1.8,0.3c-0.2,0.2-0.3,0.4-0.2,0.6c-0.1,0.5,0.2,0.9,0.7,1c0.1,0,0.1,0,0.2,0c0.7,0.1,1.4-0.4,1.5-1.1
		c0.1-0.3,0.3-0.5,0.6-0.4c0.3,0,0.5,0.3,0.4,0.6C258.2,98.1,257.2,98.9,256,98.9z"></path><path class="st1" d="M264.9,91.4c0,0.8-0.3,1.4-0.9,1.4s-1-0.6-1-1.3c0-0.2,0-0.4,0.1-0.7l0.9,0.4l-0.5-1.1
		c0.1-0.1,0.2-0.1,0.4-0.1C264.3,90.1,264.8,90.7,264.9,91.4z"></path><path class="st1" d="M256.7,92.6c0,0.6-0.2,1.1-0.6,1.1s-0.8-0.4-0.8-1c0-0.2,0-0.3,0-0.5l0.7,0.3l-0.4-0.8
		c0.1-0.1,0.2-0.1,0.3-0.1C256.3,91.6,256.6,92,256.7,92.6z"></path><path class="st1" d="M263.8,101.1c-0.6,0-1.2-0.2-1.7-0.4c-0.2-0.1-0.3-0.4-0.2-0.7c0.1-0.2,0.4-0.4,0.7-0.2c0,0,0,0,0,0
		c0.6,0.4,1.4,0.4,2.1,0.2c1.4-0.6,1.9-2.7,1.9-2.8c0.1-0.3,0.3-0.4,0.6-0.4c0.3,0.1,0.4,0.3,0.4,0.6c0,0,0,0,0,0
		c0,0.1-0.7,2.6-2.5,3.4C264.7,101,264.2,101.1,263.8,101.1z"></path><path class="st0" d="M280.1,93c0,0,0-2.1,1.9-2.3"></path><path class="st1" d="M280.1,93.5L280.1,93.5c-0.3,0-0.5-0.2-0.5-0.5c-0.1-1.4,1-2.6,2.4-2.8c0.3,0,0.5,0.2,0.5,0.5
		c0,0.3-0.2,0.5-0.5,0.5c-1.4,0.1-1.4,1.7-1.4,1.8C280.7,93.3,280.4,93.5,280.1,93.5C280.2,93.5,280.2,93.5,280.1,93.5z"></path><path class="st0" d="M283,93.7c0,0-0.1-2.2-1.9-2.6"></path><path class="st1" d="M283,94.2c-0.3,0-0.5-0.2-0.5-0.5c0-0.1-0.1-1.8-1.5-2.2c-0.3-0.1-0.4-0.3-0.4-0.6c0,0,0,0,0,0
		c0.1-0.3,0.3-0.4,0.6-0.4c0,0,0,0,0,0c2.1,0.6,2.3,3,2.3,3.1C283.5,93.9,283.3,94.2,283,94.2C283,94.2,283,94.2,283,94.2L283,94.2z
		"></path><polygon class="st2" points="263.3,193.8 263.3,200.6 319.3,176.5 319.3,169.6 	"></polygon><path class="st1" d="M263.3,201.1c-0.3,0-0.5-0.2-0.5-0.5v-6.9c0-0.2,0.1-0.4,0.3-0.5l56-24.2c0.1-0.1,0.3-0.1,0.5,0
		c0.1,0.1,0.2,0.2,0.2,0.4v6.9c0,0.2-0.1,0.4-0.3,0.5l-56,24.2C263.4,201.1,263.4,201.1,263.3,201.1z M263.8,194.1v5.8l55-23.7v-5.8
		L263.8,194.1z"></path><polygon class="st0" points="163.7,175 163.7,168.1 263.3,193.8 263.3,200.6 	"></polygon><path class="st1" d="M263.3,201.1h-0.1l-99.6-25.6c-0.2-0.1-0.4-0.3-0.4-0.5v-6.9c0-0.3,0.2-0.5,0.5-0.5c0,0,0.1,0,0.1,0l99.6,25.6
		c0.2,0.1,0.4,0.3,0.4,0.5v6.9c0,0.2-0.1,0.3-0.2,0.4C263.5,201.1,263.4,201.1,263.3,201.1z M164.2,174.6l98.6,25.4v-5.8l-98.6-25.4
		L164.2,174.6z"></path><path class="st1" d="M310.6,167.2L310.6,167.2c-0.3,0-0.5-0.3-0.5-0.6c0-0.1,1.5-11.3,1.8-18.7s-1.9-17.9-2-18
		c-0.1-0.3,0.1-0.5,0.4-0.6c0.3-0.1,0.5,0.1,0.6,0.4c0,0.1,2.3,10.7,2,18.2s-1.8,18.7-1.8,18.8C311.1,167,310.9,167.2,310.6,167.2
		C310.6,167.2,310.6,167.2,310.6,167.2z"></path></g><g id="gear-icon"><path class="st1" d="M478,290.8v7.5c-0.9,0.1-1.8,0-2.6-0.1c-0.1-0.2-2-2.2-2-2.2c0.2-1,0.5-2,0.9-3
		C474.7,292.5,478,290.8,478,290.8z"></path><path class="st1" d="M477,298.8c-1.7,0-1.9-0.2-2-0.4s-1.1-1.2-1.9-2.1c-0.1-0.1-0.2-0.3-0.1-0.4c0.1-1.1,0.5-2.2,1-3.3
		c1.2-0.8,2.5-1.5,3.9-2.2c0.2-0.1,0.3-0.1,0.5,0c0.1,0.1,0.2,0.3,0.2,0.4v7.5c0,0.3-0.2,0.5-0.5,0.5L477,298.8z M475.8,297.7
		c0.6,0.1,1.2,0.1,1.8,0.1v-6.1c-1,0.5-1.9,1-2.9,1.6c-0.3,0.8-0.5,1.6-0.7,2.5C474.5,296.3,475.5,297.3,475.8,297.7L475.8,297.7z"></path><path class="st1" d="M465.8,277.1v7.5c0,0-4.3,0.6-4.5,0.4s-3.3-1.8-3.4-2.2s-0.9-2.4-0.7-2.6S465.8,277.1,465.8,277.1z"></path><path class="st1" d="M461.8,285.5c-0.7,0-0.8-0.1-0.9-0.2s-0.6-0.4-1-0.6c-2-1.1-2.4-1.4-2.5-1.8c0-0.1-0.1-0.3-0.2-0.5
		c-0.6-1.8-0.7-2.2-0.4-2.6c0.1-0.1,0.3-0.3,8.9-3.2c0.3-0.1,0.5,0,0.6,0.3c0,0.1,0,0.1,0,0.2v7.5c0,0.2-0.2,0.5-0.4,0.5
		C464.5,285.3,463.2,285.5,461.8,285.5z M461.5,284.5c1.3,0,2.5-0.2,3.8-0.4v-6.3c-2.8,0.9-6.7,2.2-7.7,2.6c0.1,0.4,0.4,1.2,0.5,1.6
		c0.1,0.2,0.1,0.4,0.2,0.5c0.7,0.5,1.4,0.9,2.1,1.3C460.8,284.1,461.1,284.3,461.5,284.5L461.5,284.5z"></path><path class="st3" d="M476.6,297.2l-16-2.2c-0.5,0-1-0.2-1.3-0.6c-0.3-0.4-0.6-0.9-1-1.3c-0.4-0.4-0.8-0.9-1.2-1.2
		c-0.2-0.1-0.3-0.4-0.1-0.7c0-0.1,0.1-0.1,0.2-0.2l8.3-6c0.5-0.3,0.3-0.8-0.4-1l-21.7-7.7c-0.8-0.3-1.6-0.3-2.4,0l-11.5,4.6
		c-0.5,0.2-1.1,0.3-1.7,0.2c-0.9-0.1-1.8-0.2-2.8-0.3s-1.9-0.1-2.9-0.2c-0.5,0-1-0.1-1.4-0.4l-6.5-5.9c-0.6-0.4-1.4-0.5-2.1-0.4
		l-26.4,4.1c-0.9,0.1-1.5,0.5-1.3,0.9l2.1,6.7c0.1,0.3-0.1,0.5-0.6,0.8l-0.7,0.3l-2.8,1.3c-0.2,0.1-0.4,0.2-0.7,0.4
		c-0.5,0.3-1.1,0.4-1.7,0.4l-16-0.3c-0.8-0.1-1.6,0.2-2.1,0.7l-8.9,13.3c-0.3,0.5,0.1,0.9,1,1l15.6,2.3c0.6,0.1,1.1,0.3,1.2,0.6
		c0.2,0.5,0.4,1,0.6,1.4c0.2,0.5,0.5,1,0.9,1.4c0.3,0.3,0.1,0.6-0.3,0.9l-11.2,7.1c-0.7,0.4-0.7,1,0.1,1.3l22.4,10.3
		c0.9,0.3,1.9,0.3,2.8,0l14.3-6.3c0.6-0.3,1.3-0.4,2-0.2c1,0.1,2,0.2,3.1,0.3s2.2,0.2,3.3,0.2c0.6,0,1.1,0.2,1.6,0.6l7.5,8.1
		c0.7,0.6,1.7,0.8,2.6,0.5l30.9-5.8c1-0.2,1.5-0.7,1.3-1.2l-4.2-8.6c-0.2-0.3,0.1-0.7,0.6-1c0.2-0.1,0.5-0.2,0.7-0.4l2.7-1.6
		c0.2-0.1,0.4-0.3,0.6-0.4c0.5-0.3,1.1-0.4,1.7-0.4l17.5,0.4c1,0,1.9-0.3,2-0.8l3.7-14.1C478.2,297.8,477.5,297.4,476.6,297.2z
		 M435.9,308.4c-9.9,5.6-27.3,6.4-38.3,1.7c-10.6-4.5-10.6-12.3-0.6-17.3c9.7-4.9,25.7-5.5,36.2-1.5
		C444,295.3,445.5,303,435.9,308.4z"></path><path class="st1" d="M452.6,318.3l0.1,7.2c-0.9-0.2-1.8-0.6-2.7-1c-0.3-0.3-2.4-2.2-2.5-2.8c-0.1-1.1-0.1-2.2,0-3.2l1.6-1.2
		L452.6,318.3z"></path><path class="st1" d="M452.7,326h-0.1c-1-0.2-2-0.6-2.9-1.1c-0.1-0.1-0.2-0.2-0.5-0.4c-0.9-0.7-1.6-1.6-2.2-2.5
		c-0.1-1.1-0.1-2.3,0-3.4c0-0.1,0.1-0.3,0.2-0.4l1.6-1.2c0.1-0.1,0.3-0.1,0.4-0.1l3.5,1c0.2,0.1,0.4,0.3,0.4,0.5l0.1,7.2
		C453.2,325.8,453,326,452.7,326L452.7,326z M448,318.8c-0.1,0.9-0.1,1.9,0,2.8c0.6,0.8,1.2,1.5,1.9,2.1l0.5,0.5
		c0.6,0.3,1.2,0.5,1.8,0.7l-0.1-6.1l-2.9-0.8L448,318.8z"></path><path class="st1" d="M360.2,310.6v7.5c0,0,4.4-1.1,4.6-1.2s2.9-2.1,2.9-2.1l-0.7-2.6l-2.2-1.7L360.2,310.6z"></path><path class="st1" d="M360.2,318.6c-0.1,0-0.2,0-0.3-0.1c-0.1-0.1-0.2-0.2-0.2-0.4v-7.5c0-0.3,0.2-0.5,0.5-0.5l4.5-0.2
		c0.1,0,0.2,0,0.3,0.1l2.2,1.7c0.1,0.1,0.2,0.2,0.2,0.3l0.7,2.6c0.1,0.2,0,0.4-0.2,0.5c-1.3,0.9-2.7,1.9-2.8,2.1s-0.2,0.3-4.8,1.4
		L360.2,318.6z M360.7,311.1v6.4c1.7-0.4,3.4-0.9,3.8-1c0.2-0.2,0.7-0.6,2.6-1.9l-0.6-2.1l-2-1.5L360.7,311.1z"></path><path class="st1" d="M352.9,295.5v7.3c0,0,3.1-1.1,3.2-1.3l2.5-4.8l-1.4-2.4L352.9,295.5z"></path><path class="st1" d="M352.9,303.3c-0.3,0-0.5-0.2-0.5-0.5c0,0,0,0,0,0v-7.3c0-0.2,0.2-0.4,0.4-0.5l4.4-1.1c0.2,0,0.4,0,0.6,0.2
		l1.4,2.4c0.1,0.2,0.1,0.3,0,0.5c0,0-2.5,4.6-2.5,4.8s-0.2,0.3-3.4,1.5C353,303.3,353,303.3,352.9,303.3z M353.4,295.9v6.2
		c1-0.4,2-0.8,2.3-0.9c0.3-0.6,1.9-3.5,2.4-4.4L357,295L353.4,295.9z"></path><path class="st1" d="M384.4,278.8c0-0.1,0-7.2,0-7.2s2.8,2.5,2.8,2.7s1.2,2.7,1.2,2.7l-0.5,2.2l-0.6,0.9L384.4,278.8z"></path><path class="st1" d="M387.3,280.6c-0.1,0-0.1,0-0.2,0l-2.9-1.3c-0.2-0.1-0.3-0.3-0.3-0.5c0-0.3,0-4.4,0-7.1c0-0.2,0.1-0.4,0.3-0.5
		c0.2-0.1,0.4,0,0.5,0.1c2.9,2.7,2.9,2.8,2.9,3c0,0.1,0.6,1.4,1.1,2.5c0,0.1,0,0.2,0,0.3l-0.5,2.2c0,0.1,0,0.1-0.1,0.2l-0.6,0.9
		C387.6,280.5,387.5,280.6,387.3,280.6z M384.9,278.5l2.1,1l0.3-0.5l0.4-1.9c-0.8-1.7-1-2.3-1.1-2.6s-0.9-0.9-1.8-1.7
		C384.9,276.4,384.9,277.9,384.9,278.5z"></path><path class="st4" d="M476.6,289.8l-16-2.2c-0.5,0-1-0.2-1.3-0.6c-0.3-0.4-0.6-0.9-1-1.3c-0.4-0.4-0.8-0.9-1.2-1.2
		c-0.2-0.1-0.3-0.4-0.1-0.7c0-0.1,0.1-0.1,0.2-0.2l8.3-6c0.5-0.3,0.3-0.8-0.4-1l-21.7-7.7c-0.8-0.3-1.6-0.3-2.4,0l-11.5,4.6
		c-0.5,0.2-1.1,0.3-1.7,0.2c-0.9-0.1-1.8-0.2-2.8-0.3s-1.9-0.1-2.9-0.2c-0.5,0-1-0.1-1.4-0.4l-6.5-5.8c-0.6-0.4-1.4-0.5-2.1-0.4
		l-26.4,4.1c-0.9,0.1-1.5,0.5-1.3,0.9l2.1,6.7c0.1,0.3-0.1,0.5-0.6,0.8l-0.7,0.3l-2.8,1.3c-0.2,0.1-0.4,0.2-0.7,0.4
		c-0.5,0.3-1.1,0.4-1.7,0.4l-16-0.3c-0.8-0.1-1.6,0.2-2.1,0.7L353,295c-0.3,0.5,0.1,0.9,1,1l15.6,2.3c0.6,0.1,1.1,0.3,1.2,0.6
		c0.2,0.5,0.4,1,0.6,1.4c0.2,0.5,0.5,1,0.9,1.4c0.3,0.3,0.1,0.6-0.3,0.9l-11.2,7.1c-0.7,0.4-0.7,1,0.1,1.3l22.4,10.3
		c0.9,0.4,1.9,0.4,2.8,0l14.3-6.3c0.6-0.3,1.3-0.4,2-0.2c1,0.1,2,0.2,3.1,0.3s2.2,0.2,3.3,0.2c0.6,0,1.1,0.2,1.6,0.6l7.5,8.1
		c0.7,0.6,1.7,0.8,2.6,0.5l30.9-5.8c1-0.2,1.5-0.7,1.3-1.2l-4.2-8.6c-0.2-0.3,0.1-0.7,0.6-1c0.2-0.1,0.5-0.2,0.7-0.4l2.7-1.6
		c0.2-0.1,0.4-0.3,0.6-0.4c0.5-0.3,1.1-0.4,1.7-0.4l17.5,0.4c1,0,1.9-0.3,2-0.8l3.7-14.1C478.2,290.3,477.5,289.9,476.6,289.8z
		 M435.9,300.9c-9.9,5.6-27.3,6.4-38.3,1.7c-10.6-4.5-10.6-12.3-0.6-17.3c9.7-4.9,25.7-5.5,36.2-1.5
		C444,287.9,445.5,295.5,435.9,300.9z"></path></g><g id="checkbox"><polygon class="st0" points="194.6,160.8 123.2,193.3 44.5,173.5 118.1,140.1 	"></polygon><path class="st1" d="M123.2,193.8h-0.1L44.3,174c-0.2-0.1-0.3-0.2-0.4-0.4c0-0.2,0.1-0.4,0.3-0.5l73.7-33.4c0.1,0,0.2,0,0.3,0
		l76.5,20.8c0.2,0.1,0.3,0.2,0.4,0.4c0,0.2-0.1,0.4-0.3,0.5l-71.4,32.5C123.4,193.9,123.3,193.9,123.2,193.8z M46,173.3l77.2,19.5
		l70-31.8l-75-20.4L46,173.3z"></path><ellipse class="st0" cx="117.2" cy="165.4" rx="32.7" ry="12.9"></ellipse><path class="st1" d="M117.2,178.8c-18.6,0-33.2-5.9-33.2-13.4S98.6,152,117.2,152s33.2,5.9,33.2,13.4S135.9,178.8,117.2,178.8z
		 M117.2,153c-17.8,0-32.2,5.6-32.2,12.4s14.5,12.4,32.2,12.4s32.2-5.6,32.2-12.4S135,153,117.2,153L117.2,153z"></path><path class="st2" d="M105.6,168.9c-0.1,0-0.3-0.1-0.4-0.2c-0.1-0.1-0.2-0.2-0.1-0.4l1-9.9c0-0.3,0.3-0.5,0.5-0.5c0,0,0,0,0,0
		c0.3,0,0.5,0.3,0.5,0.5c0,0,0,0,0,0l-1,9.4l48.6-2.9c0.3,0,0.5,0.2,0.5,0.4c0,0,0,0,0,0c0,0.3-0.2,0.5-0.5,0.5L105.6,168.9
		L105.6,168.9z"></path></g><g id="flow"><path class="st1" d="M241.5,443.4c-0.2,0-0.4-0.1-0.5-0.3c-0.1-0.3,0-0.5,0.2-0.7l125-56.9l-260.7-70.8L47.7,341
		c-0.3,0.1-0.5,0-0.7-0.2c-0.1-0.2,0-0.5,0.2-0.7c0,0,0,0,0,0l58.1-26.4c0.1,0,0.2,0,0.3,0l262.1,71.2c0.2,0.1,0.4,0.2,0.4,0.4
		c0,0.2-0.1,0.4-0.3,0.5l-126.2,57.5C241.6,443.4,241.6,443.4,241.5,443.4z"></path><path class="st1" d="M81.7,187.4c-0.2,0-0.4-0.1-0.4-0.3c-0.1-0.2,0-0.5,0.2-0.7l5.4-2.7c0.2-0.1,0.5,0,0.7,0.2c0,0,0,0,0,0
		c0.1,0.2,0,0.5-0.2,0.7l-5.3,2.7C81.9,187.4,81.8,187.4,81.7,187.4z"></path><path class="st1" d="M67.6,198.9h-0.1l-5.8-1.4c-0.2,0-0.4-0.2-0.4-0.4c0-0.2,0.1-0.4,0.3-0.5l5.4-2.7c0.2-0.1,0.5-0.1,0.7,0.2
		c0.1,0.2,0.1,0.5-0.2,0.7c0,0,0,0-0.1,0l-4.1,2.1l4.5,1.1c0.3,0.1,0.4,0.3,0.4,0.6C68.1,198.7,67.9,198.9,67.6,198.9z"></path><path class="st1" d="M153.4,219.2h-0.1l-10.7-2.5c-0.3-0.1-0.4-0.3-0.4-0.6c0.1-0.3,0.3-0.4,0.6-0.4c0,0,0,0,0,0l10.7,2.5
		c0.3,0.1,0.4,0.3,0.4,0.6c0,0,0,0,0,0C153.9,219.1,153.7,219.2,153.4,219.2z M132,214.1h-0.1l-10.7-2.5c-0.3-0.1-0.4-0.3-0.4-0.6
		c0.1-0.3,0.3-0.4,0.6-0.4c0,0,0,0,0,0l10.7,2.5c0.3,0,0.5,0.3,0.4,0.6C132.5,214,132.3,214.2,132,214.1L132,214.1z M110.6,209.1
		h-0.1l-10.7-2.6c-0.3-0.1-0.4-0.3-0.4-0.6c0.1-0.3,0.3-0.4,0.6-0.4l10.7,2.6c0.3,0.1,0.4,0.3,0.4,0.6c0,0,0,0,0,0
		C111,208.9,110.8,209.1,110.6,209.1L110.6,209.1z M89.1,204L89.1,204l-10.8-2.5c-0.3-0.1-0.4-0.3-0.4-0.6c0.1-0.3,0.3-0.4,0.6-0.4
		l10.7,2.5c0.3,0,0.5,0.3,0.4,0.6C89.6,203.8,89.4,204,89.1,204z"></path><path class="st1" d="M170,223.2h-0.1l-5.9-1.4c-0.3-0.1-0.4-0.3-0.4-0.6c0.1-0.3,0.3-0.4,0.6-0.4l5.8,1.4c0.3,0,0.5,0.3,0.4,0.6
		C170.5,223,170.2,223.2,170,223.2L170,223.2z"></path><path class="st1" d="M136.6,314.7c-0.2,0-0.4-0.1-0.4-0.3c-0.1-0.2,0-0.5,0.2-0.7c0,0,0,0,0,0l8-4.3c0.2-0.1,0.5,0,0.7,0.2
		c0.1,0.2,0,0.5-0.2,0.7c0,0,0,0,0,0l-8,4.3C136.7,314.7,136.7,314.7,136.6,314.7z M155.2,304.7c-0.2,0-0.4-0.1-0.4-0.3
		c-0.1-0.2,0-0.5,0.2-0.7l10.6-5.7c0.2-0.1,0.5,0,0.7,0.2c0,0,0,0,0,0c0.1,0.2,0,0.5-0.2,0.7l-10.6,5.7
		C155.4,304.7,155.3,304.7,155.2,304.7z M176.3,293.4c-0.2,0-0.4-0.1-0.4-0.3c-0.1-0.2,0-0.5,0.2-0.7c0,0,0,0,0,0l10.6-5.7
		c0.2-0.1,0.5,0,0.7,0.2c0,0,0,0,0,0c0.1,0.2,0,0.5-0.2,0.7c0,0,0,0,0,0l-10.6,5.7C176.5,293.3,176.4,293.4,176.3,293.4L176.3,293.4
		z M197.5,282c-0.3,0-0.5-0.2-0.5-0.5c0-0.2,0.1-0.4,0.3-0.4l10.6-5.7c0.2-0.1,0.5,0,0.7,0.2c0,0,0,0,0,0c0.1,0.2,0,0.5-0.2,0.7
		c0,0,0,0,0,0l-10.6,5.7C197.7,282,197.6,282,197.5,282z"></path><path class="st1" d="M318.8,361.1c-0.2,0-0.4-0.1-0.4-0.3c-0.1-0.2,0-0.5,0.2-0.7c0,0,0,0,0,0l10.6-5.7c0.2-0.1,0.5,0,0.7,0.2
		c0.1,0.2,0,0.5-0.2,0.7l-10.6,5.7C318.9,361.1,318.9,361.1,318.8,361.1z M339.9,349.8c-0.2,0-0.4-0.1-0.4-0.3
		c-0.1-0.2,0-0.5,0.2-0.7c0,0,0,0,0,0l10.6-5.7c0.2-0.1,0.5,0,0.7,0.2c0,0,0,0,0,0c0.1,0.2,0,0.5-0.2,0.7l-10.6,5.7
		C340.1,349.8,340,349.8,339.9,349.8z M361.1,338.4c-0.3,0-0.5-0.2-0.5-0.5c0-0.2,0.1-0.4,0.3-0.4l10.6-5.7c0.2-0.1,0.5,0,0.7,0.2
		c0.1,0.2,0,0.5-0.2,0.7l-10.6,5.7C361.2,338.4,361.2,338.5,361.1,338.4L361.1,338.4z"></path></g></svg>