<?xml version="1.0" encoding="iso-8859-1"?>
<!-- Uploaded to: SVG Repo, www.svgrepo.com, Generator: SVG Repo Mixer Tools -->
<!DOCTYPE svg PUBLIC "-//W3C//DTD SVG 1.1//EN" "http://www.w3.org/Graphics/SVG/1.1/DTD/svg11.dtd">
<svg fill="#FFFFFF" version="1.1" id="Capa_1" xmlns="http://www.w3.org/2000/svg" xmlns:xlink="http://www.w3.org/1999/xlink" 
	 width="800px" height="800px" viewBox="0 0 113.41 113.41"
	 xml:space="preserve">
<g>
	<path d="M113.405,11.237c0-1.091-0.654-2.08-1.661-2.494c-1.018-0.411-2.167-0.185-2.953,0.572L84.09,33.9L58.611,8.43
		c-1.047-1.052-2.766-1.052-3.812,0L29.283,33.935L4.611,9.315C3.839,8.548,2.679,8.327,1.669,8.743C0.659,9.157,0,10.146,0,11.237
		v69.726c0-4.366,4.941-7.583,15.557-10.109c1.463-0.363,2.911,0.56,3.262,1.999c0.34,1.45-0.557,2.911-1.999,3.254
		C6.389,78.59,5.411,80.995,5.405,81.016c0,1.487-1.21,2.674-2.7,2.674c-1.484,0-2.694-1.234-2.694-2.727v9.798
		c0,0.169,0.071,0.332,0.103,0.507c-0.016,0.169-0.103,0.321-0.103,0.495c0,11.059,35.646,14.007,56.705,14.007
		c21.057,0,56.694-2.948,56.694-14.007c0-0.174-0.084-0.326-0.095-0.495c0.032-0.169,0.095-0.338,0.095-0.507V11.237H113.405z
		 M64.552,67.067c0.021,0,0.053,0,0.09,0c5.664,0.174,11.164,0.538,16.354,1.07c1.471,0.148,2.567,1.477,2.399,2.964
		c-0.132,1.387-1.303,2.421-2.68,2.421c-0.095,0-0.185-0.006-0.284-0.016C75.368,72.979,70,72.636,64.452,72.468
		c-1.472-0.048-2.647-1.287-2.6-2.79C61.895,68.223,63.102,67.067,64.552,67.067z M51.052,69.704
		c0.047,1.482-1.124,2.737-2.613,2.784c-5.574,0.18-10.942,0.549-15.968,1.076c-0.098,0.011-0.19,0.016-0.292,0.016
		c-1.361,0-2.534-1.018-2.679-2.415c-0.156-1.472,0.913-2.811,2.397-2.969c5.152-0.554,10.66-0.923,16.363-1.107
		C49.668,67.199,50.997,68.217,51.052,69.704z M16.205,43.767v18.586c0,1.493-1.21,2.7-2.7,2.7s-2.7-1.207-2.7-2.7V37.26
		c0-1.084,0.659-2.078,1.669-2.489c1.015-0.411,2.165-0.19,2.942,0.572l13.882,13.851l15.412-15.412
		c1.049-1.046,2.766-1.046,3.818,0c1.049,1.055,1.049,2.771,0,3.818L31.216,54.923c-1.052,1.055-2.769,1.042-3.815,0.005
		L16.205,43.767z M56.711,100.369c-31.989,0-50.409-5.638-51.311-8.554c0.891-3.026,19.301-8.658,51.311-8.658
		c31.999,0,50.403,5.643,51.3,8.553C107.108,94.731,88.694,100.369,56.711,100.369z M111.228,83.099
		c-0.19,0.042-0.38,0.063-0.564,0.063c-1.239,0-2.368-0.876-2.637-2.142c-0.011-0.021-1.028-2.504-11.907-5.015
		c-1.461-0.332-2.368-1.782-2.025-3.243c0.332-1.455,1.772-2.362,3.243-2.025c13.236,3.049,15.446,6.688,15.979,9.155
		C113.605,81.354,112.678,82.788,111.228,83.099z"/>
</g>
</svg>